<?xml version="1.0" encoding="UTF-8"?>
<svg id="Layer_1" xmlns="http://www.w3.org/2000/svg" viewBox="0 0 452.17 72.87">
  <defs>
    <style>
      .cls-1 {
        fill: none;
      }

      .cls-1, .cls-2 {
        stroke: #231f20;
        stroke-miterlimit: 10;
        stroke-width: 2px;
      }

      .cls-2 {
        fill: #ffc721;
      }

      .cls-3 {
        fill: #eaa294;
      }

      .cls-4 {
        fill: #ededed;
      }

      .cls-5 {
        fill: #c18678;
      }
    </style>
  </defs>
  <path class="cls-2" d="M450.79,1.2l-.11,71.67-354.24-.52c-2.18,0-4.35-.39-6.4-1.14L3.77,39.66c-3.07-1.12-3.06-5.46,0-6.58L90.72,1.59c1.68-.61,3.45-.92,5.24-.92l354.84.52Z"/>
  <path class="cls-5" d="M55.77,22.26c-1.27.77-1.98,1.96-2.43,3.28-.21.16-.4.34-.59.51-1.26-.09-2.56.18-3.63.83-.41.25-.76.54-1.1.86-.81-.03-1.64.06-2.45.31-4.34,1.32-5.29,5.92-4.51,9.87.71,3.58,2.98,7.34,6.22,9.14.66.36,1.39.66,2.15.86,1.33,1.86,3.41,3.08,6.1,2.98,2.6-.1,5.12-1.47,6.97-3.46.46.11.94.19,1.44.21,5.05.15,7.04-4.97,6.38-9.31.12-2.09-.73-4.22-2.11-5.76-.15-.17-.32-.31-.48-.46.58-.98.7-2.23.04-3.24-.28-.42-.59-.82-.91-1.2,0,0,0,0,0,0-.31-.43-.61-.85-.92-1.27-.73-.98-1.48-1.98-2.39-2.8-2.12-1.9-5.14-2.93-7.77-1.34Z"/>
  <path class="cls-3" d="M89.14,2.17c-.9.12-1.6.54-2.25,1.15-.04.04-.31.3-.51.51-.24.04-.49.15-.72.21-.3.07-.6.12-.9.17-.1.01-.35.05-.44.06-1.35.16-2.74.27-4.03.72-1.47.51-2.49,1.39-3.71,2.3.35-.26-.5.31-.48.3-.26.16-.52.3-.78.44-.4.21-.81.41-1.22.62-.29,0-.58,0-.89.05-1.19.2-2.28.78-3.3,1.42-.47-.11-.97-.11-1.47.08-.67.25-1.33.53-1.98.81-.24.1-.49.21-.73.31-.11.05-.87.44-.21.09-.45.24-.99.4-1.48.55-.25.08-.5.14-.75.22-.02,0-.03,0-.04.02-1.6.03-2.84.77-3.92,1.9,0,.01-.02.02-.03.03-.69.22-1.37.46-2.04.76-.25.11-.48.25-.72.38-1.66.14-3.34.16-4.91.76-.86.33-1.7.73-2.5,1.21-.07-.02-.13-.05-.2-.06-1.27-.23-2.35-.05-3.48.6-.66.38-1.31.76-1.99,1.1-.18.09-.36.17-.54.26-.03.01-.22.09-.32.14-.11.04-.27.1-.3.11-.2.07-.4.14-.6.21-.83.29-1.66.55-2.5.8-1.82.55-3.55,1.29-5.29,2.04-.39.17-.78.33-1.17.5-.24.1-.48.21-.72.31-.03.01-.22.09-.33.14-.11.04-.32.13-.35.14-.18.07-.37.13-.56.2-.52.18-1.05.38-1.53.65-.07.04-.12.09-.18.13-.95-.47-2.11-.52-3.05.08-1.45.93-2.1,2.87-1.17,4.42.48.8.84,1.54,1.48,2.26.09.1.18.19.27.29.01.02.02.03.03.05.04.08.06.13.09.17.04.13.09.26.13.4.03.13.13.89.14.8.02.33.04.65.04.98,0,.39-.02.78-.04,1.17-.01.19-.03.38-.04.57,0,.06,0,.1-.01.14,0,.05-.02.13-.05.28-.04.21-.08.41-.13.62-.09.42-.2.83-.3,1.24-.2.83-.32,1.68-.49,2.52-.08.42-.21.83-.31,1.24-.01.03-.01.04-.02.06-.05.1-.1.2-.15.29-.02.04-.05.08-.08.12-1.64.31-2.7,2.43-2.21,3.95.58,1.81,2.18,2.55,3.97,2.26.41-.07.8-.2,1.16-.38.2.21.42.4.69.54,1.83.96,3.74,1.32,5.72,1.8.43.1.85.25,1.28.36,0,0,0,.01.02.02.12.11.32.22.47.3.02,0,.02,0,.03.02.14.11.27.22.41.33.46.37.92.76,1.42,1.07,1.6,1.01,3.57,1.05,5.31,1.73,1.08.42,2.22.77,3.36,1.09.58.77,1.47,1.29,2.54,1.3.92.01,1.29.07,2.2.23.72.12,1.44.22,2.17.32.23.26.49.49.82.65.54.25.98.63,1.47.96.66.45,1.43.75,2.17,1.03,1.24.46,2.56.69,3.83,1.09,2.7.86,5.27,2.07,7.98,2.93,0,0,0,0,0,0,.07.05.13.11.19.15,1.16.84,2.49,1.24,3.79,1.81,1.49.65,2.9,1.45,4.41,2.05,1.52.6,3.12.95,4.65,1.51,2.75,1,5.31,2.34,8.24,2.77,2.12.31,4.54.49,6.6-.3,2.97.48,5.73-.47,8.56-1.3.43-.13.85-.29,1.28-.44,2.46.47,4.48-.39,6.73-1.4,2.02-.91,4.47-1.13,5.76-3.16.96-1.52.89-3.38.75-5.11-.21-2.73-1.94-4.36-4.41-5.28-2.02-.75-4.05-1.46-6.06-2.26-1.81-.73-3.41-1.76-5.17-2.58-2.08-.96-4.32-1.36-6.57-1.75-.6-.1-1.2-.21-1.79-.3,1.05-.22,2.08-.52,3.13-.77.21.05.43.07.66.07,1.14,0,2.24-.01,3.37-.2.37-.06.73-.16,1.09-.28.08.03.15.07.23.09,1.35.37,2.94.24,4.25-.22,1.3-.46,2.34-1.3,3.56-1.91.02-.01.03-.02.05-.02.02,0,.03,0,.05-.02.15-.06.29-.12.44-.17.29-.11.59-.23.88-.34.8-.32,1.6-.64,2.36-1.03,1.31-.67,2.41-1.55,3.14-2.85.73-1.31,1.11-2.73.68-4.13-.03-1.05-.27-2.08-.76-2.88-1-1.63-2.67-2.32-4.32-3.07-.23-.21-.46-.43-.7-.62-.67-.55-1.45-.88-2.24-.91-.12-.08-.25-.14-.37-.22-.79-.57-1.6-1.4-2.56-1.91-1.92-1.04-4.05-1.46-6.17-1.89-.98-.2-1.98-.39-2.98-.55.46-.52.7-1.08.76-1.64,3.33-.15,6.72-.62,9.96-1.37,3.2-.73,6.49-2.2,8.33-5.07,2.19-3.42.57-7.24-2.57-9.32-.16-.1-.32-.17-.48-.26-.42-1.06-1.37-1.91-2.85-1.94-2.49-.05-5.1-.76-7.5-1.08-2.53-.34-5.11-1.04-7.74-1.1-2.47-.06-5.15-.33-7.62.03-.61-.34-1.32-.49-2.12-.39Z"/>
  <path class="cls-1" d="M21.58,46.17c5.98-5.37,6.69-14.33,1.58-20.02"/>
  <g>
    <path class="cls-1" d="M90.72,1.59c23.89.04,31.5,4.81,31.12,11.68"/>
    <path class="cls-1" d="M93.01,23.55c15.92.03,28.81-4.57,28.82-10.28"/>
  </g>
  <g>
    <path class="cls-1" d="M93.03,23.54c15.92.03,28.78,6.23,28.77,13.85"/>
    <path class="cls-1" d="M92.98,48.68c15.92.03,28.8-5.02,28.82-11.29"/>
  </g>
  <g>
    <path class="cls-1" d="M92.99,48.68c15.92.03,28.79,5.86,28.78,13.04"/>
    <path class="cls-1" d="M91.4,71.65c16.5,1.83,30.35-4.03,30.36-9.93"/>
  </g>
  <line class="cls-1" x1="12.61" y1="42.9" x2="91.4" y2="71.65"/>
  <line class="cls-1" x1="13.37" y1="29.61" x2="91.51" y2="1.3"/>
  <g>
    <path class="cls-4" d="M216.19,37.78c-.1.06-.19.17-.28.33s-.2.45-.35.88l-1,2.73c-.03.48-.13.86-.29,1.15-.16.28-.34.48-.53.59-.19.11-.34.16-.45.16-.36,0-.62-.08-.8-.24s-.26-.45-.26-.88c0-.69.17-1.32.51-1.88l.34-.95c.37-1.05.68-1.9.94-2.56-.03-.09-.04-.23-.04-.4,0-.44.06-.8.17-1.06.11-.26.33-.5.65-.69l2.83-6.33s.04-.08.07-.13c.02-.05.05-.11.08-.18.37-.71.7-1.27,1-1.68.3-.41.61-.62.94-.62.73,0,1.41.5,2.03,1.49.62.99,1.15,2.15,1.59,3.49.44,1.34.94,3.02,1.5,5.05.39,1.44.69,2.5.91,3.19s.43,1.15.64,1.39c.04.05.08.09.13.14.04.05.09.1.14.16.17.19.29.33.36.44.07.1.12.23.16.39.03.16.05.38.05.66,0,.92-.46,1.37-1.37,1.37-.4,0-.76-.34-1.09-1.03s-.59-1.42-.77-2.19l-.12-.4c-.23-.77-.4-1.31-.52-1.61-.12-.3-.27-.51-.45-.64s-.44-.2-.79-.2h-5.46c-.21,0-.36.03-.46.08ZM218.26,34.88c.72.03,1.43.04,2.13.04.73,0,1.31-.01,1.73-.04-.3-.84-.74-1.86-1.34-3.07l-1.18-2.44c-.19.1-.56.79-1.1,2.05s-1,2.41-1.37,3.43l1.13.03Z"/>
    <path class="cls-4" d="M231.23,23.98c0-.26.07-.5.19-.72s.26-.39.43-.51c.17-.12.34-.18.5-.18.13,0,.27.06.43.18.16.12.29.29.4.51.11.22.16.48.16.77,0,1.51-.08,3.55-.25,6.12-.09,1.39-.16,2.57-.2,3.55-.04.98-.07,1.99-.07,3.02v.2l5.79-7.19c.15-.22.32-.4.5-.54s.36-.21.53-.21c.42,0,.7.1.86.3.16.2.24.53.24.98v.14c0,.37-.23.8-.7,1.29s-1.14,1.11-2.01,1.87l-.77.68c.14.3.28.64.43,1.03.15.38.25.64.3.77.32.87.61,1.58.88,2.14.24.53.49,1.01.74,1.43.22.34.44.76.67,1.25.02.05.07.16.14.34.07.18.15.37.22.58s.1.37.1.48c0,.45-.13.84-.4,1.15s-.58.47-.94.47c-.23,0-.42-.09-.57-.27-.15-.18-.28-.46-.38-.84,0,.04-.2-.41-.59-1.35s-1.12-2.77-2.2-5.49l-2.84,3.27c0,.59,0,1.04.02,1.36v1.52c.01.38-.1.74-.32,1.08s-.5.51-.84.51c-.26,0-.47-.08-.64-.25-.17-.17-.29-.37-.37-.6-.08-.23-.12-.44-.12-.63l.02-1.19c0-.49.06-1.06.15-1.7.05-.3.08-.6.09-.91l.43-14.39Z"/>
    <path class="cls-4" d="M244.78,32.76c-.36.02-.66.03-.91.03-.14,0-.31-.06-.51-.17-.2-.11-.38-.27-.53-.48s-.22-.44-.22-.71.06-.51.19-.74c.12-.23.28-.42.48-.55.19-.14.4-.21.6-.21.32,0,.9.03,1.76.08.03-1.17.14-2.28.33-3.34.19-1.06.57-1.59,1.12-1.59.13,0,.26.06.4.18.14.12.26.28.35.48.09.2.14.42.14.66,0,1-.06,1.91-.18,2.72l-.04.35-.13.58c.36,0,.78,0,1.27-.01s.86-.02,1.12-.03c.79-.03,1.59-.04,2.38-.04.29,0,.5.16.63.49.13.33.19.67.19,1.04,0,.4-.11.71-.32.94-.21.23-.44.35-.69.35l-4.59-.06v1.3c-.04.79-.06,1.65-.06,2.58,0,1.31.12,2.35.35,3.1s.68,1.13,1.35,1.13c.57,0,1.27-.29,2.1-.86.18-.1.27-.16.28-.16.25,0,.42.07.51.2s.13.36.13.69c0,.4-.17.82-.51,1.27-.34.45-.74.83-1.21,1.14-.47.31-.87.47-1.22.47-1.12,0-1.95-.38-2.49-1.13-.54-.75-.88-1.65-1.01-2.7-.13-1.05-.21-2.41-.23-4.08,0-1.31-.04-2.3-.12-2.96-.15,0-.38,0-.7.03Z"/>
    <path class="cls-4" d="M257.96,43.36c-.21.27-.44.41-.7.41-.37,0-.66-.11-.87-.33-.21-.22-.38-.59-.48-1.11-.08-.45-.12-1.42-.12-2.9,0-2.45.1-4.68.31-6.68.2-2,.67-2.99,1.39-2.99.3,0,.49.12.59.38.09.25.14.61.14,1.08l-.12,1.98c-.05.67-.09,1.37-.13,2.11s-.06,1.39-.06,1.97c0,.61.06,1.47.19,2.58.12,1.15.18,1.95.18,2.39,0,.47-.1.84-.31,1.12ZM257.72,26.82c-.41,0-.79-.11-1.14-.34s-.53-.62-.53-1.19c0-.28.08-.57.25-.86.16-.29.37-.53.61-.72s.47-.28.69-.28c.41,0,.76.12,1.06.37.3.25.45.67.45,1.26,0,1.18-.46,1.77-1.38,1.77Z"/>
    <path class="cls-4" d="M263.4,33.46c.43,1.39.82,2.6,1.19,3.62s.83,2.14,1.38,3.34c.17-.17.52-.78,1.06-1.82.54-1.04,1.45-2.98,2.74-5.8.64-1.2,1.12-2.05,1.44-2.54.33-.5.6-.74.82-.74.26,0,.46.15.61.45.15.3.22.66.22,1.1,0,.19-.04.4-.13.64-.09.24-.27.62-.54,1.15-.27.53-.62,1.17-1.04,1.93l-.55,1.01c-2.37,5.37-4.06,8.06-5.06,8.06-.57,0-1.22-.96-1.97-2.87s-1.58-4.49-2.52-7.72c-.32-.69-.48-1.3-.48-1.84,0-.42.05-.77.15-1.05s.31-.41.63-.41c.41,0,.7.11.88.33.18.22.35.61.52,1.17l.64,2Z"/>
    <path class="cls-4" d="M277.41,43.36c-.21.27-.44.41-.7.41-.37,0-.66-.11-.87-.33-.21-.22-.38-.59-.48-1.11-.08-.45-.12-1.42-.12-2.9,0-2.45.1-4.68.31-6.68.2-2,.67-2.99,1.39-2.99.3,0,.49.12.59.38.09.25.14.61.14,1.08l-.12,1.98c-.05.67-.09,1.37-.13,2.11s-.06,1.39-.06,1.97c0,.61.06,1.47.19,2.58.12,1.15.18,1.95.18,2.39,0,.47-.1.84-.31,1.12ZM277.17,26.82c-.41,0-.79-.11-1.14-.34s-.53-.62-.53-1.19c0-.28.08-.57.25-.86.16-.29.37-.53.61-.72s.47-.28.69-.28c.41,0,.76.12,1.06.37s.45.67.45,1.26c0,1.18-.46,1.77-1.38,1.77Z"/>
    <path class="cls-4" d="M282.15,32.76c-.36.02-.66.03-.91.03-.14,0-.31-.06-.51-.17-.2-.11-.38-.27-.53-.48-.15-.21-.22-.44-.22-.71s.06-.51.19-.74c.12-.23.28-.42.48-.55.19-.14.39-.21.6-.21.32,0,.9.03,1.76.08.03-1.17.14-2.28.33-3.34s.57-1.59,1.12-1.59c.13,0,.26.06.4.18.14.12.26.28.35.48.09.2.14.42.14.66,0,1-.06,1.91-.18,2.72l-.04.35-.13.58c.36,0,.78,0,1.27-.01s.86-.02,1.12-.03c.79-.03,1.59-.04,2.38-.04.29,0,.5.16.62.49.13.33.19.67.19,1.04,0,.4-.11.71-.32.94-.21.23-.45.35-.69.35l-4.59-.06v1.3c-.04.79-.06,1.65-.06,2.58,0,1.31.12,2.35.35,3.1s.68,1.13,1.35,1.13c.57,0,1.27-.29,2.1-.86.18-.1.27-.16.28-.16.25,0,.42.07.51.2.09.13.13.36.13.69,0,.4-.17.82-.51,1.27-.34.45-.74.83-1.21,1.14s-.87.47-1.22.47c-1.12,0-1.95-.38-2.49-1.13-.54-.75-.88-1.65-1.01-2.7-.13-1.05-.21-2.41-.23-4.08,0-1.31-.04-2.3-.12-2.96-.15,0-.38,0-.7.03Z"/>
    <path class="cls-4" d="M304.01,40.53c.18.22.28.56.28,1.02,0,.89-.67,1.47-2.02,1.76-1.35.28-2.67.42-3.98.42-.98,0-1.93-.27-2.84-.81-.91-.54-1.65-1.28-2.22-2.22-.57-.93-.85-1.96-.85-3.07,0-1.6.27-3.01.82-4.23s1.34-2.18,2.39-2.87c1.05-.68,2.29-1.03,3.73-1.03.76,0,1.52.18,2.27.54.75.36,1.37.88,1.85,1.57s.73,1.5.73,2.44c0,.48-.07.88-.22,1.21-.15.33-.35.53-.61.62l-9.01,3.06c.31.93.93,1.54,1.88,1.83s1.99.42,3.14.42c.38,0,.75-.05,1.13-.16.38-.1.82-.25,1.34-.44.33-.12.6-.22.81-.28.21-.07.4-.1.56-.1.37,0,.64.11.83.33ZM296.72,35.94c.95-.36,2.17-.83,3.66-1.42,1-.4,1.69-.66,2.05-.79-.27-.55-.72-.95-1.35-1.2-.64-.25-1.37-.38-2.2-.38-.47,0-1.04.17-1.73.5-.69.33-1.32.85-1.89,1.55-.58.7-.94,1.56-1.09,2.58.75-.2,1.59-.48,2.55-.84Z"/>
    <path class="cls-4" d="M308.38,32.76c-.36.02-.66.03-.91.03-.14,0-.31-.06-.51-.17s-.38-.27-.53-.48c-.15-.21-.22-.44-.22-.71s.06-.51.19-.74c.12-.23.28-.42.48-.55.19-.14.4-.21.6-.21.32,0,.9.03,1.76.08.03-1.17.14-2.28.33-3.34.19-1.06.57-1.59,1.12-1.59.13,0,.26.06.4.18.14.12.26.28.35.48.09.2.14.42.14.66,0,1-.06,1.91-.18,2.72l-.04.35-.13.58c.36,0,.78,0,1.27-.01s.86-.02,1.12-.03c.79-.03,1.59-.04,2.38-.04.29,0,.5.16.63.49.13.33.19.67.19,1.04,0,.4-.11.71-.32.94-.21.23-.44.35-.69.35l-4.59-.06v1.3c-.04.79-.06,1.65-.06,2.58,0,1.31.12,2.35.35,3.1s.68,1.13,1.35,1.13c.57,0,1.27-.29,2.1-.86.18-.1.27-.16.28-.16.25,0,.42.07.51.2.09.13.13.36.13.69,0,.4-.17.82-.51,1.27-.34.45-.74.83-1.21,1.14-.47.31-.87.47-1.22.47-1.12,0-1.95-.38-2.49-1.13-.54-.75-.88-1.65-1.01-2.7s-.21-2.41-.23-4.08c0-1.31-.04-2.3-.12-2.96-.15,0-.38,0-.7.03Z"/>
    <path class="cls-4" d="M330.25,40.53c.18.22.28.56.28,1.02,0,.89-.67,1.47-2.02,1.76-1.35.28-2.67.42-3.98.42-.98,0-1.93-.27-2.84-.81-.91-.54-1.65-1.28-2.22-2.22-.57-.93-.85-1.96-.85-3.07,0-1.6.27-3.01.82-4.23s1.34-2.18,2.39-2.87c1.05-.68,2.29-1.03,3.73-1.03.77,0,1.52.18,2.27.54s1.37.88,1.85,1.57.73,1.5.73,2.44c0,.48-.07.88-.22,1.21-.15.33-.35.53-.61.62l-9.01,3.06c.31.93.93,1.54,1.88,1.83s1.99.42,3.14.42c.38,0,.75-.05,1.13-.16s.82-.25,1.34-.44c.33-.12.6-.22.81-.28.21-.07.4-.1.56-.1.37,0,.64.11.83.33ZM322.96,35.94c.95-.36,2.17-.83,3.66-1.42,1-.4,1.69-.66,2.05-.79-.27-.55-.72-.95-1.35-1.2-.64-.25-1.37-.38-2.21-.38-.47,0-1.04.17-1.73.5-.69.33-1.32.85-1.89,1.55-.58.7-.94,1.56-1.09,2.58.75-.2,1.59-.48,2.55-.84Z"/>
    <path class="cls-4" d="M336.83,33.55c-.65.79-.98,2.01-.98,3.65v.5l.15,4.36c0,.16-.04.36-.11.59-.07.23-.19.43-.36.61-.16.17-.38.26-.63.26-.48,0-.8-.14-.98-.41s-.27-.72-.27-1.35c0-.42,0-.85.03-1.3,0-.15.01-.35.01-.59v-1.33c0-.53.03-1.26.08-2.18s.18-2.54.37-4.86c.03-.47.14-.84.33-1.12.19-.27.47-.41.83-.41.2,0,.38.12.56.38.17.25.26.65.26,1.2,0,.84-.02,1.35-.04,1.54.2-.6.58-1.17,1.15-1.69.57-.52,1.19-.94,1.87-1.25s1.26-.47,1.76-.47c.81,0,1.53.15,2.16.45.62.3.94.9.94,1.8,0,.28-.06.54-.19.78s-.3.42-.5.55-.41.2-.63.2c-.19,0-.33-.03-.42-.1-.09-.07-.17-.17-.25-.31-.12-.22-.28-.38-.48-.5-.2-.12-.56-.18-1.06-.18h-.34c-1.51,0-2.59.4-3.24,1.19Z"/>
  </g>
</svg>