<?xml version="1.0" encoding="UTF-8"?>
<svg id="Layer_1" xmlns="http://www.w3.org/2000/svg" viewBox="0 0 439.94 74.94">
  <defs>
    <style>
      .cls-1 {
        fill: none;
      }

      .cls-1, .cls-2 {
        stroke: #231f20;
        stroke-miterlimit: 10;
        stroke-width: 2px;
      }

      .cls-2 {
        fill: #a42739;
      }

      .cls-3 {
        fill: #eaa294;
      }

      .cls-4 {
        fill: #ededed;
      }

      .cls-5 {
        fill: #c18678;
      }
    </style>
  </defs>
  <g>
    <path class="cls-2" d="M438.35,1.49l-.1,71.92-344.29-.53c-2.12,0-4.22-.39-6.22-1.14L3.88,40.09c-2.98-1.13-2.98-5.48,0-6.6L88.38,1.88c1.63-.61,3.35-.92,5.09-.92l344.88.53Z"/>
    <path class="cls-5" d="M54.42,22.63c-1.23.77-1.93,1.96-2.36,3.29-.2.16-.39.34-.58.51-1.23-.09-2.49.18-3.53.83-.4.25-.74.55-1.07.86-.79-.03-1.59.06-2.39.31-4.22,1.33-5.14,5.94-4.38,9.91.69,3.59,2.89,7.37,6.05,9.17.64.37,1.35.66,2.09.87,1.29,1.87,3.31,3.09,5.93,2.99,2.53-.1,4.98-1.47,6.77-3.48.45.11.91.19,1.4.21,4.9.16,6.84-4.98,6.2-9.34.11-2.09-.71-4.24-2.05-5.78-.15-.17-.31-.31-.46-.46.56-.98.68-2.24.04-3.25-.27-.43-.57-.82-.88-1.2,0,0,0,0,0,0-.3-.43-.59-.86-.9-1.28-.71-.98-1.43-1.99-2.32-2.81-2.06-1.91-4.99-2.94-7.55-1.35Z"/>
    <path class="cls-3" d="M86.85,2.46c-.87.12-1.55.55-2.18,1.16-.04.04-.3.3-.5.51-.23.04-.47.15-.7.21-.29.07-.58.12-.88.17-.1.01-.34.05-.43.06-1.31.16-2.66.27-3.92.73-1.43.51-2.42,1.39-3.61,2.31.34-.26-.49.31-.46.3-.25.16-.51.3-.76.44-.39.21-.79.42-1.19.62-.28-.01-.57,0-.86.05-1.16.2-2.22.78-3.21,1.43-.46-.11-.94-.11-1.42.08-.65.25-1.29.53-1.93.81-.24.1-.47.21-.71.31-.1.05-.84.44-.2.09-.44.24-.97.4-1.44.56-.24.08-.48.14-.73.22-.02,0-.03,0-.04.02-1.56.03-2.76.77-3.81,1.91,0,.01-.02.02-.03.03-.67.22-1.33.46-1.99.76-.24.11-.47.25-.7.39-1.61.14-3.25.17-4.78.76-.83.33-1.65.73-2.43,1.21-.07-.02-.12-.05-.19-.06-1.24-.23-2.29-.05-3.38.6-.64.38-1.27.76-1.93,1.1-.17.09-.35.17-.52.26-.03.01-.21.09-.31.14-.11.04-.27.1-.29.11-.19.07-.39.14-.58.21-.8.29-1.61.55-2.43.81-1.77.55-3.45,1.29-5.14,2.05-.38.17-.76.34-1.14.5-.23.1-.47.21-.7.32-.03.01-.21.09-.32.14-.11.04-.31.13-.34.14-.18.07-.36.13-.54.2-.51.18-1.02.38-1.49.65-.06.04-.12.09-.18.13-.92-.48-2.05-.52-2.96.08-1.41.94-2.04,2.88-1.13,4.43.47.81.82,1.54,1.44,2.27.09.1.17.19.26.29.01.02.02.03.03.05.04.08.06.13.08.17.04.13.09.26.12.4.03.13.13.9.14.8.02.33.04.65.04.98,0,.39-.02.79-.04,1.18-.01.19-.03.38-.04.57,0,.06,0,.1-.01.14,0,.05-.02.13-.05.28-.04.21-.08.42-.13.62-.09.42-.19.83-.29,1.24-.19.84-.31,1.68-.48,2.52-.08.42-.2.83-.31,1.25-.01.03-.01.04-.02.06-.05.1-.1.2-.15.29-.02.04-.05.08-.08.12-1.6.31-2.62,2.44-2.15,3.97.57,1.82,2.12,2.56,3.86,2.27.4-.07.77-.2,1.13-.38.19.21.41.4.68.54,1.78.96,3.64,1.32,5.56,1.8.42.1.82.25,1.24.36,0,0,0,.01.02.02.12.11.31.22.45.3.01,0,.02,0,.03.02.13.11.27.22.4.33.45.37.9.76,1.38,1.08,1.55,1.02,3.47,1.06,5.16,1.73,1.05.42,2.15.77,3.26,1.09.56.78,1.43,1.29,2.46,1.31.9.01,1.26.08,2.14.23.7.12,1.4.22,2.11.32.22.26.47.49.79.65.52.25.95.63,1.43.96.64.45,1.39.76,2.11,1.03,1.21.46,2.49.69,3.72,1.09,2.63.86,5.13,2.08,7.75,2.94,0,0,0,0,0,0,.06.05.12.11.19.16,1.13.85,2.42,1.24,3.68,1.82,1.44.66,2.82,1.46,4.29,2.05,1.48.6,3.03.95,4.52,1.51,2.68,1,5.16,2.35,8.01,2.78,2.06.31,4.41.49,6.42-.3,2.88.48,5.57-.47,8.32-1.31.42-.13.83-.29,1.24-.44,2.39.48,4.35-.39,6.54-1.41,1.96-.91,4.34-1.13,5.6-3.17.94-1.52.86-3.4.73-5.12-.21-2.74-1.89-4.37-4.28-5.3-1.97-.76-3.94-1.46-5.89-2.27-1.76-.73-3.32-1.77-5.03-2.59-2.02-.97-4.2-1.36-6.38-1.75-.58-.1-1.16-.21-1.74-.3,1.02-.22,2.02-.52,3.04-.77.21.05.42.07.64.07,1.11,0,2.18-.01,3.28-.2.36-.06.71-.16,1.06-.28.08.03.14.07.22.09,1.31.37,2.85.24,4.13-.22,1.26-.46,2.28-1.31,3.46-1.92.02-.01.03-.02.05-.02.02,0,.03,0,.05-.02.14-.06.28-.12.43-.17.28-.12.57-.23.85-.34.77-.32,1.55-.64,2.29-1.04,1.27-.68,2.35-1.56,3.05-2.86.71-1.31,1.08-2.74.66-4.14-.03-1.05-.26-2.09-.74-2.89-.97-1.63-2.6-2.33-4.2-3.08-.23-.21-.44-.43-.68-.63-.65-.55-1.41-.88-2.18-.91-.12-.08-.25-.14-.36-.22-.77-.57-1.56-1.4-2.48-1.92-1.87-1.04-3.93-1.47-5.99-1.9-.96-.2-1.93-.39-2.9-.56.45-.52.68-1.09.74-1.65,3.24-.15,6.53-.63,9.68-1.37,3.11-.74,6.31-2.21,8.1-5.09,2.13-3.44.56-7.26-2.5-9.35-.15-.1-.31-.17-.46-.26-.41-1.07-1.33-1.91-2.77-1.95-2.42-.05-4.96-.76-7.29-1.09-2.46-.34-4.96-1.04-7.53-1.11-2.4-.06-5-.33-7.4.03-.59-.34-1.28-.5-2.06-.39Z"/>
    <path class="cls-1" d="M21.19,46.62c5.81-5.39,6.5-14.38,1.53-20.09"/>
    <g>
      <path class="cls-1" d="M88.38,1.88c23.22.04,30.61,4.83,30.24,11.72"/>
      <path class="cls-1" d="M90.61,23.92c15.47.03,28-4.58,28.01-10.31"/>
    </g>
    <g>
      <path class="cls-1" d="M90.63,23.91c15.47.03,27.97,6.25,27.96,13.9"/>
      <path class="cls-1" d="M90.58,49.14c15.47.03,27.99-5.04,28.01-11.33"/>
    </g>
    <g>
      <path class="cls-1" d="M90.59,49.14c15.47.03,27.98,5.88,27.97,13.08"/>
      <path class="cls-1" d="M89.05,72.18c16.03,1.84,29.49-4.04,29.51-9.96"/>
    </g>
    <line class="cls-1" x1="12.47" y1="43.33" x2="89.05" y2="72.18"/>
    <line class="cls-1" x1="13.21" y1="30" x2="89.15" y2="1.6"/>
  </g>
  <g>
    <path class="cls-4" d="M171.27,32.42c-.21,2.06-.31,4.67-.31,7.83,0,1.35.05,2.54.16,3.57h1.1c.14-.02.34-.03.61-.03.21.15.37.36.48.62.11.26.17.57.17.92,0,.25-.06.47-.19.67s-.28.35-.47.46c-.19.11-.37.16-.55.16h-3.74c-.23,0-.5-.04-.8-.13s-.58-.23-.82-.44-.36-.48-.36-.82c0-.41.1-.77.31-1.1.21-.33.46-.49.76-.49l1.24.1v-.64c0-1.35.04-3.11.13-5.27.08-2.17.18-3.9.28-5.19h-.82c-.29,0-.53-.02-.72-.06-.19-.04-.36-.16-.5-.34-.14-.18-.21-.47-.21-.86v-.06c0-.57.13-.97.39-1.21.26-.24.71-.36,1.37-.36h3.34c.13-.01.38-.05.76-.13.34-.06.54-.08.61-.08.15,0,.31.08.48.25s.32.37.45.59c.12.22.19.41.19.56,0,.37-.09.68-.27.94-.18.26-.4.46-.65.59s-.48.2-.69.2c-.07,0-.17-.04-.29-.13s-.25-.13-.38-.13h-1.06Z"/>
    <path class="cls-4" d="M185.86,37.29c-.5-1.1-1.46-1.64-2.87-1.64-.42,0-.9.12-1.44.35s-1.06.56-1.57.97c-.51.41-.92.86-1.24,1.35,0,.32-.01.86-.03,1.61-.02.72-.03,1.21-.03,1.49,0,.29.02.58.06.86.04.28.1.62.18,1.03.06.3.11.62.16.94.04.33.07.63.07.91,0,.54-.06.94-.19,1.22-.13.27-.41.41-.83.41s-.77-.11-1.03-.34c-.26-.23-.38-.68-.36-1.37l.06-5.55c-.11-1.34-.16-2.26-.16-2.76v-.42c0-.83.08-1.59.25-2.28.17-.69.44-1.03.82-1.03.75,0,1.13.62,1.13,1.85,0,.2-.03.59-.09,1.18l-.04.37c.22-.74.62-1.37,1.19-1.9s1.2-.93,1.86-1.2c.67-.27,1.23-.4,1.7-.4,1.87,0,3.19.73,3.98,2.18s1.18,3.22,1.18,5.3c0,1.93-.09,3.51-.28,4.76s-.58,1.87-1.16,1.87c-.26,0-.47-.03-.63-.09-.16-.06-.29-.21-.39-.44-.1-.23-.15-.59-.15-1.07,0-.31.02-.62.07-.92s.12-.68.22-1.13c.11-.52.19-.93.24-1.23.05-.3.07-.62.07-.96,0-1.5-.25-2.8-.75-3.89Z"/>
    <path class="cls-4" d="M200.13,25.66c.51.2.96.46,1.35.8.39.34.59.71.59,1.11,0,.32-.04.63-.12.93-.08.3-.23.45-.46.45-.2,0-.39-.04-.57-.11-.18-.07-.39-.17-.63-.3-.3-.16-.54-.28-.74-.35-.19-.08-.41-.11-.65-.11-1.03,0-1.78.56-2.24,1.69-.46,1.12-.74,2.46-.83,4.02h3.51c.09,0,.23-.03.41-.05.18-.02.33-.04.45-.04.26,0,.47.1.65.29.17.19.26.54.26,1.03,0,.62-.14,1.02-.41,1.2-.27.18-.6.27-.98.27-1.75-.09-2.95-.14-3.62-.14h-.34c-.01.55-.04,1.44-.07,2.66-.06,1.37-.09,2.47-.1,3.3,0,.1.03.36.1.78,0,.08.05.37.13.88.07.51.11,1.05.11,1.61,0,.79-.27,1.19-.82,1.19-.49,0-.85-.08-1.08-.23-.23-.16-.39-.46-.48-.9s-.13-1.14-.13-2.1c0-.55,0-1.17.03-1.88.02-.7.03-1.21.04-1.51.05-.98.08-1.99.09-3.03,0-.15,0-.39.03-.71-.79.05-1.49.07-2.1.07-.26,0-.48-.15-.68-.44-.19-.29-.29-.61-.29-.95s.1-.65.31-.95.44-.45.69-.45l2.14.08h.13c.29-2.41.84-4.41,1.65-6.01.81-1.6,1.95-2.4,3.41-2.4.3,0,.7.1,1.21.3Z"/>
    <path class="cls-4" d="M205.63,45.9c-.92-.7-1.66-1.58-2.21-2.65-.55-1.07-.83-2.13-.83-3.17,0-1.64.3-3,.9-4.06.6-1.07,1.38-1.84,2.34-2.33.96-.49,1.99-.73,3.1-.73,1.18,0,2.2.29,3.05.87.85.58,1.51,1.41,1.96,2.48.45,1.07.68,2.33.68,3.77,0,1.31-.29,2.49-.86,3.54-.57,1.05-1.32,1.86-2.25,2.45-.93.59-1.91.88-2.94.88s-2.03-.35-2.95-1.05ZM212.23,37.71c-.29-.65-.7-1.16-1.21-1.52-.52-.36-1.09-.55-1.73-.55-.78,0-1.54.16-2.28.47-.73.32-1.33.79-1.8,1.41s-.7,1.37-.7,2.25c0,.74.19,1.46.57,2.16.38.7.87,1.27,1.47,1.71.61.44,1.23.66,1.88.66.73,0,1.43-.17,2.08-.52.65-.35,1.17-.85,1.57-1.51.4-.66.6-1.43.6-2.33,0-.84-.15-1.59-.44-2.24Z"/>
    <path class="cls-4" d="M220.93,36.72c-.65.79-.98,2.01-.98,3.65v.5l.15,4.36c0,.16-.04.36-.11.59-.07.23-.19.43-.36.61-.16.17-.37.26-.63.26-.48,0-.8-.14-.98-.41s-.27-.72-.27-1.35c0-.42,0-.85.03-1.3,0-.15.01-.35.01-.59v-1.33c0-.53.03-1.26.08-2.18.05-.93.18-2.54.36-4.86.03-.47.14-.84.33-1.12.19-.27.47-.41.83-.41.2,0,.38.12.56.38.17.25.26.65.26,1.2,0,.84-.01,1.35-.04,1.54.2-.6.58-1.17,1.15-1.69.57-.52,1.19-.94,1.87-1.25.67-.31,1.26-.47,1.76-.47.81,0,1.53.15,2.16.45s.94.9.94,1.8c0,.28-.06.54-.19.78s-.3.42-.5.55-.41.2-.63.2c-.19,0-.33-.03-.42-.1s-.17-.17-.25-.31c-.12-.22-.28-.38-.48-.5-.2-.12-.56-.18-1.06-.18h-.34c-1.51,0-2.59.4-3.24,1.19Z"/>
    <path class="cls-4" d="M246.34,39.65c0-.53-.14-1.06-.42-1.59-.28-.53-.68-.97-1.21-1.32-.53-.34-1.14-.52-1.85-.52-.37,0-.78.09-1.25.28-.47.18-.9.44-1.3.77-.4.33-.68.7-.85,1.1l-.15,5.76.06.42.06.44c0,.47-.09.88-.28,1.22s-.42.51-.7.51c-.44,0-.79-.11-1.06-.33s-.41-.62-.41-1.22l.04-.3c.08-.65.12-1.03.12-1.15l.06-4.23c0-.56-.1-1.12-.33-1.68-.23-.56-.55-1.02-.98-1.39-.42-.36-.9-.55-1.44-.55-.74,0-1.31.09-1.73.27s-.71.46-.89.85c-.17.39-.26.91-.26,1.57v.55c0,.52.03,1.28.09,2.28,0,.17,0,.4.03.68l.27,3.26c0,.27-.07.52-.21.74-.14.22-.3.39-.48.51s-.33.18-.44.18c-.44,0-.76-.14-.97-.41-.21-.27-.31-.78-.31-1.52v-.48c.02-.07.03-.17.03-.33l-.02-2.28c0-.34-.01-.78-.01-1.33v-2.27c0-1.13.02-2.02.07-2.66.04-.64.14-1.14.29-1.49.15-.35.37-.52.67-.52.59,0,.88.5.88,1.5v.25c.14-.36.37-.7.68-1.01.32-.32.68-.57,1.09-.77s.83-.3,1.24-.3c.53,0,1.12.13,1.77.38s1.22.65,1.7,1.2c.48.54.71,1.22.71,2.03.14-.64.45-1.21.93-1.69.48-.49,1.04-.86,1.66-1.12.63-.26,1.2-.39,1.71-.39,1.74,0,3.08.59,4.04,1.78.96,1.18,1.44,3.02,1.44,5.5,0,1.69-.11,3.12-.34,4.3-.23,1.18-.58,1.77-1.04,1.77-.25,0-.48-.09-.69-.28-.21-.18-.38-.41-.51-.69s-.19-.53-.19-.76c0-.32.03-.6.08-.84.05-.24.13-.51.23-.8.11-.31.19-.59.25-.84s.08-.54.08-.89v-2.19Z"/>
    <path class="cls-4" d="M265.59,43.82c.13.19.2.49.2.91,0,.32-.09.64-.28.96s-.45.59-.77.79-.69.31-1.09.31-.78-.13-1.17-.4c-.39-.27-.71-.62-.96-1.06-.25-.44-.37-.89-.37-1.35-.74.9-1.52,1.62-2.32,2.16-.8.54-1.65.81-2.55.81-.82,0-1.66-.25-2.51-.76-.85-.51-1.55-1.2-2.09-2.06-.55-.86-.82-1.8-.82-2.8,0-1.35.32-2.67.97-3.96.64-1.29,1.51-2.35,2.6-3.16,1.09-.81,2.26-1.22,3.52-1.22.95,0,1.84.27,2.66.82.82.55,1.47,1.25,1.95,2.12.48.86.72,1.74.72,2.63,0,.38-.03.76-.09,1.13s-.09.61-.1.71c-.08.44-.14.84-.18,1.18-.04.34-.06.71-.06,1.1,0,.56.09.96.26,1.2.17.24.43.36.78.36.09,0,.18-.03.28-.1.09-.07.21-.16.33-.28.02-.02.08-.07.17-.15.09-.08.18-.13.26-.16.31,0,.53.09.66.28ZM259.45,43.31c.63-.61,1.07-1.31,1.3-2.1.23-.79.45-1.81.65-3.08,0-.29-.18-.63-.55-1.01s-.81-.7-1.32-.98c-.51-.27-.97-.41-1.38-.41-1.02,0-1.94.27-2.74.81-.8.54-1.43,1.24-1.87,2.09-.44.85-.66,1.71-.66,2.59,0,.58.19,1.09.57,1.55.38.46.87.81,1.47,1.07.6.25,1.21.38,1.84.38,1.16,0,2.06-.31,2.7-.92Z"/>
    <path class="cls-4" d="M268.23,35.93c-.36.02-.66.03-.91.03-.14,0-.31-.06-.51-.17s-.38-.27-.53-.48c-.15-.21-.22-.44-.22-.71s.06-.51.19-.74c.12-.23.28-.42.48-.55.19-.14.4-.21.6-.21.32,0,.9.03,1.76.08.03-1.17.14-2.28.33-3.34.19-1.06.57-1.59,1.12-1.59.13,0,.26.06.4.18.14.12.26.28.35.48.09.2.14.42.14.66,0,1-.06,1.91-.18,2.72l-.04.35-.13.58c.36,0,.78,0,1.27-.01s.86-.02,1.12-.03c.79-.03,1.59-.04,2.38-.04.29,0,.5.16.63.49.13.33.19.67.19,1.04,0,.4-.11.71-.32.94-.21.23-.44.35-.69.35l-4.59-.06v1.3c-.04.79-.06,1.65-.06,2.58,0,1.31.12,2.35.35,3.1s.68,1.13,1.35,1.13c.57,0,1.27-.29,2.1-.86.18-.1.27-.16.28-.16.25,0,.42.07.51.2.09.13.13.36.13.69,0,.4-.17.82-.51,1.27-.34.45-.74.83-1.21,1.14-.47.31-.87.47-1.22.47-1.12,0-1.95-.38-2.49-1.13-.54-.75-.88-1.65-1.01-2.7s-.21-2.41-.23-4.08c0-1.31-.04-2.3-.12-2.96-.15,0-.38,0-.7.03Z"/>
    <path class="cls-4" d="M281.41,46.54c-.21.27-.44.41-.7.41-.37,0-.66-.11-.87-.33-.21-.22-.38-.59-.48-1.11-.08-.45-.12-1.42-.12-2.9,0-2.45.1-4.68.31-6.68.2-2,.67-2.99,1.39-2.99.3,0,.49.12.59.38.09.25.14.61.14,1.08l-.12,1.98c-.05.67-.09,1.37-.13,2.11-.04.74-.06,1.39-.06,1.97,0,.61.06,1.47.19,2.58.12,1.15.18,1.95.18,2.39,0,.47-.1.84-.31,1.12ZM281.17,30c-.41,0-.79-.11-1.14-.34s-.53-.62-.53-1.19c0-.28.08-.57.25-.86.16-.29.37-.53.61-.72.24-.19.47-.28.69-.28.41,0,.76.12,1.06.37s.45.67.45,1.26c0,1.18-.46,1.77-1.38,1.77Z"/>
    <path class="cls-4" d="M287.47,45.9c-.92-.7-1.66-1.58-2.21-2.65-.55-1.07-.83-2.13-.83-3.17,0-1.64.3-3,.9-4.06s1.38-1.84,2.34-2.33c.96-.49,1.99-.73,3.11-.73,1.18,0,2.2.29,3.05.87.85.58,1.51,1.41,1.96,2.48.45,1.07.68,2.33.68,3.77,0,1.31-.29,2.49-.86,3.54-.57,1.05-1.32,1.86-2.25,2.45-.93.59-1.91.88-2.94.88s-2.03-.35-2.95-1.05ZM294.07,37.71c-.29-.65-.7-1.16-1.21-1.52-.52-.36-1.09-.55-1.73-.55-.78,0-1.54.16-2.28.47-.74.32-1.34.79-1.8,1.41-.47.62-.7,1.37-.7,2.25,0,.74.19,1.46.57,2.16.38.7.87,1.27,1.47,1.71.61.44,1.23.66,1.88.66.73,0,1.43-.17,2.08-.52.65-.35,1.17-.85,1.57-1.51.4-.66.6-1.43.6-2.33,0-.84-.15-1.59-.44-2.24Z"/>
    <path class="cls-4" d="M308.5,37.29c-.5-1.1-1.46-1.64-2.87-1.64-.42,0-.9.12-1.44.35s-1.07.56-1.57.97c-.51.41-.92.86-1.24,1.35,0,.32,0,.86-.03,1.61-.02.72-.03,1.21-.03,1.49,0,.29.02.58.06.86.04.28.1.62.18,1.03.06.3.11.62.16.94.04.33.07.63.07.91,0,.54-.06.94-.19,1.22s-.41.41-.83.41-.77-.11-1.03-.34c-.26-.23-.38-.68-.36-1.37l.06-5.55c-.11-1.34-.16-2.26-.16-2.76v-.42c0-.83.08-1.59.25-2.28s.44-1.03.82-1.03c.75,0,1.13.62,1.13,1.85,0,.2-.03.59-.09,1.18l-.04.37c.22-.74.62-1.37,1.19-1.9.58-.53,1.2-.93,1.86-1.2.67-.27,1.23-.4,1.7-.4,1.87,0,3.19.73,3.98,2.18s1.18,3.22,1.18,5.3c0,1.93-.09,3.51-.28,4.76s-.58,1.87-1.16,1.87c-.26,0-.47-.03-.63-.09-.16-.06-.29-.21-.39-.44-.1-.23-.15-.59-.15-1.07,0-.31.03-.62.08-.92.05-.3.12-.68.22-1.13.11-.52.19-.93.24-1.23s.08-.62.08-.96c0-1.5-.25-2.8-.75-3.89Z"/>
    <path class="cls-4" d="M316.12,46.51c-.8-.36-1.21-1.05-1.21-2.06,0-.16.05-.36.15-.6.1-.24.22-.45.37-.62.15-.17.3-.26.45-.26.05,0,.17.08.37.25.26.31.51.54.75.7.24.16.52.26.83.31.31.05.72.08,1.24.08s1.07-.06,1.67-.19c.6-.13,1.11-.28,1.53-.45s.62-.31.62-.41c0-.25-.13-.46-.39-.63-.26-.17-.58-.29-.95-.39s-.93-.21-1.67-.35c-1.16-.21-2.12-.43-2.87-.66-.75-.23-1.4-.6-1.95-1.12-.55-.51-.83-1.21-.83-2.09,0-1.09.31-2.04.94-2.85.62-.82,1.42-1.44,2.39-1.88.97-.44,1.94-.66,2.93-.66.65,0,1.22.12,1.74.37.51.25.91.57,1.19.97.28.4.42.83.42,1.3,0,.75-.06,1.35-.18,1.83s-.4.71-.85.71c-.22,0-.36-.1-.43-.3s-.1-.5-.1-.92c0-.44-.18-.75-.54-.92s-.89-.25-1.61-.25c-.5,0-1.05.12-1.65.35s-1.12.54-1.55.92-.64.77-.64,1.18.16.75.49,1.01c.33.26.73.46,1.22.59.49.14,1.16.29,2.01.45,1.05.2,1.9.4,2.55.59s1.19.51,1.65.93c.45.42.68.98.68,1.69,0,.9-.36,1.64-1.09,2.23-.73.59-1.57,1.02-2.54,1.3s-1.8.41-2.51.41c-.95,0-1.83-.18-2.64-.55Z"/>
    <path class="cls-4" d="M329.17,35.93c-.36.02-.66.03-.91.03-.14,0-.31-.06-.51-.17s-.38-.27-.53-.48c-.15-.21-.22-.44-.22-.71s.06-.51.19-.74c.12-.23.28-.42.48-.55.19-.14.39-.21.6-.21.32,0,.9.03,1.76.08.03-1.17.14-2.28.33-3.34.19-1.06.57-1.59,1.12-1.59.13,0,.26.06.4.18.14.12.25.28.35.48.09.2.14.42.14.66,0,1-.06,1.91-.18,2.72l-.04.35-.13.58c.36,0,.78,0,1.27-.01s.86-.02,1.12-.03c.79-.03,1.59-.04,2.38-.04.29,0,.5.16.63.49.13.33.19.67.19,1.04,0,.4-.11.71-.32.94-.21.23-.44.35-.69.35l-4.59-.06-.02,1.3c-.03.79-.04,1.65-.04,2.58,0,1.31.12,2.35.35,3.1s.68,1.13,1.35,1.13c.57,0,1.27-.29,2.1-.86.18-.1.27-.16.28-.16.25,0,.42.07.51.2.09.13.13.36.13.69,0,.4-.17.82-.51,1.27-.34.45-.74.83-1.21,1.14s-.87.47-1.22.47c-1.12,0-1.95-.38-2.49-1.13-.54-.75-.88-1.65-1.01-2.7-.13-1.05-.21-2.41-.23-4.08,0-1.31-.04-2.3-.12-2.96-.15,0-.38,0-.7.03Z"/>
    <path class="cls-4" d="M353.7,43.82c.13.19.2.49.2.91,0,.32-.09.64-.28.96-.19.32-.45.59-.77.79-.33.21-.69.31-1.09.31s-.78-.13-1.17-.4c-.39-.27-.71-.62-.96-1.06-.25-.44-.37-.89-.37-1.35-.75.9-1.52,1.62-2.32,2.16-.8.54-1.65.81-2.55.81-.82,0-1.66-.25-2.51-.76s-1.55-1.2-2.09-2.06c-.55-.86-.82-1.8-.82-2.8,0-1.35.32-2.67.97-3.96s1.51-2.35,2.6-3.16,2.26-1.22,3.52-1.22c.95,0,1.84.27,2.66.82.82.55,1.47,1.25,1.95,2.12.48.86.72,1.74.72,2.63,0,.38-.03.76-.09,1.13s-.09.61-.1.71c-.08.44-.14.84-.18,1.18s-.06.71-.06,1.1c0,.56.09.96.26,1.2.17.24.43.36.78.36.09,0,.18-.03.28-.1.09-.07.21-.16.33-.28.02-.02.08-.07.17-.15.09-.08.18-.13.26-.16.31,0,.53.09.66.28ZM347.56,43.31c.63-.61,1.07-1.31,1.3-2.1.23-.79.45-1.81.65-3.08,0-.29-.18-.63-.55-1.01s-.81-.7-1.32-.98c-.51-.27-.97-.41-1.38-.41-1.02,0-1.94.27-2.74.81-.8.54-1.43,1.24-1.87,2.09-.44.85-.66,1.71-.66,2.59,0,.58.19,1.09.57,1.55.38.46.87.81,1.47,1.07s1.21.38,1.84.38c1.16,0,2.06-.31,2.7-.92Z"/>
    <path class="cls-4" d="M357.04,36.64c.43,1.39.82,2.6,1.19,3.62s.83,2.14,1.38,3.34c.17-.17.52-.78,1.06-1.82.54-1.04,1.45-2.98,2.74-5.8.64-1.2,1.12-2.05,1.45-2.54.33-.5.6-.74.82-.74.26,0,.46.15.61.45.15.3.22.66.22,1.1,0,.19-.04.4-.13.64-.09.24-.27.62-.54,1.15-.27.53-.62,1.17-1.03,1.93l-.55,1.01c-2.37,5.37-4.06,8.06-5.06,8.06-.57,0-1.22-.96-1.97-2.87-.74-1.92-1.58-4.49-2.52-7.72-.32-.69-.48-1.3-.48-1.84,0-.42.05-.77.15-1.05.1-.27.31-.41.62-.41.41,0,.7.11.88.33.18.22.35.61.52,1.17l.64,2Z"/>
    <path class="cls-4" d="M374.07,43.79c.14.26.22.58.22.93s-.12.7-.35,1.01-.52.54-.86.71c-.34.17-.64.25-.91.25-.97,0-1.68-.3-2.13-.89-.45-.59-.67-1.47-.66-2.62l.19-15.53c0-.62.09-1.13.27-1.51.18-.38.46-.57.83-.57.25,0,.45.14.62.42.16.28.25.58.25.9l-.19,13.61v.48c0,.89.07,1.62.2,2.21.13.59.35.88.65.88.13,0,.24-.03.33-.08.09-.06.19-.14.31-.25s.22-.2.31-.25c.08-.05.19-.08.31-.08.27,0,.47.13.62.4Z"/>
    <path class="cls-4" d="M387.46,43.7c.18.22.28.56.28,1.02,0,.89-.67,1.47-2.02,1.76-1.35.28-2.67.42-3.98.42-.98,0-1.93-.27-2.84-.81-.91-.54-1.65-1.28-2.22-2.22-.57-.93-.85-1.96-.85-3.07,0-1.6.27-3.01.82-4.23s1.34-2.18,2.39-2.87c1.05-.68,2.29-1.03,3.73-1.03.76,0,1.52.18,2.27.54.75.36,1.37.88,1.85,1.57s.73,1.5.73,2.44c0,.48-.07.88-.22,1.21-.15.33-.35.53-.61.62l-9.01,3.06c.31.93.93,1.54,1.88,1.83s1.99.42,3.14.42c.38,0,.75-.05,1.13-.16.38-.1.82-.25,1.34-.44.33-.12.6-.22.81-.28.21-.07.4-.1.56-.1.37,0,.64.11.83.33ZM380.17,39.12c.95-.36,2.17-.83,3.66-1.42,1-.4,1.69-.66,2.05-.79-.27-.55-.72-.95-1.35-1.2-.64-.25-1.37-.38-2.2-.38-.47,0-1.04.17-1.73.5-.68.33-1.32.85-1.89,1.55-.58.7-.94,1.56-1.09,2.58.75-.2,1.59-.48,2.55-.84Z"/>
  </g>
</svg>