<?xml version="1.0" encoding="UTF-8"?>
<svg id="Layer_1" xmlns="http://www.w3.org/2000/svg" viewBox="0 0 442.05 75.6">
  <defs>
    <style>
      .cls-1 {
        fill: none;
        stroke: #231f20;
      }

      .cls-1, .cls-2 {
        stroke-miterlimit: 10;
        stroke-width: 2px;
      }

      .cls-2 {
        fill: #263779;
        stroke: #010101;
      }

      .cls-3 {
        fill: #eaa294;
      }

      .cls-4 {
        fill: #ededed;
      }

      .cls-5 {
        fill: #c18678;
      }
    </style>
  </defs>
  <path class="cls-2" d="M439.45,1.87l-.08,72.12-345.31-.36c-2.13,0-4.24-.39-6.24-1.14L3.71,40.78c-2.99-1.13-2.99-5.49,0-6.62L88.45,2.43c1.64-.61,3.36-.93,5.1-.92l345.9.36Z"/>
  <path class="cls-5" d="M56.11,23.25c-1.28.77-1.99,1.97-2.44,3.3-.21.16-.4.34-.6.52-1.27-.09-2.57.18-3.65.84-.41.25-.77.55-1.11.87-.82-.03-1.65.06-2.47.32-4.37,1.33-5.32,5.96-4.53,9.93.71,3.6,3,7.39,6.27,9.19.66.37,1.4.67,2.16.87,1.34,1.87,3.43,3.1,6.14,2.99,2.61-.1,5.15-1.48,7.01-3.49.46.11.94.19,1.45.21,5.08.15,7.08-5,6.42-9.37.12-2.1-.74-4.25-2.13-5.79-.15-.17-.32-.31-.48-.46.58-.98.7-2.25.04-3.26-.28-.43-.59-.83-.92-1.21,0,0,0,0,0,0-.31-.43-.61-.86-.93-1.28-.74-.99-1.49-1.99-2.41-2.82-2.13-1.92-5.17-2.95-7.82-1.35Z"/>
  <path class="cls-3" d="M89.68,3.01c-.9.12-1.61.55-2.26,1.16-.04.04-.31.3-.51.51-.24.04-.49.16-.72.21-.3.07-.6.12-.91.17-.1.01-.36.05-.45.06-1.36.16-2.76.28-4.06.73-1.48.52-2.5,1.4-3.74,2.31.35-.26-.51.32-.48.3-.26.16-.52.3-.79.44-.41.22-.82.42-1.23.62-.29,0-.59,0-.89.05-1.2.2-2.3.79-3.32,1.43-.48-.11-.98-.11-1.47.08-.67.25-1.33.53-1.99.81-.25.1-.49.21-.74.31-.11.05-.87.44-.21.09-.46.25-1,.4-1.49.56-.25.08-.5.14-.75.22-.02,0-.03,0-.05.02-1.61.03-2.86.77-3.95,1.91,0,.01-.02.02-.03.03-.7.22-1.38.46-2.06.76-.25.11-.49.25-.72.39-1.67.15-3.36.17-4.95.77-.86.33-1.71.74-2.52,1.22-.07-.02-.13-.05-.2-.06-1.28-.23-2.37-.05-3.5.61-.66.38-1.32.77-2,1.11-.18.09-.36.17-.54.26-.03.01-.22.09-.32.14-.11.04-.28.1-.3.11-.2.07-.4.14-.6.21-.83.29-1.67.55-2.51.81-1.83.55-3.57,1.3-5.32,2.06-.39.17-.79.34-1.18.51-.24.1-.48.21-.73.32-.03.01-.22.09-.33.14-.11.04-.32.13-.35.14-.19.07-.37.13-.56.2-.52.18-1.06.38-1.54.65-.07.04-.12.09-.18.13-.96-.48-2.13-.52-3.06.08-1.46.94-2.11,2.89-1.17,4.45.49.81.85,1.55,1.49,2.27.09.1.18.19.27.29.01.02.02.03.03.05.04.08.06.13.09.17.04.13.09.26.13.4.03.13.13.9.14.8.02.33.04.66.04.99,0,.39-.02.79-.04,1.18-.01.19-.03.38-.04.57,0,.06,0,.1-.01.14,0,.05-.02.13-.05.28-.04.21-.08.42-.13.62-.09.42-.2.83-.3,1.25-.2.84-.32,1.69-.49,2.53-.08.42-.21.83-.32,1.25-.01.03-.01.04-.02.06-.05.1-.1.2-.15.29-.02.04-.05.08-.08.12-1.65.31-2.72,2.45-2.22,3.98.59,1.82,2.19,2.57,4,2.27.42-.07.8-.21,1.17-.38.2.21.43.4.7.54,1.84.96,3.77,1.32,5.76,1.81.43.1.85.25,1.28.36,0,0,0,.01.02.02.13.11.33.22.47.3.02,0,.02,0,.03.02.14.11.28.22.41.33.46.37.93.76,1.43,1.08,1.61,1.02,3.6,1.06,5.35,1.73,1.09.42,2.23.78,3.38,1.09.58.78,1.48,1.3,2.55,1.31.93.01,1.3.07,2.22.23.73.12,1.45.22,2.18.32.23.26.49.5.82.65.54.25.99.63,1.48.96.67.45,1.44.76,2.19,1.04,1.25.47,2.58.69,3.85,1.1,2.72.86,5.31,2.08,8.03,2.94,0,0,0,0,0,0,.07.05.13.11.19.16,1.17.85,2.51,1.25,3.81,1.82,1.5.66,2.92,1.46,4.44,2.06,1.53.6,3.14.95,4.68,1.51,2.77,1,5.35,2.35,8.3,2.78,2.13.31,4.57.49,6.64-.3,2.99.48,5.77-.47,8.61-1.31.43-.13.86-.29,1.29-.44,2.48.48,4.51-.39,6.77-1.41,2.03-.92,4.5-1.13,5.8-3.19.97-1.53.89-3.41.76-5.14-.22-2.75-1.95-4.39-4.44-5.31-2.03-.76-4.08-1.47-6.09-2.27-1.82-.73-3.43-1.77-5.21-2.6-2.09-.97-4.35-1.36-6.61-1.76-.6-.1-1.2-.21-1.8-.3,1.06-.22,2.09-.52,3.14-.78.21.05.44.07.67.07,1.15,0,2.26-.02,3.4-.2.37-.06.74-.16,1.1-.28.08.03.15.07.23.09,1.35.37,2.95.24,4.27-.22,1.31-.46,2.36-1.31,3.58-1.92.02-.01.03-.02.05-.03.02,0,.03,0,.05-.02.15-.06.29-.12.44-.17.29-.12.59-.23.88-.35.8-.32,1.61-.65,2.37-1.04,1.32-.68,2.43-1.56,3.16-2.87.74-1.32,1.12-2.75.68-4.16-.03-1.06-.27-2.1-.76-2.89-1-1.64-2.69-2.34-4.35-3.09-.23-.21-.46-.43-.7-.63-.68-.56-1.46-.88-2.25-.91-.12-.08-.25-.14-.37-.22-.8-.57-1.61-1.41-2.57-1.93-1.94-1.04-4.07-1.47-6.21-1.9-.99-.2-1.99-.39-3-.56.47-.52.7-1.09.77-1.66,3.35-.15,6.77-.63,10.02-1.38,3.22-.74,6.53-2.22,8.38-5.11,2.21-3.45.58-7.28-2.59-9.38-.16-.1-.32-.18-.48-.27-.43-1.07-1.38-1.92-2.87-1.95-2.5-.05-5.13-.76-7.55-1.09-2.55-.34-5.14-1.04-7.79-1.11-2.49-.06-5.18-.33-7.66.03-.61-.34-1.33-.5-2.14-.39Z"/>
  <path class="cls-1" d="M21.71,47.32c6.02-5.41,6.72-14.42,1.58-20.14"/>
  <g>
    <path class="cls-1" d="M91.26,2.43c24.04.03,31.7,4.83,31.32,11.74"/>
    <path class="cls-1" d="M93.58,24.53c16.02.02,28.99-4.61,29-10.35"/>
  </g>
  <g>
    <path class="cls-1" d="M93.6,24.51c16.02.02,28.97,6.25,28.95,13.92"/>
    <path class="cls-1" d="M93.56,49.81c16.02.02,28.98-5.06,28.99-11.38"/>
  </g>
  <g>
    <path class="cls-1" d="M93.57,49.81c16.02.02,28.97,5.89,28.96,13.1"/>
    <path class="cls-1" d="M91.98,72.92c16.6,1.84,30.54-4.06,30.54-10"/>
  </g>
  <line class="cls-1" x1="12.69" y1="44.03" x2="91.98" y2="72.92"/>
  <line class="cls-1" x1="13.44" y1="30.66" x2="92.06" y2="2.14"/>
  <g>
    <path class="cls-4" d="M189.12,27.26c.55-.1.97-.16,1.27-.16.22,0,.45.09.69.28s.44.42.6.71c.16.28.24.56.24.82,0,.48-.08.85-.25,1.1-.17.25-.45.38-.83.38-.15,0-.77-.14-1.88-.41-.07,0-.42.03-1.06.08s-2.18.08-4.62.08c-.58,0-.91-.03-1.01-.08-.1.9-.15,2.23-.16,4.01,0,.05.23.07.67.07.34,0,.73-.01,1.18-.04.45-.03.74-.06.89-.1l2.8-.4c.29-.09.59-.14.89-.14.59,0,.88.46.88,1.39,0,.44-.06.77-.19.98-.12.21-.3.35-.52.42-.22.07-.57.13-1.05.18l-.36.04-3.08.35c-.18.02-.51.05-.98.11-.48.05-.85.08-1.12.08l.06,5.24c0,1.32-.34,1.98-1.03,1.98-.49,0-.83-.18-1.03-.53-.2-.35-.3-.85-.3-1.48,0-.31.03-.71.1-1.19.04-.3.06-.51.06-.64l.15-10.01c0-.81.09-1.58.26-2.32.17-.73.5-1.1.99-1.1.24,0,.62.05,1.13.14.52.09.9.14,1.15.14h5.48Z"/>
    <path class="cls-4" d="M195.9,33.56c-.14.71-.24,1.3-.31,1.78s-.1.96-.1,1.44c0,.69.08,1.41.22,2.17.15.76.43,1.43.85,2,.42.57,1,.86,1.74.86.92,0,1.69-.24,2.3-.71s1.18-1.13,1.72-1.97c.02-.25.08-1.16.16-2.75l.03-.71.04-3.95c0-.41.12-.71.36-.91s.49-.3.75-.3c.23,0,.43.1.62.3.18.2.28.47.28.82l-.24,11.27c0,.53-.08.89-.22,1.07-.14.18-.38.28-.73.28-.3,0-.52-.05-.68-.15-.15-.1-.27-.31-.33-.62-.07-.32-.1-.81-.1-1.48,0-.48,0-.87.03-1.18-.17.69-.46,1.32-.87,1.88-.41.57-.88,1.01-1.41,1.33-.53.32-1.04.48-1.55.48-1.96,0-3.27-.75-3.95-2.26-.67-1.51-1.01-3.23-1.01-5.16,0-.98.06-1.98.18-2.98.12-1,.32-1.86.6-2.56.28-.7.65-1.05,1.11-1.05.55,0,.82.33.82,1.01,0,.39-.1,1.06-.3,2.02Z"/>
    <path class="cls-4" d="M216.93,34.79c-.5-1.1-1.46-1.64-2.87-1.64-.42,0-.9.12-1.44.35s-1.06.56-1.57.97c-.51.41-.92.86-1.24,1.35,0,.32-.01.86-.03,1.61-.02.72-.03,1.21-.03,1.49,0,.29.02.58.06.86.04.28.1.62.18,1.03.06.3.11.62.16.94.04.33.07.63.07.91,0,.54-.06.94-.19,1.22s-.41.41-.83.41-.77-.11-1.03-.34-.38-.68-.36-1.37l.06-5.55c-.11-1.34-.16-2.26-.16-2.76v-.42c0-.83.08-1.59.25-2.28.17-.69.44-1.03.82-1.03.75,0,1.13.62,1.13,1.85,0,.2-.03.59-.09,1.18l-.04.37c.22-.74.62-1.37,1.19-1.9.58-.53,1.2-.93,1.86-1.2.67-.27,1.23-.4,1.7-.4,1.87,0,3.19.73,3.98,2.18s1.18,3.22,1.18,5.3c0,1.93-.09,3.51-.28,4.76s-.58,1.87-1.16,1.87c-.26,0-.47-.03-.62-.09-.16-.06-.29-.21-.39-.44-.1-.23-.15-.59-.15-1.07,0-.31.02-.62.07-.92s.12-.68.22-1.13c.11-.52.19-.93.24-1.23.05-.3.07-.62.07-.96,0-1.5-.25-2.8-.75-3.89Z"/>
    <path class="cls-4" d="M223.71,24.66c0-.26.07-.5.19-.72s.26-.39.43-.51c.17-.12.34-.18.5-.18.13,0,.27.06.43.18.16.12.29.29.4.51.11.22.16.48.16.77,0,1.51-.08,3.55-.25,6.12-.09,1.39-.16,2.57-.2,3.55s-.07,1.99-.07,3.02v.2l5.79-7.19c.15-.22.32-.4.5-.54s.36-.21.53-.21c.42,0,.71.1.86.3.16.2.24.53.24.98v.14c0,.37-.23.8-.7,1.29s-1.14,1.11-2.01,1.87l-.77.68c.14.3.28.64.43,1.03.15.38.25.64.3.77.32.87.61,1.58.88,2.14.24.53.49,1.01.75,1.43.22.34.44.76.67,1.25.02.05.07.16.14.34.07.18.15.37.22.58s.1.37.1.48c0,.45-.13.84-.4,1.15-.27.31-.58.47-.94.47-.23,0-.42-.09-.57-.27s-.28-.46-.38-.84c0,.04-.2-.41-.59-1.35-.39-.93-1.12-2.77-2.2-5.49l-2.84,3.27c0,.59,0,1.04.02,1.36v1.52c.01.38-.1.74-.32,1.08-.22.34-.5.51-.84.51-.26,0-.47-.08-.64-.25-.17-.17-.29-.37-.37-.6-.08-.23-.12-.44-.12-.63l.02-1.19c0-.49.06-1.06.15-1.7.05-.3.08-.6.09-.91l.43-14.39Z"/>
    <path class="cls-4" d="M237.26,33.44c-.36.02-.66.03-.91.03-.14,0-.31-.06-.51-.17-.2-.11-.38-.27-.53-.48-.15-.21-.22-.44-.22-.71s.06-.51.19-.74c.12-.23.28-.42.48-.55.19-.14.39-.21.6-.21.32,0,.9.03,1.76.08.03-1.17.14-2.28.33-3.34s.57-1.59,1.12-1.59c.13,0,.26.06.4.18.14.12.26.28.35.48.09.2.14.42.14.66,0,1-.06,1.91-.18,2.72l-.04.35-.13.58c.36,0,.78,0,1.27-.01s.86-.02,1.12-.03c.79-.03,1.59-.04,2.38-.04.29,0,.5.16.62.49.13.33.19.67.19,1.04,0,.4-.11.71-.32.94-.21.23-.45.35-.69.35l-4.59-.06v1.3c-.04.79-.06,1.65-.06,2.58,0,1.31.12,2.35.35,3.1s.68,1.13,1.35,1.13c.57,0,1.27-.29,2.1-.86.18-.1.27-.16.28-.16.25,0,.42.07.51.2.09.13.13.36.13.69,0,.4-.17.82-.51,1.27-.34.45-.74.83-1.21,1.14s-.87.47-1.22.47c-1.12,0-1.95-.38-2.49-1.13-.54-.75-.88-1.65-1.01-2.7-.13-1.05-.21-2.41-.23-4.08,0-1.31-.04-2.3-.12-2.96-.15,0-.38,0-.7.03Z"/>
    <path class="cls-4" d="M250.44,44.04c-.21.27-.44.41-.7.41-.37,0-.66-.11-.87-.33-.21-.22-.38-.59-.48-1.11-.08-.45-.12-1.42-.12-2.9,0-2.45.1-4.68.3-6.68.2-2,.67-2.99,1.39-2.99.3,0,.49.12.59.38.09.25.14.61.14,1.08l-.12,1.98c-.05.67-.09,1.37-.13,2.11-.04.74-.06,1.39-.06,1.97,0,.61.06,1.47.19,2.58.12,1.15.18,1.95.18,2.39,0,.47-.1.84-.31,1.12ZM250.2,27.5c-.41,0-.79-.11-1.14-.34s-.53-.62-.53-1.19c0-.28.08-.57.25-.86.16-.29.37-.53.61-.72s.47-.28.69-.28c.41,0,.76.12,1.06.37.3.25.45.67.45,1.26,0,1.18-.46,1.77-1.38,1.77Z"/>
    <path class="cls-4" d="M256.5,43.4c-.92-.7-1.66-1.58-2.21-2.65-.55-1.07-.83-2.13-.83-3.17,0-1.64.3-3,.9-4.06.6-1.07,1.38-1.84,2.34-2.33.96-.49,1.99-.73,3.1-.73,1.18,0,2.2.29,3.05.87.85.58,1.51,1.41,1.96,2.48.45,1.07.68,2.33.68,3.77,0,1.31-.29,2.49-.86,3.54s-1.32,1.86-2.25,2.45c-.93.59-1.91.88-2.94.88s-2.03-.35-2.95-1.05ZM263.11,35.22c-.29-.65-.7-1.16-1.21-1.52-.52-.36-1.09-.55-1.73-.55-.78,0-1.54.16-2.28.47-.73.32-1.33.79-1.8,1.41s-.7,1.37-.7,2.25c0,.74.19,1.46.57,2.16.38.7.87,1.27,1.47,1.71.61.44,1.23.66,1.88.66.73,0,1.43-.17,2.08-.52.65-.35,1.17-.85,1.57-1.51.4-.66.6-1.43.6-2.33,0-.84-.15-1.59-.44-2.24Z"/>
    <path class="cls-4" d="M277.54,34.79c-.5-1.1-1.46-1.64-2.87-1.64-.42,0-.9.12-1.44.35s-1.06.56-1.57.97c-.51.41-.92.86-1.24,1.35,0,.32,0,.86-.03,1.61-.02.72-.03,1.21-.03,1.49,0,.29.02.58.06.86.04.28.1.62.18,1.03.06.3.11.62.16.94.04.33.07.63.07.91,0,.54-.06.94-.19,1.22-.13.27-.41.41-.83.41s-.77-.11-1.03-.34c-.26-.23-.38-.68-.36-1.37l.06-5.55c-.11-1.34-.16-2.26-.16-2.76v-.42c0-.83.08-1.59.25-2.28s.44-1.03.82-1.03c.75,0,1.13.62,1.13,1.85,0,.2-.03.59-.09,1.18l-.04.37c.22-.74.62-1.37,1.19-1.9.58-.53,1.2-.93,1.86-1.2.67-.27,1.23-.4,1.7-.4,1.87,0,3.19.73,3.98,2.18s1.18,3.22,1.18,5.3c0,1.93-.09,3.51-.28,4.76s-.58,1.87-1.16,1.87c-.26,0-.47-.03-.63-.09-.16-.06-.29-.21-.39-.44-.1-.23-.15-.59-.15-1.07,0-.31.02-.62.07-.92s.12-.68.22-1.13c.11-.52.19-.93.24-1.23s.07-.62.07-.96c0-1.5-.25-2.8-.75-3.89Z"/>
    <path class="cls-4" d="M294.45,41.21c.18.22.28.56.28,1.02,0,.89-.67,1.47-2.02,1.76-1.35.28-2.67.42-3.98.42-.98,0-1.93-.27-2.84-.81-.91-.54-1.65-1.28-2.22-2.22-.57-.93-.85-1.96-.85-3.07,0-1.6.27-3.01.82-4.23s1.34-2.18,2.39-2.87c1.05-.68,2.29-1.03,3.73-1.03.76,0,1.52.18,2.27.54.75.36,1.37.88,1.85,1.57s.73,1.5.73,2.44c0,.48-.07.88-.22,1.21-.15.33-.35.53-.61.62l-9.01,3.06c.31.93.93,1.54,1.88,1.83.94.28,1.99.42,3.14.42.38,0,.75-.05,1.13-.16.38-.1.82-.25,1.34-.44.33-.12.6-.22.81-.28.21-.07.4-.1.56-.1.37,0,.64.11.83.33ZM287.16,36.62c.95-.36,2.17-.83,3.66-1.42,1-.4,1.69-.66,2.05-.79-.27-.55-.72-.95-1.35-1.2-.64-.25-1.37-.38-2.2-.38-.47,0-1.04.17-1.73.5-.68.33-1.32.85-1.89,1.55-.58.7-.94,1.56-1.09,2.58.74-.2,1.59-.48,2.55-.84Z"/>
    <path class="cls-4" d="M301.03,34.23c-.65.79-.98,2.01-.98,3.65v.5l.15,4.36c0,.16-.04.36-.11.59-.07.23-.19.43-.36.61-.16.17-.38.26-.63.26-.48,0-.8-.14-.98-.41s-.27-.72-.27-1.35c0-.42,0-.85.03-1.3,0-.15.01-.35.01-.59v-1.33c0-.53.03-1.26.08-2.18s.18-2.54.37-4.86c.03-.47.14-.84.33-1.12.19-.27.47-.41.83-.41.2,0,.38.12.56.38.17.25.26.65.26,1.2,0,.84-.02,1.35-.04,1.54.2-.6.58-1.17,1.15-1.69.57-.52,1.19-.94,1.87-1.25s1.26-.47,1.76-.47c.81,0,1.53.15,2.16.45.62.3.94.9.94,1.8,0,.28-.06.54-.19.78s-.3.42-.5.55-.41.2-.63.2c-.19,0-.33-.03-.42-.1-.09-.07-.17-.17-.25-.31-.12-.22-.28-.38-.48-.5-.2-.12-.56-.18-1.06-.18h-.34c-1.51,0-2.59.4-3.24,1.19Z"/>
    <path class="cls-4" d="M318.21,44.04c-.21.27-.44.41-.7.41-.37,0-.66-.11-.87-.33-.21-.22-.38-.59-.48-1.11-.08-.45-.12-1.42-.12-2.9,0-2.45.1-4.68.31-6.68.2-2,.67-2.99,1.39-2.99.3,0,.49.12.59.38.09.25.14.61.14,1.08l-.12,1.98c-.05.67-.09,1.37-.13,2.11-.04.74-.06,1.39-.06,1.97,0,.61.06,1.47.19,2.58.12,1.15.18,1.95.18,2.39,0,.47-.1.84-.31,1.12ZM317.97,27.5c-.41,0-.79-.11-1.14-.34s-.53-.62-.53-1.19c0-.28.08-.57.25-.86.16-.29.37-.53.61-.72.24-.19.47-.28.69-.28.41,0,.76.12,1.06.37s.45.67.45,1.26c0,1.18-.46,1.77-1.38,1.77Z"/>
    <path class="cls-4" d="M331.51,38.46c-.1.06-.19.17-.28.33-.08.16-.2.45-.35.88l-1,2.73c-.03.48-.13.86-.29,1.15-.16.28-.34.48-.53.59-.19.11-.34.16-.45.16-.36,0-.62-.08-.8-.24-.17-.16-.26-.45-.26-.88,0-.69.17-1.32.51-1.88l.34-.95c.37-1.05.68-1.9.94-2.56-.03-.09-.04-.23-.04-.4,0-.44.06-.8.17-1.06s.33-.5.65-.69l2.83-6.33s.04-.08.07-.13c.03-.05.05-.11.08-.18.37-.71.7-1.27,1-1.68.3-.41.61-.62.94-.62.73,0,1.41.5,2.03,1.49s1.15,2.15,1.59,3.49c.44,1.34.94,3.02,1.5,5.05.39,1.44.69,2.5.91,3.19.22.69.43,1.15.64,1.39.04.05.08.09.13.14.04.05.09.1.14.16.17.19.29.33.36.44s.12.23.16.39c.04.16.05.38.05.66,0,.92-.46,1.37-1.37,1.37-.4,0-.76-.34-1.09-1.03-.33-.69-.59-1.42-.77-2.19l-.12-.4c-.23-.77-.4-1.31-.52-1.61-.12-.3-.27-.51-.45-.64s-.44-.2-.79-.2h-5.47c-.21,0-.36.03-.46.08ZM333.58,35.56c.72.03,1.43.04,2.13.04.73,0,1.31-.01,1.73-.04-.3-.84-.75-1.86-1.34-3.07l-1.18-2.44c-.19.1-.56.79-1.1,2.05s-1,2.41-1.37,3.43l1.13.03Z"/>
    <path class="cls-4" d="M351.01,41.29c.14.26.22.58.22.93s-.12.7-.35,1.01-.52.54-.86.71c-.34.17-.64.25-.91.25-.97,0-1.68-.3-2.13-.89-.45-.59-.67-1.47-.66-2.62l.19-15.53c0-.62.09-1.13.27-1.51.18-.38.46-.57.83-.57.25,0,.45.14.62.42.16.28.25.58.25.9l-.19,13.61v.48c0,.89.07,1.62.2,2.21.13.59.35.88.65.88.13,0,.24-.03.33-.08.09-.06.19-.14.31-.25s.22-.2.31-.25c.08-.05.19-.08.31-.08.27,0,.47.13.62.4Z"/>
    <path class="cls-4" d="M355.71,44.04c-.21.27-.44.41-.7.41-.37,0-.66-.11-.87-.33-.21-.22-.38-.59-.48-1.11-.08-.45-.12-1.42-.12-2.9,0-2.45.1-4.68.31-6.68.2-2,.67-2.99,1.39-2.99.3,0,.49.12.59.38.09.25.14.61.14,1.08l-.12,1.98c-.05.67-.09,1.37-.13,2.11-.04.74-.06,1.39-.06,1.97,0,.61.06,1.47.19,2.58.12,1.15.18,1.95.18,2.39,0,.47-.1.84-.31,1.12ZM355.47,27.5c-.41,0-.79-.11-1.14-.34s-.53-.62-.53-1.19c0-.28.08-.57.25-.86.16-.29.37-.53.61-.72.24-.19.47-.28.69-.28.41,0,.76.12,1.06.37s.45.67.45,1.26c0,1.18-.46,1.77-1.38,1.77Z"/>
    <path class="cls-4" d="M373,41.32c.13.19.2.49.2.91,0,.32-.09.64-.28.96-.19.32-.45.59-.77.79-.33.21-.69.31-1.09.31s-.78-.13-1.17-.4c-.39-.27-.71-.62-.96-1.06-.25-.44-.37-.89-.37-1.35-.75.9-1.52,1.62-2.32,2.16-.8.54-1.65.81-2.55.81-.82,0-1.66-.25-2.51-.76s-1.55-1.2-2.09-2.06c-.55-.86-.82-1.8-.82-2.8,0-1.35.32-2.67.97-3.96s1.51-2.35,2.6-3.16,2.26-1.22,3.52-1.22c.95,0,1.84.27,2.66.82.82.55,1.47,1.25,1.95,2.12.48.86.72,1.74.72,2.63,0,.38-.03.76-.09,1.13s-.09.61-.1.71c-.08.44-.14.84-.18,1.18s-.06.71-.06,1.1c0,.56.09.96.26,1.2.17.24.43.36.78.36.09,0,.18-.03.28-.1.09-.07.21-.16.33-.28.02-.02.08-.07.17-.15.09-.08.18-.13.26-.16.31,0,.53.09.66.28ZM366.86,40.81c.63-.61,1.07-1.31,1.3-2.1.23-.79.45-1.81.65-3.08,0-.29-.18-.63-.55-1.01s-.81-.7-1.32-.98c-.51-.27-.97-.41-1.38-.41-1.02,0-1.94.27-2.74.81-.8.54-1.43,1.24-1.87,2.09-.44.85-.66,1.71-.66,2.59,0,.58.19,1.09.57,1.55.38.46.87.81,1.47,1.07s1.21.38,1.84.38c1.16,0,2.06-.31,2.7-.92Z"/>
  </g>
</svg>