<?xml version="1.0" encoding="UTF-8"?>
<svg id="Layer_1" xmlns="http://www.w3.org/2000/svg" viewBox="0 0 442.05 75.6">
  <defs>
    <style>
      .cls-1 {
        fill: none;
        stroke: #231f20;
      }

      .cls-1, .cls-2 {
        stroke-miterlimit: 10;
        stroke-width: 2px;
      }

      .cls-2 {
        fill: #263779;
        stroke: #010101;
      }

      .cls-3 {
        fill: #eaa294;
      }

      .cls-4 {
        fill: #ededed;
      }

      .cls-5 {
        fill: #c18678;
      }
    </style>
  </defs>
  <path class="cls-2" d="M439.94,1.85l-.08,72.12-345.7-.35c-2.13,0-4.24-.39-6.24-1.14L3.71,40.77c-2.99-1.13-2.99-5.49,0-6.62L88.55,2.42c1.64-.61,3.37-.93,5.11-.92l346.28.35Z"/>
  <path class="cls-5" d="M57.4,23.25c-1.31.77-2.04,1.97-2.5,3.3-.21.16-.41.34-.61.52-1.3-.09-2.64.18-3.74.84-.42.25-.79.55-1.13.87-.84-.03-1.69.06-2.53.32-4.47,1.33-5.44,5.96-4.64,9.93.73,3.6,3.07,7.39,6.42,9.19.68.37,1.43.67,2.21.87,1.37,1.87,3.51,3.1,6.28,2.99,2.68-.1,5.28-1.48,7.18-3.49.47.11.96.19,1.49.21,5.2.15,7.25-5,6.57-9.37.12-2.1-.75-4.25-2.18-5.79-.15-.17-.32-.31-.49-.46.6-.98.72-2.25.04-3.26-.29-.43-.6-.83-.94-1.21,0,0,0,0,0,0-.32-.43-.63-.86-.95-1.28-.75-.99-1.52-1.99-2.46-2.82-2.18-1.92-5.29-2.95-8.01-1.35Z"/>
  <path class="cls-3" d="M91.77,3.01c-.93.12-1.64.55-2.31,1.16-.04.04-.32.3-.52.51-.24.04-.5.16-.74.21-.31.07-.62.12-.93.17-.1.01-.37.05-.46.06-1.39.16-2.82.28-4.16.73-1.52.52-2.56,1.4-3.82,2.31.36-.26-.52.32-.49.3-.26.16-.54.3-.81.44-.42.22-.84.42-1.26.62-.3,0-.6,0-.91.05-1.23.2-2.35.79-3.4,1.43-.49-.11-1-.11-1.51.08-.69.25-1.36.53-2.04.81-.25.1-.5.21-.75.31-.11.05-.89.44-.22.09-.47.25-1.02.4-1.53.56-.25.08-.51.14-.77.22-.02,0-.03,0-.05.02-1.65.03-2.93.77-4.04,1.91,0,.01-.02.02-.03.03-.71.22-1.41.46-2.11.76-.26.11-.5.25-.74.39-1.71.15-3.44.17-5.06.77-.88.33-1.75.74-2.58,1.22-.07-.02-.13-.05-.2-.06-1.31-.23-2.42-.05-3.59.61-.68.38-1.35.77-2.05,1.11-.18.09-.37.17-.55.26-.03.01-.22.09-.33.14-.12.04-.28.1-.31.11-.2.07-.41.14-.61.21-.85.29-1.71.55-2.57.81-1.87.55-3.65,1.3-5.45,2.06-.4.17-.8.34-1.21.51-.25.1-.5.21-.74.32-.03.01-.23.09-.34.14-.11.04-.33.13-.36.14-.19.07-.38.13-.57.2-.54.18-1.08.38-1.58.65-.07.04-.12.09-.19.13-.98-.48-2.18-.52-3.14.08-1.5.94-2.16,2.89-1.2,4.45.5.81.87,1.55,1.52,2.27.09.1.18.19.27.29.01.02.02.03.03.05.04.08.07.13.09.17.05.13.09.26.13.4.04.13.14.9.15.8.02.33.04.66.04.99,0,.39-.02.79-.04,1.18-.01.19-.03.38-.04.57,0,.06-.01.1-.01.14,0,.05-.02.13-.05.28-.04.21-.09.42-.13.62-.1.42-.21.83-.31,1.25-.21.84-.33,1.69-.51,2.53-.09.42-.21.83-.32,1.25-.01.03-.01.04-.02.06-.05.1-.1.2-.16.29-.02.04-.05.08-.08.12-1.69.31-2.78,2.45-2.27,3.98.6,1.82,2.24,2.57,4.09,2.27.43-.07.82-.21,1.19-.38.21.21.44.4.72.54,1.88.96,3.86,1.32,5.9,1.81.44.1.87.25,1.31.36,0,0,0,.01.02.02.13.11.33.22.48.3.02,0,.02,0,.03.02.14.11.28.22.42.33.48.37.95.76,1.47,1.08,1.65,1.02,3.68,1.06,5.48,1.73,1.12.42,2.28.78,3.46,1.09.6.78,1.52,1.3,2.61,1.31.95.01,1.33.07,2.27.23.74.12,1.49.22,2.23.32.23.26.5.5.84.65.56.25,1.01.63,1.51.96.68.45,1.47.76,2.24,1.04,1.28.47,2.64.69,3.94,1.1,2.78.86,5.43,2.08,8.22,2.94,0,0,0,0,0,0,.07.05.13.11.2.16,1.19.85,2.57,1.25,3.9,1.82,1.53.66,2.99,1.46,4.55,2.06,1.57.6,3.22.95,4.8,1.51,2.84,1,5.47,2.35,8.49,2.78,2.18.31,4.68.49,6.8-.3,3.06.48,5.9-.47,8.82-1.31.44-.13.88-.29,1.32-.44,2.53.48,4.61-.39,6.93-1.41,2.08-.92,4.6-1.13,5.94-3.19.99-1.53.91-3.41.77-5.14-.22-2.75-2-4.39-4.54-5.31-2.08-.76-4.17-1.47-6.24-2.27-1.87-.73-3.52-1.77-5.33-2.6-2.14-.97-4.46-1.36-6.77-1.76-.61-.1-1.23-.21-1.85-.3,1.08-.22,2.14-.52,3.22-.78.22.05.45.07.68.07,1.18,0,2.31-.02,3.48-.2.38-.06.75-.16,1.12-.28.08.03.15.07.23.09,1.39.37,3.02.24,4.37-.22,1.34-.46,2.41-1.31,3.67-1.92.02-.01.03-.02.05-.03.02,0,.03,0,.05-.02.15-.06.3-.12.45-.17.3-.12.6-.23.9-.35.82-.32,1.64-.65,2.43-1.04,1.35-.68,2.49-1.56,3.24-2.87.75-1.32,1.14-2.75.69-4.16-.03-1.06-.28-2.1-.78-2.89-1.03-1.64-2.76-2.34-4.46-3.09-.24-.21-.47-.43-.72-.63-.69-.56-1.5-.88-2.31-.91-.12-.08-.26-.14-.38-.22-.82-.57-1.65-1.41-2.63-1.93-1.98-1.04-4.17-1.47-6.35-1.9-1.01-.2-2.04-.39-3.07-.56.48-.52.72-1.09.78-1.66,3.43-.15,6.93-.63,10.26-1.38,3.29-.74,6.69-2.22,8.58-5.11,2.26-3.45.59-7.28-2.65-9.38-.16-.1-.33-.18-.49-.27-.44-1.07-1.41-1.92-2.93-1.95-2.56-.05-5.25-.76-7.73-1.09-2.61-.34-5.26-1.04-7.98-1.11-2.55-.06-5.3-.33-7.85.03-.63-.34-1.36-.5-2.19-.39Z"/>
  <path class="cls-1" d="M22.19,47.32c6.16-5.41,6.88-14.42,1.62-20.14"/>
  <g>
    <path class="cls-1" d="M93.4,2.43c24.61.03,32.45,4.83,32.06,11.74"/>
    <path class="cls-1" d="M95.77,24.53c16.4.02,29.68-4.61,29.69-10.35"/>
  </g>
  <g>
    <path class="cls-1" d="M95.79,24.51c16.4.02,29.65,6.25,29.64,13.92"/>
    <path class="cls-1" d="M95.75,49.81c16.4.02,29.67-5.06,29.68-11.38"/>
  </g>
  <g>
    <path class="cls-1" d="M95.75,49.81c16.4.02,29.66,5.89,29.65,13.1"/>
    <path class="cls-1" d="M94.13,72.92c16.99,1.84,31.26-4.06,31.27-10"/>
  </g>
  <line class="cls-1" x1="12.95" y1="44.03" x2="94.13" y2="72.92"/>
  <line class="cls-1" x1="13.72" y1="30.66" x2="94.21" y2="2.14"/>
  <g>
    <path class="cls-4" d="M183.29,29.92c-.21,2.06-.31,4.67-.31,7.83,0,1.35.05,2.54.16,3.57h1.1c.14-.02.34-.03.61-.03.21.15.37.36.48.62.11.26.17.57.17.92,0,.25-.06.47-.19.67s-.28.35-.47.46c-.19.11-.37.16-.55.16h-3.74c-.23,0-.5-.04-.8-.13s-.58-.23-.82-.44-.36-.48-.36-.82c0-.41.1-.77.31-1.1.21-.33.46-.49.76-.49l1.24.1v-.64c0-1.35.04-3.11.13-5.27.08-2.17.18-3.9.28-5.19h-.82c-.29,0-.53-.02-.72-.06-.19-.04-.36-.16-.5-.34-.14-.18-.21-.47-.21-.86v-.06c0-.57.13-.97.39-1.21.26-.24.71-.36,1.37-.36h3.34c.13-.01.38-.05.76-.13.34-.06.54-.08.61-.08.15,0,.31.08.48.25s.32.37.45.59c.12.22.19.41.19.56,0,.37-.09.68-.27.94-.18.26-.39.46-.65.59s-.48.2-.69.2c-.07,0-.17-.04-.29-.13s-.25-.13-.38-.13h-1.06Z"/>
    <path class="cls-4" d="M197.88,34.79c-.5-1.1-1.46-1.64-2.87-1.64-.42,0-.9.12-1.44.35s-1.06.56-1.57.97c-.51.41-.92.86-1.24,1.35,0,.32-.01.86-.03,1.61-.02.72-.03,1.21-.03,1.49,0,.29.02.58.06.86.04.28.1.62.18,1.03.06.3.11.62.16.94.04.33.07.63.07.91,0,.54-.06.94-.19,1.22s-.41.41-.83.41-.77-.11-1.03-.34-.38-.68-.36-1.37l.06-5.55c-.11-1.34-.16-2.26-.16-2.76v-.42c0-.83.08-1.59.25-2.28.17-.69.44-1.03.82-1.03.75,0,1.13.62,1.13,1.85,0,.2-.03.59-.09,1.18l-.04.37c.22-.74.62-1.37,1.19-1.9.58-.53,1.2-.93,1.86-1.2.67-.27,1.23-.4,1.7-.4,1.87,0,3.19.73,3.98,2.18s1.18,3.22,1.18,5.3c0,1.93-.09,3.51-.28,4.76s-.58,1.87-1.16,1.87c-.26,0-.47-.03-.62-.09-.16-.06-.29-.21-.39-.44-.1-.23-.15-.59-.15-1.07,0-.31.02-.62.07-.92s.12-.68.22-1.13c.11-.52.19-.93.24-1.23.05-.3.07-.62.07-.96,0-1.5-.25-2.8-.75-3.89Z"/>
    <path class="cls-4" d="M212.14,23.17c.51.2.96.46,1.35.8.39.34.59.71.59,1.11,0,.32-.04.63-.12.93-.08.3-.23.45-.46.45-.2,0-.39-.04-.57-.11-.18-.07-.39-.17-.62-.3-.3-.16-.54-.28-.74-.35s-.41-.11-.65-.11c-1.03,0-1.78.56-2.24,1.69s-.74,2.46-.83,4.02h3.51c.09,0,.23-.03.41-.05.18-.02.33-.04.45-.04.26,0,.47.1.65.29.17.19.26.54.26,1.03,0,.62-.14,1.02-.41,1.2-.27.18-.6.27-.98.27-1.75-.09-2.95-.14-3.62-.14h-.34c-.01.55-.04,1.44-.08,2.66-.06,1.37-.09,2.47-.1,3.3,0,.1.03.36.1.78,0,.08.05.37.13.88.07.51.11,1.05.11,1.61,0,.79-.27,1.19-.82,1.19-.49,0-.85-.08-1.08-.23-.23-.16-.39-.46-.48-.9-.08-.44-.13-1.14-.13-2.1,0-.55,0-1.17.03-1.88.02-.7.04-1.21.04-1.51.05-.98.08-1.99.09-3.03,0-.15,0-.39.03-.71-.79.05-1.49.07-2.1.07-.26,0-.48-.15-.68-.44s-.29-.61-.29-.95.1-.65.31-.95c.21-.3.44-.45.68-.45l2.14.08h.13c.29-2.41.84-4.41,1.65-6.01.81-1.6,1.95-2.4,3.41-2.4.3,0,.7.1,1.21.3Z"/>
    <path class="cls-4" d="M217.64,43.4c-.92-.7-1.66-1.58-2.21-2.65-.55-1.07-.83-2.13-.83-3.17,0-1.64.3-3,.9-4.06s1.38-1.84,2.34-2.33c.96-.49,1.99-.73,3.1-.73,1.18,0,2.2.29,3.05.87.85.58,1.51,1.41,1.96,2.48.45,1.07.68,2.33.68,3.77,0,1.31-.29,2.49-.86,3.54-.57,1.05-1.32,1.86-2.25,2.45s-1.91.88-2.94.88-2.03-.35-2.95-1.05ZM224.25,35.22c-.29-.65-.7-1.16-1.21-1.52-.52-.36-1.09-.55-1.73-.55-.78,0-1.54.16-2.28.47-.73.32-1.33.79-1.8,1.41s-.7,1.37-.7,2.25c0,.74.19,1.46.57,2.16.38.7.87,1.27,1.47,1.71.61.44,1.23.66,1.88.66.73,0,1.43-.17,2.08-.52s1.17-.85,1.57-1.51c.4-.66.6-1.43.6-2.33,0-.84-.15-1.59-.44-2.24Z"/>
    <path class="cls-4" d="M232.95,34.23c-.65.79-.98,2.01-.98,3.65v.5l.15,4.36c0,.16-.04.36-.11.59-.07.23-.19.43-.36.61-.16.17-.37.26-.63.26-.48,0-.8-.14-.98-.41s-.27-.72-.27-1.35c0-.42,0-.85.03-1.3,0-.15.01-.35.01-.59v-1.33c0-.53.03-1.26.08-2.18s.18-2.54.37-4.86c.03-.47.14-.84.33-1.12s.47-.41.83-.41c.2,0,.38.12.56.38.17.25.26.65.26,1.2,0,.84-.01,1.35-.04,1.54.2-.6.58-1.17,1.15-1.69.57-.52,1.19-.94,1.87-1.25.67-.31,1.26-.47,1.76-.47.81,0,1.53.15,2.16.45.62.3.94.9.94,1.8,0,.28-.07.54-.19.78s-.29.42-.5.55c-.2.13-.41.2-.63.2-.19,0-.33-.03-.42-.1-.09-.07-.17-.17-.25-.31-.12-.22-.28-.38-.48-.5-.2-.12-.56-.18-1.07-.18h-.34c-1.51,0-2.59.4-3.24,1.19Z"/>
    <path class="cls-4" d="M258.36,37.16c0-.53-.14-1.06-.42-1.59-.28-.53-.68-.97-1.21-1.32-.53-.34-1.14-.52-1.85-.52-.37,0-.78.09-1.25.28-.47.18-.9.44-1.3.77-.4.33-.68.7-.85,1.1l-.15,5.76.06.42.06.44c0,.47-.09.88-.28,1.22-.19.34-.42.51-.7.51-.44,0-.79-.11-1.06-.33-.27-.22-.41-.62-.41-1.22l.04-.3c.08-.65.12-1.03.12-1.15l.06-4.23c0-.56-.1-1.12-.33-1.68-.23-.56-.55-1.02-.98-1.39-.42-.36-.9-.55-1.44-.55-.73,0-1.31.09-1.73.27-.42.18-.71.46-.89.85s-.26.91-.26,1.57v.55c0,.52.03,1.28.09,2.28,0,.17,0,.4.03.68l.27,3.26c0,.27-.07.52-.21.74-.14.22-.3.39-.48.51s-.33.18-.44.18c-.44,0-.76-.14-.97-.41-.21-.27-.31-.78-.31-1.52v-.48c.02-.07.03-.17.03-.33v-2.28c-.02-.34-.03-.78-.03-1.33v-2.27c0-1.13.02-2.02.07-2.66s.14-1.14.29-1.49c.15-.35.37-.52.67-.52.58,0,.88.5.88,1.5v.25c.14-.36.37-.7.69-1.01.32-.32.68-.57,1.09-.77.41-.2.83-.3,1.24-.3.53,0,1.12.13,1.77.38s1.22.65,1.7,1.2c.48.54.71,1.22.71,2.03.14-.64.45-1.21.93-1.69.48-.49,1.03-.86,1.66-1.12.62-.26,1.2-.39,1.71-.39,1.74,0,3.08.59,4.04,1.78.96,1.18,1.44,3.02,1.44,5.5,0,1.69-.11,3.12-.34,4.3s-.58,1.77-1.04,1.77c-.25,0-.48-.09-.69-.28-.21-.18-.38-.41-.51-.69-.13-.27-.19-.53-.19-.76,0-.32.03-.6.08-.84.05-.24.13-.51.23-.8.11-.31.19-.59.25-.84s.08-.54.08-.89v-2.19Z"/>
    <path class="cls-4" d="M277.6,41.32c.13.19.2.49.2.91,0,.32-.09.64-.28.96s-.45.59-.77.79c-.33.21-.69.31-1.09.31s-.78-.13-1.17-.4c-.39-.27-.71-.62-.96-1.06-.25-.44-.37-.89-.37-1.35-.75.9-1.52,1.62-2.32,2.16-.8.54-1.65.81-2.55.81-.82,0-1.66-.25-2.51-.76s-1.55-1.2-2.09-2.06c-.55-.86-.82-1.8-.82-2.8,0-1.35.32-2.67.97-3.96s1.51-2.35,2.6-3.16,2.26-1.22,3.52-1.22c.95,0,1.84.27,2.66.82s1.47,1.25,1.95,2.12c.48.86.72,1.74.72,2.63,0,.38-.03.76-.09,1.13s-.09.61-.1.71c-.08.44-.14.84-.18,1.18-.04.34-.06.71-.06,1.1,0,.56.09.96.26,1.2.17.24.43.36.78.36.09,0,.18-.03.28-.1.09-.07.21-.16.34-.28.02-.02.08-.07.17-.15.09-.08.18-.13.26-.16.31,0,.53.09.66.28ZM271.46,40.81c.64-.61,1.07-1.31,1.3-2.1.23-.79.45-1.81.65-3.08,0-.29-.18-.63-.55-1.01-.37-.38-.81-.7-1.32-.98s-.97-.41-1.38-.41c-1.02,0-1.94.27-2.74.81-.8.54-1.43,1.24-1.87,2.09s-.66,1.71-.66,2.59c0,.58.19,1.09.57,1.55.38.46.87.81,1.47,1.07s1.21.38,1.84.38c1.16,0,2.06-.31,2.7-.92Z"/>
    <path class="cls-4" d="M280.25,33.44c-.36.02-.66.03-.91.03-.14,0-.31-.06-.51-.17-.2-.11-.38-.27-.53-.48-.15-.21-.22-.44-.22-.71s.06-.51.19-.74c.12-.23.28-.42.48-.55.19-.14.39-.21.6-.21.32,0,.9.03,1.76.08.03-1.17.14-2.28.33-3.34s.57-1.59,1.12-1.59c.13,0,.26.06.4.18.14.12.26.28.35.48.09.2.14.42.14.66,0,1-.06,1.91-.18,2.72l-.04.35-.13.58c.36,0,.78,0,1.27-.01s.86-.02,1.12-.03c.79-.03,1.59-.04,2.38-.04.29,0,.5.16.62.49.13.33.19.67.19,1.04,0,.4-.11.71-.32.94-.21.23-.45.35-.69.35l-4.59-.06v1.3c-.04.79-.06,1.65-.06,2.58,0,1.31.12,2.35.35,3.1s.68,1.13,1.35,1.13c.57,0,1.27-.29,2.1-.86.18-.1.27-.16.28-.16.25,0,.42.07.51.2.09.13.13.36.13.69,0,.4-.17.82-.51,1.27-.34.45-.74.83-1.21,1.14s-.87.47-1.22.47c-1.12,0-1.95-.38-2.49-1.13-.54-.75-.88-1.65-1.01-2.7-.13-1.05-.21-2.41-.23-4.08,0-1.31-.04-2.3-.12-2.96-.15,0-.38,0-.7.03Z"/>
    <path class="cls-4" d="M293.43,44.04c-.21.27-.44.41-.7.41-.37,0-.66-.11-.87-.33-.21-.22-.38-.59-.48-1.11-.08-.45-.12-1.42-.12-2.9,0-2.45.1-4.68.31-6.68.2-2,.67-2.99,1.39-2.99.3,0,.49.12.59.38.09.25.14.61.14,1.08l-.12,1.98c-.05.67-.09,1.37-.13,2.11-.04.74-.06,1.39-.06,1.97,0,.61.06,1.47.19,2.58.12,1.15.18,1.95.18,2.39,0,.47-.1.84-.31,1.12ZM293.19,27.5c-.41,0-.79-.11-1.14-.34s-.53-.62-.53-1.19c0-.28.08-.57.25-.86.16-.29.37-.53.61-.72.24-.19.47-.28.69-.28.41,0,.76.12,1.06.37s.45.67.45,1.26c0,1.18-.46,1.77-1.38,1.77Z"/>
    <path class="cls-4" d="M299.49,43.4c-.92-.7-1.66-1.58-2.21-2.65-.55-1.07-.83-2.13-.83-3.17,0-1.64.3-3,.9-4.06s1.38-1.84,2.34-2.33c.96-.49,1.99-.73,3.11-.73,1.18,0,2.2.29,3.05.87.85.58,1.51,1.41,1.96,2.48.45,1.07.68,2.33.68,3.77,0,1.31-.29,2.49-.86,3.54-.57,1.05-1.32,1.86-2.25,2.45-.93.59-1.91.88-2.94.88s-2.03-.35-2.95-1.05ZM306.09,35.22c-.29-.65-.7-1.16-1.21-1.52-.52-.36-1.09-.55-1.73-.55-.78,0-1.54.16-2.28.47-.74.32-1.34.79-1.8,1.41-.47.62-.7,1.37-.7,2.25,0,.74.19,1.46.57,2.16.38.7.87,1.27,1.47,1.71.61.44,1.23.66,1.88.66.73,0,1.43-.17,2.08-.52.65-.35,1.17-.85,1.57-1.51.4-.66.6-1.43.6-2.33,0-.84-.15-1.59-.44-2.24Z"/>
    <path class="cls-4" d="M320.52,34.79c-.5-1.1-1.46-1.64-2.87-1.64-.42,0-.9.12-1.44.35s-1.07.56-1.57.97c-.51.41-.92.86-1.24,1.35,0,.32,0,.86-.03,1.61-.02.72-.03,1.21-.03,1.49,0,.29.02.58.06.86.04.28.1.62.18,1.03.06.3.11.62.16.94.04.33.07.63.07.91,0,.54-.06.94-.19,1.22s-.41.41-.83.41-.77-.11-1.03-.34c-.26-.23-.38-.68-.36-1.37l.06-5.55c-.11-1.34-.16-2.26-.16-2.76v-.42c0-.83.08-1.59.25-2.28s.44-1.03.82-1.03c.75,0,1.13.62,1.13,1.85,0,.2-.03.59-.09,1.18l-.04.37c.22-.74.62-1.37,1.19-1.9.58-.53,1.2-.93,1.86-1.2.67-.27,1.23-.4,1.7-.4,1.87,0,3.19.73,3.98,2.18s1.18,3.22,1.18,5.3c0,1.93-.09,3.51-.28,4.76s-.58,1.87-1.16,1.87c-.26,0-.47-.03-.63-.09-.16-.06-.29-.21-.39-.44-.1-.23-.15-.59-.15-1.07,0-.31.03-.62.08-.92.05-.3.12-.68.22-1.13.11-.52.19-.93.24-1.23s.08-.62.08-.96c0-1.5-.25-2.8-.75-3.89Z"/>
    <path class="cls-4" d="M328.14,44.02c-.8-.36-1.21-1.05-1.21-2.06,0-.16.05-.36.15-.6.1-.24.22-.45.37-.62.15-.17.3-.26.45-.26.05,0,.17.08.37.25.26.31.51.54.75.7.24.16.52.26.83.31.31.05.72.08,1.24.08s1.07-.06,1.67-.19c.6-.13,1.11-.28,1.53-.45s.62-.31.62-.41c0-.25-.13-.46-.39-.63-.26-.17-.58-.29-.95-.39s-.93-.21-1.67-.35c-1.16-.21-2.12-.43-2.87-.66-.75-.23-1.4-.6-1.95-1.12-.55-.51-.83-1.21-.83-2.09,0-1.09.31-2.04.94-2.85.62-.82,1.42-1.44,2.39-1.88.97-.44,1.94-.66,2.93-.66.65,0,1.22.12,1.74.37.51.25.91.57,1.19.97.28.4.42.83.42,1.3,0,.75-.06,1.35-.18,1.83s-.4.71-.85.71c-.22,0-.36-.1-.43-.3s-.1-.5-.1-.92c0-.44-.18-.75-.54-.92s-.89-.25-1.61-.25c-.5,0-1.05.12-1.65.35s-1.12.54-1.55.92-.64.77-.64,1.18.16.75.49,1.01c.33.26.73.46,1.22.59.49.14,1.16.29,2.01.45,1.05.2,1.9.4,2.55.59s1.19.51,1.65.93c.45.42.68.98.68,1.69,0,.9-.36,1.64-1.09,2.23-.73.59-1.57,1.02-2.54,1.3s-1.8.41-2.51.41c-.95,0-1.83-.18-2.64-.55Z"/>
    <path class="cls-4" d="M341.18,33.44c-.36.02-.66.03-.91.03-.14,0-.31-.06-.51-.17s-.38-.27-.53-.48c-.15-.21-.22-.44-.22-.71s.06-.51.19-.74c.12-.23.28-.42.48-.55.19-.14.39-.21.6-.21.32,0,.9.03,1.76.08.03-1.17.14-2.28.33-3.34.19-1.06.57-1.59,1.12-1.59.13,0,.26.06.4.18.14.12.25.28.35.48.09.2.14.42.14.66,0,1-.06,1.91-.18,2.72l-.04.35-.13.58c.36,0,.78,0,1.27-.01s.86-.02,1.12-.03c.79-.03,1.59-.04,2.38-.04.29,0,.5.16.63.49.13.33.19.67.19,1.04,0,.4-.11.71-.32.94-.21.23-.44.35-.69.35l-4.59-.06-.02,1.3c-.03.79-.04,1.65-.04,2.58,0,1.31.12,2.35.35,3.1s.68,1.13,1.35,1.13c.57,0,1.27-.29,2.1-.86.18-.1.27-.16.28-.16.25,0,.42.07.51.2.09.13.13.36.13.69,0,.4-.17.82-.51,1.27-.34.45-.74.83-1.21,1.14s-.87.47-1.22.47c-1.12,0-1.95-.38-2.49-1.13-.54-.75-.88-1.65-1.01-2.7-.13-1.05-.21-2.41-.23-4.08,0-1.31-.04-2.3-.12-2.96-.15,0-.38,0-.7.03Z"/>
    <path class="cls-4" d="M365.71,41.32c.13.19.2.49.2.91,0,.32-.09.64-.28.96-.19.32-.45.59-.77.79-.33.21-.69.31-1.09.31s-.78-.13-1.17-.4c-.39-.27-.71-.62-.96-1.06-.25-.44-.37-.89-.37-1.35-.75.9-1.52,1.62-2.32,2.16-.8.54-1.65.81-2.55.81-.82,0-1.66-.25-2.51-.76s-1.55-1.2-2.09-2.06c-.55-.86-.82-1.8-.82-2.8,0-1.35.32-2.67.97-3.96s1.51-2.35,2.6-3.16,2.26-1.22,3.52-1.22c.95,0,1.84.27,2.66.82.82.55,1.47,1.25,1.95,2.12.48.86.72,1.74.72,2.63,0,.38-.03.76-.09,1.13s-.09.61-.1.71c-.08.44-.14.84-.18,1.18s-.06.71-.06,1.1c0,.56.09.96.26,1.2.17.24.43.36.78.36.09,0,.18-.03.28-.1.09-.07.21-.16.33-.28.02-.02.08-.07.17-.15.09-.08.18-.13.26-.16.31,0,.53.09.66.28ZM359.57,40.81c.63-.61,1.07-1.31,1.3-2.1.23-.79.45-1.81.65-3.08,0-.29-.18-.63-.55-1.01s-.81-.7-1.32-.98c-.51-.27-.97-.41-1.38-.41-1.02,0-1.94.27-2.74.81-.8.54-1.43,1.24-1.87,2.09-.44.85-.66,1.71-.66,2.59,0,.58.19,1.09.57,1.55.38.46.87.81,1.47,1.07s1.21.38,1.84.38c1.16,0,2.06-.31,2.7-.92Z"/>
    <path class="cls-4" d="M369.06,34.14c.43,1.39.82,2.6,1.19,3.62s.83,2.14,1.38,3.34c.17-.17.52-.78,1.06-1.82.54-1.04,1.45-2.98,2.74-5.8.64-1.2,1.12-2.05,1.45-2.54.33-.5.6-.74.82-.74.26,0,.46.15.61.45.15.3.22.66.22,1.1,0,.19-.04.4-.13.64-.09.24-.27.62-.54,1.15-.27.53-.62,1.17-1.03,1.93l-.55,1.01c-2.37,5.37-4.06,8.06-5.06,8.06-.57,0-1.22-.96-1.97-2.87-.74-1.92-1.58-4.49-2.52-7.72-.32-.69-.48-1.3-.48-1.84,0-.42.05-.77.15-1.05.1-.27.31-.41.62-.41.41,0,.7.11.88.33.18.22.35.61.52,1.17l.64,2Z"/>
    <path class="cls-4" d="M386.08,41.29c.14.26.22.58.22.93s-.12.7-.35,1.01-.52.54-.86.71c-.34.17-.64.25-.91.25-.97,0-1.68-.3-2.13-.89-.45-.59-.67-1.47-.66-2.62l.19-15.53c0-.62.09-1.13.27-1.51.18-.38.46-.57.83-.57.25,0,.45.14.62.42.16.28.25.58.25.9l-.19,13.61v.48c0,.89.07,1.62.2,2.21.13.59.35.88.65.88.13,0,.24-.03.33-.08.09-.06.19-.14.31-.25s.22-.2.31-.25c.08-.05.19-.08.31-.08.27,0,.47.13.62.4Z"/>
    <path class="cls-4" d="M399.47,41.21c.18.22.28.56.28,1.02,0,.89-.67,1.47-2.02,1.76-1.35.28-2.67.42-3.98.42-.98,0-1.93-.27-2.84-.81-.91-.54-1.65-1.28-2.22-2.22-.57-.93-.85-1.96-.85-3.07,0-1.6.27-3.01.82-4.23s1.34-2.18,2.39-2.87c1.05-.68,2.29-1.03,3.73-1.03.76,0,1.52.18,2.27.54.75.36,1.37.88,1.85,1.57s.73,1.5.73,2.44c0,.48-.07.88-.22,1.21-.15.33-.35.53-.61.62l-9.01,3.06c.31.93.93,1.54,1.88,1.83s1.99.42,3.14.42c.38,0,.75-.05,1.13-.16.38-.1.82-.25,1.34-.44.33-.12.6-.22.81-.28.21-.07.4-.1.56-.1.37,0,.64.11.83.33ZM392.18,36.62c.95-.36,2.17-.83,3.66-1.42,1-.4,1.69-.66,2.05-.79-.27-.55-.72-.95-1.35-1.2-.64-.25-1.37-.38-2.2-.38-.47,0-1.04.17-1.73.5-.68.33-1.32.85-1.89,1.55-.58.7-.94,1.56-1.09,2.58.75-.2,1.59-.48,2.55-.84Z"/>
  </g>
</svg>