<?xml version="1.0" encoding="UTF-8"?>
<svg id="Layer_1" xmlns="http://www.w3.org/2000/svg" viewBox="0 0 423.17 72.87">
  <defs>
    <style>
      .cls-1 {
        fill: none;
      }

      .cls-1, .cls-2 {
        stroke: #231f20;
        stroke-miterlimit: 10;
        stroke-width: 2px;
      }

      .cls-2 {
        fill: #ffc721;
      }

      .cls-3 {
        fill: #eaa294;
      }

      .cls-4 {
        fill: #ededed;
      }

      .cls-5 {
        fill: #c18678;
      }
    </style>
  </defs>
  <path class="cls-2" d="M419.86,1.15l-.11,71.67-329.85-.49c-2.03,0-4.05-.39-5.96-1.14L3.61,39.66c-2.86-1.12-2.85-5.46,0-6.58L84.58,1.58c1.56-.61,3.21-.92,4.88-.92l330.41.49Z"/>
  <path class="cls-5" d="M55.77,22.26c-1.27.77-1.98,1.96-2.43,3.28-.21.16-.4.34-.59.51-1.26-.09-2.56.18-3.63.83-.41.25-.76.54-1.1.86-.81-.03-1.64.06-2.45.31-4.34,1.32-5.29,5.92-4.51,9.87.71,3.58,2.98,7.34,6.22,9.14.66.36,1.39.66,2.15.86,1.33,1.86,3.41,3.08,6.1,2.98,2.6-.1,5.12-1.47,6.97-3.46.46.11.94.19,1.44.21,5.05.15,7.04-4.97,6.38-9.31.12-2.09-.73-4.22-2.11-5.76-.15-.17-.32-.31-.48-.46.58-.98.7-2.23.04-3.24-.28-.42-.59-.82-.91-1.2,0,0,0,0,0,0-.31-.43-.61-.85-.92-1.27-.73-.98-1.48-1.98-2.39-2.8-2.12-1.9-5.14-2.93-7.77-1.34Z"/>
  <path class="cls-3" d="M89.14,2.17c-.9.12-1.6.54-2.25,1.15-.04.04-.31.3-.51.51-.24.04-.49.15-.72.21-.3.07-.6.12-.9.17-.1.01-.35.05-.44.06-1.35.16-2.74.27-4.03.72-1.47.51-2.49,1.39-3.71,2.3.35-.26-.5.31-.48.3-.26.16-.52.3-.78.44-.4.21-.81.41-1.22.62-.29,0-.58,0-.89.05-1.19.2-2.28.78-3.3,1.42-.47-.11-.97-.11-1.47.08-.67.25-1.33.53-1.98.81-.24.1-.49.21-.73.31-.11.05-.87.44-.21.09-.45.24-.99.4-1.48.55-.25.08-.5.14-.75.22-.02,0-.03,0-.04.02-1.6.03-2.84.77-3.92,1.9,0,.01-.02.02-.03.03-.69.22-1.37.46-2.04.76-.25.11-.48.25-.72.38-1.66.14-3.34.16-4.91.76-.86.33-1.7.73-2.5,1.21-.07-.02-.13-.05-.2-.06-1.27-.23-2.35-.05-3.48.6-.66.38-1.31.76-1.99,1.1-.18.09-.36.17-.54.26-.03.01-.22.09-.32.14-.11.04-.27.1-.3.11-.2.07-.4.14-.6.21-.83.29-1.66.55-2.5.8-1.82.55-3.55,1.29-5.29,2.04-.39.17-.78.33-1.17.5-.24.1-.48.21-.72.31-.03.01-.22.09-.33.14-.11.04-.32.13-.35.14-.18.07-.37.13-.56.2-.52.18-1.05.38-1.53.65-.07.04-.12.09-.18.13-.95-.47-2.11-.52-3.05.08-1.45.93-2.1,2.87-1.17,4.42.48.8.84,1.54,1.48,2.26.09.1.18.19.27.29.01.02.02.03.03.05.04.08.06.13.09.17.04.13.09.26.13.4.03.13.13.89.14.8.02.33.04.65.04.98,0,.39-.02.78-.04,1.17-.01.19-.03.38-.04.57,0,.06,0,.1-.01.14,0,.05-.02.13-.05.28-.04.21-.08.41-.13.62-.09.42-.2.83-.3,1.24-.2.83-.32,1.68-.49,2.52-.08.42-.21.83-.31,1.24-.01.03-.01.04-.02.06-.05.1-.1.2-.15.29-.02.04-.05.08-.08.12-1.64.31-2.7,2.43-2.21,3.95.58,1.81,2.18,2.55,3.97,2.26.41-.07.8-.2,1.16-.38.2.21.42.4.69.54,1.83.96,3.74,1.32,5.72,1.8.43.1.85.25,1.28.36,0,0,0,.01.02.02.12.11.32.22.47.3.02,0,.02,0,.03.02.14.11.27.22.41.33.46.37.92.76,1.42,1.07,1.6,1.01,3.57,1.05,5.31,1.73,1.08.42,2.22.77,3.36,1.09.58.77,1.47,1.29,2.54,1.3.92.01,1.29.07,2.2.23.72.12,1.44.22,2.17.32.23.26.49.49.82.65.54.25.98.63,1.47.96.66.45,1.43.75,2.17,1.03,1.24.46,2.56.69,3.83,1.09,2.7.86,5.27,2.07,7.98,2.93,0,0,0,0,0,0,.07.05.13.11.19.15,1.16.84,2.49,1.24,3.79,1.81,1.49.65,2.9,1.45,4.41,2.05,1.52.6,3.12.95,4.65,1.51,2.75,1,5.31,2.34,8.24,2.77,2.12.31,4.54.49,6.6-.3,2.97.48,5.73-.47,8.56-1.3.43-.13.85-.29,1.28-.44,2.46.47,4.48-.39,6.73-1.4,2.02-.91,4.47-1.13,5.76-3.16.96-1.52.89-3.38.75-5.11-.21-2.73-1.94-4.36-4.41-5.28-2.02-.75-4.05-1.46-6.06-2.26-1.81-.73-3.41-1.76-5.17-2.58-2.08-.96-4.32-1.36-6.57-1.75-.6-.1-1.2-.21-1.79-.3,1.05-.22,2.08-.52,3.13-.77.21.05.43.07.66.07,1.14,0,2.24-.01,3.37-.2.37-.06.73-.16,1.09-.28.08.03.15.07.23.09,1.35.37,2.94.24,4.25-.22,1.3-.46,2.34-1.3,3.56-1.91.02-.01.03-.02.05-.02.02,0,.03,0,.05-.02.15-.06.29-.12.44-.17.29-.11.59-.23.88-.34.8-.32,1.6-.64,2.36-1.03,1.31-.67,2.41-1.55,3.14-2.85.73-1.31,1.11-2.73.68-4.13-.03-1.05-.27-2.08-.76-2.88-1-1.63-2.67-2.32-4.32-3.07-.23-.21-.46-.43-.7-.62-.67-.55-1.45-.88-2.24-.91-.12-.08-.25-.14-.37-.22-.79-.57-1.6-1.4-2.56-1.91-1.92-1.04-4.05-1.46-6.17-1.89-.98-.2-1.98-.39-2.98-.55.46-.52.7-1.08.76-1.64,3.33-.15,6.72-.62,9.96-1.37,3.2-.73,6.49-2.2,8.33-5.07,2.19-3.42.57-7.24-2.57-9.32-.16-.1-.32-.17-.48-.26-.42-1.06-1.37-1.91-2.85-1.94-2.49-.05-5.1-.76-7.5-1.08-2.53-.34-5.11-1.04-7.74-1.1-2.47-.06-5.15-.33-7.62.03-.61-.34-1.32-.49-2.12-.39Z"/>
  <path class="cls-1" d="M21.58,46.17c5.98-5.37,6.69-14.33,1.58-20.02"/>
  <g>
    <path class="cls-1" d="M90.72,1.59c23.89.04,31.5,4.81,31.12,11.68"/>
    <path class="cls-1" d="M93.01,23.55c15.92.03,28.81-4.57,28.82-10.28"/>
  </g>
  <g>
    <path class="cls-1" d="M93.03,23.54c15.92.03,28.78,6.23,28.77,13.85"/>
    <path class="cls-1" d="M92.98,48.68c15.92.03,28.8-5.02,28.82-11.29"/>
  </g>
  <g>
    <path class="cls-1" d="M92.99,48.68c15.92.03,28.79,5.86,28.78,13.04"/>
    <path class="cls-1" d="M91.4,71.65c16.5,1.83,30.35-4.03,30.36-9.93"/>
  </g>
  <line class="cls-1" x1="12.61" y1="42.9" x2="91.4" y2="71.65"/>
  <line class="cls-1" x1="13.37" y1="29.61" x2="91.51" y2="1.3"/>
  <g>
    <path class="cls-4" d="M222.06,26.17c.55-.1.97-.16,1.27-.16.22,0,.45.09.69.28s.44.42.6.71.24.56.24.82c0,.48-.08.85-.25,1.1-.17.25-.45.38-.83.38-.15,0-.77-.14-1.88-.41-.07,0-.42.03-1.06.08-.64.06-2.18.08-4.62.08-.58,0-.91-.03-1.01-.08-.1.9-.15,2.23-.16,4.01,0,.05.23.07.67.07.34,0,.73-.01,1.18-.04s.74-.06.89-.1l2.8-.4c.29-.09.59-.14.89-.14.59,0,.88.46.88,1.39,0,.44-.06.77-.19.98-.12.21-.3.35-.52.42-.22.07-.57.13-1.05.18l-.36.04-3.08.35c-.18.02-.51.05-.98.11-.48.05-.85.08-1.12.08l.06,5.24c0,1.32-.34,1.98-1.03,1.98-.49,0-.83-.18-1.03-.53-.2-.35-.3-.85-.3-1.48,0-.31.03-.71.1-1.19.04-.3.06-.51.06-.64l.15-10.01c0-.81.09-1.58.26-2.32.17-.73.5-1.1.99-1.1.24,0,.62.05,1.13.14s.9.14,1.15.14h5.48Z"/>
    <path class="cls-4" d="M229.28,42.31c-.92-.7-1.66-1.58-2.21-2.65-.55-1.07-.83-2.13-.83-3.17,0-1.64.3-3,.9-4.06.6-1.07,1.38-1.84,2.34-2.33.96-.49,1.99-.73,3.1-.73,1.18,0,2.2.29,3.05.87.85.58,1.51,1.41,1.96,2.48.45,1.07.68,2.33.68,3.77,0,1.31-.29,2.49-.86,3.54-.57,1.05-1.32,1.86-2.25,2.45-.93.59-1.91.88-2.94.88s-2.03-.35-2.95-1.05ZM235.89,34.13c-.29-.65-.7-1.16-1.21-1.52-.52-.36-1.09-.55-1.73-.55-.78,0-1.54.16-2.28.47-.73.32-1.33.79-1.8,1.41s-.7,1.37-.7,2.25c0,.74.19,1.46.57,2.16.38.7.87,1.27,1.47,1.71.61.44,1.23.66,1.88.66.73,0,1.43-.17,2.08-.52.65-.35,1.17-.85,1.57-1.51.4-.66.6-1.43.6-2.33,0-.84-.15-1.59-.44-2.24Z"/>
    <path class="cls-4" d="M244.58,33.14c-.65.79-.98,2.01-.98,3.65v.5l.15,4.36c0,.16-.04.36-.11.59-.07.23-.19.43-.36.61-.16.17-.37.26-.63.26-.48,0-.8-.14-.98-.41s-.27-.72-.27-1.35c0-.42,0-.85.03-1.3,0-.15.01-.35.01-.59v-1.33c0-.53.03-1.26.08-2.18.05-.93.18-2.54.36-4.86.03-.47.14-.84.33-1.12.19-.27.47-.41.83-.41.2,0,.38.12.56.38.17.25.26.65.26,1.2,0,.84-.01,1.35-.04,1.54.2-.6.58-1.17,1.15-1.69.57-.52,1.19-.94,1.87-1.25.67-.31,1.26-.47,1.76-.47.81,0,1.53.15,2.16.45s.94.9.94,1.8c0,.28-.06.54-.19.78s-.3.42-.5.55-.41.2-.63.2c-.19,0-.33-.03-.42-.1s-.17-.17-.25-.31c-.12-.22-.28-.38-.48-.5-.2-.12-.56-.18-1.06-.18h-.34c-1.51,0-2.59.4-3.24,1.19Z"/>
    <path class="cls-4" d="M255,42.93c-.8-.36-1.21-1.05-1.21-2.06,0-.16.05-.36.15-.6.1-.24.22-.45.37-.62.15-.17.3-.26.45-.26.05,0,.17.08.37.25.26.31.51.54.75.7.24.16.52.26.83.31.31.05.72.08,1.24.08s1.07-.06,1.68-.19c.6-.13,1.11-.28,1.53-.45s.63-.31.63-.41c0-.25-.13-.46-.39-.63-.26-.17-.58-.29-.95-.39s-.93-.21-1.67-.35c-1.16-.21-2.12-.43-2.87-.66-.75-.23-1.4-.6-1.95-1.12-.55-.51-.83-1.21-.83-2.09,0-1.09.31-2.04.94-2.85.63-.82,1.42-1.44,2.39-1.88.97-.44,1.94-.66,2.93-.66.65,0,1.22.12,1.73.37.51.25.91.57,1.19.97.28.4.42.83.42,1.3,0,.75-.06,1.35-.18,1.83s-.4.71-.85.71c-.22,0-.36-.1-.43-.3s-.1-.5-.1-.92c0-.44-.18-.75-.54-.92s-.89-.25-1.61-.25c-.5,0-1.05.12-1.65.35-.61.24-1.12.54-1.55.92s-.64.77-.64,1.18.16.75.49,1.01c.33.26.73.46,1.22.59.49.14,1.16.29,2.01.45,1.05.2,1.9.4,2.55.59.65.2,1.19.51,1.65.93.45.42.68.98.68,1.69,0,.9-.36,1.64-1.09,2.23-.72.59-1.57,1.02-2.54,1.3-.97.27-1.8.41-2.51.41-.95,0-1.83-.18-2.64-.55Z"/>
    <path class="cls-4" d="M269.25,42.95c-.21.27-.44.41-.7.41-.37,0-.66-.11-.87-.33-.21-.22-.38-.59-.48-1.11-.08-.45-.12-1.42-.12-2.9,0-2.45.1-4.68.31-6.68.2-2,.67-2.99,1.39-2.99.3,0,.49.12.59.38.09.25.14.61.14,1.08l-.12,1.98c-.05.67-.09,1.37-.13,2.11s-.06,1.39-.06,1.97c0,.61.06,1.47.19,2.58.12,1.15.18,1.95.18,2.39,0,.47-.1.84-.31,1.12ZM269.01,26.41c-.41,0-.79-.11-1.14-.34s-.53-.62-.53-1.19c0-.28.08-.57.25-.86.16-.29.37-.53.61-.72s.47-.28.69-.28c.41,0,.76.12,1.06.37.3.25.45.67.45,1.26,0,1.18-.46,1.77-1.38,1.77Z"/>
    <path class="cls-4" d="M273.75,23.57c0-.26.07-.5.19-.72s.26-.39.43-.51c.17-.12.34-.18.5-.18.13,0,.27.06.43.18.16.12.29.29.4.51.11.22.16.48.16.77,0,1.51-.08,3.55-.25,6.12-.09,1.39-.16,2.57-.2,3.55-.04.98-.07,1.99-.07,3.02v.2l5.79-7.19c.15-.22.32-.4.5-.54s.36-.21.53-.21c.42,0,.7.1.86.3.16.2.24.53.24.98v.14c0,.37-.23.8-.7,1.29s-1.14,1.11-2.01,1.87l-.77.68c.14.3.28.64.43,1.03.15.38.25.64.3.77.32.87.61,1.58.88,2.14.24.53.49,1.01.74,1.43.22.34.44.76.67,1.25.02.05.07.16.14.34s.15.37.22.58.1.37.1.48c0,.45-.13.84-.4,1.15-.27.31-.58.47-.94.47-.23,0-.42-.09-.57-.27-.15-.18-.28-.46-.38-.84,0,.04-.2-.41-.59-1.35-.39-.93-1.12-2.77-2.2-5.49l-2.84,3.27c0,.59,0,1.04.02,1.36v1.52c.01.38-.1.74-.32,1.08s-.5.51-.84.51c-.26,0-.47-.08-.64-.25-.17-.17-.29-.37-.37-.6-.08-.23-.12-.44-.12-.63l.02-1.19c0-.49.06-1.06.15-1.7.05-.3.08-.6.09-.91l.43-14.39Z"/>
    <path class="cls-4" d="M289.51,33.14c-.65.79-.98,2.01-.98,3.65v.5l.15,4.36c0,.16-.04.36-.11.59-.07.23-.19.43-.36.61-.16.17-.38.26-.63.26-.48,0-.8-.14-.98-.41s-.27-.72-.27-1.35c0-.42,0-.85.03-1.3,0-.15.01-.35.01-.59v-1.33c0-.53.03-1.26.08-2.18.05-.93.18-2.54.36-4.86.03-.47.14-.84.33-1.12.19-.27.47-.41.83-.41.2,0,.38.12.56.38.17.25.26.65.26,1.2,0,.84-.01,1.35-.04,1.54.2-.6.58-1.17,1.15-1.69.57-.52,1.19-.94,1.87-1.25s1.26-.47,1.76-.47c.81,0,1.53.15,2.16.45.63.3.94.9.94,1.8,0,.28-.06.54-.19.78s-.3.42-.5.55c-.2.13-.42.2-.63.2-.19,0-.33-.03-.42-.1-.09-.07-.17-.17-.25-.31-.12-.22-.28-.38-.48-.5-.2-.12-.56-.18-1.06-.18h-.34c-1.51,0-2.59.4-3.24,1.19Z"/>
    <path class="cls-4" d="M300.53,42.95c-.21.27-.44.41-.7.41-.37,0-.66-.11-.87-.33-.21-.22-.38-.59-.48-1.11-.08-.45-.12-1.42-.12-2.9,0-2.45.1-4.68.31-6.68.2-2,.67-2.99,1.39-2.99.3,0,.49.12.59.38.09.25.14.61.14,1.08l-.12,1.98c-.05.67-.09,1.37-.13,2.11-.04.74-.06,1.39-.06,1.97,0,.61.06,1.47.19,2.58.12,1.15.18,1.95.18,2.39,0,.47-.1.84-.31,1.12ZM300.3,26.41c-.41,0-.79-.11-1.14-.34s-.53-.62-.53-1.19c0-.28.08-.57.25-.86s.37-.53.61-.72.47-.28.69-.28c.41,0,.76.12,1.06.37s.45.67.45,1.26c0,1.18-.46,1.77-1.38,1.77Z"/>
    <path class="cls-4" d="M313.21,33.7c-.5-1.1-1.46-1.64-2.87-1.64-.42,0-.9.12-1.44.35s-1.06.56-1.57.97c-.51.41-.92.86-1.24,1.35,0,.32,0,.86-.03,1.61-.02.72-.03,1.21-.03,1.49,0,.29.02.58.06.86.04.28.1.62.18,1.03.06.3.11.62.16.94.04.33.07.63.07.91,0,.54-.06.94-.19,1.22-.13.27-.41.41-.83.41s-.77-.11-1.03-.34c-.26-.23-.38-.68-.36-1.37l.06-5.55c-.11-1.34-.16-2.26-.16-2.76v-.42c0-.83.08-1.59.25-2.28s.44-1.03.82-1.03c.75,0,1.13.62,1.13,1.85,0,.2-.03.59-.09,1.18l-.04.37c.22-.74.62-1.37,1.19-1.9.58-.53,1.2-.93,1.86-1.2.67-.27,1.23-.4,1.7-.4,1.87,0,3.19.73,3.98,2.18s1.18,3.22,1.18,5.3c0,1.93-.09,3.51-.28,4.76s-.58,1.87-1.16,1.87c-.26,0-.47-.03-.63-.09-.16-.06-.29-.21-.39-.44-.1-.23-.15-.59-.15-1.07,0-.31.02-.62.07-.92s.12-.68.22-1.13c.11-.52.19-.93.24-1.23s.07-.62.07-.96c0-1.5-.25-2.8-.75-3.89Z"/>
    <path class="cls-4" d="M326.91,46.44c.25-.41.42-.9.51-1.48.09-.58.17-1.34.24-2.29.04-.66.08-1.15.12-1.46-.11.42-.38.8-.8,1.13s-.91.58-1.47.76c-.56.17-1.07.26-1.55.26-1.79,0-3.15-.52-4.07-1.56-.93-1.04-1.39-2.59-1.39-4.65,0-1.34.21-2.6.63-3.77s1.05-2.11,1.9-2.83,1.89-1.08,3.13-1.08c.97,0,1.92.31,2.84.93.92.62,1.67,1.38,2.24,2.29.57.91.86,1.78.86,2.6l-.28,6.7v.2c-.06.25-.14.84-.25,1.74-.16,1.27-.34,2.31-.54,3.09-.2.79-.56,1.46-1.09,2.02-.53.56-1.29.84-2.27.84-.39,0-.89-.06-1.5-.19-.62-.13-1.17-.34-1.66-.64-.49-.3-.74-.7-.74-1.2,0-.47.07-.83.2-1.08.13-.25.38-.37.74-.37.09,0,.17.01.25.04s.15.07.22.11c.25.15.56.27.92.37.37.09.95.14,1.76.14.47,0,.82-.21,1.07-.62ZM325.98,40.09c.52-.42.95-.95,1.3-1.56.35-.62.6-1.23.76-1.83-.11-.82-.28-1.55-.5-2.19s-.58-1.18-1.07-1.63-1.15-.67-1.99-.67c-1.36,0-2.35.44-2.96,1.33-.62.89-.93,2.03-.95,3.43,0,1.39.32,2.36.97,2.92.65.56,1.56.84,2.75.84.62,0,1.18-.21,1.7-.64Z"/>
  </g>
</svg>