<?xml version="1.0" encoding="UTF-8"?>
<svg id="Layer_1" xmlns="http://www.w3.org/2000/svg" version="1.1" viewBox="0 0 491.21 75.6">
  <!-- Generator: Adobe Illustrator 29.1.0, SVG Export Plug-In . SVG Version: 2.1.0 Build 142)  -->
  <defs>
    <style>
      .st0 {
        fill: none;
        stroke: #231f20;
      }

      .st0, .st1 {
        stroke-miterlimit: 10;
        stroke-width: 2px;
      }

      .st1 {
        fill: #263779;
        stroke: #010101;
      }

      .st2 {
        fill: #c18678;
      }

      .st3 {
        fill: #eaa294;
      }

      .st4 {
        fill: #ededed;
      }
    </style>
  </defs>
  <path class="st1" d="M487.51,1.86l-.08,72.12-383.2-.36c-2.36,0-4.7-.39-6.92-1.14L3.96,40.78c-3.32-1.13-3.31-5.49,0-6.62L98,2.43c1.82-.61,3.73-.93,5.66-.92l383.85.36Z"/>
  <path class="st2" d="M62.27,23.25c-1.42.77-2.22,1.97-2.72,3.3-.23.16-.45.34-.66.52-1.42-.09-2.86.18-4.06.84-.46.25-.85.55-1.23.87-.91-.03-1.83.06-2.75.32-4.86,1.33-5.92,5.96-5.04,9.93.79,3.6,3.34,7.39,6.97,9.19.74.37,1.56.67,2.4.87,1.49,1.87,3.82,3.1,6.83,2.99,2.91-.1,5.74-1.48,7.8-3.49.52.11,1.05.19,1.62.21,5.65.15,7.88-5,7.14-9.37.13-2.1-.82-4.25-2.37-5.79-.17-.17-.35-.31-.54-.46.65-.98.78-2.25.04-3.26-.31-.43-.66-.83-1.02-1.21,0,0,0,0,0,0-.34-.43-.68-.86-1.03-1.28-.82-.99-1.65-1.99-2.68-2.82-2.37-1.92-5.76-2.95-8.7-1.35Z"/>
  <path class="st3" d="M99.63,3.01c-1.01.12-1.79.55-2.51,1.16-.05.04-.34.3-.57.51-.27.04-.55.16-.81.21-.33.07-.67.12-1.01.17-.11.01-.4.05-.5.06-1.51.16-3.07.28-4.52.73-1.65.52-2.78,1.4-4.16,2.31.39-.26-.56.32-.53.3-.29.16-.58.3-.88.44-.45.22-.91.42-1.37.62-.32,0-.65,0-.99.05-1.34.2-2.55.79-3.7,1.43-.53-.11-1.09-.11-1.64.08-.75.25-1.48.53-2.22.81-.27.1-.55.21-.82.31-.12.05-.97.44-.24.09-.51.25-1.11.4-1.66.56-.28.08-.56.14-.84.22-.02,0-.03,0-.05.02-1.8.03-3.18.77-4.39,1.91-.01.01-.02.02-.03.03-.78.22-1.54.46-2.29.76-.28.11-.54.25-.8.39-1.86.15-3.74.17-5.5.77-.96.33-1.91.74-2.8,1.22-.08-.02-.14-.05-.22-.06-1.42-.23-2.64-.05-3.9.61-.74.38-1.46.77-2.23,1.11-.2.09-.4.17-.6.26-.03.01-.24.09-.36.14-.13.04-.31.1-.34.11-.22.07-.44.14-.67.21-.92.29-1.86.55-2.8.81-2.04.55-3.97,1.3-5.92,2.06-.44.17-.87.34-1.31.51-.27.1-.54.21-.81.32-.03.01-.25.09-.37.14-.12.04-.36.13-.39.14-.21.07-.41.13-.62.2-.58.18-1.17.38-1.71.65-.07.04-.14.09-.21.13-1.07-.48-2.36-.52-3.41.08-1.63.94-2.35,2.89-1.3,4.45.54.81.94,1.55,1.66,2.27.1.1.2.19.3.29.01.02.02.03.04.05.04.08.07.13.1.17.05.13.1.26.14.4.04.13.15.9.16.8.02.33.04.66.04.99,0,.39-.02.79-.05,1.18-.01.19-.03.38-.05.57,0,.06-.01.1-.02.14,0,.05-.03.13-.05.28-.04.21-.09.42-.15.62-.1.42-.22.83-.33,1.25-.22.84-.36,1.69-.55,2.53-.09.42-.23.83-.35,1.25-.01.03-.02.04-.03.06-.06.1-.11.2-.17.29-.03.04-.06.08-.09.12-1.84.31-3.02,2.45-2.47,3.98.65,1.82,2.44,2.57,4.45,2.27.46-.07.89-.21,1.3-.38.22.21.47.4.78.54,2.05.96,4.19,1.32,6.41,1.81.48.1.95.25,1.43.36,0,0,.01.01.02.02.14.11.36.22.52.3.02,0,.02,0,.03.02.15.11.31.22.46.33.52.37,1.04.76,1.59,1.08,1.79,1.02,4,1.06,5.95,1.73,1.21.42,2.48.78,3.76,1.09.65.78,1.65,1.3,2.84,1.31,1.03.01,1.45.07,2.47.23.81.12,1.62.22,2.43.32.25.26.55.5.91.65.6.25,1.1.63,1.65.96.74.45,1.6.76,2.43,1.04,1.39.47,2.87.69,4.29,1.1,3.03.86,5.91,2.08,8.93,2.94,0,0,0,0,0,0,.07.05.14.11.22.16,1.3.85,2.79,1.25,4.24,1.82,1.66.66,3.25,1.46,4.94,2.06,1.7.6,3.49.95,5.21,1.51,3.08,1,5.95,2.35,9.23,2.78,2.37.31,5.09.49,7.39-.3,3.32.48,6.42-.47,9.58-1.31.48-.13.96-.29,1.43-.44,2.75.48,5.01-.39,7.53-1.41,2.26-.92,5-1.13,6.45-3.19,1.08-1.53.99-3.41.84-5.14-.24-2.75-2.18-4.39-4.94-5.31-2.26-.76-4.54-1.47-6.78-2.27-2.03-.73-3.82-1.77-5.79-2.6-2.33-.97-4.84-1.36-7.35-1.76-.67-.1-1.34-.21-2.01-.3,1.18-.22,2.33-.52,3.5-.78.24.05.49.07.74.07,1.28,0,2.51-.02,3.78-.2.41-.06.82-.16,1.22-.28.09.03.16.07.25.09,1.51.37,3.29.24,4.75-.22,1.46-.46,2.62-1.31,3.99-1.92.03-.01.03-.02.05-.03.02,0,.03,0,.06-.02.16-.06.33-.12.49-.17.33-.12.66-.23.98-.35.89-.32,1.79-.65,2.64-1.04,1.47-.68,2.7-1.56,3.52-2.87.82-1.32,1.24-2.75.75-4.16-.03-1.06-.3-2.1-.85-2.89-1.12-1.64-3-2.34-4.84-3.09-.26-.21-.51-.43-.78-.63-.75-.56-1.63-.88-2.51-.91-.13-.08-.28-.14-.41-.22-.89-.57-1.79-1.41-2.86-1.93-2.15-1.04-4.53-1.47-6.91-1.9-1.1-.2-2.22-.39-3.34-.56.52-.52.78-1.09.85-1.66,3.73-.15,7.53-.63,11.15-1.38,3.58-.74,7.27-2.22,9.32-5.11,2.45-3.45.64-7.28-2.88-9.38-.17-.1-.36-.18-.54-.27-.48-1.07-1.53-1.92-3.19-1.95-2.79-.05-5.71-.76-8.4-1.09-2.83-.34-5.72-1.04-8.67-1.11-2.77-.06-5.76-.33-8.53.03-.68-.34-1.48-.5-2.38-.39Z"/>
  <path class="st0" d="M23.99,47.32c6.7-5.41,7.48-14.42,1.76-20.14"/>
  <g>
    <path class="st0" d="M101.39,2.43c26.76.03,35.27,4.83,34.85,11.74"/>
    <path class="st0" d="M103.97,24.53c17.83.02,32.26-4.61,32.27-10.35"/>
  </g>
  <g>
    <path class="st0" d="M103.99,24.51c17.82.02,32.23,6.25,32.22,13.92"/>
    <path class="st0" d="M103.95,49.81c17.82.02,32.25-5.06,32.26-11.38"/>
  </g>
  <g>
    <path class="st0" d="M103.95,49.81c17.83.02,32.24,5.89,32.23,13.1"/>
    <path class="st0" d="M102.19,72.92c18.47,1.84,33.98-4.06,33.99-10"/>
  </g>
  <line class="st0" x1="13.95" y1="44.03" x2="102.19" y2="72.92"/>
  <line class="st0" x1="14.79" y1="30.66" x2="102.28" y2="2.14"/>
  <g>
    <path class="st4" d="M236.64,43.68c-.81-.41-1.22-1.22-1.22-2.43,0-.19.05-.44.14-.74.09-.31.22-.58.36-.81.15-.23.31-.35.48-.35.02,0,.07.05.15.14.08.09.15.21.22.34.3.56.57.96.81,1.2.24.24.5.39.78.45.28.06.71.08,1.28.08s1.21-.12,1.88-.35c.67-.23,1.22-.52,1.67-.86s.68-.66.68-.96-.14-.55-.43-.76c-.29-.22-.66-.4-1.1-.55-.45-.15-1.06-.33-1.83-.54-1.19-.32-2.17-.63-2.93-.92-.76-.29-1.42-.71-1.97-1.26-.55-.55-.83-1.25-.83-2.1,0-1.28.32-2.41.96-3.38.64-.97,1.46-1.71,2.46-2.22,1-.51,2.03-.77,3.07-.77.66,0,1.24.15,1.76.45.52.3.92.69,1.2,1.18.28.49.42,1.02.42,1.59,0,.72-.07,1.32-.2,1.8s-.4.72-.81.72c-.28,0-.45-.11-.53-.33-.08-.22-.11-.55-.11-.98,0-.62-.18-1.06-.54-1.32-.36-.25-.89-.38-1.59-.38-.5,0-1.08.17-1.76.5-.68.33-1.26.76-1.75,1.28-.49.52-.73,1.06-.73,1.61,0,.36.15.66.45.9.3.24.68.43,1.14.58.46.15,1.1.32,1.92.52,1.18.28,2.14.56,2.88.83.74.27,1.38.68,1.91,1.24.54.56.8,1.29.8,2.19,0,1.12-.38,2.06-1.15,2.82s-1.65,1.31-2.67,1.68c-1.01.36-1.87.54-2.58.54-.99,0-1.9-.21-2.71-.62Z"/>
    <path class="st4" d="M262.78,41.32c.13.19.2.49.2.91,0,.32-.09.64-.28.96s-.45.59-.77.79-.69.31-1.09.31-.78-.13-1.17-.4c-.39-.27-.71-.62-.96-1.06-.25-.44-.37-.89-.37-1.35-.74.9-1.52,1.62-2.32,2.16-.8.54-1.65.81-2.55.81-.82,0-1.66-.25-2.51-.76-.85-.51-1.55-1.2-2.09-2.06-.55-.86-.82-1.8-.82-2.8,0-1.35.32-2.67.97-3.96.64-1.29,1.51-2.35,2.6-3.16,1.09-.81,2.26-1.22,3.52-1.22.95,0,1.84.27,2.66.82.82.55,1.47,1.25,1.95,2.12.48.86.72,1.74.72,2.63,0,.38-.03.76-.09,1.13s-.09.61-.1.71c-.08.44-.14.84-.18,1.18-.04.34-.06.71-.06,1.1,0,.56.09.96.26,1.2.17.24.43.36.78.36.09,0,.18-.03.28-.1.09-.07.21-.16.33-.28.02-.02.08-.07.17-.15.09-.08.18-.13.26-.16.31,0,.53.09.66.28ZM256.64,40.81c.63-.61,1.07-1.31,1.3-2.1.23-.79.45-1.81.65-3.08,0-.29-.18-.63-.55-1.01s-.81-.7-1.32-.98c-.51-.27-.97-.41-1.38-.41-1.02,0-1.94.27-2.74.81-.8.54-1.43,1.24-1.87,2.09-.44.85-.66,1.71-.66,2.59,0,.58.19,1.09.57,1.55.38.46.87.81,1.47,1.07.6.25,1.21.38,1.84.38,1.16,0,2.06-.31,2.7-.92ZM258.12,25.35c-.35.6-.79,1.1-1.33,1.5s-1.05.59-1.56.59c-.57,0-1.11-.16-1.62-.47-.52-.32-.93-.73-1.24-1.25s-.47-1.08-.47-1.67c0-.36.19-.88.57-1.58.38-.69.84-1.31,1.38-1.84.54-.53,1.05-.8,1.53-.8.22,0,.38.02.5.06.11.04.21.14.28.28.08.15.14.38.2.69.08.07.22.13.43.18.49.09.92.36,1.29.81.37.44.56,1.03.56,1.76,0,.56-.18,1.14-.53,1.74ZM256.41,25c.19-.16.36-.35.5-.59.14-.24.21-.48.21-.72,0-.2-.19-.41-.58-.64-.39-.23-.82-.44-1.3-.62s-.8-.27-.96-.27c-.1,0-.2.1-.31.3-.11.2-.21.43-.29.69-.08.26-.13.45-.13.56,0,.18.13.39.4.63.27.24.59.45.96.62.37.17.7.26.99.26.15,0,.32-.08.51-.23Z"/>
    <path class="st4" d="M272.14,30.82c.53.22.96.52,1.3.92.34.4.54.85.6,1.36l.03-4.06.03-4.04c0-.99.38-1.49,1.13-1.49.29,0,.5.13.62.4s.19.58.19.95v2.1s-.04,2.14-.04,2.14l-.18,8.99-.06,2.45c-.01,1.26-.1,2.2-.26,2.84-.16.64-.5.96-1,.96-.2,0-.37-.12-.51-.37s-.3-.6-.48-1.08c-.33.3-.76.56-1.29.77-.54.21-1.09.37-1.65.48-.57.11-1.06.16-1.47.16-1.78,0-3.12-.56-4.04-1.67s-1.37-2.63-1.37-4.55c0-1.32.27-2.56.81-3.72s1.32-2.1,2.35-2.8,2.22-1.06,3.6-1.06c.6,0,1.16.11,1.69.33ZM271.52,41.49c.6-.2,1.08-.45,1.43-.73s.57-.54.65-.78c.08-.25.13-.51.16-.79.02-.28.04-.61.04-.99v-1.3c0-.64-.15-1.25-.46-1.83s-.72-1.04-1.23-1.39-1.04-.52-1.6-.52c-.96,0-1.8.21-2.52.62s-1.27.99-1.65,1.72c-.38.73-.57,1.56-.57,2.5,0,.76.16,1.44.48,2.01s.77,1.02,1.33,1.32c.57.31,1.2.46,1.89.46.77,0,1.46-.1,2.06-.3Z"/>
    <path class="st4" d="M293.19,41.32c.13.19.2.49.2.91,0,.32-.09.64-.28.96s-.45.59-.77.79c-.33.21-.69.31-1.09.31s-.78-.13-1.17-.4c-.39-.27-.71-.62-.96-1.06-.25-.44-.37-.89-.37-1.35-.75.9-1.52,1.62-2.32,2.16-.8.54-1.65.81-2.55.81-.82,0-1.66-.25-2.51-.76s-1.55-1.2-2.09-2.06c-.55-.86-.82-1.8-.82-2.8,0-1.35.32-2.67.97-3.96s1.51-2.35,2.6-3.16,2.26-1.22,3.52-1.22c.95,0,1.84.27,2.66.82s1.47,1.25,1.95,2.12c.48.86.72,1.74.72,2.63,0,.38-.03.76-.09,1.13s-.09.61-.1.71c-.08.44-.14.84-.18,1.18-.04.34-.06.71-.06,1.1,0,.56.09.96.26,1.2.17.24.43.36.78.36.09,0,.18-.03.28-.1.09-.07.21-.16.34-.28.02-.02.08-.07.17-.15.09-.08.18-.13.26-.16.31,0,.53.09.66.28ZM287.05,40.81c.64-.61,1.07-1.31,1.3-2.1.23-.79.45-1.81.65-3.08,0-.29-.18-.63-.55-1.01-.37-.38-.81-.7-1.32-.98s-.97-.41-1.38-.41c-1.02,0-1.94.27-2.74.81-.8.54-1.43,1.24-1.87,2.09s-.66,1.71-.66,2.59c0,.58.19,1.09.57,1.55.38.46.87.81,1.47,1.07s1.21.38,1.84.38c1.16,0,2.06-.31,2.7-.92Z"/>
    <path class="st4" d="M303.78,34.79c-.5-1.1-1.46-1.64-2.87-1.64-.42,0-.9.12-1.44.35s-1.06.56-1.57.97c-.51.41-.92.86-1.24,1.35,0,.32-.01.86-.03,1.61-.02.72-.03,1.21-.03,1.49,0,.29.02.58.06.86.04.28.1.62.18,1.03.06.3.11.62.16.94.04.33.07.63.07.91,0,.54-.06.94-.19,1.22s-.41.41-.83.41-.77-.11-1.03-.34-.38-.68-.36-1.37l.06-5.55c-.11-1.34-.16-2.26-.16-2.76v-.42c0-.83.08-1.59.25-2.28.17-.69.44-1.03.82-1.03.75,0,1.13.62,1.13,1.85,0,.2-.03.59-.09,1.18l-.04.37c.22-.74.62-1.37,1.19-1.9.58-.53,1.2-.93,1.86-1.2.67-.27,1.23-.4,1.7-.4,1.87,0,3.19.73,3.98,2.18s1.18,3.22,1.18,5.3c0,1.93-.09,3.51-.28,4.76s-.58,1.87-1.16,1.87c-.26,0-.47-.03-.62-.09-.16-.06-.29-.21-.39-.44-.1-.23-.15-.59-.15-1.07,0-.31.02-.62.07-.92s.12-.68.22-1.13c.11-.52.19-.93.24-1.23.05-.3.07-.62.07-.96,0-1.5-.25-2.8-.75-3.89Z"/>
    <path class="st4" d="M323.62,47.53c.25-.41.42-.9.51-1.48.09-.58.17-1.34.24-2.29.04-.66.08-1.15.12-1.46-.11.42-.38.8-.8,1.13s-.91.58-1.47.76c-.56.17-1.07.26-1.55.26-1.79,0-3.14-.52-4.07-1.56-.93-1.04-1.39-2.59-1.39-4.65,0-1.34.21-2.6.63-3.77s1.05-2.11,1.9-2.83,1.89-1.08,3.13-1.08c.97,0,1.92.31,2.84.93.92.62,1.67,1.38,2.24,2.29.57.91.86,1.78.86,2.6l-.28,6.7v.2c-.06.25-.14.84-.25,1.74-.16,1.27-.34,2.31-.54,3.09-.2.79-.56,1.46-1.09,2.02s-1.29.84-2.27.84c-.39,0-.89-.06-1.5-.19-.62-.13-1.17-.34-1.66-.64-.49-.3-.74-.7-.74-1.2,0-.47.07-.83.2-1.08.13-.25.38-.37.74-.37.09,0,.17.01.25.04s.15.07.22.11c.25.15.56.27.92.37s.95.14,1.76.14c.47,0,.82-.21,1.07-.62ZM322.7,41.18c.52-.42.95-.95,1.3-1.56.35-.62.6-1.23.76-1.83-.11-.82-.28-1.55-.5-2.19-.22-.64-.58-1.18-1.07-1.63s-1.15-.67-1.99-.67c-1.36,0-2.35.44-2.96,1.33-.62.89-.93,2.03-.95,3.43,0,1.39.32,2.36.97,2.92.65.56,1.56.84,2.75.84.62,0,1.18-.21,1.7-.64Z"/>
    <path class="st4" d="M329.91,39.73c-.27-.8-.41-1.51-.41-2.15,0-1.64.3-3,.9-4.06.6-1.06,1.38-1.83,2.32-2.32s1.97-.72,3.06-.72c1.16,0,2.19.29,3.1.88.23-.28.52-.56.88-.83.36-.27.67-.4.94-.4.58,0,.86.37.86,1.12,0,.24-.04.43-.11.59-.07.16-.19.3-.34.45s-.4.35-.75.62c.35.6.62,1.31.83,2.11.2.8.31,1.66.31,2.56,0,1.31-.29,2.49-.86,3.54s-1.32,1.86-2.26,2.45c-.93.59-1.92.88-2.96.88-.32,0-.75-.09-1.31-.28-.56-.19-1.05-.39-1.47-.59-.05.11-.16.29-.33.53-.17.24-.36.46-.56.66-.2.2-.38.3-.54.3-.42,0-.74-.12-.97-.38-.23-.25-.34-.57-.34-.97,0-.31.07-.58.2-.81s.33-.49.57-.78c0,0,.09-.1.24-.27-.39-.62-.72-1.33-.99-2.13ZM333.45,38.35c.32-.51,1.01-1.47,2.07-2.89l.51-.68,1.12-1.52c-.1-.06-.21-.09-.33-.1s-.34-.01-.66-.01c-.81,0-1.59.16-2.32.47-.73.31-1.32.78-1.77,1.41-.45.63-.68,1.39-.68,2.29,0,.49.11.99.32,1.5s.41.9.59,1.16l1.16-1.63ZM335.79,38.76c-1.1,1.58-1.74,2.48-1.91,2.72.52.23.99.34,1.42.34.72,0,1.41-.17,2.05-.51s1.17-.83,1.57-1.48c.4-.65.61-1.4.62-2.26,0-.56-.07-1.11-.22-1.67-.14-.56-.35-.96-.63-1.2-.58.74-1.54,2.09-2.9,4.06Z"/>
    <path class="st4" d="M347.8,34.23c-.65.79-.98,2.01-.98,3.65v.5l.15,4.36c0,.16-.04.36-.11.59-.07.23-.19.43-.36.61-.16.17-.37.26-.63.26-.48,0-.8-.14-.98-.41s-.27-.72-.27-1.35c0-.42,0-.85.03-1.3,0-.15.01-.35.01-.59v-1.33c0-.53.03-1.26.08-2.18.05-.93.18-2.54.36-4.86.03-.47.14-.84.33-1.12.19-.27.47-.41.83-.41.2,0,.38.12.56.38.17.25.26.65.26,1.2,0,.84-.02,1.35-.04,1.54.2-.6.58-1.17,1.15-1.69.57-.52,1.19-.94,1.87-1.25s1.26-.47,1.76-.47c.81,0,1.53.15,2.16.45.62.3.94.9.94,1.8,0,.28-.06.54-.19.78s-.3.42-.5.55-.41.2-.63.2c-.19,0-.33-.03-.42-.1-.09-.07-.17-.17-.25-.31-.12-.22-.28-.38-.48-.5-.2-.12-.56-.18-1.06-.18h-.34c-1.51,0-2.59.4-3.24,1.19Z"/>
    <path class="st4" d="M370.48,30.82c.53.22.96.52,1.3.92s.54.85.6,1.36l.03-4.06.03-4.04c0-.99.38-1.49,1.13-1.49.29,0,.5.13.62.4s.19.58.19.95l-.02,2.1-.03,2.14-.18,8.99-.06,2.45c0,1.26-.1,2.2-.26,2.84-.16.64-.5.96-1,.96-.2,0-.37-.12-.51-.37-.14-.25-.3-.6-.48-1.08-.33.3-.76.56-1.29.77-.54.21-1.09.37-1.65.48-.57.11-1.06.16-1.47.16-1.78,0-3.12-.56-4.04-1.67s-1.37-2.63-1.37-4.55c0-1.32.27-2.56.81-3.72s1.32-2.1,2.35-2.8,2.22-1.06,3.6-1.06c.6,0,1.16.11,1.69.33ZM369.87,41.49c.6-.2,1.08-.45,1.43-.73.35-.28.57-.54.65-.78.08-.25.13-.51.16-.79.02-.28.04-.61.04-.99v-1.3c0-.64-.15-1.25-.46-1.83s-.72-1.04-1.23-1.39c-.51-.35-1.04-.52-1.6-.52-.96,0-1.8.21-2.52.62-.72.42-1.27.99-1.65,1.72-.38.73-.57,1.56-.57,2.5,0,.76.16,1.44.48,2.01.32.58.77,1.02,1.33,1.32.57.31,1.2.46,1.89.46.77,0,1.46-.1,2.06-.3Z"/>
    <path class="st4" d="M379.85,33.56c-.14.71-.24,1.3-.31,1.78s-.1.96-.1,1.44c0,.69.07,1.41.22,2.17.15.76.43,1.43.85,2,.42.57,1,.86,1.74.86.92,0,1.69-.24,2.3-.71s1.18-1.13,1.72-1.97c.02-.25.07-1.16.16-2.75l.03-.71.04-3.95c0-.41.12-.71.36-.91s.49-.3.75-.3c.23,0,.43.1.62.3s.28.47.28.82l-.24,11.27c-.01.53-.08.89-.22,1.07-.14.18-.38.28-.73.28-.3,0-.52-.05-.68-.15-.15-.1-.27-.31-.33-.62-.07-.32-.1-.81-.1-1.48,0-.48,0-.87.03-1.18-.17.69-.46,1.32-.87,1.88s-.88,1.01-1.41,1.33c-.53.32-1.04.48-1.55.48-1.96,0-3.27-.75-3.95-2.26-.68-1.51-1.01-3.23-1.01-5.16,0-.98.06-1.98.18-2.98.12-1,.32-1.86.6-2.56.28-.7.65-1.05,1.11-1.05.55,0,.82.33.82,1.01,0,.39-.1,1.06-.3,2.02Z"/>
  </g>
</svg>