<?xml version="1.0" encoding="UTF-8"?>
<svg id="Layer_1" xmlns="http://www.w3.org/2000/svg" viewBox="0 0 416.4 74.17">
  <defs>
    <style>
      .cls-1 {
        fill: none;
      }

      .cls-1, .cls-2 {
        stroke: #231f20;
        stroke-miterlimit: 10;
        stroke-width: 2px;
      }

      .cls-2 {
        fill: #026955;
      }

      .cls-3 {
        fill: #eaa294;
      }

      .cls-4 {
        fill: #ededed;
      }

      .cls-5 {
        fill: #c18678;
      }
    </style>
  </defs>
  <g>
    <path class="cls-2" d="M414.96,1.26l-.1,71.92-326.37-.53c-2.01,0-4-.39-5.89-1.14L3.11,39.86c-2.83-1.13-2.82-5.48,0-6.6L83.21,1.66c1.55-.61,3.18-.92,4.82-.92l326.93.53Z"/>
    <path class="cls-5" d="M51.02,22.4c-1.17.77-1.83,1.96-2.24,3.29-.19.16-.37.34-.55.51-1.16-.09-2.36.18-3.34.83-.37.25-.7.55-1.01.86-.75-.03-1.51.06-2.26.31-4,1.33-4.87,5.94-4.15,9.91.65,3.59,2.74,7.37,5.73,9.17.61.37,1.28.66,1.98.87,1.22,1.87,3.14,3.09,5.62,2.99,2.39-.1,4.72-1.47,6.42-3.48.42.11.86.19,1.33.21,4.65.16,6.48-4.98,5.88-9.34.11-2.09-.67-4.24-1.95-5.78-.14-.17-.29-.31-.44-.46.53-.98.64-2.24.04-3.25-.26-.43-.54-.82-.84-1.2,0,0,0,0,0,0-.28-.43-.56-.86-.85-1.28-.67-.98-1.36-1.99-2.2-2.81-1.95-1.91-4.73-2.94-7.16-1.35Z"/>
    <path class="cls-3" d="M81.76,2.24c-.83.12-1.47.55-2.07,1.16-.04.04-.28.3-.47.51-.22.04-.45.15-.66.21-.27.07-.55.12-.83.17-.09.01-.33.05-.41.06-1.24.16-2.53.27-3.72.73-1.36.51-2.29,1.39-3.42,2.31.32-.26-.46.31-.44.3-.24.16-.48.3-.72.44-.37.21-.75.42-1.13.62-.27-.01-.54,0-.82.05-1.1.2-2.1.78-3.04,1.43-.44-.11-.9-.11-1.35.08-.62.25-1.22.53-1.83.81-.23.1-.45.21-.67.31-.1.05-.8.44-.19.09-.42.24-.92.4-1.37.56-.23.08-.46.14-.69.22-.02,0-.02,0-.04.02-1.48.03-2.62.77-3.62,1.91,0,.01-.02.02-.03.03-.64.22-1.26.46-1.88.76-.23.11-.44.25-.66.39-1.53.14-3.08.17-4.53.76-.79.33-1.57.73-2.3,1.21-.06-.02-.12-.05-.18-.06-1.17-.23-2.17-.05-3.21.6-.61.38-1.21.76-1.83,1.1-.16.09-.33.17-.49.26-.03.01-.2.09-.29.14-.1.04-.25.1-.28.11-.18.07-.37.14-.55.21-.76.29-1.53.55-2.3.81-1.67.55-3.27,1.29-4.87,2.05-.36.17-.72.34-1.08.5-.22.1-.44.21-.66.32-.03.01-.2.09-.3.14-.1.04-.29.13-.32.14-.17.07-.34.13-.51.2-.48.18-.97.38-1.41.65-.06.04-.11.09-.17.13-.88-.48-1.95-.52-2.81.08-1.34.94-1.93,2.88-1.07,4.43.45.81.77,1.54,1.36,2.27.08.1.16.19.24.29.01.02.02.03.03.05.03.08.06.13.08.17.04.13.08.26.12.4.03.13.12.9.13.8.02.33.04.65.04.98,0,.39-.02.79-.04,1.18-.01.19-.02.38-.04.57,0,.06,0,.1-.01.14,0,.05-.02.13-.04.28-.04.21-.08.42-.12.62-.09.42-.18.83-.28,1.24-.18.84-.3,1.68-.45,2.52-.08.42-.19.83-.29,1.25,0,.03-.01.04-.02.06-.05.1-.09.2-.14.29-.02.04-.05.08-.07.12-1.51.31-2.49,2.44-2.04,3.97.54,1.82,2.01,2.56,3.66,2.27.38-.07.73-.2,1.07-.38.18.21.39.4.64.54,1.69.96,3.45,1.32,5.27,1.8.4.1.78.25,1.17.36,0,0,0,.01.02.02.12.11.3.22.43.3.01,0,.02,0,.03.02.13.11.25.22.38.33.42.37.85.76,1.31,1.08,1.47,1.02,3.29,1.06,4.9,1.73,1,.42,2.04.77,3.09,1.09.53.78,1.35,1.29,2.34,1.31.85.01,1.19.08,2.03.23.66.12,1.33.22,2,.32.21.26.45.49.75.65.5.25.9.63,1.35.96.61.45,1.31.76,2,1.03,1.15.46,2.36.69,3.53,1.09,2.49.86,4.86,2.08,7.35,2.94,0,0,0,0,0,0,.06.05.12.11.18.16,1.07.85,2.3,1.24,3.49,1.82,1.37.66,2.67,1.46,4.07,2.05,1.4.6,2.87.95,4.29,1.51,2.54,1,4.9,2.35,7.6,2.78,1.95.31,4.18.49,6.08-.3,2.73.48,5.28-.47,7.89-1.31.4-.13.79-.29,1.18-.44,2.27.48,4.12-.39,6.2-1.41,1.86-.91,4.12-1.13,5.31-3.17.89-1.52.82-3.4.69-5.12-.2-2.74-1.79-4.37-4.06-5.3-1.86-.76-3.73-1.46-5.58-2.27-1.67-.73-3.14-1.77-4.77-2.59-1.91-.97-3.98-1.36-6.05-1.75-.55-.1-1.1-.21-1.65-.3.97-.22,1.92-.52,2.88-.77.2.05.4.07.61.07,1.05,0,2.07-.01,3.11-.2.34-.06.67-.16,1-.28.07.03.13.07.21.09,1.24.37,2.7.24,3.91-.22,1.2-.46,2.16-1.31,3.28-1.92.02-.01.03-.02.04-.02.02,0,.02,0,.05-.02.14-.06.27-.12.4-.17.27-.12.54-.23.81-.34.73-.32,1.47-.64,2.17-1.04,1.21-.68,2.22-1.56,2.9-2.86.68-1.31,1.02-2.74.62-4.14-.03-1.05-.25-2.09-.7-2.89-.92-1.63-2.46-2.33-3.98-3.08-.22-.21-.42-.43-.64-.63-.62-.55-1.34-.88-2.06-.91-.11-.08-.23-.14-.34-.22-.73-.57-1.48-1.4-2.35-1.92-1.77-1.04-3.73-1.47-5.68-1.9-.91-.2-1.83-.39-2.75-.56.43-.52.64-1.09.7-1.65,3.07-.15,6.19-.63,9.17-1.37,2.94-.74,5.98-2.21,7.67-5.09,2.02-3.44.53-7.26-2.37-9.35-.14-.1-.29-.17-.44-.26-.39-1.07-1.26-1.91-2.62-1.95-2.29-.05-4.7-.76-6.91-1.09-2.33-.34-4.7-1.04-7.14-1.11-2.28-.06-4.74-.33-7.02.03-.56-.34-1.22-.5-1.95-.39Z"/>
    <path class="cls-1" d="M19.51,46.39c5.51-5.39,6.16-14.38,1.45-20.09"/>
    <path class="cls-1" d="M83.21,1.66c22.01.04,29.02,4.83,28.67,11.72"/>
    <path class="cls-1" d="M85.33,23.69c14.67.03,26.54-4.58,26.55-10.31"/>
    <path class="cls-1" d="M85.34,23.68c14.66.03,26.52,6.25,26.5,13.9"/>
    <path class="cls-1" d="M85.3,48.91c14.66.03,26.54-5.04,26.55-11.33"/>
    <path class="cls-1" d="M85.3,48.91c14.67.03,26.52,5.88,26.51,13.08"/>
    <path class="cls-1" d="M83.85,71.95c15.2,1.84,27.96-4.04,27.97-9.96"/>
    <line class="cls-1" x1="11.26" y1="43.1" x2="83.85" y2="71.95"/>
    <line class="cls-1" x1="11.95" y1="29.77" x2="83.94" y2="1.37"/>
  </g>
  <g>
    <path class="cls-4" d="M220.08,46.46c-.09,0-.26.02-.51.04-.25.02-.49.03-.72.03-.3,0-.97-.05-2.03-.14-.12,0-.22-.02-.29-.06-.07-.04-.13-.12-.17-.25-.04-.13-.06-.34-.06-.62,0-.41.02-.84.05-1.3s.08-.97.14-1.53l.09-.89c0-.76-.01-1.61-.04-2.53s-.05-1.53-.06-1.83c-.08-1.93-.12-3.38-.12-4.35,0-1.04.02-1.82.07-2.34.04-.52.14-.91.28-1.15s.36-.37.66-.37c.18,0,.36.08.54.23.18.16.34.36.45.61.12.25.18.51.18.79,0,.43-.03.92-.09,1.46l-.06.67c0,1.81,0,3.17.03,4.08l.18,6.39c.37,0,.9.03,1.59.07,1.69.08,2.99.11,3.92.11.07,0,.26-.02.57-.06.11-.02.5-.07,1.18-.16.28,0,.52.18.71.5.2.33.3.7.3,1.11,0,.22-.06.45-.19.7-.13.25-.29.46-.48.62s-.37.25-.54.25c-.58,0-1.26-.02-2.05-.07-.18,0-.53-.02-1.06-.04-.53-.02-1.02-.03-1.49-.03-.28,0-.61.02-.98.07Z"/>
    <path class="cls-4" d="M231.56,45.67c-.92-.7-1.66-1.58-2.21-2.65-.55-1.07-.83-2.13-.83-3.17,0-1.64.3-3,.9-4.06s1.38-1.84,2.34-2.33c.96-.49,1.99-.73,3.1-.73,1.18,0,2.2.29,3.05.87.85.58,1.51,1.41,1.96,2.48.45,1.07.68,2.33.68,3.77,0,1.31-.29,2.49-.86,3.54-.57,1.05-1.32,1.86-2.25,2.45s-1.91.88-2.94.88-2.03-.35-2.95-1.05ZM238.16,37.49c-.29-.65-.7-1.16-1.21-1.52-.52-.36-1.09-.55-1.73-.55-.78,0-1.54.16-2.28.47-.73.32-1.33.79-1.8,1.41s-.7,1.37-.7,2.25c0,.74.19,1.46.57,2.16.38.7.87,1.27,1.47,1.71.61.44,1.23.66,1.88.66.73,0,1.43-.17,2.08-.52s1.17-.85,1.57-1.51c.4-.66.6-1.43.6-2.33,0-.84-.15-1.59-.44-2.24Z"/>
    <path class="cls-4" d="M251.32,49.8c.25-.41.42-.9.51-1.48.09-.58.17-1.34.24-2.29.04-.66.08-1.15.12-1.46-.11.42-.37.8-.8,1.13-.42.33-.91.58-1.47.76-.56.17-1.07.26-1.55.26-1.79,0-3.14-.52-4.07-1.56-.93-1.04-1.39-2.59-1.39-4.65,0-1.34.21-2.6.62-3.77s1.05-2.11,1.9-2.83,1.89-1.08,3.13-1.08c.97,0,1.92.31,2.84.93.92.62,1.67,1.38,2.24,2.29.57.91.86,1.78.86,2.6l-.28,6.7v.2c-.06.25-.14.83-.25,1.74-.16,1.27-.34,2.31-.54,3.09-.2.79-.56,1.46-1.09,2.02-.53.56-1.29.83-2.27.83-.39,0-.89-.06-1.5-.19-.62-.13-1.17-.34-1.66-.64-.49-.3-.74-.7-.74-1.2,0-.47.07-.83.2-1.08.13-.25.38-.37.74-.37.09,0,.17.01.25.04.08.03.15.07.22.11.25.15.56.27.92.37.37.09.95.14,1.76.14.47,0,.82-.21,1.07-.62ZM250.4,43.45c.52-.42.95-.95,1.29-1.56.35-.62.6-1.23.76-1.83-.11-.82-.28-1.55-.5-2.19s-.58-1.18-1.07-1.63-1.15-.67-1.99-.67c-1.36,0-2.35.44-2.96,1.33s-.93,2.03-.95,3.43c0,1.39.32,2.36.97,2.92.65.56,1.56.84,2.75.84.62,0,1.18-.21,1.7-.64Z"/>
    <path class="cls-4" d="M266.23,46.31c-.21.27-.44.41-.7.41-.37,0-.66-.11-.87-.33-.21-.22-.38-.59-.48-1.11-.08-.45-.12-1.42-.12-2.9,0-2.45.1-4.68.3-6.68.2-2,.67-2.99,1.39-2.99.3,0,.49.12.59.38.09.25.14.61.14,1.08l-.12,1.98c-.05.67-.09,1.37-.13,2.11-.04.74-.06,1.39-.06,1.97,0,.61.06,1.47.19,2.58.12,1.15.18,1.95.18,2.39,0,.47-.1.84-.31,1.12ZM265.99,29.77c-.41,0-.79-.11-1.14-.34s-.53-.62-.53-1.19c0-.28.08-.57.25-.86.16-.29.37-.53.61-.72s.47-.28.69-.28c.41,0,.76.12,1.06.37.3.25.45.67.45,1.26,0,1.18-.46,1.77-1.38,1.77Z"/>
    <path class="cls-4" d="M278.91,37.06c-.5-1.1-1.46-1.64-2.87-1.64-.42,0-.9.12-1.44.35s-1.06.56-1.57.97c-.51.41-.92.86-1.24,1.35,0,.32-.01.86-.03,1.61-.02.72-.03,1.21-.03,1.49,0,.29.02.58.06.86.04.28.1.62.18,1.03.06.3.11.62.16.94.04.33.07.63.07.91,0,.54-.06.94-.19,1.22s-.41.41-.83.41-.77-.11-1.03-.34-.38-.68-.36-1.37l.06-5.55c-.11-1.34-.16-2.26-.16-2.76v-.42c0-.83.08-1.59.25-2.28.17-.69.44-1.03.82-1.03.75,0,1.13.62,1.13,1.85,0,.2-.03.59-.09,1.18l-.04.37c.22-.74.62-1.37,1.19-1.9.58-.53,1.2-.93,1.86-1.2.67-.27,1.23-.4,1.7-.4,1.87,0,3.19.73,3.98,2.18s1.18,3.22,1.18,5.3c0,1.93-.09,3.51-.28,4.76s-.58,1.87-1.16,1.87c-.26,0-.47-.03-.62-.09-.16-.06-.29-.21-.39-.44-.1-.23-.15-.59-.15-1.07,0-.31.02-.62.07-.92s.12-.68.22-1.13c.11-.52.19-.93.24-1.23.05-.3.07-.62.07-.96,0-1.5-.25-2.8-.75-3.89Z"/>
    <path class="cls-4" d="M292.64,33.08c.53.22.96.52,1.3.92.34.4.54.85.6,1.36l.03-4.06.03-4.04c0-.99.38-1.49,1.13-1.49.29,0,.5.13.62.4s.19.58.19.95v2.1s-.04,2.14-.04,2.14l-.18,8.99-.06,2.45c-.01,1.26-.1,2.2-.26,2.84-.16.64-.5.96-1,.96-.2,0-.37-.12-.51-.37-.14-.25-.3-.6-.48-1.08-.33.3-.76.56-1.29.77-.54.21-1.09.37-1.65.48-.57.11-1.06.16-1.47.16-1.78,0-3.12-.56-4.04-1.67s-1.37-2.63-1.37-4.55c0-1.32.27-2.56.81-3.72s1.32-2.1,2.35-2.8,2.22-1.06,3.6-1.06c.6,0,1.16.11,1.69.33ZM292.02,43.75c.6-.2,1.08-.45,1.43-.73s.57-.54.65-.78c.08-.25.13-.51.16-.79.02-.28.04-.61.04-.99v-1.3c0-.64-.15-1.25-.46-1.83s-.72-1.04-1.23-1.39-1.04-.52-1.6-.52c-.96,0-1.8.21-2.52.62s-1.27.99-1.65,1.72c-.38.73-.57,1.56-.57,2.5,0,.76.16,1.44.48,2.01s.77,1.02,1.33,1.32c.57.31,1.2.46,1.89.46.77,0,1.46-.1,2.06-.3Z"/>
  </g>
</svg>