<?xml version="1.0" encoding="UTF-8"?>
<svg id="Layer_1" xmlns="http://www.w3.org/2000/svg" viewBox="0 0 439.94 74.94">
  <defs>
    <style>
      .cls-1 {
        fill: none;
      }

      .cls-1, .cls-2 {
        stroke: #231f20;
        stroke-miterlimit: 10;
        stroke-width: 2px;
      }

      .cls-2 {
        fill: #a42739;
      }

      .cls-3 {
        fill: #eaa294;
      }

      .cls-4 {
        fill: #ededed;
      }

      .cls-5 {
        fill: #c18678;
      }
    </style>
  </defs>
  <g>
    <path class="cls-2" d="M438.35,1.49l-.1,71.92-344.29-.53c-2.12,0-4.22-.39-6.22-1.14L3.88,40.09c-2.98-1.13-2.98-5.48,0-6.6L88.38,1.88c1.63-.61,3.35-.92,5.09-.92l344.88.53Z"/>
    <path class="cls-5" d="M54.42,22.63c-1.23.77-1.93,1.96-2.36,3.29-.2.16-.39.34-.58.51-1.23-.09-2.49.18-3.53.83-.4.25-.74.55-1.07.86-.79-.03-1.59.06-2.39.31-4.22,1.33-5.14,5.94-4.38,9.91.69,3.59,2.89,7.37,6.05,9.17.64.37,1.35.66,2.09.87,1.29,1.87,3.31,3.09,5.93,2.99,2.53-.1,4.98-1.47,6.77-3.48.45.11.91.19,1.4.21,4.9.16,6.84-4.98,6.2-9.34.11-2.09-.71-4.24-2.05-5.78-.15-.17-.31-.31-.46-.46.56-.98.68-2.24.04-3.25-.27-.43-.57-.82-.88-1.2,0,0,0,0,0,0-.3-.43-.59-.86-.9-1.28-.71-.98-1.43-1.99-2.32-2.81-2.06-1.91-4.99-2.94-7.55-1.35Z"/>
    <path class="cls-3" d="M86.85,2.46c-.87.12-1.55.55-2.18,1.16-.04.04-.3.3-.5.51-.23.04-.47.15-.7.21-.29.07-.58.12-.88.17-.1.01-.34.05-.43.06-1.31.16-2.66.27-3.92.73-1.43.51-2.42,1.39-3.61,2.31.34-.26-.49.31-.46.3-.25.16-.51.3-.76.44-.39.21-.79.42-1.19.62-.28-.01-.57,0-.86.05-1.16.2-2.22.78-3.21,1.43-.46-.11-.94-.11-1.42.08-.65.25-1.29.53-1.93.81-.24.1-.47.21-.71.31-.1.05-.84.44-.2.09-.44.24-.97.4-1.44.56-.24.08-.48.14-.73.22-.02,0-.03,0-.04.02-1.56.03-2.76.77-3.81,1.91,0,.01-.02.02-.03.03-.67.22-1.33.46-1.99.76-.24.11-.47.25-.7.39-1.61.14-3.25.17-4.78.76-.83.33-1.65.73-2.43,1.21-.07-.02-.12-.05-.19-.06-1.24-.23-2.29-.05-3.38.6-.64.38-1.27.76-1.93,1.1-.17.09-.35.17-.52.26-.03.01-.21.09-.31.14-.11.04-.27.1-.29.11-.19.07-.39.14-.58.21-.8.29-1.61.55-2.43.81-1.77.55-3.45,1.29-5.14,2.05-.38.17-.76.34-1.14.5-.23.1-.47.21-.7.32-.03.01-.21.09-.32.14-.11.04-.31.13-.34.14-.18.07-.36.13-.54.2-.51.18-1.02.38-1.49.65-.06.04-.12.09-.18.13-.92-.48-2.05-.52-2.96.08-1.41.94-2.04,2.88-1.13,4.43.47.81.82,1.54,1.44,2.27.09.1.17.19.26.29.01.02.02.03.03.05.04.08.06.13.08.17.04.13.09.26.12.4.03.13.13.9.14.8.02.33.04.65.04.98,0,.39-.02.79-.04,1.18-.01.19-.03.38-.04.57,0,.06,0,.1-.01.14,0,.05-.02.13-.05.28-.04.21-.08.42-.13.62-.09.42-.19.83-.29,1.24-.19.84-.31,1.68-.48,2.52-.08.42-.2.83-.31,1.25-.01.03-.01.04-.02.06-.05.1-.1.2-.15.29-.02.04-.05.08-.08.12-1.6.31-2.62,2.44-2.15,3.97.57,1.82,2.12,2.56,3.86,2.27.4-.07.77-.2,1.13-.38.19.21.41.4.68.54,1.78.96,3.64,1.32,5.56,1.8.42.1.82.25,1.24.36,0,0,0,.01.02.02.12.11.31.22.45.3.01,0,.02,0,.03.02.13.11.27.22.4.33.45.37.9.76,1.38,1.08,1.55,1.02,3.47,1.06,5.16,1.73,1.05.42,2.15.77,3.26,1.09.56.78,1.43,1.29,2.46,1.31.9.01,1.26.08,2.14.23.7.12,1.4.22,2.11.32.22.26.47.49.79.65.52.25.95.63,1.43.96.64.45,1.39.76,2.11,1.03,1.21.46,2.49.69,3.72,1.09,2.63.86,5.13,2.08,7.75,2.94,0,0,0,0,0,0,.06.05.12.11.19.16,1.13.85,2.42,1.24,3.68,1.82,1.44.66,2.82,1.46,4.29,2.05,1.48.6,3.03.95,4.52,1.51,2.68,1,5.16,2.35,8.01,2.78,2.06.31,4.41.49,6.42-.3,2.88.48,5.57-.47,8.32-1.31.42-.13.83-.29,1.24-.44,2.39.48,4.35-.39,6.54-1.41,1.96-.91,4.34-1.13,5.6-3.17.94-1.52.86-3.4.73-5.12-.21-2.74-1.89-4.37-4.28-5.3-1.97-.76-3.94-1.46-5.89-2.27-1.76-.73-3.32-1.77-5.03-2.59-2.02-.97-4.2-1.36-6.38-1.75-.58-.1-1.16-.21-1.74-.3,1.02-.22,2.02-.52,3.04-.77.21.05.42.07.64.07,1.11,0,2.18-.01,3.28-.2.36-.06.71-.16,1.06-.28.08.03.14.07.22.09,1.31.37,2.85.24,4.13-.22,1.26-.46,2.28-1.31,3.46-1.92.02-.01.03-.02.05-.02.02,0,.03,0,.05-.02.14-.06.28-.12.43-.17.28-.12.57-.23.85-.34.77-.32,1.55-.64,2.29-1.04,1.27-.68,2.35-1.56,3.05-2.86.71-1.31,1.08-2.74.66-4.14-.03-1.05-.26-2.09-.74-2.89-.97-1.63-2.6-2.33-4.2-3.08-.23-.21-.44-.43-.68-.63-.65-.55-1.41-.88-2.18-.91-.12-.08-.25-.14-.36-.22-.77-.57-1.56-1.4-2.48-1.92-1.87-1.04-3.93-1.47-5.99-1.9-.96-.2-1.93-.39-2.9-.56.45-.52.68-1.09.74-1.65,3.24-.15,6.53-.63,9.68-1.37,3.11-.74,6.31-2.21,8.1-5.09,2.13-3.44.56-7.26-2.5-9.35-.15-.1-.31-.17-.46-.26-.41-1.07-1.33-1.91-2.77-1.95-2.42-.05-4.96-.76-7.29-1.09-2.46-.34-4.96-1.04-7.53-1.11-2.4-.06-5-.33-7.4.03-.59-.34-1.28-.5-2.06-.39Z"/>
    <path class="cls-1" d="M21.19,46.62c5.81-5.39,6.5-14.38,1.53-20.09"/>
    <g>
      <path class="cls-1" d="M88.38,1.88c23.22.04,30.61,4.83,30.24,11.72"/>
      <path class="cls-1" d="M90.61,23.92c15.47.03,28-4.58,28.01-10.31"/>
    </g>
    <g>
      <path class="cls-1" d="M90.63,23.91c15.47.03,27.97,6.25,27.96,13.9"/>
      <path class="cls-1" d="M90.58,49.14c15.47.03,27.99-5.04,28.01-11.33"/>
    </g>
    <g>
      <path class="cls-1" d="M90.59,49.14c15.47.03,27.98,5.88,27.97,13.08"/>
      <path class="cls-1" d="M89.05,72.18c16.03,1.84,29.49-4.04,29.51-9.96"/>
    </g>
    <line class="cls-1" x1="12.47" y1="43.33" x2="89.05" y2="72.18"/>
    <line class="cls-1" x1="13.21" y1="30" x2="89.15" y2="1.6"/>
  </g>
  <g>
    <path class="cls-4" d="M198.86,40.16c0,.79,0,1.41,0,1.84s0,.77,0,1.02c0,.25-.01.59-.01,1.03,0,.9-.08,1.56-.25,1.99-.16.43-.43.64-.81.64-.41,0-.68-.11-.82-.33-.14-.22-.21-.55-.21-1,0-.17,0-.47.03-.91l.06-4.79c.07-1.36.11-2.39.13-3.09.02-.7.02-1.45.02-2.25,0-.24,0-.43-.02-.59-.03-.93-.04-1.78-.04-2.53,0-.21.04-.46.11-.74.07-.29.18-.54.32-.74s.3-.31.49-.31c.53,0,.93.24,1.21.73.28.49.51,1.16.69,2.03.29,1.34.88,2.85,1.78,4.54.9,1.68,1.82,3.19,2.75,4.5.94,1.32,1.49,1.98,1.65,1.98.05,0,.09-.17.13-.51.04-.34.09-1.31.16-2.9.06-1.6.15-4.16.26-7.7.02-.8.06-1.41.12-1.82.06-.41.17-.71.33-.91.16-.19.39-.29.7-.29.29,0,.51.03.66.1s.26.21.33.45c.07.23.11.59.11,1.08,0,1.92-.07,3.77-.2,5.57-.13,1.8-.34,4.1-.62,6.9l-.04.45v.37c-.02.61-.07,1.13-.15,1.56-.08.42-.24.78-.49,1.07-.25.29-.61.43-1.09.43-.18,0-.37-.08-.57-.25s-.33-.33-.4-.48c-1.16-1.38-2.3-2.97-3.42-4.78-1.12-1.81-2.06-3.57-2.82-5.29-.04.66-.06,1.97-.06,3.94Z"/>
    <path class="cls-4" d="M223.93,33.26c.12.23.19.48.19.74,0,.22-.05.43-.16.64s-.37.63-.77,1.26c-.04.05-.07.09-.1.13-.02.04-.05.08-.07.11-.18.26-.35.51-.52.75-.43.61-.8,1.18-1.12,1.7s-.66,1.13-1.02,1.84c-.08.16-.48.91-1.19,2.24-1.22,2.24-2.19,4.14-2.92,5.7-.73,1.56-1.09,2.79-1.09,3.67,0,.41-.1.79-.29,1.14-.19.35-.43.53-.72.53-.16,0-.36-.08-.6-.25-.24-.17-.45-.38-.63-.62-.18-.25-.27-.47-.27-.67,0-.5.22-1.28.63-2.35.41-1.07.84-1.96,1.27-2.69l1.21-2.24c-.53-1.11-1.51-3.37-2.95-6.75l-1.01-2.38c-.1-.23-.18-.46-.24-.71s-.09-.44-.09-.59c.02-.46.14-.84.36-1.12.22-.28.49-.42.81-.42.22,0,.38.09.49.26.11.17.25.48.42.91.46,1.24,1.06,2.75,1.8,4.54.74,1.79,1.31,3.08,1.7,3.89l4.44-8.18c.24-.44.53-.79.89-1.04.35-.25.71-.38,1.08-.38.2,0,.36.12.48.35Z"/>
    <path class="cls-4" d="M234.95,40.08c0-.76-.09-1.43-.26-2.02s-.56-1.1-1.15-1.52c-.59-.42-1.47-.63-2.62-.63-.58,0-1.14.12-1.7.38-.56.25-1.01.56-1.36.93-.35.37-.53.72-.53,1.05v6.66c0,.38-.03.68-.06.91-.03.23-.11.43-.25.6-.14.17-.36.25-.66.25s-.55-.1-.8-.29c-.24-.19-.36-.59-.36-1.18,0-2.1.04-5.07.13-8.94.08-4.25.12-7.2.12-8.85,0-.23.05-.48.16-.77.11-.29.26-.54.45-.74s.4-.31.63-.31c.25,0,.46.12.64.37s.27.53.27.85v.06c0,.74-.03,1.93-.09,3.57-.07,1.45-.1,2.69-.1,3.7l-.07,1.71c.09-.51.33-.97.72-1.38.39-.41.85-.73,1.39-.96.53-.23,1.03-.34,1.51-.34,2.29,0,3.88.66,4.77,1.98s1.33,2.89,1.33,4.72l-.15,4.62c0,.06,0,.32-.02.79s-.12.87-.31,1.2c-.19.33-.46.49-.81.49s-.64-.15-.85-.45c-.21-.3-.31-.67-.31-1.11,0-.61.06-1.47.18-2.56.12-1.06.18-1.87.18-2.45v-.33Z"/>
    <path class="cls-4" d="M251.24,43.7c.18.22.28.56.28,1.02,0,.89-.67,1.47-2.02,1.76-1.34.28-2.67.42-3.98.42-.98,0-1.93-.27-2.84-.81-.91-.54-1.65-1.28-2.22-2.22-.57-.93-.85-1.96-.85-3.07,0-1.6.27-3.01.82-4.23s1.34-2.18,2.39-2.87c1.05-.68,2.29-1.03,3.73-1.03.76,0,1.52.18,2.27.54.75.36,1.37.88,1.85,1.57s.73,1.5.73,2.44c0,.48-.07.88-.22,1.21-.15.33-.35.53-.61.62l-9.01,3.06c.31.93.93,1.54,1.88,1.83.94.28,1.99.42,3.14.42.38,0,.75-.05,1.13-.16.38-.1.82-.25,1.34-.44.33-.12.6-.22.81-.28.21-.07.4-.1.56-.1.37,0,.64.11.83.33ZM243.95,39.12c.95-.36,2.17-.83,3.66-1.42,1-.4,1.69-.66,2.06-.79-.27-.55-.72-.95-1.36-1.2-.64-.25-1.37-.38-2.2-.38-.47,0-1.04.17-1.73.5-.68.33-1.32.85-1.89,1.55-.58.7-.94,1.56-1.09,2.58.74-.2,1.59-.48,2.55-.84Z"/>
    <path class="cls-4" d="M262.31,33.31c.53.22.97.52,1.3.92.34.4.54.85.6,1.36l.03-4.06.03-4.04c0-.99.38-1.49,1.13-1.49.29,0,.5.13.63.4.13.26.19.58.19.95v2.1s-.04,2.14-.04,2.14l-.18,8.99-.06,2.45c0,1.26-.1,2.2-.26,2.84-.16.64-.5.96-1,.96-.2,0-.37-.12-.51-.37-.14-.25-.3-.6-.48-1.08-.33.3-.76.56-1.3.77-.54.21-1.09.37-1.65.48-.57.11-1.06.16-1.47.16-1.78,0-3.12-.56-4.04-1.67-.91-1.11-1.37-2.63-1.37-4.55,0-1.32.27-2.56.81-3.72.54-1.16,1.32-2.1,2.34-2.8s2.22-1.06,3.6-1.06c.6,0,1.16.11,1.69.33ZM261.7,43.98c.6-.2,1.08-.45,1.43-.73s.57-.54.65-.78c.08-.25.13-.51.16-.79s.04-.61.04-.99v-1.3c0-.64-.15-1.25-.46-1.83-.31-.58-.72-1.04-1.23-1.39-.51-.35-1.04-.52-1.6-.52-.96,0-1.8.21-2.52.62s-1.27.99-1.65,1.72c-.38.73-.57,1.56-.57,2.5,0,.76.16,1.44.48,2.01.32.58.77,1.02,1.33,1.32.57.31,1.2.46,1.89.46.77,0,1.46-.1,2.06-.3Z"/>
    <path class="cls-4" d="M271.41,46.51c-.8-.36-1.21-1.05-1.21-2.06,0-.16.05-.36.15-.6.1-.24.22-.45.37-.62.15-.17.3-.26.45-.26.05,0,.17.08.37.25.26.31.51.54.75.7.24.16.52.26.83.31.31.05.72.08,1.24.08s1.08-.06,1.68-.19c.6-.13,1.11-.28,1.53-.45s.62-.31.62-.41c0-.25-.13-.46-.39-.63-.26-.17-.58-.29-.95-.39-.38-.09-.93-.21-1.67-.35-1.16-.21-2.12-.43-2.87-.66-.75-.23-1.4-.6-1.95-1.12-.55-.51-.83-1.21-.83-2.09,0-1.09.31-2.04.94-2.85.63-.82,1.42-1.44,2.39-1.88.97-.44,1.94-.66,2.93-.66.65,0,1.22.12,1.74.37.51.25.91.57,1.19.97.28.4.42.83.42,1.3,0,.75-.06,1.35-.18,1.83s-.4.71-.85.71c-.22,0-.36-.1-.43-.3s-.1-.5-.1-.92c0-.44-.18-.75-.54-.92s-.89-.25-1.61-.25c-.5,0-1.05.12-1.65.35-.61.24-1.12.54-1.55.92s-.64.77-.64,1.18.16.75.49,1.01c.33.26.74.46,1.22.59.49.14,1.16.29,2.01.45,1.05.2,1.9.4,2.55.59.64.2,1.19.51,1.65.93.45.42.68.98.68,1.69,0,.9-.36,1.64-1.09,2.23-.72.59-1.57,1.02-2.54,1.3-.97.27-1.8.41-2.51.41-.95,0-1.83-.18-2.64-.55Z"/>
    <path class="cls-4" d="M285.42,46.45c-.12,0-.23.02-.33.07-.1.05-.16.08-.19.08-.2.12-.4.18-.6.18-.47,0-.77-.24-.92-.71-.14-.48-.22-1.23-.22-2.26v-1.22l.25-15.41c0-.42.08-.76.23-.99.15-.24.43-.35.83-.35.13,0,.27.05.43.14.16.09.29.22.4.39.11.17.16.35.16.56,0,.84-.01,1.74-.04,2.69-.04,1.62-.06,3.13-.06,4.52.61-.35,1.19-.62,1.76-.82.57-.2,1.14-.3,1.71-.3,1.84,0,3.22.56,4.15,1.67.93,1.11,1.4,2.77,1.4,4.96,0,1.63-.38,2.98-1.14,4.05-.76,1.07-1.67,1.84-2.75,2.33-1.07.49-2.08.73-3.04.73-.67,0-1.35-.1-2.05-.31ZM285.38,42.9c.03.48.1.8.19.96.3.15.93.23,1.91.23.46,0,.97-.09,1.53-.28.56-.18,1.08-.43,1.57-.75.49-.32.85-.66,1.1-1.03.18-.31.32-.79.43-1.42.11-.64.16-1.24.16-1.82s-.21-1.1-.62-1.56c-.42-.47-.93-.83-1.53-1.1s-1.15-.4-1.65-.4c-.53,0-1.1.14-1.73.43-.62.29-1.08.62-1.37,1-.03.78-.04,1.77-.04,2.97,0,1.36.02,2.28.05,2.76Z"/>
    <path class="cls-4" d="M300.69,36.72c-.65.79-.98,2.01-.98,3.65v.5l.15,4.36c0,.16-.04.36-.11.59-.07.23-.19.43-.36.61-.16.17-.37.26-.63.26-.48,0-.8-.14-.98-.41s-.27-.72-.27-1.35c0-.42,0-.85.03-1.3,0-.15.01-.35.01-.59v-1.33c0-.53.03-1.26.08-2.18s.18-2.54.37-4.86c.03-.47.14-.84.33-1.12s.47-.41.83-.41c.2,0,.38.12.56.38.17.25.26.65.26,1.2,0,.84-.01,1.35-.04,1.54.2-.6.58-1.17,1.15-1.69.57-.52,1.19-.94,1.87-1.25.67-.31,1.26-.47,1.76-.47.81,0,1.53.15,2.16.45s.94.9.94,1.8c0,.28-.06.54-.19.78s-.3.42-.5.55c-.2.13-.41.2-.63.2-.19,0-.33-.03-.42-.1-.09-.07-.17-.17-.25-.31-.12-.22-.28-.38-.48-.5-.2-.12-.56-.18-1.07-.18h-.34c-1.51,0-2.59.4-3.24,1.19Z"/>
    <path class="cls-4" d="M320.4,43.7c.18.22.28.56.28,1.02,0,.89-.67,1.47-2.02,1.76-1.35.28-2.67.42-3.98.42-.98,0-1.93-.27-2.84-.81-.91-.54-1.65-1.28-2.22-2.22-.57-.93-.85-1.96-.85-3.07,0-1.6.27-3.01.82-4.23s1.34-2.18,2.39-2.87c1.05-.68,2.29-1.03,3.73-1.03.76,0,1.52.18,2.27.54.75.36,1.37.88,1.85,1.57s.73,1.5.73,2.44c0,.48-.07.88-.22,1.21-.15.33-.35.53-.61.62l-9.01,3.06c.31.93.93,1.54,1.88,1.83s1.99.42,3.14.42c.38,0,.75-.05,1.13-.16.38-.1.82-.25,1.34-.44.33-.12.6-.22.81-.28.21-.07.4-.1.56-.1.37,0,.64.11.83.33ZM313.12,39.12c.95-.36,2.17-.83,3.66-1.42,1-.4,1.69-.66,2.05-.79-.27-.55-.72-.95-1.35-1.2-.64-.25-1.37-.38-2.2-.38-.47,0-1.04.17-1.73.5-.68.33-1.32.85-1.89,1.55-.58.7-.94,1.56-1.09,2.58.75-.2,1.59-.48,2.55-.84Z"/>
    <path class="cls-4" d="M325.48,36.64c.43,1.39.82,2.6,1.19,3.62s.83,2.14,1.38,3.34c.17-.17.52-.78,1.06-1.82.54-1.04,1.45-2.98,2.74-5.8.64-1.2,1.12-2.05,1.45-2.54.33-.5.6-.74.82-.74.26,0,.46.15.61.45.15.3.22.66.22,1.1,0,.19-.04.4-.13.64-.09.24-.27.62-.54,1.15-.27.53-.62,1.17-1.03,1.93l-.55,1.01c-2.37,5.37-4.06,8.06-5.06,8.06-.57,0-1.22-.96-1.97-2.87-.74-1.92-1.58-4.49-2.52-7.72-.32-.69-.48-1.3-.48-1.84,0-.42.05-.77.15-1.05.1-.27.31-.41.62-.41.41,0,.7.11.88.33.18.22.35.61.52,1.17l.64,2Z"/>
  </g>
</svg>