<?xml version="1.0" encoding="UTF-8"?>
<svg id="Layer_1" xmlns="http://www.w3.org/2000/svg" viewBox="0 0 442.05 75.6">
  <defs>
    <style>
      .cls-1 {
        fill: none;
        stroke: #231f20;
      }

      .cls-1, .cls-2 {
        stroke-miterlimit: 10;
        stroke-width: 2px;
      }

      .cls-2 {
        fill: #263779;
        stroke: #010101;
      }

      .cls-3 {
        fill: #eaa294;
      }

      .cls-4 {
        fill: #ededed;
      }

      .cls-5 {
        fill: #c18678;
      }
    </style>
  </defs>
  <path class="cls-2" d="M437.38,1.81l-.08,72.12-343.67-.32c-2.12,0-4.22-.39-6.21-1.14L3.7,40.77c-2.98-1.13-2.97-5.49,0-6.62L88.04,2.42c1.63-.61,3.35-.93,5.08-.92l344.26.32Z"/>
  <path class="cls-5" d="M62.37,23.25c-1.42.77-2.22,1.97-2.72,3.3-.23.16-.45.34-.67.52-1.42-.09-2.87.18-4.07.84-.46.25-.86.55-1.23.87-.91-.03-1.84.06-2.75.32-4.87,1.33-5.93,5.96-5.05,9.93.79,3.6,3.34,7.39,6.99,9.19.74.37,1.56.67,2.41.87,1.49,1.87,3.83,3.1,6.84,2.99,2.91-.1,5.75-1.48,7.81-3.49.52.11,1.05.19,1.62.21,5.66.15,7.89-5,7.15-9.37.13-2.1-.82-4.25-2.37-5.79-.17-.17-.35-.31-.54-.46.65-.98.78-2.25.04-3.26-.31-.43-.66-.83-1.02-1.21,0,0,0,0,0,0-.34-.43-.68-.86-1.03-1.28-.82-.99-1.66-1.99-2.68-2.82-2.38-1.92-5.77-2.95-8.72-1.35Z"/>
  <path class="cls-3" d="M99.8,3.01c-1.01.12-1.79.55-2.52,1.16-.05.04-.35.3-.57.51-.27.04-.55.16-.81.21-.33.07-.67.12-1.01.17-.11.01-.4.05-.5.06-1.52.16-3.08.28-4.53.73-1.65.52-2.79,1.4-4.16,2.31.39-.26-.57.32-.54.3-.29.16-.58.3-.88.44-.45.22-.91.42-1.37.62-.32,0-.65,0-.99.05-1.34.2-2.56.79-3.7,1.43-.53-.11-1.09-.11-1.64.08-.75.25-1.49.53-2.22.81-.27.1-.55.21-.82.31-.12.05-.97.44-.24.09-.51.25-1.12.4-1.66.56-.28.08-.56.14-.84.22-.02,0-.03,0-.05.02-1.8.03-3.19.77-4.4,1.91-.01.01-.02.02-.03.03-.78.22-1.54.46-2.29.76-.28.11-.54.25-.8.39-1.86.15-3.75.17-5.51.77-.96.33-1.91.74-2.8,1.22-.08-.02-.14-.05-.22-.06-1.43-.23-2.64-.05-3.91.61-.74.38-1.47.77-2.23,1.11-.2.09-.4.17-.6.26-.03.01-.24.09-.36.14-.13.04-.31.1-.34.11-.22.07-.44.14-.67.21-.93.29-1.86.55-2.8.81-2.04.55-3.98,1.3-5.93,2.06-.44.17-.88.34-1.31.51-.27.1-.54.21-.81.32-.03.01-.25.09-.37.14-.12.04-.36.13-.39.14-.21.07-.41.13-.62.2-.58.18-1.18.38-1.72.65-.07.04-.14.09-.21.13-1.07-.48-2.37-.52-3.42.08-1.63.94-2.35,2.89-1.31,4.45.54.81.94,1.55,1.66,2.27.1.1.2.19.3.29.01.02.02.03.04.05.04.08.07.13.1.17.05.13.1.26.14.4.04.13.15.9.16.8.02.33.04.66.04.99,0,.39-.02.79-.05,1.18-.01.19-.03.38-.05.57,0,.06-.01.1-.02.14,0,.05-.03.13-.05.28-.04.21-.09.42-.15.62-.1.42-.22.83-.34,1.25-.22.84-.36,1.69-.55,2.53-.09.42-.23.83-.35,1.25-.01.03-.02.04-.03.06-.06.1-.11.2-.17.29-.03.04-.06.08-.09.12-1.84.31-3.03,2.45-2.48,3.98.66,1.82,2.44,2.57,4.45,2.27.46-.07.89-.21,1.3-.38.22.21.47.4.78.54,2.05.96,4.2,1.32,6.42,1.81.48.1.95.25,1.43.36,0,0,.01.01.02.02.14.11.36.22.52.3.02,0,.02,0,.03.02.15.11.31.22.46.33.52.37,1.04.76,1.6,1.08,1.79,1.02,4.01,1.06,5.96,1.73,1.22.42,2.49.78,3.77,1.09.65.78,1.65,1.3,2.85,1.31,1.04.01,1.45.07,2.47.23.81.12,1.62.22,2.43.32.25.26.55.5.92.65.61.25,1.1.63,1.65.96.74.45,1.6.76,2.44,1.04,1.4.47,2.88.69,4.29,1.1,3.03.86,5.92,2.08,8.95,2.94,0,0,0,0,0,0,.07.05.14.11.22.16,1.3.85,2.8,1.25,4.25,1.82,1.67.66,3.25,1.46,4.95,2.06,1.71.6,3.5.95,5.22,1.51,3.09,1,5.96,2.35,9.25,2.78,2.37.31,5.1.49,7.41-.3,3.33.48,6.43-.47,9.6-1.31.48-.13.96-.29,1.44-.44,2.76.48,5.02-.39,7.55-1.41,2.27-.92,5.01-1.13,6.46-3.19,1.08-1.53,1-3.41.84-5.14-.24-2.75-2.18-4.39-4.95-5.31-2.27-.76-4.54-1.47-6.79-2.27-2.03-.73-3.83-1.77-5.8-2.6-2.33-.97-4.85-1.36-7.37-1.76-.67-.1-1.34-.21-2.01-.3,1.18-.22,2.33-.52,3.51-.78.24.05.49.07.74.07,1.28,0,2.52-.02,3.79-.2.41-.06.82-.16,1.22-.28.09.03.16.07.25.09,1.51.37,3.29.24,4.76-.22,1.46-.46,2.63-1.31,3.99-1.92.03-.01.03-.02.05-.03.02,0,.03,0,.06-.02.16-.06.33-.12.49-.17.33-.12.66-.23.99-.35.89-.32,1.79-.65,2.65-1.04,1.47-.68,2.71-1.56,3.52-2.87.82-1.32,1.24-2.75.76-4.16-.04-1.06-.3-2.1-.85-2.89-1.12-1.64-3-2.34-4.85-3.09-.26-.21-.51-.43-.78-.63-.76-.56-1.63-.88-2.51-.91-.13-.08-.28-.14-.41-.22-.89-.57-1.8-1.41-2.87-1.93-2.16-1.04-4.54-1.47-6.92-1.9-1.1-.2-2.22-.39-3.35-.56.52-.52.78-1.09.85-1.66,3.74-.15,7.54-.63,11.17-1.38,3.59-.74,7.28-2.22,9.34-5.11,2.46-3.45.64-7.28-2.89-9.38-.17-.1-.36-.18-.54-.27-.48-1.07-1.53-1.92-3.19-1.95-2.79-.05-5.72-.76-8.41-1.09-2.84-.34-5.73-1.04-8.69-1.11-2.77-.06-5.77-.33-8.54.03-.68-.34-1.48-.5-2.38-.39Z"/>
  <path class="cls-1" d="M24.03,47.32c6.71-5.41,7.5-14.42,1.76-20.14"/>
  <g>
    <path class="cls-1" d="M101.56,2.43c26.8.03,35.33,4.83,34.91,11.74"/>
    <path class="cls-1" d="M104.15,24.53c17.86.02,32.31-4.61,32.32-10.35"/>
  </g>
  <g>
    <path class="cls-1" d="M104.17,24.51c17.85.02,32.29,6.25,32.28,13.92"/>
    <path class="cls-1" d="M104.12,49.81c17.85.02,32.31-5.06,32.32-11.38"/>
  </g>
  <g>
    <path class="cls-1" d="M104.13,49.81c17.86.02,32.3,5.89,32.28,13.1"/>
    <path class="cls-1" d="M102.37,72.92c18.5,1.84,34.04-4.06,34.05-10"/>
  </g>
  <line class="cls-1" x1="13.97" y1="44.03" x2="102.37" y2="72.92"/>
  <line class="cls-1" x1="14.81" y1="30.66" x2="102.45" y2="2.14"/>
  <g>
    <path class="cls-4" d="M189.91,30.46c.55-.1.97-.16,1.27-.16.22,0,.45.09.68.28s.44.42.6.71c.16.28.24.56.24.82,0,.48-.08.85-.25,1.1-.17.25-.45.38-.83.38-.15,0-.77-.14-1.88-.41-.07,0-.42.03-1.06.08-.64.06-2.18.08-4.62.08-.58,0-.91-.03-1.01-.08-.1.9-.15,2.23-.16,4.01,0,.05.23.07.67.07.34,0,.73-.01,1.18-.04.45-.03.75-.06.89-.1l2.8-.4c.29-.09.58-.14.89-.14.58,0,.88.46.88,1.39,0,.44-.06.77-.19.98-.12.21-.3.35-.52.42-.22.07-.57.13-1.05.18l-.36.04-3.08.35c-.18.02-.51.05-.98.11-.48.05-.85.08-1.12.08l.06,5.24c0,1.32-.34,1.98-1.03,1.98-.49,0-.83-.18-1.03-.53-.2-.35-.3-.85-.3-1.48,0-.31.04-.71.1-1.19.04-.3.06-.51.06-.64l.15-10.01c0-.81.09-1.58.26-2.32.17-.73.5-1.1.99-1.1.24,0,.62.05,1.13.14.52.09.9.14,1.15.14h5.48Z"/>
    <path class="cls-4" d="M205.7,44.4c.18.22.28.56.28,1.02,0,.89-.67,1.47-2.02,1.76-1.35.28-2.67.42-3.98.42-.98,0-1.93-.27-2.84-.81-.91-.54-1.65-1.28-2.22-2.22-.57-.93-.85-1.96-.85-3.07,0-1.6.27-3.01.82-4.23s1.34-2.18,2.39-2.87c1.05-.68,2.29-1.03,3.73-1.03.76,0,1.52.18,2.27.54.75.36,1.37.88,1.85,1.57s.73,1.5.73,2.44c0,.48-.07.88-.22,1.21-.15.33-.35.53-.61.62l-9.01,3.06c.31.93.93,1.54,1.88,1.83s1.99.42,3.14.42c.38,0,.75-.05,1.13-.16.38-.1.82-.25,1.34-.44.33-.12.6-.22.81-.28.21-.07.4-.1.56-.1.37,0,.64.11.83.33ZM198.42,39.81c.95-.36,2.17-.83,3.66-1.42,1-.4,1.69-.66,2.05-.79-.27-.55-.72-.95-1.35-1.2-.64-.25-1.37-.38-2.2-.38-.47,0-1.04.17-1.73.5-.69.33-1.32.85-1.89,1.55-.58.7-.94,1.56-1.09,2.58.75-.2,1.59-.48,2.55-.84Z"/>
    <path class="cls-4" d="M212.29,37.42c-.65.79-.98,2.01-.98,3.65v.5l.15,4.36c0,.16-.04.36-.11.59-.07.23-.19.43-.36.61-.16.17-.38.26-.63.26-.48,0-.8-.14-.98-.41s-.27-.72-.27-1.35c0-.42,0-.85.03-1.3,0-.15.01-.35.01-.59v-1.33c0-.53.03-1.26.08-2.18.05-.93.18-2.54.36-4.86.03-.47.14-.84.33-1.12.19-.27.47-.41.83-.41.2,0,.38.12.56.38.17.25.26.65.26,1.2,0,.84-.01,1.35-.04,1.54.2-.6.58-1.17,1.15-1.69.57-.52,1.19-.94,1.87-1.25s1.26-.47,1.76-.47c.81,0,1.53.15,2.16.45.63.3.94.9.94,1.8,0,.28-.06.54-.19.78s-.3.42-.5.55c-.2.13-.42.2-.63.2-.19,0-.33-.03-.42-.1-.09-.07-.17-.17-.25-.31-.12-.22-.28-.38-.48-.5-.2-.12-.56-.18-1.06-.18h-.34c-1.51,0-2.59.4-3.24,1.19Z"/>
    <path class="cls-4" d="M223.31,47.23c-.21.27-.44.41-.7.41-.37,0-.66-.11-.87-.33-.21-.22-.38-.59-.48-1.11-.08-.45-.12-1.42-.12-2.9,0-2.45.1-4.68.31-6.68.2-2,.67-2.99,1.39-2.99.3,0,.49.12.59.38.09.25.14.61.14,1.08l-.12,1.98c-.05.67-.09,1.37-.13,2.11-.04.74-.06,1.39-.06,1.97,0,.61.06,1.47.19,2.58.12,1.15.18,1.95.18,2.39,0,.47-.1.84-.31,1.12ZM223.07,30.7c-.41,0-.79-.11-1.14-.34s-.53-.62-.53-1.19c0-.28.08-.57.25-.86s.37-.53.61-.72.47-.28.69-.28c.41,0,.76.12,1.06.37s.45.67.45,1.26c0,1.18-.46,1.77-1.38,1.77Z"/>
    <path class="cls-4" d="M237.94,44.4c.18.22.28.56.28,1.02,0,.89-.67,1.47-2.02,1.76-1.35.28-2.67.42-3.98.42-.98,0-1.93-.27-2.84-.81-.91-.54-1.65-1.28-2.22-2.22-.57-.93-.85-1.96-.85-3.07,0-1.6.27-3.01.82-4.23s1.34-2.18,2.39-2.87c1.05-.68,2.29-1.03,3.73-1.03.76,0,1.52.18,2.27.54.75.36,1.37.88,1.85,1.57s.73,1.5.73,2.44c0,.48-.07.88-.22,1.21-.15.33-.35.53-.61.62l-9.01,3.06c.31.93.93,1.54,1.88,1.83s1.99.42,3.14.42c.38,0,.75-.05,1.13-.16.38-.1.82-.25,1.34-.44.33-.12.6-.22.81-.28.21-.07.4-.1.56-.1.37,0,.64.11.83.33ZM230.65,39.81c.95-.36,2.17-.83,3.66-1.42,1-.4,1.69-.66,2.05-.79-.27-.55-.72-.95-1.35-1.2-.64-.25-1.37-.38-2.2-.38-.47,0-1.04.17-1.73.5-.69.33-1.32.85-1.89,1.55-.58.7-.94,1.56-1.09,2.58.75-.2,1.59-.48,2.55-.84Z"/>
    <path class="cls-4" d="M249.79,46.6c-.92-.7-1.66-1.58-2.21-2.65-.55-1.07-.83-2.13-.83-3.17,0-1.64.3-3,.9-4.06.6-1.07,1.38-1.84,2.34-2.33.96-.49,1.99-.73,3.1-.73,1.18,0,2.2.29,3.05.87.85.58,1.51,1.41,1.96,2.48.45,1.07.68,2.33.68,3.77,0,1.31-.29,2.49-.86,3.54s-1.32,1.86-2.25,2.45c-.93.59-1.91.88-2.94.88s-2.03-.35-2.95-1.05ZM256.39,38.41c-.29-.65-.7-1.16-1.21-1.52-.52-.36-1.09-.55-1.73-.55-.78,0-1.54.16-2.28.47-.73.32-1.33.79-1.8,1.41s-.7,1.37-.7,2.25c0,.74.19,1.46.57,2.16.38.7.87,1.27,1.47,1.71.61.44,1.23.66,1.88.66.73,0,1.43-.17,2.08-.52.65-.35,1.17-.85,1.57-1.51.4-.66.6-1.43.6-2.33,0-.84-.15-1.59-.44-2.24Z"/>
    <path class="cls-4" d="M269.55,50.73c.25-.41.42-.9.51-1.48.09-.58.17-1.34.24-2.29.04-.66.08-1.15.12-1.46-.11.42-.38.8-.8,1.13s-.91.58-1.47.76c-.56.17-1.07.26-1.55.26-1.79,0-3.14-.52-4.07-1.56-.93-1.04-1.39-2.59-1.39-4.65,0-1.34.21-2.6.63-3.77s1.05-2.11,1.9-2.83,1.89-1.08,3.13-1.08c.97,0,1.92.31,2.84.93.92.62,1.67,1.38,2.24,2.29.57.91.86,1.78.86,2.6l-.28,6.7v.2c-.06.25-.14.84-.25,1.74-.16,1.27-.34,2.31-.54,3.09-.2.79-.56,1.46-1.09,2.02s-1.29.84-2.27.84c-.39,0-.89-.06-1.5-.19-.62-.13-1.17-.34-1.66-.64-.49-.3-.74-.7-.74-1.2,0-.47.07-.83.2-1.08.13-.25.38-.37.74-.37.09,0,.17.01.25.04s.15.07.22.11c.25.15.56.27.92.37s.95.14,1.76.14c.47,0,.82-.21,1.07-.62ZM268.63,44.37c.52-.42.95-.95,1.3-1.56.35-.62.6-1.23.76-1.83-.11-.82-.28-1.55-.5-2.19-.22-.64-.58-1.18-1.07-1.63s-1.15-.67-1.99-.67c-1.36,0-2.35.44-2.96,1.33-.62.89-.93,2.03-.95,3.43,0,1.39.32,2.36.97,2.92.65.56,1.56.84,2.75.84.62,0,1.18-.21,1.7-.64Z"/>
    <path class="cls-4" d="M287.47,44.49c.14.26.22.58.22.93s-.12.7-.35,1.01-.52.54-.86.71-.64.25-.91.25c-.97,0-1.68-.3-2.13-.89-.45-.59-.67-1.47-.65-2.62l.19-15.53c0-.62.09-1.13.27-1.51.18-.38.46-.57.83-.57.25,0,.45.14.62.42.16.28.25.58.25.9l-.19,13.61v.48c0,.89.07,1.62.2,2.21s.35.88.65.88c.13,0,.24-.03.33-.08.09-.06.19-.14.31-.25s.22-.2.31-.25c.08-.05.19-.08.3-.08.27,0,.47.13.62.4Z"/>
    <path class="cls-4" d="M291.84,36.76c-.14.71-.24,1.3-.31,1.78-.07.48-.1.96-.1,1.44,0,.69.08,1.41.22,2.17.15.76.43,1.43.85,2,.42.57,1,.86,1.74.86.92,0,1.69-.24,2.3-.71s1.18-1.13,1.72-1.97c.02-.25.07-1.16.16-2.75l.03-.71.04-3.95c0-.41.12-.71.36-.91s.49-.3.75-.3c.23,0,.43.1.62.3s.28.47.28.82l-.24,11.27c-.01.53-.08.89-.22,1.07-.14.18-.38.28-.73.28-.3,0-.52-.05-.68-.15-.15-.1-.27-.31-.33-.62-.07-.32-.1-.81-.1-1.48,0-.48,0-.87.03-1.18-.17.69-.46,1.32-.87,1.88s-.88,1.01-1.41,1.33c-.53.32-1.04.48-1.55.48-1.96,0-3.27-.75-3.95-2.26-.68-1.51-1.01-3.23-1.01-5.16,0-.98.06-1.98.18-2.98.12-1,.32-1.86.6-2.56s.65-1.05,1.11-1.05c.55,0,.82.33.82,1.01,0,.39-.1,1.06-.3,2.02Z"/>
    <path class="cls-4" d="M304.69,27.85c0-.26.07-.5.19-.72s.26-.39.43-.51.34-.18.5-.18c.13,0,.27.06.43.18.16.12.29.29.4.51.11.22.16.48.16.77,0,1.51-.08,3.55-.25,6.12-.09,1.39-.16,2.57-.2,3.55-.04.98-.07,1.99-.07,3.02v.2l5.79-7.19c.15-.22.31-.4.5-.54.18-.14.36-.21.53-.21.42,0,.71.1.86.3.16.2.24.53.24.98v.14c0,.37-.23.8-.7,1.29-.47.49-1.14,1.11-2.01,1.87l-.77.68c.14.3.28.64.43,1.03.15.38.25.64.3.77.32.87.61,1.58.88,2.14.24.53.49,1.01.74,1.43.22.34.44.76.67,1.25.02.05.07.16.14.34.08.18.15.37.22.58.07.21.1.37.1.48,0,.45-.13.84-.4,1.15-.27.31-.58.47-.94.47-.23,0-.42-.09-.57-.27-.15-.18-.28-.46-.38-.84,0,.04-.2-.41-.59-1.35-.39-.93-1.12-2.77-2.2-5.49l-2.84,3.27c0,.59,0,1.04.01,1.36l.02,1.52c0,.38-.11.74-.34,1.08-.22.34-.5.51-.84.51-.26,0-.47-.08-.64-.25s-.29-.37-.37-.6c-.08-.23-.12-.44-.12-.63v-1.19c.02-.49.07-1.06.16-1.7.05-.3.08-.6.09-.91l.43-14.39Z"/>
    <path class="cls-4" d="M318,27.85c0-.26.07-.5.19-.72s.26-.39.43-.51.34-.18.5-.18c.13,0,.27.06.43.18.16.12.29.29.4.51.11.22.16.48.16.77,0,1.51-.08,3.55-.25,6.12-.09,1.39-.16,2.57-.2,3.55-.04.98-.07,1.99-.07,3.02v.2l5.79-7.19c.15-.22.31-.4.5-.54.18-.14.36-.21.53-.21.42,0,.71.1.86.3.16.2.24.53.24.98v.14c0,.37-.23.8-.7,1.29-.47.49-1.14,1.11-2.01,1.87l-.77.68c.14.3.28.64.43,1.03.15.38.25.64.3.77.32.87.61,1.58.88,2.14.24.53.49,1.01.74,1.43.22.34.44.76.67,1.25.02.05.07.16.14.34.08.18.15.37.22.58.07.21.1.37.1.48,0,.45-.13.84-.4,1.15-.27.31-.58.47-.94.47-.23,0-.42-.09-.57-.27-.15-.18-.28-.46-.38-.84,0,.04-.2-.41-.59-1.35-.39-.93-1.12-2.77-2.2-5.49l-2.84,3.27c0,.59,0,1.04.01,1.36l.02,1.52c0,.38-.11.74-.34,1.08-.22.34-.5.51-.84.51-.26,0-.47-.08-.64-.25s-.29-.37-.37-.6c-.08-.23-.12-.44-.12-.63v-1.19c.02-.49.07-1.06.16-1.7.05-.3.08-.6.09-.91l.43-14.39Z"/>
    <path class="cls-4" d="M341.45,44.4c.18.22.28.56.28,1.02,0,.89-.67,1.47-2.02,1.76-1.35.28-2.67.42-3.98.42-.98,0-1.93-.27-2.84-.81-.91-.54-1.65-1.28-2.22-2.22-.57-.93-.85-1.96-.85-3.07,0-1.6.27-3.01.82-4.23s1.34-2.18,2.39-2.87c1.05-.68,2.29-1.03,3.73-1.03.76,0,1.52.18,2.27.54.75.36,1.37.88,1.85,1.57s.73,1.5.73,2.44c0,.48-.07.88-.22,1.21-.15.33-.35.53-.61.62l-9.01,3.06c.31.93.93,1.54,1.88,1.83s1.99.42,3.14.42c.38,0,.75-.05,1.13-.16.38-.1.82-.25,1.34-.44.33-.12.6-.22.81-.28.21-.07.4-.1.56-.1.37,0,.64.11.83.33ZM334.16,39.81c.95-.36,2.17-.83,3.66-1.42,1-.4,1.69-.66,2.05-.79-.27-.55-.72-.95-1.35-1.2-.64-.25-1.37-.38-2.2-.38-.47,0-1.04.17-1.73.5-.68.33-1.32.85-1.89,1.55-.58.7-.94,1.56-1.09,2.58.75-.2,1.59-.48,2.55-.84Z"/>
    <path class="cls-4" d="M352.53,34.01c.53.22.96.52,1.3.92s.54.85.6,1.36l.03-4.06.03-4.04c0-.99.38-1.49,1.13-1.49.29,0,.5.13.62.4s.19.58.19.95l-.02,2.1-.03,2.14-.18,8.99-.06,2.45c0,1.26-.1,2.2-.26,2.84-.16.64-.5.96-1,.96-.2,0-.37-.12-.51-.37-.14-.25-.3-.6-.48-1.08-.33.3-.76.56-1.29.77-.54.21-1.09.37-1.65.48-.57.11-1.06.16-1.47.16-1.78,0-3.12-.56-4.04-1.67s-1.37-2.63-1.37-4.55c0-1.32.27-2.56.81-3.72s1.32-2.1,2.35-2.8,2.22-1.06,3.6-1.06c.6,0,1.16.11,1.69.33ZM351.92,44.68c.6-.2,1.08-.45,1.43-.73.35-.28.57-.54.65-.78.08-.25.13-.51.16-.79.02-.28.04-.61.04-.99v-1.3c0-.64-.15-1.25-.46-1.83s-.72-1.04-1.23-1.39c-.51-.35-1.04-.52-1.6-.52-.96,0-1.8.21-2.52.62-.72.42-1.27.99-1.65,1.72-.38.73-.57,1.56-.57,2.5,0,.76.16,1.44.48,2.01.32.58.77,1.02,1.33,1.32.57.31,1.2.46,1.89.46.77,0,1.46-.1,2.06-.3Z"/>
    <path class="cls-4" d="M373.59,44.52c.13.19.2.49.2.91,0,.32-.09.64-.28.96-.19.32-.45.59-.77.79-.33.21-.69.31-1.09.31s-.78-.13-1.17-.4c-.39-.27-.71-.62-.96-1.06-.25-.44-.37-.89-.37-1.35-.75.9-1.52,1.62-2.32,2.16-.8.54-1.65.81-2.55.81-.82,0-1.66-.25-2.51-.76s-1.55-1.2-2.09-2.06c-.55-.86-.82-1.8-.82-2.8,0-1.35.32-2.67.97-3.96s1.51-2.35,2.6-3.16,2.26-1.22,3.52-1.22c.95,0,1.84.27,2.66.82.82.55,1.47,1.25,1.95,2.12.48.86.72,1.74.72,2.63,0,.38-.03.76-.09,1.13s-.09.61-.1.71c-.08.44-.14.84-.18,1.18s-.06.71-.06,1.1c0,.56.09.96.26,1.2.17.24.43.36.78.36.09,0,.18-.03.28-.1.09-.07.21-.16.33-.28.02-.02.08-.07.17-.15.09-.08.18-.13.26-.16.31,0,.53.09.66.28ZM367.44,44.01c.63-.61,1.07-1.31,1.3-2.1.23-.79.45-1.81.65-3.08,0-.29-.18-.63-.55-1.01s-.81-.7-1.32-.98c-.51-.27-.97-.41-1.38-.41-1.02,0-1.94.27-2.74.81-.8.54-1.43,1.24-1.87,2.09-.44.85-.66,1.71-.66,2.59,0,.58.19,1.09.57,1.55.38.46.87.81,1.47,1.07s1.21.38,1.84.38c1.16,0,2.06-.31,2.7-.92Z"/>
    <path class="cls-4" d="M382.9,50.73c.25-.41.42-.9.51-1.48.09-.58.17-1.34.24-2.29.04-.66.08-1.15.12-1.46-.11.42-.38.8-.8,1.13s-.91.58-1.47.76c-.56.17-1.07.26-1.55.26-1.79,0-3.14-.52-4.07-1.56-.93-1.04-1.39-2.59-1.39-4.65,0-1.34.21-2.6.63-3.77s1.05-2.11,1.9-2.83,1.89-1.08,3.13-1.08c.97,0,1.92.31,2.84.93.92.62,1.67,1.38,2.24,2.29.57.91.86,1.78.86,2.6l-.28,6.7v.2c-.06.25-.14.84-.25,1.74-.16,1.27-.34,2.31-.54,3.09-.2.79-.56,1.46-1.09,2.02s-1.29.84-2.27.84c-.39,0-.89-.06-1.5-.19-.62-.13-1.17-.34-1.66-.64-.49-.3-.74-.7-.74-1.2,0-.47.07-.83.2-1.08.13-.25.38-.37.74-.37.09,0,.17.01.25.04s.15.07.22.11c.25.15.56.27.92.37.37.09.95.14,1.76.14.47,0,.82-.21,1.07-.62ZM381.98,44.37c.52-.42.95-.95,1.3-1.56.35-.62.6-1.23.76-1.83-.11-.82-.28-1.55-.5-2.19s-.58-1.18-1.07-1.63-1.15-.67-1.99-.67c-1.36,0-2.35.44-2.96,1.33-.62.89-.93,2.03-.95,3.43,0,1.39.32,2.36.97,2.92.65.56,1.56.84,2.75.84.62,0,1.18-.21,1.7-.64Z"/>
    <path class="cls-4" d="M400.35,44.4c.18.22.28.56.28,1.02,0,.89-.67,1.47-2.02,1.76-1.35.28-2.67.42-3.98.42-.98,0-1.93-.27-2.84-.81-.91-.54-1.65-1.28-2.22-2.22-.57-.93-.85-1.96-.85-3.07,0-1.6.27-3.01.82-4.23s1.34-2.18,2.39-2.87c1.05-.68,2.29-1.03,3.73-1.03.76,0,1.52.18,2.27.54.75.36,1.37.88,1.85,1.57s.73,1.5.73,2.44c0,.48-.07.88-.22,1.21-.15.33-.35.53-.61.62l-9.01,3.06c.31.93.93,1.54,1.88,1.83s1.99.42,3.14.42c.38,0,.75-.05,1.13-.16.38-.1.82-.25,1.34-.44.33-.12.6-.22.81-.28.21-.07.4-.1.56-.1.37,0,.64.11.83.33ZM393.06,39.81c.95-.36,2.17-.83,3.66-1.42,1-.4,1.69-.66,2.05-.79-.27-.55-.72-.95-1.35-1.2-.64-.25-1.37-.38-2.2-.38-.47,0-1.04.17-1.73.5-.68.33-1.32.85-1.89,1.55-.58.7-.94,1.56-1.09,2.58.75-.2,1.59-.48,2.55-.84Z"/>
  </g>
</svg>