<?xml version="1.0" encoding="UTF-8"?>
<svg id="Layer_1" xmlns="http://www.w3.org/2000/svg" viewBox="0 0 439.94 74.94">
  <defs>
    <style>
      .cls-1 {
        fill: none;
      }

      .cls-1, .cls-2 {
        stroke: #231f20;
        stroke-miterlimit: 10;
        stroke-width: 2px;
      }

      .cls-2 {
        fill: #a42739;
      }

      .cls-3 {
        fill: #eaa294;
      }

      .cls-4 {
        fill: #ededed;
      }

      .cls-5 {
        fill: #c18678;
      }
    </style>
  </defs>
  <g>
    <path class="cls-2" d="M438.35,1.49l-.1,71.92-344.29-.53c-2.12,0-4.22-.39-6.22-1.14L3.88,40.09c-2.98-1.13-2.98-5.48,0-6.6L88.38,1.88c1.63-.61,3.35-.92,5.09-.92l344.88.53Z"/>
    <path class="cls-5" d="M54.42,22.63c-1.23.77-1.93,1.96-2.36,3.29-.2.16-.39.34-.58.51-1.23-.09-2.49.18-3.53.83-.4.25-.74.55-1.07.86-.79-.03-1.59.06-2.39.31-4.22,1.33-5.14,5.94-4.38,9.91.69,3.59,2.89,7.37,6.05,9.17.64.37,1.35.66,2.09.87,1.29,1.87,3.31,3.09,5.93,2.99,2.53-.1,4.98-1.47,6.77-3.48.45.11.91.19,1.4.21,4.9.16,6.84-4.98,6.2-9.34.11-2.09-.71-4.24-2.05-5.78-.15-.17-.31-.31-.46-.46.56-.98.68-2.24.04-3.25-.27-.43-.57-.82-.88-1.2,0,0,0,0,0,0-.3-.43-.59-.86-.9-1.28-.71-.98-1.43-1.99-2.32-2.81-2.06-1.91-4.99-2.94-7.55-1.35Z"/>
    <path class="cls-3" d="M86.85,2.46c-.87.12-1.55.55-2.18,1.16-.04.04-.3.3-.5.51-.23.04-.47.15-.7.21-.29.07-.58.12-.88.17-.1.01-.34.05-.43.06-1.31.16-2.66.27-3.92.73-1.43.51-2.42,1.39-3.61,2.31.34-.26-.49.31-.46.3-.25.16-.51.3-.76.44-.39.21-.79.42-1.19.62-.28-.01-.57,0-.86.05-1.16.2-2.22.78-3.21,1.43-.46-.11-.94-.11-1.42.08-.65.25-1.29.53-1.93.81-.24.1-.47.21-.71.31-.1.05-.84.44-.2.09-.44.24-.97.4-1.44.56-.24.08-.48.14-.73.22-.02,0-.03,0-.04.02-1.56.03-2.76.77-3.81,1.91,0,.01-.02.02-.03.03-.67.22-1.33.46-1.99.76-.24.11-.47.25-.7.39-1.61.14-3.25.17-4.78.76-.83.33-1.65.73-2.43,1.21-.07-.02-.12-.05-.19-.06-1.24-.23-2.29-.05-3.38.6-.64.38-1.27.76-1.93,1.1-.17.09-.35.17-.52.26-.03.01-.21.09-.31.14-.11.04-.27.1-.29.11-.19.07-.39.14-.58.21-.8.29-1.61.55-2.43.81-1.77.55-3.45,1.29-5.14,2.05-.38.17-.76.34-1.14.5-.23.1-.47.21-.7.32-.03.01-.21.09-.32.14-.11.04-.31.13-.34.14-.18.07-.36.13-.54.2-.51.18-1.02.38-1.49.65-.06.04-.12.09-.18.13-.92-.48-2.05-.52-2.96.08-1.41.94-2.04,2.88-1.13,4.43.47.81.82,1.54,1.44,2.27.09.1.17.19.26.29.01.02.02.03.03.05.04.08.06.13.08.17.04.13.09.26.12.4.03.13.13.9.14.8.02.33.04.65.04.98,0,.39-.02.79-.04,1.18-.01.19-.03.38-.04.57,0,.06,0,.1-.01.14,0,.05-.02.13-.05.28-.04.21-.08.42-.13.62-.09.42-.19.83-.29,1.24-.19.84-.31,1.68-.48,2.52-.08.42-.2.83-.31,1.25-.01.03-.01.04-.02.06-.05.1-.1.2-.15.29-.02.04-.05.08-.08.12-1.6.31-2.62,2.44-2.15,3.97.57,1.82,2.12,2.56,3.86,2.27.4-.07.77-.2,1.13-.38.19.21.41.4.68.54,1.78.96,3.64,1.32,5.56,1.8.42.1.82.25,1.24.36,0,0,0,.01.02.02.12.11.31.22.45.3.01,0,.02,0,.03.02.13.11.27.22.4.33.45.37.9.76,1.38,1.08,1.55,1.02,3.47,1.06,5.16,1.73,1.05.42,2.15.77,3.26,1.09.56.78,1.43,1.29,2.46,1.31.9.01,1.26.08,2.14.23.7.12,1.4.22,2.11.32.22.26.47.49.79.65.52.25.95.63,1.43.96.64.45,1.39.76,2.11,1.03,1.21.46,2.49.69,3.72,1.09,2.63.86,5.13,2.08,7.75,2.94,0,0,0,0,0,0,.06.05.12.11.19.16,1.13.85,2.42,1.24,3.68,1.82,1.44.66,2.82,1.46,4.29,2.05,1.48.6,3.03.95,4.52,1.51,2.68,1,5.16,2.35,8.01,2.78,2.06.31,4.41.49,6.42-.3,2.88.48,5.57-.47,8.32-1.31.42-.13.83-.29,1.24-.44,2.39.48,4.35-.39,6.54-1.41,1.96-.91,4.34-1.13,5.6-3.17.94-1.52.86-3.4.73-5.12-.21-2.74-1.89-4.37-4.28-5.3-1.97-.76-3.94-1.46-5.89-2.27-1.76-.73-3.32-1.77-5.03-2.59-2.02-.97-4.2-1.36-6.38-1.75-.58-.1-1.16-.21-1.74-.3,1.02-.22,2.02-.52,3.04-.77.21.05.42.07.64.07,1.11,0,2.18-.01,3.28-.2.36-.06.71-.16,1.06-.28.08.03.14.07.22.09,1.31.37,2.85.24,4.13-.22,1.26-.46,2.28-1.31,3.46-1.92.02-.01.03-.02.05-.02.02,0,.03,0,.05-.02.14-.06.28-.12.43-.17.28-.12.57-.23.85-.34.77-.32,1.55-.64,2.29-1.04,1.27-.68,2.35-1.56,3.05-2.86.71-1.31,1.08-2.74.66-4.14-.03-1.05-.26-2.09-.74-2.89-.97-1.63-2.6-2.33-4.2-3.08-.23-.21-.44-.43-.68-.63-.65-.55-1.41-.88-2.18-.91-.12-.08-.25-.14-.36-.22-.77-.57-1.56-1.4-2.48-1.92-1.87-1.04-3.93-1.47-5.99-1.9-.96-.2-1.93-.39-2.9-.56.45-.52.68-1.09.74-1.65,3.24-.15,6.53-.63,9.68-1.37,3.11-.74,6.31-2.21,8.1-5.09,2.13-3.44.56-7.26-2.5-9.35-.15-.1-.31-.17-.46-.26-.41-1.07-1.33-1.91-2.77-1.95-2.42-.05-4.96-.76-7.29-1.09-2.46-.34-4.96-1.04-7.53-1.11-2.4-.06-5-.33-7.4.03-.59-.34-1.28-.5-2.06-.39Z"/>
    <path class="cls-1" d="M21.19,46.62c5.81-5.39,6.5-14.38,1.53-20.09"/>
    <g>
      <path class="cls-1" d="M88.38,1.88c23.22.04,30.61,4.83,30.24,11.72"/>
      <path class="cls-1" d="M90.61,23.92c15.47.03,28-4.58,28.01-10.31"/>
    </g>
    <g>
      <path class="cls-1" d="M90.63,23.91c15.47.03,27.97,6.25,27.96,13.9"/>
      <path class="cls-1" d="M90.58,49.14c15.47.03,27.99-5.04,28.01-11.33"/>
    </g>
    <g>
      <path class="cls-1" d="M90.59,49.14c15.47.03,27.98,5.88,27.97,13.08"/>
      <path class="cls-1" d="M89.05,72.18c16.03,1.84,29.49-4.04,29.51-9.96"/>
    </g>
    <line class="cls-1" x1="12.47" y1="43.33" x2="89.05" y2="72.18"/>
    <line class="cls-1" x1="13.21" y1="30" x2="89.15" y2="1.6"/>
  </g>
  <g>
    <path class="cls-4" d="M200.75,29.72c.22.21.37.47.45.77.42,2.34,1.56,6.57,3.42,12.67.09-.2.56-1.12,1.4-2.76l2.53-4.97c.17-.3.49-.91.95-1.83.74-1.45,1.37-2.58,1.87-3.38.5-.8.95-1.2,1.35-1.2.09,0,.19.05.31.16.11.1.21.26.29.47s.12.46.12.75c0,.31-.11.71-.33,1.19-.92,1.54-2.3,4.01-4.12,7.41-1.83,3.4-2.96,5.61-3.41,6.62-.16.3-.29.52-.39.64-.1.13-.26.23-.47.31-.21.08-.52.12-.92.12-.14,0-.59-1.19-1.35-3.56-.76-2.37-1.48-4.83-2.16-7.38-.68-2.54-1.02-4.16-1.02-4.84,0-.42.05-.77.15-1.07.1-.3.32-.45.67-.45.21,0,.42.11.65.32Z"/>
    <path class="cls-4" d="M226.53,43.7c.18.22.28.56.28,1.02,0,.89-.67,1.47-2.02,1.76s-2.67.42-3.98.42c-.98,0-1.93-.27-2.84-.81-.91-.54-1.65-1.28-2.22-2.22s-.85-1.96-.85-3.07c0-1.6.27-3.01.82-4.23s1.34-2.18,2.39-2.87c1.05-.68,2.29-1.03,3.73-1.03.76,0,1.52.18,2.27.54s1.37.88,1.85,1.57.73,1.5.73,2.44c0,.48-.07.88-.22,1.21-.15.33-.35.53-.61.62l-9.01,3.06c.31.93.93,1.54,1.88,1.83.94.28,1.99.42,3.14.42.38,0,.75-.05,1.13-.16s.82-.25,1.34-.44c.33-.12.6-.22.81-.28s.4-.1.56-.1c.37,0,.64.11.83.33ZM219.24,39.12c.95-.36,2.17-.83,3.66-1.42,1-.4,1.69-.66,2.06-.79-.27-.55-.72-.95-1.35-1.2-.64-.25-1.37-.38-2.2-.38-.47,0-1.04.17-1.73.5-.69.33-1.32.85-1.89,1.55s-.94,1.56-1.09,2.58c.74-.2,1.59-.48,2.55-.84Z"/>
    <path class="cls-4" d="M235.12,43.79c.14.26.22.58.22.93s-.12.7-.35,1.01-.52.54-.86.71c-.34.17-.64.25-.91.25-.97,0-1.68-.3-2.13-.89-.45-.59-.67-1.47-.66-2.62l.19-15.53c0-.62.09-1.13.27-1.51.18-.38.46-.57.83-.57.25,0,.45.14.62.42.16.28.25.58.25.9l-.19,13.61v.48c0,.89.07,1.62.2,2.21.13.59.35.88.65.88.13,0,.24-.03.33-.08.09-.06.19-.14.31-.25s.22-.2.3-.25c.08-.05.19-.08.31-.08.27,0,.47.13.62.4Z"/>
    <path class="cls-4" d="M238.37,27.15c0-.26.07-.5.19-.72s.26-.39.43-.51.34-.18.5-.18c.13,0,.27.06.43.18.16.12.29.29.4.51.11.22.16.48.16.77,0,1.51-.08,3.55-.25,6.12-.09,1.39-.16,2.57-.2,3.55-.04.98-.07,1.99-.07,3.02v.2l5.79-7.19c.15-.22.32-.4.5-.54s.36-.21.53-.21c.42,0,.7.1.86.3.16.2.24.53.24.98v.14c0,.37-.23.8-.7,1.29s-1.14,1.11-2.01,1.87l-.77.68c.14.3.28.64.43,1.03.15.38.25.64.3.77.32.87.61,1.58.88,2.14.24.53.49,1.01.74,1.43.22.34.44.76.67,1.25.02.05.07.16.14.34s.15.37.22.58.1.37.1.48c0,.45-.13.84-.4,1.15-.27.31-.58.47-.94.47-.23,0-.42-.09-.57-.27-.15-.18-.28-.46-.38-.84,0,.04-.2-.41-.59-1.35-.39-.93-1.12-2.77-2.2-5.49l-2.84,3.27c0,.59,0,1.04.01,1.36v1.52c.01.38-.1.74-.32,1.08-.22.34-.5.51-.84.51-.26,0-.47-.08-.64-.25s-.29-.37-.37-.6c-.08-.23-.12-.44-.12-.63v-1.19c.02-.49.07-1.06.16-1.7.05-.3.08-.6.09-.91l.43-14.39Z"/>
    <path class="cls-4" d="M253.25,45.9c-.92-.7-1.66-1.58-2.21-2.65-.55-1.07-.83-2.13-.83-3.17,0-1.64.3-3,.9-4.06.6-1.07,1.38-1.84,2.34-2.33.96-.49,1.99-.73,3.1-.73,1.18,0,2.2.29,3.05.87.85.58,1.51,1.41,1.96,2.48.45,1.07.68,2.33.68,3.77,0,1.31-.29,2.49-.86,3.54s-1.32,1.86-2.25,2.45c-.93.59-1.91.88-2.94.88s-2.03-.35-2.95-1.05ZM259.86,37.71c-.29-.65-.7-1.16-1.21-1.52-.52-.36-1.09-.55-1.73-.55-.78,0-1.54.16-2.28.47-.73.32-1.33.79-1.8,1.41s-.7,1.37-.7,2.25c0,.74.19,1.46.57,2.16.38.7.87,1.27,1.47,1.71.61.44,1.23.66,1.88.66.73,0,1.43-.17,2.08-.52.65-.35,1.17-.85,1.57-1.51.4-.66.6-1.43.6-2.33,0-.84-.15-1.59-.44-2.24Z"/>
    <path class="cls-4" d="M281.93,39.65c0-.53-.14-1.06-.42-1.59-.28-.53-.68-.97-1.21-1.32-.53-.34-1.14-.52-1.85-.52-.37,0-.78.09-1.25.28-.47.18-.9.44-1.3.77-.4.33-.68.7-.85,1.1l-.15,5.76.06.42.06.44c0,.47-.09.88-.28,1.22-.19.34-.42.51-.7.51-.44,0-.79-.11-1.06-.33-.27-.22-.41-.62-.41-1.22l.04-.3c.08-.65.12-1.03.12-1.15l.06-4.23c0-.56-.1-1.12-.33-1.68-.23-.56-.55-1.02-.98-1.39-.42-.36-.9-.55-1.44-.55-.73,0-1.31.09-1.73.27-.42.18-.71.46-.89.85s-.26.91-.26,1.57v.55c0,.52.03,1.28.09,2.28,0,.17,0,.4.03.68l.27,3.26c0,.27-.07.52-.21.74-.14.22-.3.39-.48.51s-.33.18-.44.18c-.44,0-.76-.14-.97-.41-.21-.27-.31-.78-.31-1.52v-.48c.02-.07.03-.17.03-.33v-2.28c-.02-.34-.03-.78-.03-1.33v-2.27c0-1.13.02-2.02.07-2.66s.14-1.14.29-1.49c.15-.35.37-.52.67-.52.58,0,.88.5.88,1.5v.25c.14-.36.37-.7.69-1.01.32-.32.68-.57,1.09-.77.41-.2.83-.3,1.24-.3.53,0,1.12.13,1.77.38s1.22.65,1.7,1.2c.48.54.71,1.22.71,2.03.14-.64.45-1.21.93-1.69.48-.49,1.03-.86,1.66-1.12.62-.26,1.2-.39,1.71-.39,1.74,0,3.08.59,4.04,1.78.96,1.18,1.44,3.02,1.44,5.5,0,1.69-.11,3.12-.34,4.3s-.58,1.77-1.04,1.77c-.25,0-.48-.09-.69-.28-.21-.18-.38-.41-.51-.69-.13-.27-.19-.53-.19-.76,0-.32.03-.6.08-.84.05-.24.13-.51.23-.8.11-.31.19-.59.25-.84s.08-.54.08-.89v-2.19Z"/>
    <path class="cls-4" d="M304.21,39.65c0-.53-.14-1.06-.42-1.59-.28-.53-.68-.97-1.21-1.32-.53-.34-1.14-.52-1.85-.52-.37,0-.78.09-1.25.28-.47.18-.9.44-1.3.77-.4.33-.68.7-.85,1.1l-.15,5.76.06.42.06.44c0,.47-.09.88-.28,1.22s-.42.51-.7.51c-.44,0-.79-.11-1.06-.33s-.41-.62-.41-1.22l.04-.3c.08-.65.12-1.03.12-1.15l.06-4.23c0-.56-.1-1.12-.33-1.68-.23-.56-.55-1.02-.98-1.39-.42-.36-.9-.55-1.44-.55-.74,0-1.31.09-1.73.27s-.71.46-.89.85c-.17.39-.26.91-.26,1.57v.55c0,.52.03,1.28.09,2.28,0,.17,0,.4.03.68l.27,3.26c0,.27-.07.52-.21.74-.14.22-.3.39-.48.51s-.33.18-.44.18c-.44,0-.76-.14-.97-.41-.21-.27-.31-.78-.31-1.52v-.48c.02-.07.03-.17.03-.33l-.02-2.28c0-.34-.01-.78-.01-1.33v-2.27c0-1.13.02-2.02.07-2.66.04-.64.14-1.14.29-1.49.15-.35.37-.52.67-.52.59,0,.88.5.88,1.5v.25c.14-.36.37-.7.68-1.01.32-.32.68-.57,1.09-.77s.83-.3,1.24-.3c.53,0,1.12.13,1.77.38s1.22.65,1.7,1.2c.48.54.71,1.22.71,2.03.14-.64.45-1.21.93-1.69.48-.49,1.04-.86,1.66-1.12.63-.26,1.2-.39,1.71-.39,1.74,0,3.08.59,4.04,1.78.96,1.18,1.44,3.02,1.44,5.5,0,1.69-.11,3.12-.34,4.3-.23,1.18-.58,1.77-1.04,1.77-.25,0-.48-.09-.69-.28-.21-.18-.38-.41-.51-.69s-.19-.53-.19-.76c0-.32.03-.6.08-.84.05-.24.13-.51.23-.8.11-.31.19-.59.25-.84s.08-.54.08-.89v-2.19Z"/>
    <path class="cls-4" d="M320.79,43.7c.18.22.28.56.28,1.02,0,.89-.67,1.47-2.02,1.76-1.35.28-2.67.42-3.98.42-.98,0-1.93-.27-2.84-.81-.91-.54-1.65-1.28-2.22-2.22-.57-.93-.85-1.96-.85-3.07,0-1.6.27-3.01.82-4.23s1.34-2.18,2.39-2.87c1.05-.68,2.29-1.03,3.73-1.03.77,0,1.52.18,2.27.54s1.37.88,1.85,1.57.73,1.5.73,2.44c0,.48-.07.88-.22,1.21-.15.33-.35.53-.61.62l-9.01,3.06c.31.93.93,1.54,1.88,1.83s1.99.42,3.14.42c.38,0,.75-.05,1.13-.16s.82-.25,1.34-.44c.33-.12.6-.22.81-.28.21-.07.4-.1.56-.1.37,0,.64.11.83.33ZM313.5,39.12c.95-.36,2.17-.83,3.66-1.42,1-.4,1.69-.66,2.05-.79-.27-.55-.72-.95-1.35-1.2-.64-.25-1.37-.38-2.21-.38-.47,0-1.04.17-1.73.5-.69.33-1.32.85-1.89,1.55-.58.7-.94,1.56-1.09,2.58.74-.2,1.59-.48,2.55-.84Z"/>
    <path class="cls-4" d="M333.11,37.29c-.5-1.1-1.46-1.64-2.87-1.64-.42,0-.9.12-1.44.35s-1.07.56-1.57.97c-.51.41-.92.86-1.24,1.35,0,.32,0,.86-.03,1.61-.02.72-.03,1.21-.03,1.49,0,.29.02.58.06.86.04.28.1.62.18,1.03.06.3.11.62.16.94.04.33.07.63.07.91,0,.54-.06.94-.19,1.22s-.41.41-.83.41-.77-.11-1.03-.34c-.26-.23-.38-.68-.36-1.37l.06-5.55c-.11-1.34-.16-2.26-.16-2.76v-.42c0-.83.08-1.59.25-2.28s.44-1.03.82-1.03c.75,0,1.13.62,1.13,1.85,0,.2-.03.59-.09,1.18l-.04.37c.22-.74.62-1.37,1.19-1.9.58-.53,1.2-.93,1.86-1.2.67-.27,1.23-.4,1.7-.4,1.87,0,3.19.73,3.98,2.18s1.18,3.22,1.18,5.3c0,1.93-.09,3.51-.28,4.76s-.58,1.87-1.16,1.87c-.26,0-.47-.03-.63-.09-.16-.06-.29-.21-.39-.44-.1-.23-.15-.59-.15-1.07,0-.31.03-.62.08-.92.05-.3.12-.68.22-1.13.11-.52.19-.93.24-1.23s.08-.62.08-.96c0-1.5-.25-2.8-.75-3.89Z"/>
  </g>
</svg>