<?xml version="1.0" encoding="UTF-8"?>
<svg id="Layer_1" xmlns="http://www.w3.org/2000/svg" viewBox="0 0 442.05 75.6">
  <defs>
    <style>
      .cls-1 {
        fill: none;
        stroke: #231f20;
      }

      .cls-1, .cls-2 {
        stroke-miterlimit: 10;
        stroke-width: 2px;
      }

      .cls-2 {
        fill: #263779;
        stroke: #010101;
      }

      .cls-3 {
        fill: #eaa294;
      }

      .cls-4 {
        fill: #ededed;
      }

      .cls-5 {
        fill: #c18678;
      }
    </style>
  </defs>
  <path class="cls-2" d="M439.45,1.87l-.08,72.12-345.31-.36c-2.13,0-4.24-.39-6.24-1.14L3.71,40.78c-2.99-1.13-2.99-5.49,0-6.62L88.45,2.43c1.64-.61,3.36-.93,5.1-.92l345.9.36Z"/>
  <path class="cls-5" d="M56.11,23.25c-1.28.77-1.99,1.97-2.44,3.3-.21.16-.4.34-.6.52-1.27-.09-2.57.18-3.65.84-.41.25-.77.55-1.11.87-.82-.03-1.65.06-2.47.32-4.37,1.33-5.32,5.96-4.53,9.93.71,3.6,3,7.39,6.27,9.19.66.37,1.4.67,2.16.87,1.34,1.87,3.43,3.1,6.14,2.99,2.61-.1,5.15-1.48,7.01-3.49.46.11.94.19,1.45.21,5.08.15,7.08-5,6.42-9.37.12-2.1-.74-4.25-2.13-5.79-.15-.17-.32-.31-.48-.46.58-.98.7-2.25.04-3.26-.28-.43-.59-.83-.92-1.21,0,0,0,0,0,0-.31-.43-.61-.86-.93-1.28-.74-.99-1.49-1.99-2.41-2.82-2.13-1.92-5.17-2.95-7.82-1.35Z"/>
  <path class="cls-3" d="M89.68,3.01c-.9.12-1.61.55-2.26,1.16-.04.04-.31.3-.51.51-.24.04-.49.16-.72.21-.3.07-.6.12-.91.17-.1.01-.36.05-.45.06-1.36.16-2.76.28-4.06.73-1.48.52-2.5,1.4-3.74,2.31.35-.26-.51.32-.48.3-.26.16-.52.3-.79.44-.41.22-.82.42-1.23.62-.29,0-.59,0-.89.05-1.2.2-2.3.79-3.32,1.43-.48-.11-.98-.11-1.47.08-.67.25-1.33.53-1.99.81-.25.1-.49.21-.74.31-.11.05-.87.44-.21.09-.46.25-1,.4-1.49.56-.25.08-.5.14-.75.22-.02,0-.03,0-.05.02-1.61.03-2.86.77-3.95,1.91,0,.01-.02.02-.03.03-.7.22-1.38.46-2.06.76-.25.11-.49.25-.72.39-1.67.15-3.36.17-4.95.77-.86.33-1.71.74-2.52,1.22-.07-.02-.13-.05-.2-.06-1.28-.23-2.37-.05-3.5.61-.66.38-1.32.77-2,1.11-.18.09-.36.17-.54.26-.03.01-.22.09-.32.14-.11.04-.28.1-.3.11-.2.07-.4.14-.6.21-.83.29-1.67.55-2.51.81-1.83.55-3.57,1.3-5.32,2.06-.39.17-.79.34-1.18.51-.24.1-.48.21-.73.32-.03.01-.22.09-.33.14-.11.04-.32.13-.35.14-.19.07-.37.13-.56.2-.52.18-1.06.38-1.54.65-.07.04-.12.09-.18.13-.96-.48-2.13-.52-3.06.08-1.46.94-2.11,2.89-1.17,4.45.49.81.85,1.55,1.49,2.27.09.1.18.19.27.29.01.02.02.03.03.05.04.08.06.13.09.17.04.13.09.26.13.4.03.13.13.9.14.8.02.33.04.66.04.99,0,.39-.02.79-.04,1.18-.01.19-.03.38-.04.57,0,.06,0,.1-.01.14,0,.05-.02.13-.05.28-.04.21-.08.42-.13.62-.09.42-.2.83-.3,1.25-.2.84-.32,1.69-.49,2.53-.08.42-.21.83-.32,1.25-.01.03-.01.04-.02.06-.05.1-.1.2-.15.29-.02.04-.05.08-.08.12-1.65.31-2.72,2.45-2.22,3.98.59,1.82,2.19,2.57,4,2.27.42-.07.8-.21,1.17-.38.2.21.43.4.7.54,1.84.96,3.77,1.32,5.76,1.81.43.1.85.25,1.28.36,0,0,0,.01.02.02.13.11.33.22.47.3.02,0,.02,0,.03.02.14.11.28.22.41.33.46.37.93.76,1.43,1.08,1.61,1.02,3.6,1.06,5.35,1.73,1.09.42,2.23.78,3.38,1.09.58.78,1.48,1.3,2.55,1.31.93.01,1.3.07,2.22.23.73.12,1.45.22,2.18.32.23.26.49.5.82.65.54.25.99.63,1.48.96.67.45,1.44.76,2.19,1.04,1.25.47,2.58.69,3.85,1.1,2.72.86,5.31,2.08,8.03,2.94,0,0,0,0,0,0,.07.05.13.11.19.16,1.17.85,2.51,1.25,3.81,1.82,1.5.66,2.92,1.46,4.44,2.06,1.53.6,3.14.95,4.68,1.51,2.77,1,5.35,2.35,8.3,2.78,2.13.31,4.57.49,6.64-.3,2.99.48,5.77-.47,8.61-1.31.43-.13.86-.29,1.29-.44,2.48.48,4.51-.39,6.77-1.41,2.03-.92,4.5-1.13,5.8-3.19.97-1.53.89-3.41.76-5.14-.22-2.75-1.95-4.39-4.44-5.31-2.03-.76-4.08-1.47-6.09-2.27-1.82-.73-3.43-1.77-5.21-2.6-2.09-.97-4.35-1.36-6.61-1.76-.6-.1-1.2-.21-1.8-.3,1.06-.22,2.09-.52,3.14-.78.21.05.44.07.67.07,1.15,0,2.26-.02,3.4-.2.37-.06.74-.16,1.1-.28.08.03.15.07.23.09,1.35.37,2.95.24,4.27-.22,1.31-.46,2.36-1.31,3.58-1.92.02-.01.03-.02.05-.03.02,0,.03,0,.05-.02.15-.06.29-.12.44-.17.29-.12.59-.23.88-.35.8-.32,1.61-.65,2.37-1.04,1.32-.68,2.43-1.56,3.16-2.87.74-1.32,1.12-2.75.68-4.16-.03-1.06-.27-2.1-.76-2.89-1-1.64-2.69-2.34-4.35-3.09-.23-.21-.46-.43-.7-.63-.68-.56-1.46-.88-2.25-.91-.12-.08-.25-.14-.37-.22-.8-.57-1.61-1.41-2.57-1.93-1.94-1.04-4.07-1.47-6.21-1.9-.99-.2-1.99-.39-3-.56.47-.52.7-1.09.77-1.66,3.35-.15,6.77-.63,10.02-1.38,3.22-.74,6.53-2.22,8.38-5.11,2.21-3.45.58-7.28-2.59-9.38-.16-.1-.32-.18-.48-.27-.43-1.07-1.38-1.92-2.87-1.95-2.5-.05-5.13-.76-7.55-1.09-2.55-.34-5.14-1.04-7.79-1.11-2.49-.06-5.18-.33-7.66.03-.61-.34-1.33-.5-2.14-.39Z"/>
  <path class="cls-1" d="M21.71,47.32c6.02-5.41,6.72-14.42,1.58-20.14"/>
  <g>
    <path class="cls-1" d="M91.26,2.43c24.04.03,31.7,4.83,31.32,11.74"/>
    <path class="cls-1" d="M93.58,24.53c16.02.02,28.99-4.61,29-10.35"/>
  </g>
  <g>
    <path class="cls-1" d="M93.6,24.51c16.02.02,28.97,6.25,28.95,13.92"/>
    <path class="cls-1" d="M93.56,49.81c16.02.02,28.98-5.06,28.99-11.38"/>
  </g>
  <g>
    <path class="cls-1" d="M93.57,49.81c16.02.02,28.97,5.89,28.96,13.1"/>
    <path class="cls-1" d="M91.98,72.92c16.6,1.84,30.54-4.06,30.54-10"/>
  </g>
  <line class="cls-1" x1="12.69" y1="44.03" x2="91.98" y2="72.92"/>
  <line class="cls-1" x1="13.44" y1="30.66" x2="92.06" y2="2.14"/>
  <g>
    <path class="cls-4" d="M189.12,27.26c.55-.1.97-.16,1.27-.16.22,0,.45.09.69.28s.44.42.6.71c.16.28.24.56.24.82,0,.48-.08.85-.25,1.1-.17.25-.45.38-.83.38-.15,0-.77-.14-1.88-.41-.07,0-.42.03-1.06.08s-2.18.08-4.62.08c-.58,0-.91-.03-1.01-.08-.1.9-.15,2.23-.16,4.01,0,.05.23.07.67.07.34,0,.73-.01,1.18-.04.45-.03.74-.06.89-.1l2.8-.4c.29-.09.59-.14.89-.14.59,0,.88.46.88,1.39,0,.44-.06.77-.19.98-.12.21-.3.35-.52.42-.22.07-.57.13-1.05.18l-.36.04-3.08.35c-.18.02-.51.05-.98.11-.48.05-.85.08-1.12.08l.06,5.24c0,1.32-.34,1.98-1.03,1.98-.49,0-.83-.18-1.03-.53-.2-.35-.3-.85-.3-1.48,0-.31.03-.71.1-1.19.04-.3.06-.51.06-.64l.15-10.01c0-.81.09-1.58.26-2.32.17-.73.5-1.1.99-1.1.24,0,.62.05,1.13.14.52.09.9.14,1.15.14h5.48Z"/>
    <path class="cls-4" d="M197.23,34.23c-.65.79-.98,2.01-.98,3.65v.5l.15,4.36c0,.16-.04.36-.11.59-.07.23-.19.43-.36.61-.16.17-.37.26-.63.26-.48,0-.8-.14-.98-.41s-.27-.72-.27-1.35c0-.42,0-.85.03-1.3,0-.15.01-.35.01-.59v-1.33c0-.53.03-1.26.08-2.18s.18-2.54.37-4.86c.03-.47.14-.84.33-1.12s.47-.41.83-.41c.2,0,.38.12.56.38.17.25.26.65.26,1.2,0,.84-.01,1.35-.04,1.54.2-.6.58-1.17,1.15-1.69.57-.52,1.19-.94,1.87-1.25.67-.31,1.26-.47,1.76-.47.81,0,1.53.15,2.16.45.62.3.94.9.94,1.8,0,.28-.07.54-.19.78s-.29.42-.5.55c-.2.13-.41.2-.63.2-.19,0-.33-.03-.42-.1-.09-.07-.17-.17-.25-.31-.12-.22-.28-.38-.48-.5-.2-.12-.56-.18-1.07-.18h-.34c-1.51,0-2.59.4-3.24,1.19Z"/>
    <path class="cls-4" d="M208.26,44.04c-.21.27-.44.41-.7.41-.37,0-.66-.11-.87-.33-.21-.22-.38-.59-.48-1.11-.08-.45-.12-1.42-.12-2.9,0-2.45.1-4.68.3-6.68.2-2,.67-2.99,1.39-2.99.3,0,.49.12.59.38.09.25.14.61.14,1.08l-.12,1.98c-.05.67-.09,1.37-.13,2.11-.04.74-.06,1.39-.06,1.97,0,.61.06,1.47.19,2.58.12,1.15.18,1.95.18,2.39,0,.47-.1.84-.31,1.12ZM208.02,27.5c-.41,0-.79-.11-1.14-.34s-.53-.62-.53-1.19c0-.28.08-.57.25-.86.16-.29.37-.53.61-.72s.47-.28.69-.28c.41,0,.76.12,1.06.37.3.25.45.67.45,1.26,0,1.18-.46,1.77-1.38,1.77Z"/>
    <path class="cls-4" d="M212.99,33.44c-.36.02-.66.03-.91.03-.14,0-.31-.06-.51-.17-.2-.11-.38-.27-.53-.48-.15-.21-.22-.44-.22-.71s.06-.51.19-.74c.12-.23.28-.42.48-.55.19-.14.39-.21.6-.21.32,0,.9.03,1.76.08.03-1.17.14-2.28.33-3.34s.57-1.59,1.12-1.59c.13,0,.26.06.4.18.14.12.26.28.35.48.09.2.14.42.14.66,0,1-.06,1.91-.18,2.72l-.04.35-.13.58c.36,0,.78,0,1.27-.01s.86-.02,1.12-.03c.79-.03,1.59-.04,2.38-.04.29,0,.5.16.62.49.13.33.19.67.19,1.04,0,.4-.11.71-.32.94-.21.23-.45.35-.69.35l-4.59-.06v1.3c-.04.79-.06,1.65-.06,2.58,0,1.31.12,2.35.35,3.1s.68,1.13,1.35,1.13c.57,0,1.27-.29,2.1-.86.18-.1.27-.16.28-.16.25,0,.42.07.51.2.09.13.13.36.13.69,0,.4-.17.82-.51,1.27-.34.45-.74.83-1.21,1.14s-.87.47-1.22.47c-1.12,0-1.95-.38-2.49-1.13-.54-.75-.88-1.65-1.01-2.7-.13-1.05-.21-2.41-.23-4.08,0-1.31-.04-2.3-.12-2.96-.15,0-.38,0-.7.03Z"/>
    <path class="cls-4" d="M226.17,44.04c-.21.27-.44.41-.7.41-.37,0-.66-.11-.87-.33-.21-.22-.38-.59-.48-1.11-.08-.45-.12-1.42-.12-2.9,0-2.45.1-4.68.31-6.68.2-2,.67-2.99,1.39-2.99.3,0,.49.12.59.38.09.25.14.61.14,1.08l-.12,1.98c-.05.67-.09,1.37-.13,2.11-.04.74-.06,1.39-.06,1.97,0,.61.06,1.47.19,2.58.12,1.15.18,1.95.18,2.39,0,.47-.1.84-.31,1.12ZM225.93,27.5c-.41,0-.79-.11-1.14-.34s-.53-.62-.53-1.19c0-.28.08-.57.25-.86s.37-.53.61-.72.47-.28.69-.28c.41,0,.76.12,1.06.37s.45.67.45,1.26c0,1.18-.46,1.77-1.38,1.77Z"/>
    <path class="cls-4" d="M237.61,30.82c.53.22.97.52,1.3.92.34.4.54.85.6,1.36l.03-4.06.03-4.04c0-.99.38-1.49,1.13-1.49.29,0,.5.13.63.4.13.26.19.58.19.95v2.1s-.04,2.14-.04,2.14l-.18,8.99-.06,2.45c0,1.26-.1,2.2-.26,2.84-.16.64-.5.96-1,.96-.2,0-.37-.12-.51-.37-.14-.25-.3-.6-.48-1.08-.33.3-.76.56-1.3.77-.54.21-1.09.37-1.65.48-.57.11-1.06.16-1.47.16-1.78,0-3.12-.56-4.04-1.67-.91-1.11-1.37-2.63-1.37-4.55,0-1.32.27-2.56.81-3.72.54-1.16,1.32-2.1,2.34-2.8s2.22-1.06,3.6-1.06c.6,0,1.16.11,1.69.33ZM237,41.49c.6-.2,1.08-.45,1.43-.73s.57-.54.65-.78c.08-.25.13-.51.16-.79s.04-.61.04-.99v-1.3c0-.64-.15-1.25-.46-1.83-.31-.58-.72-1.04-1.23-1.39-.51-.35-1.04-.52-1.6-.52-.96,0-1.8.21-2.52.62s-1.27.99-1.65,1.72c-.38.73-.57,1.56-.57,2.5,0,.76.16,1.44.48,2.01.32.58.77,1.02,1.33,1.32.57.31,1.2.46,1.89.46.77,0,1.46-.1,2.06-.3Z"/>
    <path class="cls-4" d="M246.7,44.02c-.8-.36-1.21-1.05-1.21-2.06,0-.16.05-.36.15-.6.1-.24.22-.45.37-.62.15-.17.3-.26.45-.26.05,0,.17.08.37.25.26.31.51.54.75.7.24.16.52.26.83.31.31.05.72.08,1.24.08s1.08-.06,1.68-.19c.6-.13,1.11-.28,1.53-.45s.62-.31.62-.41c0-.25-.13-.46-.39-.63-.26-.17-.58-.29-.95-.39-.38-.09-.93-.21-1.67-.35-1.16-.21-2.12-.43-2.87-.66-.75-.23-1.4-.6-1.95-1.12-.55-.51-.83-1.21-.83-2.09,0-1.09.31-2.04.94-2.85.63-.82,1.42-1.44,2.39-1.88.97-.44,1.94-.66,2.93-.66.65,0,1.22.12,1.74.37.51.25.91.57,1.19.97.28.4.42.83.42,1.3,0,.75-.06,1.35-.18,1.83s-.4.71-.85.71c-.22,0-.36-.1-.43-.3s-.1-.5-.1-.92c0-.44-.18-.75-.54-.92s-.89-.25-1.61-.25c-.5,0-1.05.12-1.65.35-.61.24-1.12.54-1.55.92s-.64.77-.64,1.18.16.75.49,1.01c.33.26.74.46,1.22.59.49.14,1.16.29,2.01.45,1.05.2,1.9.4,2.55.59.64.2,1.19.51,1.65.93.45.42.68.98.68,1.69,0,.9-.36,1.64-1.09,2.23-.72.59-1.57,1.02-2.54,1.3-.97.27-1.8.41-2.51.41-.95,0-1.83-.18-2.64-.55Z"/>
    <path class="cls-4" d="M268.22,37.58c0-.76-.09-1.43-.26-2.02s-.56-1.1-1.15-1.52c-.59-.42-1.47-.63-2.62-.63-.58,0-1.14.12-1.7.38-.56.25-1.01.56-1.36.93-.35.37-.53.72-.53,1.05v6.66c0,.38-.03.68-.06.91-.03.23-.11.43-.25.6-.14.17-.36.25-.66.25s-.55-.1-.8-.29c-.24-.19-.37-.59-.37-1.18,0-2.1.04-5.07.13-8.94.08-4.25.12-7.2.12-8.85,0-.23.05-.48.16-.77.11-.29.26-.54.45-.74s.4-.31.62-.31c.25,0,.46.12.64.37s.27.53.27.85v.06c0,.74-.03,1.93-.09,3.57-.07,1.45-.1,2.69-.1,3.7l-.07,1.71c.09-.51.33-.97.72-1.38.39-.41.85-.73,1.39-.96.53-.23,1.03-.34,1.51-.34,2.29,0,3.88.66,4.77,1.98s1.33,2.89,1.33,4.72l-.15,4.62c0,.06,0,.32-.02.79s-.12.87-.31,1.2c-.19.33-.46.49-.81.49s-.64-.15-.85-.45c-.21-.3-.31-.67-.31-1.11,0-.61.06-1.47.18-2.56.12-1.06.18-1.87.18-2.45v-.33Z"/>
    <path class="cls-4" d="M277.74,38.6c.02.72.03,1.28.03,1.7v.51c0,2.46-.11,4.38-.32,5.73-.21,1.36-.77,2.46-1.66,3.31s-2.3,1.27-4.23,1.27c-.54,0-1.02-.09-1.44-.26-.42-.17-.63-.57-.63-1.2,0-.49.1-.82.31-1,.2-.17.51-.26.92-.26h.45c1.38,0,2.41-.34,3.08-1.02s1.09-1.52,1.27-2.53.27-2.3.28-3.88l.04-8.13c.02-1.62.4-2.44,1.13-2.44.34,0,.6.14.77.42s.29.62.33,1.02c0,.63-.05,1.5-.16,2.59-.12,1.27-.18,2.22-.18,2.86v1.29ZM276.89,26.89c-.41,0-.79-.12-1.16-.35s-.55-.64-.55-1.2c0-.28.08-.57.25-.86s.38-.53.63-.72.49-.28.73-.28c.4,0,.74.13,1.04.38s.45.68.45,1.29c0,1.17-.46,1.76-1.38,1.76Z"/>
    <path class="cls-4" d="M292.99,41.21c.18.22.28.56.28,1.02,0,.89-.67,1.47-2.02,1.76s-2.67.42-3.98.42c-.98,0-1.93-.27-2.84-.81-.91-.54-1.65-1.28-2.22-2.22-.57-.93-.85-1.96-.85-3.07,0-1.6.27-3.01.82-4.23s1.34-2.18,2.39-2.87c1.05-.68,2.29-1.03,3.73-1.03.76,0,1.52.18,2.27.54.75.36,1.37.88,1.85,1.57s.73,1.5.73,2.44c0,.48-.07.88-.22,1.21-.15.33-.35.53-.61.62l-9.01,3.06c.31.93.93,1.54,1.88,1.83.94.28,1.99.42,3.14.42.38,0,.75-.05,1.13-.16.38-.1.82-.25,1.34-.44.33-.12.6-.22.81-.28.21-.07.4-.1.56-.1.37,0,.64.11.83.33ZM285.7,36.62c.95-.36,2.17-.83,3.66-1.42,1-.4,1.69-.66,2.05-.79-.27-.55-.72-.95-1.35-1.2-.64-.25-1.37-.38-2.2-.38-.47,0-1.04.17-1.73.5-.68.33-1.32.85-1.89,1.55-.58.7-.94,1.56-1.09,2.58.74-.2,1.59-.48,2.55-.84Z"/>
    <path class="cls-4" d="M312.96,37.16c0-.53-.14-1.06-.42-1.59-.28-.53-.68-.97-1.21-1.32-.53-.34-1.14-.52-1.85-.52-.37,0-.78.09-1.25.28-.47.18-.9.44-1.3.77-.4.33-.68.7-.85,1.1l-.15,5.76.06.42.06.44c0,.47-.09.88-.28,1.22s-.42.51-.7.51c-.44,0-.79-.11-1.06-.33-.27-.22-.41-.62-.41-1.22l.04-.3c.08-.65.12-1.03.12-1.15l.06-4.23c0-.56-.1-1.12-.33-1.68-.23-.56-.55-1.02-.98-1.39-.42-.36-.9-.55-1.44-.55-.74,0-1.31.09-1.73.27s-.71.46-.89.85-.26.91-.26,1.57v.55c0,.52.03,1.28.09,2.28,0,.17,0,.4.03.68l.27,3.26c0,.27-.07.52-.21.74-.14.22-.3.39-.48.51s-.33.18-.44.18c-.44,0-.76-.14-.97-.41-.21-.27-.31-.78-.31-1.52v-.48c.02-.07.03-.17.03-.33v-2.28c-.02-.34-.03-.78-.03-1.33v-2.27c0-1.13.02-2.02.07-2.66.04-.64.14-1.14.29-1.49.15-.35.37-.52.67-.52.59,0,.88.5.88,1.5v.25c.14-.36.37-.7.68-1.01.32-.32.68-.57,1.09-.77s.83-.3,1.24-.3c.53,0,1.12.13,1.77.38s1.22.65,1.7,1.2c.48.54.71,1.22.71,2.03.14-.64.45-1.21.93-1.69.48-.49,1.04-.86,1.66-1.12.63-.26,1.2-.39,1.71-.39,1.74,0,3.08.59,4.04,1.78.96,1.18,1.44,3.02,1.44,5.5,0,1.69-.11,3.12-.34,4.3s-.58,1.77-1.04,1.77c-.25,0-.48-.09-.69-.28-.21-.18-.38-.41-.51-.69s-.19-.53-.19-.76c0-.32.03-.6.08-.84.05-.24.13-.51.23-.8.11-.31.19-.59.25-.84.05-.25.08-.54.08-.89l.02-2.19Z"/>
    <path class="cls-4" d="M335.23,37.16c0-.53-.14-1.06-.42-1.59-.28-.53-.68-.97-1.21-1.32-.53-.34-1.14-.52-1.85-.52-.37,0-.78.09-1.25.28-.47.18-.9.44-1.3.77-.4.33-.68.7-.85,1.1l-.15,5.76.06.42.06.44c0,.47-.09.88-.28,1.22s-.42.51-.7.51c-.44,0-.79-.11-1.06-.33-.27-.22-.41-.62-.41-1.22l.04-.3c.08-.65.12-1.03.12-1.15l.06-4.23c0-.56-.1-1.12-.33-1.68-.23-.56-.55-1.02-.98-1.39-.42-.36-.9-.55-1.44-.55-.74,0-1.31.09-1.73.27s-.71.46-.89.85-.26.91-.26,1.57v.55c0,.52.03,1.28.09,2.28,0,.17,0,.4.03.68l.27,3.26c0,.27-.07.52-.21.74-.14.22-.3.39-.48.51s-.33.18-.44.18c-.44,0-.76-.14-.97-.41-.21-.27-.31-.78-.31-1.52v-.48c.02-.07.03-.17.03-.33v-2.28c-.02-.34-.03-.78-.03-1.33v-2.27c0-1.13.02-2.02.07-2.66.04-.64.14-1.14.29-1.49.15-.35.37-.52.67-.52.59,0,.88.5.88,1.5v.25c.14-.36.37-.7.68-1.01.32-.32.68-.57,1.09-.77s.83-.3,1.24-.3c.53,0,1.12.13,1.77.38s1.22.65,1.7,1.2c.48.54.71,1.22.71,2.03.14-.64.45-1.21.93-1.69.48-.49,1.04-.86,1.66-1.12.63-.26,1.2-.39,1.71-.39,1.74,0,3.08.59,4.04,1.78.96,1.18,1.44,3.02,1.44,5.5,0,1.69-.11,3.12-.34,4.3s-.58,1.77-1.04,1.77c-.25,0-.48-.09-.69-.28-.21-.18-.38-.41-.51-.69s-.19-.53-.19-.76c0-.32.03-.6.08-.84.05-.24.13-.51.23-.8.11-.31.19-.59.25-.84.05-.25.08-.54.08-.89l.02-2.19Z"/>
    <path class="cls-4" d="M351.81,41.21c.18.22.28.56.28,1.02,0,.89-.67,1.47-2.02,1.76-1.35.28-2.67.42-3.98.42-.98,0-1.93-.27-2.84-.81-.91-.54-1.65-1.28-2.22-2.22-.57-.93-.85-1.96-.85-3.07,0-1.6.27-3.01.82-4.23s1.34-2.18,2.39-2.87c1.05-.68,2.29-1.03,3.73-1.03.76,0,1.52.18,2.27.54.75.36,1.37.88,1.85,1.57s.73,1.5.73,2.44c0,.48-.07.88-.22,1.21-.15.33-.35.53-.61.62l-9.01,3.06c.31.93.93,1.54,1.88,1.83s1.99.42,3.14.42c.38,0,.75-.05,1.13-.16.38-.1.82-.25,1.34-.44.33-.12.6-.22.81-.28.21-.07.4-.1.56-.1.37,0,.64.11.83.33ZM344.52,36.62c.95-.36,2.17-.83,3.66-1.42,1-.4,1.69-.66,2.05-.79-.27-.55-.72-.95-1.35-1.2-.64-.25-1.37-.38-2.2-.38-.47,0-1.04.17-1.73.5-.68.33-1.32.85-1.89,1.55-.58.7-.94,1.56-1.09,2.58.75-.2,1.59-.48,2.55-.84Z"/>
    <path class="cls-4" d="M356.18,33.44c-.36.02-.66.03-.91.03-.14,0-.31-.06-.51-.17s-.38-.27-.53-.48c-.15-.21-.22-.44-.22-.71s.06-.51.19-.74c.12-.23.28-.42.48-.55.19-.14.39-.21.6-.21.32,0,.9.03,1.76.08.03-1.17.14-2.28.33-3.34.19-1.06.57-1.59,1.12-1.59.13,0,.26.06.4.18.14.12.25.28.35.48.09.2.14.42.14.66,0,1-.06,1.91-.18,2.72l-.04.35-.13.58c.36,0,.78,0,1.27-.01s.86-.02,1.12-.03c.79-.03,1.59-.04,2.38-.04.29,0,.5.16.63.49.13.33.19.67.19,1.04,0,.4-.11.71-.32.94-.21.23-.44.35-.69.35l-4.59-.06-.02,1.3c-.03.79-.04,1.65-.04,2.58,0,1.31.12,2.35.35,3.1s.68,1.13,1.35,1.13c.57,0,1.27-.29,2.1-.86.18-.1.27-.16.28-.16.25,0,.42.07.51.2.09.13.13.36.13.69,0,.4-.17.82-.51,1.27-.34.45-.74.83-1.21,1.14s-.87.47-1.22.47c-1.12,0-1.95-.38-2.49-1.13-.54-.75-.88-1.65-1.01-2.7-.13-1.05-.21-2.41-.23-4.08,0-1.31-.04-2.3-.12-2.96-.15,0-.38,0-.7.03Z"/>
  </g>
</svg>