<?xml version="1.0" encoding="UTF-8"?>
<svg id="Layer_1" xmlns="http://www.w3.org/2000/svg" viewBox="0 0 474.05 74.17">
  <defs>
    <style>
      .cls-1 {
        fill: none;
      }

      .cls-1, .cls-2 {
        stroke: #231f20;
        stroke-miterlimit: 10;
        stroke-width: 2px;
      }

      .cls-2 {
        fill: #026955;
      }

      .cls-3 {
        fill: #eaa294;
      }

      .cls-4 {
        fill: #ededed;
      }

      .cls-5 {
        fill: #c18678;
      }
    </style>
  </defs>
  <g>
    <path class="cls-2" d="M469.32,1.26l-.11,71.92-369.23-.53c-2.27,0-4.53-.39-6.67-1.14L3.38,39.86c-3.2-1.13-3.19-5.48.01-6.6L94.01,1.66c1.75-.61,3.6-.92,5.46-.92l369.85.53Z"/>
    <path class="cls-5" d="M57.59,22.4c-1.32.77-2.07,1.96-2.53,3.29-.22.16-.42.34-.62.51-1.32-.09-2.67.18-3.78.83-.42.25-.8.55-1.15.86-.85-.03-1.71.06-2.56.31-4.52,1.33-5.51,5.94-4.7,9.91.74,3.59,3.1,7.37,6.49,9.17.69.37,1.45.66,2.24.87,1.38,1.87,3.55,3.09,6.36,2.99,2.71-.1,5.34-1.47,7.26-3.48.48.11.97.19,1.5.21,5.26.16,7.34-4.98,6.65-9.34.12-2.09-.76-4.24-2.2-5.78-.16-.17-.33-.31-.5-.46.6-.98.73-2.24.04-3.25-.29-.43-.61-.82-.95-1.2,0,0,0,0,0,0-.32-.43-.63-.86-.96-1.28-.76-.98-1.54-1.99-2.49-2.81-2.21-1.91-5.36-2.94-8.1-1.35Z"/>
    <path class="cls-3" d="M92.37,2.24c-.94.12-1.66.55-2.34,1.16-.05.04-.32.3-.53.51-.25.04-.51.15-.75.21-.31.07-.63.12-.94.17-.11.01-.37.05-.46.06-1.41.16-2.86.27-4.2.73-1.54.51-2.59,1.39-3.87,2.31.36-.26-.53.31-.5.3-.27.16-.54.3-.82.44-.42.21-.85.42-1.28.62-.3-.01-.61,0-.92.05-1.24.2-2.38.78-3.44,1.43-.49-.11-1.01-.11-1.53.08-.7.25-1.38.53-2.07.81-.25.1-.51.21-.76.31-.11.05-.9.44-.22.09-.47.24-1.04.4-1.55.56-.26.08-.52.14-.78.22-.02,0-.03,0-.05.02-1.67.03-2.96.77-4.09,1.91-.01.01-.02.02-.03.03-.72.22-1.43.46-2.13.76-.26.11-.5.25-.75.39-1.73.14-3.48.17-5.12.76-.89.33-1.77.73-2.61,1.21-.07-.02-.13-.05-.21-.06-1.33-.23-2.45-.05-3.63.6-.69.38-1.36.76-2.08,1.1-.18.09-.37.17-.56.26-.03.01-.22.09-.33.14-.12.04-.29.1-.31.11-.21.07-.41.14-.62.21-.86.29-1.73.55-2.6.81-1.89.55-3.7,1.29-5.51,2.05-.41.17-.81.34-1.22.5-.25.1-.5.21-.75.32-.03.01-.23.09-.34.14-.11.04-.33.13-.36.14-.19.07-.39.13-.58.2-.54.18-1.09.38-1.59.65-.07.04-.13.09-.19.13-.99-.48-2.2-.52-3.17.08-1.51.94-2.19,2.88-1.21,4.43.51.81.88,1.54,1.54,2.27.09.1.18.19.28.29.01.02.02.03.03.05.04.08.07.13.09.17.05.13.09.26.13.4.04.13.14.9.15.8.02.33.04.65.04.98,0,.39-.02.79-.04,1.18-.01.19-.03.38-.04.57,0,.06-.01.1-.01.14,0,.05-.02.13-.05.28-.04.21-.09.42-.14.62-.1.42-.21.83-.31,1.24-.21.84-.34,1.68-.51,2.52-.09.42-.22.83-.33,1.25-.01.03-.01.04-.02.06-.05.1-.1.2-.16.29-.02.04-.05.08-.08.12-1.71.31-2.81,2.44-2.3,3.97.61,1.82,2.27,2.56,4.14,2.27.43-.07.83-.2,1.21-.38.21.21.44.4.72.54,1.91.96,3.9,1.32,5.97,1.8.45.1.88.25,1.33.36,0,0,0,.01.02.02.13.11.34.22.49.3.02,0,.02,0,.03.02.14.11.29.22.43.33.48.37.96.76,1.48,1.08,1.66,1.02,3.72,1.06,5.54,1.73,1.13.42,2.31.77,3.5,1.09.6.78,1.53,1.29,2.64,1.31.96.01,1.35.08,2.3.23.75.12,1.51.22,2.26.32.23.26.51.49.85.65.56.25,1.02.63,1.53.96.69.45,1.49.76,2.26,1.03,1.3.46,2.67.69,3.99,1.09,2.82.86,5.5,2.08,8.31,2.94,0,0,0,0,0,0,.07.05.13.11.2.16,1.21.85,2.6,1.24,3.95,1.82,1.55.66,3.02,1.46,4.6,2.05,1.58.6,3.25.95,4.85,1.51,2.87,1,5.54,2.35,8.59,2.78,2.21.31,4.73.49,6.88-.3,3.09.48,5.97-.47,8.92-1.31.45-.13.89-.29,1.33-.44,2.56.48,4.67-.39,7.01-1.41,2.11-.91,4.66-1.13,6.01-3.17,1.01-1.52.93-3.4.79-5.12-.22-2.74-2.02-4.37-4.59-5.3-2.11-.76-4.22-1.46-6.31-2.27-1.89-.73-3.56-1.77-5.39-2.59-2.17-.97-4.51-1.36-6.84-1.75-.62-.1-1.25-.21-1.87-.3,1.09-.22,2.17-.52,3.26-.77.22.05.45.07.69.07,1.19,0,2.34-.01,3.52-.2.39-.06.76-.16,1.14-.28.08.03.15.07.24.09,1.4.37,3.06.24,4.42-.22,1.36-.46,2.44-1.31,3.71-1.92.02-.01.03-.02.05-.02.02,0,.03,0,.05-.02.15-.06.31-.12.46-.17.31-.12.61-.23.92-.34.83-.32,1.66-.64,2.46-1.04,1.37-.68,2.52-1.56,3.28-2.86.76-1.31,1.16-2.74.7-4.14-.03-1.05-.28-2.09-.79-2.89-1.04-1.63-2.79-2.33-4.51-3.08-.24-.21-.48-.43-.72-.63-.7-.55-1.51-.88-2.33-.91-.13-.08-.26-.14-.38-.22-.82-.57-1.67-1.4-2.66-1.92-2.01-1.04-4.22-1.47-6.43-1.9-1.03-.2-2.07-.39-3.11-.56.48-.52.73-1.09.79-1.65,3.47-.15,7.01-.63,10.38-1.37,3.33-.74,6.77-2.21,8.68-5.09,2.29-3.44.6-7.26-2.68-9.35-.16-.1-.33-.17-.5-.26-.44-1.07-1.42-1.91-2.97-1.95-2.59-.05-5.31-.76-7.82-1.09-2.64-.34-5.32-1.04-8.07-1.11-2.58-.06-5.36-.33-7.94.03-.63-.34-1.38-.5-2.21-.39Z"/>
    <path class="cls-1" d="M21.95,46.39c6.24-5.39,6.97-14.38,1.64-20.09"/>
    <path class="cls-1" d="M94.01,1.66c24.9.04,32.83,4.83,32.43,11.72"/>
    <path class="cls-1" d="M96.4,23.69c16.59.03,30.03-4.58,30.04-10.31"/>
    <path class="cls-1" d="M96.42,23.68c16.59.03,30,6.25,29.98,13.9"/>
    <path class="cls-1" d="M96.37,48.91c16.59.03,30.02-5.04,30.04-11.33"/>
    <path class="cls-1" d="M96.37,48.91c16.59.03,30.01,5.88,29.99,13.08"/>
    <path class="cls-1" d="M94.72,71.95c17.19,1.84,31.63-4.04,31.64-9.96"/>
    <line class="cls-1" x1="12.6" y1="43.1" x2="94.72" y2="71.95"/>
    <line class="cls-1" x1="13.39" y1="29.77" x2="94.83" y2="1.37"/>
  </g>
  <g>
    <path class="cls-4" d="M220.89,35.74c0-1.12.03-2.06.09-2.81.06-.75.19-1.37.4-1.85s.52-.73.92-.75c.11,0,.25.11.42.33.03.03.09.08.17.17.08.08.16.13.23.13.26-.25.6-.49,1.04-.74s.91-.44,1.42-.59c.51-.15,1-.22,1.47-.2,1.82,0,3.1.38,3.84,1.15.75.77,1.12,1.91,1.12,3.42s-.36,2.89-1.07,3.94-1.72,1.83-3.02,2.34c-1.29.51-2.82.76-4.58.76-.15,0-.32-.03-.52-.08,0,.09,0,.27-.02.52-.03.43-.04.93-.04,1.47,0,.55.05,1.4.13,2.55,0,.42-.11.69-.32.83s-.43.21-.66.21c-.36,0-.63-.04-.83-.11-.19-.08-.35-.33-.47-.77-.12-.44-.13-1.15-.03-2.13l.3-2.97c-.06-.1-.12-.25-.17-.45s-.08-.35-.08-.47c0-.26.04-.62.12-1.08.09-.44.13-.84.13-1.2v-1.6ZM227.17,37.75c.9-.26,1.63-.65,2.18-1.17.55-.51.83-1.13.83-1.83,0-.83-.31-1.49-.92-1.99-.62-.5-1.54-.74-2.78-.74-.55,0-1.21.1-1.99.29-.78.19-1.26.39-1.44.6,0,.03-.02.27-.07.73-.04.46-.11,1.88-.19,4.25.3.08.55.15.77.19.21.04.46.06.74.06,1.01,0,1.97-.13,2.87-.4Z"/>
    <path class="cls-4" d="M248.52,43.59c.13.19.2.49.2.91,0,.32-.09.64-.28.96s-.45.59-.77.79c-.33.21-.69.31-1.09.31s-.78-.13-1.17-.4c-.39-.27-.71-.62-.96-1.06-.25-.44-.37-.89-.37-1.35-.74.9-1.52,1.62-2.32,2.16-.8.54-1.65.81-2.55.81-.82,0-1.66-.25-2.51-.76-.85-.51-1.55-1.2-2.09-2.06-.55-.86-.82-1.8-.82-2.8,0-1.35.32-2.67.97-3.96.64-1.29,1.51-2.35,2.6-3.16,1.09-.81,2.26-1.22,3.52-1.22.95,0,1.84.27,2.66.82.82.55,1.47,1.25,1.95,2.12.48.86.72,1.74.72,2.63,0,.38-.03.76-.09,1.13s-.09.61-.1.71c-.08.44-.14.84-.18,1.18-.04.34-.06.71-.06,1.1,0,.56.09.96.26,1.2.17.24.43.36.78.36.09,0,.18-.03.28-.1.09-.07.21-.16.33-.28.02-.02.08-.07.17-.15.09-.08.18-.13.26-.16.31,0,.53.09.66.28ZM242.38,43.08c.63-.61,1.07-1.31,1.3-2.1.23-.79.45-1.81.65-3.08,0-.29-.18-.63-.55-1.01s-.81-.7-1.32-.98c-.51-.27-.97-.41-1.38-.41-1.02,0-1.94.27-2.74.81-.8.54-1.43,1.24-1.87,2.09-.44.85-.66,1.71-.66,2.59,0,.58.19,1.09.57,1.55.38.46.87.81,1.47,1.07.6.25,1.21.38,1.84.38,1.16,0,2.06-.31,2.7-.92ZM243.86,27.62c-.35.6-.79,1.1-1.33,1.5s-1.05.59-1.56.59c-.57,0-1.11-.16-1.62-.47-.52-.32-.93-.73-1.24-1.25s-.47-1.08-.47-1.67c0-.36.19-.88.57-1.58.38-.69.84-1.31,1.38-1.84.54-.53,1.05-.8,1.53-.8.22,0,.38.02.5.06.11.04.21.14.28.28.08.15.14.38.2.69.08.07.22.13.43.18.49.09.92.36,1.29.81.37.44.56,1.03.56,1.76,0,.56-.18,1.14-.53,1.74ZM242.14,27.27c.19-.16.36-.35.5-.59.14-.24.21-.48.21-.72,0-.2-.19-.41-.58-.64-.39-.23-.82-.44-1.3-.62s-.8-.27-.96-.27c-.1,0-.2.1-.31.3-.11.2-.21.43-.29.69-.08.26-.13.45-.13.56,0,.18.13.39.4.63.27.24.59.45.96.62.37.17.7.26.99.26.15,0,.32-.08.51-.23Z"/>
    <path class="cls-4" d="M250.92,26.92c0-.26.07-.5.19-.72s.26-.39.43-.51.34-.18.5-.18c.13,0,.27.06.43.18.16.12.29.29.4.51.11.22.16.48.16.77,0,1.51-.08,3.55-.25,6.12-.09,1.39-.16,2.57-.2,3.55-.04.98-.07,1.99-.07,3.02v.2l5.79-7.19c.15-.22.32-.4.5-.54s.36-.21.53-.21c.42,0,.7.1.86.3.16.2.24.53.24.98v.14c0,.37-.23.8-.7,1.29s-1.14,1.11-2.01,1.87l-.77.68c.14.3.28.64.43,1.03.15.38.25.64.3.77.32.87.61,1.58.88,2.14.24.53.49,1.01.74,1.43.22.34.44.76.67,1.25.02.05.07.16.14.34s.15.37.22.58.1.37.1.48c0,.45-.13.84-.4,1.15-.27.31-.58.47-.94.47-.23,0-.42-.09-.57-.27-.15-.18-.28-.46-.38-.83,0,.04-.2-.41-.59-1.35-.39-.93-1.12-2.77-2.2-5.49l-2.84,3.27c0,.59,0,1.04.01,1.36v1.52c.01.38-.1.74-.32,1.08-.22.34-.5.51-.84.51-.26,0-.47-.08-.64-.25-.17-.17-.29-.37-.37-.6-.08-.23-.12-.44-.12-.63v-1.19c.02-.49.07-1.06.16-1.7.05-.3.08-.6.09-.91l.43-14.39Z"/>
    <path class="cls-4" d="M268.7,43.56c.14.26.22.58.22.93s-.12.7-.35,1.01-.52.54-.86.71c-.34.17-.64.25-.91.25-.97,0-1.68-.3-2.13-.89-.45-.59-.67-1.47-.66-2.62l.19-15.53c0-.62.09-1.13.27-1.51.18-.38.46-.57.83-.57.25,0,.45.14.62.42.16.28.25.58.25.9l-.19,13.61v.48c0,.89.07,1.62.2,2.21.13.59.35.88.65.88.13,0,.24-.03.33-.08.09-.06.19-.14.31-.25s.22-.2.3-.25c.08-.05.19-.08.31-.08.27,0,.47.13.62.4Z"/>
    <path class="cls-4" d="M291.99,43.04c.17.2.25.54.25,1.01,0,.88-.67,1.46-2.02,1.76-1.35.29-2.66.44-3.94.44-.95,0-1.85-.25-2.7-.75-.84-.5-1.53-1.18-2.06-2.02-.58.91-1.37,1.67-2.38,2.28-1.01.61-2.3.92-3.86.92-.97,0-1.82-.19-2.55-.58-.73-.39-1.28-.91-1.66-1.58-.38-.67-.57-1.4-.57-2.22,0-1.57.43-2.75,1.3-3.55s2.27-1.2,4.23-1.2,3.29.41,4.26,1.22c-.04-1-.29-1.75-.75-2.25-.46-.5-.99-.82-1.59-.96-.61-.14-1.29-.21-2.06-.21-.48,0-.92.04-1.32.11-.4.07-.73.17-.98.29l-.43.18c-.07.03-.21.09-.42.19-.21.1-.38.15-.51.15-.45,0-.75-.1-.92-.3-.17-.2-.25-.58-.25-1.14s.31-.96.93-1.27c.62-.31,1.34-.52,2.17-.64.82-.12,1.6-.18,2.34-.18,1.14,0,2.14.25,2.99.76.85.51,1.5,1.24,1.94,2.2.53-1.09,1.28-1.92,2.26-2.5.98-.58,2.16-.87,3.55-.87.76,0,1.53.18,2.29.54.76.36,1.39.89,1.88,1.57.49.68.74,1.48.74,2.39,0,.49-.07.84-.2,1.06-.13.22-.37.36-.71.44-.07.03-.28.09-.62.2-2.08.64-4.78,1.53-8.12,2.66.33.97.96,1.63,1.88,1.98.93.34,1.91.52,2.96.52.37,0,.73-.05,1.09-.14s.81-.24,1.33-.42c.35-.12.62-.21.83-.28.21-.06.39-.09.55-.09.39,0,.67.1.83.3ZM277.67,43.79c.61-.23,1.13-.51,1.56-.85.44-.34.77-.68,1.01-1.03-.09-.61-.55-1.06-1.39-1.34-.84-.28-1.77-.42-2.81-.42-1.16,0-2.07.17-2.72.5-.65.33-.99.84-1.01,1.54,0,.33.13.64.4.94.26.3.65.54,1.15.72.51.18,1.12.28,1.83.28s1.36-.11,1.97-.34ZM282.37,39.16c.85-.41,1.75-.79,2.7-1.16.95-.37,2.21-.84,3.79-1.42.31-.1.72-.25,1.24-.44-.19-.36-.49-.67-.9-.93-.41-.26-.9-.4-1.45-.4-.22,0-.51.03-.86.08-2.42.56-3.93,1.98-4.51,4.26Z"/>
    <path class="cls-4" d="M303.41,33.08c.53.22.96.52,1.3.92.34.4.54.85.6,1.36l.03-4.06.03-4.04c0-.99.38-1.49,1.13-1.49.29,0,.5.13.62.4s.19.58.19.95v2.1s-.04,2.14-.04,2.14l-.18,8.99-.06,2.45c-.01,1.26-.1,2.2-.26,2.84-.16.64-.5.96-1,.96-.2,0-.37-.12-.51-.37-.14-.25-.3-.6-.48-1.08-.33.3-.76.56-1.29.77-.54.21-1.09.37-1.65.48-.57.11-1.06.16-1.47.16-1.78,0-3.12-.56-4.04-1.67s-1.37-2.63-1.37-4.55c0-1.32.27-2.56.81-3.72s1.32-2.1,2.35-2.8,2.22-1.06,3.6-1.06c.6,0,1.16.11,1.69.33ZM302.8,43.75c.6-.2,1.08-.45,1.43-.73s.57-.54.65-.78c.08-.25.13-.51.16-.79.02-.28.04-.61.04-.99v-1.3c0-.64-.15-1.25-.46-1.83s-.72-1.04-1.23-1.39-1.04-.52-1.6-.52c-.96,0-1.8.21-2.52.62s-1.27.99-1.65,1.72c-.38.73-.57,1.56-.57,2.5,0,.76.16,1.44.48,2.01s.77,1.02,1.33,1.32c.57.31,1.2.46,1.89.46.77,0,1.46-.1,2.06-.3Z"/>
    <path class="cls-4" d="M319.85,37.06c-.5-1.1-1.46-1.64-2.87-1.64-.42,0-.9.12-1.44.35s-1.06.56-1.57.97c-.51.41-.92.86-1.24,1.35,0,.32,0,.86-.03,1.61-.02.72-.03,1.21-.03,1.49,0,.29.02.58.06.86.04.28.1.62.18,1.03.06.3.11.62.16.94.04.33.07.63.07.91,0,.54-.06.94-.19,1.22-.13.27-.41.41-.83.41s-.77-.11-1.03-.34c-.26-.23-.38-.68-.36-1.37l.06-5.55c-.11-1.34-.16-2.26-.16-2.76v-.42c0-.83.08-1.59.25-2.28s.44-1.03.82-1.03c.75,0,1.13.62,1.13,1.85,0,.2-.03.59-.09,1.18l-.04.37c.22-.74.62-1.37,1.19-1.9.58-.53,1.2-.93,1.86-1.2.67-.27,1.23-.4,1.7-.4,1.87,0,3.19.73,3.98,2.18s1.18,3.22,1.18,5.3c0,1.93-.09,3.51-.28,4.76s-.58,1.87-1.16,1.87c-.26,0-.47-.03-.63-.09-.16-.06-.29-.21-.39-.44-.1-.23-.15-.59-.15-1.07,0-.31.02-.62.07-.92s.12-.68.22-1.13c.11-.52.19-.93.24-1.23s.07-.62.07-.96c0-1.5-.25-2.8-.75-3.89Z"/>
    <path class="cls-4" d="M328.07,46.31c-.21.27-.44.41-.7.41-.37,0-.66-.11-.87-.33s-.38-.59-.48-1.11c-.08-.45-.12-1.42-.12-2.9,0-2.45.1-4.68.3-6.68.2-2,.67-2.99,1.39-2.99.3,0,.49.12.59.38.09.25.14.61.14,1.08l-.12,1.98c-.05.67-.09,1.37-.13,2.11-.04.74-.06,1.39-.06,1.97,0,.61.06,1.47.19,2.58.12,1.15.18,1.95.18,2.39,0,.47-.1.84-.31,1.12ZM327.84,29.77c-.41,0-.79-.11-1.14-.34s-.53-.62-.53-1.19c0-.28.08-.57.25-.86.16-.29.37-.53.61-.72s.47-.28.69-.28c.41,0,.76.12,1.06.37.3.25.45.67.45,1.26,0,1.18-.46,1.77-1.38,1.77Z"/>
    <path class="cls-4" d="M340.75,37.06c-.5-1.1-1.46-1.64-2.87-1.64-.42,0-.89.12-1.44.35s-1.07.56-1.57.97c-.51.41-.92.86-1.24,1.35,0,.32,0,.86-.03,1.61-.02.72-.03,1.21-.03,1.49,0,.29.02.58.06.86.04.28.1.62.18,1.03.06.3.11.62.16.94.04.33.07.63.07.91,0,.54-.06.94-.19,1.22-.13.27-.41.41-.83.41s-.77-.11-1.03-.34c-.26-.23-.38-.68-.36-1.37l.06-5.55c-.11-1.34-.16-2.26-.16-2.76v-.42c0-.83.08-1.59.25-2.28s.44-1.03.82-1.03c.75,0,1.13.62,1.13,1.85,0,.2-.03.59-.09,1.18l-.04.37c.22-.74.62-1.37,1.19-1.9.57-.53,1.2-.93,1.86-1.2.66-.27,1.23-.4,1.7-.4,1.87,0,3.19.73,3.97,2.18.79,1.45,1.18,3.22,1.18,5.3,0,1.93-.1,3.51-.28,4.76-.19,1.25-.58,1.87-1.16,1.87-.26,0-.47-.03-.62-.09-.16-.06-.29-.21-.39-.44-.1-.23-.15-.59-.15-1.07,0-.31.03-.62.08-.92.05-.3.12-.68.22-1.13.11-.52.19-.93.24-1.23.05-.3.07-.62.07-.96,0-1.5-.25-2.8-.75-3.89Z"/>
    <path class="cls-4" d="M354.45,49.8c.25-.41.42-.9.51-1.48.09-.58.17-1.34.24-2.29.04-.66.08-1.15.12-1.46-.11.42-.38.8-.8,1.13s-.91.58-1.47.76c-.56.17-1.07.26-1.55.26-1.79,0-3.14-.52-4.07-1.56-.93-1.04-1.39-2.59-1.39-4.65,0-1.34.21-2.6.63-3.77s1.05-2.11,1.9-2.83,1.89-1.08,3.13-1.08c.97,0,1.92.31,2.84.93.92.62,1.67,1.38,2.24,2.29.57.91.86,1.78.86,2.6l-.28,6.7v.2c-.06.25-.14.84-.25,1.74-.16,1.27-.34,2.31-.54,3.09s-.56,1.46-1.09,2.02c-.53.56-1.29.84-2.27.84-.39,0-.89-.06-1.5-.19-.62-.13-1.17-.34-1.66-.64-.49-.3-.74-.7-.74-1.2,0-.47.07-.83.2-1.08.13-.25.38-.37.74-.37.09,0,.17.01.25.04s.15.07.22.11c.25.15.56.27.92.37.37.09.95.14,1.76.14.47,0,.82-.21,1.07-.62ZM353.52,43.45c.52-.42.95-.95,1.3-1.56.35-.62.6-1.23.76-1.83-.11-.82-.28-1.55-.5-2.19s-.58-1.18-1.07-1.63-1.15-.67-1.99-.67c-1.36,0-2.35.44-2.96,1.33-.62.89-.93,2.03-.95,3.43,0,1.39.32,2.36.97,2.92.65.56,1.56.84,2.75.84.62,0,1.18-.21,1.7-.64Z"/>
  </g>
</svg>