<?xml version="1.0" encoding="UTF-8"?>
<svg id="Layer_1" xmlns="http://www.w3.org/2000/svg" viewBox="0 0 442.05 75.6">
  <defs>
    <style>
      .cls-1 {
        fill: none;
        stroke: #231f20;
      }

      .cls-1, .cls-2 {
        stroke-miterlimit: 10;
        stroke-width: 2px;
      }

      .cls-2 {
        fill: #263779;
        stroke: #010101;
      }

      .cls-3 {
        fill: #eaa294;
      }

      .cls-4 {
        fill: #ededed;
      }

      .cls-5 {
        fill: #c18678;
      }
    </style>
  </defs>
  <path class="cls-2" d="M439.23,1.85l-.08,72.12-345.14-.35c-2.13,0-4.24-.39-6.23-1.14L3.71,40.77c-2.99-1.13-2.98-5.49,0-6.62L88.41,2.42c1.64-.61,3.36-.93,5.1-.92l345.72.35Z"/>
  <path class="cls-5" d="M57.31,23.25c-1.31.77-2.04,1.97-2.49,3.3-.21.16-.41.34-.61.52-1.3-.09-2.63.18-3.73.84-.42.25-.78.55-1.13.87-.84-.03-1.68.06-2.52.32-4.46,1.33-5.43,5.96-4.63,9.93.73,3.6,3.06,7.39,6.4,9.19.68.37,1.43.67,2.21.87,1.37,1.87,3.51,3.1,6.27,2.99,2.67-.1,5.27-1.48,7.16-3.49.47.11.96.19,1.48.21,5.19.15,7.24-5,6.56-9.37.12-2.1-.75-4.25-2.18-5.79-.15-.17-.32-.31-.49-.46.6-.98.72-2.25.04-3.26-.29-.43-.6-.83-.94-1.21,0,0,0,0,0,0-.31-.43-.63-.86-.95-1.28-.75-.99-1.52-1.99-2.46-2.82-2.18-1.92-5.29-2.95-7.99-1.35Z"/>
  <path class="cls-3" d="M91.62,3.01c-.92.12-1.64.55-2.31,1.16-.04.04-.32.3-.52.51-.24.04-.5.16-.74.21-.31.07-.62.12-.93.17-.1.01-.36.05-.46.06-1.39.16-2.82.28-4.15.73-1.51.52-2.56,1.4-3.82,2.31.35-.26-.52.32-.49.3-.26.16-.53.3-.81.44-.42.22-.84.42-1.26.62-.3,0-.6,0-.91.05-1.23.2-2.35.79-3.4,1.43-.49-.11-1-.11-1.51.08-.69.25-1.36.53-2.04.81-.25.1-.5.21-.75.31-.11.05-.89.44-.22.09-.47.25-1.02.4-1.53.56-.25.08-.51.14-.77.22-.02,0-.03,0-.05.02-1.65.03-2.92.77-4.04,1.91,0,.01-.02.02-.03.03-.71.22-1.41.46-2.1.76-.26.11-.5.25-.74.39-1.7.15-3.44.17-5.05.77-.88.33-1.75.74-2.57,1.22-.07-.02-.13-.05-.2-.06-1.31-.23-2.42-.05-3.58.61-.68.38-1.35.77-2.05,1.11-.18.09-.37.17-.55.26-.03.01-.22.09-.33.14-.12.04-.28.1-.31.11-.2.07-.41.14-.61.21-.85.29-1.71.55-2.57.81-1.87.55-3.65,1.3-5.44,2.06-.4.17-.8.34-1.2.51-.25.1-.49.21-.74.32-.03.01-.23.09-.34.14-.11.04-.33.13-.36.14-.19.07-.38.13-.57.2-.54.18-1.08.38-1.57.65-.07.04-.12.09-.19.13-.98-.48-2.17-.52-3.13.08-1.49.94-2.16,2.89-1.2,4.45.5.81.86,1.55,1.52,2.27.09.1.18.19.27.29.01.02.02.03.03.05.04.08.07.13.09.17.05.13.09.26.13.4.03.13.14.9.15.8.02.33.04.66.04.99,0,.39-.02.79-.04,1.18-.01.19-.03.38-.04.57,0,.06,0,.1-.01.14,0,.05-.02.13-.05.28-.04.21-.09.42-.13.62-.1.42-.21.83-.31,1.25-.21.84-.33,1.69-.5,2.53-.09.42-.21.83-.32,1.25-.01.03-.01.04-.02.06-.05.1-.1.2-.16.29-.02.04-.05.08-.08.12-1.69.31-2.78,2.45-2.27,3.98.6,1.82,2.24,2.57,4.08,2.27.43-.07.82-.21,1.19-.38.21.21.43.4.71.54,1.88.96,3.85,1.32,5.89,1.81.44.1.87.25,1.31.36,0,0,0,.01.02.02.13.11.33.22.48.3.02,0,.02,0,.03.02.14.11.28.22.42.33.47.37.95.76,1.46,1.08,1.64,1.02,3.67,1.06,5.47,1.73,1.11.42,2.28.78,3.45,1.09.59.78,1.51,1.3,2.61,1.31.95.01,1.33.07,2.26.23.74.12,1.49.22,2.23.32.23.26.5.5.84.65.56.25,1.01.63,1.51.96.68.45,1.47.76,2.23,1.04,1.28.47,2.64.69,3.94,1.1,2.78.86,5.42,2.08,8.21,2.94,0,0,0,0,0,0,.07.05.13.11.2.16,1.19.85,2.56,1.25,3.9,1.82,1.53.66,2.98,1.46,4.54,2.06,1.56.6,3.21.95,4.79,1.51,2.83,1,5.47,2.35,8.48,2.78,2.18.31,4.67.49,6.79-.3,3.05.48,5.89-.47,8.8-1.31.44-.13.88-.29,1.32-.44,2.53.48,4.6-.39,6.92-1.41,2.08-.92,4.6-1.13,5.93-3.19.99-1.53.91-3.41.77-5.14-.22-2.75-2-4.39-4.53-5.31-2.08-.76-4.17-1.47-6.23-2.27-1.86-.73-3.51-1.77-5.32-2.6-2.14-.97-4.45-1.36-6.75-1.76-.61-.1-1.23-.21-1.84-.3,1.08-.22,2.14-.52,3.21-.78.22.05.45.07.68.07,1.17,0,2.31-.02,3.47-.2.38-.06.75-.16,1.12-.28.08.03.15.07.23.09,1.38.37,3.02.24,4.37-.22,1.34-.46,2.41-1.31,3.66-1.92.02-.01.03-.02.05-.03.02,0,.03,0,.05-.02.15-.06.3-.12.45-.17.3-.12.6-.23.9-.35.82-.32,1.64-.65,2.43-1.04,1.35-.68,2.48-1.56,3.23-2.87.75-1.32,1.14-2.75.69-4.16-.03-1.06-.28-2.1-.78-2.89-1.03-1.64-2.75-2.34-4.45-3.09-.24-.21-.47-.43-.72-.63-.69-.56-1.49-.88-2.3-.91-.12-.08-.26-.14-.38-.22-.81-.57-1.65-1.41-2.63-1.93-1.98-1.04-4.16-1.47-6.34-1.9-1.01-.2-2.04-.39-3.07-.56.48-.52.71-1.09.78-1.66,3.43-.15,6.91-.63,10.24-1.38,3.29-.74,6.68-2.22,8.56-5.11,2.25-3.45.59-7.28-2.65-9.38-.16-.1-.33-.18-.49-.27-.44-1.07-1.41-1.92-2.93-1.95-2.56-.05-5.24-.76-7.71-1.09-2.6-.34-5.25-1.04-7.97-1.11-2.54-.06-5.29-.33-7.83.03-.62-.34-1.36-.5-2.18-.39Z"/>
  <path class="cls-1" d="M22.15,47.32c6.15-5.41,6.87-14.42,1.61-20.14"/>
  <g>
    <path class="cls-1" d="M93.24,2.43c24.57.03,32.4,4.83,32.01,11.74"/>
    <path class="cls-1" d="M95.61,24.53c16.37.02,29.63-4.61,29.64-10.35"/>
  </g>
  <g>
    <path class="cls-1" d="M95.63,24.51c16.37.02,29.6,6.25,29.59,13.92"/>
    <path class="cls-1" d="M95.59,49.81c16.37.02,29.62-5.06,29.63-11.38"/>
  </g>
  <g>
    <path class="cls-1" d="M95.59,49.81c16.37.02,29.61,5.89,29.6,13.1"/>
    <path class="cls-1" d="M93.98,72.92c16.97,1.84,31.21-4.06,31.22-10"/>
  </g>
  <line class="cls-1" x1="12.93" y1="44.03" x2="93.98" y2="72.92"/>
  <line class="cls-1" x1="13.7" y1="30.66" x2="94.05" y2="2.14"/>
  <g>
    <path class="cls-4" d="M193.53,43.68c-.81-.41-1.22-1.22-1.22-2.43,0-.19.05-.44.14-.74.09-.31.22-.58.36-.81.15-.23.31-.35.48-.35.02,0,.07.05.15.14.08.09.15.21.22.34.3.56.57.96.81,1.2.24.24.5.39.78.45.28.06.71.08,1.28.08s1.21-.12,1.88-.35c.67-.23,1.22-.52,1.67-.86s.68-.66.68-.96-.14-.55-.43-.76c-.29-.22-.66-.4-1.1-.55-.45-.15-1.06-.33-1.83-.54-1.19-.32-2.17-.63-2.93-.92-.76-.29-1.42-.71-1.97-1.26-.55-.55-.83-1.25-.83-2.1,0-1.28.32-2.41.96-3.38.64-.97,1.46-1.71,2.46-2.22,1-.51,2.03-.77,3.07-.77.66,0,1.24.15,1.76.45.52.3.92.69,1.2,1.18.28.49.42,1.02.42,1.59,0,.72-.07,1.32-.2,1.8s-.4.72-.81.72c-.28,0-.45-.11-.53-.33-.08-.22-.11-.55-.11-.98,0-.62-.18-1.06-.54-1.32-.36-.25-.89-.38-1.59-.38-.5,0-1.08.17-1.76.5-.68.33-1.26.76-1.75,1.28-.49.52-.73,1.06-.73,1.61,0,.36.15.66.45.9.3.24.68.43,1.14.58.46.15,1.1.32,1.92.52,1.18.28,2.14.56,2.88.83.74.27,1.38.68,1.91,1.24.54.56.8,1.29.8,2.19,0,1.12-.38,2.06-1.15,2.82s-1.65,1.31-2.67,1.68c-1.01.36-1.87.54-2.58.54-.99,0-1.9-.21-2.71-.62Z"/>
    <path class="cls-4" d="M217.68,30.77c.12.23.19.48.19.74,0,.22-.05.43-.16.64s-.37.63-.77,1.26c-.04.05-.07.09-.1.13-.02.04-.05.08-.07.11-.18.26-.35.51-.52.75-.43.61-.8,1.18-1.12,1.7-.32.52-.66,1.13-1.02,1.84-.08.16-.48.91-1.19,2.24-1.22,2.24-2.19,4.14-2.92,5.7-.73,1.56-1.09,2.79-1.09,3.67,0,.41-.1.79-.29,1.14-.19.35-.43.53-.72.53-.16,0-.36-.08-.6-.25s-.45-.38-.63-.62-.27-.47-.27-.67c0-.5.22-1.28.63-2.35.41-1.07.84-1.96,1.27-2.69l1.21-2.24c-.53-1.11-1.51-3.37-2.95-6.75l-1.01-2.38c-.1-.23-.18-.46-.24-.71s-.09-.44-.09-.59c.02-.46.14-.84.36-1.12.22-.28.49-.42.81-.42.22,0,.38.09.49.26.11.17.25.48.42.91.46,1.24,1.06,2.75,1.8,4.54.74,1.79,1.31,3.08,1.7,3.89l4.44-8.18c.24-.44.53-.79.89-1.04.35-.25.71-.38,1.08-.38.2,0,.36.12.48.35Z"/>
    <path class="cls-4" d="M226.9,47.53c.25-.41.42-.9.51-1.48.09-.58.17-1.34.24-2.29.04-.66.08-1.15.12-1.46-.11.42-.37.8-.8,1.13-.42.33-.91.58-1.47.76-.56.17-1.07.26-1.55.26-1.79,0-3.14-.52-4.07-1.56-.93-1.04-1.39-2.59-1.39-4.65,0-1.34.21-2.6.62-3.77s1.05-2.11,1.9-2.83,1.89-1.08,3.13-1.08c.97,0,1.92.31,2.84.93.92.62,1.67,1.38,2.24,2.29.57.91.86,1.78.86,2.6l-.28,6.7v.2c-.06.25-.14.84-.25,1.74-.16,1.27-.34,2.31-.54,3.09-.2.79-.56,1.46-1.09,2.02-.53.56-1.29.84-2.27.84-.39,0-.89-.06-1.5-.19-.62-.13-1.17-.34-1.66-.64s-.74-.7-.74-1.2c0-.47.07-.83.2-1.08s.38-.37.74-.37c.09,0,.17.01.25.04.08.03.15.07.22.11.25.15.56.27.92.37s.95.14,1.76.14c.47,0,.82-.21,1.07-.62ZM225.98,41.18c.52-.42.95-.95,1.29-1.56.35-.62.6-1.23.76-1.83-.11-.82-.28-1.55-.5-2.19s-.58-1.18-1.07-1.63-1.15-.67-1.99-.67c-1.36,0-2.35.44-2.96,1.33s-.93,2.03-.95,3.43c0,1.39.32,2.36.97,2.92.65.56,1.56.84,2.75.84.62,0,1.18-.21,1.7-.64Z"/>
    <path class="cls-4" d="M241.16,30.82c.53.22.96.52,1.3.92.34.4.54.85.6,1.36l.03-4.06.03-4.04c0-.99.38-1.49,1.13-1.49.29,0,.5.13.62.4s.19.58.19.95v2.1s-.04,2.14-.04,2.14l-.18,8.99-.06,2.45c-.01,1.26-.1,2.2-.26,2.84-.16.64-.5.96-1,.96-.2,0-.37-.12-.51-.37s-.3-.6-.48-1.08c-.33.3-.76.56-1.29.77-.54.21-1.09.37-1.65.48-.57.11-1.06.16-1.47.16-1.78,0-3.12-.56-4.04-1.67s-1.37-2.63-1.37-4.55c0-1.32.27-2.56.81-3.72s1.32-2.1,2.35-2.8,2.22-1.06,3.6-1.06c.6,0,1.16.11,1.69.33ZM240.55,41.49c.6-.2,1.08-.45,1.43-.73s.57-.54.65-.78c.08-.25.13-.51.16-.79.02-.28.04-.61.04-.99v-1.3c0-.64-.15-1.25-.46-1.83s-.72-1.04-1.23-1.39-1.04-.52-1.6-.52c-.96,0-1.8.21-2.52.62s-1.27.99-1.65,1.72c-.38.73-.57,1.56-.57,2.5,0,.76.16,1.44.48,2.01s.77,1.02,1.33,1.32c.57.31,1.2.46,1.89.46.77,0,1.46-.1,2.06-.3Z"/>
    <path class="cls-4" d="M250.98,43.4c-.92-.7-1.66-1.58-2.21-2.65-.55-1.07-.83-2.13-.83-3.17,0-1.64.3-3,.9-4.06.6-1.07,1.38-1.84,2.34-2.33.96-.49,1.99-.73,3.1-.73,1.18,0,2.2.29,3.05.87.85.58,1.51,1.41,1.96,2.48.45,1.07.68,2.33.68,3.77,0,1.31-.29,2.49-.86,3.54s-1.32,1.86-2.25,2.45c-.93.59-1.91.88-2.94.88s-2.03-.35-2.95-1.05ZM257.59,35.22c-.29-.65-.7-1.16-1.21-1.52-.52-.36-1.09-.55-1.73-.55-.78,0-1.54.16-2.28.47-.73.32-1.33.79-1.8,1.41s-.7,1.37-.7,2.25c0,.74.19,1.46.57,2.16.38.7.87,1.27,1.47,1.71.61.44,1.23.66,1.88.66.73,0,1.43-.17,2.08-.52.65-.35,1.17-.85,1.57-1.51.4-.66.6-1.43.6-2.33,0-.84-.15-1.59-.44-2.24Z"/>
    <path class="cls-4" d="M279.66,37.16c0-.53-.14-1.06-.42-1.59-.28-.53-.68-.97-1.21-1.32-.53-.34-1.14-.52-1.85-.52-.37,0-.78.09-1.25.28-.47.18-.9.44-1.3.77-.4.33-.68.7-.85,1.1l-.15,5.76.06.42.06.44c0,.47-.09.88-.28,1.22-.19.34-.42.51-.7.51-.44,0-.79-.11-1.06-.33-.27-.22-.41-.62-.41-1.22l.04-.3c.08-.65.12-1.03.12-1.15l.06-4.23c0-.56-.1-1.12-.33-1.68-.23-.56-.55-1.02-.98-1.39-.42-.36-.9-.55-1.44-.55-.73,0-1.31.09-1.73.27-.42.18-.71.46-.89.85s-.26.91-.26,1.57v.55c0,.52.03,1.28.09,2.28,0,.17,0,.4.03.68l.27,3.26c0,.27-.07.52-.21.74-.14.22-.3.39-.48.51s-.33.18-.44.18c-.44,0-.76-.14-.97-.41-.21-.27-.31-.78-.31-1.52v-.48c.02-.07.03-.17.03-.33v-2.28c-.02-.34-.03-.78-.03-1.33v-2.27c0-1.13.02-2.02.07-2.66s.14-1.14.29-1.49c.15-.35.37-.52.67-.52.58,0,.88.5.88,1.5v.25c.14-.36.37-.7.69-1.01.32-.32.68-.57,1.09-.77.41-.2.83-.3,1.24-.3.53,0,1.12.13,1.77.38s1.22.65,1.7,1.2c.48.54.71,1.22.71,2.03.14-.64.45-1.21.93-1.69.48-.49,1.03-.86,1.66-1.12.62-.26,1.2-.39,1.71-.39,1.74,0,3.08.59,4.04,1.78.96,1.18,1.44,3.02,1.44,5.5,0,1.69-.11,3.12-.34,4.3s-.58,1.77-1.04,1.77c-.25,0-.48-.09-.69-.28-.21-.18-.38-.41-.51-.69-.13-.27-.19-.53-.19-.76,0-.32.03-.6.08-.84.05-.24.13-.51.23-.8.11-.31.19-.59.25-.84s.08-.54.08-.89v-2.19Z"/>
    <path class="cls-4" d="M290.41,24.12c.23-.34.45-.51.65-.51.3,0,.53.12.7.36.17.24.25.59.25,1.04,0,.14-.04.31-.12.5-.72,1.92-1.46,4.21-2.22,6.87s-1.88,6.92-3.38,12.76c0,.25-.04.49-.13.74-.09.25-.2.45-.33.61-.13.16-.27.24-.39.24-.2,0-.41-.05-.63-.14-.22-.09-.42-.25-.58-.47-.16-.22-.25-.5-.25-.84.99-3.72,2.02-7.4,3.08-11.05,1.06-3.65,2.01-6.69,2.85-9.11.11-.32.28-.65.51-.99Z"/>
    <path class="cls-4" d="M302.84,23.17c.51.2.96.46,1.35.8.39.34.59.71.59,1.11,0,.32-.04.63-.12.93-.08.3-.23.45-.46.45-.2,0-.39-.04-.57-.11-.18-.07-.39-.17-.63-.3-.3-.16-.54-.28-.74-.35s-.41-.11-.65-.11c-1.03,0-1.78.56-2.24,1.69s-.74,2.46-.83,4.02h3.51c.09,0,.23-.03.41-.05.18-.02.33-.04.45-.04.26,0,.47.1.65.29.17.19.26.54.26,1.03,0,.62-.14,1.02-.41,1.2-.27.18-.6.27-.98.27-1.75-.09-2.95-.14-3.62-.14h-.34c-.01.55-.04,1.44-.08,2.66-.06,1.37-.09,2.47-.1,3.3,0,.1.03.36.1.78,0,.08.05.37.13.88.07.51.11,1.05.11,1.61,0,.79-.27,1.19-.82,1.19-.49,0-.85-.08-1.08-.23-.23-.16-.39-.46-.48-.9-.08-.44-.13-1.14-.13-2.1,0-.55,0-1.17.03-1.88.02-.7.04-1.21.04-1.51.05-.98.08-1.99.09-3.03,0-.15,0-.39.03-.71-.79.05-1.49.07-2.1.07-.26,0-.48-.15-.68-.44s-.29-.61-.29-.95.1-.65.31-.95c.21-.3.44-.45.68-.45l2.14.08h.13c.29-2.41.84-4.41,1.65-6.01.81-1.6,1.95-2.4,3.41-2.4.3,0,.7.1,1.21.3Z"/>
    <path class="cls-4" d="M309.23,34.23c-.65.79-.98,2.01-.98,3.65v.5l.15,4.36c0,.16-.04.36-.11.59-.07.23-.19.43-.36.61-.16.17-.38.26-.63.26-.48,0-.8-.14-.98-.41s-.27-.72-.27-1.35c0-.42,0-.85.03-1.3,0-.15.01-.35.01-.59v-1.33c0-.53.03-1.26.08-2.18s.18-2.54.37-4.86c.03-.47.14-.84.33-1.12.19-.27.47-.41.83-.41.2,0,.38.12.56.38.17.25.26.65.26,1.2,0,.84-.02,1.35-.04,1.54.2-.6.58-1.17,1.15-1.69.57-.52,1.19-.94,1.87-1.25s1.26-.47,1.76-.47c.81,0,1.53.15,2.16.45.62.3.94.9.94,1.8,0,.28-.06.54-.19.78s-.3.42-.5.55-.41.2-.63.2c-.19,0-.33-.03-.42-.1-.09-.07-.17-.17-.25-.31-.12-.22-.28-.38-.48-.5-.2-.12-.56-.18-1.06-.18h-.34c-1.51,0-2.59.4-3.24,1.19Z"/>
    <path class="cls-4" d="M331.61,41.32c.13.19.2.49.2.91,0,.32-.09.64-.28.96-.19.32-.45.59-.77.79-.33.21-.69.31-1.09.31s-.78-.13-1.17-.4c-.39-.27-.71-.62-.96-1.06-.25-.44-.37-.89-.37-1.35-.75.9-1.52,1.62-2.32,2.16-.8.54-1.65.81-2.55.81-.82,0-1.66-.25-2.51-.76s-1.55-1.2-2.09-2.06c-.55-.86-.82-1.8-.82-2.8,0-1.35.32-2.67.97-3.96s1.51-2.35,2.6-3.16,2.26-1.22,3.52-1.22c.95,0,1.84.27,2.66.82.82.55,1.47,1.25,1.95,2.12.48.86.72,1.74.72,2.63,0,.38-.03.76-.09,1.13s-.09.61-.1.71c-.08.44-.14.84-.18,1.18s-.06.71-.06,1.1c0,.56.09.96.26,1.2.17.24.43.36.78.36.09,0,.18-.03.28-.1.09-.07.21-.16.33-.28.02-.02.08-.07.17-.15.09-.08.18-.13.26-.16.31,0,.53.09.66.28ZM325.47,40.81c.63-.61,1.07-1.31,1.3-2.1.23-.79.45-1.81.65-3.08,0-.29-.18-.63-.55-1.01s-.81-.7-1.32-.98c-.51-.27-.97-.41-1.38-.41-1.02,0-1.94.27-2.74.81-.8.54-1.43,1.24-1.87,2.09-.44.85-.66,1.71-.66,2.59,0,.58.19,1.09.57,1.55.38.46.87.81,1.47,1.07s1.21.38,1.84.38c1.16,0,2.06-.31,2.7-.92Z"/>
    <path class="cls-4" d="M334.95,34.14c.43,1.39.82,2.6,1.19,3.62s.83,2.14,1.38,3.34c.17-.17.52-.78,1.06-1.82.54-1.04,1.45-2.98,2.74-5.8.64-1.2,1.12-2.05,1.45-2.54.33-.5.6-.74.82-.74.26,0,.46.15.61.45.15.3.22.66.22,1.1,0,.19-.04.4-.13.64-.09.24-.27.62-.54,1.15-.27.53-.62,1.17-1.03,1.93l-.55,1.01c-2.37,5.37-4.06,8.06-5.06,8.06-.57,0-1.22-.96-1.97-2.87-.74-1.92-1.58-4.49-2.52-7.72-.32-.69-.48-1.3-.48-1.84,0-.42.05-.77.15-1.05.1-.27.31-.41.62-.41.41,0,.7.11.88.33.18.22.35.61.52,1.17l.64,2Z"/>
    <path class="cls-4" d="M367.57,40.78c.17.2.25.54.25,1.01,0,.88-.67,1.46-2.02,1.76-1.35.29-2.66.44-3.94.44-.95,0-1.85-.25-2.7-.75s-1.53-1.18-2.05-2.02c-.58.91-1.37,1.67-2.38,2.28s-2.3.92-3.86.92c-.97,0-1.82-.19-2.55-.58s-1.28-.91-1.66-1.58c-.38-.67-.57-1.4-.57-2.22,0-1.57.43-2.75,1.29-3.55.86-.8,2.27-1.2,4.23-1.2s3.3.41,4.26,1.22c-.04-1-.29-1.75-.75-2.25-.46-.5-.99-.82-1.59-.96s-1.29-.21-2.05-.21c-.48,0-.92.04-1.32.11-.4.07-.73.17-.98.29l-.43.18c-.07.03-.21.09-.42.19-.21.1-.39.15-.51.15-.45,0-.75-.1-.92-.3-.17-.2-.25-.58-.25-1.14s.31-.96.93-1.27c.62-.31,1.34-.52,2.17-.64.82-.12,1.6-.18,2.34-.18,1.14,0,2.14.25,2.99.76.85.51,1.5,1.24,1.94,2.2.53-1.09,1.28-1.92,2.26-2.5.98-.58,2.16-.87,3.55-.87.76,0,1.53.18,2.29.54.76.36,1.39.89,1.88,1.57.49.68.74,1.48.74,2.39,0,.49-.07.84-.2,1.06s-.37.36-.71.44c-.07.03-.28.09-.63.2-2.08.64-4.78,1.53-8.12,2.66.33.97.96,1.63,1.88,1.98.93.34,1.91.52,2.96.52.37,0,.73-.05,1.09-.14s.81-.24,1.33-.42c.35-.12.62-.21.83-.28.21-.06.39-.09.55-.09.39,0,.67.1.83.3ZM353.24,41.52c.61-.23,1.13-.51,1.56-.85s.77-.68,1.01-1.03c-.09-.61-.55-1.06-1.39-1.34-.84-.28-1.77-.42-2.81-.42-1.16,0-2.07.17-2.72.5s-.99.84-1,1.54c0,.33.13.64.39.94.26.3.65.54,1.15.72.51.18,1.12.28,1.83.28s1.36-.11,1.97-.34ZM357.95,36.89c.85-.41,1.75-.79,2.7-1.16s2.21-.84,3.79-1.42c.31-.1.72-.25,1.24-.44-.19-.36-.49-.67-.9-.93s-.9-.4-1.45-.4c-.22,0-.51.03-.86.08-2.42.56-3.93,1.98-4.51,4.26Z"/>
    <path class="cls-4" d="M374.48,34.23c-.65.79-.98,2.01-.98,3.65v.5l.15,4.36c0,.16-.04.36-.11.59-.07.23-.19.43-.36.61-.16.17-.38.26-.63.26-.48,0-.8-.14-.98-.41s-.27-.72-.27-1.35c0-.42,0-.85.03-1.3,0-.15.01-.35.01-.59v-1.33c0-.53.03-1.26.08-2.18s.18-2.54.37-4.86c.03-.47.14-.84.33-1.12.19-.27.47-.41.83-.41.2,0,.38.12.56.38.17.25.26.65.26,1.2,0,.84-.02,1.35-.04,1.54.2-.6.58-1.17,1.15-1.69.57-.52,1.19-.94,1.87-1.25s1.26-.47,1.76-.47c.81,0,1.53.15,2.16.45.62.3.94.9.94,1.8,0,.28-.06.54-.19.78s-.3.42-.5.55-.41.2-.63.2c-.19,0-.33-.03-.42-.1-.09-.07-.17-.17-.25-.31-.12-.22-.28-.38-.48-.5-.2-.12-.56-.18-1.06-.18h-.34c-1.51,0-2.59.4-3.24,1.19Z"/>
  </g>
</svg>