<?xml version="1.0" encoding="UTF-8"?>
<svg id="Layer_1" xmlns="http://www.w3.org/2000/svg" viewBox="0 0 416.36 74.17">
  <defs>
    <style>
      .cls-1 {
        fill: none;
      }

      .cls-1, .cls-2 {
        stroke: #231f20;
        stroke-miterlimit: 10;
        stroke-width: 2px;
      }

      .cls-2 {
        fill: #026955;
      }

      .cls-3 {
        fill: #eaa294;
      }

      .cls-4 {
        fill: #ededed;
      }

      .cls-5 {
        fill: #c18678;
      }
    </style>
  </defs>
  <g>
    <path class="cls-2" d="M413.73,1.26l-.1,71.92-325.4-.53c-2,0-3.99-.39-5.88-1.14L3.1,39.86c-2.82-1.13-2.81-5.48,0-6.6L82.97,1.66c1.54-.61,3.17-.92,4.81-.92l325.96.53Z"/>
    <path class="cls-5" d="M50.87,22.4c-1.17.77-1.82,1.96-2.23,3.29-.19.16-.37.34-.54.51-1.16-.09-2.35.18-3.33.83-.37.25-.7.55-1.01.86-.75-.03-1.5.06-2.25.31-3.99,1.33-4.86,5.94-4.14,9.91.65,3.59,2.73,7.37,5.72,9.17.61.37,1.28.66,1.97.87,1.22,1.87,3.13,3.09,5.6,2.99,2.39-.1,4.71-1.47,6.4-3.48.42.11.86.19,1.33.21,4.63.16,6.47-4.98,5.86-9.34.11-2.09-.67-4.24-1.94-5.78-.14-.17-.29-.31-.44-.46.53-.98.64-2.24.04-3.25-.25-.43-.54-.82-.84-1.2,0,0,0,0,0,0-.28-.43-.56-.86-.85-1.28-.67-.98-1.36-1.99-2.19-2.81-1.94-1.91-4.72-2.94-7.14-1.35Z"/>
    <path class="cls-3" d="M81.52,2.24c-.83.12-1.47.55-2.06,1.16-.04.04-.28.3-.47.51-.22.04-.45.15-.66.21-.27.07-.55.12-.83.17-.09.01-.33.05-.41.06-1.24.16-2.52.27-3.71.73-1.35.51-2.28,1.39-3.41,2.31.32-.26-.46.31-.44.3-.24.16-.48.3-.72.44-.37.21-.75.42-1.12.62-.27-.01-.54,0-.81.05-1.1.2-2.1.78-3.03,1.43-.44-.11-.89-.11-1.35.08-.61.25-1.22.53-1.82.81-.22.1-.45.21-.67.31-.1.05-.8.44-.19.09-.42.24-.91.4-1.36.56-.23.08-.46.14-.69.22-.02,0-.02,0-.04.02-1.47.03-2.61.77-3.6,1.91,0,.01-.02.02-.03.03-.64.22-1.26.46-1.88.76-.23.11-.44.25-.66.39-1.52.14-3.07.17-4.51.76-.79.33-1.56.73-2.3,1.21-.06-.02-.12-.05-.18-.06-1.17-.23-2.16-.05-3.2.6-.61.38-1.2.76-1.83,1.1-.16.09-.33.17-.49.26-.03.01-.2.09-.29.14-.1.04-.25.1-.28.11-.18.07-.36.14-.55.21-.76.29-1.52.55-2.29.81-1.67.55-3.26,1.29-4.86,2.05-.36.17-.72.34-1.08.5-.22.1-.44.21-.66.32-.03.01-.2.09-.3.14-.1.04-.29.13-.32.14-.17.07-.34.13-.51.2-.48.18-.96.38-1.4.65-.06.04-.11.09-.17.13-.87-.48-1.94-.52-2.8.08-1.33.94-1.93,2.88-1.07,4.43.45.81.77,1.54,1.36,2.27.08.1.16.19.24.29.01.02.02.03.03.05.03.08.06.13.08.17.04.13.08.26.12.4.03.13.12.9.13.8.02.33.04.65.03.98,0,.39-.02.79-.04,1.18-.01.19-.02.38-.04.57,0,.06,0,.1-.01.14,0,.05-.02.13-.04.28-.04.21-.08.42-.12.62-.09.42-.18.83-.28,1.24-.18.84-.3,1.68-.45,2.52-.08.42-.19.83-.29,1.25,0,.03-.01.04-.02.06-.05.1-.09.2-.14.29-.02.04-.05.08-.07.12-1.51.31-2.48,2.44-2.03,3.97.54,1.82,2,2.56,3.65,2.27.38-.07.73-.2,1.07-.38.18.21.39.4.64.54,1.68.96,3.44,1.32,5.26,1.8.4.1.78.25,1.17.36,0,0,0,.01.02.02.11.11.3.22.43.3.01,0,.02,0,.03.02.13.11.25.22.38.33.42.37.85.76,1.31,1.08,1.47,1.02,3.28,1.06,4.88,1.73,1,.42,2.04.77,3.09,1.09.53.78,1.35,1.29,2.33,1.31.85.01,1.19.08,2.02.23.66.12,1.33.22,1.99.32.21.26.45.49.75.65.5.25.9.63,1.35.96.61.45,1.31.76,2,1.03,1.14.46,2.35.69,3.52,1.09,2.48.86,4.84,2.08,7.33,2.94,0,0,0,0,0,0,.06.05.12.11.18.16,1.06.85,2.29,1.24,3.48,1.82,1.37.66,2.66,1.46,4.05,2.05,1.4.6,2.87.95,4.28,1.51,2.53,1,4.88,2.35,7.57,2.78,1.94.31,4.17.49,6.06-.3,2.73.48,5.26-.47,7.86-1.31.4-.13.79-.29,1.18-.44,2.26.48,4.11-.39,6.18-1.41,1.86-.91,4.11-1.13,5.29-3.17.89-1.52.82-3.4.69-5.12-.2-2.74-1.78-4.37-4.05-5.3-1.86-.76-3.72-1.46-5.56-2.27-1.66-.73-3.13-1.77-4.75-2.59-1.91-.97-3.97-1.36-6.03-1.75-.55-.1-1.1-.21-1.65-.3.97-.22,1.91-.52,2.87-.77.2.05.4.07.61.07,1.05,0,2.06-.01,3.1-.2.34-.06.67-.16,1-.28.07.03.13.07.21.09,1.24.37,2.7.24,3.9-.22,1.19-.46,2.15-1.31,3.27-1.92.02-.01.03-.02.04-.02.02,0,.02,0,.05-.02.14-.06.27-.12.4-.17.27-.12.54-.23.81-.34.73-.32,1.47-.64,2.17-1.04,1.2-.68,2.22-1.56,2.89-2.86.67-1.31,1.02-2.74.62-4.14-.03-1.05-.25-2.09-.7-2.89-.92-1.63-2.46-2.33-3.97-3.08-.21-.21-.42-.43-.64-.63-.62-.55-1.33-.88-2.06-.91-.11-.08-.23-.14-.34-.22-.73-.57-1.47-1.4-2.35-1.92-1.77-1.04-3.72-1.47-5.67-1.9-.9-.2-1.82-.39-2.74-.56.43-.52.64-1.09.7-1.65,3.06-.15,6.18-.63,9.15-1.37,2.94-.74,5.96-2.21,7.65-5.09,2.01-3.44.53-7.26-2.36-9.35-.14-.1-.29-.17-.44-.26-.39-1.07-1.26-1.91-2.62-1.95-2.29-.05-4.68-.76-6.89-1.09-2.32-.34-4.69-1.04-7.11-1.11-2.27-.06-4.73-.33-7,.03-.56-.34-1.21-.5-1.95-.39Z"/>
    <path class="cls-1" d="M19.46,46.39c5.5-5.39,6.14-14.38,1.45-20.09"/>
    <path class="cls-1" d="M82.97,1.66c21.95.04,28.93,4.83,28.58,11.72"/>
    <path class="cls-1" d="M85.08,23.69c14.62.03,26.46-4.58,26.47-10.31"/>
    <path class="cls-1" d="M85.09,23.68c14.62.03,26.44,6.25,26.43,13.9"/>
    <path class="cls-1" d="M85.05,48.91c14.62.03,26.46-5.04,26.47-11.33"/>
    <path class="cls-1" d="M85.05,48.91c14.62.03,26.45,5.88,26.43,13.08"/>
    <path class="cls-1" d="M83.6,71.95c15.15,1.84,27.88-4.04,27.89-9.96"/>
    <line class="cls-1" x1="11.23" y1="43.1" x2="83.6" y2="71.95"/>
    <line class="cls-1" x1="11.92" y1="29.77" x2="83.69" y2="1.37"/>
  </g>
  <g>
    <path class="cls-4" d="M154.95,42.81c-.14.17-.31.31-.51.42-.19.1-.36.16-.5.16-.41,0-.68-.19-.81-.57-.13-.38-.2-.93-.2-1.64,0-.23.01-1.19.04-2.89.02-.93.03-1.55.03-1.88,0-.77,0-1.81-.03-3.12v-2.38c-.01-1.67.06-2.9.22-3.7s.45-1.19.9-1.19c.15,0,.3.09.46.28.16.18.29.42.4.69.11.28.16.54.16.79l-.02,2.82c0,.63-.01,1.56-.01,2.79h7.58c-.04-2.86-.06-4.64-.06-5.35.02-.68.09-1.2.22-1.55.12-.35.37-.53.75-.53.45,0,.75.22.91.67s.24,1.15.24,2.11c0,.17,0,.32-.01.45,0,.22,0,.69-.02,1.42,0,.73-.01,1.7-.01,2.9.07.13.13.3.19.5.05.2.09.4.1.61l-.19.93c.08,2.26.12,4.38.12,6.37,0,.42-.1.78-.31,1.07-.2.29-.47.43-.8.43-.42,0-.71-.15-.89-.45s-.26-.85-.25-1.64l.09-5.17h-3.02c-1.32,0-2.29,0-2.92.03s-1.19.05-1.7.1c.05,3.66.07,5.48.07,5.44l.02.55c-.01.19-.09.37-.23.55Z"/>
    <path class="cls-4" d="M182.55,40.44c.13.19.2.49.2.91,0,.32-.09.64-.28.96s-.45.59-.77.79c-.33.21-.69.31-1.09.31s-.78-.13-1.17-.4c-.39-.27-.71-.62-.96-1.06-.25-.44-.37-.89-.37-1.35-.74.9-1.52,1.62-2.32,2.16-.8.54-1.65.81-2.55.81-.82,0-1.66-.25-2.51-.76-.85-.51-1.55-1.2-2.09-2.06-.55-.86-.82-1.8-.82-2.8,0-1.35.32-2.67.97-3.96.65-1.29,1.51-2.35,2.6-3.16,1.09-.81,2.26-1.22,3.52-1.22.95,0,1.84.27,2.66.82.82.55,1.47,1.25,1.95,2.12.48.86.72,1.74.72,2.63,0,.38-.03.76-.09,1.13s-.09.61-.1.71c-.08.44-.14.84-.18,1.18s-.06.71-.06,1.1c0,.56.09.96.26,1.2.17.24.43.36.78.36.09,0,.18-.03.28-.1s.21-.16.34-.28c.02-.02.08-.07.17-.15.09-.08.18-.13.26-.16.31,0,.53.09.66.28ZM176.41,39.93c.64-.61,1.07-1.31,1.3-2.1.23-.79.45-1.81.65-3.08,0-.29-.18-.63-.55-1.01-.37-.38-.81-.7-1.32-.98-.51-.27-.97-.41-1.38-.41-1.02,0-1.94.27-2.74.81-.8.54-1.43,1.24-1.87,2.09-.44.85-.66,1.71-.66,2.59,0,.58.19,1.09.57,1.55.38.46.87.81,1.47,1.07.6.25,1.21.38,1.84.38,1.16,0,2.06-.31,2.7-.92Z"/>
    <path class="cls-4" d="M187.4,33.35c-.65.79-.98,2.01-.98,3.65v.5l.15,4.36c0,.16-.04.36-.11.59-.07.23-.19.43-.36.61-.16.17-.37.26-.63.26-.48,0-.8-.14-.98-.41s-.27-.72-.27-1.35c0-.42,0-.85.03-1.3,0-.15.01-.35.01-.59v-1.33c0-.53.03-1.26.08-2.18.05-.93.18-2.54.36-4.86.03-.47.14-.84.33-1.12.19-.27.47-.41.83-.41.2,0,.38.12.56.38.17.25.26.65.26,1.2,0,.84-.01,1.35-.04,1.54.2-.6.58-1.17,1.15-1.69.57-.52,1.19-.94,1.87-1.25.67-.31,1.26-.47,1.76-.47.81,0,1.53.15,2.16.45s.94.9.94,1.8c0,.28-.06.54-.19.78s-.3.42-.5.55-.41.2-.63.2c-.19,0-.33-.03-.42-.1s-.17-.17-.25-.31c-.12-.22-.28-.38-.48-.5-.2-.12-.56-.18-1.06-.18h-.34c-1.51,0-2.59.4-3.24,1.19Z"/>
    <path class="cls-4" d="M210.08,29.93c.53.22.97.52,1.3.92s.54.85.6,1.36l.03-4.06.03-4.04c0-.99.38-1.49,1.13-1.49.29,0,.5.13.63.4.13.26.19.58.19.95v2.1s-.04,2.14-.04,2.14l-.18,8.99-.06,2.45c-.01,1.26-.1,2.2-.26,2.84-.16.64-.5.96-1,.96-.2,0-.37-.12-.51-.37-.14-.25-.3-.6-.48-1.08-.33.3-.76.56-1.3.77-.54.21-1.09.37-1.65.48-.57.11-1.06.16-1.47.16-1.78,0-3.12-.56-4.04-1.67-.91-1.11-1.37-2.63-1.37-4.55,0-1.32.27-2.56.81-3.72.54-1.16,1.32-2.1,2.35-2.8s2.22-1.06,3.6-1.06c.6,0,1.16.11,1.69.33ZM209.47,40.6c.6-.2,1.08-.45,1.43-.73s.57-.54.65-.78c.08-.25.13-.51.16-.79.02-.28.04-.61.04-.99v-1.3c0-.64-.15-1.25-.46-1.83-.31-.58-.72-1.04-1.23-1.39-.51-.35-1.04-.52-1.6-.52-.96,0-1.8.21-2.52.62s-1.27.99-1.65,1.72c-.38.73-.57,1.56-.57,2.5,0,.76.16,1.44.48,2.01.32.58.77,1.02,1.33,1.32.57.31,1.2.46,1.89.46.77,0,1.46-.1,2.06-.3Z"/>
    <path class="cls-4" d="M219.46,32.68c-.14.71-.24,1.3-.31,1.78-.07.48-.1.96-.1,1.44,0,.69.07,1.41.22,2.17.15.76.43,1.43.85,2,.42.57,1,.86,1.74.86.92,0,1.69-.24,2.3-.71s1.18-1.13,1.72-1.97c.02-.25.07-1.16.16-2.75l.03-.71.04-3.95c0-.41.12-.71.36-.91s.49-.3.74-.3c.23,0,.43.1.62.3.18.2.28.47.28.82l-.24,11.27c0,.53-.08.89-.22,1.07-.14.18-.38.28-.73.28-.3,0-.52-.05-.68-.15-.15-.1-.27-.31-.34-.62-.07-.32-.1-.81-.1-1.48,0-.48,0-.87.03-1.18-.17.69-.46,1.32-.87,1.88-.41.57-.88,1.01-1.41,1.33-.53.32-1.04.48-1.55.48-1.96,0-3.27-.75-3.95-2.26-.68-1.51-1.01-3.23-1.01-5.16,0-.98.06-1.98.18-2.98.12-1,.32-1.86.6-2.56.28-.7.65-1.05,1.11-1.05.55,0,.82.33.82,1.01,0,.39-.1,1.06-.3,2.02Z"/>
    <path class="cls-4" d="M237.7,32.24c.3-.64.72-1.16,1.26-1.56.54-.4,1.12-.69,1.73-.86.61-.17,1.19-.26,1.74-.26,1.46,0,2.71.25,3.75.75,1.04.5,1.83,1.18,2.38,2.05.54.87.81,1.85.81,2.93,0,1.62-.28,3.05-.85,4.27-.57,1.22-1.37,2.17-2.42,2.83-1.05.67-2.27,1-3.67,1-.49,0-.92-.03-1.31-.08-.39-.05-.9-.14-1.53-.26v1.16c0,.69.05,1.55.15,2.59.1,1.02.15,1.86.15,2.51,0,.36-.13.64-.39.86-.26.21-.53.32-.82.32-.41,0-.7-.1-.87-.31-.17-.21-.28-.5-.32-.87-.04-.37-.06-.96-.06-1.76,0-1.4.09-6.49.28-15.29ZM239.55,38.76c.04.86.06,1.45.08,1.75,0,.08.21.13.65.16.44.03.86.04,1.24.04,1.04,0,2-.18,2.87-.55.87-.36,1.57-.92,2.09-1.67.53-.75.79-1.68.79-2.78s-.43-2.01-1.3-2.61c-.86-.59-2.06-.89-3.59-.89-.34,0-.72.05-1.16.16s-.81.25-1.13.45c-.32.19-.48.42-.48.67l-.09,3.58c-.02.26-.01.83.02,1.69Z"/>
    <path class="cls-4" d="M255.84,33.35c-.65.79-.98,2.01-.98,3.65v.5l.15,4.36c0,.16-.04.36-.11.59-.07.23-.19.43-.36.61-.16.17-.37.26-.63.26-.48,0-.8-.14-.98-.41s-.27-.72-.27-1.35c0-.42,0-.85.03-1.3,0-.15.01-.35.01-.59v-1.33c0-.53.03-1.26.08-2.18s.18-2.54.37-4.86c.03-.47.14-.84.33-1.12s.47-.41.83-.41c.2,0,.38.12.56.38.17.25.26.65.26,1.2,0,.84-.01,1.35-.04,1.54.2-.6.58-1.17,1.15-1.69.57-.52,1.19-.94,1.87-1.25.67-.31,1.26-.47,1.76-.47.81,0,1.53.15,2.16.45.62.3.94.9.94,1.8,0,.28-.07.54-.19.78s-.29.42-.5.55c-.2.13-.41.2-.63.2-.19,0-.33-.03-.42-.1-.09-.07-.17-.17-.25-.31-.12-.22-.28-.38-.48-.5-.2-.12-.56-.18-1.07-.18h-.34c-1.51,0-2.59.4-3.24,1.19Z"/>
    <path class="cls-4" d="M266.99,42.52c-.92-.7-1.66-1.58-2.21-2.65-.55-1.07-.83-2.13-.83-3.17,0-1.64.3-3,.9-4.06.6-1.07,1.38-1.84,2.34-2.33.96-.49,1.99-.73,3.11-.73,1.18,0,2.2.29,3.05.87.85.58,1.51,1.41,1.96,2.48.45,1.07.68,2.33.68,3.77,0,1.31-.29,2.49-.86,3.54s-1.32,1.86-2.25,2.45-1.91.88-2.94.88-2.03-.35-2.95-1.05ZM273.59,34.34c-.29-.65-.7-1.16-1.21-1.52-.52-.36-1.09-.55-1.73-.55-.78,0-1.54.16-2.28.47-.74.32-1.34.79-1.8,1.41s-.7,1.37-.7,2.25c0,.74.19,1.46.56,2.16.38.7.87,1.27,1.47,1.71.61.44,1.23.66,1.88.66.73,0,1.43-.17,2.08-.52.65-.35,1.17-.85,1.57-1.51.4-.66.6-1.43.6-2.33,0-.84-.15-1.59-.44-2.24Z"/>
    <path class="cls-4" d="M281.05,43.07c-.12,0-.23.02-.33.07s-.16.08-.19.08c-.2.12-.4.18-.6.18-.47,0-.77-.24-.92-.71-.14-.48-.22-1.23-.22-2.26v-1.22l.25-15.41c0-.42.08-.76.23-.99.15-.24.43-.35.83-.35.13,0,.27.05.43.14s.29.22.4.39c.11.17.16.35.16.56,0,.84-.02,1.74-.04,2.69-.04,1.62-.06,3.13-.06,4.52.61-.35,1.19-.62,1.76-.82.57-.2,1.14-.3,1.71-.3,1.84,0,3.22.56,4.15,1.67s1.4,2.77,1.4,4.96c0,1.63-.38,2.98-1.14,4.05s-1.68,1.84-2.75,2.33c-1.07.49-2.08.73-3.04.73-.67,0-1.35-.1-2.05-.31ZM281.01,39.52c.04.48.1.8.19.96.3.15.93.23,1.91.23.46,0,.96-.09,1.53-.28.56-.18,1.08-.43,1.57-.75.49-.32.85-.66,1.1-1.03.18-.31.32-.79.43-1.42.11-.64.16-1.24.16-1.82s-.21-1.1-.63-1.56c-.42-.47-.93-.83-1.53-1.1-.6-.26-1.15-.4-1.65-.4-.53,0-1.1.14-1.73.43-.63.29-1.08.62-1.37,1-.03.78-.04,1.77-.04,2.97,0,1.36.02,2.28.05,2.76Z"/>
    <path class="cls-4" d="M298.33,40.41c.14.26.22.58.22.93s-.12.7-.35,1.01-.52.54-.86.71c-.34.17-.64.25-.91.25-.97,0-1.68-.3-2.13-.89-.45-.59-.67-1.47-.66-2.62l.19-15.53c0-.62.09-1.13.27-1.51.18-.38.46-.57.83-.57.25,0,.45.14.62.42.16.28.25.58.25.9l-.19,13.61v.48c0,.89.07,1.62.2,2.21.13.59.35.88.65.88.13,0,.24-.03.33-.08.09-.06.19-.14.31-.25s.22-.2.31-.25c.08-.05.19-.08.31-.08.27,0,.47.13.62.4Z"/>
    <path class="cls-4" d="M311.71,40.33c.18.22.28.56.28,1.02,0,.89-.67,1.47-2.02,1.76-1.35.28-2.67.42-3.98.42-.98,0-1.93-.27-2.84-.81-.91-.54-1.65-1.28-2.22-2.22-.57-.93-.85-1.96-.85-3.07,0-1.6.27-3.01.82-4.23s1.34-2.18,2.39-2.87c1.05-.68,2.29-1.03,3.73-1.03.76,0,1.52.18,2.27.54.75.36,1.37.88,1.85,1.57s.73,1.5.73,2.44c0,.48-.07.88-.22,1.21-.15.33-.35.53-.61.62l-9.01,3.06c.31.93.93,1.54,1.88,1.83s1.99.42,3.14.42c.38,0,.75-.05,1.13-.16.38-.1.82-.25,1.34-.44.33-.12.6-.22.81-.28.21-.07.4-.1.56-.1.37,0,.64.11.83.33ZM304.42,35.74c.95-.36,2.17-.83,3.66-1.42,1-.4,1.69-.66,2.05-.79-.27-.55-.72-.95-1.35-1.2-.64-.25-1.37-.38-2.2-.38-.47,0-1.04.17-1.73.5-.68.33-1.32.85-1.89,1.55-.58.7-.94,1.56-1.09,2.58.75-.2,1.59-.48,2.55-.84Z"/>
    <path class="cls-4" d="M331.68,36.28c0-.53-.14-1.06-.42-1.59-.28-.53-.68-.97-1.21-1.32-.53-.34-1.14-.52-1.85-.52-.37,0-.78.09-1.25.28-.47.18-.9.44-1.3.77-.4.33-.68.7-.85,1.1l-.15,5.76.06.42.06.44c0,.47-.09.88-.28,1.22s-.42.51-.7.51c-.44,0-.79-.11-1.06-.33-.27-.22-.41-.62-.41-1.22l.04-.3c.08-.65.12-1.03.12-1.15l.06-4.23c0-.56-.1-1.12-.33-1.68-.23-.56-.55-1.02-.98-1.39-.42-.36-.9-.55-1.44-.55-.74,0-1.31.09-1.73.27s-.71.46-.89.85-.26.91-.26,1.57v.55c0,.52.03,1.28.09,2.28,0,.17,0,.4.03.68l.27,3.26c0,.27-.07.52-.21.74-.14.22-.3.39-.48.51s-.33.18-.44.18c-.44,0-.76-.14-.97-.41-.21-.27-.31-.78-.31-1.52v-.48c.02-.07.03-.17.03-.33v-2.28c-.02-.34-.03-.78-.03-1.33v-2.27c0-1.13.02-2.02.07-2.66.04-.64.14-1.14.29-1.49.15-.35.37-.52.67-.52.59,0,.88.5.88,1.5v.25c.14-.36.37-.7.68-1.01.32-.32.68-.57,1.09-.77s.83-.3,1.24-.3c.53,0,1.12.13,1.77.38s1.22.65,1.7,1.2c.48.54.71,1.22.71,2.03.14-.64.45-1.21.93-1.69.48-.49,1.04-.86,1.66-1.12.63-.26,1.2-.39,1.71-.39,1.74,0,3.08.59,4.04,1.78.96,1.18,1.44,3.02,1.44,5.5,0,1.69-.11,3.12-.34,4.3s-.58,1.77-1.04,1.77c-.25,0-.48-.09-.69-.28-.21-.18-.38-.41-.51-.69s-.19-.53-.19-.76c0-.32.03-.6.08-.84.05-.24.13-.51.23-.8.11-.31.19-.59.25-.84.05-.25.08-.54.08-.89l.02-2.19Z"/>
    <path class="cls-4" d="M348.26,40.33c.18.22.28.56.28,1.02,0,.89-.67,1.47-2.02,1.76-1.35.28-2.67.42-3.98.42-.98,0-1.93-.27-2.84-.81-.91-.54-1.65-1.28-2.22-2.22-.57-.93-.85-1.96-.85-3.07,0-1.6.27-3.01.82-4.23s1.34-2.18,2.39-2.87c1.05-.68,2.29-1.03,3.73-1.03.76,0,1.52.18,2.27.54.75.36,1.37.88,1.85,1.57s.73,1.5.73,2.44c0,.48-.07.88-.22,1.21-.15.33-.35.53-.61.62l-9.01,3.06c.31.93.93,1.54,1.88,1.83s1.99.42,3.14.42c.38,0,.75-.05,1.13-.16.38-.1.82-.25,1.34-.44.33-.12.6-.22.81-.28.21-.07.4-.1.56-.1.37,0,.64.11.83.33ZM340.97,35.74c.95-.36,2.17-.83,3.66-1.42,1-.4,1.69-.66,2.05-.79-.27-.55-.72-.95-1.35-1.2-.64-.25-1.37-.38-2.2-.38-.47,0-1.04.17-1.73.5-.68.33-1.32.85-1.89,1.55-.58.7-.94,1.56-1.09,2.58.75-.2,1.59-.48,2.55-.84Z"/>
    <path class="cls-4" d="M354.84,33.35c-.65.79-.98,2.01-.98,3.65v.5l.15,4.36c0,.16-.04.36-.11.59-.07.23-.19.43-.36.61-.16.17-.38.26-.63.26-.48,0-.8-.14-.98-.41s-.27-.72-.27-1.35c0-.42,0-.85.03-1.3,0-.15.01-.35.01-.59v-1.33c0-.53.03-1.26.08-2.18s.18-2.54.37-4.86c.03-.47.14-.84.33-1.12.19-.27.47-.41.83-.41.2,0,.38.12.56.38.17.25.26.65.26,1.2,0,.84-.02,1.35-.04,1.54.2-.6.58-1.17,1.15-1.69.57-.52,1.19-.94,1.87-1.25s1.26-.47,1.76-.47c.81,0,1.53.15,2.16.45.62.3.94.9.94,1.8,0,.28-.06.54-.19.78s-.3.42-.5.55-.41.2-.63.2c-.19,0-.33-.03-.42-.1-.09-.07-.17-.17-.25-.31-.12-.22-.28-.38-.48-.5-.2-.12-.56-.18-1.06-.18h-.34c-1.51,0-2.59.4-3.24,1.19Z"/>
    <path class="cls-4" d="M366.11,37.7l-.06-.75c-.18-1.57.37-3.28,1.89-5.02,1.37-1.54,2.14-2.67,2.14-3.97,0-1.48-.98-2.47-2.9-2.49-1.1,0-2.32.35-3.08.9l-.73-1.83c1.01-.7,2.75-1.16,4.36-1.16,3.51,0,5.09,2.06,5.09,4.26,0,1.97-1.16,3.39-2.62,5.05-1.34,1.51-1.83,2.78-1.74,4.26l.03.75h-2.38ZM365.44,41.76c0-1.07.76-1.83,1.83-1.83s1.8.75,1.8,1.83c0,1.02-.7,1.8-1.83,1.8-1.07,0-1.8-.78-1.8-1.8Z"/>
  </g>
</svg>