<?xml version="1.0" encoding="UTF-8"?>
<svg id="Layer_1" xmlns="http://www.w3.org/2000/svg" viewBox="0 0 420.61 74.94">
  <defs>
    <style>
      .cls-1 {
        fill: none;
      }

      .cls-1, .cls-2 {
        stroke: #231f20;
        stroke-miterlimit: 10;
        stroke-width: 2px;
      }

      .cls-2 {
        fill: #a42739;
      }

      .cls-3 {
        fill: #eaa294;
      }

      .cls-4 {
        fill: #ededed;
      }

      .cls-5 {
        fill: #c18678;
      }
    </style>
  </defs>
  <g>
    <path class="cls-2" d="M418.94,1.49l-.1,71.92-329-.53c-2.03,0-4.04-.39-5.94-1.14L3.78,40.09c-2.85-1.13-2.84-5.48,0-6.6L84.53,1.88c1.56-.61,3.2-.92,4.86-.92l329.55.53Z"/>
    <path class="cls-5" d="M52.07,22.63c-1.18.77-1.84,1.96-2.25,3.29-.19.16-.37.34-.55.51-1.17-.09-2.38.18-3.37.83-.38.25-.71.55-1.02.86-.76-.03-1.52.06-2.28.31-4.03,1.33-4.91,5.94-4.19,9.91.66,3.59,2.76,7.37,5.78,9.17.61.37,1.29.66,1.99.87,1.23,1.87,3.17,3.09,5.66,2.99,2.41-.1,4.76-1.47,6.47-3.48.43.11.87.19,1.34.21,4.69.16,6.54-4.98,5.93-9.34.11-2.09-.68-4.24-1.96-5.78-.14-.17-.29-.31-.44-.46.54-.98.65-2.24.04-3.25-.26-.43-.54-.82-.85-1.2,0,0,0,0,0,0-.28-.43-.56-.86-.86-1.28-.68-.98-1.37-1.99-2.22-2.81-1.97-1.91-4.77-2.94-7.22-1.35Z"/>
    <path class="cls-3" d="M83.06,2.46c-.83.12-1.48.55-2.09,1.16-.04.04-.29.3-.47.51-.22.04-.45.15-.67.21-.28.07-.56.12-.84.17-.09.01-.33.05-.41.06-1.25.16-2.55.27-3.75.73-1.37.51-2.31,1.39-3.45,2.31.32-.26-.47.31-.44.3-.24.16-.48.3-.73.44-.38.21-.76.42-1.14.62-.27-.01-.54,0-.82.05-1.11.2-2.12.78-3.07,1.43-.44-.11-.9-.11-1.36.08-.62.25-1.23.53-1.84.81-.23.1-.45.21-.68.31-.1.05-.81.44-.2.09-.42.24-.92.4-1.38.56-.23.08-.46.14-.69.22-.02,0-.02,0-.04.02-1.49.03-2.64.77-3.64,1.91,0,.01-.02.02-.03.03-.64.22-1.28.46-1.9.76-.23.11-.45.25-.66.39-1.54.14-3.1.17-4.56.76-.8.33-1.58.73-2.32,1.21-.06-.02-.12-.05-.18-.06-1.18-.23-2.19-.05-3.23.6-.61.38-1.21.76-1.85,1.1-.16.09-.33.17-.5.26-.03.01-.2.09-.3.14-.1.04-.25.1-.28.11-.18.07-.37.14-.55.21-.77.29-1.54.55-2.32.81-1.69.55-3.29,1.29-4.91,2.05-.36.17-.73.34-1.09.5-.22.1-.45.21-.67.32-.03.01-.2.09-.31.14-.1.04-.3.13-.32.14-.17.07-.34.13-.52.2-.48.18-.97.38-1.42.65-.06.04-.11.09-.17.13-.88-.48-1.96-.52-2.83.08-1.35.94-1.95,2.88-1.08,4.43.45.81.78,1.54,1.37,2.27.08.1.16.19.25.29.01.02.02.03.03.05.03.08.06.13.08.17.04.13.08.26.12.4.03.13.12.9.13.8.02.33.04.65.04.98,0,.39-.02.79-.04,1.18-.01.19-.02.38-.04.57,0,.06,0,.1-.01.14,0,.05-.02.13-.04.28-.04.21-.08.42-.12.62-.09.42-.19.83-.28,1.24-.19.84-.3,1.68-.46,2.52-.08.42-.19.83-.29,1.25,0,.03-.01.04-.02.06-.05.1-.09.2-.14.29-.02.04-.05.08-.07.12-1.53.31-2.51,2.44-2.05,3.97.54,1.82,2.02,2.56,3.69,2.27.38-.07.74-.2,1.08-.38.19.21.39.4.65.54,1.7.96,3.48,1.32,5.32,1.8.4.1.79.25,1.18.36,0,0,0,.01.02.02.12.11.3.22.43.3.01,0,.02,0,.03.02.13.11.25.22.38.33.43.37.86.76,1.32,1.08,1.48,1.02,3.32,1.06,4.94,1.73,1.01.42,2.06.77,3.12,1.09.54.78,1.37,1.29,2.36,1.31.86.01,1.2.08,2.04.23.67.12,1.34.22,2.01.32.21.26.45.49.76.65.5.25.91.63,1.36.96.61.45,1.33.76,2.02,1.03,1.16.46,2.38.69,3.55,1.09,2.51.86,4.9,2.08,7.41,2.94,0,0,0,0,0,0,.06.05.12.11.18.16,1.08.85,2.31,1.24,3.52,1.82,1.38.66,2.69,1.46,4.1,2.05,1.41.6,2.9.95,4.32,1.51,2.56,1,4.93,2.35,7.66,2.78,1.97.31,4.22.49,6.13-.3,2.76.48,5.32-.47,7.95-1.31.4-.13.79-.29,1.19-.44,2.28.48,4.16-.39,6.25-1.41,1.88-.91,4.15-1.13,5.35-3.17.9-1.52.83-3.4.7-5.12-.2-2.74-1.8-4.37-4.09-5.3-1.88-.76-3.76-1.46-5.62-2.27-1.68-.73-3.17-1.77-4.8-2.59-1.93-.97-4.02-1.36-6.1-1.75-.55-.1-1.11-.21-1.66-.3.98-.22,1.93-.52,2.9-.77.2.05.4.07.62.07,1.06,0,2.08-.01,3.13-.2.34-.06.68-.16,1.01-.28.07.03.14.07.21.09,1.25.37,2.73.24,3.94-.22,1.21-.46,2.17-1.31,3.31-1.92.02-.01.03-.02.04-.02.02,0,.02,0,.05-.02.14-.06.27-.12.41-.17.27-.12.54-.23.82-.34.74-.32,1.48-.64,2.19-1.04,1.22-.68,2.24-1.56,2.92-2.86.68-1.31,1.03-2.74.63-4.14-.03-1.05-.25-2.09-.7-2.89-.93-1.63-2.48-2.33-4.02-3.08-.22-.21-.42-.43-.65-.63-.63-.55-1.35-.88-2.08-.91-.11-.08-.23-.14-.34-.22-.73-.57-1.49-1.4-2.37-1.92-1.79-1.04-3.76-1.47-5.73-1.9-.91-.2-1.84-.39-2.77-.56.43-.52.65-1.09.71-1.65,3.1-.15,6.24-.63,9.25-1.37,2.97-.74,6.03-2.21,7.74-5.09,2.04-3.44.53-7.26-2.39-9.35-.14-.1-.3-.17-.44-.26-.39-1.07-1.27-1.91-2.64-1.95-2.31-.05-4.73-.76-6.97-1.09-2.35-.34-4.74-1.04-7.19-1.11-2.29-.06-4.78-.33-7.07.03-.56-.34-1.23-.5-1.97-.39Z"/>
    <path class="cls-1" d="M20.32,46.62c5.56-5.39,6.21-14.38,1.46-20.09"/>
    <g>
      <path class="cls-1" d="M84.53,1.88c22.19.04,29.25,4.83,28.9,11.72"/>
      <path class="cls-1" d="M86.66,23.92c14.78.03,26.76-4.58,26.77-10.31"/>
    </g>
    <g>
      <path class="cls-1" d="M86.68,23.91c14.78.03,26.73,6.25,26.72,13.9"/>
      <path class="cls-1" d="M86.63,49.14c14.78.03,26.75-5.04,26.76-11.33"/>
    </g>
    <g>
      <path class="cls-1" d="M86.63,49.14c14.78.03,26.74,5.88,26.72,13.08"/>
      <path class="cls-1" d="M85.16,72.18c15.32,1.84,28.18-4.04,28.19-9.96"/>
    </g>
    <line class="cls-1" x1="11.99" y1="43.33" x2="85.16" y2="72.18"/>
    <line class="cls-1" x1="12.69" y1="30" x2="85.26" y2="1.6"/>
  </g>
  <g>
    <path class="cls-4" d="M190.44,45.34c-.08.04-.17.07-.26.11-.09.03-.19.05-.28.05-.21,0-.45-.06-.71-.17s-.5-.28-.69-.51c-.19-.23-.29-.5-.29-.81,0-.08.02-.52.05-1.32.03-.81.08-3.75.14-8.83,0-1.26.1-2.41.29-3.46.19-1.05.53-1.65,1-1.81.71-.22,1.48-.38,2.3-.5s1.57-.17,2.26-.17c.43,0,.88.11,1.36.33.48.22.88.54,1.21.95.33.41.49.88.49,1.42,0,1.02-.32,1.97-.95,2.85,1.13.42,2.02,1.04,2.67,1.88.65.83.98,1.88.98,3.12,0,1.51-.39,2.78-1.18,3.79s-1.83,1.78-3.13,2.27c-1.3.5-2.73.74-4.29.74-.05,0-.13-.01-.25-.04-.11-.02-.22-.04-.31-.04-.1,0-.24.04-.42.13ZM190.16,37.37l-.03.69v.65c0,1.57.05,2.81.15,3.74l.97-.07c1.4-.09,2.58-.24,3.53-.42s1.78-.57,2.49-1.15c.71-.58,1.06-1.43,1.06-2.55,0-.54-.23-1.01-.69-1.41-.46-.4-1.04-.71-1.73-.92-.69-.21-1.37-.32-2.03-.32-.2,0-.4.03-.62.1s-.5.17-.86.33c-.42.17-.79.31-1.13.42-.34.11-.7.19-1.09.23l-.03.68ZM194.96,30.72c-.43-.08-.96-.13-1.57-.13-.3,0-.69.03-1.18.08-.49.05-.93.14-1.33.26-.39.12-.59.28-.6.48l-.09,2.22c.23,0,.55-.05.96-.14.41-.09,1.29-.34,2.63-.75,1.22-.72,1.83-1.27,1.83-1.67,0-.15-.22-.27-.65-.35Z"/>
    <path class="cls-4" d="M203,40.82c-.27-.8-.41-1.51-.41-2.15,0-1.64.3-3,.9-4.06.6-1.06,1.38-1.83,2.32-2.32.95-.48,1.97-.72,3.06-.72,1.16,0,2.19.29,3.1.88.23-.28.52-.56.88-.83.36-.27.67-.4.94-.4.58,0,.86.37.86,1.12,0,.24-.04.43-.11.59-.07.16-.19.3-.34.45-.15.14-.4.35-.75.62.35.6.62,1.31.83,2.11s.31,1.66.31,2.56c0,1.31-.29,2.49-.86,3.54-.57,1.05-1.32,1.86-2.26,2.45s-1.92.88-2.96.88c-.32,0-.75-.09-1.31-.28-.56-.19-1.05-.39-1.47-.59-.05.11-.16.29-.33.53-.17.24-.35.46-.56.66s-.38.3-.54.3c-.42,0-.74-.12-.97-.38-.23-.25-.34-.57-.34-.97,0-.31.07-.58.2-.81.13-.23.33-.49.57-.78,0,0,.09-.1.24-.27-.39-.62-.72-1.33-.99-2.13ZM206.54,39.44c.32-.51,1.01-1.47,2.07-2.89l.51-.68,1.12-1.52c-.1-.06-.21-.09-.33-.1s-.35-.01-.66-.01c-.81,0-1.59.16-2.32.47-.73.31-1.32.78-1.77,1.41-.45.63-.68,1.39-.68,2.29,0,.49.11.99.32,1.5.21.51.41.9.59,1.16l1.16-1.63ZM208.88,39.85c-1.1,1.58-1.74,2.48-1.91,2.72.52.23.99.34,1.42.34.72,0,1.41-.17,2.05-.51s1.17-.83,1.57-1.48c.4-.65.61-1.4.62-2.26,0-.56-.07-1.11-.22-1.67s-.35-.96-.63-1.2c-.58.74-1.54,2.09-2.9,4.06Z"/>
    <path class="cls-4" d="M220.89,35.32c-.65.79-.98,2.01-.98,3.65v.5l.15,4.36c0,.16-.04.36-.11.59-.07.23-.19.43-.36.61-.16.17-.37.26-.63.26-.48,0-.8-.14-.98-.41s-.27-.72-.27-1.35c0-.42,0-.85.03-1.3,0-.15.01-.35.01-.59v-1.33c0-.53.03-1.26.08-2.18.05-.93.18-2.54.36-4.86.03-.47.14-.84.33-1.12.19-.27.47-.41.83-.41.2,0,.38.12.56.38.17.25.26.65.26,1.2,0,.84-.01,1.35-.04,1.54.2-.6.58-1.17,1.15-1.69.57-.52,1.19-.94,1.87-1.25.67-.31,1.26-.47,1.76-.47.81,0,1.53.15,2.16.45s.94.9.94,1.8c0,.28-.06.54-.19.78s-.3.42-.5.55-.41.2-.63.2c-.19,0-.33-.03-.42-.1s-.17-.17-.25-.31c-.12-.22-.28-.38-.48-.5-.2-.12-.56-.18-1.06-.18h-.34c-1.51,0-2.59.4-3.24,1.19Z"/>
    <path class="cls-4" d="M238.65,35.88c-.5-1.1-1.46-1.64-2.87-1.64-.42,0-.9.12-1.44.35s-1.06.56-1.57.97c-.51.41-.92.86-1.24,1.35,0,.32-.01.86-.03,1.61-.02.72-.03,1.21-.03,1.49,0,.29.02.58.06.86.04.28.1.62.18,1.03.06.3.11.62.16.94.04.33.07.63.07.91,0,.54-.06.94-.19,1.22s-.41.41-.83.41-.77-.11-1.03-.34-.38-.68-.36-1.37l.06-5.55c-.11-1.34-.16-2.26-.16-2.76v-.42c0-.83.08-1.59.25-2.28.17-.69.44-1.03.82-1.03.75,0,1.13.62,1.13,1.85,0,.2-.03.59-.09,1.18l-.04.37c.22-.74.62-1.37,1.19-1.9.58-.53,1.2-.93,1.86-1.2.67-.27,1.23-.4,1.7-.4,1.87,0,3.19.73,3.98,2.18s1.18,3.22,1.18,5.3c0,1.93-.09,3.51-.28,4.76s-.58,1.87-1.16,1.87c-.26,0-.47-.03-.62-.09-.16-.06-.29-.21-.39-.44-.1-.23-.15-.59-.15-1.07,0-.31.02-.62.07-.92s.12-.68.22-1.13c.11-.52.19-.93.24-1.23.05-.3.07-.62.07-.96,0-1.5-.25-2.8-.75-3.89Z"/>
    <path class="cls-4" d="M255.57,42.3c.18.22.28.56.28,1.02,0,.89-.67,1.47-2.02,1.76-1.35.28-2.67.42-3.98.42-.98,0-1.93-.27-2.84-.81-.91-.54-1.65-1.28-2.22-2.22-.57-.93-.85-1.96-.85-3.07,0-1.6.27-3.01.82-4.23s1.34-2.18,2.39-2.87c1.05-.68,2.29-1.03,3.73-1.03.76,0,1.52.18,2.27.54.75.36,1.37.88,1.85,1.57s.73,1.5.73,2.44c0,.48-.07.88-.22,1.21-.15.33-.35.53-.61.62l-9.01,3.06c.31.93.93,1.54,1.88,1.83s1.99.42,3.14.42c.38,0,.75-.05,1.13-.16.38-.1.82-.25,1.34-.44.33-.12.6-.22.81-.28.21-.07.4-.1.56-.1.37,0,.64.11.83.33ZM248.28,37.71c.95-.36,2.17-.83,3.66-1.42,1-.4,1.69-.66,2.05-.79-.27-.55-.72-.95-1.35-1.2-.64-.25-1.37-.38-2.2-.38-.47,0-1.04.17-1.73.5-.69.33-1.32.85-1.89,1.55-.58.7-.94,1.56-1.09,2.58.75-.2,1.59-.48,2.55-.84Z"/>
    <path class="cls-4" d="M268.41,38.67c0-.76-.09-1.43-.26-2.02-.17-.59-.56-1.1-1.15-1.52-.6-.42-1.47-.63-2.62-.63-.58,0-1.14.12-1.7.38-.56.25-1.01.56-1.36.93-.35.37-.53.72-.53,1.05v6.66c0,.38-.03.68-.06.91-.03.23-.11.43-.25.6s-.36.25-.66.25-.55-.1-.8-.29c-.24-.19-.36-.59-.36-1.18,0-2.1.04-5.07.13-8.94.08-4.25.12-7.2.12-8.85,0-.23.05-.48.16-.77.11-.29.26-.54.45-.74s.4-.31.63-.31c.25,0,.46.12.64.37s.27.53.27.85v.06c0,.74-.03,1.93-.09,3.57-.07,1.45-.1,2.69-.1,3.7l-.08,1.71c.09-.51.33-.97.72-1.38.39-.41.85-.73,1.38-.96s1.04-.34,1.51-.34c2.29,0,3.88.66,4.77,1.98s1.33,2.89,1.33,4.72l-.15,4.62c0,.06,0,.32-.02.79-.01.47-.12.87-.31,1.2-.19.33-.46.49-.81.49s-.64-.15-.85-.45c-.21-.3-.31-.67-.31-1.11,0-.61.06-1.47.18-2.56.12-1.06.18-1.87.18-2.45v-.33Z"/>
    <path class="cls-4" d="M287.36,42.41c.13.19.2.49.2.91,0,.32-.09.64-.28.96s-.45.59-.77.79c-.33.21-.69.31-1.09.31s-.78-.13-1.17-.4c-.39-.27-.71-.62-.96-1.06-.25-.44-.37-.89-.37-1.35-.75.9-1.52,1.62-2.32,2.16-.8.54-1.65.81-2.55.81-.82,0-1.66-.25-2.51-.76s-1.55-1.2-2.09-2.06c-.55-.86-.82-1.8-.82-2.8,0-1.35.32-2.67.97-3.96s1.51-2.35,2.6-3.16,2.26-1.22,3.52-1.22c.95,0,1.84.27,2.66.82s1.47,1.25,1.95,2.12c.48.86.72,1.74.72,2.63,0,.38-.03.76-.09,1.13s-.09.61-.1.71c-.08.44-.14.84-.18,1.18-.04.34-.06.71-.06,1.1,0,.56.09.96.26,1.2.17.24.43.36.78.36.09,0,.18-.03.28-.1.09-.07.21-.16.34-.28.02-.02.08-.07.17-.15.09-.08.18-.13.26-.16.31,0,.53.09.66.28ZM281.22,41.9c.64-.61,1.07-1.31,1.3-2.1.23-.79.45-1.81.65-3.08,0-.29-.18-.63-.55-1.01-.37-.38-.81-.7-1.32-.98s-.97-.41-1.38-.41c-1.02,0-1.94.27-2.74.81-.8.54-1.43,1.24-1.87,2.09s-.66,1.71-.66,2.59c0,.58.19,1.09.57,1.55.38.46.87.81,1.47,1.07s1.21.38,1.84.38c1.16,0,2.06-.31,2.7-.92Z"/>
    <path class="cls-4" d="M290.7,35.23c.43,1.39.82,2.6,1.19,3.62s.83,2.14,1.38,3.34c.17-.17.52-.78,1.06-1.82.54-1.04,1.45-2.98,2.74-5.8.64-1.2,1.12-2.05,1.44-2.54.33-.5.6-.74.82-.74.26,0,.46.15.61.45.15.3.22.66.22,1.1,0,.19-.04.4-.13.64-.09.24-.27.62-.54,1.15-.27.53-.62,1.17-1.04,1.93l-.55,1.01c-2.37,5.37-4.06,8.06-5.06,8.06-.57,0-1.22-.96-1.97-2.87-.75-1.92-1.58-4.49-2.52-7.72-.32-.69-.48-1.3-.48-1.84,0-.42.05-.77.15-1.05.1-.27.31-.41.63-.41.41,0,.7.11.88.33.18.22.35.61.52,1.17l.64,2Z"/>
    <path class="cls-4" d="M313.41,42.3c.18.22.28.56.28,1.02,0,.89-.67,1.47-2.02,1.76-1.35.28-2.67.42-3.98.42-.98,0-1.93-.27-2.84-.81-.91-.54-1.65-1.28-2.22-2.22-.57-.93-.85-1.96-.85-3.07,0-1.6.27-3.01.82-4.23s1.34-2.18,2.39-2.87c1.05-.68,2.29-1.03,3.73-1.03.76,0,1.52.18,2.27.54.75.36,1.37.88,1.85,1.57s.73,1.5.73,2.44c0,.48-.07.88-.22,1.21-.15.33-.35.53-.61.62l-9.01,3.06c.31.93.93,1.54,1.88,1.83s1.99.42,3.14.42c.38,0,.75-.05,1.13-.16.38-.1.82-.25,1.34-.44.33-.12.6-.22.81-.28.21-.07.4-.1.56-.1.37,0,.64.11.83.33ZM306.12,37.71c.95-.36,2.17-.83,3.66-1.42,1-.4,1.69-.66,2.05-.79-.27-.55-.72-.95-1.35-1.2-.64-.25-1.37-.38-2.2-.38-.47,0-1.04.17-1.73.5-.68.33-1.32.85-1.89,1.55-.58.7-.94,1.56-1.09,2.58.75-.2,1.59-.48,2.55-.84Z"/>
    <path class="cls-4" d="M325.72,35.88c-.5-1.1-1.46-1.64-2.87-1.64-.42,0-.9.12-1.44.35s-1.07.56-1.57.97c-.51.41-.92.86-1.24,1.35,0,.32,0,.86-.03,1.61-.02.72-.03,1.21-.03,1.49,0,.29.02.58.06.86.04.28.1.62.18,1.03.06.3.11.62.16.94.04.33.07.63.07.91,0,.54-.06.94-.19,1.22s-.41.41-.83.41-.77-.11-1.03-.34c-.26-.23-.38-.68-.36-1.37l.06-5.55c-.11-1.34-.16-2.26-.16-2.76v-.42c0-.83.08-1.59.25-2.28s.44-1.03.82-1.03c.75,0,1.13.62,1.13,1.85,0,.2-.03.59-.09,1.18l-.04.37c.22-.74.62-1.37,1.19-1.9.58-.53,1.2-.93,1.86-1.2.67-.27,1.23-.4,1.7-.4,1.87,0,3.19.73,3.98,2.18s1.18,3.22,1.18,5.3c0,1.93-.09,3.51-.28,4.76s-.58,1.87-1.16,1.87c-.26,0-.47-.03-.63-.09-.16-.06-.29-.21-.39-.44-.1-.23-.15-.59-.15-1.07,0-.31.03-.62.08-.92.05-.3.12-.68.22-1.13.11-.52.19-.93.24-1.23s.08-.62.08-.96c0-1.5-.25-2.8-.75-3.89Z"/>
  </g>
</svg>