<?xml version="1.0" encoding="UTF-8"?>
<svg id="Layer_1" xmlns="http://www.w3.org/2000/svg" viewBox="0 0 530.33 74.17">
  <defs>
    <style>
      .cls-1 {
        fill: none;
      }

      .cls-1, .cls-2 {
        stroke: #231f20;
        stroke-miterlimit: 10;
        stroke-width: 2px;
      }

      .cls-2 {
        fill: #026955;
      }

      .cls-3 {
        fill: #eaa294;
      }

      .cls-4 {
        fill: #ededed;
      }

      .cls-5 {
        fill: #c18678;
      }
    </style>
  </defs>
  <g>
    <path class="cls-2" d="M529.47,1.26l-.12,71.92-416.65-.53c-2.57,0-5.11-.39-7.52-1.14L3.69,39.86c-3.61-1.13-3.6-5.48.01-6.6L105.96,1.66c1.97-.61,4.06-.92,6.16-.92l417.36.53Z"/>
    <path class="cls-5" d="M64.85,22.4c-1.49.77-2.33,1.96-2.85,3.29-.24.16-.47.34-.7.51-1.49-.09-3.01.18-4.27.83-.48.25-.9.55-1.29.86-.96-.03-1.92.06-2.89.31-5.1,1.33-6.22,5.94-5.3,9.91.83,3.59,3.5,7.37,7.32,9.17.78.37,1.63.66,2.52.87,1.56,1.87,4.01,3.09,7.17,2.99,3.06-.1,6.02-1.47,8.19-3.48.54.11,1.1.19,1.7.21,5.93.16,8.28-4.98,7.51-9.34.14-2.09-.86-4.24-2.49-5.78-.18-.17-.37-.31-.56-.46.68-.98.82-2.24.05-3.25-.33-.43-.69-.82-1.07-1.2,0,0,0,0,0,0-.36-.43-.72-.86-1.08-1.28-.86-.98-1.74-1.99-2.81-2.81-2.49-1.91-6.04-2.94-9.14-1.35Z"/>
    <path class="cls-3" d="M104.1,2.24c-1.06.12-1.88.55-2.64,1.16-.05.04-.36.3-.6.51-.28.04-.57.15-.85.21-.35.07-.71.12-1.06.17-.12.01-.42.05-.52.06-1.59.16-3.22.27-4.75.73-1.73.51-2.92,1.39-4.37,2.31.41-.26-.59.31-.56.3-.3.16-.61.3-.92.44-.48.21-.96.42-1.44.62-.34-.01-.69,0-1.04.05-1.4.2-2.68.78-3.89,1.43-.56-.11-1.14-.11-1.72.08-.79.25-1.56.53-2.33.81-.29.1-.57.21-.86.31-.13.05-1.02.44-.25.09-.53.24-1.17.4-1.75.56-.29.08-.59.14-.88.22-.03,0-.03,0-.05.02-1.89.03-3.34.77-4.62,1.91-.01.01-.02.02-.04.03-.82.22-1.61.46-2.4.76-.29.11-.57.25-.84.39-1.95.14-3.93.17-5.78.76-1.01.33-2,.73-2.94,1.21-.08-.02-.15-.05-.23-.06-1.5-.23-2.77-.05-4.1.6-.78.38-1.54.76-2.34,1.1-.21.09-.42.17-.63.26-.04.01-.25.09-.37.14-.13.04-.32.1-.35.11-.23.07-.47.14-.7.21-.97.29-1.95.55-2.94.81-2.14.55-4.17,1.29-6.22,2.05-.46.17-.92.34-1.38.5-.28.1-.57.21-.85.32-.03.01-.26.09-.39.14-.13.04-.38.13-.41.14-.22.07-.43.13-.65.2-.61.18-1.23.38-1.8.65-.08.04-.14.09-.22.13-1.12-.48-2.48-.52-3.58.08-1.71.94-2.47,2.88-1.37,4.43.57.81.99,1.54,1.74,2.27.1.1.21.19.31.29.01.02.02.03.04.05.04.08.08.13.1.17.05.13.11.26.15.4.04.13.16.9.17.8.02.33.05.65.04.98,0,.39-.02.79-.05,1.18-.01.19-.03.38-.05.57,0,.06-.01.1-.02.14-.01.05-.03.13-.06.28-.05.21-.1.42-.15.62-.11.42-.24.83-.35,1.24-.24.84-.38,1.68-.58,2.52-.1.42-.24.83-.37,1.25-.01.03-.02.04-.03.06-.06.1-.12.2-.18.29-.03.04-.06.08-.09.12-1.93.31-3.17,2.44-2.6,3.97.69,1.82,2.56,2.56,4.67,2.27.49-.07.94-.2,1.36-.38.24.21.5.4.82.54,2.15.96,4.4,1.32,6.73,1.8.51.1,1,.25,1.5.36,0,0,.01.01.02.02.15.11.38.22.55.3.02,0,.02,0,.04.02.16.11.32.22.48.33.54.37,1.09.76,1.67,1.08,1.88,1.02,4.2,1.06,6.25,1.73,1.27.42,2.61.77,3.95,1.09.68.78,1.73,1.29,2.98,1.31,1.09.01,1.52.08,2.59.23.85.12,1.7.22,2.55.32.26.26.57.49.96.65.63.25,1.15.63,1.73.96.78.45,1.68.76,2.56,1.03,1.46.46,3.01.69,4.5,1.09,3.18.86,6.2,2.08,9.38,2.94,0,0,0,0,0,0,.08.05.15.11.23.16,1.36.85,2.93,1.24,4.46,1.82,1.75.66,3.41,1.46,5.19,2.05,1.79.6,3.67.95,5.47,1.51,3.24,1,6.25,2.35,9.7,2.78,2.49.31,5.34.49,7.77-.3,3.49.48,6.74-.47,10.07-1.31.51-.13,1.01-.29,1.51-.44,2.89.48,5.27-.39,7.91-1.41,2.38-.91,5.26-1.13,6.78-3.17,1.13-1.52,1.05-3.4.89-5.12-.25-2.74-2.28-4.37-5.18-5.3-2.38-.76-4.76-1.46-7.12-2.27-2.13-.73-4.01-1.77-6.08-2.59-2.44-.97-5.09-1.36-7.72-1.75-.7-.1-1.41-.21-2.11-.3,1.24-.22,2.45-.52,3.68-.77.25.05.51.07.78.07,1.34,0,2.64-.01,3.97-.2.44-.06.86-.16,1.28-.28.09.03.17.07.27.09,1.58.37,3.45.24,4.99-.22,1.53-.46,2.75-1.31,4.19-1.92.03-.01.04-.02.06-.02.02,0,.03,0,.06-.02.17-.06.34-.12.52-.17.34-.12.69-.23,1.03-.34.94-.32,1.88-.64,2.78-1.04,1.54-.68,2.84-1.56,3.7-2.86.86-1.31,1.31-2.74.8-4.14-.04-1.05-.32-2.09-.89-2.89-1.17-1.63-3.15-2.33-5.09-3.08-.27-.21-.54-.43-.82-.63-.79-.55-1.71-.88-2.63-.91-.14-.08-.3-.14-.43-.22-.93-.57-1.88-1.4-3.01-1.92-2.26-1.04-4.76-1.47-7.25-1.9-1.16-.2-2.33-.39-3.51-.56.55-.52.82-1.09.9-1.65,3.92-.15,7.91-.63,11.71-1.37,3.76-.74,7.64-2.21,9.8-5.09,2.58-3.44.68-7.26-3.02-9.35-.18-.1-.38-.17-.56-.26-.5-1.07-1.61-1.91-3.35-1.95-2.93-.05-6-.76-8.82-1.09-2.98-.34-6.01-1.04-9.11-1.11-2.91-.06-6.05-.33-8.96.03-.71-.34-1.55-.5-2.5-.39Z"/>
    <path class="cls-1" d="M24.64,46.39c7.04-5.39,7.87-14.38,1.85-20.09"/>
    <path class="cls-1" d="M105.96,1.66c28.1.04,37.05,4.83,36.6,11.72"/>
    <path class="cls-1" d="M108.66,23.69c18.72.03,33.88-4.58,33.9-10.31"/>
    <path class="cls-1" d="M108.68,23.68c18.72.03,33.85,6.25,33.84,13.9"/>
    <path class="cls-1" d="M108.62,48.91c18.72.03,33.88-5.04,33.89-11.33"/>
    <path class="cls-1" d="M108.63,48.91c18.72.03,33.86,5.88,33.84,13.08"/>
    <path class="cls-1" d="M106.76,71.95c19.4,1.84,35.69-4.04,35.71-9.96"/>
    <line class="cls-1" x1="14.1" y1="43.1" x2="106.76" y2="71.95"/>
    <line class="cls-1" x1="14.98" y1="29.77" x2="106.89" y2="1.37"/>
  </g>
  <g>
    <path class="cls-4" d="M184.16,40.73c-.1.06-.19.17-.28.33s-.2.45-.35.88l-1,2.73c-.03.48-.13.86-.29,1.15-.16.28-.34.48-.53.59-.19.11-.34.16-.45.16-.36,0-.62-.08-.8-.24-.17-.16-.26-.45-.26-.88,0-.69.17-1.32.51-1.88l.34-.95c.37-1.05.68-1.9.94-2.56-.03-.09-.04-.23-.04-.4,0-.44.06-.8.17-1.06.11-.26.33-.5.65-.69l2.83-6.33s.04-.08.07-.13c.02-.05.05-.11.08-.18.37-.71.7-1.27,1-1.68.3-.41.61-.62.94-.62.73,0,1.41.5,2.03,1.49.62.99,1.15,2.15,1.59,3.49.44,1.34.94,3.02,1.5,5.05.39,1.44.69,2.5.91,3.19s.43,1.15.64,1.39c.04.05.08.09.13.14.04.05.09.1.14.16.17.19.29.33.36.44.07.1.12.23.16.39.03.16.05.38.05.66,0,.92-.46,1.37-1.37,1.37-.4,0-.76-.34-1.09-1.03s-.59-1.42-.77-2.19l-.12-.4c-.23-.77-.4-1.31-.52-1.61-.12-.3-.27-.51-.45-.64s-.44-.2-.79-.2h-5.46c-.21,0-.36.03-.46.08ZM186.23,37.83c.72.03,1.43.04,2.13.04.73,0,1.31-.01,1.73-.04-.3-.84-.74-1.86-1.34-3.07l-1.18-2.44c-.19.1-.56.79-1.1,2.05s-1,2.41-1.37,3.43l1.13.03Z"/>
    <path class="cls-4" d="M212.36,43.55c.11.26.17.57.17.94s-.11.7-.33,1.01c-.22.3-.49.54-.8.71-.32.17-.62.25-.89.25-.87,0-1.53-.29-1.96-.86-.43-.57-.71-1.27-.82-2.09-.11-.82-.17-1.8-.17-2.95l.21-7.77c0-.69.01-1.38.04-2.07-.1-.04-.25-.1-.45-.2-.3-.15-.56-.26-.78-.34-.22-.08-.46-.11-.71-.11-1.14,0-1.96.31-2.46.93-.5.62-.81,1.46-.92,2.51l2.25.03c.08,0,.19-.03.33-.05.14-.02.25-.04.34-.04.57,0,.85.44.85,1.32,0,.62-.12,1.02-.37,1.2s-.55.27-.92.27h-.45c-.71-.02-1.2-.04-1.47-.07-.07,0-.29-.01-.66-.01l-.02.54c-.08,1.57-.12,3.62-.12,6.17,0,1.02.09,1.83.28,2.44-.01.42-.09.72-.24.92s-.34.3-.57.3c-.46,0-.8-.08-1.04-.25-.23-.17-.4-.51-.51-1.02-.1-.51-.16-1.28-.16-2.32v-.69c0-2.52.06-4.53.19-6.02-.16,0-.45,0-.86.03h-1.22c-.28,0-.51-.13-.7-.4-.19-.27-.28-.6-.28-.98,0-.23.05-.45.15-.67s.23-.39.38-.53c.15-.14.31-.21.45-.21l2.44.03c.36-1.94.95-3.44,1.79-4.51.83-1.07,2-1.61,3.48-1.61.27,0,.63.07,1.09.21.46.14.88.33,1.26.55.2-.49.46-.74.77-.74.28,0,.49.14.64.41s.22.58.22.92l-.24,11.61c-.01.98.04,1.81.16,2.48s.38,1.01.77,1.01c.13,0,.24-.01.33-.07s.19-.14.31-.25c.11-.11.21-.2.29-.25s.19-.08.31-.08c.26,0,.44.13.56.39Z"/>
    <path class="cls-4" d="M225.52,43.48c.18.22.28.56.28,1.02,0,.89-.67,1.47-2.02,1.76-1.35.28-2.67.42-3.98.42-.98,0-1.93-.27-2.84-.81-.91-.54-1.65-1.28-2.22-2.22s-.85-1.96-.85-3.07c0-1.6.27-3.01.82-4.23s1.34-2.18,2.39-2.87c1.05-.68,2.29-1.03,3.73-1.03.76,0,1.52.18,2.27.54s1.37.88,1.85,1.57.73,1.5.73,2.44c0,.48-.07.88-.22,1.21-.15.33-.35.53-.61.62l-9.01,3.06c.31.93.93,1.54,1.88,1.83.94.28,1.99.42,3.14.42.38,0,.75-.05,1.13-.16s.82-.25,1.34-.44c.33-.12.6-.22.81-.28s.4-.1.56-.1c.37,0,.64.11.83.33ZM218.23,38.89c.95-.36,2.17-.83,3.66-1.42,1-.4,1.69-.66,2.06-.79-.27-.55-.72-.95-1.35-1.2-.64-.25-1.37-.38-2.2-.38-.47,0-1.04.17-1.73.5-.69.33-1.32.85-1.89,1.55s-.94,1.56-1.09,2.58c.74-.2,1.59-.48,2.55-.84Z"/>
    <path class="cls-4" d="M230.59,36.41c.43,1.39.82,2.6,1.19,3.62s.83,2.14,1.38,3.34c.17-.17.52-.78,1.06-1.82.54-1.04,1.45-2.98,2.74-5.8.64-1.2,1.12-2.05,1.44-2.54.33-.5.6-.74.82-.74.26,0,.46.15.61.45.15.3.22.66.22,1.1,0,.19-.04.4-.13.64-.09.24-.27.62-.54,1.15s-.62,1.17-1.04,1.93l-.55,1.01c-2.37,5.37-4.06,8.06-5.06,8.06-.57,0-1.22-.96-1.97-2.87-.75-1.92-1.58-4.49-2.52-7.72-.32-.69-.48-1.3-.48-1.84,0-.42.05-.77.15-1.05.1-.27.31-.41.63-.41.41,0,.7.11.88.33.18.22.35.61.52,1.17l.64,2Z"/>
    <path class="cls-4" d="M253.3,43.48c.18.22.28.56.28,1.02,0,.89-.67,1.47-2.02,1.76-1.35.28-2.67.42-3.98.42-.98,0-1.93-.27-2.84-.81s-1.65-1.28-2.22-2.22c-.57-.93-.85-1.96-.85-3.07,0-1.6.27-3.01.82-4.23s1.34-2.18,2.39-2.87c1.05-.68,2.29-1.03,3.73-1.03.76,0,1.52.18,2.27.54.75.36,1.37.88,1.85,1.57s.73,1.5.73,2.44c0,.48-.07.88-.22,1.21-.15.33-.35.53-.61.62l-9.01,3.06c.31.93.93,1.54,1.88,1.83s1.99.42,3.14.42c.38,0,.75-.05,1.13-.16.38-.1.82-.25,1.34-.44.33-.12.6-.22.81-.28.21-.07.4-.1.56-.1.37,0,.64.11.83.33ZM246.01,38.89c.95-.36,2.17-.83,3.66-1.42,1-.4,1.69-.66,2.05-.79-.27-.55-.72-.95-1.35-1.2-.64-.25-1.37-.38-2.2-.38-.47,0-1.04.17-1.73.5-.69.33-1.32.85-1.89,1.55-.58.7-.94,1.56-1.09,2.58.75-.2,1.59-.48,2.55-.84Z"/>
    <path class="cls-4" d="M259.88,36.49c-.65.79-.98,2.01-.98,3.65v.5l.15,4.36c0,.16-.04.36-.11.59-.07.23-.19.43-.36.61-.16.17-.37.26-.63.26-.48,0-.8-.14-.98-.41s-.27-.72-.27-1.35c0-.42,0-.85.03-1.3,0-.15.01-.35.01-.59v-1.33c0-.53.03-1.26.08-2.18s.18-2.54.37-4.86c.03-.47.14-.84.33-1.12s.47-.41.83-.41c.2,0,.38.12.56.38.17.25.26.65.26,1.2,0,.84-.01,1.35-.04,1.54.2-.6.58-1.17,1.15-1.69.57-.52,1.19-.94,1.87-1.25.67-.31,1.26-.47,1.76-.47.81,0,1.53.15,2.16.45.62.3.94.9.94,1.8,0,.28-.07.54-.19.78s-.29.42-.5.55c-.2.13-.41.2-.63.2-.19,0-.33-.03-.42-.1-.09-.07-.17-.17-.25-.31-.12-.22-.28-.38-.48-.5-.2-.12-.56-.18-1.07-.18h-.34c-1.51,0-2.59.4-3.24,1.19Z"/>
    <path class="cls-4" d="M270.9,46.31c-.21.27-.44.41-.7.41-.37,0-.66-.11-.87-.33-.21-.22-.38-.59-.48-1.11-.08-.45-.12-1.42-.12-2.9,0-2.45.1-4.68.31-6.68.2-2,.67-2.99,1.39-2.99.3,0,.49.12.59.38.09.25.14.61.14,1.08l-.12,1.98c-.05.67-.09,1.37-.13,2.11-.04.74-.06,1.39-.06,1.97,0,.61.06,1.47.19,2.58.12,1.15.18,1.95.18,2.39,0,.47-.1.84-.31,1.12ZM270.67,29.77c-.41,0-.79-.11-1.14-.34s-.53-.62-.53-1.19c0-.28.08-.57.25-.86s.37-.53.61-.72.47-.28.69-.28c.41,0,.76.12,1.06.37s.45.67.45,1.26c0,1.18-.46,1.77-1.38,1.77Z"/>
    <path class="cls-4" d="M283.58,37.06c-.5-1.1-1.46-1.64-2.87-1.64-.42,0-.9.12-1.44.35s-1.06.56-1.57.97c-.51.41-.92.86-1.24,1.35,0,.32,0,.86-.03,1.61-.02.72-.03,1.21-.03,1.49,0,.29.02.58.06.86.04.28.1.62.18,1.03.06.3.11.62.16.94.04.33.07.63.07.91,0,.54-.06.94-.19,1.22-.13.27-.41.41-.83.41s-.77-.11-1.03-.34c-.26-.23-.38-.68-.36-1.37l.06-5.55c-.11-1.34-.16-2.26-.16-2.76v-.42c0-.83.08-1.59.25-2.28s.44-1.03.82-1.03c.75,0,1.13.62,1.13,1.85,0,.2-.03.59-.09,1.18l-.04.37c.22-.74.62-1.37,1.19-1.9.58-.53,1.2-.93,1.86-1.2.67-.27,1.23-.4,1.7-.4,1.87,0,3.19.73,3.98,2.18s1.18,3.22,1.18,5.3c0,1.93-.09,3.51-.28,4.76s-.58,1.87-1.16,1.87c-.26,0-.47-.03-.63-.09-.16-.06-.29-.21-.39-.44-.1-.23-.15-.59-.15-1.07,0-.31.02-.62.07-.92s.12-.68.22-1.13c.11-.52.19-.93.24-1.23s.07-.62.07-.96c0-1.5-.25-2.8-.75-3.89Z"/>
    <path class="cls-4" d="M297.28,49.8c.25-.41.42-.9.51-1.48.09-.58.17-1.34.24-2.29.04-.66.08-1.15.12-1.46-.11.42-.38.8-.8,1.13s-.91.58-1.47.76c-.56.17-1.07.26-1.55.26-1.79,0-3.14-.52-4.07-1.56-.93-1.04-1.39-2.59-1.39-4.65,0-1.34.21-2.6.63-3.77s1.05-2.11,1.9-2.83,1.89-1.08,3.13-1.08c.97,0,1.92.31,2.84.93.92.62,1.67,1.38,2.24,2.29.57.91.86,1.78.86,2.6l-.28,6.7v.2c-.06.25-.14.84-.25,1.74-.16,1.27-.34,2.31-.54,3.09-.2.79-.56,1.46-1.09,2.02-.53.56-1.29.84-2.27.84-.39,0-.89-.06-1.5-.19-.62-.13-1.17-.34-1.66-.64-.49-.3-.74-.7-.74-1.2,0-.47.07-.83.2-1.08.13-.25.38-.37.74-.37.09,0,.17.01.25.04s.15.07.21.11c.25.15.56.27.92.37.37.09.95.14,1.76.14.47,0,.82-.21,1.07-.62ZM296.35,43.45c.52-.42.95-.95,1.29-1.56.35-.62.6-1.23.76-1.83-.11-.82-.28-1.55-.5-2.19-.22-.64-.58-1.18-1.07-1.63-.49-.44-1.15-.67-1.99-.67-1.36,0-2.35.44-2.96,1.33-.62.89-.93,2.03-.95,3.43,0,1.39.32,2.36.97,2.92.65.56,1.56.84,2.76.84.62,0,1.18-.21,1.7-.64Z"/>
    <path class="cls-4" d="M312.3,45.67c-.92-.7-1.66-1.58-2.21-2.65-.55-1.07-.83-2.13-.83-3.17,0-1.64.3-3,.9-4.06s1.38-1.84,2.34-2.33c.96-.49,1.99-.73,3.11-.73,1.18,0,2.2.29,3.05.87.85.58,1.51,1.41,1.96,2.48.45,1.07.68,2.33.68,3.77,0,1.31-.29,2.49-.86,3.54-.57,1.05-1.32,1.86-2.25,2.45-.93.58-1.91.88-2.94.88s-2.03-.35-2.95-1.05ZM318.9,37.49c-.29-.65-.7-1.16-1.21-1.52-.52-.36-1.09-.55-1.73-.55-.78,0-1.54.16-2.28.47-.74.32-1.34.79-1.8,1.41-.47.62-.7,1.37-.7,2.25,0,.74.19,1.46.57,2.16.38.7.87,1.27,1.47,1.71.61.44,1.23.66,1.88.66.73,0,1.43-.17,2.08-.52.65-.35,1.17-.85,1.57-1.51.4-.66.6-1.43.6-2.33,0-.84-.15-1.59-.44-2.24Z"/>
    <path class="cls-4" d="M332.06,49.8c.25-.41.42-.9.51-1.48.09-.58.17-1.34.24-2.29.04-.66.08-1.15.12-1.46-.11.42-.38.8-.8,1.13s-.91.58-1.47.76c-.56.17-1.07.26-1.55.26-1.79,0-3.14-.52-4.07-1.56-.93-1.04-1.39-2.59-1.39-4.65,0-1.34.21-2.6.63-3.77s1.05-2.11,1.9-2.83,1.89-1.08,3.13-1.08c.97,0,1.92.31,2.84.93.92.62,1.67,1.38,2.24,2.29.57.91.86,1.78.86,2.6l-.28,6.7v.2c-.06.25-.14.84-.25,1.74-.16,1.27-.34,2.31-.54,3.09s-.56,1.46-1.09,2.02c-.53.56-1.29.84-2.27.84-.39,0-.89-.06-1.5-.19-.62-.13-1.17-.34-1.66-.64-.49-.3-.74-.7-.74-1.2,0-.47.07-.83.2-1.08.13-.25.38-.37.74-.37.09,0,.17.01.25.04s.15.07.22.11c.25.15.56.27.92.37.37.09.95.14,1.76.14.47,0,.82-.21,1.07-.62ZM331.14,43.45c.52-.42.95-.95,1.3-1.56.35-.62.6-1.23.76-1.83-.11-.82-.28-1.55-.5-2.19s-.58-1.18-1.07-1.63-1.15-.67-1.99-.67c-1.36,0-2.35.44-2.96,1.33-.62.89-.93,2.03-.95,3.43,0,1.39.32,2.36.97,2.92.65.56,1.56.84,2.75.84.62,0,1.18-.21,1.7-.64Z"/>
    <path class="cls-4" d="M358.32,43.59c.13.19.2.49.2.91,0,.32-.09.64-.28.96-.19.32-.45.59-.77.79-.33.21-.69.31-1.09.31s-.78-.13-1.17-.4c-.39-.27-.71-.62-.96-1.06-.25-.44-.37-.89-.37-1.35-.75.9-1.52,1.62-2.32,2.16-.8.54-1.65.81-2.55.81-.82,0-1.66-.25-2.51-.76s-1.55-1.2-2.09-2.06c-.55-.86-.82-1.8-.82-2.8,0-1.35.32-2.67.97-3.96s1.51-2.35,2.6-3.16,2.26-1.22,3.52-1.22c.95,0,1.84.27,2.66.82.82.55,1.47,1.25,1.95,2.12.48.86.72,1.74.72,2.63,0,.38-.03.76-.09,1.13s-.09.61-.1.71c-.08.44-.14.84-.18,1.18s-.06.71-.06,1.1c0,.56.09.96.26,1.2.17.24.43.36.78.36.09,0,.18-.03.28-.1.09-.07.21-.16.33-.28.02-.02.08-.07.17-.15.09-.08.18-.13.26-.16.31,0,.53.09.66.28ZM352.18,43.08c.63-.61,1.07-1.31,1.3-2.1.23-.79.45-1.81.65-3.08,0-.29-.18-.63-.55-1.01s-.81-.7-1.32-.98c-.51-.27-.97-.41-1.38-.41-1.02,0-1.94.27-2.74.81-.8.54-1.43,1.24-1.87,2.09-.44.85-.66,1.71-.66,2.59,0,.58.19,1.09.57,1.55.38.46.87.81,1.47,1.07s1.21.38,1.84.38c1.16,0,2.06-.31,2.7-.92Z"/>
    <path class="cls-4" d="M368.21,25.44c.51.2.96.46,1.35.8.39.34.59.71.59,1.11,0,.32-.04.63-.12.93-.08.3-.23.45-.46.45-.2,0-.39-.04-.57-.11-.18-.07-.39-.17-.63-.3-.3-.16-.54-.28-.74-.35-.19-.08-.41-.11-.65-.11-1.03,0-1.78.56-2.24,1.69s-.74,2.46-.83,4.02h3.51c.09,0,.23-.03.41-.05.18-.02.33-.04.45-.04.26,0,.47.1.65.29.17.19.26.54.26,1.03,0,.62-.14,1.02-.41,1.2-.27.18-.6.27-.98.27-1.75-.09-2.95-.14-3.62-.14h-.34c0,.55-.04,1.44-.07,2.66-.06,1.37-.09,2.47-.1,3.3,0,.1.03.36.1.78,0,.08.05.37.13.88.08.51.11,1.05.11,1.61,0,.79-.27,1.19-.82,1.19-.49,0-.85-.08-1.08-.23-.23-.16-.39-.46-.48-.9-.08-.44-.13-1.14-.13-2.1,0-.55,0-1.17.03-1.88.02-.7.04-1.21.04-1.51.05-.98.08-1.99.09-3.03,0-.15,0-.39.03-.71-.79.05-1.49.07-2.1.07-.26,0-.48-.15-.68-.44-.19-.29-.29-.61-.29-.95s.1-.65.31-.95c.21-.3.44-.45.69-.45l2.14.08h.13c.29-2.41.84-4.41,1.65-6.01.81-1.6,1.95-2.4,3.41-2.4.3,0,.7.1,1.21.3Z"/>
    <path class="cls-4" d="M380.86,39.85c0-.76-.09-1.43-.26-2.02s-.56-1.1-1.15-1.52c-.6-.42-1.47-.63-2.62-.63-.58,0-1.14.12-1.7.38-.56.25-1.01.56-1.36.93-.35.37-.53.72-.53,1.05v6.66c-.01.38-.03.68-.06.91-.03.23-.11.43-.25.6-.14.17-.36.25-.66.25s-.55-.1-.8-.29c-.24-.19-.37-.59-.37-1.18,0-2.1.04-5.07.13-8.94.08-4.25.12-7.2.12-8.85,0-.23.05-.48.16-.77.11-.29.26-.54.45-.74.19-.21.4-.31.62-.31.25,0,.46.12.64.37s.27.53.27.85v.06c0,.74-.03,1.93-.09,3.57-.07,1.45-.1,2.69-.1,3.7l-.07,1.71c.09-.51.33-.97.72-1.38.39-.41.85-.73,1.38-.96s1.04-.34,1.51-.34c2.29,0,3.88.66,4.77,1.98s1.33,2.89,1.33,4.72l-.15,4.62c0,.06,0,.32-.02.79-.02.47-.12.87-.31,1.2-.19.33-.46.49-.81.49s-.64-.15-.85-.45c-.21-.3-.31-.67-.31-1.11,0-.61.06-1.47.18-2.56.12-1.06.18-1.87.18-2.45v-.33Z"/>
    <path class="cls-4" d="M397.14,43.48c.18.22.28.56.28,1.02,0,.89-.67,1.47-2.02,1.76-1.35.28-2.67.42-3.98.42-.98,0-1.93-.27-2.84-.81-.91-.54-1.65-1.28-2.22-2.22-.57-.93-.85-1.96-.85-3.07,0-1.6.27-3.01.82-4.23s1.34-2.18,2.39-2.87c1.05-.68,2.29-1.03,3.73-1.03.76,0,1.52.18,2.27.54.75.36,1.37.88,1.85,1.57s.73,1.5.73,2.44c0,.48-.07.88-.22,1.21-.15.33-.35.53-.61.62l-9.01,3.06c.31.93.93,1.54,1.88,1.83s1.99.42,3.14.42c.38,0,.75-.05,1.13-.16.38-.1.82-.25,1.34-.44.33-.12.6-.22.81-.28.21-.07.4-.1.56-.1.37,0,.64.11.83.33ZM389.85,38.89c.95-.36,2.17-.83,3.66-1.42,1-.4,1.69-.66,2.05-.79-.27-.55-.72-.95-1.35-1.2-.64-.25-1.37-.38-2.2-.38-.47,0-1.04.17-1.73.5-.68.33-1.32.85-1.89,1.55-.58.7-.94,1.56-1.09,2.58.75-.2,1.59-.48,2.55-.84Z"/>
    <path class="cls-4" d="M409.46,37.06c-.5-1.1-1.46-1.64-2.87-1.64-.42,0-.9.12-1.44.35s-1.07.56-1.57.97c-.51.41-.92.86-1.24,1.35,0,.32,0,.86-.03,1.61-.02.72-.03,1.21-.03,1.49,0,.29.02.58.06.86.04.28.1.62.18,1.03.06.3.11.62.16.94.04.33.07.63.07.91,0,.54-.06.94-.19,1.22-.13.27-.41.41-.83.41s-.77-.11-1.03-.34c-.26-.23-.38-.68-.36-1.37l.06-5.55c-.11-1.34-.16-2.26-.16-2.76v-.42c0-.83.08-1.59.25-2.28s.44-1.03.82-1.03c.75,0,1.13.62,1.13,1.85,0,.2-.03.59-.09,1.18l-.04.37c.22-.74.62-1.37,1.19-1.9.58-.53,1.2-.93,1.86-1.2.67-.27,1.23-.4,1.7-.4,1.87,0,3.19.73,3.98,2.18s1.18,3.22,1.18,5.3c0,1.93-.09,3.51-.28,4.76s-.58,1.87-1.16,1.87c-.26,0-.47-.03-.63-.09-.16-.06-.29-.21-.39-.44-.1-.23-.15-.59-.15-1.07,0-.31.03-.62.08-.92.05-.3.12-.68.22-1.13.11-.52.19-.93.24-1.23s.08-.62.08-.96c0-1.5-.25-2.8-.75-3.89Z"/>
    <path class="cls-4" d="M416.48,35.7c-.36.02-.66.03-.91.03-.14,0-.31-.06-.51-.17s-.38-.27-.53-.48c-.15-.21-.22-.44-.22-.71s.06-.51.19-.74c.12-.23.28-.42.48-.55.19-.14.39-.21.6-.21.32,0,.9.03,1.76.08.03-1.17.14-2.28.33-3.34.19-1.06.57-1.59,1.12-1.59.13,0,.26.06.4.18.14.12.25.28.35.48.09.2.14.42.14.66,0,1-.06,1.91-.18,2.72l-.04.35-.13.58c.36,0,.78,0,1.27-.01s.86-.02,1.12-.03c.79-.03,1.59-.04,2.38-.04.29,0,.5.16.63.49.13.33.19.67.19,1.04,0,.4-.11.71-.32.94-.21.23-.44.35-.69.35l-4.59-.06-.02,1.3c-.03.79-.04,1.65-.04,2.58,0,1.31.12,2.35.35,3.1s.68,1.13,1.35,1.13c.57,0,1.27-.29,2.1-.86.18-.1.27-.16.28-.16.25,0,.42.07.51.2.09.13.13.36.13.69,0,.4-.17.82-.51,1.27-.34.45-.74.83-1.21,1.14s-.87.47-1.22.47c-1.12,0-1.95-.37-2.49-1.13-.54-.75-.88-1.65-1.01-2.7-.13-1.05-.21-2.41-.23-4.08,0-1.31-.04-2.3-.12-2.96-.15,0-.38,0-.7.03Z"/>
    <path class="cls-4" d="M436.4,37.06c-.5-1.1-1.46-1.64-2.87-1.64-.42,0-.9.12-1.44.35s-1.07.56-1.57.97c-.51.41-.92.86-1.24,1.35,0,.32,0,.86-.03,1.61-.02.72-.03,1.21-.03,1.49,0,.29.02.58.06.86.04.28.1.62.18,1.03.06.3.11.62.16.94.04.33.07.63.07.91,0,.54-.06.94-.19,1.22-.13.27-.41.41-.83.41s-.77-.11-1.03-.34c-.26-.23-.38-.68-.36-1.37l.06-5.55c-.11-1.34-.16-2.26-.16-2.76v-.42c0-.83.08-1.59.25-2.28s.44-1.03.82-1.03c.75,0,1.13.62,1.13,1.85,0,.2-.03.59-.09,1.18l-.04.37c.22-.74.62-1.37,1.19-1.9.58-.53,1.2-.93,1.86-1.2.67-.27,1.23-.4,1.7-.4,1.87,0,3.19.73,3.98,2.18s1.18,3.22,1.18,5.3c0,1.93-.09,3.51-.28,4.76s-.58,1.87-1.16,1.87c-.26,0-.47-.03-.63-.09-.16-.06-.29-.21-.39-.44-.1-.23-.15-.59-.15-1.07,0-.31.03-.62.08-.92.05-.3.12-.68.22-1.13.11-.52.19-.93.24-1.23s.08-.62.08-.96c0-1.5-.25-2.8-.75-3.89Z"/>
    <path class="cls-4" d="M444.62,46.31c-.21.27-.44.41-.7.41-.37,0-.66-.11-.87-.33-.21-.22-.38-.59-.48-1.11-.08-.45-.12-1.42-.12-2.9,0-2.45.1-4.68.31-6.68.2-2,.67-2.99,1.39-2.99.3,0,.49.12.59.38.09.25.14.61.14,1.08l-.12,1.98c-.05.67-.09,1.37-.13,2.11-.04.74-.06,1.39-.06,1.97,0,.61.06,1.47.19,2.58.12,1.15.18,1.95.18,2.39,0,.47-.1.84-.31,1.12ZM444.39,29.77c-.41,0-.79-.11-1.14-.34s-.53-.62-.53-1.19c0-.28.08-.57.25-.86.16-.29.37-.53.61-.72.24-.19.47-.28.69-.28.41,0,.76.12,1.06.37s.45.67.45,1.26c0,1.18-.46,1.77-1.38,1.77Z"/>
    <path class="cls-4" d="M457.3,37.06c-.5-1.1-1.46-1.64-2.87-1.64-.42,0-.9.12-1.44.35s-1.07.56-1.57.97c-.51.41-.92.86-1.24,1.35,0,.32,0,.86-.03,1.61-.02.72-.03,1.21-.03,1.49,0,.29.02.58.06.86.04.28.1.62.18,1.03.06.3.11.62.16.94.04.33.07.63.07.91,0,.54-.06.94-.19,1.22-.13.27-.41.41-.83.41s-.77-.11-1.03-.34c-.26-.23-.38-.68-.36-1.37l.06-5.55c-.11-1.34-.16-2.26-.16-2.76v-.42c0-.83.08-1.59.25-2.28s.44-1.03.82-1.03c.75,0,1.13.62,1.13,1.85,0,.2-.03.59-.09,1.18l-.04.37c.22-.74.62-1.37,1.19-1.9.58-.53,1.2-.93,1.86-1.2.67-.27,1.23-.4,1.7-.4,1.87,0,3.19.73,3.98,2.18s1.18,3.22,1.18,5.3c0,1.93-.09,3.51-.28,4.76s-.58,1.87-1.16,1.87c-.26,0-.47-.03-.63-.09-.16-.06-.29-.21-.39-.44-.1-.23-.15-.59-.15-1.07,0-.31.03-.62.08-.92.05-.3.12-.68.22-1.13.11-.52.19-.93.24-1.23s.08-.62.08-.96c0-1.5-.25-2.8-.75-3.89Z"/>
    <path class="cls-4" d="M471,49.8c.25-.41.42-.9.51-1.48.09-.58.17-1.34.24-2.29.04-.66.08-1.15.12-1.46-.11.42-.38.8-.8,1.13s-.91.58-1.47.76c-.56.17-1.07.26-1.55.26-1.79,0-3.14-.52-4.07-1.56-.93-1.04-1.39-2.59-1.39-4.65,0-1.34.21-2.6.63-3.77s1.05-2.11,1.9-2.83,1.89-1.08,3.13-1.08c.97,0,1.92.31,2.84.93.92.62,1.67,1.38,2.24,2.29.57.91.86,1.78.86,2.6l-.28,6.7v.2c-.06.25-.14.84-.25,1.74-.16,1.27-.34,2.31-.54,3.09s-.56,1.46-1.09,2.02c-.53.56-1.29.84-2.27.84-.39,0-.89-.06-1.5-.19-.62-.13-1.17-.34-1.66-.64-.49-.3-.74-.7-.74-1.2,0-.47.07-.83.2-1.08.13-.25.38-.37.74-.37.09,0,.17.01.25.04s.15.07.22.11c.25.15.56.27.92.37.37.09.95.14,1.76.14.47,0,.82-.21,1.07-.62ZM470.07,43.45c.52-.42.95-.95,1.3-1.56.35-.62.6-1.23.76-1.83-.11-.82-.28-1.55-.5-2.19s-.58-1.18-1.07-1.63-1.15-.67-1.99-.67c-1.36,0-2.35.44-2.96,1.33-.62.89-.93,2.03-.95,3.43,0,1.39.32,2.36.97,2.92.65.56,1.56.84,2.75.84.62,0,1.18-.21,1.7-.64Z"/>
  </g>
</svg>