<?xml version="1.0" encoding="UTF-8"?>
<svg id="Layer_1" xmlns="http://www.w3.org/2000/svg" viewBox="0 0 454.69 74.13">
  <defs>
    <style>
      .cls-1 {
        fill: none;
        stroke: #231f20;
      }

      .cls-1, .cls-2 {
        stroke-miterlimit: 10;
        stroke-width: 2px;
      }

      .cls-2 {
        fill: #263779;
        stroke: #010101;
      }

      .cls-3 {
        fill: #eaa294;
      }

      .cls-4 {
        fill: #ededed;
      }

      .cls-5 {
        fill: #c18678;
      }
    </style>
  </defs>
  <path class="cls-2" d="M453.56,1.2l-.08,72.12-356.43-.38c-2.2,0-4.37-.39-6.44-1.14L3.78,40.09c-3.09-1.13-3.08-5.49,0-6.62L91.25,1.74c1.69-.61,3.47-.93,5.27-.92l357.04.38Z"/>
  <path class="cls-5" d="M56.1,22.56c-1.28.77-1.99,1.97-2.44,3.3-.21.16-.4.34-.6.52-1.27-.09-2.57.18-3.65.84-.41.25-.77.55-1.11.87-.82-.03-1.65.06-2.47.32-4.37,1.33-5.32,5.96-4.53,9.93.71,3.6,3,7.39,6.27,9.19.66.37,1.4.67,2.16.87,1.34,1.87,3.43,3.1,6.14,2.99,2.61-.1,5.15-1.48,7.01-3.49.46.11.94.19,1.45.21,5.08.15,7.08-5,6.42-9.37.12-2.1-.74-4.25-2.13-5.79-.15-.17-.32-.31-.48-.46.58-.98.7-2.25.04-3.26-.28-.43-.59-.83-.92-1.21,0,0,0,0,0,0-.31-.43-.61-.86-.93-1.28-.74-.99-1.49-1.99-2.41-2.82-2.13-1.92-5.17-2.95-7.82-1.35Z"/>
  <path class="cls-3" d="M89.67,2.33c-.9.12-1.61.55-2.26,1.16-.04.04-.31.3-.51.51-.24.04-.49.16-.72.21-.3.07-.6.12-.91.17-.1.01-.36.05-.45.06-1.36.16-2.76.28-4.06.73-1.48.52-2.5,1.4-3.73,2.31.35-.26-.51.32-.48.3-.26.16-.52.3-.79.44-.41.22-.82.42-1.23.62-.29,0-.59,0-.89.05-1.2.2-2.3.79-3.32,1.43-.48-.11-.98-.11-1.47.08-.67.25-1.33.53-1.99.81-.25.1-.49.21-.74.31-.11.05-.87.44-.21.09-.46.25-1,.4-1.49.56-.25.08-.5.14-.75.22-.02,0-.03,0-.05.02-1.61.03-2.86.77-3.95,1.91,0,.01-.02.02-.03.03-.7.22-1.38.46-2.06.76-.25.11-.49.25-.72.39-1.67.15-3.36.17-4.94.77-.86.33-1.71.74-2.52,1.22-.07-.02-.13-.05-.2-.06-1.28-.23-2.37-.05-3.5.61-.66.38-1.32.77-2,1.11-.18.09-.36.17-.54.26-.03.01-.22.09-.32.14-.11.04-.28.1-.3.11-.2.07-.4.14-.6.21-.83.29-1.67.55-2.51.81-1.83.55-3.57,1.3-5.32,2.06-.39.17-.79.34-1.18.51-.24.1-.48.21-.73.32-.03.01-.22.09-.33.14-.11.04-.32.13-.35.14-.19.07-.37.13-.56.2-.52.18-1.06.38-1.54.65-.07.04-.12.09-.18.13-.96-.48-2.12-.52-3.06.08-1.46.94-2.11,2.89-1.17,4.45.49.81.85,1.55,1.49,2.27.09.1.18.19.27.29.01.02.02.03.03.05.04.08.06.13.09.17.04.13.09.26.13.4.03.13.13.9.14.8.02.33.04.66.04.99,0,.39-.02.79-.04,1.18-.01.19-.03.38-.04.57,0,.06,0,.1-.01.14,0,.05-.02.13-.05.28-.04.21-.08.42-.13.62-.09.42-.2.83-.3,1.25-.2.84-.32,1.69-.49,2.53-.08.42-.21.83-.32,1.25-.01.03-.01.04-.02.06-.05.1-.1.2-.15.29-.02.04-.05.08-.08.12-1.65.31-2.72,2.45-2.22,3.98.59,1.82,2.19,2.57,4,2.27.42-.07.8-.21,1.17-.38.2.21.43.4.7.54,1.84.96,3.77,1.32,5.76,1.81.43.1.85.25,1.28.36,0,0,0,.01.02.02.13.11.33.22.47.3.02,0,.02,0,.03.02.14.11.28.22.41.33.46.37.93.76,1.43,1.08,1.61,1.02,3.6,1.06,5.35,1.73,1.09.42,2.23.78,3.38,1.09.58.78,1.48,1.3,2.55,1.31.93.01,1.3.07,2.22.23.73.12,1.45.22,2.18.32.23.26.49.5.82.65.54.25.99.63,1.48.96.67.45,1.44.76,2.19,1.04,1.25.47,2.58.69,3.85,1.1,2.72.86,5.31,2.08,8.03,2.94,0,0,0,0,0,0,.07.05.13.11.19.16,1.17.85,2.51,1.25,3.81,1.82,1.5.66,2.92,1.46,4.44,2.06,1.53.6,3.14.95,4.68,1.51,2.77,1,5.35,2.35,8.3,2.78,2.13.31,4.57.49,6.64-.3,2.99.48,5.77-.47,8.61-1.31.43-.13.86-.29,1.29-.44,2.47.48,4.5-.39,6.77-1.41,2.03-.92,4.5-1.13,5.8-3.19.97-1.53.89-3.41.76-5.14-.22-2.75-1.95-4.39-4.44-5.31-2.03-.76-4.08-1.47-6.09-2.27-1.82-.73-3.43-1.77-5.21-2.6-2.09-.97-4.35-1.36-6.61-1.76-.6-.1-1.2-.21-1.8-.3,1.06-.22,2.09-.52,3.14-.78.21.05.44.07.67.07,1.15,0,2.26-.02,3.4-.2.37-.06.74-.16,1.1-.28.08.03.15.07.23.09,1.35.37,2.95.24,4.27-.22,1.31-.46,2.35-1.31,3.58-1.92.02-.01.03-.02.05-.03.02,0,.03,0,.05-.02.15-.06.29-.12.44-.17.29-.12.59-.23.88-.35.8-.32,1.61-.65,2.37-1.04,1.32-.68,2.43-1.56,3.16-2.87.74-1.32,1.12-2.75.68-4.16-.03-1.06-.27-2.1-.76-2.89-1-1.64-2.69-2.34-4.35-3.09-.23-.21-.46-.43-.7-.63-.68-.56-1.46-.88-2.25-.91-.12-.08-.25-.14-.37-.22-.8-.57-1.61-1.41-2.57-1.93-1.94-1.04-4.07-1.47-6.21-1.9-.99-.2-1.99-.39-3-.56.47-.52.7-1.09.77-1.66,3.35-.15,6.76-.63,10.02-1.38,3.22-.74,6.53-2.22,8.38-5.11,2.2-3.45.58-7.28-2.59-9.38-.16-.1-.32-.18-.48-.27-.43-1.07-1.38-1.92-2.87-1.95-2.5-.05-5.13-.76-7.55-1.09-2.55-.34-5.14-1.04-7.79-1.11-2.49-.06-5.18-.33-7.66.03-.61-.34-1.33-.5-2.13-.39Z"/>
  <path class="cls-1" d="M21.71,46.63c6.02-5.41,6.72-14.42,1.58-20.14"/>
  <g>
    <path class="cls-1" d="M91.25,1.74c24.04.03,31.69,4.83,31.31,11.74"/>
    <path class="cls-1" d="M93.57,23.84c16.02.02,28.98-4.61,28.99-10.35"/>
  </g>
  <g>
    <path class="cls-1" d="M93.59,23.83c16.01.02,28.96,6.25,28.95,13.92"/>
    <path class="cls-1" d="M93.55,49.13c16.01.02,28.98-5.06,28.99-11.38"/>
  </g>
  <g>
    <path class="cls-1" d="M93.56,49.13c16.02.02,28.97,5.89,28.96,13.1"/>
    <path class="cls-1" d="M91.97,72.24c16.6,1.84,30.53-4.06,30.54-10"/>
  </g>
  <line class="cls-1" x1="12.69" y1="43.34" x2="91.97" y2="72.24"/>
  <line class="cls-1" x1="13.44" y1="29.97" x2="92.05" y2="1.46"/>
  <g>
    <path class="cls-4" d="M239.05,46.71c-.09,0-.26.02-.51.04s-.49.03-.72.03c-.3,0-.97-.05-2.03-.14-.12,0-.22-.02-.29-.06-.07-.04-.13-.12-.17-.25s-.06-.34-.06-.62c0-.41.02-.84.05-1.3.04-.46.08-.97.14-1.53l.09-.89c0-.76-.01-1.61-.04-2.53-.03-.93-.05-1.53-.06-1.83-.08-1.93-.12-3.38-.12-4.35,0-1.04.02-1.82.07-2.34.04-.52.14-.91.28-1.15.14-.25.37-.37.66-.37.18,0,.36.08.54.23.18.16.34.36.46.61.12.25.18.51.18.79,0,.43-.03.92-.09,1.46l-.06.67c0,1.81,0,3.17.03,4.08l.18,6.39c.37,0,.9.03,1.59.07,1.69.08,2.99.11,3.92.11.07,0,.26-.02.57-.06.11-.02.5-.07,1.18-.16.28,0,.52.18.71.5.2.33.3.7.3,1.11,0,.22-.06.45-.19.7-.13.25-.29.46-.48.62-.19.17-.37.25-.54.25-.58,0-1.26-.02-2.05-.07-.18,0-.53-.02-1.06-.04s-1.02-.03-1.49-.03c-.28,0-.61.02-.98.07Z"/>
    <path class="cls-4" d="M259.1,43.72c.18.22.28.56.28,1.02,0,.89-.67,1.47-2.02,1.76-1.34.28-2.67.42-3.98.42-.98,0-1.93-.27-2.84-.81-.91-.54-1.65-1.28-2.22-2.22-.57-.93-.85-1.96-.85-3.07,0-1.6.27-3.01.82-4.23s1.34-2.18,2.39-2.87c1.05-.68,2.29-1.03,3.73-1.03.76,0,1.52.18,2.27.54.75.36,1.37.88,1.85,1.57s.73,1.5.73,2.44c0,.48-.07.88-.22,1.21-.15.33-.35.53-.61.62l-9.01,3.06c.31.93.93,1.54,1.88,1.83.94.28,1.99.42,3.14.42.38,0,.75-.05,1.13-.16.38-.1.82-.25,1.34-.44.33-.12.6-.22.81-.28.21-.07.4-.1.56-.1.37,0,.64.11.83.33ZM251.81,39.13c.95-.36,2.17-.83,3.66-1.42,1-.4,1.69-.66,2.06-.79-.27-.55-.72-.95-1.36-1.2-.64-.25-1.37-.38-2.2-.38-.47,0-1.04.17-1.73.5-.68.33-1.32.85-1.89,1.55-.58.7-.94,1.56-1.09,2.58.74-.2,1.59-.48,2.55-.84Z"/>
    <path class="cls-4" d="M270.14,50.04c.25-.41.42-.9.51-1.48.09-.58.17-1.34.24-2.29.04-.66.08-1.15.12-1.46-.11.42-.37.8-.8,1.13-.42.33-.91.58-1.47.76-.56.17-1.07.26-1.55.26-1.79,0-3.14-.52-4.07-1.56-.93-1.04-1.39-2.59-1.39-4.65,0-1.34.21-2.6.62-3.77s1.05-2.11,1.9-2.83,1.89-1.08,3.13-1.08c.97,0,1.92.31,2.84.93.92.62,1.67,1.38,2.24,2.29.57.91.86,1.78.86,2.6l-.28,6.7v.2c-.06.25-.14.84-.25,1.74-.16,1.27-.34,2.31-.54,3.09-.2.79-.56,1.46-1.09,2.02-.53.56-1.29.84-2.27.84-.39,0-.89-.06-1.5-.19-.62-.13-1.17-.34-1.66-.64s-.74-.7-.74-1.2c0-.47.07-.83.2-1.08s.38-.37.74-.37c.09,0,.17.01.25.04.08.03.15.07.22.11.25.15.56.27.92.37s.95.14,1.76.14c.47,0,.82-.21,1.07-.62ZM269.22,43.69c.52-.42.95-.95,1.29-1.56.35-.62.6-1.23.76-1.83-.11-.82-.28-1.55-.5-2.19s-.58-1.18-1.07-1.63-1.15-.67-1.99-.67c-1.36,0-2.35.44-2.96,1.33s-.93,2.03-.95,3.43c0,1.39.32,2.36.97,2.92.65.56,1.56.84,2.75.84.62,0,1.18-.21,1.7-.64Z"/>
    <path class="cls-4" d="M287.58,43.72c.18.22.28.56.28,1.02,0,.89-.67,1.47-2.02,1.76-1.34.28-2.67.42-3.98.42-.98,0-1.93-.27-2.84-.81-.91-.54-1.65-1.28-2.22-2.22-.57-.93-.85-1.96-.85-3.07,0-1.6.27-3.01.82-4.23s1.34-2.18,2.39-2.87c1.05-.68,2.29-1.03,3.73-1.03.76,0,1.52.18,2.27.54.75.36,1.37.88,1.85,1.57s.73,1.5.73,2.44c0,.48-.07.88-.22,1.21-.15.33-.35.53-.61.62l-9.01,3.06c.31.93.93,1.54,1.88,1.83.94.28,1.99.42,3.14.42.38,0,.75-.05,1.13-.16.38-.1.82-.25,1.34-.44.33-.12.6-.22.81-.28.21-.07.4-.1.56-.1.37,0,.64.11.83.33ZM280.29,39.13c.95-.36,2.17-.83,3.66-1.42,1-.4,1.69-.66,2.06-.79-.27-.55-.72-.95-1.36-1.2-.64-.25-1.37-.38-2.2-.38-.47,0-1.04.17-1.73.5-.68.33-1.32.85-1.89,1.55-.58.7-.94,1.56-1.09,2.58.74-.2,1.59-.48,2.55-.84Z"/>
    <path class="cls-4" d="M291.95,35.94c-.36.02-.66.03-.91.03-.14,0-.31-.06-.51-.17s-.38-.27-.53-.48c-.15-.21-.22-.44-.22-.71s.06-.51.19-.74c.12-.23.28-.42.48-.55.19-.14.4-.21.6-.21.32,0,.9.03,1.76.08.03-1.17.14-2.28.33-3.34.19-1.06.57-1.59,1.12-1.59.13,0,.26.06.4.18.14.12.26.28.35.48.09.2.14.42.14.66,0,1-.06,1.91-.18,2.72l-.04.35-.13.58c.36,0,.78,0,1.27-.01s.86-.02,1.12-.03c.79-.03,1.59-.04,2.38-.04.29,0,.5.16.63.49.13.33.19.67.19,1.04,0,.4-.11.71-.32.94-.21.23-.44.35-.69.35l-4.59-.06v1.3c-.04.79-.06,1.65-.06,2.58,0,1.31.12,2.35.35,3.1s.68,1.13,1.35,1.13c.57,0,1.27-.29,2.1-.86.18-.1.27-.16.28-.16.25,0,.42.07.51.2.09.13.13.36.13.69,0,.4-.17.82-.51,1.27-.34.45-.74.83-1.21,1.14-.47.31-.87.47-1.22.47-1.12,0-1.95-.38-2.49-1.13-.54-.75-.88-1.65-1.01-2.7s-.21-2.41-.23-4.08c0-1.31-.04-2.3-.12-2.96-.15,0-.38,0-.7.03Z"/>
    <path class="cls-4" d="M302.67,42.24c-.27-.8-.41-1.51-.41-2.15,0-1.64.3-3,.9-4.06.6-1.06,1.38-1.83,2.32-2.32s1.97-.72,3.06-.72c1.16,0,2.19.29,3.1.88.23-.28.52-.56.88-.83.36-.27.67-.4.94-.4.58,0,.86.37.86,1.12,0,.24-.04.43-.11.59-.07.16-.19.3-.34.45s-.4.35-.75.62c.35.6.62,1.31.83,2.11.2.8.31,1.66.31,2.56,0,1.31-.29,2.49-.86,3.54s-1.32,1.86-2.26,2.45c-.93.59-1.92.88-2.96.88-.32,0-.75-.09-1.31-.28-.56-.19-1.05-.39-1.47-.59-.05.11-.16.29-.33.53-.17.24-.36.46-.56.66-.2.2-.38.3-.54.3-.42,0-.74-.12-.97-.38-.23-.25-.34-.57-.34-.97,0-.31.07-.58.2-.81s.33-.49.57-.78c0,0,.09-.1.24-.27-.39-.62-.72-1.33-.99-2.13ZM306.21,40.86c.32-.51,1.01-1.47,2.07-2.89l.51-.68,1.12-1.52c-.1-.06-.21-.09-.33-.1s-.34-.01-.66-.01c-.81,0-1.59.16-2.32.47-.73.31-1.32.78-1.77,1.41-.45.63-.68,1.39-.68,2.29,0,.49.11.99.32,1.5s.41.9.59,1.16l1.16-1.63ZM308.54,41.27c-1.1,1.58-1.74,2.48-1.91,2.72.52.23.99.34,1.42.34.72,0,1.41-.17,2.05-.51s1.17-.83,1.57-1.48c.4-.65.61-1.4.62-2.26,0-.56-.07-1.11-.22-1.67-.14-.56-.35-.96-.63-1.2-.58.74-1.54,2.09-2.9,4.06Z"/>
    <path class="cls-4" d="M321.47,41.11c.02.72.03,1.28.03,1.7v.51c0,2.46-.11,4.38-.32,5.73s-.77,2.46-1.66,3.31-2.3,1.27-4.23,1.27c-.54,0-1.01-.09-1.44-.26-.42-.17-.63-.57-.63-1.2,0-.49.1-.82.3-1,.2-.17.51-.26.92-.26h.45c1.38,0,2.4-.34,3.07-1.02.67-.68,1.09-1.52,1.27-2.53s.27-2.3.28-3.88l.04-8.13c.02-1.62.4-2.44,1.13-2.44.34,0,.6.14.77.42s.29.62.33,1.02c0,.63-.05,1.5-.16,2.59-.12,1.27-.18,2.22-.18,2.86v1.29ZM320.62,29.4c-.41,0-.79-.12-1.16-.35s-.55-.64-.55-1.2c0-.28.08-.57.25-.86s.38-.53.62-.72.49-.28.73-.28c.4,0,.75.13,1.04.38s.45.68.45,1.29c0,1.17-.46,1.76-1.38,1.76Z"/>
  </g>
</svg>