<?xml version="1.0" encoding="UTF-8"?>
<svg id="Layer_1" xmlns="http://www.w3.org/2000/svg" viewBox="0 0 442.05 75.6">
  <defs>
    <style>
      .cls-1 {
        fill: none;
        stroke: #231f20;
      }

      .cls-1, .cls-2 {
        stroke-miterlimit: 10;
        stroke-width: 2px;
      }

      .cls-2 {
        fill: #263779;
        stroke: #010101;
      }

      .cls-3 {
        fill: #eaa294;
      }

      .cls-4 {
        fill: #ededed;
      }

      .cls-5 {
        fill: #c18678;
      }
    </style>
  </defs>
  <path class="cls-2" d="M438.29,1.86l-.08,72.12-344.4-.36c-2.12,0-4.23-.39-6.22-1.14L3.7,40.78c-2.98-1.13-2.98-5.49,0-6.62L88.22,2.43c1.63-.61,3.35-.93,5.09-.92l344.98.36Z"/>
  <path class="cls-5" d="M56.22,23.25c-1.28.77-2,1.97-2.45,3.3-.21.16-.4.34-.6.52-1.27-.09-2.58.18-3.66.84-.41.25-.77.55-1.11.87-.82-.03-1.65.06-2.48.32-4.38,1.33-5.33,5.96-4.54,9.93.71,3.6,3,7.39,6.28,9.19.67.37,1.4.67,2.16.87,1.34,1.87,3.44,3.1,6.15,2.99,2.62-.1,5.16-1.48,7.02-3.49.46.11.94.19,1.45.21,5.09.15,7.1-5,6.43-9.37.12-2.1-.74-4.25-2.13-5.79-.15-.17-.32-.31-.48-.46.58-.98.7-2.25.04-3.26-.28-.43-.59-.83-.92-1.21,0,0,0,0,0,0-.31-.43-.61-.86-.93-1.28-.74-.99-1.49-1.99-2.41-2.82-2.14-1.92-5.18-2.95-7.84-1.35Z"/>
  <path class="cls-3" d="M89.86,3.01c-.91.12-1.61.55-2.26,1.16-.04.04-.31.3-.51.51-.24.04-.49.16-.73.21-.3.07-.6.12-.91.17-.1.01-.36.05-.45.06-1.36.16-2.76.28-4.07.73-1.48.52-2.51,1.4-3.74,2.31.35-.26-.51.32-.48.3-.26.16-.52.3-.79.44-.41.22-.82.42-1.23.62-.29,0-.59,0-.89.05-1.2.2-2.3.79-3.33,1.43-.48-.11-.98-.11-1.48.08-.67.25-1.34.53-2,.81-.25.1-.49.21-.74.31-.11.05-.87.44-.21.09-.46.25-1,.4-1.5.56-.25.08-.5.14-.75.22-.02,0-.03,0-.05.02-1.62.03-2.86.77-3.96,1.91,0,.01-.02.02-.03.03-.7.22-1.38.46-2.06.76-.25.11-.49.25-.72.39-1.67.15-3.37.17-4.96.77-.86.33-1.72.74-2.52,1.22-.07-.02-.13-.05-.2-.06-1.28-.23-2.37-.05-3.51.61-.66.38-1.32.77-2.01,1.11-.18.09-.36.17-.54.26-.03.01-.22.09-.32.14-.11.04-.28.1-.3.11-.2.07-.4.14-.6.21-.83.29-1.67.55-2.52.81-1.83.55-3.58,1.3-5.33,2.06-.39.17-.79.34-1.18.51-.24.1-.49.21-.73.32-.03.01-.22.09-.33.14-.11.04-.32.13-.35.14-.19.07-.37.13-.56.2-.52.18-1.06.38-1.54.65-.07.04-.12.09-.18.13-.96-.48-2.13-.52-3.07.08-1.46.94-2.12,2.89-1.17,4.45.49.81.85,1.55,1.49,2.27.09.1.18.19.27.29.01.02.02.03.03.05.04.08.06.13.09.17.04.13.09.26.13.4.03.13.13.9.14.8.02.33.04.66.04.99,0,.39-.02.79-.04,1.18-.01.19-.03.38-.04.57,0,.06,0,.1-.01.14,0,.05-.02.13-.05.28-.04.21-.08.42-.13.62-.09.42-.2.83-.3,1.25-.2.84-.33,1.69-.49,2.53-.08.42-.21.83-.32,1.25-.01.03-.01.04-.02.06-.05.1-.1.2-.16.29-.02.04-.05.08-.08.12-1.66.31-2.72,2.45-2.23,3.98.59,1.82,2.2,2.57,4,2.27.42-.07.8-.21,1.17-.38.2.21.43.4.7.54,1.84.96,3.77,1.32,5.77,1.81.43.1.86.25,1.29.36,0,0,0,.01.02.02.13.11.33.22.47.3.02,0,.02,0,.03.02.14.11.28.22.42.33.46.37.93.76,1.44,1.08,1.61,1.02,3.6,1.06,5.36,1.73,1.09.42,2.24.78,3.39,1.09.58.78,1.48,1.3,2.56,1.31.93.01,1.3.07,2.22.23.73.12,1.46.22,2.19.32.23.26.49.5.82.65.54.25.99.63,1.48.96.67.45,1.44.76,2.19,1.04,1.25.47,2.58.69,3.86,1.1,2.72.86,5.32,2.08,8.05,2.94,0,0,0,0,0,0,.07.05.13.11.19.16,1.17.85,2.51,1.25,3.82,1.82,1.5.66,2.92,1.46,4.45,2.06,1.53.6,3.15.95,4.69,1.51,2.78,1,5.36,2.35,8.31,2.78,2.13.31,4.58.49,6.66-.3,2.99.48,5.78-.47,8.63-1.31.44-.13.86-.29,1.29-.44,2.48.48,4.51-.39,6.78-1.41,2.04-.92,4.51-1.13,5.81-3.19.97-1.53.9-3.41.76-5.14-.22-2.75-1.96-4.39-4.45-5.31-2.04-.76-4.09-1.47-6.11-2.27-1.83-.73-3.44-1.77-5.22-2.6-2.1-.97-4.36-1.36-6.62-1.76-.6-.1-1.21-.21-1.81-.3,1.06-.22,2.1-.52,3.15-.78.21.05.44.07.67.07,1.15,0,2.26-.02,3.4-.2.37-.06.74-.16,1.1-.28.08.03.15.07.23.09,1.36.37,2.96.24,4.28-.22,1.31-.46,2.36-1.31,3.59-1.92.02-.01.03-.02.05-.03.02,0,.03,0,.05-.02.15-.06.3-.12.44-.17.3-.12.59-.23.89-.35.8-.32,1.61-.65,2.38-1.04,1.32-.68,2.43-1.56,3.17-2.87.74-1.32,1.12-2.75.68-4.16-.03-1.06-.27-2.1-.76-2.89-1.01-1.64-2.7-2.34-4.36-3.09-.24-.21-.46-.43-.7-.63-.68-.56-1.46-.88-2.26-.91-.12-.08-.25-.14-.37-.22-.8-.57-1.62-1.41-2.58-1.93-1.94-1.04-4.08-1.47-6.22-1.9-.99-.2-2-.39-3.01-.56.47-.52.7-1.09.77-1.66,3.36-.15,6.78-.63,10.04-1.38,3.22-.74,6.55-2.22,8.4-5.11,2.21-3.45.58-7.28-2.6-9.38-.16-.1-.32-.18-.48-.27-.43-1.07-1.38-1.92-2.87-1.95-2.51-.05-5.14-.76-7.56-1.09-2.55-.34-5.15-1.04-7.81-1.11-2.49-.06-5.19-.33-7.68.03-.61-.34-1.33-.5-2.14-.39Z"/>
  <path class="cls-1" d="M21.75,47.32c6.03-5.41,6.74-14.42,1.58-20.14"/>
  <g>
    <path class="cls-1" d="M91.45,2.43c24.09.03,31.76,4.83,31.38,11.74"/>
    <path class="cls-1" d="M93.77,24.53c16.05.02,29.05-4.61,29.06-10.35"/>
  </g>
  <g>
    <path class="cls-1" d="M93.79,24.51c16.05.02,29.03,6.25,29.01,13.92"/>
    <path class="cls-1" d="M93.75,49.81c16.05.02,29.04-5.06,29.05-11.38"/>
  </g>
  <g>
    <path class="cls-1" d="M93.76,49.81c16.05.02,29.03,5.89,29.02,13.1"/>
    <path class="cls-1" d="M92.17,72.92c16.63,1.84,30.6-4.06,30.61-10"/>
  </g>
  <line class="cls-1" x1="12.71" y1="44.03" x2="92.17" y2="72.92"/>
  <line class="cls-1" x1="13.47" y1="30.66" x2="92.24" y2="2.14"/>
  <g>
    <path class="cls-4" d="M171.92,43.7c-.14.17-.31.31-.51.42s-.36.16-.5.16c-.41,0-.68-.19-.81-.57-.13-.38-.2-.93-.2-1.64,0-.23.01-1.19.04-2.89.02-.93.03-1.55.03-1.88,0-.77,0-1.81-.03-3.12v-2.38c-.01-1.67.06-2.9.22-3.7.15-.79.45-1.19.9-1.19.15,0,.3.09.46.28.16.18.29.42.4.69.11.28.16.54.16.79v2.82c-.02.63-.03,1.56-.03,2.79h7.58c-.04-2.86-.06-4.64-.06-5.35.02-.68.09-1.2.22-1.55.12-.35.38-.53.75-.53.45,0,.75.22.91.67.16.44.24,1.15.24,2.11,0,.17,0,.32-.01.45,0,.22,0,.69-.01,1.42,0,.73-.01,1.7-.01,2.9.07.13.13.3.19.5s.09.4.1.61l-.19.93c.08,2.26.12,4.38.12,6.37,0,.42-.1.78-.31,1.07-.2.29-.47.43-.8.43-.42,0-.71-.15-.89-.45s-.26-.85-.25-1.64l.09-5.17h-3.02c-1.32,0-2.29,0-2.92.03-.63.02-1.19.05-1.7.1.05,3.66.07,5.48.07,5.44v.55c0,.19-.07.37-.22.55Z"/>
    <path class="cls-4" d="M199.52,41.32c.13.19.2.49.2.91,0,.32-.09.64-.28.96s-.45.59-.77.79c-.33.21-.69.31-1.09.31s-.78-.13-1.17-.4c-.39-.27-.71-.62-.96-1.06-.25-.44-.37-.89-.37-1.35-.75.9-1.52,1.62-2.32,2.16-.8.54-1.65.81-2.55.81-.82,0-1.66-.25-2.51-.76s-1.55-1.2-2.09-2.06c-.55-.86-.82-1.8-.82-2.8,0-1.35.32-2.67.97-3.96s1.51-2.35,2.6-3.16,2.26-1.22,3.52-1.22c.95,0,1.84.27,2.66.82s1.47,1.25,1.95,2.12c.48.86.72,1.74.72,2.63,0,.38-.03.76-.09,1.13s-.09.61-.1.71c-.08.44-.14.84-.18,1.18-.04.34-.06.71-.06,1.1,0,.56.09.96.26,1.2.17.24.43.36.78.36.09,0,.18-.03.28-.1.09-.07.21-.16.34-.28.02-.02.08-.07.17-.15.09-.08.18-.13.26-.16.31,0,.53.09.66.28ZM193.37,40.81c.64-.61,1.07-1.31,1.3-2.1.23-.79.45-1.81.65-3.08,0-.29-.18-.63-.55-1.01-.37-.38-.81-.7-1.32-.98s-.97-.41-1.38-.41c-1.02,0-1.94.27-2.74.81-.8.54-1.43,1.24-1.87,2.09s-.66,1.71-.66,2.59c0,.58.19,1.09.57,1.55.38.46.87.81,1.47,1.07s1.21.38,1.84.38c1.16,0,2.06-.31,2.7-.92Z"/>
    <path class="cls-4" d="M204.37,34.23c-.65.79-.98,2.01-.98,3.65v.5l.15,4.36c0,.16-.04.36-.11.59-.07.23-.19.43-.36.61-.16.17-.37.26-.63.26-.48,0-.8-.14-.98-.41s-.27-.72-.27-1.35c0-.42,0-.85.03-1.3,0-.15.01-.35.01-.59v-1.33c0-.53.03-1.26.08-2.18s.18-2.54.37-4.86c.03-.47.14-.84.33-1.12s.47-.41.83-.41c.2,0,.38.12.56.38.17.25.26.65.26,1.2,0,.84-.01,1.35-.04,1.54.2-.6.58-1.17,1.15-1.69.57-.52,1.19-.94,1.87-1.25.67-.31,1.26-.47,1.76-.47.81,0,1.53.15,2.16.45.62.3.94.9.94,1.8,0,.28-.07.54-.19.78s-.29.42-.5.55c-.2.13-.41.2-.63.2-.19,0-.33-.03-.42-.1-.09-.07-.17-.17-.25-.31-.12-.22-.28-.38-.48-.5-.2-.12-.56-.18-1.07-.18h-.34c-1.51,0-2.59.4-3.24,1.19Z"/>
    <path class="cls-4" d="M227.05,30.82c.53.22.96.52,1.3.92.34.4.54.85.6,1.36l.03-4.06.03-4.04c0-.99.38-1.49,1.13-1.49.29,0,.5.13.62.4s.19.58.19.95v2.1s-.04,2.14-.04,2.14l-.18,8.99-.06,2.45c-.01,1.26-.1,2.2-.26,2.84-.16.64-.5.96-1,.96-.2,0-.37-.12-.51-.37s-.3-.6-.48-1.08c-.33.3-.76.56-1.29.77-.54.21-1.09.37-1.65.48-.57.11-1.06.16-1.47.16-1.78,0-3.12-.56-4.04-1.67s-1.37-2.63-1.37-4.55c0-1.32.27-2.56.81-3.72s1.32-2.1,2.35-2.8,2.22-1.06,3.6-1.06c.6,0,1.16.11,1.69.33ZM226.44,41.49c.6-.2,1.08-.45,1.43-.73s.57-.54.65-.78c.08-.25.13-.51.16-.79.02-.28.04-.61.04-.99v-1.3c0-.64-.15-1.25-.46-1.83s-.72-1.04-1.23-1.39-1.04-.52-1.6-.52c-.96,0-1.8.21-2.52.62s-1.27.99-1.65,1.72c-.38.73-.57,1.56-.57,2.5,0,.76.16,1.44.48,2.01s.77,1.02,1.33,1.32c.57.31,1.2.46,1.89.46.77,0,1.46-.1,2.06-.3Z"/>
    <path class="cls-4" d="M236.42,33.56c-.14.71-.24,1.3-.31,1.78s-.1.96-.1,1.44c0,.69.08,1.41.22,2.17.15.76.43,1.43.85,2,.42.57,1,.86,1.74.86.92,0,1.69-.24,2.3-.71s1.18-1.13,1.72-1.97c.02-.25.08-1.16.16-2.75l.03-.71.04-3.95c0-.41.12-.71.36-.91s.49-.3.75-.3c.23,0,.43.1.62.3.18.2.28.47.28.82l-.24,11.27c0,.53-.08.89-.22,1.07-.14.18-.38.28-.73.28-.3,0-.52-.05-.68-.15-.15-.1-.27-.31-.33-.62-.07-.32-.1-.81-.1-1.48,0-.48,0-.87.03-1.18-.17.69-.46,1.32-.87,1.88-.41.57-.88,1.01-1.41,1.33-.53.32-1.04.48-1.55.48-1.96,0-3.27-.75-3.95-2.26-.67-1.51-1.01-3.23-1.01-5.16,0-.98.06-1.98.18-2.98.12-1,.32-1.86.6-2.56.28-.7.65-1.05,1.11-1.05.55,0,.82.33.82,1.01,0,.39-.1,1.06-.3,2.02Z"/>
    <path class="cls-4" d="M254.67,33.12c.3-.64.72-1.16,1.26-1.56.54-.4,1.12-.69,1.73-.86.61-.17,1.19-.26,1.74-.26,1.46,0,2.71.25,3.75.75,1.04.5,1.83,1.18,2.38,2.05.54.87.81,1.85.81,2.93,0,1.62-.28,3.05-.85,4.27-.57,1.22-1.37,2.17-2.42,2.83-1.05.67-2.27,1-3.67,1-.49,0-.92-.03-1.31-.08-.39-.05-.9-.14-1.53-.26v1.16c0,.69.05,1.55.15,2.59.1,1.02.15,1.85.15,2.51,0,.36-.13.64-.39.86-.26.21-.53.32-.82.32-.41,0-.7-.1-.87-.31s-.28-.5-.32-.87c-.04-.37-.06-.96-.06-1.76,0-1.4.09-6.49.28-15.29ZM256.52,39.65c.04.86.06,1.45.08,1.75,0,.08.21.13.65.16.44.03.86.04,1.24.04,1.04,0,2-.18,2.87-.55.87-.36,1.57-.92,2.09-1.67.53-.75.79-1.68.79-2.78s-.43-2.01-1.3-2.61c-.86-.59-2.06-.89-3.59-.89-.34,0-.72.05-1.16.16s-.81.25-1.13.45c-.32.19-.48.42-.48.67l-.09,3.58c-.02.26-.01.83.02,1.69Z"/>
    <path class="cls-4" d="M272.81,34.23c-.65.79-.98,2.01-.98,3.65v.5l.15,4.36c0,.16-.04.36-.11.59-.07.23-.19.43-.36.61-.16.17-.37.26-.63.26-.48,0-.8-.14-.98-.41s-.27-.72-.27-1.35c0-.42,0-.85.03-1.3,0-.15.01-.35.01-.59v-1.33c0-.53.03-1.26.08-2.18s.18-2.54.37-4.86c.03-.47.14-.84.33-1.12s.47-.41.83-.41c.2,0,.38.12.56.38.17.25.26.65.26,1.2,0,.84-.01,1.35-.04,1.54.2-.6.58-1.17,1.15-1.69.57-.52,1.19-.94,1.87-1.25.67-.31,1.26-.47,1.76-.47.81,0,1.53.15,2.16.45.62.3.94.9.94,1.8,0,.28-.07.54-.19.78s-.29.42-.5.55c-.2.13-.41.2-.63.2-.19,0-.33-.03-.42-.1-.09-.07-.17-.17-.25-.31-.12-.22-.28-.38-.48-.5-.2-.12-.56-.18-1.07-.18h-.34c-1.51,0-2.59.4-3.24,1.19Z"/>
    <path class="cls-4" d="M283.96,43.4c-.92-.7-1.66-1.58-2.21-2.65-.55-1.07-.83-2.13-.83-3.17,0-1.64.3-3,.9-4.06.6-1.07,1.38-1.84,2.34-2.33.96-.49,1.99-.73,3.11-.73,1.18,0,2.2.29,3.05.87.85.58,1.51,1.41,1.96,2.48.45,1.07.68,2.33.68,3.77,0,1.31-.29,2.49-.86,3.54s-1.32,1.86-2.25,2.45-1.91.88-2.94.88-2.03-.35-2.95-1.05ZM290.56,35.22c-.29-.65-.7-1.16-1.21-1.52-.52-.36-1.09-.55-1.73-.55-.78,0-1.54.16-2.28.47-.74.32-1.34.79-1.8,1.41s-.7,1.37-.7,2.25c0,.74.19,1.46.56,2.16.38.7.87,1.27,1.47,1.71.61.44,1.23.66,1.88.66.73,0,1.43-.17,2.08-.52.65-.35,1.17-.85,1.57-1.51.4-.66.6-1.43.6-2.33,0-.84-.15-1.59-.44-2.24Z"/>
    <path class="cls-4" d="M298.01,43.96c-.12,0-.23.02-.33.07s-.16.08-.19.08c-.2.12-.4.18-.6.18-.47,0-.77-.24-.92-.71-.14-.48-.22-1.23-.22-2.26v-1.22l.25-15.41c0-.42.08-.76.23-.99.15-.24.43-.35.83-.35.13,0,.27.05.43.14s.29.22.4.39c.11.17.16.35.16.56,0,.84-.02,1.74-.04,2.69-.04,1.62-.06,3.13-.06,4.52.61-.35,1.19-.62,1.76-.82.57-.2,1.14-.3,1.71-.3,1.84,0,3.22.56,4.15,1.67s1.4,2.77,1.4,4.96c0,1.63-.38,2.98-1.14,4.05s-1.68,1.84-2.75,2.33c-1.07.49-2.08.73-3.04.73-.67,0-1.35-.1-2.05-.31ZM297.98,40.4c.04.48.1.8.19.96.3.15.93.23,1.91.23.46,0,.96-.09,1.53-.28.56-.18,1.08-.43,1.57-.75.49-.32.85-.66,1.1-1.03.18-.31.32-.79.43-1.42.11-.64.16-1.24.16-1.82s-.21-1.1-.63-1.56c-.42-.47-.93-.83-1.53-1.1-.6-.26-1.15-.4-1.65-.4-.53,0-1.1.14-1.73.43-.63.29-1.08.62-1.37,1-.03.78-.04,1.77-.04,2.97,0,1.36.02,2.28.05,2.76Z"/>
    <path class="cls-4" d="M315.29,41.29c.14.26.22.58.22.93s-.12.7-.35,1.01-.52.54-.86.71c-.34.17-.64.25-.91.25-.97,0-1.68-.3-2.13-.89-.45-.59-.67-1.47-.66-2.62l.19-15.53c0-.62.09-1.13.27-1.51.18-.38.46-.57.83-.57.25,0,.45.14.62.42.16.28.25.58.25.9l-.19,13.61v.48c0,.89.07,1.62.2,2.21.13.59.35.88.65.88.13,0,.24-.03.33-.08.09-.06.19-.14.31-.25s.22-.2.31-.25c.08-.05.19-.08.31-.08.27,0,.47.13.62.4Z"/>
    <path class="cls-4" d="M328.68,41.21c.18.22.28.56.28,1.02,0,.89-.67,1.47-2.02,1.76-1.35.28-2.67.42-3.98.42-.98,0-1.93-.27-2.84-.81-.91-.54-1.65-1.28-2.22-2.22-.57-.93-.85-1.96-.85-3.07,0-1.6.27-3.01.82-4.23s1.34-2.18,2.39-2.87c1.05-.68,2.29-1.03,3.73-1.03.76,0,1.52.18,2.27.54.75.36,1.37.88,1.85,1.57s.73,1.5.73,2.44c0,.48-.07.88-.22,1.21-.15.33-.35.53-.61.62l-9.01,3.06c.31.93.93,1.54,1.88,1.83s1.99.42,3.14.42c.38,0,.75-.05,1.13-.16.38-.1.82-.25,1.34-.44.33-.12.6-.22.81-.28.21-.07.4-.1.56-.1.37,0,.64.11.83.33ZM321.39,36.62c.95-.36,2.17-.83,3.66-1.42,1-.4,1.69-.66,2.05-.79-.27-.55-.72-.95-1.35-1.2-.64-.25-1.37-.38-2.2-.38-.47,0-1.04.17-1.73.5-.68.33-1.32.85-1.89,1.55-.58.7-.94,1.56-1.09,2.58.75-.2,1.59-.48,2.55-.84Z"/>
    <path class="cls-4" d="M348.64,37.16c0-.53-.14-1.06-.42-1.59-.28-.53-.68-.97-1.21-1.32-.53-.34-1.14-.52-1.85-.52-.37,0-.78.09-1.25.28-.47.18-.9.44-1.3.77-.4.33-.68.7-.85,1.1l-.15,5.76.06.42.06.44c0,.47-.09.88-.28,1.22s-.42.51-.7.51c-.44,0-.79-.11-1.06-.33-.27-.22-.41-.62-.41-1.22l.04-.3c.08-.65.12-1.03.12-1.15l.06-4.23c0-.56-.1-1.12-.33-1.68-.23-.56-.55-1.02-.98-1.39-.42-.36-.9-.55-1.44-.55-.74,0-1.31.09-1.73.27s-.71.46-.89.85-.26.91-.26,1.57v.55c0,.52.03,1.28.09,2.28,0,.17,0,.4.03.68l.27,3.26c0,.27-.07.52-.21.74-.14.22-.3.39-.48.51s-.33.18-.44.18c-.44,0-.76-.14-.97-.41-.21-.27-.31-.78-.31-1.52v-.48c.02-.07.03-.17.03-.33v-2.28c-.02-.34-.03-.78-.03-1.33v-2.27c0-1.13.02-2.02.07-2.66.04-.64.14-1.14.29-1.49.15-.35.37-.52.67-.52.59,0,.88.5.88,1.5v.25c.14-.36.37-.7.68-1.01.32-.32.68-.57,1.09-.77s.83-.3,1.24-.3c.53,0,1.12.13,1.77.38s1.22.65,1.7,1.2c.48.54.71,1.22.71,2.03.14-.64.45-1.21.93-1.69.48-.49,1.04-.86,1.66-1.12.63-.26,1.2-.39,1.71-.39,1.74,0,3.08.59,4.04,1.78.96,1.18,1.44,3.02,1.44,5.5,0,1.69-.11,3.12-.34,4.3s-.58,1.77-1.04,1.77c-.25,0-.48-.09-.69-.28-.21-.18-.38-.41-.51-.69s-.19-.53-.19-.76c0-.32.03-.6.08-.84.05-.24.13-.51.23-.8.11-.31.19-.59.25-.84.05-.25.08-.54.08-.89l.02-2.19Z"/>
    <path class="cls-4" d="M365.22,41.21c.18.22.28.56.28,1.02,0,.89-.67,1.47-2.02,1.76-1.35.28-2.67.42-3.98.42-.98,0-1.93-.27-2.84-.81-.91-.54-1.65-1.28-2.22-2.22-.57-.93-.85-1.96-.85-3.07,0-1.6.27-3.01.82-4.23s1.34-2.18,2.39-2.87c1.05-.68,2.29-1.03,3.73-1.03.76,0,1.52.18,2.27.54.75.36,1.37.88,1.85,1.57s.73,1.5.73,2.44c0,.48-.07.88-.22,1.21-.15.33-.35.53-.61.62l-9.01,3.06c.31.93.93,1.54,1.88,1.83s1.99.42,3.14.42c.38,0,.75-.05,1.13-.16.38-.1.82-.25,1.34-.44.33-.12.6-.22.81-.28.21-.07.4-.1.56-.1.37,0,.64.11.83.33ZM357.93,36.62c.95-.36,2.17-.83,3.66-1.42,1-.4,1.69-.66,2.05-.79-.27-.55-.72-.95-1.35-1.2-.64-.25-1.37-.38-2.2-.38-.47,0-1.04.17-1.73.5-.68.33-1.32.85-1.89,1.55-.58.7-.94,1.56-1.09,2.58.75-.2,1.59-.48,2.55-.84Z"/>
    <path class="cls-4" d="M371.81,34.23c-.65.79-.98,2.01-.98,3.65v.5l.15,4.36c0,.16-.04.36-.11.59-.07.23-.19.43-.36.61-.16.17-.38.26-.63.26-.48,0-.8-.14-.98-.41s-.27-.72-.27-1.35c0-.42,0-.85.03-1.3,0-.15.01-.35.01-.59v-1.33c0-.53.03-1.26.08-2.18s.18-2.54.37-4.86c.03-.47.14-.84.33-1.12.19-.27.47-.41.83-.41.2,0,.38.12.56.38.17.25.26.65.26,1.2,0,.84-.02,1.35-.04,1.54.2-.6.58-1.17,1.15-1.69.57-.52,1.19-.94,1.87-1.25s1.26-.47,1.76-.47c.81,0,1.53.15,2.16.45.62.3.94.9.94,1.8,0,.28-.06.54-.19.78s-.3.42-.5.55-.41.2-.63.2c-.19,0-.33-.03-.42-.1-.09-.07-.17-.17-.25-.31-.12-.22-.28-.38-.48-.5-.2-.12-.56-.18-1.06-.18h-.34c-1.51,0-2.59.4-3.24,1.19Z"/>
    <path class="cls-4" d="M383.08,38.59l-.06-.75c-.18-1.57.37-3.28,1.89-5.02,1.37-1.54,2.14-2.67,2.14-3.97,0-1.48-.98-2.47-2.9-2.49-1.1,0-2.32.35-3.08.9l-.73-1.83c1.01-.7,2.75-1.16,4.36-1.16,3.51,0,5.09,2.06,5.09,4.26,0,1.97-1.16,3.39-2.62,5.05-1.34,1.51-1.83,2.78-1.74,4.26l.03.75h-2.38ZM382.41,42.65c0-1.07.76-1.83,1.83-1.83s1.8.75,1.8,1.83c0,1.02-.7,1.8-1.83,1.8-1.07,0-1.8-.78-1.8-1.8Z"/>
  </g>
</svg>