<?xml version="1.0" encoding="UTF-8"?>
<svg id="Layer_1" xmlns="http://www.w3.org/2000/svg" version="1.1" viewBox="0 0 396.7 72.87">
  <!-- Generator: Adobe Illustrator 29.1.0, SVG Export Plug-In . SVG Version: 2.1.0 Build 142)  -->
  <defs>
    <style>
      .st0 {
        fill: #ffc721;
      }

      .st0, .st1 {
        stroke: #231f20;
        stroke-miterlimit: 10;
        stroke-width: 2px;
      }

      .st1 {
        fill: none;
      }

      .st2 {
        fill: #c18678;
      }

      .st3 {
        fill: #eaa294;
      }

      .st4 {
        fill: #ededed;
      }
    </style>
  </defs>
  <path class="st0" d="M394.59,1.2l-.09,71.67-309.94-.52c-1.91,0-3.8-.39-5.6-1.14L3.48,39.66c-2.68-1.12-2.68-5.46,0-6.58L79.55,1.59c1.47-.61,3.02-.92,4.58-.92l310.46.52Z"/>
  <path class="st2" d="M48.98,22.26c-1.11.77-1.73,1.96-2.12,3.28-.18.16-.35.34-.52.51-1.11-.09-2.24.18-3.18.83-.36.25-.67.54-.96.86-.71-.03-1.43.06-2.15.31-3.8,1.32-4.63,5.92-3.94,9.87.62,3.58,2.6,7.34,5.45,9.14.58.36,1.22.66,1.88.86,1.16,1.86,2.98,3.08,5.34,2.98,2.27-.1,4.48-1.47,6.1-3.46.4.11.82.19,1.26.21,4.41.15,6.16-4.97,5.58-9.31.1-2.09-.64-4.22-1.85-5.76-.13-.17-.28-.31-.42-.46.51-.98.61-2.23.04-3.24-.24-.42-.51-.82-.8-1.2,0,0,0,0,0,0-.27-.43-.53-.85-.81-1.27-.64-.98-1.29-1.98-2.09-2.8-1.85-1.9-4.5-2.93-6.8-1.34Z"/>
  <path class="st3" d="M78.17,2.17c-.79.12-1.4.54-1.97,1.15-.04.04-.27.3-.45.51-.21.04-.43.15-.63.21-.26.07-.52.12-.79.17-.09.01-.31.05-.39.06-1.18.16-2.4.27-3.53.72-1.29.51-2.17,1.39-3.25,2.3.3-.26-.44.31-.42.3-.22.16-.46.3-.69.44-.35.21-.71.41-1.07.62-.25,0-.51,0-.78.05-1.04.2-2,.78-2.89,1.42-.41-.11-.85-.11-1.28.08-.58.25-1.16.53-1.73.81-.21.1-.43.21-.64.31-.09.05-.76.44-.18.09-.4.24-.87.4-1.3.55-.22.08-.44.14-.65.22-.02,0-.02,0-.04.02-1.4.03-2.48.77-3.43,1.9,0,.01-.02.02-.03.03-.61.22-1.2.46-1.79.76-.22.11-.42.25-.63.38-1.45.14-2.92.16-4.3.76-.75.33-1.49.73-2.19,1.21-.06-.02-.11-.05-.17-.06-1.11-.23-2.06-.05-3.05.6-.58.38-1.14.76-1.74,1.1-.16.09-.31.17-.47.26-.03.01-.19.09-.28.14-.1.04-.24.1-.26.11-.17.07-.35.14-.52.21-.72.29-1.45.55-2.18.8-1.59.55-3.1,1.29-4.63,2.04-.34.17-.68.33-1.03.5-.21.1-.42.21-.63.31-.03.01-.19.09-.29.14-.1.04-.28.13-.31.14-.16.07-.32.13-.49.2-.46.18-.92.38-1.34.65-.06.04-.11.09-.16.13-.83-.47-1.85-.52-2.66.08-1.27.93-1.84,2.87-1.02,4.42.42.8.73,1.54,1.29,2.26.08.1.15.19.23.29.01.02.02.03.03.05.03.08.06.13.08.17.04.13.08.26.11.4.03.13.12.89.12.8.02.33.03.65.03.98,0,.39-.02.78-.04,1.17-.01.19-.02.38-.04.57,0,.06,0,.1-.01.14,0,.05-.02.13-.04.28-.03.21-.07.41-.11.62-.08.42-.18.83-.26,1.24-.18.83-.28,1.68-.43,2.52-.07.42-.18.83-.27,1.24,0,.03-.01.04-.02.06-.04.1-.09.2-.13.29-.02.04-.05.08-.07.12-1.44.31-2.36,2.43-1.93,3.95.51,1.81,1.91,2.55,3.47,2.26.36-.07.7-.2,1.01-.38.17.21.37.4.61.54,1.6.96,3.27,1.32,5.01,1.8.38.1.74.25,1.12.36,0,0,0,.01.02.02.11.11.28.22.41.3.01,0,.02,0,.03.02.12.11.24.22.36.33.4.37.81.76,1.25,1.07,1.4,1.01,3.13,1.05,4.65,1.73.95.42,1.94.77,2.94,1.09.51.77,1.29,1.29,2.22,1.3.81.01,1.13.07,1.93.23.63.12,1.26.22,1.9.32.2.26.43.49.71.65.47.25.86.63,1.29.96.58.45,1.25.75,1.9,1.03,1.09.46,2.24.69,3.35,1.09,2.36.86,4.61,2.07,6.98,2.93,0,0,0,0,0,0,.06.05.11.11.17.15,1.01.84,2.18,1.24,3.31,1.81,1.3.65,2.54,1.45,3.86,2.05,1.33.6,2.73.95,4.07,1.51,2.41,1,4.65,2.34,7.21,2.77,1.85.31,3.97.49,5.78-.3,2.6.48,5.01-.47,7.49-1.3.38-.13.75-.29,1.12-.44,2.15.47,3.92-.39,5.89-1.4,1.77-.91,3.91-1.13,5.04-3.16.84-1.52.78-3.38.66-5.11-.19-2.73-1.7-4.36-3.86-5.28-1.77-.75-3.54-1.46-5.3-2.26-1.59-.73-2.99-1.76-4.53-2.58-1.82-.96-3.78-1.36-5.75-1.75-.52-.1-1.05-.21-1.57-.3.92-.22,1.82-.52,2.73-.77.19.05.38.07.58.07,1,0,1.96-.01,2.95-.2.32-.06.64-.16.95-.28.07.03.13.07.2.09,1.18.37,2.57.24,3.71-.22,1.14-.46,2.05-1.3,3.11-1.91.02-.01.03-.02.04-.02.02,0,.02,0,.05-.02.13-.06.26-.12.38-.17.26-.11.51-.23.77-.34.7-.32,1.4-.64,2.07-1.03,1.15-.67,2.11-1.55,2.75-2.85.64-1.31.97-2.73.59-4.13-.03-1.05-.24-2.08-.66-2.88-.87-1.63-2.34-2.32-3.78-3.07-.2-.21-.4-.43-.61-.62-.59-.55-1.27-.88-1.96-.91-.11-.08-.22-.14-.32-.22-.69-.57-1.4-1.4-2.24-1.91-1.68-1.04-3.54-1.46-5.4-1.89-.86-.2-1.73-.39-2.61-.55.41-.52.61-1.08.67-1.64,2.92-.15,5.88-.62,8.71-1.37,2.8-.73,5.68-2.2,7.29-5.07,1.92-3.42.5-7.24-2.25-9.32-.14-.1-.28-.17-.42-.26-.37-1.06-1.2-1.91-2.49-1.94-2.18-.05-4.46-.76-6.56-1.08-2.21-.34-4.47-1.04-6.78-1.1-2.16-.06-4.5-.33-6.66.03-.53-.34-1.16-.49-1.86-.39Z"/>
  <path class="st1" d="M19.06,46.17c5.23-5.37,5.85-14.33,1.38-20.02"/>
  <g>
    <path class="st1" d="M79.55,1.59c20.9.04,27.56,4.81,27.22,11.68"/>
    <path class="st1" d="M81.56,23.55c13.93.03,25.21-4.57,25.22-10.28"/>
  </g>
  <g>
    <path class="st1" d="M81.58,23.54c13.92.03,25.18,6.23,25.17,13.85"/>
    <path class="st1" d="M81.53,48.68c13.92.03,25.2-5.02,25.21-11.29"/>
  </g>
  <g>
    <path class="st1" d="M81.54,48.68c13.93.03,25.19,5.86,25.18,13.04"/>
    <path class="st1" d="M80.15,71.65c14.43,1.83,26.55-4.03,26.56-9.93"/>
  </g>
  <line class="st1" x1="11.22" y1="42.9" x2="80.15" y2="71.65"/>
  <line class="st1" x1="11.88" y1="29.61" x2="80.25" y2="1.3"/>
  <g>
    <path class="st4" d="M143.31,45.74c-.14.17-.31.31-.51.42-.19.1-.36.16-.5.16-.41,0-.68-.19-.81-.57-.13-.38-.2-.93-.2-1.64,0-.23.01-1.19.04-2.89.02-.93.03-1.55.03-1.88,0-.77,0-1.81-.03-3.12v-2.38c-.01-1.67.06-2.9.22-3.7s.45-1.19.9-1.19c.15,0,.3.09.46.28.16.18.29.42.4.69.11.28.16.54.16.79l-.02,2.82c0,.63-.01,1.56-.01,2.79h7.58c-.04-2.86-.06-4.64-.06-5.35.02-.68.09-1.2.22-1.55.12-.35.37-.53.75-.53.45,0,.75.22.91.67s.24,1.15.24,2.11c0,.17,0,.32-.01.45,0,.22,0,.69-.02,1.42,0,.73-.01,1.7-.01,2.9.07.13.13.3.19.5.05.2.09.4.1.61l-.19.93c.08,2.26.12,4.38.12,6.37,0,.42-.1.78-.31,1.07-.2.29-.47.43-.8.43-.42,0-.71-.15-.89-.45s-.26-.85-.25-1.64l.09-5.17h-3.02c-1.32,0-2.29,0-2.92.03s-1.19.05-1.7.1c.05,3.66.07,5.48.07,5.44l.02.55c-.01.19-.09.37-.23.55Z"/>
    <path class="st4" d="M170.91,43.37c.13.19.2.49.2.91,0,.32-.09.64-.28.96s-.45.59-.77.79c-.33.21-.69.31-1.09.31s-.78-.13-1.17-.4c-.39-.27-.71-.62-.96-1.06-.25-.44-.37-.89-.37-1.35-.74.9-1.52,1.62-2.32,2.16-.8.54-1.65.81-2.55.81-.82,0-1.66-.25-2.51-.76-.85-.51-1.55-1.2-2.09-2.06-.55-.86-.82-1.8-.82-2.8,0-1.35.32-2.67.97-3.96.65-1.29,1.51-2.35,2.6-3.16,1.09-.81,2.26-1.22,3.52-1.22.95,0,1.84.27,2.66.82.82.55,1.47,1.25,1.95,2.12.48.86.72,1.74.72,2.63,0,.38-.03.76-.09,1.13s-.09.61-.1.71c-.08.44-.14.84-.18,1.18s-.06.71-.06,1.1c0,.56.09.96.26,1.2.17.24.43.36.78.36.09,0,.18-.03.28-.1s.21-.16.34-.28c.02-.02.08-.07.17-.15.09-.08.18-.13.26-.16.31,0,.53.09.66.28ZM164.76,42.86c.64-.61,1.07-1.31,1.3-2.1.23-.79.45-1.81.65-3.08,0-.29-.18-.63-.55-1.01-.37-.38-.81-.7-1.32-.98-.51-.27-.97-.41-1.38-.41-1.02,0-1.94.27-2.74.81-.8.54-1.43,1.24-1.87,2.09-.44.85-.66,1.71-.66,2.59,0,.58.19,1.09.57,1.55.38.46.87.81,1.47,1.07.6.25,1.21.38,1.84.38,1.16,0,2.06-.31,2.7-.92Z"/>
    <path class="st4" d="M175.76,36.28c-.65.79-.98,2.01-.98,3.65v.5l.15,4.36c0,.16-.04.36-.11.59-.07.23-.19.43-.36.61-.16.17-.37.26-.63.26-.48,0-.8-.14-.98-.41s-.27-.72-.27-1.35c0-.42,0-.85.03-1.3,0-.15.01-.35.01-.59v-1.33c0-.53.03-1.26.08-2.18.05-.93.18-2.54.36-4.86.03-.47.14-.84.33-1.12.19-.27.47-.41.83-.41.2,0,.38.12.56.38.17.25.26.65.26,1.2,0,.84-.01,1.35-.04,1.54.2-.6.58-1.17,1.15-1.69.57-.52,1.19-.94,1.87-1.25.67-.31,1.26-.47,1.76-.47.81,0,1.53.15,2.16.45s.94.9.94,1.8c0,.28-.06.54-.19.78s-.3.42-.5.55-.41.2-.63.2c-.19,0-.33-.03-.42-.1s-.17-.17-.25-.31c-.12-.22-.28-.38-.48-.5-.2-.12-.56-.18-1.06-.18h-.34c-1.51,0-2.59.4-3.24,1.19Z"/>
    <path class="st4" d="M198.44,32.86c.53.22.97.52,1.3.92s.54.85.6,1.36l.03-4.06.03-4.04c0-.99.38-1.49,1.13-1.49.29,0,.5.13.63.4.13.26.19.58.19.95v2.1s-.04,2.14-.04,2.14l-.18,8.99-.06,2.45c-.01,1.26-.1,2.2-.26,2.84-.16.64-.5.96-1,.96-.2,0-.37-.12-.51-.37-.14-.25-.3-.6-.48-1.08-.33.3-.76.56-1.3.77-.54.21-1.09.37-1.65.48-.57.11-1.06.16-1.47.16-1.78,0-3.12-.56-4.04-1.67-.91-1.11-1.37-2.63-1.37-4.55,0-1.32.27-2.56.81-3.72.54-1.16,1.32-2.1,2.35-2.8s2.22-1.06,3.6-1.06c.6,0,1.16.11,1.69.33ZM197.83,43.53c.6-.2,1.08-.45,1.43-.73s.57-.54.65-.78c.08-.25.13-.51.16-.79.02-.28.04-.61.04-.99v-1.3c0-.64-.15-1.25-.46-1.83-.31-.58-.72-1.04-1.23-1.39-.51-.35-1.04-.52-1.6-.52-.96,0-1.8.21-2.52.62s-1.27.99-1.65,1.72c-.38.73-.57,1.56-.57,2.5,0,.76.16,1.44.48,2.01.32.58.77,1.02,1.33,1.32.57.31,1.2.46,1.89.46.77,0,1.46-.1,2.06-.3Z"/>
    <path class="st4" d="M207.81,35.61c-.14.71-.24,1.3-.31,1.78-.07.48-.1.96-.1,1.44,0,.69.07,1.41.22,2.17.15.76.43,1.43.85,2,.42.57,1,.86,1.74.86.92,0,1.69-.24,2.3-.71s1.18-1.13,1.72-1.97c.02-.25.07-1.16.16-2.75l.03-.71.04-3.95c0-.41.12-.71.36-.91s.49-.3.74-.3c.23,0,.43.1.62.3.18.2.28.47.28.82l-.24,11.27c0,.53-.08.89-.22,1.07-.14.18-.38.28-.73.28-.3,0-.52-.05-.68-.15-.15-.1-.27-.31-.34-.62-.07-.32-.1-.81-.1-1.48,0-.48,0-.87.03-1.18-.17.69-.46,1.32-.87,1.88-.41.57-.88,1.01-1.41,1.33-.53.32-1.04.48-1.55.48-1.96,0-3.27-.75-3.95-2.26-.68-1.51-1.01-3.23-1.01-5.16,0-.98.06-1.98.18-2.98.12-1,.32-1.86.6-2.56.28-.7.65-1.05,1.11-1.05.55,0,.82.33.82,1.01,0,.39-.1,1.06-.3,2.02Z"/>
    <path class="st4" d="M226.06,35.17c.3-.64.72-1.16,1.26-1.56.54-.4,1.12-.69,1.73-.86.61-.17,1.19-.26,1.73-.26,1.46,0,2.71.25,3.75.75,1.04.5,1.83,1.18,2.38,2.05.54.87.81,1.85.81,2.93,0,1.62-.28,3.05-.85,4.27-.57,1.22-1.37,2.17-2.42,2.83-1.05.67-2.27,1-3.67,1-.49,0-.92-.03-1.31-.08-.39-.05-.9-.14-1.53-.26v1.16c0,.69.05,1.55.15,2.59.1,1.02.15,1.85.15,2.51,0,.36-.13.64-.39.86-.26.21-.53.32-.82.32-.41,0-.7-.1-.87-.31-.17-.21-.28-.5-.32-.87-.04-.37-.06-.96-.06-1.76,0-1.4.09-6.49.28-15.29ZM227.91,41.69c.04.86.06,1.45.08,1.75,0,.08.21.13.65.16.44.03.86.04,1.24.04,1.04,0,2-.18,2.87-.55.87-.36,1.57-.92,2.09-1.67.53-.75.79-1.68.79-2.78s-.43-2.01-1.3-2.61-2.06-.89-3.59-.89c-.34,0-.72.05-1.16.16-.44.1-.81.25-1.13.45-.32.19-.48.42-.48.67l-.09,3.58c-.02.26-.01.83.02,1.69Z"/>
    <path class="st4" d="M244.2,36.28c-.65.79-.98,2.01-.98,3.65v.5l.15,4.36c0,.16-.04.36-.11.59-.07.23-.19.43-.36.61-.16.17-.37.26-.63.26-.48,0-.8-.14-.98-.41s-.27-.72-.27-1.35c0-.42,0-.85.03-1.3,0-.15.01-.35.01-.59v-1.33c0-.53.03-1.26.08-2.18.05-.93.18-2.54.36-4.86.03-.47.14-.84.33-1.12.19-.27.47-.41.83-.41.2,0,.38.12.56.38.17.25.26.65.26,1.2,0,.84-.01,1.35-.04,1.54.2-.6.58-1.17,1.15-1.69.57-.52,1.19-.94,1.87-1.25.67-.31,1.26-.47,1.76-.47.81,0,1.53.15,2.16.45s.94.9.94,1.8c0,.28-.06.54-.19.78s-.3.42-.5.55-.41.2-.63.2c-.19,0-.33-.03-.42-.1s-.17-.17-.25-.31c-.12-.22-.28-.38-.48-.5-.2-.12-.56-.18-1.06-.18h-.34c-1.51,0-2.59.4-3.24,1.19Z"/>
    <path class="st4" d="M255.35,45.45c-.92-.7-1.66-1.58-2.21-2.65-.55-1.07-.83-2.13-.83-3.17,0-1.64.3-3,.9-4.06.6-1.07,1.38-1.84,2.34-2.33.96-.49,1.99-.73,3.11-.73,1.18,0,2.2.29,3.05.87.85.58,1.51,1.41,1.96,2.48.45,1.07.68,2.33.68,3.77,0,1.31-.29,2.49-.86,3.54s-1.32,1.86-2.25,2.45-1.91.88-2.94.88-2.03-.35-2.95-1.05ZM261.95,37.27c-.29-.65-.7-1.16-1.21-1.52-.52-.36-1.09-.55-1.73-.55-.78,0-1.54.16-2.28.47-.74.32-1.34.79-1.8,1.41s-.7,1.37-.7,2.25c0,.74.19,1.46.56,2.16.38.7.87,1.27,1.47,1.71.61.44,1.23.66,1.88.66.73,0,1.43-.17,2.08-.52.65-.35,1.17-.85,1.57-1.51.4-.66.6-1.43.6-2.33,0-.84-.15-1.59-.44-2.24Z"/>
    <path class="st4" d="M269.4,46c-.12,0-.23.02-.33.07s-.16.08-.19.08c-.2.12-.4.18-.6.18-.47,0-.77-.24-.92-.71-.14-.48-.22-1.23-.22-2.26v-1.22l.25-15.41c0-.42.08-.76.23-.99.15-.24.43-.35.83-.35.13,0,.27.05.43.14s.29.22.4.39c.11.17.16.35.16.56,0,.84-.02,1.74-.04,2.69-.04,1.62-.06,3.13-.06,4.52.61-.35,1.19-.62,1.76-.82.57-.2,1.14-.3,1.71-.3,1.84,0,3.22.56,4.15,1.67s1.4,2.77,1.4,4.96c0,1.63-.38,2.98-1.14,4.05s-1.68,1.84-2.75,2.33c-1.07.49-2.08.73-3.04.73-.67,0-1.35-.1-2.05-.31ZM269.37,42.45c.04.48.1.8.19.96.3.15.93.23,1.91.23.46,0,.96-.09,1.53-.28.56-.18,1.08-.43,1.57-.75.49-.32.85-.66,1.1-1.03.18-.31.32-.79.43-1.42.11-.64.16-1.24.16-1.82s-.21-1.1-.63-1.56c-.42-.47-.93-.83-1.53-1.1-.6-.26-1.15-.4-1.65-.4-.53,0-1.1.14-1.73.43-.63.29-1.08.62-1.37,1-.03.78-.04,1.77-.04,2.97,0,1.36.02,2.28.05,2.76Z"/>
    <path class="st4" d="M286.68,43.34c.14.26.22.58.22.93s-.12.7-.35,1.01-.52.54-.86.71c-.34.17-.64.25-.91.25-.97,0-1.68-.3-2.13-.89-.45-.59-.67-1.47-.66-2.62l.19-15.53c0-.62.09-1.13.27-1.51.18-.38.46-.57.83-.57.25,0,.45.14.62.42.16.28.25.58.25.9l-.19,13.61v.48c0,.89.07,1.62.2,2.21.13.59.35.88.65.88.13,0,.24-.03.33-.08.09-.06.19-.14.31-.25s.22-.2.31-.25c.08-.05.19-.08.31-.08.27,0,.47.13.62.4Z"/>
    <path class="st4" d="M300.07,43.26c.18.22.28.56.28,1.02,0,.89-.67,1.47-2.02,1.76-1.35.28-2.67.42-3.98.42-.98,0-1.93-.27-2.84-.81-.91-.54-1.65-1.28-2.22-2.22-.57-.93-.85-1.96-.85-3.07,0-1.6.27-3.01.82-4.23s1.34-2.18,2.39-2.87c1.05-.68,2.29-1.03,3.73-1.03.76,0,1.52.18,2.27.54.75.36,1.37.88,1.85,1.57s.73,1.5.73,2.44c0,.48-.07.88-.22,1.21-.15.33-.35.53-.61.62l-9.01,3.06c.31.93.93,1.54,1.88,1.83s1.99.42,3.14.42c.38,0,.75-.05,1.13-.16.38-.1.82-.25,1.34-.44.33-.12.6-.22.81-.28.21-.07.4-.1.56-.1.37,0,.64.11.83.33ZM292.78,38.67c.95-.36,2.17-.83,3.66-1.42,1-.4,1.69-.66,2.05-.79-.27-.55-.72-.95-1.35-1.2-.64-.25-1.37-.38-2.2-.38-.47,0-1.04.17-1.73.5-.68.33-1.32.85-1.89,1.55-.58.7-.94,1.56-1.09,2.58.75-.2,1.59-.48,2.55-.84Z"/>
    <path class="st4" d="M320.03,39.21c0-.53-.14-1.06-.42-1.59-.28-.53-.68-.97-1.21-1.32-.53-.34-1.14-.52-1.85-.52-.37,0-.78.09-1.25.28-.47.18-.9.44-1.3.77-.4.33-.68.7-.85,1.1l-.15,5.76.06.42.06.44c0,.47-.09.88-.28,1.22s-.42.51-.7.51c-.44,0-.79-.11-1.06-.33-.27-.22-.41-.62-.41-1.22l.04-.3c.08-.65.12-1.03.12-1.15l.06-4.23c0-.56-.1-1.12-.33-1.68-.23-.56-.55-1.02-.98-1.39-.42-.36-.9-.55-1.44-.55-.74,0-1.31.09-1.73.27s-.71.46-.89.85-.26.91-.26,1.57v.55c0,.52.03,1.28.09,2.28,0,.17,0,.4.03.68l.27,3.26c0,.27-.07.52-.21.74-.14.22-.3.39-.48.51s-.33.18-.44.18c-.44,0-.76-.14-.97-.41-.21-.27-.31-.78-.31-1.52v-.48c.02-.07.03-.17.03-.33v-2.28c-.02-.34-.03-.78-.03-1.33v-2.27c0-1.13.02-2.02.07-2.66.04-.64.14-1.14.29-1.49.15-.35.37-.52.67-.52.59,0,.88.5.88,1.5v.25c.14-.36.37-.7.68-1.01.32-.32.68-.57,1.09-.77s.83-.3,1.24-.3c.53,0,1.12.13,1.77.38s1.22.65,1.7,1.2c.48.54.71,1.22.71,2.03.14-.64.45-1.21.93-1.69.48-.49,1.04-.86,1.66-1.12.63-.26,1.2-.39,1.71-.39,1.74,0,3.08.59,4.04,1.78.96,1.18,1.44,3.02,1.44,5.5,0,1.69-.11,3.12-.34,4.3s-.58,1.77-1.04,1.77c-.25,0-.48-.09-.69-.28-.21-.18-.38-.41-.51-.69s-.19-.53-.19-.76c0-.32.03-.6.08-.84.05-.24.13-.51.23-.8.11-.31.19-.59.25-.84.05-.25.08-.54.08-.89l.02-2.19Z"/>
    <path class="st4" d="M336.61,43.26c.18.22.28.56.28,1.02,0,.89-.67,1.47-2.02,1.76-1.35.28-2.67.42-3.98.42-.98,0-1.93-.27-2.84-.81-.91-.54-1.65-1.28-2.22-2.22-.57-.93-.85-1.96-.85-3.07,0-1.6.27-3.01.82-4.23s1.34-2.18,2.39-2.87c1.05-.68,2.29-1.03,3.73-1.03.76,0,1.52.18,2.27.54.75.36,1.37.88,1.85,1.57s.73,1.5.73,2.44c0,.48-.07.88-.22,1.21-.15.33-.35.53-.61.62l-9.01,3.06c.31.93.93,1.54,1.88,1.83s1.99.42,3.14.42c.38,0,.75-.05,1.13-.16.38-.1.82-.25,1.34-.44.33-.12.6-.22.81-.28.21-.07.4-.1.56-.1.37,0,.64.11.83.33ZM329.32,38.67c.95-.36,2.17-.83,3.66-1.42,1-.4,1.69-.66,2.05-.79-.27-.55-.72-.95-1.35-1.2-.64-.25-1.37-.38-2.2-.38-.47,0-1.04.17-1.73.5-.68.33-1.32.85-1.89,1.55-.58.7-.94,1.56-1.09,2.58.75-.2,1.59-.48,2.55-.84Z"/>
    <path class="st4" d="M343.2,36.28c-.65.79-.98,2.01-.98,3.65v.5l.15,4.36c0,.16-.04.36-.11.59-.07.23-.19.43-.36.61-.16.17-.38.26-.63.26-.48,0-.8-.14-.98-.41s-.27-.72-.27-1.35c0-.42,0-.85.03-1.3,0-.15.01-.35.01-.59v-1.33c0-.53.03-1.26.08-2.18s.18-2.54.37-4.86c.03-.47.14-.84.33-1.12.19-.27.47-.41.83-.41.2,0,.38.12.56.38.17.25.26.65.26,1.2,0,.84-.02,1.35-.04,1.54.2-.6.58-1.17,1.15-1.69.57-.52,1.19-.94,1.87-1.25s1.26-.47,1.76-.47c.81,0,1.53.15,2.16.45.62.3.94.9.94,1.8,0,.28-.06.54-.19.78s-.3.42-.5.55-.41.2-.63.2c-.19,0-.33-.03-.42-.1-.09-.07-.17-.17-.25-.31-.12-.22-.28-.38-.48-.5-.2-.12-.56-.18-1.06-.18h-.34c-1.51,0-2.59.4-3.24,1.19Z"/>
    <path class="st4" d="M354.47,40.63l-.06-.75c-.18-1.57.37-3.28,1.89-5.02,1.37-1.54,2.14-2.67,2.14-3.97,0-1.48-.98-2.47-2.9-2.49-1.1,0-2.32.35-3.08.9l-.73-1.83c1.01-.7,2.75-1.16,4.36-1.16,3.51,0,5.09,2.06,5.09,4.26,0,1.97-1.16,3.39-2.62,5.05-1.34,1.51-1.83,2.78-1.74,4.26l.03.75h-2.38ZM353.8,44.69c0-1.07.76-1.83,1.83-1.83s1.8.75,1.8,1.83c0,1.02-.7,1.8-1.83,1.8-1.07,0-1.8-.78-1.8-1.8Z"/>
  </g>
</svg>