<?xml version="1.0" encoding="UTF-8"?>
<svg id="Layer_1" xmlns="http://www.w3.org/2000/svg" viewBox="0 0 396.7 72.87">
  <defs>
    <style>
      .cls-1 {
        fill: none;
      }

      .cls-1, .cls-2 {
        stroke: #231f20;
        stroke-miterlimit: 10;
        stroke-width: 2px;
      }

      .cls-2 {
        fill: #ffc721;
      }

      .cls-3 {
        fill: #eaa294;
      }

      .cls-4 {
        fill: #ededed;
      }

      .cls-5 {
        fill: #c18678;
      }
    </style>
  </defs>
  <path class="cls-2" d="M394.59,1.2l-.09,71.67-309.94-.52c-1.91,0-3.8-.39-5.6-1.14L3.48,39.66c-2.68-1.12-2.68-5.46,0-6.58L79.55,1.59c1.47-.61,3.02-.92,4.58-.92l310.46.52Z"/>
  <path class="cls-5" d="M48.98,22.26c-1.11.77-1.73,1.96-2.12,3.28-.18.16-.35.34-.52.51-1.11-.09-2.24.18-3.18.83-.36.25-.67.54-.96.86-.71-.03-1.43.06-2.15.31-3.8,1.32-4.63,5.92-3.94,9.87.62,3.58,2.6,7.34,5.45,9.14.58.36,1.22.66,1.88.86,1.16,1.86,2.98,3.08,5.34,2.98,2.27-.1,4.48-1.47,6.1-3.46.4.11.82.19,1.26.21,4.41.15,6.16-4.97,5.58-9.31.1-2.09-.64-4.22-1.85-5.76-.13-.17-.28-.31-.42-.46.51-.98.61-2.23.04-3.24-.24-.42-.51-.82-.8-1.2,0,0,0,0,0,0-.27-.43-.53-.85-.81-1.27-.64-.98-1.29-1.98-2.09-2.8-1.85-1.9-4.5-2.93-6.8-1.34Z"/>
  <path class="cls-3" d="M78.17,2.17c-.79.12-1.4.54-1.97,1.15-.04.04-.27.3-.45.51-.21.04-.43.15-.63.21-.26.07-.52.12-.79.17-.09.01-.31.05-.39.06-1.18.16-2.4.27-3.53.72-1.29.51-2.17,1.39-3.25,2.3.3-.26-.44.31-.42.3-.22.16-.46.3-.69.44-.35.21-.71.41-1.07.62-.25,0-.51,0-.78.05-1.04.2-2,.78-2.89,1.42-.41-.11-.85-.11-1.28.08-.58.25-1.16.53-1.73.81-.21.1-.43.21-.64.31-.09.05-.76.44-.18.09-.4.24-.87.4-1.3.55-.22.08-.44.14-.65.22-.02,0-.02,0-.04.02-1.4.03-2.48.77-3.43,1.9,0,.01-.02.02-.03.03-.61.22-1.2.46-1.79.76-.22.11-.42.25-.63.38-1.45.14-2.92.16-4.3.76-.75.33-1.49.73-2.19,1.21-.06-.02-.11-.05-.17-.06-1.11-.23-2.06-.05-3.05.6-.58.38-1.14.76-1.74,1.1-.16.09-.31.17-.47.26-.03.01-.19.09-.28.14-.1.04-.24.1-.26.11-.17.07-.35.14-.52.21-.72.29-1.45.55-2.18.8-1.59.55-3.1,1.29-4.63,2.04-.34.17-.68.33-1.03.5-.21.1-.42.21-.63.31-.03.01-.19.09-.29.14-.1.04-.28.13-.31.14-.16.07-.32.13-.49.2-.46.18-.92.38-1.34.65-.06.04-.11.09-.16.13-.83-.47-1.85-.52-2.66.08-1.27.93-1.84,2.87-1.02,4.42.42.8.73,1.54,1.29,2.26.08.1.15.19.23.29.01.02.02.03.03.05.03.08.06.13.08.17.04.13.08.26.11.4.03.13.12.89.12.8.02.33.03.65.03.98,0,.39-.02.78-.04,1.17-.01.19-.02.38-.04.57,0,.06,0,.1-.01.14,0,.05-.02.13-.04.28-.03.21-.07.41-.11.62-.08.42-.18.83-.26,1.24-.18.83-.28,1.68-.43,2.52-.07.42-.18.83-.27,1.24,0,.03-.01.04-.02.06-.04.1-.09.2-.13.29-.02.04-.05.08-.07.12-1.44.31-2.36,2.43-1.93,3.95.51,1.81,1.91,2.55,3.47,2.26.36-.07.7-.2,1.01-.38.17.21.37.4.61.54,1.6.96,3.27,1.32,5.01,1.8.38.1.74.25,1.12.36,0,0,0,.01.02.02.11.11.28.22.41.3.01,0,.02,0,.03.02.12.11.24.22.36.33.4.37.81.76,1.25,1.07,1.4,1.01,3.13,1.05,4.65,1.73.95.42,1.94.77,2.94,1.09.51.77,1.29,1.29,2.22,1.3.81.01,1.13.07,1.93.23.63.12,1.26.22,1.9.32.2.26.43.49.71.65.47.25.86.63,1.29.96.58.45,1.25.75,1.9,1.03,1.09.46,2.24.69,3.35,1.09,2.36.86,4.61,2.07,6.98,2.93,0,0,0,0,0,0,.06.05.11.11.17.15,1.01.84,2.18,1.24,3.31,1.81,1.3.65,2.54,1.45,3.86,2.05,1.33.6,2.73.95,4.07,1.51,2.41,1,4.65,2.34,7.21,2.77,1.85.31,3.97.49,5.78-.3,2.6.48,5.01-.47,7.49-1.3.38-.13.75-.29,1.12-.44,2.15.47,3.92-.39,5.89-1.4,1.77-.91,3.91-1.13,5.04-3.16.84-1.52.78-3.38.66-5.11-.19-2.73-1.7-4.36-3.86-5.28-1.77-.75-3.54-1.46-5.3-2.26-1.59-.73-2.99-1.76-4.53-2.58-1.82-.96-3.78-1.36-5.75-1.75-.52-.1-1.05-.21-1.57-.3.92-.22,1.82-.52,2.73-.77.19.05.38.07.58.07,1,0,1.96-.01,2.95-.2.32-.06.64-.16.95-.28.07.03.13.07.2.09,1.18.37,2.57.24,3.71-.22,1.14-.46,2.05-1.3,3.11-1.91.02-.01.03-.02.04-.02.02,0,.02,0,.05-.02.13-.06.26-.12.38-.17.26-.11.51-.23.77-.34.7-.32,1.4-.64,2.07-1.03,1.15-.67,2.11-1.55,2.75-2.85.64-1.31.97-2.73.59-4.13-.03-1.05-.24-2.08-.66-2.88-.87-1.63-2.34-2.32-3.78-3.07-.2-.21-.4-.43-.61-.62-.59-.55-1.27-.88-1.96-.91-.11-.08-.22-.14-.32-.22-.69-.57-1.4-1.4-2.24-1.91-1.68-1.04-3.54-1.46-5.4-1.89-.86-.2-1.73-.39-2.61-.55.41-.52.61-1.08.67-1.64,2.92-.15,5.88-.62,8.71-1.37,2.8-.73,5.68-2.2,7.29-5.07,1.92-3.42.5-7.24-2.25-9.32-.14-.1-.28-.17-.42-.26-.37-1.06-1.2-1.91-2.49-1.94-2.18-.05-4.46-.76-6.56-1.08-2.21-.34-4.47-1.04-6.78-1.1-2.16-.06-4.5-.33-6.66.03-.53-.34-1.16-.49-1.86-.39Z"/>
  <path class="cls-1" d="M19.06,46.17c5.23-5.37,5.85-14.33,1.38-20.02"/>
  <g>
    <path class="cls-1" d="M79.55,1.59c20.9.04,27.56,4.81,27.22,11.68"/>
    <path class="cls-1" d="M81.56,23.55c13.93.03,25.21-4.57,25.22-10.28"/>
  </g>
  <g>
    <path class="cls-1" d="M81.58,23.54c13.92.03,25.18,6.23,25.17,13.85"/>
    <path class="cls-1" d="M81.53,48.68c13.92.03,25.2-5.02,25.21-11.29"/>
  </g>
  <g>
    <path class="cls-1" d="M81.54,48.68c13.93.03,25.19,5.86,25.18,13.04"/>
    <path class="cls-1" d="M80.15,71.65c14.43,1.83,26.55-4.03,26.56-9.93"/>
  </g>
  <line class="cls-1" x1="11.22" y1="42.9" x2="80.15" y2="71.65"/>
  <line class="cls-1" x1="11.88" y1="29.61" x2="80.25" y2="1.3"/>
  <g>
    <path class="cls-4" d="M217.08,43.11c-.09,0-.26.02-.51.04-.25.02-.49.03-.72.03-.3,0-.97-.05-2.03-.14-.12,0-.22-.02-.29-.06-.07-.04-.13-.12-.17-.25-.04-.13-.06-.34-.06-.62,0-.41.02-.84.05-1.3s.08-.97.14-1.53l.09-.89c0-.76-.01-1.61-.04-2.53s-.05-1.53-.06-1.83c-.08-1.93-.12-3.38-.12-4.35,0-1.04.02-1.82.07-2.34.04-.52.14-.91.28-1.15s.36-.37.66-.37c.18,0,.36.08.54.23.18.16.34.36.45.61.12.25.18.51.18.79,0,.43-.03.92-.09,1.46l-.06.67c0,1.81,0,3.17.03,4.08l.18,6.39c.37,0,.9.03,1.59.07,1.69.08,2.99.11,3.92.11.07,0,.26-.02.57-.06.11-.02.5-.07,1.18-.16.28,0,.52.18.71.5.2.33.3.7.3,1.11,0,.22-.06.45-.19.7-.13.25-.29.46-.48.62-.19.17-.37.25-.54.25-.58,0-1.26-.02-2.05-.07-.18,0-.53-.02-1.06-.04s-1.02-.03-1.49-.03c-.28,0-.61.02-.98.07Z"/>
    <path class="cls-4" d="M228.56,42.31c-.92-.7-1.66-1.58-2.21-2.65-.55-1.07-.83-2.13-.83-3.17,0-1.64.3-3,.9-4.06.6-1.07,1.38-1.84,2.34-2.33.96-.49,1.99-.73,3.1-.73,1.18,0,2.2.29,3.05.87.85.58,1.51,1.41,1.96,2.48.45,1.07.68,2.33.68,3.77,0,1.31-.29,2.49-.86,3.54-.57,1.05-1.32,1.86-2.25,2.45-.93.59-1.91.88-2.94.88s-2.03-.35-2.95-1.05ZM235.16,34.13c-.29-.65-.7-1.16-1.21-1.52-.52-.36-1.09-.55-1.73-.55-.78,0-1.54.16-2.28.47-.73.32-1.33.79-1.8,1.41s-.7,1.37-.7,2.25c0,.74.19,1.46.57,2.16.38.7.87,1.27,1.47,1.71.61.44,1.23.66,1.88.66.73,0,1.43-.17,2.08-.52.65-.35,1.17-.85,1.57-1.51.4-.66.6-1.43.6-2.33,0-.84-.15-1.59-.44-2.24Z"/>
    <path class="cls-4" d="M248.32,46.44c.25-.41.42-.9.51-1.48s.17-1.34.24-2.29c.04-.66.08-1.15.12-1.46-.11.42-.37.8-.8,1.13-.42.33-.91.58-1.47.76-.56.17-1.07.26-1.55.26-1.79,0-3.14-.52-4.07-1.56-.93-1.04-1.39-2.59-1.39-4.65,0-1.34.21-2.6.63-3.77s1.05-2.11,1.9-2.83,1.89-1.08,3.13-1.08c.97,0,1.92.31,2.84.93.92.62,1.67,1.38,2.24,2.29.57.91.86,1.78.86,2.6l-.28,6.7v.2c-.06.25-.14.84-.25,1.74-.16,1.27-.34,2.31-.54,3.09-.2.79-.56,1.46-1.09,2.02-.53.56-1.29.84-2.27.84-.39,0-.89-.06-1.5-.19-.62-.13-1.17-.34-1.66-.64-.49-.3-.74-.7-.74-1.2,0-.47.07-.83.2-1.08.13-.25.38-.37.74-.37.09,0,.17.01.25.04.07.03.15.07.22.11.25.15.56.27.92.37s.95.14,1.76.14c.47,0,.82-.21,1.07-.62ZM247.4,40.09c.52-.42.95-.95,1.3-1.56.35-.62.6-1.23.76-1.83-.11-.82-.28-1.55-.5-2.19-.22-.64-.58-1.18-1.07-1.63s-1.15-.67-1.99-.67c-1.36,0-2.35.44-2.96,1.33-.62.89-.93,2.03-.95,3.43,0,1.39.32,2.36.97,2.92.65.56,1.56.84,2.75.84.62,0,1.18-.21,1.7-.64Z"/>
    <path class="cls-4" d="M263.22,42.95c-.21.27-.44.41-.7.41-.37,0-.66-.11-.87-.33-.21-.22-.38-.59-.48-1.11-.08-.45-.12-1.42-.12-2.9,0-2.45.1-4.68.31-6.68.2-2,.67-2.99,1.39-2.99.3,0,.49.12.59.38.09.25.14.61.14,1.08l-.12,1.98c-.05.67-.09,1.37-.13,2.11s-.06,1.39-.06,1.97c0,.61.06,1.47.19,2.58.12,1.15.18,1.95.18,2.39,0,.47-.1.84-.31,1.12ZM262.99,26.41c-.41,0-.79-.11-1.14-.34s-.53-.62-.53-1.19c0-.28.08-.57.25-.86.16-.29.37-.53.61-.72s.47-.28.69-.28c.41,0,.76.12,1.06.37.3.25.45.67.45,1.26,0,1.18-.46,1.77-1.38,1.77Z"/>
    <path class="cls-4" d="M275.9,33.7c-.5-1.1-1.46-1.64-2.87-1.64-.42,0-.9.12-1.44.35s-1.06.56-1.57.97c-.51.41-.92.86-1.24,1.35,0,.32-.01.86-.03,1.61-.02.72-.03,1.21-.03,1.49,0,.29.02.58.06.86.04.28.1.62.18,1.03.06.3.11.62.16.94.04.33.07.63.07.91,0,.54-.06.94-.19,1.22-.13.27-.41.41-.83.41s-.77-.11-1.03-.34c-.26-.23-.38-.68-.36-1.37l.06-5.55c-.11-1.34-.16-2.26-.16-2.76v-.42c0-.83.08-1.59.25-2.28.17-.69.44-1.03.82-1.03.75,0,1.13.62,1.13,1.85,0,.2-.03.59-.09,1.18l-.04.37c.22-.74.62-1.37,1.19-1.9s1.2-.93,1.86-1.2c.67-.27,1.23-.4,1.7-.4,1.87,0,3.19.73,3.98,2.18s1.18,3.22,1.18,5.3c0,1.93-.09,3.51-.28,4.76s-.58,1.87-1.16,1.87c-.26,0-.47-.03-.63-.09-.16-.06-.29-.21-.39-.44-.1-.23-.15-.59-.15-1.07,0-.31.02-.62.07-.92s.12-.68.22-1.13c.11-.52.19-.93.24-1.23s.07-.62.07-.96c0-1.5-.25-2.8-.75-3.89Z"/>
    <path class="cls-4" d="M289.63,29.73c.53.22.97.52,1.3.92.34.4.54.85.6,1.36l.03-4.06.03-4.04c0-.99.38-1.49,1.13-1.49.29,0,.5.13.63.4.13.26.19.58.19.95v2.1s-.04,2.14-.04,2.14l-.18,8.99-.06,2.45c0,1.26-.1,2.2-.26,2.84-.16.64-.5.96-1,.96-.2,0-.37-.12-.51-.37-.14-.25-.3-.6-.48-1.08-.33.3-.76.56-1.3.77-.54.21-1.09.37-1.65.48-.57.11-1.06.16-1.47.16-1.78,0-3.12-.56-4.04-1.67-.91-1.11-1.37-2.63-1.37-4.55,0-1.32.27-2.56.81-3.72.54-1.16,1.32-2.1,2.34-2.8s2.22-1.06,3.6-1.06c.6,0,1.16.11,1.69.33ZM289.02,40.4c.6-.2,1.08-.45,1.43-.73s.57-.54.65-.78c.08-.25.13-.51.16-.79s.04-.61.04-.99v-1.3c0-.64-.15-1.25-.46-1.83-.31-.58-.72-1.04-1.23-1.39-.51-.35-1.04-.52-1.6-.52-.96,0-1.8.21-2.52.62s-1.27.99-1.65,1.72c-.38.73-.57,1.56-.57,2.5,0,.76.16,1.44.48,2.01.32.58.77,1.02,1.33,1.32.57.31,1.2.46,1.89.46.77,0,1.46-.1,2.06-.3Z"/>
  </g>
</svg>