<?xml version="1.0" encoding="UTF-8"?>
<svg id="Layer_1" xmlns="http://www.w3.org/2000/svg" viewBox="0 0 474.05 74.17">
  <defs>
    <style>
      .cls-1 {
        fill: none;
      }

      .cls-1, .cls-2 {
        stroke: #231f20;
        stroke-miterlimit: 10;
        stroke-width: 2px;
      }

      .cls-2 {
        fill: #026955;
      }

      .cls-3 {
        fill: #eaa294;
      }

      .cls-4 {
        fill: #ededed;
      }

      .cls-5 {
        fill: #c18678;
      }
    </style>
  </defs>
  <g>
    <path class="cls-2" d="M469.32,1.26l-.11,71.92-369.23-.53c-2.27,0-4.53-.39-6.67-1.14L3.38,39.86c-3.2-1.13-3.19-5.48.01-6.6L94.01,1.66c1.75-.61,3.6-.92,5.46-.92l369.85.53Z"/>
    <path class="cls-5" d="M57.59,22.4c-1.32.77-2.07,1.96-2.53,3.29-.22.16-.42.34-.62.51-1.32-.09-2.67.18-3.78.83-.42.25-.8.55-1.15.86-.85-.03-1.71.06-2.56.31-4.52,1.33-5.51,5.94-4.7,9.91.74,3.59,3.1,7.37,6.49,9.17.69.37,1.45.66,2.24.87,1.38,1.87,3.55,3.09,6.36,2.99,2.71-.1,5.34-1.47,7.26-3.48.48.11.97.19,1.5.21,5.26.16,7.34-4.98,6.65-9.34.12-2.09-.76-4.24-2.2-5.78-.16-.17-.33-.31-.5-.46.6-.98.73-2.24.04-3.25-.29-.43-.61-.82-.95-1.2,0,0,0,0,0,0-.32-.43-.63-.86-.96-1.28-.76-.98-1.54-1.99-2.49-2.81-2.21-1.91-5.36-2.94-8.1-1.35Z"/>
    <path class="cls-3" d="M92.37,2.24c-.94.12-1.66.55-2.34,1.16-.05.04-.32.3-.53.51-.25.04-.51.15-.75.21-.31.07-.63.12-.94.17-.11.01-.37.05-.46.06-1.41.16-2.86.27-4.2.73-1.54.51-2.59,1.39-3.87,2.31.36-.26-.53.31-.5.3-.27.16-.54.3-.82.44-.42.21-.85.42-1.28.62-.3-.01-.61,0-.92.05-1.24.2-2.38.78-3.44,1.43-.49-.11-1.01-.11-1.53.08-.7.25-1.38.53-2.07.81-.25.1-.51.21-.76.31-.11.05-.9.44-.22.09-.47.24-1.04.4-1.55.56-.26.08-.52.14-.78.22-.02,0-.03,0-.05.02-1.67.03-2.96.77-4.09,1.91-.01.01-.02.02-.03.03-.72.22-1.43.46-2.13.76-.26.11-.5.25-.75.39-1.73.14-3.48.17-5.12.76-.89.33-1.77.73-2.61,1.21-.07-.02-.13-.05-.21-.06-1.33-.23-2.45-.05-3.63.6-.69.38-1.36.76-2.08,1.1-.18.09-.37.17-.56.26-.03.01-.22.09-.33.14-.12.04-.29.1-.31.11-.21.07-.41.14-.62.21-.86.29-1.73.55-2.6.81-1.89.55-3.7,1.29-5.51,2.05-.41.17-.81.34-1.22.5-.25.1-.5.21-.75.32-.03.01-.23.09-.34.14-.11.04-.33.13-.36.14-.19.07-.39.13-.58.2-.54.18-1.09.38-1.59.65-.07.04-.13.09-.19.13-.99-.48-2.2-.52-3.17.08-1.51.94-2.19,2.88-1.21,4.43.51.81.88,1.54,1.54,2.27.09.1.18.19.28.29.01.02.02.03.03.05.04.08.07.13.09.17.05.13.09.26.13.4.04.13.14.9.15.8.02.33.04.65.04.98,0,.39-.02.79-.04,1.18-.01.19-.03.38-.04.57,0,.06-.01.1-.01.14,0,.05-.02.13-.05.28-.04.21-.09.42-.14.62-.1.42-.21.83-.31,1.24-.21.84-.34,1.68-.51,2.52-.09.42-.22.83-.33,1.25-.01.03-.01.04-.02.06-.05.1-.1.2-.16.29-.02.04-.05.08-.08.12-1.71.31-2.81,2.44-2.3,3.97.61,1.82,2.27,2.56,4.14,2.27.43-.07.83-.2,1.21-.38.21.21.44.4.72.54,1.91.96,3.9,1.32,5.97,1.8.45.1.88.25,1.33.36,0,0,0,.01.02.02.13.11.34.22.49.3.02,0,.02,0,.03.02.14.11.29.22.43.33.48.37.96.76,1.48,1.08,1.66,1.02,3.72,1.06,5.54,1.73,1.13.42,2.31.77,3.5,1.09.6.78,1.53,1.29,2.64,1.31.96.01,1.35.08,2.3.23.75.12,1.51.22,2.26.32.23.26.51.49.85.65.56.25,1.02.63,1.53.96.69.45,1.49.76,2.26,1.03,1.3.46,2.67.69,3.99,1.09,2.82.86,5.5,2.08,8.31,2.94,0,0,0,0,0,0,.07.05.13.11.2.16,1.21.85,2.6,1.24,3.95,1.82,1.55.66,3.02,1.46,4.6,2.05,1.58.6,3.25.95,4.85,1.51,2.87,1,5.54,2.35,8.59,2.78,2.21.31,4.73.49,6.88-.3,3.09.48,5.97-.47,8.92-1.31.45-.13.89-.29,1.33-.44,2.56.48,4.67-.39,7.01-1.41,2.11-.91,4.66-1.13,6.01-3.17,1.01-1.52.93-3.4.79-5.12-.22-2.74-2.02-4.37-4.59-5.3-2.11-.76-4.22-1.46-6.31-2.27-1.89-.73-3.56-1.77-5.39-2.59-2.17-.97-4.51-1.36-6.84-1.75-.62-.1-1.25-.21-1.87-.3,1.09-.22,2.17-.52,3.26-.77.22.05.45.07.69.07,1.19,0,2.34-.01,3.52-.2.39-.06.76-.16,1.14-.28.08.03.15.07.24.09,1.4.37,3.06.24,4.42-.22,1.36-.46,2.44-1.31,3.71-1.92.02-.01.03-.02.05-.02.02,0,.03,0,.05-.02.15-.06.31-.12.46-.17.31-.12.61-.23.92-.34.83-.32,1.66-.64,2.46-1.04,1.37-.68,2.52-1.56,3.28-2.86.76-1.31,1.16-2.74.7-4.14-.03-1.05-.28-2.09-.79-2.89-1.04-1.63-2.79-2.33-4.51-3.08-.24-.21-.48-.43-.72-.63-.7-.55-1.51-.88-2.33-.91-.13-.08-.26-.14-.38-.22-.82-.57-1.67-1.4-2.66-1.92-2.01-1.04-4.22-1.47-6.43-1.9-1.03-.2-2.07-.39-3.11-.56.48-.52.73-1.09.79-1.65,3.47-.15,7.01-.63,10.38-1.37,3.33-.74,6.77-2.21,8.68-5.09,2.29-3.44.6-7.26-2.68-9.35-.16-.1-.33-.17-.5-.26-.44-1.07-1.42-1.91-2.97-1.95-2.59-.05-5.31-.76-7.82-1.09-2.64-.34-5.32-1.04-8.07-1.11-2.58-.06-5.36-.33-7.94.03-.63-.34-1.38-.5-2.21-.39Z"/>
    <path class="cls-1" d="M21.95,46.39c6.24-5.39,6.97-14.38,1.64-20.09"/>
    <path class="cls-1" d="M94.01,1.66c24.9.04,32.83,4.83,32.43,11.72"/>
    <path class="cls-1" d="M96.4,23.69c16.59.03,30.03-4.58,30.04-10.31"/>
    <path class="cls-1" d="M96.42,23.68c16.59.03,30,6.25,29.98,13.9"/>
    <path class="cls-1" d="M96.37,48.91c16.59.03,30.02-5.04,30.04-11.33"/>
    <path class="cls-1" d="M96.37,48.91c16.59.03,30.01,5.88,29.99,13.08"/>
    <path class="cls-1" d="M94.72,71.95c17.19,1.84,31.63-4.04,31.64-9.96"/>
    <line class="cls-1" x1="12.6" y1="43.1" x2="94.72" y2="71.95"/>
    <line class="cls-1" x1="13.39" y1="29.77" x2="94.83" y2="1.37"/>
  </g>
  <g>
    <path class="cls-4" d="M161.14,46.52c-.08.04-.17.07-.26.11-.09.03-.19.05-.28.05-.21,0-.45-.06-.71-.17s-.5-.28-.69-.51c-.19-.23-.29-.5-.29-.81,0-.08.02-.52.05-1.32.03-.81.08-3.75.14-8.83,0-1.26.1-2.41.29-3.46.19-1.05.53-1.65,1-1.81.71-.22,1.48-.38,2.3-.5s1.57-.17,2.26-.17c.43,0,.88.11,1.36.33.48.22.88.54,1.21.95.33.41.49.88.49,1.42,0,1.02-.32,1.97-.95,2.85,1.13.42,2.02,1.04,2.67,1.88.65.83.98,1.88.98,3.12,0,1.51-.39,2.78-1.18,3.79s-1.83,1.78-3.13,2.27c-1.3.5-2.73.74-4.29.74-.05,0-.13-.01-.25-.04-.11-.02-.22-.04-.31-.04-.1,0-.24.04-.42.13ZM160.86,38.55l-.03.69v.65c0,1.57.05,2.81.15,3.74l.97-.07c1.4-.09,2.58-.24,3.53-.42s1.78-.57,2.49-1.15c.71-.58,1.06-1.43,1.06-2.55,0-.54-.23-1.01-.69-1.41-.46-.4-1.04-.71-1.73-.92-.69-.21-1.37-.32-2.03-.32-.2,0-.4.03-.62.1s-.5.17-.86.33c-.42.17-.79.31-1.13.42-.34.11-.7.19-1.09.23l-.03.68ZM165.66,31.89c-.43-.08-.96-.13-1.57-.13-.3,0-.69.03-1.18.08-.49.05-.93.14-1.33.26-.39.12-.59.28-.6.48l-.09,2.22c.23,0,.55-.05.96-.14.41-.09,1.29-.34,2.63-.75,1.22-.72,1.83-1.27,1.83-1.67,0-.15-.22-.27-.65-.35Z"/>
    <path class="cls-4" d="M184.86,43.48c.18.22.28.56.28,1.02,0,.89-.67,1.47-2.02,1.76s-2.67.42-3.98.42c-.98,0-1.93-.27-2.84-.81-.91-.54-1.65-1.28-2.22-2.22s-.85-1.96-.85-3.07c0-1.6.27-3.01.82-4.23s1.34-2.18,2.39-2.87c1.05-.68,2.29-1.03,3.73-1.03.76,0,1.52.18,2.27.54s1.37.88,1.85,1.57.73,1.5.73,2.44c0,.48-.07.88-.22,1.21-.15.33-.35.53-.61.62l-9.01,3.06c.31.93.93,1.54,1.88,1.83.94.28,1.99.42,3.14.42.38,0,.75-.05,1.13-.16s.82-.25,1.34-.44c.33-.12.6-.22.81-.28s.4-.1.56-.1c.37,0,.64.11.83.33ZM177.57,38.89c.95-.36,2.17-.83,3.66-1.42,1-.4,1.69-.66,2.06-.79-.27-.55-.72-.95-1.35-1.2-.64-.25-1.37-.38-2.2-.38-.47,0-1.04.17-1.73.5-.69.33-1.32.85-1.89,1.55s-.94,1.56-1.09,2.58c.74-.2,1.59-.48,2.55-.84Z"/>
    <path class="cls-4" d="M189.82,46.29c-.8-.36-1.21-1.05-1.21-2.06,0-.16.05-.36.15-.6.1-.24.22-.45.37-.62.15-.17.3-.26.45-.26.05,0,.17.08.37.25.26.31.51.54.75.7.24.16.52.26.83.31.31.05.72.08,1.24.08s1.07-.06,1.68-.19c.6-.13,1.11-.28,1.53-.45s.63-.31.63-.41c0-.25-.13-.46-.39-.63-.26-.17-.58-.29-.95-.39s-.93-.21-1.67-.35c-1.16-.21-2.12-.43-2.87-.66-.75-.23-1.4-.6-1.95-1.12-.55-.51-.83-1.21-.83-2.09,0-1.09.31-2.04.94-2.85.63-.82,1.42-1.44,2.39-1.88.97-.44,1.94-.66,2.93-.66.65,0,1.22.12,1.73.37.51.25.91.57,1.19.97.28.4.42.83.42,1.3,0,.75-.06,1.35-.18,1.83s-.4.71-.85.71c-.22,0-.36-.1-.43-.3s-.1-.5-.1-.92c0-.44-.18-.75-.54-.92s-.89-.25-1.61-.25c-.5,0-1.05.12-1.65.35-.61.24-1.12.54-1.55.92s-.64.77-.64,1.18.16.75.49,1.01c.33.26.73.46,1.22.59.49.14,1.16.29,2.01.45,1.05.2,1.9.4,2.55.59.65.2,1.19.51,1.65.93.45.42.68.98.68,1.69,0,.9-.36,1.64-1.09,2.23-.72.59-1.57,1.02-2.54,1.3-.97.27-1.8.41-2.51.41-.95,0-1.83-.18-2.64-.55Z"/>
    <path class="cls-4" d="M202.63,26.92c0-.26.07-.5.19-.72s.26-.39.43-.51c.17-.12.34-.18.5-.18.13,0,.27.06.43.18.16.12.29.29.4.51.11.22.16.48.16.77,0,1.51-.08,3.55-.25,6.12-.09,1.39-.16,2.57-.2,3.55-.04.98-.07,1.99-.07,3.02v.2l5.79-7.19c.15-.22.32-.4.5-.54s.36-.21.53-.21c.42,0,.7.1.86.3.16.2.24.53.24.98v.14c0,.37-.23.8-.7,1.29s-1.14,1.11-2.01,1.87l-.77.68c.14.3.28.64.43,1.03.15.38.25.64.3.77.32.87.61,1.58.88,2.14.24.53.49,1.01.74,1.43.22.34.44.76.67,1.25.02.05.07.16.14.34.07.18.15.37.22.58s.1.37.1.48c0,.45-.13.84-.4,1.15s-.58.47-.94.47c-.23,0-.42-.09-.57-.27-.15-.18-.28-.46-.38-.84,0,.04-.2-.41-.59-1.35s-1.12-2.77-2.2-5.49l-2.84,3.27c0,.59,0,1.04.02,1.36v1.52c.01.38-.1.74-.32,1.08s-.5.51-.84.51c-.26,0-.47-.08-.64-.25-.17-.17-.29-.37-.37-.6-.08-.23-.12-.44-.12-.63l.02-1.19c0-.49.06-1.06.15-1.7.05-.3.08-.6.09-.91l.43-14.39Z"/>
    <path class="cls-4" d="M226.08,43.48c.18.22.28.56.28,1.02,0,.89-.67,1.47-2.02,1.76s-2.67.42-3.98.42c-.98,0-1.93-.27-2.84-.81-.91-.54-1.65-1.28-2.22-2.22s-.85-1.96-.85-3.07c0-1.6.27-3.01.82-4.23s1.34-2.18,2.39-2.87c1.05-.68,2.29-1.03,3.73-1.03.76,0,1.52.18,2.27.54s1.37.88,1.85,1.57.73,1.5.73,2.44c0,.48-.07.88-.22,1.21-.15.33-.35.53-.61.62l-9.01,3.06c.31.93.93,1.54,1.88,1.83.94.28,1.99.42,3.14.42.38,0,.75-.05,1.13-.16s.82-.25,1.34-.44c.33-.12.6-.22.81-.28s.4-.1.56-.1c.37,0,.64.11.83.33ZM218.79,38.89c.95-.36,2.17-.83,3.66-1.42,1-.4,1.69-.66,2.06-.79-.27-.55-.72-.95-1.35-1.2-.64-.25-1.37-.38-2.2-.38-.47,0-1.04.17-1.73.5-.69.33-1.32.85-1.89,1.55s-.94,1.56-1.09,2.58c.74-.2,1.59-.48,2.55-.84Z"/>
    <path class="cls-4" d="M237.16,33.08c.53.22.96.52,1.3.92.34.4.54.85.6,1.36l.03-4.06.03-4.04c0-.99.38-1.49,1.13-1.49.29,0,.5.13.62.4s.19.58.19.95v2.1s-.04,2.14-.04,2.14l-.18,8.99-.06,2.45c-.01,1.26-.1,2.2-.26,2.84-.16.64-.5.96-1,.96-.2,0-.37-.12-.51-.37-.14-.25-.3-.6-.48-1.08-.33.3-.76.56-1.29.77-.54.21-1.09.37-1.65.48-.57.11-1.06.16-1.47.16-1.78,0-3.12-.56-4.04-1.67s-1.37-2.63-1.37-4.55c0-1.32.27-2.56.81-3.72s1.32-2.1,2.35-2.8,2.22-1.06,3.6-1.06c.6,0,1.16.11,1.69.33ZM236.55,43.75c.6-.2,1.08-.45,1.43-.73s.57-.54.65-.78c.08-.25.13-.51.16-.79.02-.28.04-.61.04-.99v-1.3c0-.64-.15-1.25-.46-1.83s-.72-1.04-1.23-1.39-1.04-.52-1.6-.52c-.96,0-1.8.21-2.52.62s-1.27.99-1.65,1.72c-.38.73-.57,1.56-.57,2.5,0,.76.16,1.44.48,2.01s.77,1.02,1.33,1.32c.57.31,1.2.46,1.89.46.77,0,1.46-.1,2.06-.3Z"/>
    <path class="cls-4" d="M255.55,43.48c.18.22.28.56.28,1.02,0,.89-.67,1.47-2.02,1.76-1.34.28-2.67.42-3.98.42-.98,0-1.93-.27-2.84-.81-.91-.54-1.65-1.28-2.22-2.22-.57-.93-.85-1.96-.85-3.07,0-1.6.27-3.01.82-4.23s1.34-2.18,2.39-2.87c1.05-.68,2.29-1.03,3.73-1.03.76,0,1.52.18,2.27.54.75.36,1.37.88,1.85,1.57s.73,1.5.73,2.44c0,.48-.07.88-.22,1.21-.15.33-.35.53-.61.62l-9.01,3.06c.31.93.93,1.54,1.88,1.83.94.28,1.99.42,3.14.42.38,0,.75-.05,1.13-.16.38-.1.82-.25,1.34-.44.33-.12.6-.22.81-.28.21-.07.4-.1.56-.1.37,0,.64.11.83.33ZM248.26,38.89c.95-.36,2.17-.83,3.66-1.42,1-.4,1.69-.66,2.06-.79-.27-.55-.72-.95-1.36-1.2-.64-.25-1.37-.38-2.2-.38-.47,0-1.04.17-1.73.5-.68.33-1.32.85-1.89,1.55-.58.7-.94,1.56-1.09,2.58.74-.2,1.59-.48,2.55-.84Z"/>
    <path class="cls-4" d="M262.13,36.49c-.65.79-.98,2.01-.98,3.65v.5l.15,4.36c0,.16-.04.36-.11.59-.07.23-.19.43-.36.61-.16.17-.38.26-.63.26-.48,0-.8-.14-.98-.41-.18-.27-.27-.72-.27-1.35,0-.42,0-.85.03-1.3,0-.15.01-.35.01-.59v-1.33c0-.53.03-1.26.08-2.18.05-.93.18-2.54.36-4.86.03-.47.14-.84.33-1.12.19-.27.47-.41.83-.41.2,0,.38.12.56.38.17.25.26.65.26,1.2,0,.84-.01,1.35-.04,1.54.2-.6.58-1.17,1.15-1.69.57-.52,1.19-.94,1.87-1.25s1.26-.47,1.76-.47c.81,0,1.53.15,2.16.45.63.3.94.9.94,1.8,0,.28-.06.54-.19.78s-.3.42-.5.55c-.2.13-.42.2-.63.2-.19,0-.33-.03-.42-.1-.09-.07-.17-.17-.25-.31-.12-.22-.28-.38-.48-.5-.2-.12-.56-.18-1.06-.18h-.34c-1.51,0-2.59.4-3.24,1.19Z"/>
    <path class="cls-4" d="M278.1,35.7c-.36.02-.66.03-.91.03-.14,0-.31-.06-.51-.17s-.38-.27-.53-.48c-.15-.21-.22-.44-.22-.71s.06-.51.19-.74c.12-.23.28-.42.48-.55.19-.14.39-.21.6-.21.32,0,.9.03,1.76.08.03-1.17.14-2.28.33-3.34.19-1.06.57-1.59,1.12-1.59.13,0,.26.06.4.18.14.12.25.28.35.48.09.2.14.42.14.66,0,1-.06,1.91-.18,2.72l-.04.35-.13.58c.36,0,.78,0,1.27-.01s.86-.02,1.12-.03c.79-.03,1.59-.04,2.38-.04.29,0,.5.16.63.49.13.33.19.67.19,1.04,0,.4-.11.71-.32.94-.21.23-.44.35-.69.35l-4.59-.06-.02,1.3c-.03.79-.04,1.65-.04,2.58,0,1.31.12,2.35.35,3.1s.68,1.13,1.35,1.13c.57,0,1.27-.29,2.1-.86.18-.1.27-.16.28-.16.25,0,.42.07.51.2.09.13.13.36.13.69,0,.4-.17.82-.51,1.27-.34.45-.74.83-1.21,1.14-.47.31-.87.47-1.22.47-1.12,0-1.95-.38-2.49-1.13-.54-.75-.88-1.65-1.01-2.7-.13-1.05-.21-2.41-.23-4.08,0-1.31-.04-2.3-.12-2.96-.15,0-.38,0-.7.03Z"/>
    <path class="cls-4" d="M291.28,46.31c-.21.27-.44.41-.7.41-.37,0-.66-.11-.87-.33-.21-.22-.38-.59-.48-1.11-.08-.45-.12-1.42-.12-2.9,0-2.45.1-4.68.31-6.68.2-2,.67-2.99,1.39-2.99.3,0,.49.12.59.38.09.25.14.61.14,1.08l-.12,1.98c-.05.67-.09,1.37-.13,2.11-.04.74-.06,1.39-.06,1.97,0,.61.06,1.47.19,2.58.12,1.15.18,1.95.18,2.39,0,.47-.1.84-.31,1.12ZM291.04,29.77c-.41,0-.79-.11-1.14-.34s-.53-.62-.53-1.19c0-.28.08-.57.25-.86.16-.29.37-.53.61-.72.24-.19.47-.28.69-.28.41,0,.76.12,1.06.37s.45.67.45,1.26c0,1.18-.46,1.77-1.38,1.77Z"/>
    <path class="cls-4" d="M300.23,43.56c.14.26.22.58.22.93s-.12.7-.35,1.01-.52.54-.86.71c-.34.17-.64.26-.91.26-.97,0-1.68-.3-2.13-.89-.45-.59-.67-1.47-.66-2.62l.19-15.53c0-.62.09-1.13.27-1.51.18-.38.46-.57.83-.57.25,0,.45.14.62.42.16.28.25.58.25.9l-.19,13.61v.48c0,.89.07,1.62.2,2.21.13.59.35.88.65.88.13,0,.24-.03.33-.08.09-.06.19-.14.31-.25s.22-.2.31-.25c.08-.05.19-.08.31-.08.27,0,.47.13.62.4Z"/>
    <path class="cls-4" d="M308.88,35.39c.3-.64.72-1.16,1.26-1.56.54-.4,1.12-.69,1.73-.86.61-.17,1.19-.26,1.74-.26,1.46,0,2.71.25,3.75.75,1.04.5,1.83,1.18,2.38,2.05s.81,1.85.81,2.93c0,1.62-.28,3.05-.85,4.27-.57,1.22-1.37,2.17-2.42,2.83-1.05.67-2.27,1-3.67,1-.49,0-.92-.03-1.31-.08-.39-.05-.9-.14-1.53-.26v1.16c0,.69.05,1.55.15,2.59.1,1.02.15,1.85.15,2.51,0,.36-.13.64-.39.86-.26.21-.53.32-.82.32-.41,0-.7-.1-.87-.31-.17-.21-.28-.5-.32-.87s-.06-.96-.06-1.76c0-1.4.09-6.5.28-15.29ZM310.73,41.91c.04.86.06,1.45.08,1.75,0,.08.21.13.65.16.44.03.86.04,1.24.04,1.04,0,2-.18,2.87-.55.87-.36,1.57-.92,2.09-1.67.53-.75.79-1.68.79-2.78s-.43-2.01-1.3-2.61-2.06-.89-3.59-.89c-.34,0-.72.05-1.16.16-.44.1-.81.25-1.13.45-.32.19-.48.42-.48.67l-.09,3.58c-.02.26-.01.83.02,1.69Z"/>
    <path class="cls-4" d="M334.71,43.48c.18.22.28.56.28,1.02,0,.89-.67,1.47-2.02,1.76-1.35.28-2.67.42-3.98.42-.98,0-1.93-.27-2.84-.81-.91-.54-1.65-1.28-2.22-2.22-.57-.93-.85-1.96-.85-3.07,0-1.6.27-3.01.82-4.23s1.34-2.18,2.39-2.87c1.05-.68,2.29-1.03,3.73-1.03.76,0,1.52.18,2.27.54.75.36,1.37.88,1.85,1.57s.73,1.5.73,2.44c0,.48-.07.88-.22,1.21-.15.33-.35.53-.61.62l-9.01,3.06c.31.93.93,1.54,1.88,1.83s1.99.42,3.14.42c.38,0,.75-.05,1.13-.16.38-.1.82-.25,1.34-.44.33-.12.6-.22.81-.28.21-.07.4-.1.56-.1.37,0,.64.11.83.33ZM327.42,38.89c.95-.36,2.17-.83,3.66-1.42,1-.4,1.69-.66,2.05-.79-.27-.55-.72-.95-1.35-1.2-.64-.25-1.37-.38-2.2-.38-.47,0-1.04.17-1.73.5-.68.33-1.32.85-1.89,1.55-.58.7-.94,1.56-1.09,2.58.75-.2,1.59-.48,2.55-.84Z"/>
    <path class="cls-4" d="M341.29,36.49c-.65.79-.98,2.01-.98,3.65v.5l.15,4.36c0,.16-.04.36-.11.59-.07.23-.19.43-.36.61-.16.17-.38.26-.63.26-.48,0-.8-.14-.98-.41-.18-.27-.27-.72-.27-1.35,0-.42,0-.85.03-1.3,0-.15.01-.35.01-.59v-1.33c0-.53.03-1.26.08-2.18s.18-2.54.37-4.86c.03-.47.14-.84.33-1.12.19-.27.47-.41.83-.41.2,0,.38.12.56.38.17.25.26.65.26,1.2,0,.84-.02,1.35-.04,1.54.2-.6.58-1.17,1.15-1.69.57-.52,1.19-.94,1.87-1.25s1.26-.47,1.76-.47c.81,0,1.53.15,2.16.45.62.3.94.9.94,1.8,0,.28-.06.54-.19.78s-.3.42-.5.55-.41.2-.63.2c-.19,0-.33-.03-.42-.1-.09-.07-.17-.17-.25-.31-.12-.22-.28-.38-.48-.5-.2-.12-.56-.18-1.06-.18h-.34c-1.51,0-2.59.4-3.24,1.19Z"/>
    <path class="cls-4" d="M351.71,46.29c-.8-.36-1.21-1.05-1.21-2.06,0-.16.05-.36.15-.6.1-.24.22-.45.37-.62.15-.17.3-.26.45-.26.05,0,.17.08.37.25.26.31.51.54.75.7.24.16.52.26.83.31.31.05.72.08,1.24.08s1.07-.06,1.67-.19c.6-.13,1.11-.28,1.53-.45s.62-.31.62-.41c0-.25-.13-.46-.39-.63-.26-.17-.58-.29-.95-.39s-.93-.21-1.67-.35c-1.16-.21-2.12-.43-2.87-.66-.75-.23-1.4-.6-1.95-1.12-.55-.51-.83-1.21-.83-2.09,0-1.09.31-2.04.94-2.85.62-.82,1.42-1.44,2.39-1.88.97-.44,1.94-.66,2.93-.66.65,0,1.22.12,1.74.37.51.25.91.57,1.19.97.28.4.42.83.42,1.3,0,.75-.06,1.35-.18,1.83s-.4.71-.85.71c-.22,0-.36-.1-.43-.3s-.1-.5-.1-.92c0-.44-.18-.75-.54-.92s-.89-.25-1.61-.25c-.5,0-1.05.12-1.65.35s-1.12.54-1.55.92-.64.77-.64,1.18.16.75.49,1.01c.33.26.73.46,1.22.59.49.14,1.16.29,2.01.45,1.05.2,1.9.4,2.55.59s1.19.51,1.65.93c.45.42.68.98.68,1.69,0,.9-.36,1.64-1.09,2.23-.73.59-1.57,1.02-2.54,1.3-.97.27-1.8.41-2.51.41-.95,0-1.83-.18-2.64-.55Z"/>
    <path class="cls-4" d="M366.08,45.67c-.92-.7-1.66-1.58-2.21-2.65-.55-1.07-.83-2.13-.83-3.17,0-1.64.3-3,.9-4.06s1.38-1.84,2.34-2.33c.96-.49,1.99-.73,3.11-.73,1.18,0,2.2.29,3.05.87.85.58,1.51,1.41,1.96,2.48.45,1.07.68,2.33.68,3.77,0,1.31-.29,2.49-.86,3.54-.57,1.05-1.32,1.86-2.25,2.45-.93.59-1.91.88-2.94.88s-2.03-.35-2.95-1.05ZM372.68,37.49c-.29-.65-.7-1.16-1.21-1.52-.52-.36-1.09-.55-1.73-.55-.78,0-1.54.16-2.28.47-.74.32-1.34.79-1.8,1.41-.47.62-.7,1.37-.7,2.25,0,.74.19,1.46.57,2.16.38.7.87,1.27,1.47,1.71.61.44,1.23.66,1.88.66.73,0,1.43-.17,2.08-.52.65-.35,1.17-.85,1.57-1.51.4-.66.6-1.43.6-2.33,0-.84-.15-1.59-.44-2.24Z"/>
    <path class="cls-4" d="M387.11,37.06c-.5-1.1-1.46-1.64-2.87-1.64-.42,0-.9.12-1.44.35s-1.07.56-1.57.97c-.51.41-.92.86-1.24,1.35,0,.32,0,.86-.03,1.61-.02.72-.03,1.21-.03,1.49,0,.29.02.58.06.86.04.28.1.62.18,1.03.06.3.11.62.16.94.04.33.07.63.07.91,0,.54-.06.94-.19,1.22s-.41.41-.83.41-.77-.11-1.03-.34c-.26-.23-.38-.68-.36-1.37l.06-5.55c-.11-1.34-.16-2.26-.16-2.76v-.42c0-.83.08-1.59.25-2.28s.44-1.03.82-1.03c.75,0,1.13.62,1.13,1.85,0,.2-.03.59-.09,1.18l-.04.37c.22-.74.62-1.37,1.19-1.9.58-.53,1.2-.93,1.86-1.2.67-.27,1.23-.4,1.7-.4,1.87,0,3.19.73,3.98,2.18s1.18,3.22,1.18,5.3c0,1.93-.09,3.51-.28,4.76s-.58,1.87-1.16,1.87c-.26,0-.47-.03-.63-.09-.16-.06-.29-.21-.39-.44-.1-.23-.15-.59-.15-1.07,0-.31.03-.62.08-.92.05-.3.12-.68.22-1.13.11-.52.19-.93.24-1.23s.08-.62.08-.96c0-1.5-.25-2.8-.75-3.89Z"/>
    <path class="cls-4" d="M406.69,43.59c.13.19.2.49.2.91,0,.32-.09.64-.28.96-.19.32-.45.59-.77.79-.33.21-.69.31-1.09.31s-.78-.13-1.17-.4c-.39-.27-.71-.62-.96-1.06-.25-.44-.37-.89-.37-1.35-.75.9-1.52,1.62-2.32,2.16-.8.54-1.65.81-2.55.81-.82,0-1.66-.25-2.51-.77-.85-.51-1.55-1.2-2.09-2.06-.55-.86-.82-1.8-.82-2.8,0-1.35.32-2.67.97-3.96s1.51-2.35,2.6-3.16,2.26-1.22,3.52-1.22c.95,0,1.84.27,2.66.82.82.55,1.47,1.25,1.95,2.12.48.86.72,1.74.72,2.63,0,.38-.03.76-.09,1.13s-.09.61-.1.71c-.08.44-.14.84-.18,1.18s-.06.71-.06,1.1c0,.56.09.96.26,1.2.17.24.43.36.78.36.09,0,.18-.03.28-.1.09-.07.21-.16.33-.28.02-.02.08-.07.17-.15.09-.08.18-.13.26-.16.31,0,.53.09.66.28ZM400.55,43.08c.63-.61,1.07-1.31,1.3-2.1.23-.79.45-1.81.65-3.08,0-.29-.18-.63-.55-1.01s-.81-.7-1.32-.98c-.51-.27-.97-.41-1.38-.41-1.02,0-1.94.27-2.74.81-.8.54-1.43,1.24-1.87,2.09-.44.85-.66,1.71-.66,2.59,0,.58.19,1.09.57,1.55.38.46.87.81,1.47,1.07s1.21.38,1.84.38c1.16,0,2.06-.31,2.7-.92Z"/>
    <path class="cls-4" d="M413.56,43.56c.14.26.22.58.22.93s-.12.7-.35,1.01-.52.54-.86.71c-.34.17-.64.26-.91.26-.97,0-1.68-.3-2.13-.89-.45-.59-.67-1.47-.66-2.62l.19-15.53c0-.62.09-1.13.27-1.51.18-.38.46-.57.83-.57.25,0,.45.14.62.42.16.28.25.58.25.9l-.19,13.61v.48c0,.89.07,1.62.2,2.21.13.59.35.88.65.88.13,0,.24-.03.33-.08.09-.06.19-.14.31-.25s.22-.2.31-.25c.08-.05.19-.08.31-.08.27,0,.47.13.62.4Z"/>
    <path class="cls-4" d="M426.94,43.48c.18.22.28.56.28,1.02,0,.89-.67,1.47-2.02,1.76-1.35.28-2.67.42-3.98.42-.98,0-1.93-.27-2.84-.81-.91-.54-1.65-1.28-2.22-2.22-.57-.93-.85-1.96-.85-3.07,0-1.6.27-3.01.82-4.23s1.34-2.18,2.39-2.87c1.05-.68,2.29-1.03,3.73-1.03.76,0,1.52.18,2.27.54.75.36,1.37.88,1.85,1.57s.73,1.5.73,2.44c0,.48-.07.88-.22,1.21-.15.33-.35.53-.61.62l-9.01,3.06c.31.93.93,1.54,1.88,1.83s1.99.42,3.14.42c.38,0,.75-.05,1.13-.16.38-.1.82-.25,1.34-.44.33-.12.6-.22.81-.28.21-.07.4-.1.56-.1.37,0,.64.11.83.33ZM419.65,38.89c.95-.36,2.17-.83,3.66-1.42,1-.4,1.69-.66,2.05-.79-.27-.55-.72-.95-1.35-1.2-.64-.25-1.37-.38-2.2-.38-.47,0-1.04.17-1.73.5-.68.33-1.32.85-1.89,1.55-.58.7-.94,1.56-1.09,2.58.75-.2,1.59-.48,2.55-.84Z"/>
    <path class="cls-4" d="M431.31,35.7c-.36.02-.66.03-.91.03-.14,0-.31-.06-.51-.17s-.38-.27-.53-.48c-.15-.21-.22-.44-.22-.71s.06-.51.19-.74c.12-.23.28-.42.48-.55.19-.14.39-.21.6-.21.32,0,.9.03,1.76.08.03-1.17.14-2.28.33-3.34.19-1.06.57-1.59,1.12-1.59.13,0,.26.06.4.18.14.12.25.28.35.48.09.2.14.42.14.66,0,1-.06,1.91-.18,2.72l-.04.35-.13.58c.36,0,.78,0,1.27-.01s.86-.02,1.12-.03c.79-.03,1.59-.04,2.38-.04.29,0,.5.16.63.49.13.33.19.67.19,1.04,0,.4-.11.71-.32.94-.21.23-.44.35-.69.35l-4.59-.06-.02,1.3c-.03.79-.04,1.65-.04,2.58,0,1.31.12,2.35.35,3.1s.68,1.13,1.35,1.13c.57,0,1.27-.29,2.1-.86.18-.1.27-.16.28-.16.25,0,.42.07.51.2.09.13.13.36.13.69,0,.4-.17.82-.51,1.27-.34.45-.74.83-1.21,1.14-.47.31-.87.47-1.22.47-1.12,0-1.95-.38-2.49-1.13-.54-.75-.88-1.65-1.01-2.7-.13-1.05-.21-2.41-.23-4.08,0-1.31-.04-2.3-.12-2.96-.15,0-.38,0-.7.03Z"/>
  </g>
</svg>