<?xml version="1.0" encoding="UTF-8"?>
<svg id="Layer_1" xmlns="http://www.w3.org/2000/svg" viewBox="0 0 442.05 75.6">
  <defs>
    <style>
      .cls-1 {
        fill: none;
        stroke: #231f20;
      }

      .cls-1, .cls-2 {
        stroke-miterlimit: 10;
        stroke-width: 2px;
      }

      .cls-2 {
        fill: #263779;
        stroke: #010101;
      }

      .cls-3 {
        fill: #eaa294;
      }

      .cls-4 {
        fill: #ededed;
      }

      .cls-5 {
        fill: #c18678;
      }
    </style>
  </defs>
  <path class="cls-2" d="M440.07,1.86l-.08,72.12-345.8-.36c-2.13,0-4.24-.39-6.24-1.14L3.71,40.78c-2.99-1.13-2.99-5.49,0-6.62L88.57,2.43c1.64-.61,3.37-.93,5.11-.92l346.38.36Z"/>
  <path class="cls-5" d="M56.33,23.25c-1.28.77-2,1.97-2.45,3.3-.21.16-.4.34-.6.52-1.28-.09-2.59.18-3.67.84-.41.25-.77.55-1.11.87-.82-.03-1.65.06-2.48.32-4.38,1.33-5.34,5.96-4.55,9.93.72,3.6,3.01,7.39,6.29,9.19.67.37,1.4.67,2.17.87,1.34,1.87,3.45,3.1,6.16,2.99,2.63-.1,5.18-1.48,7.04-3.49.46.11.95.19,1.46.21,5.1.15,7.11-5,6.45-9.37.12-2.1-.74-4.25-2.14-5.79-.15-.17-.32-.31-.48-.46.59-.98.7-2.25.04-3.26-.28-.43-.59-.83-.92-1.21,0,0,0,0,0,0-.31-.43-.61-.86-.93-1.28-.74-.99-1.49-1.99-2.42-2.82-2.14-1.92-5.19-2.95-7.85-1.35Z"/>
  <path class="cls-3" d="M90.05,3.01c-.91.12-1.61.55-2.27,1.16-.04.04-.31.3-.51.51-.24.04-.49.16-.73.21-.3.07-.61.12-.91.17-.1.01-.36.05-.45.06-1.37.16-2.77.28-4.08.73-1.49.52-2.51,1.4-3.75,2.31.35-.26-.51.32-.48.3-.26.16-.53.3-.79.44-.41.22-.82.42-1.24.62-.29,0-.59,0-.9.05-1.21.2-2.31.79-3.34,1.43-.48-.11-.98-.11-1.48.08-.68.25-1.34.53-2,.81-.25.1-.49.21-.74.31-.11.05-.88.44-.21.09-.46.25-1,.4-1.5.56-.25.08-.5.14-.75.22-.02,0-.03,0-.05.02-1.62.03-2.87.77-3.96,1.91,0,.01-.02.02-.03.03-.7.22-1.39.46-2.07.76-.25.11-.49.25-.72.39-1.68.15-3.38.17-4.97.77-.87.33-1.72.74-2.53,1.22-.07-.02-.13-.05-.2-.06-1.29-.23-2.38-.05-3.52.61-.67.38-1.32.77-2.01,1.11-.18.09-.36.17-.54.26-.03.01-.22.09-.32.14-.11.04-.28.1-.3.11-.2.07-.4.14-.6.21-.83.29-1.68.55-2.52.81-1.84.55-3.58,1.3-5.34,2.06-.39.17-.79.34-1.18.51-.24.1-.49.21-.73.32-.03.01-.22.09-.33.14-.11.04-.32.13-.35.14-.19.07-.37.13-.56.2-.53.18-1.06.38-1.55.65-.07.04-.12.09-.19.13-.96-.48-2.13-.52-3.08.08-1.47.94-2.12,2.89-1.18,4.45.49.81.85,1.55,1.49,2.27.09.1.18.19.27.29.01.02.02.03.03.05.04.08.06.13.09.17.04.13.09.26.13.4.03.13.13.9.14.8.02.33.04.66.04.99,0,.39-.02.79-.04,1.18-.01.19-.03.38-.04.57,0,.06,0,.1-.01.14,0,.05-.02.13-.05.28-.04.21-.08.42-.13.62-.09.42-.2.83-.3,1.25-.2.84-.33,1.69-.5,2.53-.09.42-.21.83-.32,1.25-.01.03-.01.04-.02.06-.05.1-.1.2-.16.29-.02.04-.05.08-.08.12-1.66.31-2.73,2.45-2.23,3.98.59,1.82,2.2,2.57,4.01,2.27.42-.07.8-.21,1.17-.38.2.21.43.4.7.54,1.85.96,3.78,1.32,5.78,1.81.43.1.86.25,1.29.36,0,0,0,.01.02.02.13.11.33.22.47.3.02,0,.02,0,.03.02.14.11.28.22.42.33.47.37.93.76,1.44,1.08,1.61,1.02,3.61,1.06,5.37,1.73,1.1.42,2.24.78,3.39,1.09.58.78,1.49,1.3,2.56,1.31.93.01,1.31.07,2.23.23.73.12,1.46.22,2.19.32.23.26.49.5.82.65.55.25.99.63,1.49.96.67.45,1.44.76,2.2,1.04,1.26.47,2.59.69,3.87,1.1,2.73.86,5.33,2.08,8.06,2.94,0,0,0,0,0,0,.07.05.13.11.19.16,1.17.85,2.52,1.25,3.83,1.82,1.5.66,2.93,1.46,4.46,2.06,1.54.6,3.15.95,4.7,1.51,2.78,1,5.37,2.35,8.33,2.78,2.14.31,4.59.49,6.67-.3,3,.48,5.79-.47,8.65-1.31.44-.13.86-.29,1.29-.44,2.49.48,4.52-.39,6.8-1.41,2.04-.92,4.52-1.13,5.82-3.19.97-1.53.9-3.41.76-5.14-.22-2.75-1.96-4.39-4.46-5.31-2.04-.76-4.09-1.47-6.12-2.27-1.83-.73-3.45-1.77-5.23-2.6-2.1-.97-4.37-1.36-6.64-1.76-.6-.1-1.21-.21-1.81-.3,1.06-.22,2.1-.52,3.16-.78.21.05.44.07.67.07,1.15,0,2.27-.02,3.41-.2.37-.06.74-.16,1.1-.28.08.03.15.07.23.09,1.36.37,2.97.24,4.29-.22,1.31-.46,2.36-1.31,3.6-1.92.02-.01.03-.02.05-.03.02,0,.03,0,.05-.02.15-.06.3-.12.44-.17.3-.12.59-.23.89-.35.8-.32,1.61-.65,2.38-1.04,1.32-.68,2.44-1.56,3.17-2.87.74-1.32,1.12-2.75.68-4.16-.03-1.06-.27-2.1-.77-2.89-1.01-1.64-2.7-2.34-4.37-3.09-.24-.21-.46-.43-.7-.63-.68-.56-1.47-.88-2.26-.91-.12-.08-.25-.14-.37-.22-.8-.57-1.62-1.41-2.58-1.93-1.94-1.04-4.09-1.47-6.23-1.9-.99-.2-2-.39-3.02-.56.47-.52.7-1.09.77-1.66,3.37-.15,6.79-.63,10.06-1.38,3.23-.74,6.56-2.22,8.41-5.11,2.21-3.45.58-7.28-2.6-9.38-.16-.1-.32-.18-.48-.27-.43-1.07-1.38-1.92-2.88-1.95-2.51-.05-5.15-.76-7.58-1.09-2.56-.34-5.16-1.04-7.83-1.11-2.5-.06-5.2-.33-7.7.03-.61-.34-1.33-.5-2.14-.39Z"/>
  <path class="cls-1" d="M21.79,47.32c6.04-5.41,6.75-14.42,1.58-20.14"/>
  <g>
    <path class="cls-1" d="M91.64,2.43c24.14.03,31.83,4.83,31.45,11.74"/>
    <path class="cls-1" d="M93.97,24.53c16.09.02,29.11-4.61,29.12-10.35"/>
  </g>
  <g>
    <path class="cls-1" d="M93.98,24.51c16.08.02,29.09,6.25,29.08,13.92"/>
    <path class="cls-1" d="M93.95,49.81c16.08.02,29.1-5.06,29.11-11.38"/>
  </g>
  <g>
    <path class="cls-1" d="M93.95,49.81c16.09.02,29.09,5.89,29.08,13.1"/>
    <path class="cls-1" d="M92.36,72.92c16.67,1.84,30.66-4.06,30.67-10"/>
  </g>
  <line class="cls-1" x1="12.73" y1="44.03" x2="92.36" y2="72.92"/>
  <line class="cls-1" x1="13.49" y1="30.66" x2="92.44" y2="2.14"/>
  <g>
    <path class="cls-4" d="M185.51,28.41c.55-.1.97-.16,1.27-.16.22,0,.45.09.69.28s.44.42.6.71c.16.28.24.56.24.82,0,.48-.08.85-.25,1.1-.17.25-.45.38-.83.38-.15,0-.77-.14-1.88-.41-.07,0-.42.03-1.06.08s-2.18.08-4.62.08c-.58,0-.91-.03-1.01-.08-.1.9-.15,2.23-.16,4.01,0,.05.23.07.67.07.34,0,.73-.01,1.18-.04.45-.03.74-.06.89-.1l2.8-.4c.29-.09.59-.14.89-.14.59,0,.88.46.88,1.39,0,.44-.06.77-.19.98-.12.21-.3.35-.52.42-.22.07-.57.13-1.05.18l-.36.04-3.08.35c-.18.02-.51.05-.98.11-.48.05-.85.08-1.12.08l.06,5.24c0,1.32-.34,1.98-1.03,1.98-.49,0-.83-.18-1.03-.53-.2-.35-.3-.85-.3-1.48,0-.31.03-.71.1-1.19.04-.3.06-.51.06-.64l.15-10.01c0-.81.09-1.58.26-2.32.17-.73.5-1.1.99-1.1.24,0,.62.05,1.13.14.52.09.9.14,1.15.14h5.48Z"/>
    <path class="cls-4" d="M201.3,42.36c.18.22.28.56.28,1.02,0,.89-.67,1.47-2.02,1.76-1.34.28-2.67.42-3.98.42-.98,0-1.93-.27-2.84-.81-.91-.54-1.65-1.28-2.22-2.22-.57-.93-.85-1.96-.85-3.07,0-1.6.27-3.01.82-4.23s1.34-2.18,2.39-2.87c1.05-.68,2.29-1.03,3.73-1.03.76,0,1.52.18,2.27.54.75.36,1.37.88,1.85,1.57s.73,1.5.73,2.44c0,.48-.07.88-.22,1.21-.15.33-.35.53-.61.62l-9.01,3.06c.31.93.93,1.54,1.88,1.83.94.28,1.99.42,3.14.42.38,0,.75-.05,1.13-.16.38-.1.82-.25,1.34-.44.33-.12.6-.22.81-.28.21-.07.4-.1.56-.1.37,0,.64.11.83.33ZM194.01,37.77c.95-.36,2.17-.83,3.66-1.42,1-.4,1.69-.66,2.06-.79-.27-.55-.72-.95-1.36-1.2-.64-.25-1.37-.38-2.2-.38-.47,0-1.04.17-1.73.5-.68.33-1.32.85-1.89,1.55-.58.7-.94,1.56-1.09,2.58.74-.2,1.59-.48,2.55-.84Z"/>
    <path class="cls-4" d="M207.88,35.38c-.65.79-.98,2.01-.98,3.65v.5l.15,4.36c0,.16-.04.36-.11.59-.07.23-.19.43-.36.61-.16.17-.37.26-.63.26-.48,0-.8-.14-.98-.41s-.27-.72-.27-1.35c0-.42,0-.85.03-1.3,0-.15.01-.35.01-.59v-1.33c0-.53.03-1.26.08-2.18s.18-2.54.37-4.86c.03-.47.14-.84.33-1.12s.47-.41.83-.41c.2,0,.38.12.56.38.17.25.26.65.26,1.2,0,.84-.01,1.35-.04,1.54.2-.6.58-1.17,1.15-1.69.57-.52,1.19-.94,1.87-1.25.67-.31,1.26-.47,1.76-.47.81,0,1.53.15,2.16.45.62.3.94.9.94,1.8,0,.28-.07.54-.19.78s-.29.42-.5.55c-.2.13-.41.2-.63.2-.19,0-.33-.03-.42-.1-.09-.07-.17-.17-.25-.31-.12-.22-.28-.38-.48-.5-.2-.12-.56-.18-1.07-.18h-.34c-1.51,0-2.59.4-3.24,1.19Z"/>
    <path class="cls-4" d="M218.91,45.19c-.21.27-.44.41-.7.41-.37,0-.66-.11-.87-.33-.21-.22-.38-.59-.48-1.11-.08-.45-.12-1.42-.12-2.9,0-2.45.1-4.68.3-6.68.2-2,.67-2.99,1.39-2.99.3,0,.49.12.59.38.09.25.14.61.14,1.08l-.12,1.98c-.05.67-.09,1.37-.13,2.11-.04.74-.06,1.39-.06,1.97,0,.61.06,1.47.19,2.58.12,1.15.18,1.95.18,2.39,0,.47-.1.84-.31,1.12ZM218.67,28.65c-.41,0-.79-.11-1.14-.34s-.53-.62-.53-1.19c0-.28.08-.57.25-.86.16-.29.37-.53.61-.72s.47-.28.69-.28c.41,0,.76.12,1.06.37.3.25.45.67.45,1.26,0,1.18-.46,1.77-1.38,1.77Z"/>
    <path class="cls-4" d="M233.54,42.36c.18.22.28.56.28,1.02,0,.89-.67,1.47-2.02,1.76-1.34.28-2.67.42-3.98.42-.98,0-1.93-.27-2.84-.81-.91-.54-1.65-1.28-2.22-2.22-.57-.93-.85-1.96-.85-3.07,0-1.6.27-3.01.82-4.23s1.34-2.18,2.39-2.87c1.05-.68,2.29-1.03,3.73-1.03.76,0,1.52.18,2.27.54.75.36,1.37.88,1.85,1.57s.73,1.5.73,2.44c0,.48-.07.88-.22,1.21-.15.33-.35.53-.61.62l-9.01,3.06c.31.93.93,1.54,1.88,1.83.94.28,1.99.42,3.14.42.38,0,.75-.05,1.13-.16.38-.1.82-.25,1.34-.44.33-.12.6-.22.81-.28.21-.07.4-.1.56-.1.37,0,.64.11.83.33ZM226.25,37.77c.95-.36,2.17-.83,3.66-1.42,1-.4,1.69-.66,2.06-.79-.27-.55-.72-.95-1.36-1.2-.64-.25-1.37-.38-2.2-.38-.47,0-1.04.17-1.73.5-.68.33-1.32.85-1.89,1.55-.58.7-.94,1.56-1.09,2.58.74-.2,1.59-.48,2.55-.84Z"/>
    <path class="cls-4" d="M245.39,44.56c-.92-.7-1.66-1.58-2.21-2.65-.55-1.07-.83-2.13-.83-3.17,0-1.64.3-3,.9-4.06s1.38-1.84,2.34-2.33c.96-.49,1.99-.73,3.1-.73,1.18,0,2.2.29,3.05.87.85.58,1.51,1.41,1.96,2.48.45,1.07.68,2.33.68,3.77,0,1.31-.29,2.49-.86,3.54-.57,1.05-1.32,1.86-2.25,2.45s-1.91.88-2.94.88-2.03-.35-2.95-1.05ZM251.99,36.37c-.29-.65-.7-1.16-1.21-1.52-.52-.36-1.09-.55-1.73-.55-.78,0-1.54.16-2.28.47-.73.32-1.33.79-1.8,1.41s-.7,1.37-.7,2.25c0,.74.19,1.46.57,2.16.38.7.87,1.27,1.47,1.71.61.44,1.23.66,1.88.66.73,0,1.43-.17,2.08-.52s1.17-.85,1.57-1.51c.4-.66.6-1.43.6-2.33,0-.84-.15-1.59-.44-2.24Z"/>
    <path class="cls-4" d="M265.15,48.68c.25-.41.42-.9.51-1.48.09-.58.17-1.34.24-2.29.04-.66.08-1.15.12-1.46-.11.42-.37.8-.8,1.13-.42.33-.91.58-1.47.76-.56.17-1.07.26-1.55.26-1.79,0-3.14-.52-4.07-1.56-.93-1.04-1.39-2.59-1.39-4.65,0-1.34.21-2.6.62-3.77s1.05-2.11,1.9-2.83,1.89-1.08,3.13-1.08c.97,0,1.92.31,2.84.93.92.62,1.67,1.38,2.24,2.29.57.91.86,1.78.86,2.6l-.28,6.7v.2c-.06.25-.14.84-.25,1.74-.16,1.27-.34,2.31-.54,3.09-.2.79-.56,1.46-1.09,2.02-.53.56-1.29.84-2.27.84-.39,0-.89-.06-1.5-.19-.62-.13-1.17-.34-1.66-.64s-.74-.7-.74-1.2c0-.47.07-.83.2-1.08s.38-.37.74-.37c.09,0,.17.01.25.04.08.03.15.07.22.11.25.15.56.27.92.37s.95.14,1.76.14c.47,0,.82-.21,1.07-.62ZM264.23,42.33c.52-.42.95-.95,1.29-1.56.35-.62.6-1.23.76-1.83-.11-.82-.28-1.55-.5-2.19s-.58-1.18-1.07-1.63-1.15-.67-1.99-.67c-1.36,0-2.35.44-2.96,1.33s-.93,2.03-.95,3.43c0,1.39.32,2.36.97,2.92.65.56,1.56.84,2.75.84.62,0,1.18-.21,1.7-.64Z"/>
    <path class="cls-4" d="M283.07,42.45c.14.26.22.58.22.93s-.12.7-.35,1.01-.52.54-.86.71c-.34.17-.64.25-.91.25-.97,0-1.68-.3-2.13-.89-.45-.59-.67-1.47-.66-2.62l.19-15.53c0-.62.09-1.13.27-1.51.18-.38.46-.57.83-.57.25,0,.45.14.62.42.16.28.25.58.25.9l-.19,13.61v.48c0,.89.07,1.62.2,2.21.13.59.35.88.65.88.13,0,.24-.03.33-.08.09-.06.19-.14.31-.25s.22-.2.3-.25c.08-.05.19-.08.31-.08.27,0,.47.13.62.4Z"/>
    <path class="cls-4" d="M287.44,34.71c-.14.71-.24,1.3-.31,1.78-.07.48-.1.96-.1,1.44,0,.69.08,1.41.22,2.17.15.76.43,1.43.85,2,.42.57,1,.86,1.74.86.92,0,1.69-.24,2.3-.71s1.18-1.13,1.72-1.97c.02-.25.07-1.16.16-2.75l.03-.71.04-3.95c0-.41.12-.71.36-.91s.49-.3.75-.3c.23,0,.43.1.62.3s.28.47.28.82l-.24,11.27c-.01.53-.08.89-.22,1.07-.14.18-.38.28-.73.28-.3,0-.52-.05-.68-.15-.15-.1-.27-.31-.33-.62-.07-.32-.1-.81-.1-1.48,0-.48,0-.87.03-1.18-.17.69-.46,1.32-.87,1.88s-.88,1.01-1.41,1.33c-.53.32-1.04.48-1.55.48-1.96,0-3.27-.75-3.95-2.26-.67-1.51-1.01-3.23-1.01-5.16,0-.98.06-1.98.18-2.98.12-1,.32-1.86.6-2.56.28-.7.65-1.05,1.11-1.05.55,0,.82.33.82,1.01,0,.39-.1,1.06-.3,2.02Z"/>
    <path class="cls-4" d="M300.29,25.81c0-.26.07-.5.19-.72s.26-.39.43-.51.34-.18.5-.18c.13,0,.27.06.43.18.16.12.29.29.4.51.11.22.16.48.16.77,0,1.51-.08,3.55-.25,6.12-.09,1.39-.16,2.57-.2,3.55-.04.98-.07,1.99-.07,3.02v.2l5.79-7.19c.15-.22.31-.4.5-.54.18-.14.36-.21.53-.21.42,0,.71.1.86.3.16.2.24.53.24.98v.14c0,.37-.23.8-.7,1.29-.47.49-1.14,1.11-2.01,1.87l-.77.68c.14.3.28.64.43,1.03.15.38.25.64.3.77.32.87.61,1.58.88,2.14.24.53.49,1.01.74,1.43.22.34.44.76.67,1.25.02.05.07.16.14.34.08.18.15.37.22.58.07.21.1.37.1.48,0,.45-.13.84-.4,1.15-.27.31-.58.47-.94.47-.23,0-.42-.09-.57-.27-.15-.18-.28-.46-.38-.84,0,.04-.2-.41-.59-1.35-.39-.93-1.12-2.77-2.2-5.49l-2.84,3.27c0,.59,0,1.04.01,1.36l.02,1.52c0,.38-.11.74-.34,1.08-.22.34-.5.51-.84.51-.26,0-.47-.08-.64-.25s-.29-.37-.37-.6c-.08-.23-.12-.44-.12-.63v-1.19c.02-.49.07-1.06.16-1.7.05-.3.08-.6.09-.91l.43-14.39Z"/>
    <path class="cls-4" d="M313.6,25.81c0-.26.07-.5.19-.72s.26-.39.43-.51.34-.18.5-.18c.13,0,.27.06.43.18.16.12.29.29.4.51.11.22.16.48.16.77,0,1.51-.08,3.55-.25,6.12-.09,1.39-.16,2.57-.2,3.55-.04.98-.07,1.99-.07,3.02v.2l5.79-7.19c.15-.22.31-.4.5-.54.18-.14.36-.21.53-.21.42,0,.71.1.86.3.16.2.24.53.24.98v.14c0,.37-.23.8-.7,1.29-.47.49-1.14,1.11-2.01,1.87l-.77.68c.14.3.28.64.43,1.03.15.38.25.64.3.77.32.87.61,1.58.88,2.14.24.53.49,1.01.74,1.43.22.34.44.76.67,1.25.02.05.07.16.14.34.08.18.15.37.22.58.07.21.1.37.1.48,0,.45-.13.84-.4,1.15-.27.31-.58.47-.94.47-.23,0-.42-.09-.57-.27-.15-.18-.28-.46-.38-.84,0,.04-.2-.41-.59-1.35-.39-.93-1.12-2.77-2.2-5.49l-2.84,3.27c0,.59,0,1.04.01,1.36l.02,1.52c0,.38-.11.74-.34,1.08-.22.34-.5.51-.84.51-.26,0-.47-.08-.64-.25s-.29-.37-.37-.6c-.08-.23-.12-.44-.12-.63v-1.19c.02-.49.07-1.06.16-1.7.05-.3.08-.6.09-.91l.43-14.39Z"/>
    <path class="cls-4" d="M337.05,42.36c.18.22.28.56.28,1.02,0,.89-.67,1.47-2.02,1.76-1.35.28-2.67.42-3.98.42-.98,0-1.93-.27-2.84-.81-.91-.54-1.65-1.28-2.22-2.22-.57-.93-.85-1.96-.85-3.07,0-1.6.27-3.01.82-4.23s1.34-2.18,2.39-2.87c1.05-.68,2.29-1.03,3.73-1.03.76,0,1.52.18,2.27.54.75.36,1.37.88,1.85,1.57s.73,1.5.73,2.44c0,.48-.07.88-.22,1.21-.15.33-.35.53-.61.62l-9.01,3.06c.31.93.93,1.54,1.88,1.83s1.99.42,3.14.42c.38,0,.75-.05,1.13-.16.38-.1.82-.25,1.34-.44.33-.12.6-.22.81-.28.21-.07.4-.1.56-.1.37,0,.64.11.83.33ZM329.76,37.77c.95-.36,2.17-.83,3.66-1.42,1-.4,1.69-.66,2.05-.79-.27-.55-.72-.95-1.35-1.2-.64-.25-1.37-.38-2.2-.38-.47,0-1.04.17-1.73.5-.68.33-1.32.85-1.89,1.55-.58.7-.94,1.56-1.09,2.58.75-.2,1.59-.48,2.55-.84Z"/>
    <path class="cls-4" d="M348.13,31.97c.53.22.96.52,1.3.92s.54.85.6,1.36l.03-4.06.03-4.04c0-.99.38-1.49,1.13-1.49.29,0,.5.13.62.4s.19.58.19.95l-.02,2.1-.03,2.14-.18,8.99-.06,2.45c0,1.26-.1,2.2-.26,2.84-.16.64-.5.96-1,.96-.2,0-.37-.12-.51-.37-.14-.25-.3-.6-.48-1.08-.33.3-.76.56-1.29.77-.54.21-1.09.37-1.65.48-.57.11-1.06.16-1.47.16-1.78,0-3.12-.56-4.04-1.67s-1.37-2.63-1.37-4.55c0-1.32.27-2.56.81-3.72s1.32-2.1,2.35-2.8,2.22-1.06,3.6-1.06c.6,0,1.16.11,1.69.33ZM347.52,42.64c.6-.2,1.08-.45,1.43-.73.35-.28.57-.54.65-.78.08-.25.13-.51.16-.79.02-.28.04-.61.04-.99v-1.3c0-.64-.15-1.25-.46-1.83s-.72-1.04-1.23-1.39c-.51-.35-1.04-.52-1.6-.52-.96,0-1.8.21-2.52.62-.72.42-1.27.99-1.65,1.72-.38.73-.57,1.56-.57,2.5,0,.76.16,1.44.48,2.01.32.58.77,1.02,1.33,1.32.57.31,1.2.46,1.89.46.77,0,1.46-.1,2.06-.3Z"/>
    <path class="cls-4" d="M369.19,42.47c.13.19.2.49.2.91,0,.32-.09.64-.28.96-.19.32-.45.59-.77.79-.33.21-.69.31-1.09.31s-.78-.13-1.17-.4c-.39-.27-.71-.62-.96-1.06-.25-.44-.37-.89-.37-1.35-.75.9-1.52,1.62-2.32,2.16-.8.54-1.65.81-2.55.81-.82,0-1.66-.25-2.51-.76s-1.55-1.2-2.09-2.06c-.55-.86-.82-1.8-.82-2.8,0-1.35.32-2.67.97-3.96s1.51-2.35,2.6-3.16,2.26-1.22,3.52-1.22c.95,0,1.84.27,2.66.82.82.55,1.47,1.25,1.95,2.12.48.86.72,1.74.72,2.63,0,.38-.03.76-.09,1.13s-.09.61-.1.71c-.08.44-.14.84-.18,1.18s-.06.71-.06,1.1c0,.56.09.96.26,1.2.17.24.43.36.78.36.09,0,.18-.03.28-.1.09-.07.21-.16.33-.28.02-.02.08-.07.17-.15.09-.08.18-.13.26-.16.31,0,.53.09.66.28ZM363.04,41.96c.63-.61,1.07-1.31,1.3-2.1.23-.79.45-1.81.65-3.08,0-.29-.18-.63-.55-1.01s-.81-.7-1.32-.98c-.51-.27-.97-.41-1.38-.41-1.02,0-1.94.27-2.74.81-.8.54-1.43,1.24-1.87,2.09-.44.85-.66,1.71-.66,2.59,0,.58.19,1.09.57,1.55.38.46.87.81,1.47,1.07s1.21.38,1.84.38c1.16,0,2.06-.31,2.7-.92Z"/>
    <path class="cls-4" d="M378.5,48.68c.25-.41.42-.9.51-1.48.09-.58.17-1.34.24-2.29.04-.66.08-1.15.12-1.46-.11.42-.38.8-.8,1.13s-.91.58-1.47.76c-.56.17-1.07.26-1.55.26-1.79,0-3.14-.52-4.07-1.56-.93-1.04-1.39-2.59-1.39-4.65,0-1.34.21-2.6.63-3.77s1.05-2.11,1.9-2.83,1.89-1.08,3.13-1.08c.97,0,1.92.31,2.84.93.92.62,1.67,1.38,2.24,2.29.57.91.86,1.78.86,2.6l-.28,6.7v.2c-.06.25-.14.84-.25,1.74-.16,1.27-.34,2.31-.54,3.09-.2.79-.56,1.46-1.09,2.02s-1.29.84-2.27.84c-.39,0-.89-.06-1.5-.19-.62-.13-1.17-.34-1.66-.64-.49-.3-.74-.7-.74-1.2,0-.47.07-.83.2-1.08.13-.25.38-.37.74-.37.09,0,.17.01.25.04s.15.07.22.11c.25.15.56.27.92.37.37.09.95.14,1.76.14.47,0,.82-.21,1.07-.62ZM377.58,42.33c.52-.42.95-.95,1.3-1.56.35-.62.6-1.23.76-1.83-.11-.82-.28-1.55-.5-2.19s-.58-1.18-1.07-1.63-1.15-.67-1.99-.67c-1.36,0-2.35.44-2.96,1.33-.62.89-.93,2.03-.95,3.43,0,1.39.32,2.36.97,2.92.65.56,1.56.84,2.75.84.62,0,1.18-.21,1.7-.64Z"/>
    <path class="cls-4" d="M395.94,42.36c.18.22.28.56.28,1.02,0,.89-.67,1.47-2.02,1.76-1.35.28-2.67.42-3.98.42-.98,0-1.93-.27-2.84-.81-.91-.54-1.65-1.28-2.22-2.22-.57-.93-.85-1.96-.85-3.07,0-1.6.27-3.01.82-4.23s1.34-2.18,2.39-2.87c1.05-.68,2.29-1.03,3.73-1.03.76,0,1.52.18,2.27.54.75.36,1.37.88,1.85,1.57s.73,1.5.73,2.44c0,.48-.07.88-.22,1.21-.15.33-.35.53-.61.62l-9.01,3.06c.31.93.93,1.54,1.88,1.83s1.99.42,3.14.42c.38,0,.75-.05,1.13-.16.38-.1.82-.25,1.34-.44.33-.12.6-.22.81-.28.21-.07.4-.1.56-.1.37,0,.64.11.83.33ZM388.66,37.77c.95-.36,2.17-.83,3.66-1.42,1-.4,1.69-.66,2.05-.79-.27-.55-.72-.95-1.35-1.2-.64-.25-1.37-.38-2.2-.38-.47,0-1.04.17-1.73.5-.68.33-1.32.85-1.89,1.55-.58.7-.94,1.56-1.09,2.58.75-.2,1.59-.48,2.55-.84Z"/>
  </g>
</svg>