<?xml version="1.0" encoding="UTF-8"?>
<svg id="Layer_1" xmlns="http://www.w3.org/2000/svg" viewBox="0 0 471.2 74.94">
  <defs>
    <style>
      .cls-1 {
        fill: none;
      }

      .cls-1, .cls-2 {
        stroke: #231f20;
        stroke-miterlimit: 10;
        stroke-width: 2px;
      }

      .cls-2 {
        fill: #a42739;
      }

      .cls-3 {
        fill: #eaa294;
      }

      .cls-4 {
        fill: #ededed;
      }

      .cls-5 {
        fill: #c18678;
      }
    </style>
  </defs>
  <g>
    <path class="cls-2" d="M471.2,1.49l-.11,71.92-370.19-.53c-2.28,0-4.54-.39-6.68-1.14L4.04,40.09c-3.21-1.13-3.2-5.48.01-6.6L94.91,1.88c1.75-.61,3.61-.92,5.47-.92l370.82.53Z"/>
    <path class="cls-5" d="M58.39,22.63c-1.33.77-2.07,1.96-2.54,3.29-.22.16-.42.34-.62.51-1.32-.09-2.67.18-3.79.83-.43.25-.8.55-1.15.86-.85-.03-1.71.06-2.57.31-4.53,1.33-5.53,5.94-4.71,9.91.74,3.59,3.11,7.37,6.5,9.17.69.37,1.45.66,2.24.87,1.39,1.87,3.56,3.09,6.37,2.99,2.72-.1,5.35-1.47,7.28-3.48.48.11.98.19,1.51.21,5.27.16,7.36-4.98,6.67-9.34.12-2.09-.76-4.24-2.21-5.78-.16-.17-.33-.31-.5-.46.61-.98.73-2.24.04-3.25-.29-.43-.61-.82-.95-1.2,0,0,0,0,0,0-.32-.43-.64-.86-.96-1.28-.76-.98-1.54-1.99-2.5-2.81-2.21-1.91-5.37-2.94-8.12-1.35Z"/>
    <path class="cls-3" d="M93.26,2.46c-.94.12-1.67.55-2.35,1.16-.05.04-.32.3-.53.51-.25.04-.51.15-.75.21-.31.07-.63.12-.94.17-.11.01-.37.05-.46.06-1.41.16-2.86.27-4.22.73-1.54.51-2.6,1.39-3.88,2.31.36-.26-.53.31-.5.3-.27.16-.54.3-.82.44-.42.21-.85.42-1.28.62-.3-.01-.61,0-.93.05-1.25.2-2.38.78-3.45,1.43-.5-.11-1.02-.11-1.53.08-.7.25-1.38.53-2.07.81-.26.1-.51.21-.77.31-.11.05-.91.44-.22.09-.48.24-1.04.4-1.55.56-.26.08-.52.14-.78.22-.02,0-.03,0-.05.02-1.68.03-2.97.77-4.1,1.91-.01.01-.02.02-.03.03-.72.22-1.43.46-2.14.76-.26.11-.5.25-.75.39-1.73.14-3.49.17-5.14.76-.9.33-1.78.73-2.61,1.21-.07-.02-.13-.05-.21-.06-1.33-.23-2.46-.05-3.64.6-.69.38-1.37.76-2.08,1.1-.19.09-.37.17-.56.26-.03.01-.23.09-.33.14-.12.04-.29.1-.31.11-.21.07-.41.14-.62.21-.86.29-1.73.55-2.61.81-1.9.55-3.71,1.29-5.52,2.05-.41.17-.82.34-1.22.5-.25.1-.5.21-.75.32-.03.01-.23.09-.35.14-.11.04-.33.13-.37.14-.19.07-.39.13-.58.2-.54.18-1.1.38-1.6.65-.07.04-.13.09-.19.13-.99-.48-2.21-.52-3.18.08-1.52.94-2.19,2.88-1.22,4.43.51.81.88,1.54,1.54,2.27.09.1.18.19.28.29.01.02.02.03.03.05.04.08.07.13.09.17.05.13.09.26.13.4.04.13.14.9.15.8.02.33.04.65.04.98,0,.39-.02.79-.04,1.18-.01.19-.03.38-.04.57,0,.06-.01.1-.01.14,0,.05-.02.13-.05.28-.04.21-.09.42-.14.62-.1.42-.21.83-.31,1.24-.21.84-.34,1.68-.51,2.52-.09.42-.22.83-.33,1.25-.01.03-.01.04-.02.06-.05.1-.1.2-.16.29-.02.04-.05.08-.08.12-1.72.31-2.82,2.44-2.31,3.97.61,1.82,2.28,2.56,4.15,2.27.43-.07.83-.2,1.21-.38.21.21.44.4.73.54,1.91.96,3.91,1.32,5.98,1.8.45.1.89.25,1.33.36,0,0,0,.01.02.02.13.11.34.22.49.3.02,0,.02,0,.03.02.14.11.29.22.43.33.48.37.97.76,1.49,1.08,1.67,1.02,3.73,1.06,5.55,1.73,1.13.42,2.32.77,3.51,1.09.6.78,1.54,1.29,2.65,1.31.96.01,1.35.08,2.3.23.75.12,1.51.22,2.27.32.24.26.51.49.85.65.56.25,1.02.63,1.54.96.69.45,1.49.76,2.27,1.03,1.3.46,2.68.69,4,1.09,2.82.86,5.51,2.08,8.34,2.94,0,0,0,0,0,0,.07.05.13.11.2.16,1.21.85,2.6,1.24,3.96,1.82,1.55.66,3.03,1.46,4.61,2.05,1.59.6,3.26.95,4.86,1.51,2.88,1,5.55,2.35,8.62,2.78,2.21.31,4.75.49,6.9-.3,3.1.48,5.99-.47,8.94-1.31.45-.13.89-.29,1.34-.44,2.57.48,4.68-.39,7.03-1.41,2.11-.91,4.67-1.13,6.02-3.17,1.01-1.52.93-3.4.79-5.12-.22-2.74-2.03-4.37-4.61-5.3-2.11-.76-4.23-1.46-6.33-2.27-1.89-.73-3.57-1.77-5.41-2.59-2.17-.97-4.52-1.36-6.86-1.75-.62-.1-1.25-.21-1.87-.3,1.1-.22,2.17-.52,3.27-.77.22.05.45.07.69.07,1.19,0,2.34-.01,3.53-.2.39-.06.76-.16,1.14-.28.08.03.15.07.24.09,1.41.37,3.07.24,4.44-.22,1.36-.46,2.45-1.31,3.72-1.92.02-.01.03-.02.05-.02.02,0,.03,0,.05-.02.15-.06.31-.12.46-.17.31-.12.61-.23.92-.34.83-.32,1.67-.64,2.47-1.04,1.37-.68,2.52-1.56,3.28-2.86.77-1.31,1.16-2.74.71-4.14-.03-1.05-.28-2.09-.79-2.89-1.04-1.63-2.79-2.33-4.52-3.08-.24-.21-.48-.43-.73-.63-.7-.55-1.52-.88-2.34-.91-.13-.08-.26-.14-.38-.22-.83-.57-1.67-1.4-2.67-1.92-2.01-1.04-4.23-1.47-6.45-1.9-1.03-.2-2.07-.39-3.12-.56.48-.52.73-1.09.8-1.65,3.48-.15,7.03-.63,10.41-1.37,3.34-.74,6.78-2.21,8.7-5.09,2.29-3.44.6-7.26-2.69-9.35-.16-.1-.33-.17-.5-.26-.44-1.07-1.43-1.91-2.98-1.95-2.6-.05-5.33-.76-7.84-1.09-2.64-.34-5.34-1.04-8.09-1.11-2.58-.06-5.38-.33-7.96.03-.63-.34-1.38-.5-2.22-.39Z"/>
    <path class="cls-1" d="M22.66,46.62c6.25-5.39,6.99-14.38,1.65-20.09"/>
    <g>
      <path class="cls-1" d="M94.91,1.88c24.97.04,32.92,4.83,32.52,11.72"/>
      <path class="cls-1" d="M97.31,23.92c16.64.03,30.11-4.58,30.12-10.31"/>
    </g>
    <g>
      <path class="cls-1" d="M97.32,23.91c16.63.03,30.08,6.25,30.06,13.9"/>
      <path class="cls-1" d="M97.27,49.14c16.63.03,30.1-5.04,30.11-11.33"/>
    </g>
    <g>
      <path class="cls-1" d="M97.28,49.14c16.64.03,30.09,5.88,30.07,13.08"/>
      <path class="cls-1" d="M95.62,72.18c17.24,1.84,31.71-4.04,31.72-9.96"/>
    </g>
    <line class="cls-1" x1="13.29" y1="43.33" x2="95.62" y2="72.18"/>
    <line class="cls-1" x1="14.08" y1="30" x2="95.73" y2="1.6"/>
  </g>
  <g>
    <path class="cls-4" d="M173.18,46.75c-.08.04-.17.07-.26.11-.09.03-.19.05-.28.05-.21,0-.45-.06-.71-.17s-.5-.28-.69-.51c-.19-.23-.29-.5-.29-.81,0-.08.02-.52.05-1.32.03-.81.08-3.75.14-8.83,0-1.26.1-2.41.29-3.46.19-1.05.53-1.65,1-1.81.71-.22,1.48-.38,2.3-.5s1.57-.17,2.26-.17c.43,0,.88.11,1.36.33.48.22.88.54,1.21.95.33.41.49.88.49,1.42,0,1.02-.32,1.97-.95,2.85,1.13.42,2.02,1.04,2.67,1.88.65.83.98,1.88.98,3.12,0,1.51-.39,2.78-1.18,3.79s-1.83,1.78-3.13,2.27c-1.3.5-2.73.74-4.29.74-.05,0-.13-.01-.25-.04-.11-.02-.22-.04-.31-.04-.1,0-.24.04-.42.13ZM172.9,38.78l-.03.69v.65c0,1.57.05,2.81.15,3.74l.97-.07c1.4-.09,2.58-.24,3.53-.42s1.78-.57,2.49-1.15c.71-.58,1.06-1.43,1.06-2.55,0-.54-.23-1.01-.69-1.41-.46-.4-1.04-.71-1.73-.92-.69-.21-1.37-.32-2.03-.32-.2,0-.4.03-.62.1s-.5.17-.86.33c-.42.17-.79.31-1.13.42-.34.11-.7.19-1.09.23l-.03.68ZM177.7,32.12c-.43-.08-.96-.13-1.57-.13-.3,0-.69.03-1.18.08-.49.05-.93.14-1.33.26-.39.12-.59.28-.6.48l-.09,2.22c.23,0,.55-.05.96-.14.41-.09,1.29-.34,2.63-.75,1.22-.72,1.83-1.27,1.83-1.67,0-.15-.22-.27-.65-.35Z"/>
    <path class="cls-4" d="M196.9,43.7c.18.22.28.56.28,1.02,0,.89-.67,1.47-2.02,1.76s-2.67.42-3.98.42c-.98,0-1.93-.27-2.84-.81-.91-.54-1.65-1.28-2.22-2.22s-.85-1.96-.85-3.07c0-1.6.27-3.01.82-4.23s1.34-2.18,2.39-2.87c1.05-.68,2.29-1.03,3.73-1.03.76,0,1.52.18,2.27.54s1.37.88,1.85,1.57.73,1.5.73,2.44c0,.48-.07.88-.22,1.21-.15.33-.35.53-.61.62l-9.01,3.06c.31.93.93,1.54,1.88,1.83.94.28,1.99.42,3.14.42.38,0,.75-.05,1.13-.16s.82-.25,1.34-.44c.33-.12.6-.22.81-.28s.4-.1.56-.1c.37,0,.64.11.83.33ZM189.61,39.12c.95-.36,2.17-.83,3.66-1.42,1-.4,1.69-.66,2.06-.79-.27-.55-.72-.95-1.35-1.2-.64-.25-1.37-.38-2.2-.38-.47,0-1.04.17-1.73.5-.69.33-1.32.85-1.89,1.55s-.94,1.56-1.09,2.58c.74-.2,1.59-.48,2.55-.84Z"/>
    <path class="cls-4" d="M201.86,46.51c-.8-.36-1.21-1.05-1.21-2.06,0-.16.05-.36.15-.6.1-.24.22-.45.37-.62.15-.17.3-.26.45-.26.05,0,.17.08.37.25.26.31.51.54.75.7.24.16.52.26.83.31.31.05.72.08,1.24.08s1.07-.06,1.68-.19c.6-.13,1.11-.28,1.53-.45s.63-.31.63-.41c0-.25-.13-.46-.39-.63-.26-.17-.58-.29-.95-.39s-.93-.21-1.67-.35c-1.16-.21-2.12-.43-2.87-.66-.75-.23-1.4-.6-1.95-1.12-.55-.51-.83-1.21-.83-2.09,0-1.09.31-2.04.94-2.85.63-.82,1.42-1.44,2.39-1.88.97-.44,1.94-.66,2.93-.66.65,0,1.22.12,1.73.37.51.25.91.57,1.19.97.28.4.42.83.42,1.3,0,.75-.06,1.35-.18,1.83s-.4.71-.85.71c-.22,0-.36-.1-.43-.3s-.1-.5-.1-.92c0-.44-.18-.75-.54-.92s-.89-.25-1.61-.25c-.5,0-1.05.12-1.65.35-.61.24-1.12.54-1.55.92s-.64.77-.64,1.18.16.75.49,1.01c.33.26.73.46,1.22.59.49.14,1.16.29,2.01.45,1.05.2,1.9.4,2.55.59.65.2,1.19.51,1.65.93.45.42.68.98.68,1.69,0,.9-.36,1.64-1.09,2.23-.72.59-1.57,1.02-2.54,1.3-.97.27-1.8.41-2.51.41-.95,0-1.83-.18-2.64-.55Z"/>
    <path class="cls-4" d="M213.65,42.22c-.27-.8-.41-1.51-.41-2.15,0-1.64.3-3,.9-4.06.6-1.06,1.38-1.83,2.32-2.32.95-.48,1.97-.72,3.06-.72,1.16,0,2.19.29,3.1.88.23-.28.52-.56.88-.83.36-.27.67-.4.94-.4.58,0,.86.37.86,1.12,0,.24-.04.43-.11.59-.07.16-.19.3-.34.45-.15.14-.4.35-.75.62.35.6.62,1.31.83,2.11s.31,1.66.31,2.56c0,1.31-.29,2.49-.86,3.54-.57,1.05-1.32,1.86-2.26,2.45s-1.92.88-2.96.88c-.32,0-.75-.09-1.31-.28-.56-.19-1.05-.39-1.47-.59-.05.11-.16.29-.33.53-.17.24-.35.46-.56.66s-.38.3-.54.3c-.42,0-.74-.12-.97-.38-.23-.25-.34-.57-.34-.97,0-.31.07-.58.2-.81.13-.23.33-.49.57-.78,0,0,.09-.1.24-.27-.39-.62-.72-1.33-.99-2.13ZM217.19,40.84c.32-.51,1.01-1.47,2.07-2.89l.51-.68,1.12-1.52c-.1-.06-.21-.09-.33-.1s-.35-.01-.66-.01c-.81,0-1.59.16-2.32.47-.73.31-1.32.78-1.77,1.41-.45.63-.68,1.39-.68,2.29,0,.49.11.99.32,1.5.21.51.41.9.59,1.16l1.16-1.63ZM219.52,41.25c-1.1,1.58-1.74,2.48-1.91,2.72.52.23.99.34,1.42.34.72,0,1.41-.17,2.05-.51s1.17-.83,1.57-1.48c.4-.65.61-1.4.62-2.26,0-.56-.07-1.11-.22-1.67s-.35-.96-.63-1.2c-.58.74-1.54,2.09-2.9,4.06Z"/>
    <path class="cls-4" d="M235.99,50.03c.25-.41.42-.9.51-1.48.09-.58.17-1.34.24-2.29.04-.66.08-1.15.12-1.46-.11.42-.38.8-.8,1.13s-.91.58-1.47.76c-.56.17-1.07.26-1.55.26-1.79,0-3.14-.52-4.07-1.56-.93-1.04-1.39-2.59-1.39-4.65,0-1.34.21-2.6.63-3.77.42-1.17,1.05-2.11,1.9-2.83s1.89-1.08,3.13-1.08c.97,0,1.92.31,2.84.93.92.62,1.67,1.38,2.24,2.29.57.91.86,1.78.86,2.6l-.28,6.7v.2c-.06.25-.14.84-.25,1.74-.16,1.27-.34,2.31-.54,3.09-.2.79-.56,1.46-1.09,2.02s-1.29.84-2.27.84c-.39,0-.89-.06-1.5-.19-.62-.13-1.17-.34-1.66-.64-.49-.3-.74-.7-.74-1.2,0-.47.07-.83.2-1.08.13-.25.38-.37.74-.37.09,0,.17.01.25.04s.15.07.22.11c.25.15.56.27.92.37s.95.14,1.76.14c.47,0,.82-.21,1.07-.62ZM235.07,43.68c.52-.42.95-.95,1.3-1.56.35-.62.6-1.23.76-1.83-.11-.82-.28-1.55-.5-2.19-.22-.64-.58-1.18-1.07-1.63s-1.15-.67-1.99-.67c-1.36,0-2.35.44-2.96,1.33-.62.89-.93,2.03-.95,3.43,0,1.39.32,2.36.97,2.92.65.56,1.56.84,2.75.84.62,0,1.18-.21,1.7-.64Z"/>
    <path class="cls-4" d="M251.02,45.9c-.92-.7-1.66-1.58-2.21-2.65-.55-1.07-.83-2.13-.83-3.17,0-1.64.3-3,.9-4.06s1.38-1.84,2.34-2.33c.96-.49,1.99-.73,3.1-.73,1.18,0,2.2.29,3.05.87.85.58,1.51,1.41,1.96,2.48.45,1.07.68,2.33.68,3.77,0,1.31-.29,2.49-.86,3.54-.57,1.05-1.32,1.86-2.25,2.45s-1.91.88-2.94.88-2.03-.35-2.95-1.05ZM257.62,37.71c-.29-.65-.7-1.16-1.21-1.52-.52-.36-1.09-.55-1.73-.55-.78,0-1.54.16-2.28.47-.73.32-1.33.79-1.8,1.41s-.7,1.37-.7,2.25c0,.74.19,1.46.57,2.16.38.7.87,1.27,1.47,1.71.61.44,1.23.66,1.88.66.73,0,1.43-.17,2.08-.52s1.17-.85,1.57-1.51c.4-.66.6-1.43.6-2.33,0-.84-.15-1.59-.44-2.24Z"/>
    <path class="cls-4" d="M270.78,50.03c.25-.41.42-.9.51-1.48.09-.58.17-1.34.24-2.29.04-.66.08-1.15.12-1.46-.11.42-.37.8-.8,1.13-.42.33-.91.58-1.47.76-.56.17-1.07.26-1.55.26-1.79,0-3.14-.52-4.07-1.56-.93-1.04-1.39-2.59-1.39-4.65,0-1.34.21-2.6.62-3.77s1.05-2.11,1.9-2.83,1.89-1.08,3.13-1.08c.97,0,1.92.31,2.84.93.92.62,1.67,1.38,2.24,2.29.57.91.86,1.78.86,2.6l-.28,6.7v.2c-.06.25-.14.84-.25,1.74-.16,1.27-.34,2.31-.54,3.09-.2.79-.56,1.46-1.09,2.02-.53.56-1.29.84-2.27.84-.39,0-.89-.06-1.5-.19-.62-.13-1.17-.34-1.66-.64s-.74-.7-.74-1.2c0-.47.07-.83.2-1.08s.38-.37.74-.37c.09,0,.17.01.25.04.08.03.15.07.22.11.25.15.56.27.92.37s.95.14,1.76.14c.47,0,.82-.21,1.07-.62ZM269.86,43.68c.52-.42.95-.95,1.29-1.56.35-.62.6-1.23.76-1.83-.11-.82-.28-1.55-.5-2.19s-.58-1.18-1.07-1.63-1.15-.67-1.99-.67c-1.36,0-2.35.44-2.96,1.33s-.93,2.03-.95,3.43c0,1.39.32,2.36.97,2.92.65.56,1.56.84,2.75.84.62,0,1.18-.21,1.7-.64Z"/>
    <path class="cls-4" d="M297.04,43.82c.13.19.2.49.2.91,0,.32-.09.64-.28.96-.19.32-.45.59-.77.79-.33.21-.69.31-1.09.31s-.78-.13-1.17-.4c-.39-.27-.71-.62-.96-1.06-.25-.44-.37-.89-.37-1.35-.75.9-1.52,1.62-2.32,2.16-.8.54-1.65.81-2.55.81-.82,0-1.66-.25-2.51-.76s-1.55-1.2-2.09-2.06c-.55-.86-.82-1.8-.82-2.8,0-1.35.32-2.67.97-3.96s1.51-2.35,2.6-3.16,2.26-1.22,3.52-1.22c.95,0,1.84.27,2.66.82.82.55,1.47,1.25,1.95,2.12.48.86.72,1.74.72,2.63,0,.38-.03.76-.09,1.13s-.09.61-.1.71c-.08.44-.14.84-.18,1.18s-.06.71-.06,1.1c0,.56.09.96.26,1.2.17.24.43.36.78.36.09,0,.18-.03.28-.1.09-.07.21-.16.33-.28.02-.02.08-.07.17-.15.09-.08.18-.13.26-.16.31,0,.53.09.66.28ZM290.9,43.31c.63-.61,1.07-1.31,1.3-2.1.23-.79.45-1.81.65-3.08,0-.29-.18-.63-.55-1.01s-.81-.7-1.32-.98c-.51-.27-.97-.41-1.38-.41-1.02,0-1.94.27-2.74.81-.8.54-1.43,1.24-1.87,2.09-.44.85-.66,1.71-.66,2.59,0,.58.19,1.09.57,1.55.38.46.87.81,1.47,1.07s1.21.38,1.84.38c1.16,0,2.06-.31,2.7-.92ZM292.38,27.84c-.35.6-.79,1.1-1.33,1.5-.53.4-1.05.59-1.56.59-.57,0-1.11-.16-1.62-.47-.52-.32-.93-.73-1.24-1.25s-.47-1.08-.47-1.67c0-.36.19-.88.57-1.58.38-.69.84-1.31,1.38-1.84.54-.53,1.05-.8,1.53-.8.22,0,.38.02.5.06.11.04.21.14.28.28.07.15.14.38.2.69.08.07.22.13.43.18.49.09.92.36,1.29.81.37.44.56,1.03.56,1.76,0,.56-.18,1.14-.53,1.74ZM290.67,27.5c.19-.16.36-.35.5-.59.14-.24.21-.48.21-.72,0-.2-.19-.41-.58-.64-.39-.23-.82-.44-1.3-.62-.48-.18-.8-.27-.96-.27-.1,0-.2.1-.31.3-.11.2-.21.43-.29.69-.08.26-.13.45-.13.56,0,.18.13.39.4.63.27.24.59.45.96.62.37.17.7.26.99.26.15,0,.32-.08.51-.23Z"/>
    <path class="cls-4" d="M300.65,46.45c-.12,0-.23.02-.33.07s-.16.08-.19.08c-.2.12-.4.18-.6.18-.47,0-.77-.24-.92-.71-.14-.48-.22-1.23-.22-2.26v-1.22l.25-15.41c0-.42.08-.76.23-.99.15-.24.43-.35.83-.35.13,0,.27.05.43.14s.29.22.4.39c.11.17.16.35.16.56,0,.84-.02,1.74-.04,2.69-.04,1.62-.06,3.13-.06,4.52.61-.35,1.19-.62,1.76-.82.57-.2,1.14-.3,1.71-.3,1.84,0,3.22.56,4.15,1.67s1.4,2.77,1.4,4.96c0,1.63-.38,2.98-1.14,4.05s-1.68,1.84-2.75,2.33c-1.07.49-2.08.73-3.04.73-.67,0-1.35-.1-2.05-.31ZM300.61,42.9c.04.48.1.8.19.96.3.15.93.23,1.91.23.46,0,.96-.09,1.53-.28.56-.18,1.08-.43,1.57-.75.49-.32.85-.66,1.1-1.03.18-.31.32-.79.43-1.42.11-.64.16-1.24.16-1.82s-.21-1.1-.63-1.56c-.42-.47-.93-.83-1.53-1.1-.6-.26-1.15-.4-1.65-.4-.53,0-1.1.14-1.73.43-.63.29-1.08.62-1.37,1-.03.78-.04,1.77-.04,2.97,0,1.36.02,2.28.05,2.76Z"/>
    <path class="cls-4" d="M321.66,37.29c-.5-1.1-1.46-1.64-2.87-1.64-.42,0-.9.12-1.44.35s-1.07.56-1.57.97c-.51.41-.92.86-1.24,1.35,0,.32,0,.86-.03,1.61-.02.72-.03,1.21-.03,1.49,0,.29.02.58.06.86.04.28.1.62.18,1.03.06.3.11.62.16.94.04.33.07.63.07.91,0,.54-.06.94-.19,1.22s-.41.41-.83.41-.77-.11-1.03-.34c-.26-.23-.38-.68-.36-1.37l.06-5.55c-.11-1.34-.16-2.26-.16-2.76v-.42c0-.83.08-1.59.25-2.28s.44-1.03.82-1.03c.75,0,1.13.62,1.13,1.85,0,.2-.03.59-.09,1.18l-.04.37c.22-.74.62-1.37,1.19-1.9.58-.53,1.2-.93,1.86-1.2.67-.27,1.23-.4,1.7-.4,1.87,0,3.19.73,3.98,2.18s1.18,3.22,1.18,5.3c0,1.93-.09,3.51-.28,4.76s-.58,1.87-1.16,1.87c-.26,0-.47-.03-.63-.09-.16-.06-.29-.21-.39-.44-.1-.23-.15-.59-.15-1.07,0-.31.03-.62.08-.92.05-.3.12-.68.22-1.13.11-.52.19-.93.24-1.23s.08-.62.08-.96c0-1.5-.25-2.8-.75-3.89Z"/>
    <path class="cls-4" d="M329.88,46.54c-.21.27-.44.41-.7.41-.37,0-.66-.11-.87-.33-.21-.22-.38-.59-.48-1.11-.08-.45-.12-1.42-.12-2.9,0-2.45.1-4.68.31-6.68.2-2,.67-2.99,1.39-2.99.3,0,.49.12.59.38.09.25.14.61.14,1.08l-.12,1.98c-.05.67-.09,1.37-.13,2.11-.04.74-.06,1.39-.06,1.97,0,.61.06,1.47.19,2.58.12,1.15.18,1.95.18,2.39,0,.47-.1.84-.31,1.12ZM329.64,30c-.41,0-.79-.11-1.14-.34s-.53-.62-.53-1.19c0-.28.08-.57.25-.86.16-.29.37-.53.61-.72.24-.19.47-.28.69-.28.41,0,.76.12,1.06.37s.45.67.45,1.26c0,1.18-.46,1.77-1.38,1.77Z"/>
    <path class="cls-4" d="M342.56,37.29c-.5-1.1-1.46-1.64-2.87-1.64-.42,0-.9.12-1.44.35s-1.07.56-1.57.97c-.51.41-.92.86-1.24,1.35,0,.32,0,.86-.03,1.61-.02.72-.03,1.21-.03,1.49,0,.29.02.58.06.86.04.28.1.62.18,1.03.06.3.11.62.16.94.04.33.07.63.07.91,0,.54-.06.94-.19,1.22s-.41.41-.83.41-.77-.11-1.03-.34c-.26-.23-.38-.68-.36-1.37l.06-5.55c-.11-1.34-.16-2.26-.16-2.76v-.42c0-.83.08-1.59.25-2.28s.44-1.03.82-1.03c.75,0,1.13.62,1.13,1.85,0,.2-.03.59-.09,1.18l-.04.37c.22-.74.62-1.37,1.19-1.9.58-.53,1.2-.93,1.86-1.2.67-.27,1.23-.4,1.7-.4,1.87,0,3.19.73,3.98,2.18s1.18,3.22,1.18,5.3c0,1.93-.09,3.51-.28,4.76s-.58,1.87-1.16,1.87c-.26,0-.47-.03-.63-.09-.16-.06-.29-.21-.39-.44-.1-.23-.15-.59-.15-1.07,0-.31.03-.62.08-.92.05-.3.12-.68.22-1.13.11-.52.19-.93.24-1.23s.08-.62.08-.96c0-1.5-.25-2.8-.75-3.89Z"/>
    <path class="cls-4" d="M356.25,50.03c.25-.41.42-.9.51-1.48.09-.58.17-1.34.24-2.29.04-.66.08-1.15.12-1.46-.11.42-.38.8-.8,1.13s-.91.58-1.47.76c-.56.17-1.07.26-1.55.26-1.79,0-3.14-.52-4.07-1.56-.93-1.04-1.39-2.59-1.39-4.65,0-1.34.21-2.6.63-3.77s1.05-2.11,1.9-2.83,1.89-1.08,3.13-1.08c.97,0,1.92.31,2.84.93.92.62,1.67,1.38,2.24,2.29.57.91.86,1.78.86,2.6l-.28,6.7v.2c-.06.25-.14.84-.25,1.74-.16,1.27-.34,2.31-.54,3.09-.2.79-.56,1.46-1.09,2.02s-1.29.84-2.27.84c-.39,0-.89-.06-1.5-.19-.62-.13-1.17-.34-1.66-.64-.49-.3-.74-.7-.74-1.2,0-.47.07-.83.2-1.08.13-.25.38-.37.74-.37.09,0,.17.01.25.04s.15.07.22.11c.25.15.56.27.92.37.37.09.95.14,1.76.14.47,0,.82-.21,1.07-.62ZM355.33,43.68c.52-.42.95-.95,1.3-1.56.35-.62.6-1.23.76-1.83-.11-.82-.28-1.55-.5-2.19s-.58-1.18-1.07-1.63-1.15-.67-1.99-.67c-1.36,0-2.35.44-2.96,1.33-.62.89-.93,2.03-.95,3.43,0,1.39.32,2.36.97,2.92.65.56,1.56.84,2.75.84.62,0,1.18-.21,1.7-.64Z"/>
    <path class="cls-4" d="M364.4,46.51c-.8-.36-1.21-1.05-1.21-2.06,0-.16.05-.36.15-.6.1-.24.22-.45.37-.62.15-.17.3-.26.45-.26.05,0,.17.08.37.25.26.31.51.54.75.7.24.16.52.26.83.31.31.05.72.08,1.24.08s1.07-.06,1.67-.19c.6-.13,1.11-.28,1.53-.45s.62-.31.62-.41c0-.25-.13-.46-.39-.63-.26-.17-.58-.29-.95-.39s-.93-.21-1.67-.35c-1.16-.21-2.12-.43-2.87-.66-.75-.23-1.4-.6-1.95-1.12-.55-.51-.83-1.21-.83-2.09,0-1.09.31-2.04.94-2.85.62-.82,1.42-1.44,2.39-1.88.97-.44,1.94-.66,2.93-.66.65,0,1.22.12,1.74.37.51.25.91.57,1.19.97.28.4.42.83.42,1.3,0,.75-.06,1.35-.18,1.83s-.4.71-.85.71c-.22,0-.36-.1-.43-.3s-.1-.5-.1-.92c0-.44-.18-.75-.54-.92s-.89-.25-1.61-.25c-.5,0-1.05.12-1.65.35s-1.12.54-1.55.92-.64.77-.64,1.18.16.75.49,1.01c.33.26.73.46,1.22.59.49.14,1.16.29,2.01.45,1.05.2,1.9.4,2.55.59s1.19.51,1.65.93c.45.42.68.98.68,1.69,0,.9-.36,1.64-1.09,2.23-.73.59-1.57,1.02-2.54,1.3s-1.8.41-2.51.41c-.95,0-1.83-.18-2.64-.55Z"/>
    <path class="cls-4" d="M377.44,35.93c-.36.02-.66.03-.91.03-.14,0-.31-.06-.51-.17s-.38-.27-.53-.48c-.15-.21-.22-.44-.22-.71s.06-.51.19-.74c.12-.23.28-.42.48-.55.19-.14.39-.21.6-.21.32,0,.9.03,1.76.08.03-1.17.14-2.28.33-3.34.19-1.06.57-1.59,1.12-1.59.13,0,.26.06.4.18.14.12.25.28.35.48.09.2.14.42.14.66,0,1-.06,1.91-.18,2.72l-.04.35-.13.58c.36,0,.78,0,1.27-.01s.86-.02,1.12-.03c.79-.03,1.59-.04,2.38-.04.29,0,.5.16.63.49.13.33.19.67.19,1.04,0,.4-.11.71-.32.94-.21.23-.44.35-.69.35l-4.59-.06-.02,1.3c-.03.79-.04,1.65-.04,2.58,0,1.31.12,2.35.35,3.1s.68,1.13,1.35,1.13c.57,0,1.27-.29,2.1-.86.18-.1.27-.16.28-.16.25,0,.42.07.51.2.09.13.13.36.13.69,0,.4-.17.82-.51,1.27-.34.45-.74.83-1.21,1.14s-.87.47-1.22.47c-1.12,0-1.95-.38-2.49-1.13-.54-.75-.88-1.65-1.01-2.7-.13-1.05-.21-2.41-.23-4.08,0-1.31-.04-2.3-.12-2.96-.15,0-.38,0-.7.03Z"/>
    <path class="cls-4" d="M390.62,46.54c-.21.27-.44.41-.7.41-.37,0-.66-.11-.87-.33-.21-.22-.38-.59-.48-1.11-.08-.45-.12-1.42-.12-2.9,0-2.45.1-4.68.31-6.68.2-2,.67-2.99,1.39-2.99.3,0,.49.12.59.38.09.25.14.61.14,1.08l-.12,1.98c-.05.67-.09,1.37-.13,2.11-.04.74-.06,1.39-.06,1.97,0,.61.06,1.47.19,2.58.12,1.15.18,1.95.18,2.39,0,.47-.1.84-.31,1.12ZM390.38,30c-.41,0-.79-.11-1.14-.34s-.53-.62-.53-1.19c0-.28.08-.57.25-.86.16-.29.37-.53.61-.72.24-.19.47-.28.69-.28.41,0,.76.12,1.06.37s.45.67.45,1.26c0,1.18-.46,1.77-1.38,1.77Z"/>
    <path class="cls-4" d="M402.07,33.31c.53.22.96.52,1.3.92s.54.85.6,1.36l.03-4.06.03-4.04c0-.99.38-1.49,1.13-1.49.29,0,.5.13.62.4s.19.58.19.95l-.02,2.1-.03,2.14-.18,8.99-.06,2.45c0,1.26-.1,2.2-.26,2.84-.16.64-.5.96-1,.96-.2,0-.37-.12-.51-.37-.14-.25-.3-.6-.48-1.08-.33.3-.76.56-1.29.77-.54.21-1.09.37-1.65.48-.57.11-1.06.16-1.47.16-1.78,0-3.12-.56-4.04-1.67s-1.37-2.63-1.37-4.55c0-1.32.27-2.56.81-3.72s1.32-2.1,2.35-2.8,2.22-1.06,3.6-1.06c.6,0,1.16.11,1.69.33ZM401.46,43.98c.6-.2,1.08-.45,1.43-.73.35-.28.57-.54.65-.78.08-.25.13-.51.16-.79.02-.28.04-.61.04-.99v-1.3c0-.64-.15-1.25-.46-1.83s-.72-1.04-1.23-1.39c-.51-.35-1.04-.52-1.6-.52-.96,0-1.8.21-2.52.62-.72.42-1.27.99-1.65,1.72-.38.73-.57,1.56-.57,2.5,0,.76.16,1.44.48,2.01.32.58.77,1.02,1.33,1.32.57.31,1.2.46,1.89.46.77,0,1.46-.1,2.06-.3Z"/>
    <path class="cls-4" d="M420.46,43.7c.18.22.28.56.28,1.02,0,.89-.67,1.47-2.02,1.76-1.35.28-2.67.42-3.98.42-.98,0-1.93-.27-2.84-.81-.91-.54-1.65-1.28-2.22-2.22-.57-.93-.85-1.96-.85-3.07,0-1.6.27-3.01.82-4.23s1.34-2.18,2.39-2.87c1.05-.68,2.29-1.03,3.73-1.03.76,0,1.52.18,2.27.54.75.36,1.37.88,1.85,1.57s.73,1.5.73,2.44c0,.48-.07.88-.22,1.21-.15.33-.35.53-.61.62l-9.01,3.06c.31.93.93,1.54,1.88,1.83s1.99.42,3.14.42c.38,0,.75-.05,1.13-.16.38-.1.82-.25,1.34-.44.33-.12.6-.22.81-.28.21-.07.4-.1.56-.1.37,0,.64.11.83.33ZM413.17,39.12c.95-.36,2.17-.83,3.66-1.42,1-.4,1.69-.66,2.05-.79-.27-.55-.72-.95-1.35-1.2-.64-.25-1.37-.38-2.2-.38-.47,0-1.04.17-1.73.5-.68.33-1.32.85-1.89,1.55-.58.7-.94,1.56-1.09,2.58.75-.2,1.59-.48,2.55-.84Z"/>
    <path class="cls-4" d="M427.04,36.72c-.65.79-.98,2.01-.98,3.65v.5l.15,4.36c0,.16-.04.36-.11.59-.07.23-.19.43-.36.61-.16.17-.38.26-.63.26-.48,0-.8-.14-.98-.41s-.27-.72-.27-1.35c0-.42,0-.85.03-1.3,0-.15.01-.35.01-.59v-1.33c0-.53.03-1.26.08-2.18s.18-2.54.37-4.86c.03-.47.14-.84.33-1.12.19-.27.47-.41.83-.41.2,0,.38.12.56.38.17.25.26.65.26,1.2,0,.84-.02,1.35-.04,1.54.2-.6.58-1.17,1.15-1.69.57-.52,1.19-.94,1.87-1.25s1.26-.47,1.76-.47c.81,0,1.53.15,2.16.45.62.3.94.9.94,1.8,0,.28-.06.54-.19.78s-.3.42-.5.55-.41.2-.63.2c-.19,0-.33-.03-.42-.1-.09-.07-.17-.17-.25-.31-.12-.22-.28-.38-.48-.5-.2-.12-.56-.18-1.06-.18h-.34c-1.51,0-2.59.4-3.24,1.19Z"/>
  </g>
</svg>