<?xml version="1.0" encoding="UTF-8"?>
<svg id="Layer_1" xmlns="http://www.w3.org/2000/svg" viewBox="0 0 491.21 75.6">
  <defs>
    <style>
      .cls-1 {
        fill: none;
        stroke: #231f20;
      }

      .cls-1, .cls-2 {
        stroke-miterlimit: 10;
        stroke-width: 2px;
      }

      .cls-2 {
        fill: #263779;
        stroke: #010101;
      }

      .cls-3 {
        fill: #eaa294;
      }

      .cls-4 {
        fill: #ededed;
      }

      .cls-5 {
        fill: #c18678;
      }
    </style>
  </defs>
  <path class="cls-2" d="M487.51,1.86l-.08,72.12-383.2-.36c-2.36,0-4.7-.39-6.92-1.14L3.96,40.78c-3.32-1.13-3.31-5.49,0-6.62L98,2.43c1.82-.61,3.73-.93,5.66-.92l383.85.36Z"/>
  <path class="cls-5" d="M62.27,23.25c-1.42.77-2.22,1.97-2.72,3.3-.23.16-.45.34-.66.52-1.42-.09-2.86.18-4.06.84-.46.25-.85.55-1.23.87-.91-.03-1.83.06-2.75.32-4.86,1.33-5.92,5.96-5.04,9.93.79,3.6,3.34,7.39,6.97,9.19.74.37,1.56.67,2.4.87,1.49,1.87,3.82,3.1,6.83,2.99,2.91-.1,5.74-1.48,7.8-3.49.52.11,1.05.19,1.62.21,5.65.15,7.88-5,7.14-9.37.13-2.1-.82-4.25-2.37-5.79-.17-.17-.35-.31-.54-.46.65-.98.78-2.25.04-3.26-.31-.43-.66-.83-1.02-1.21,0,0,0,0,0,0-.34-.43-.68-.86-1.03-1.28-.82-.99-1.65-1.99-2.68-2.82-2.37-1.92-5.76-2.95-8.7-1.35Z"/>
  <path class="cls-3" d="M99.63,3.01c-1.01.12-1.79.55-2.51,1.16-.05.04-.34.3-.57.51-.27.04-.55.16-.81.21-.33.07-.67.12-1.01.17-.11.01-.4.05-.5.06-1.51.16-3.07.28-4.52.73-1.65.52-2.78,1.4-4.16,2.31.39-.26-.56.32-.53.3-.29.16-.58.3-.88.44-.45.22-.91.42-1.37.62-.32,0-.65,0-.99.05-1.34.2-2.55.79-3.7,1.43-.53-.11-1.09-.11-1.64.08-.75.25-1.48.53-2.22.81-.27.1-.55.21-.82.31-.12.05-.97.44-.24.09-.51.25-1.11.4-1.66.56-.28.08-.56.14-.84.22-.02,0-.03,0-.05.02-1.8.03-3.18.77-4.39,1.91-.01.01-.02.02-.03.03-.78.22-1.54.46-2.29.76-.28.11-.54.25-.8.39-1.86.15-3.74.17-5.5.77-.96.33-1.91.74-2.8,1.22-.08-.02-.14-.05-.22-.06-1.42-.23-2.64-.05-3.9.61-.74.38-1.46.77-2.23,1.11-.2.09-.4.17-.6.26-.03.01-.24.09-.36.14-.13.04-.31.1-.34.11-.22.07-.44.14-.67.21-.92.29-1.86.55-2.8.81-2.04.55-3.97,1.3-5.92,2.06-.44.17-.87.34-1.31.51-.27.1-.54.21-.81.32-.03.01-.25.09-.37.14-.12.04-.36.13-.39.14-.21.07-.41.13-.62.2-.58.18-1.17.38-1.71.65-.07.04-.14.09-.21.13-1.07-.48-2.36-.52-3.41.08-1.63.94-2.35,2.89-1.3,4.45.54.81.94,1.55,1.66,2.27.1.1.2.19.3.29.01.02.02.03.04.05.04.08.07.13.1.17.05.13.1.26.14.4.04.13.15.9.16.8.02.33.04.66.04.99,0,.39-.02.79-.05,1.18-.01.19-.03.38-.05.57,0,.06-.01.1-.02.14,0,.05-.03.13-.05.28-.04.21-.09.42-.15.62-.1.42-.22.83-.33,1.25-.22.84-.36,1.69-.55,2.53-.09.42-.23.83-.35,1.25-.01.03-.02.04-.03.06-.06.1-.11.2-.17.29-.03.04-.06.08-.09.12-1.84.31-3.02,2.45-2.47,3.98.65,1.82,2.44,2.57,4.45,2.27.46-.07.89-.21,1.3-.38.22.21.47.4.78.54,2.05.96,4.19,1.32,6.41,1.81.48.1.95.25,1.43.36,0,0,.01.01.02.02.14.11.36.22.52.3.02,0,.02,0,.03.02.15.11.31.22.46.33.52.37,1.04.76,1.59,1.08,1.79,1.02,4,1.06,5.95,1.73,1.21.42,2.48.78,3.76,1.09.65.78,1.65,1.3,2.84,1.31,1.03.01,1.45.07,2.47.23.81.12,1.62.22,2.43.32.25.26.55.5.91.65.6.25,1.1.63,1.65.96.74.45,1.6.76,2.43,1.04,1.39.47,2.87.69,4.29,1.1,3.03.86,5.91,2.08,8.93,2.94,0,0,0,0,0,0,.07.05.14.11.22.16,1.3.85,2.79,1.25,4.24,1.82,1.66.66,3.25,1.46,4.94,2.06,1.7.6,3.49.95,5.21,1.51,3.08,1,5.95,2.35,9.23,2.78,2.37.31,5.09.49,7.39-.3,3.32.48,6.42-.47,9.58-1.31.48-.13.96-.29,1.43-.44,2.75.48,5.01-.39,7.53-1.41,2.26-.92,5-1.13,6.45-3.19,1.08-1.53.99-3.41.84-5.14-.24-2.75-2.18-4.39-4.94-5.31-2.26-.76-4.54-1.47-6.78-2.27-2.03-.73-3.82-1.77-5.79-2.6-2.33-.97-4.84-1.36-7.35-1.76-.67-.1-1.34-.21-2.01-.3,1.18-.22,2.33-.52,3.5-.78.24.05.49.07.74.07,1.28,0,2.51-.02,3.78-.2.41-.06.82-.16,1.22-.28.09.03.16.07.25.09,1.51.37,3.29.24,4.75-.22,1.46-.46,2.62-1.31,3.99-1.92.03-.01.03-.02.05-.03.02,0,.03,0,.06-.02.16-.06.33-.12.49-.17.33-.12.66-.23.98-.35.89-.32,1.79-.65,2.64-1.04,1.47-.68,2.7-1.56,3.52-2.87.82-1.32,1.24-2.75.75-4.16-.03-1.06-.3-2.1-.85-2.89-1.12-1.64-3-2.34-4.84-3.09-.26-.21-.51-.43-.78-.63-.75-.56-1.63-.88-2.51-.91-.13-.08-.28-.14-.41-.22-.89-.57-1.79-1.41-2.86-1.93-2.15-1.04-4.53-1.47-6.91-1.9-1.1-.2-2.22-.39-3.34-.56.52-.52.78-1.09.85-1.66,3.73-.15,7.53-.63,11.15-1.38,3.58-.74,7.27-2.22,9.32-5.11,2.45-3.45.64-7.28-2.88-9.38-.17-.1-.36-.18-.54-.27-.48-1.07-1.53-1.92-3.19-1.95-2.79-.05-5.71-.76-8.4-1.09-2.83-.34-5.72-1.04-8.67-1.11-2.77-.06-5.76-.33-8.53.03-.68-.34-1.48-.5-2.38-.39Z"/>
  <path class="cls-1" d="M23.99,47.32c6.7-5.41,7.48-14.42,1.76-20.14"/>
  <g>
    <path class="cls-1" d="M101.39,2.43c26.76.03,35.27,4.83,34.85,11.74"/>
    <path class="cls-1" d="M103.97,24.53c17.83.02,32.26-4.61,32.27-10.35"/>
  </g>
  <g>
    <path class="cls-1" d="M103.99,24.51c17.82.02,32.23,6.25,32.22,13.92"/>
    <path class="cls-1" d="M103.95,49.81c17.82.02,32.25-5.06,32.26-11.38"/>
  </g>
  <g>
    <path class="cls-1" d="M103.95,49.81c17.83.02,32.24,5.89,32.23,13.1"/>
    <path class="cls-1" d="M102.19,72.92c18.47,1.84,33.98-4.06,33.99-10"/>
  </g>
  <line class="cls-1" x1="13.95" y1="44.03" x2="102.19" y2="72.92"/>
  <line class="cls-1" x1="14.79" y1="30.66" x2="102.28" y2="2.14"/>
  <g>
    <path class="cls-4" d="M194.36,43.69c-.14.17-.31.31-.51.42s-.36.16-.5.16c-.41,0-.68-.19-.81-.57-.13-.38-.2-.93-.2-1.64,0-.23.01-1.19.04-2.89.02-.93.03-1.55.03-1.88,0-.77,0-1.81-.03-3.12v-2.38c-.01-1.67.06-2.9.22-3.7.15-.79.45-1.19.9-1.19.15,0,.3.09.46.28.16.18.29.42.4.69.11.28.16.54.16.79v2.82c-.02.63-.03,1.56-.03,2.79h7.58c-.04-2.86-.06-4.64-.06-5.35.02-.68.09-1.2.22-1.55.12-.35.38-.53.75-.53.45,0,.75.22.91.67.16.44.24,1.15.24,2.11,0,.17,0,.32-.01.45,0,.22,0,.69-.01,1.42,0,.73-.01,1.7-.01,2.9.07.13.13.3.19.5s.09.4.1.61l-.19.93c.08,2.26.12,4.38.12,6.37,0,.42-.1.78-.31,1.07-.2.29-.47.43-.8.43-.42,0-.71-.15-.89-.45s-.26-.85-.25-1.64l.09-5.17h-3.02c-1.32,0-2.29,0-2.92.03-.63.02-1.19.05-1.7.1.05,3.66.07,5.48.07,5.44v.55c0,.19-.07.37-.22.55Z"/>
    <path class="cls-4" d="M210.09,34.14c.43,1.39.82,2.6,1.19,3.62s.83,2.14,1.38,3.34c.17-.17.52-.78,1.06-1.82.54-1.04,1.45-2.98,2.74-5.8.64-1.2,1.12-2.05,1.44-2.54.33-.5.6-.74.82-.74.26,0,.46.15.61.45.15.3.22.66.22,1.1,0,.19-.04.4-.13.64-.09.24-.27.62-.54,1.15s-.62,1.17-1.04,1.93l-.55,1.01c-2.37,5.37-4.06,8.06-5.06,8.06-.57,0-1.22-.96-1.97-2.87-.75-1.92-1.58-4.49-2.52-7.72-.32-.69-.48-1.3-.48-1.84,0-.42.05-.77.15-1.05.1-.27.31-.41.63-.41.41,0,.7.11.88.33.18.22.35.61.52,1.17l.64,2Z"/>
    <path class="cls-4" d="M224.23,43.4c-.92-.7-1.66-1.58-2.21-2.65-.55-1.07-.83-2.13-.83-3.17,0-1.64.3-3,.9-4.06s1.38-1.84,2.34-2.33c.96-.49,1.99-.73,3.1-.73,1.18,0,2.2.29,3.05.87.85.58,1.51,1.41,1.96,2.48.45,1.07.68,2.33.68,3.77,0,1.31-.29,2.49-.86,3.54-.57,1.05-1.32,1.86-2.25,2.45s-1.91.88-2.94.88-2.03-.35-2.95-1.05ZM230.83,35.22c-.29-.65-.7-1.16-1.21-1.52-.52-.36-1.09-.55-1.73-.55-.78,0-1.54.16-2.28.47-.73.32-1.33.79-1.8,1.41s-.7,1.37-.7,2.25c0,.74.19,1.46.57,2.16.38.7.87,1.27,1.47,1.71.61.44,1.23.66,1.88.66.73,0,1.43-.17,2.08-.52s1.17-.85,1.57-1.51c.4-.66.6-1.43.6-2.33,0-.84-.15-1.59-.44-2.24Z"/>
    <path class="cls-4" d="M239.53,34.23c-.65.79-.98,2.01-.98,3.65v.5l.15,4.36c0,.16-.04.36-.11.59-.07.23-.19.43-.36.61-.16.17-.37.26-.63.26-.48,0-.8-.14-.98-.41s-.27-.72-.27-1.35c0-.42,0-.85.03-1.3,0-.15.01-.35.01-.59v-1.33c0-.53.03-1.26.08-2.18s.18-2.54.37-4.86c.03-.47.14-.84.33-1.12s.47-.41.83-.41c.2,0,.38.12.56.38.17.25.26.65.26,1.2,0,.84-.01,1.35-.04,1.54.2-.6.58-1.17,1.15-1.69.57-.52,1.19-.94,1.87-1.25.67-.31,1.26-.47,1.76-.47.81,0,1.53.15,2.16.45.62.3.94.9.94,1.8,0,.28-.07.54-.19.78s-.29.42-.5.55c-.2.13-.41.2-.63.2-.19,0-.33-.03-.42-.1-.09-.07-.17-.17-.25-.31-.12-.22-.28-.38-.48-.5-.2-.12-.56-.18-1.07-.18h-.34c-1.51,0-2.59.4-3.24,1.19Z"/>
    <path class="cls-4" d="M256.59,23.17c.51.2.96.46,1.36.8.39.34.59.71.59,1.11,0,.32-.04.63-.12.93-.08.3-.23.45-.46.45-.2,0-.39-.04-.57-.11-.18-.07-.39-.17-.63-.3-.3-.16-.54-.28-.74-.35-.19-.08-.41-.11-.65-.11-1.03,0-1.78.56-2.24,1.69-.46,1.12-.74,2.46-.83,4.02h3.51c.09,0,.23-.03.41-.05.18-.02.33-.04.45-.04.26,0,.47.1.65.29.17.19.26.54.26,1.03,0,.62-.14,1.02-.41,1.2s-.6.27-.98.27c-1.75-.09-2.95-.14-3.62-.14h-.34c0,.55-.04,1.44-.07,2.66-.06,1.37-.09,2.47-.1,3.3,0,.1.04.36.1.78,0,.08.05.37.13.88.07.51.11,1.05.11,1.61,0,.79-.27,1.19-.82,1.19-.49,0-.85-.08-1.08-.23-.23-.16-.39-.46-.48-.9-.08-.44-.13-1.14-.13-2.1,0-.55,0-1.17.03-1.88.02-.7.03-1.21.04-1.51.05-.98.08-1.99.09-3.03,0-.15,0-.39.03-.71-.79.05-1.49.07-2.1.07-.26,0-.48-.15-.68-.44-.19-.29-.29-.61-.29-.95s.1-.65.31-.95c.21-.3.44-.45.69-.45l2.14.08h.13c.29-2.41.84-4.41,1.65-6.01.81-1.6,1.95-2.4,3.41-2.4.3,0,.7.1,1.21.3Z"/>
    <path class="cls-4" d="M262.09,43.4c-.92-.7-1.66-1.58-2.21-2.65-.55-1.07-.83-2.13-.83-3.17,0-1.64.3-3,.9-4.06s1.38-1.84,2.34-2.33c.96-.49,1.99-.73,3.1-.73,1.18,0,2.2.29,3.05.87.85.58,1.51,1.41,1.96,2.48.45,1.07.68,2.33.68,3.77,0,1.31-.29,2.49-.86,3.54-.57,1.05-1.32,1.86-2.25,2.45s-1.91.88-2.94.88-2.03-.35-2.95-1.05ZM268.7,35.22c-.29-.65-.7-1.16-1.21-1.52-.52-.36-1.09-.55-1.73-.55-.78,0-1.54.16-2.28.47-.73.32-1.33.79-1.8,1.41s-.7,1.37-.7,2.25c0,.74.19,1.46.57,2.16.38.7.87,1.27,1.47,1.71.61.44,1.23.66,1.88.66.73,0,1.43-.17,2.08-.52s1.17-.85,1.57-1.51c.4-.66.6-1.43.6-2.33,0-.84-.15-1.59-.44-2.24Z"/>
    <path class="cls-4" d="M277.39,34.23c-.65.79-.98,2.01-.98,3.65v.5l.15,4.36c0,.16-.04.36-.11.59-.07.23-.19.43-.36.61-.16.17-.37.26-.63.26-.48,0-.8-.14-.98-.41s-.27-.72-.27-1.35c0-.42,0-.85.03-1.3,0-.15.01-.35.01-.59v-1.33c0-.53.03-1.26.08-2.18s.18-2.54.37-4.86c.03-.47.14-.84.33-1.12s.47-.41.83-.41c.2,0,.38.12.56.38.17.25.26.65.26,1.2,0,.84-.01,1.35-.04,1.54.2-.6.58-1.17,1.15-1.69.57-.52,1.19-.94,1.87-1.25.67-.31,1.26-.47,1.76-.47.81,0,1.53.15,2.16.45.62.3.94.9.94,1.8,0,.28-.07.54-.19.78s-.29.42-.5.55c-.2.13-.41.2-.63.2-.19,0-.33-.03-.42-.1-.09-.07-.17-.17-.25-.31-.12-.22-.28-.38-.48-.5-.2-.12-.56-.18-1.07-.18h-.34c-1.51,0-2.59.4-3.24,1.19Z"/>
    <path class="cls-4" d="M294.07,34.14c.43,1.39.82,2.6,1.19,3.62s.83,2.14,1.38,3.34c.17-.17.52-.78,1.06-1.82.54-1.04,1.45-2.98,2.74-5.8.64-1.2,1.12-2.05,1.44-2.54.33-.5.6-.74.82-.74.26,0,.46.15.61.45.15.3.22.66.22,1.1,0,.19-.04.4-.13.64-.09.24-.27.62-.54,1.15-.27.53-.62,1.17-1.04,1.93l-.55,1.01c-2.37,5.37-4.06,8.06-5.06,8.06-.57,0-1.22-.96-1.97-2.87-.75-1.92-1.58-4.49-2.52-7.72-.32-.69-.48-1.3-.48-1.84,0-.42.05-.77.15-1.05.1-.27.31-.41.63-.41.41,0,.7.11.88.33.18.22.35.61.52,1.17l.64,2Z"/>
    <path class="cls-4" d="M326.68,40.78c.17.2.25.54.25,1.01,0,.88-.67,1.46-2.02,1.76-1.35.29-2.66.44-3.94.44-.95,0-1.85-.25-2.7-.75s-1.53-1.18-2.05-2.02c-.58.91-1.37,1.67-2.38,2.28s-2.3.92-3.86.92c-.97,0-1.82-.19-2.55-.58s-1.28-.91-1.66-1.58c-.38-.67-.57-1.4-.57-2.22,0-1.57.43-2.75,1.29-3.55.86-.8,2.27-1.2,4.23-1.2s3.3.41,4.26,1.22c-.04-1-.29-1.75-.75-2.25-.46-.5-.99-.82-1.59-.96s-1.29-.21-2.05-.21c-.48,0-.92.04-1.32.11-.4.07-.73.17-.98.29l-.43.18c-.07.03-.21.09-.42.19-.21.1-.39.15-.51.15-.45,0-.75-.1-.92-.3-.17-.2-.25-.58-.25-1.14s.31-.96.93-1.27c.62-.31,1.34-.52,2.17-.64.82-.12,1.6-.18,2.34-.18,1.14,0,2.14.25,2.99.76.85.51,1.5,1.24,1.94,2.2.53-1.09,1.28-1.92,2.26-2.5.98-.58,2.16-.87,3.55-.87.76,0,1.53.18,2.29.54.76.36,1.39.89,1.88,1.57.49.68.74,1.48.74,2.39,0,.49-.07.84-.2,1.06s-.37.36-.71.44c-.07.03-.28.09-.63.2-2.08.64-4.78,1.53-8.12,2.66.33.97.96,1.63,1.88,1.98.93.34,1.91.52,2.96.52.37,0,.73-.05,1.09-.14s.81-.24,1.33-.42c.35-.12.62-.21.83-.28.21-.06.39-.09.55-.09.39,0,.67.1.83.3ZM312.35,41.52c.61-.23,1.13-.51,1.56-.85s.77-.68,1.01-1.03c-.09-.61-.55-1.06-1.39-1.34-.84-.28-1.77-.42-2.81-.42-1.16,0-2.07.17-2.72.5s-.99.84-1,1.54c0,.33.13.64.39.94.26.3.65.54,1.15.72.51.18,1.12.28,1.83.28s1.36-.11,1.97-.34ZM317.06,36.89c.85-.41,1.75-.79,2.7-1.16s2.21-.84,3.79-1.42c.31-.1.72-.25,1.24-.44-.19-.36-.49-.67-.9-.93s-.9-.4-1.45-.4c-.22,0-.51.03-.86.08-2.42.56-3.93,1.98-4.51,4.26Z"/>
    <path class="cls-4" d="M335.6,41.29c.14.26.22.58.22.93s-.12.7-.35,1.01-.52.54-.86.71c-.34.17-.64.25-.91.25-.97,0-1.68-.3-2.13-.89-.45-.59-.67-1.47-.66-2.62l.19-15.53c0-.62.09-1.13.27-1.51.18-.38.46-.57.83-.57.25,0,.45.14.62.42.16.28.25.58.25.9l-.19,13.61v.48c0,.89.07,1.62.2,2.21.13.59.35.88.65.88.13,0,.24-.03.33-.08.09-.06.19-.14.31-.25s.22-.2.31-.25c.08-.05.19-.08.31-.08.27,0,.47.13.62.4Z"/>
    <path class="cls-4" d="M345.77,47.53c.25-.41.42-.9.51-1.48.09-.58.17-1.34.24-2.29.04-.66.08-1.15.12-1.46-.11.42-.38.8-.8,1.13s-.91.58-1.47.76c-.56.17-1.07.26-1.55.26-1.79,0-3.14-.52-4.07-1.56-.93-1.04-1.39-2.59-1.39-4.65,0-1.34.21-2.6.63-3.77s1.05-2.11,1.9-2.83,1.89-1.08,3.13-1.08c.97,0,1.92.31,2.84.93.92.62,1.67,1.38,2.24,2.29.57.91.86,1.78.86,2.6l-.28,6.7v.2c-.06.25-.14.84-.25,1.74-.16,1.27-.34,2.31-.54,3.09-.2.79-.56,1.46-1.09,2.02s-1.29.84-2.27.84c-.39,0-.89-.06-1.5-.19-.62-.13-1.17-.34-1.66-.64-.49-.3-.74-.7-.74-1.2,0-.47.07-.83.2-1.08.13-.25.38-.37.74-.37.09,0,.17.01.25.04s.15.07.22.11c.25.15.56.27.92.37.37.09.95.14,1.76.14.47,0,.82-.21,1.07-.62ZM344.84,41.18c.52-.42.95-.95,1.3-1.56.35-.62.6-1.23.76-1.83-.11-.82-.28-1.55-.5-2.19s-.58-1.18-1.07-1.63-1.15-.67-1.99-.67c-1.36,0-2.35.44-2.96,1.33-.62.89-.93,2.03-.95,3.43,0,1.39.32,2.36.97,2.92.65.56,1.56.84,2.75.84.62,0,1.18-.21,1.7-.64Z"/>
    <path class="cls-4" d="M363.21,41.21c.18.22.28.56.28,1.02,0,.89-.67,1.47-2.02,1.76-1.35.28-2.67.42-3.98.42-.98,0-1.93-.27-2.84-.81-.91-.54-1.65-1.28-2.22-2.22-.57-.93-.85-1.96-.85-3.07,0-1.6.27-3.01.82-4.23s1.34-2.18,2.39-2.87c1.05-.68,2.29-1.03,3.73-1.03.76,0,1.52.18,2.27.54.75.36,1.37.88,1.85,1.57s.73,1.5.73,2.44c0,.48-.07.88-.22,1.21-.15.33-.35.53-.61.62l-9.01,3.06c.31.93.93,1.54,1.88,1.83s1.99.42,3.14.42c.38,0,.75-.05,1.13-.16.38-.1.82-.25,1.34-.44.33-.12.6-.22.81-.28.21-.07.4-.1.56-.1.37,0,.64.11.83.33ZM355.92,36.62c.95-.36,2.17-.83,3.66-1.42,1-.4,1.69-.66,2.05-.79-.27-.55-.72-.95-1.35-1.2-.64-.25-1.37-.38-2.2-.38-.47,0-1.04.17-1.73.5-.68.33-1.32.85-1.89,1.55-.58.7-.94,1.56-1.09,2.58.75-.2,1.59-.48,2.55-.84Z"/>
    <path class="cls-4" d="M372.74,33.12c.3-.64.72-1.16,1.26-1.56.54-.4,1.12-.69,1.73-.86.61-.17,1.19-.26,1.74-.26,1.46,0,2.71.25,3.75.75,1.04.5,1.83,1.18,2.38,2.05s.81,1.85.81,2.93c0,1.62-.28,3.05-.85,4.27-.57,1.22-1.37,2.17-2.42,2.83-1.05.67-2.27,1-3.67,1-.49,0-.92-.03-1.31-.08-.39-.05-.9-.14-1.53-.26v1.16c0,.69.05,1.55.15,2.59.1,1.02.15,1.85.15,2.51,0,.36-.13.64-.39.86-.26.21-.53.32-.82.32-.41,0-.7-.1-.87-.31s-.28-.5-.32-.87c-.04-.37-.06-.96-.06-1.76,0-1.4.09-6.49.28-15.29ZM374.59,39.64c.04.86.06,1.45.08,1.75,0,.08.21.13.65.16.44.03.86.04,1.24.04,1.04,0,2-.18,2.87-.55.87-.36,1.57-.92,2.09-1.67.53-.75.79-1.68.79-2.78s-.43-2.01-1.3-2.61-2.06-.89-3.59-.89c-.34,0-.72.05-1.16.16-.44.1-.81.25-1.13.45-.32.19-.48.42-.48.67l-.09,3.58c-.02.26-.01.83.02,1.69Z"/>
    <path class="cls-4" d="M390.88,34.23c-.65.79-.98,2.01-.98,3.65v.5l.15,4.36c0,.16-.04.36-.11.59-.07.23-.19.43-.36.61-.16.17-.38.26-.63.26-.48,0-.8-.14-.98-.41s-.27-.72-.27-1.35c0-.42,0-.85.03-1.3,0-.15.01-.35.01-.59v-1.33c0-.53.03-1.26.08-2.18s.18-2.54.37-4.86c.03-.47.14-.84.33-1.12.19-.27.47-.41.83-.41.2,0,.38.12.56.38.17.25.26.65.26,1.2,0,.84-.02,1.35-.04,1.54.2-.6.58-1.17,1.15-1.69.57-.52,1.19-.94,1.87-1.25s1.26-.47,1.76-.47c.81,0,1.53.15,2.16.45.62.3.94.9.94,1.8,0,.28-.06.54-.19.78s-.3.42-.5.55-.41.2-.63.2c-.19,0-.33-.03-.42-.1-.09-.07-.17-.17-.25-.31-.12-.22-.28-.38-.48-.5-.2-.12-.56-.18-1.06-.18h-.34c-1.51,0-2.59.4-3.24,1.19Z"/>
    <path class="cls-4" d="M401.91,44.04c-.21.27-.44.41-.7.41-.37,0-.66-.11-.87-.33-.21-.22-.38-.59-.48-1.11-.08-.45-.12-1.42-.12-2.9,0-2.45.1-4.68.31-6.68.2-2,.67-2.99,1.39-2.99.3,0,.49.12.59.38.09.25.14.61.14,1.08l-.12,1.98c-.05.67-.09,1.37-.13,2.11-.04.74-.06,1.39-.06,1.97,0,.61.06,1.47.19,2.58.12,1.15.18,1.95.18,2.39,0,.47-.1.84-.31,1.12ZM401.67,27.5c-.41,0-.79-.11-1.14-.34s-.53-.62-.53-1.19c0-.28.08-.57.25-.86.16-.29.37-.53.61-.72.24-.19.47-.28.69-.28.41,0,.76.12,1.06.37s.45.67.45,1.26c0,1.18-.46,1.77-1.38,1.77Z"/>
    <path class="cls-4" d="M407.34,34.14c.43,1.39.82,2.6,1.19,3.62s.83,2.14,1.38,3.34c.17-.17.52-.78,1.06-1.82.54-1.04,1.45-2.98,2.74-5.8.64-1.2,1.12-2.05,1.45-2.54.33-.5.6-.74.82-.74.26,0,.46.15.61.45.15.3.22.66.22,1.1,0,.19-.04.4-.13.64-.09.24-.27.62-.54,1.15-.27.53-.62,1.17-1.03,1.93l-.55,1.01c-2.37,5.37-4.06,8.06-5.06,8.06-.57,0-1.22-.96-1.97-2.87-.74-1.92-1.58-4.49-2.52-7.72-.32-.69-.48-1.3-.48-1.84,0-.42.05-.77.15-1.05.1-.27.31-.41.62-.41.41,0,.7.11.88.33.18.22.35.61.52,1.17l.64,2Z"/>
    <path class="cls-4" d="M432.71,41.32c.13.19.2.49.2.91,0,.32-.09.64-.28.96-.19.32-.45.59-.77.79-.33.21-.69.31-1.09.31s-.78-.13-1.17-.4c-.39-.27-.71-.62-.96-1.06-.25-.44-.37-.89-.37-1.35-.75.9-1.52,1.62-2.32,2.16-.8.54-1.65.81-2.55.81-.82,0-1.66-.25-2.51-.76s-1.55-1.2-2.09-2.06c-.55-.86-.82-1.8-.82-2.8,0-1.35.32-2.67.97-3.96s1.51-2.35,2.6-3.16,2.26-1.22,3.52-1.22c.95,0,1.84.27,2.66.82.82.55,1.47,1.25,1.95,2.12.48.86.72,1.74.72,2.63,0,.38-.03.76-.09,1.13s-.09.61-.1.71c-.08.44-.14.84-.18,1.18s-.06.71-.06,1.1c0,.56.09.96.26,1.2.17.24.43.36.78.36.09,0,.18-.03.28-.1.09-.07.21-.16.33-.28.02-.02.08-.07.17-.15.09-.08.18-.13.26-.16.31,0,.53.09.66.28ZM426.57,40.81c.63-.61,1.07-1.31,1.3-2.1.23-.79.45-1.81.65-3.08,0-.29-.18-.63-.55-1.01s-.81-.7-1.32-.98c-.51-.27-.97-.41-1.38-.41-1.02,0-1.94.27-2.74.81-.8.54-1.43,1.24-1.87,2.09-.44.85-.66,1.71-.66,2.59,0,.58.19,1.09.57,1.55.38.46.87.81,1.47,1.07s1.21.38,1.84.38c1.16,0,2.06-.31,2.7-.92Z"/>
    <path class="cls-4" d="M435.35,33.44c-.36.02-.66.03-.91.03-.14,0-.31-.06-.51-.17s-.38-.27-.53-.48c-.15-.21-.22-.44-.22-.71s.06-.51.19-.74c.12-.23.28-.42.48-.55.19-.14.39-.21.6-.21.32,0,.9.03,1.76.08.03-1.17.14-2.28.33-3.34.19-1.06.57-1.59,1.12-1.59.13,0,.26.06.4.18.14.12.25.28.35.48.09.2.14.42.14.66,0,1-.06,1.91-.18,2.72l-.04.35-.13.58c.36,0,.78,0,1.27-.01s.86-.02,1.12-.03c.79-.03,1.59-.04,2.38-.04.29,0,.5.16.63.49.13.33.19.67.19,1.04,0,.4-.11.71-.32.94-.21.23-.44.35-.69.35l-4.59-.06-.02,1.3c-.03.79-.04,1.65-.04,2.58,0,1.31.12,2.35.35,3.1s.68,1.13,1.35,1.13c.57,0,1.27-.29,2.1-.86.18-.1.27-.16.28-.16.25,0,.42.07.51.2.09.13.13.36.13.69,0,.4-.17.82-.51,1.27-.34.45-.74.83-1.21,1.14s-.87.47-1.22.47c-1.12,0-1.95-.38-2.49-1.13-.54-.75-.88-1.65-1.01-2.7-.13-1.05-.21-2.41-.23-4.08,0-1.31-.04-2.3-.12-2.96-.15,0-.38,0-.7.03Z"/>
    <path class="cls-4" d="M448.78,38.59l-.06-.75c-.18-1.57.37-3.28,1.89-5.02,1.37-1.54,2.14-2.67,2.14-3.97,0-1.48-.98-2.47-2.9-2.49-1.1,0-2.32.35-3.08.9l-.73-1.83c1.01-.7,2.75-1.16,4.36-1.16,3.51,0,5.09,2.06,5.09,4.26,0,1.97-1.16,3.39-2.62,5.05-1.34,1.51-1.83,2.78-1.74,4.26l.03.75h-2.38ZM448.11,42.65c0-1.07.76-1.83,1.83-1.83s1.8.75,1.8,1.83c0,1.02-.7,1.8-1.83,1.8-1.07,0-1.8-.78-1.8-1.8Z"/>
  </g>
</svg>