<?xml version="1.0" encoding="UTF-8"?>
<svg id="Layer_1" xmlns="http://www.w3.org/2000/svg" viewBox="0 0 507.97 75.6">
  <defs>
    <style>
      .cls-1 {
        fill: none;
        stroke: #231f20;
      }

      .cls-1, .cls-2 {
        stroke-miterlimit: 10;
        stroke-width: 2px;
      }

      .cls-2 {
        fill: #263779;
        stroke: #010101;
      }

      .cls-3 {
        fill: #eaa294;
      }

      .cls-4 {
        fill: #ededed;
      }

      .cls-5 {
        fill: #c18678;
      }
    </style>
  </defs>
  <path class="cls-2" d="M505.48,1.88l-.08,72.12-397.37-.38c-2.45,0-4.88-.39-7.18-1.14L4.05,40.78c-3.44-1.13-3.44-5.49,0-6.62L101.56,2.43c1.88-.61,3.87-.93,5.87-.92l398.04.38Z"/>
  <path class="cls-5" d="M62.37,23.25c-1.42.77-2.22,1.97-2.72,3.3-.23.16-.45.34-.67.52-1.42-.09-2.87.18-4.07.84-.46.25-.86.55-1.23.87-.91-.03-1.84.06-2.75.32-4.87,1.33-5.93,5.96-5.05,9.93.79,3.6,3.34,7.39,6.99,9.19.74.37,1.56.67,2.41.87,1.49,1.87,3.83,3.1,6.84,2.99,2.91-.1,5.75-1.48,7.81-3.49.52.11,1.05.19,1.62.21,5.66.15,7.89-5,7.15-9.37.13-2.1-.82-4.25-2.37-5.79-.17-.17-.35-.31-.54-.46.65-.98.78-2.25.04-3.26-.31-.43-.66-.83-1.02-1.21,0,0,0,0,0,0-.34-.43-.68-.86-1.03-1.28-.82-.99-1.66-1.99-2.68-2.82-2.38-1.92-5.77-2.95-8.72-1.35Z"/>
  <path class="cls-3" d="M99.8,3.01c-1.01.12-1.79.55-2.52,1.16-.05.04-.35.3-.57.51-.27.04-.55.16-.81.21-.33.07-.67.12-1.01.17-.11.01-.4.05-.5.06-1.52.16-3.08.28-4.53.73-1.65.52-2.79,1.4-4.16,2.31.39-.26-.57.32-.54.3-.29.16-.58.3-.88.44-.45.22-.91.42-1.37.62-.32,0-.65,0-.99.05-1.34.2-2.56.79-3.7,1.43-.53-.11-1.09-.11-1.64.08-.75.25-1.49.53-2.22.81-.27.1-.55.21-.82.31-.12.05-.97.44-.24.09-.51.25-1.12.4-1.66.56-.28.08-.56.14-.84.22-.02,0-.03,0-.05.02-1.8.03-3.19.77-4.4,1.91-.01.01-.02.02-.03.03-.78.22-1.54.46-2.29.76-.28.11-.54.25-.8.39-1.86.15-3.75.17-5.51.77-.96.33-1.91.74-2.8,1.22-.08-.02-.14-.05-.22-.06-1.43-.23-2.64-.05-3.91.61-.74.38-1.47.77-2.23,1.11-.2.09-.4.17-.6.26-.03.01-.24.09-.36.14-.13.04-.31.1-.34.11-.22.07-.44.14-.67.21-.93.29-1.86.55-2.8.81-2.04.55-3.98,1.3-5.93,2.06-.44.17-.88.34-1.31.51-.27.1-.54.21-.81.32-.03.01-.25.09-.37.14-.12.04-.36.13-.39.14-.21.07-.41.13-.62.2-.58.18-1.18.38-1.72.65-.07.04-.14.09-.21.13-1.07-.48-2.37-.52-3.42.08-1.63.94-2.35,2.89-1.31,4.45.54.81.94,1.55,1.66,2.27.1.1.2.19.3.29.01.02.02.03.04.05.04.08.07.13.1.17.05.13.1.26.14.4.04.13.15.9.16.8.02.33.04.66.04.99,0,.39-.02.79-.05,1.18-.01.19-.03.38-.05.57,0,.06-.01.1-.02.14,0,.05-.03.13-.05.28-.04.21-.09.42-.15.62-.1.42-.22.83-.34,1.25-.22.84-.36,1.69-.55,2.53-.09.42-.23.83-.35,1.25-.01.03-.02.04-.03.06-.06.1-.11.2-.17.29-.03.04-.06.08-.09.12-1.84.31-3.03,2.45-2.48,3.98.66,1.82,2.44,2.57,4.45,2.27.46-.07.89-.21,1.3-.38.22.21.47.4.78.54,2.05.96,4.2,1.32,6.42,1.81.48.1.95.25,1.43.36,0,0,.01.01.02.02.14.11.36.22.52.3.02,0,.02,0,.03.02.15.11.31.22.46.33.52.37,1.04.76,1.6,1.08,1.79,1.02,4.01,1.06,5.96,1.73,1.22.42,2.49.78,3.77,1.09.65.78,1.65,1.3,2.85,1.31,1.04.01,1.45.07,2.47.23.81.12,1.62.22,2.43.32.25.26.55.5.92.65.61.25,1.1.63,1.65.96.74.45,1.6.76,2.44,1.04,1.4.47,2.88.69,4.29,1.1,3.03.86,5.92,2.08,8.95,2.94,0,0,0,0,0,0,.07.05.14.11.22.16,1.3.85,2.8,1.25,4.25,1.82,1.67.66,3.25,1.46,4.95,2.06,1.71.6,3.5.95,5.22,1.51,3.09,1,5.96,2.35,9.25,2.78,2.37.31,5.1.49,7.41-.3,3.33.48,6.43-.47,9.6-1.31.48-.13.96-.29,1.44-.44,2.76.48,5.02-.39,7.55-1.41,2.27-.92,5.01-1.13,6.46-3.19,1.08-1.53,1-3.41.84-5.14-.24-2.75-2.18-4.39-4.95-5.31-2.27-.76-4.54-1.47-6.79-2.27-2.03-.73-3.83-1.77-5.8-2.6-2.33-.97-4.85-1.36-7.37-1.76-.67-.1-1.34-.21-2.01-.3,1.18-.22,2.33-.52,3.51-.78.24.05.49.07.74.07,1.28,0,2.52-.02,3.79-.2.41-.06.82-.16,1.22-.28.09.03.16.07.25.09,1.51.37,3.29.24,4.76-.22,1.46-.46,2.63-1.31,3.99-1.92.03-.01.03-.02.05-.03.02,0,.03,0,.06-.02.16-.06.33-.12.49-.17.33-.12.66-.23.99-.35.89-.32,1.79-.65,2.65-1.04,1.47-.68,2.71-1.56,3.52-2.87.82-1.32,1.24-2.75.76-4.16-.04-1.06-.3-2.1-.85-2.89-1.12-1.64-3-2.34-4.85-3.09-.26-.21-.51-.43-.78-.63-.76-.56-1.63-.88-2.51-.91-.13-.08-.28-.14-.41-.22-.89-.57-1.8-1.41-2.87-1.93-2.16-1.04-4.54-1.47-6.92-1.9-1.1-.2-2.22-.39-3.35-.56.52-.52.78-1.09.85-1.66,3.74-.15,7.54-.63,11.17-1.38,3.59-.74,7.28-2.22,9.34-5.11,2.46-3.45.64-7.28-2.89-9.38-.17-.1-.36-.18-.54-.27-.48-1.07-1.53-1.92-3.19-1.95-2.79-.05-5.72-.76-8.41-1.09-2.84-.34-5.73-1.04-8.69-1.11-2.77-.06-5.77-.33-8.54.03-.68-.34-1.48-.5-2.38-.39Z"/>
  <path class="cls-1" d="M24.03,47.32c6.71-5.41,7.5-14.42,1.76-20.14"/>
  <g>
    <path class="cls-1" d="M101.56,2.43c26.8.03,35.33,4.83,34.91,11.74"/>
    <path class="cls-1" d="M104.15,24.53c17.86.02,32.31-4.61,32.32-10.35"/>
  </g>
  <g>
    <path class="cls-1" d="M104.17,24.51c17.85.02,32.29,6.25,32.28,13.92"/>
    <path class="cls-1" d="M104.12,49.81c17.85.02,32.31-5.06,32.32-11.38"/>
  </g>
  <g>
    <path class="cls-1" d="M104.13,49.81c17.86.02,32.3,5.89,32.28,13.1"/>
    <path class="cls-1" d="M102.37,72.92c18.5,1.84,34.04-4.06,34.05-10"/>
  </g>
  <line class="cls-1" x1="13.97" y1="44.03" x2="102.37" y2="72.92"/>
  <line class="cls-1" x1="14.81" y1="30.66" x2="102.45" y2="2.14"/>
  <g>
    <path class="cls-4" d="M155.81,36.67c0-1.12.03-2.06.09-2.81.06-.75.19-1.37.4-1.85.21-.48.52-.73.92-.75.11,0,.25.11.42.33.03.03.09.08.17.17s.16.13.23.13c.26-.25.6-.49,1.04-.74.44-.25.91-.44,1.42-.59s1-.22,1.47-.2c1.82,0,3.1.38,3.84,1.15.75.77,1.12,1.91,1.12,3.42s-.36,2.89-1.07,3.94-1.72,1.83-3.02,2.34c-1.29.51-2.82.76-4.58.76-.15,0-.32-.03-.52-.08,0,.09,0,.27-.02.52-.03.43-.04.93-.04,1.47s.05,1.4.13,2.55c0,.42-.11.69-.32.83-.21.14-.43.21-.66.21-.36,0-.63-.04-.83-.11s-.35-.33-.47-.77c-.12-.44-.13-1.15-.03-2.13l.3-2.97c-.06-.1-.12-.25-.17-.45s-.08-.35-.08-.47c0-.26.04-.62.12-1.08.09-.44.13-.84.13-1.2v-1.6ZM162.09,38.68c.9-.26,1.63-.65,2.18-1.17.55-.51.83-1.13.83-1.83,0-.83-.31-1.49-.92-1.99-.62-.5-1.54-.74-2.79-.74-.55,0-1.21.1-1.99.29-.78.19-1.26.39-1.44.6,0,.03-.02.27-.07.73-.04.46-.11,1.88-.19,4.25.3.08.55.15.77.19.21.04.46.06.74.06,1.01,0,1.97-.13,2.87-.4Z"/>
    <path class="cls-4" d="M180.77,44.4c.18.22.28.56.28,1.02,0,.89-.67,1.47-2.02,1.76-1.34.28-2.67.42-3.98.42-.98,0-1.93-.27-2.84-.81-.91-.54-1.65-1.28-2.22-2.22-.57-.93-.85-1.96-.85-3.07,0-1.6.27-3.01.82-4.23s1.34-2.18,2.39-2.87c1.05-.68,2.29-1.03,3.73-1.03.76,0,1.52.18,2.27.54.75.36,1.37.88,1.85,1.57s.73,1.5.73,2.44c0,.48-.07.88-.22,1.21-.15.33-.35.53-.61.62l-9.01,3.06c.31.93.93,1.54,1.88,1.83.94.28,1.99.42,3.14.42.38,0,.75-.05,1.13-.16.38-.1.82-.25,1.34-.44.33-.12.6-.22.81-.28.21-.07.4-.1.56-.1.37,0,.64.11.83.33ZM173.48,39.81c.95-.36,2.17-.83,3.66-1.42,1-.4,1.69-.66,2.06-.79-.27-.55-.72-.95-1.36-1.2-.64-.25-1.37-.38-2.2-.38-.47,0-1.04.17-1.73.5-.68.33-1.32.85-1.89,1.55-.58.7-.94,1.56-1.09,2.58.74-.2,1.59-.48,2.55-.84Z"/>
    <path class="cls-4" d="M187.35,37.42c-.65.79-.98,2.01-.98,3.65v.5l.15,4.36c0,.16-.04.36-.11.59-.07.23-.19.43-.36.61-.16.17-.37.26-.63.26-.48,0-.8-.14-.98-.41s-.27-.72-.27-1.35c0-.42,0-.85.03-1.3,0-.15.01-.35.01-.59v-1.33c0-.53.03-1.26.08-2.18s.18-2.54.37-4.86c.03-.47.14-.84.33-1.12s.47-.41.83-.41c.2,0,.38.12.56.38.17.25.26.65.26,1.2,0,.84-.01,1.35-.04,1.54.2-.6.58-1.17,1.15-1.69.57-.52,1.19-.94,1.87-1.25.67-.31,1.26-.47,1.76-.47.81,0,1.53.15,2.16.45.62.3.94.9.94,1.8,0,.28-.07.54-.19.78s-.29.42-.5.55c-.2.13-.41.2-.63.2-.19,0-.33-.03-.42-.1-.09-.07-.17-.17-.25-.31-.12-.22-.28-.38-.48-.5-.2-.12-.56-.18-1.07-.18h-.34c-1.51,0-2.59.4-3.24,1.19Z"/>
    <path class="cls-4" d="M197.77,47.21c-.8-.36-1.21-1.05-1.21-2.06,0-.16.05-.36.15-.6.1-.24.22-.45.37-.62.15-.17.3-.26.45-.26.05,0,.17.08.37.25.26.31.51.54.75.7.24.16.52.26.83.31.31.05.72.08,1.24.08s1.07-.06,1.67-.19c.6-.13,1.11-.28,1.53-.45s.63-.31.63-.41c0-.25-.13-.46-.39-.63-.26-.17-.58-.29-.95-.39-.38-.09-.93-.21-1.67-.35-1.16-.21-2.12-.43-2.87-.66-.75-.23-1.4-.6-1.95-1.12-.55-.51-.83-1.21-.83-2.09,0-1.09.31-2.04.94-2.85.62-.82,1.42-1.44,2.39-1.88.97-.44,1.94-.66,2.93-.66.64,0,1.22.12,1.73.37s.91.57,1.19.97c.28.4.42.83.42,1.3,0,.75-.06,1.35-.18,1.83s-.4.71-.85.71c-.22,0-.36-.1-.43-.3s-.1-.5-.1-.92c0-.44-.18-.75-.54-.92s-.89-.25-1.61-.25c-.5,0-1.05.12-1.65.35s-1.12.54-1.55.92-.64.77-.64,1.18.16.75.49,1.01c.33.26.73.46,1.22.59.49.14,1.16.29,2.01.45,1.05.2,1.9.4,2.55.59s1.19.51,1.65.93c.45.42.68.98.68,1.69,0,.9-.36,1.64-1.09,2.23-.72.59-1.57,1.02-2.54,1.3s-1.8.41-2.51.41c-.95,0-1.83-.18-2.64-.55Z"/>
    <path class="cls-4" d="M212.14,46.6c-.92-.7-1.66-1.58-2.21-2.65-.55-1.07-.83-2.13-.83-3.17,0-1.64.3-3,.9-4.06s1.38-1.84,2.34-2.33c.96-.49,1.99-.73,3.1-.73,1.18,0,2.2.29,3.05.87.85.58,1.51,1.41,1.96,2.48.45,1.07.68,2.33.68,3.77,0,1.31-.29,2.49-.86,3.54-.57,1.05-1.32,1.86-2.25,2.45s-1.91.88-2.94.88-2.03-.35-2.95-1.05ZM218.75,38.41c-.29-.65-.7-1.16-1.21-1.52-.52-.36-1.09-.55-1.73-.55-.78,0-1.54.16-2.28.47-.73.32-1.33.79-1.8,1.41s-.7,1.37-.7,2.25c0,.74.19,1.46.57,2.16.38.7.87,1.27,1.47,1.71.61.44,1.23.66,1.88.66.73,0,1.43-.17,2.08-.52s1.17-.85,1.57-1.51c.4-.66.6-1.43.6-2.33,0-.84-.15-1.59-.44-2.24Z"/>
    <path class="cls-4" d="M233.17,37.99c-.5-1.1-1.46-1.64-2.87-1.64-.42,0-.9.12-1.44.35s-1.06.56-1.57.97c-.51.41-.92.86-1.24,1.35,0,.32-.01.86-.03,1.61-.02.72-.03,1.21-.03,1.49,0,.29.02.58.06.86.04.28.1.62.18,1.03.06.3.11.62.16.94.04.33.07.63.07.91,0,.54-.06.94-.19,1.22s-.41.41-.83.41-.77-.11-1.03-.34-.38-.68-.36-1.37l.06-5.55c-.11-1.34-.16-2.26-.16-2.76v-.42c0-.83.08-1.59.25-2.28.17-.69.44-1.03.82-1.03.75,0,1.13.62,1.13,1.85,0,.2-.03.59-.09,1.18l-.04.37c.22-.74.62-1.37,1.19-1.9.58-.53,1.2-.93,1.86-1.2.67-.27,1.23-.4,1.7-.4,1.87,0,3.19.73,3.98,2.18s1.18,3.22,1.18,5.3c0,1.93-.09,3.51-.28,4.76s-.58,1.87-1.16,1.87c-.26,0-.47-.03-.62-.09-.16-.06-.29-.21-.39-.44-.1-.23-.15-.59-.15-1.07,0-.31.02-.62.07-.92s.12-.68.22-1.13c.11-.52.19-.93.24-1.23.05-.3.07-.62.07-.96,0-1.5-.25-2.8-.75-3.89Z"/>
    <path class="cls-4" d="M252.76,44.52c.13.19.2.49.2.91,0,.32-.09.64-.28.96s-.45.59-.77.79c-.33.21-.69.31-1.09.31s-.78-.13-1.17-.4c-.39-.27-.71-.62-.96-1.06-.25-.44-.37-.89-.37-1.35-.75.9-1.52,1.62-2.32,2.16-.8.54-1.65.81-2.55.81-.82,0-1.66-.25-2.51-.76s-1.55-1.2-2.09-2.06c-.55-.86-.82-1.8-.82-2.8,0-1.35.32-2.67.97-3.96s1.51-2.35,2.6-3.16,2.26-1.22,3.52-1.22c.95,0,1.84.27,2.66.82s1.47,1.25,1.95,2.12c.48.86.72,1.74.72,2.63,0,.38-.03.76-.09,1.13s-.09.61-.1.71c-.08.44-.14.84-.18,1.18-.04.34-.06.71-.06,1.1,0,.56.09.96.26,1.2.17.24.43.36.78.36.09,0,.18-.03.28-.1.09-.07.21-.16.34-.28.02-.02.08-.07.17-.15.09-.08.18-.13.26-.16.31,0,.53.09.66.28ZM246.61,44.01c.64-.61,1.07-1.31,1.3-2.1.23-.79.45-1.81.65-3.08,0-.29-.18-.63-.55-1.01-.37-.38-.81-.7-1.32-.98s-.97-.41-1.38-.41c-1.02,0-1.94.27-2.74.81-.8.54-1.43,1.24-1.87,2.09s-.66,1.71-.66,2.59c0,.58.19,1.09.57,1.55.38.46.87.81,1.47,1.07s1.21.38,1.84.38c1.16,0,2.06-.31,2.7-.92Z"/>
    <path class="cls-4" d="M259.62,44.49c.14.26.22.58.22.93s-.12.7-.35,1.01-.52.54-.86.71-.64.25-.91.25c-.97,0-1.68-.3-2.13-.89-.45-.59-.67-1.47-.65-2.62l.19-15.53c0-.62.09-1.13.27-1.51.18-.38.46-.57.83-.57.25,0,.45.14.62.42.16.28.25.58.25.9l-.19,13.61v.48c0,.89.07,1.62.2,2.21s.35.88.65.88c.13,0,.24-.03.33-.08.09-.06.19-.14.31-.25s.22-.2.31-.25c.08-.05.19-.08.3-.08.27,0,.47.13.62.4Z"/>
    <path class="cls-4" d="M273.01,44.4c.18.22.28.56.28,1.02,0,.89-.67,1.47-2.02,1.76s-2.67.42-3.98.42c-.98,0-1.93-.27-2.84-.81-.91-.54-1.65-1.28-2.22-2.22-.57-.93-.85-1.96-.85-3.07,0-1.6.27-3.01.82-4.23s1.34-2.18,2.39-2.87c1.05-.68,2.29-1.03,3.73-1.03.76,0,1.52.18,2.27.54.75.36,1.37.88,1.85,1.57s.73,1.5.73,2.44c0,.48-.07.88-.22,1.21-.15.33-.35.53-.61.62l-9.01,3.06c.31.93.93,1.54,1.88,1.83.94.28,1.99.42,3.14.42.38,0,.75-.05,1.13-.16.38-.1.82-.25,1.34-.44.33-.12.6-.22.81-.28s.4-.1.56-.1c.37,0,.64.11.83.33ZM265.72,39.81c.95-.36,2.17-.83,3.66-1.42,1-.4,1.69-.66,2.05-.79-.27-.55-.72-.95-1.36-1.2s-1.37-.38-2.2-.38c-.47,0-1.04.17-1.73.5-.68.33-1.32.85-1.89,1.55-.58.7-.94,1.56-1.09,2.58.74-.2,1.59-.48,2.55-.84Z"/>
    <path class="cls-4" d="M292.97,40.35c0-.53-.14-1.06-.42-1.59-.28-.53-.68-.97-1.21-1.32-.53-.34-1.14-.52-1.85-.52-.37,0-.78.09-1.25.28-.47.18-.9.44-1.3.77-.4.33-.68.7-.85,1.1l-.15,5.76.06.42.06.44c0,.47-.09.88-.28,1.22s-.42.51-.7.51c-.44,0-.79-.11-1.06-.33-.27-.22-.41-.62-.41-1.22l.04-.3c.08-.65.12-1.03.12-1.15l.06-4.23c0-.56-.1-1.12-.33-1.68-.23-.56-.55-1.02-.98-1.39-.42-.36-.9-.55-1.44-.55-.74,0-1.31.09-1.73.27s-.71.46-.89.85-.26.91-.26,1.57v.55c0,.52.03,1.28.09,2.28,0,.17,0,.4.03.68l.27,3.26c0,.27-.07.52-.21.74-.14.22-.3.39-.48.51s-.33.18-.44.18c-.44,0-.76-.14-.97-.41-.21-.27-.31-.78-.31-1.52v-.48c.02-.07.03-.17.03-.33v-2.28c-.02-.34-.03-.78-.03-1.33v-2.27c0-1.13.02-2.02.07-2.66.04-.64.14-1.14.29-1.49.15-.35.37-.52.67-.52.59,0,.88.5.88,1.5v.25c.14-.36.37-.7.68-1.01.32-.32.68-.57,1.09-.77s.83-.3,1.24-.3c.53,0,1.12.13,1.77.38s1.22.65,1.7,1.2c.48.54.71,1.22.71,2.03.14-.64.45-1.21.93-1.69.48-.49,1.04-.86,1.66-1.12.63-.26,1.2-.39,1.71-.39,1.74,0,3.08.59,4.04,1.78.96,1.18,1.44,3.02,1.44,5.5,0,1.69-.11,3.12-.34,4.3s-.58,1.77-1.04,1.77c-.25,0-.48-.09-.69-.28-.21-.18-.38-.41-.51-.69s-.19-.53-.19-.76c0-.32.03-.6.08-.84.05-.24.13-.51.23-.8.11-.31.19-.59.25-.84.05-.25.08-.54.08-.89l.02-2.19Z"/>
    <path class="cls-4" d="M298.4,42.92c-.27-.8-.41-1.51-.41-2.15,0-1.64.3-3,.9-4.06.6-1.06,1.38-1.83,2.32-2.32s1.97-.72,3.06-.72c1.16,0,2.19.29,3.1.88.23-.28.52-.56.88-.83.36-.27.67-.4.94-.4.58,0,.86.37.86,1.12,0,.24-.04.43-.11.59-.08.16-.19.3-.34.45-.15.14-.41.35-.75.62.35.6.62,1.31.83,2.11s.31,1.66.31,2.56c0,1.31-.29,2.49-.86,3.54-.57,1.05-1.32,1.86-2.26,2.45-.93.59-1.92.88-2.96.88-.32,0-.75-.09-1.31-.28-.56-.19-1.05-.39-1.47-.59-.05.11-.16.29-.33.53-.17.24-.35.46-.56.66-.2.2-.39.3-.54.3-.42,0-.74-.12-.97-.38-.23-.25-.34-.57-.34-.97,0-.31.07-.58.2-.81s.33-.49.57-.78c0,0,.09-.1.24-.27-.39-.62-.72-1.33-.99-2.13ZM301.93,41.54c.32-.51,1.01-1.47,2.07-2.89l.51-.68,1.12-1.52c-.1-.06-.21-.09-.33-.1s-.34-.01-.66-.01c-.81,0-1.59.16-2.32.47s-1.32.78-1.77,1.41c-.45.63-.68,1.39-.68,2.29,0,.49.11.99.32,1.5.21.51.41.9.59,1.16l1.16-1.63ZM304.27,41.95c-1.1,1.58-1.74,2.48-1.91,2.72.52.23.99.34,1.41.34.72,0,1.41-.17,2.06-.51.64-.34,1.17-.83,1.57-1.48.4-.65.61-1.4.62-2.26,0-.56-.07-1.11-.22-1.67s-.36-.96-.63-1.2c-.58.74-1.54,2.09-2.9,4.06Z"/>
    <path class="cls-4" d="M320.78,34.01c.53.22.96.52,1.3.92s.54.85.6,1.36l.03-4.06.03-4.04c0-.99.38-1.49,1.13-1.49.29,0,.5.13.62.4s.19.58.19.95l-.02,2.1-.03,2.14-.18,8.99-.06,2.45c0,1.26-.1,2.2-.26,2.84-.16.64-.5.96-1,.96-.2,0-.37-.12-.51-.37-.14-.25-.3-.6-.48-1.08-.33.3-.76.56-1.29.77-.54.21-1.09.37-1.65.48-.57.11-1.06.16-1.47.16-1.78,0-3.12-.56-4.04-1.67s-1.37-2.63-1.37-4.55c0-1.32.27-2.56.81-3.72s1.32-2.1,2.35-2.8,2.22-1.06,3.6-1.06c.6,0,1.16.11,1.69.33ZM320.17,44.68c.6-.2,1.08-.45,1.43-.73.35-.28.57-.54.65-.78.08-.25.13-.51.16-.79.02-.28.04-.61.04-.99v-1.3c0-.64-.15-1.25-.46-1.83s-.72-1.04-1.23-1.39c-.51-.35-1.04-.52-1.6-.52-.96,0-1.8.21-2.52.62-.72.42-1.27.99-1.65,1.72-.38.73-.57,1.56-.57,2.5,0,.76.16,1.44.48,2.01.32.58.77,1.02,1.33,1.32.57.31,1.2.46,1.89.46.77,0,1.46-.1,2.06-.3Z"/>
    <path class="cls-4" d="M339.17,44.4c.18.22.28.56.28,1.02,0,.89-.67,1.47-2.02,1.76-1.35.28-2.67.42-3.98.42-.98,0-1.93-.27-2.84-.81-.91-.54-1.65-1.28-2.22-2.22-.57-.93-.85-1.96-.85-3.07,0-1.6.27-3.01.82-4.23s1.34-2.18,2.39-2.87c1.05-.68,2.29-1.03,3.73-1.03.76,0,1.52.18,2.27.54.75.36,1.37.88,1.85,1.57s.73,1.5.73,2.44c0,.48-.07.88-.22,1.21-.15.33-.35.53-.61.62l-9.01,3.06c.31.93.93,1.54,1.88,1.83s1.99.42,3.14.42c.38,0,.75-.05,1.13-.16.38-.1.82-.25,1.34-.44.33-.12.6-.22.81-.28.21-.07.4-.1.56-.1.37,0,.64.11.83.33ZM331.88,39.81c.95-.36,2.17-.83,3.66-1.42,1-.4,1.69-.66,2.05-.79-.27-.55-.72-.95-1.35-1.2-.64-.25-1.37-.38-2.2-.38-.47,0-1.04.17-1.73.5-.68.33-1.32.85-1.89,1.55-.58.7-.94,1.56-1.09,2.58.75-.2,1.59-.48,2.55-.84Z"/>
    <path class="cls-4" d="M345.75,37.42c-.65.79-.98,2.01-.98,3.65v.5l.15,4.36c0,.16-.04.36-.11.59-.07.23-.19.43-.36.61-.16.17-.38.26-.63.26-.48,0-.8-.14-.98-.41s-.27-.72-.27-1.35c0-.42,0-.85.03-1.3,0-.15.01-.35.01-.59v-1.33c0-.53.03-1.26.08-2.18s.18-2.54.37-4.86c.03-.47.14-.84.33-1.12.19-.27.47-.41.83-.41.2,0,.38.12.56.38.17.25.26.65.26,1.2,0,.84-.02,1.35-.04,1.54.2-.6.58-1.17,1.15-1.69.57-.52,1.19-.94,1.87-1.25s1.26-.47,1.76-.47c.81,0,1.53.15,2.16.45.62.3.94.9.94,1.8,0,.28-.06.54-.19.78s-.3.42-.5.55-.41.2-.63.2c-.19,0-.33-.03-.42-.1-.09-.07-.17-.17-.25-.31-.12-.22-.28-.38-.48-.5-.2-.12-.56-.18-1.06-.18h-.34c-1.51,0-2.59.4-3.24,1.19Z"/>
    <path class="cls-4" d="M359.63,27.31c.23-.34.45-.51.65-.51.3,0,.53.12.7.36.17.24.25.59.25,1.04,0,.14-.04.31-.12.5-.72,1.92-1.46,4.21-2.22,6.87-.75,2.66-1.88,6.92-3.38,12.76,0,.25-.04.49-.13.74-.09.25-.2.45-.33.61s-.27.24-.39.24c-.2,0-.41-.05-.63-.14s-.42-.25-.58-.47c-.16-.22-.25-.5-.25-.84.99-3.72,2.02-7.4,3.08-11.05,1.06-3.65,2.01-6.69,2.85-9.11.11-.32.28-.65.51-.99Z"/>
    <path class="cls-4" d="M365.42,47.21c-.8-.36-1.21-1.05-1.21-2.06,0-.16.05-.36.15-.6.1-.24.22-.45.37-.62.15-.17.3-.26.45-.26.05,0,.17.08.37.25.26.31.51.54.75.7.24.16.52.26.83.31.31.05.72.08,1.24.08s1.07-.06,1.67-.19c.6-.13,1.11-.28,1.53-.45s.62-.31.62-.41c0-.25-.13-.46-.39-.63-.26-.17-.58-.29-.95-.39s-.93-.21-1.67-.35c-1.16-.21-2.12-.43-2.87-.66-.75-.23-1.4-.6-1.95-1.12-.55-.51-.83-1.21-.83-2.09,0-1.09.31-2.04.94-2.85.62-.82,1.42-1.44,2.39-1.88.97-.44,1.94-.66,2.93-.66.65,0,1.22.12,1.74.37.51.25.91.57,1.19.97.28.4.42.83.42,1.3,0,.75-.06,1.35-.18,1.83s-.4.71-.85.71c-.22,0-.36-.1-.43-.3s-.1-.5-.1-.92c0-.44-.18-.75-.54-.92s-.89-.25-1.61-.25c-.5,0-1.05.12-1.65.35s-1.12.54-1.55.92-.64.77-.64,1.18.16.75.49,1.01c.33.26.73.46,1.22.59.49.14,1.16.29,2.01.45,1.05.2,1.9.4,2.55.59s1.19.51,1.65.93c.45.42.68.98.68,1.69,0,.9-.36,1.64-1.09,2.23-.73.59-1.57,1.02-2.54,1.3s-1.8.41-2.51.41c-.95,0-1.83-.18-2.64-.55Z"/>
    <path class="cls-4" d="M378.46,36.63c-.36.02-.66.03-.91.03-.14,0-.31-.06-.51-.17s-.38-.27-.53-.48c-.15-.21-.22-.44-.22-.71s.06-.51.19-.74c.12-.23.28-.42.48-.55.19-.14.39-.21.6-.21.32,0,.9.03,1.76.08.03-1.17.14-2.28.33-3.34.19-1.06.57-1.59,1.12-1.59.13,0,.26.06.4.18.14.12.25.28.35.48.09.2.14.42.14.66,0,1-.06,1.91-.18,2.72l-.04.35-.13.58c.36,0,.78,0,1.27-.01s.86-.02,1.12-.03c.79-.03,1.59-.04,2.38-.04.29,0,.5.16.63.49.13.33.19.67.19,1.04,0,.4-.11.71-.32.94-.21.23-.44.35-.69.35l-4.59-.06-.02,1.3c-.03.79-.04,1.65-.04,2.58,0,1.31.12,2.35.35,3.1s.68,1.13,1.35,1.13c.57,0,1.27-.29,2.1-.86.18-.1.27-.16.28-.16.25,0,.42.07.51.2.09.13.13.36.13.69,0,.4-.17.82-.51,1.27-.34.45-.74.83-1.21,1.14s-.87.47-1.22.47c-1.12,0-1.95-.38-2.49-1.13-.54-.75-.88-1.65-1.01-2.7-.13-1.05-.21-2.41-.23-4.08,0-1.31-.04-2.3-.12-2.96-.15,0-.38,0-.7.03Z"/>
    <path class="cls-4" d="M391.31,36.76c-.14.71-.24,1.3-.31,1.78s-.1.96-.1,1.44c0,.69.07,1.41.22,2.17.15.76.43,1.43.85,2,.42.57,1,.86,1.74.86.92,0,1.69-.24,2.3-.71s1.18-1.13,1.72-1.97c.02-.25.07-1.16.16-2.75l.03-.71.04-3.95c0-.41.12-.71.36-.91s.49-.3.75-.3c.23,0,.43.1.62.3s.28.47.28.82l-.24,11.27c-.01.53-.08.89-.22,1.07-.14.18-.38.28-.73.28-.3,0-.52-.05-.68-.15-.15-.1-.27-.31-.33-.62-.07-.32-.1-.81-.1-1.48,0-.48,0-.87.03-1.18-.17.69-.46,1.32-.87,1.88s-.88,1.01-1.41,1.33c-.53.32-1.04.48-1.55.48-1.96,0-3.27-.75-3.95-2.26-.68-1.51-1.01-3.23-1.01-5.16,0-.98.06-1.98.18-2.98.12-1,.32-1.86.6-2.56.28-.7.65-1.05,1.11-1.05.55,0,.82.33.82,1.01,0,.39-.1,1.06-.3,2.02Z"/>
    <path class="cls-4" d="M414.29,44.4c.18.22.28.56.28,1.02,0,.89-.67,1.47-2.02,1.76-1.35.28-2.67.42-3.98.42-.98,0-1.93-.27-2.84-.81-.91-.54-1.65-1.28-2.22-2.22-.57-.93-.85-1.96-.85-3.07,0-1.6.27-3.01.82-4.23s1.34-2.18,2.39-2.87c1.05-.68,2.29-1.03,3.73-1.03.76,0,1.52.18,2.27.54.75.36,1.37.88,1.85,1.57s.73,1.5.73,2.44c0,.48-.07.88-.22,1.21-.15.33-.35.53-.61.62l-9.01,3.06c.31.93.93,1.54,1.88,1.83s1.99.42,3.14.42c.38,0,.75-.05,1.13-.16.38-.1.82-.25,1.34-.44.33-.12.6-.22.81-.28.21-.07.4-.1.56-.1.37,0,.64.11.83.33ZM407.01,39.81c.95-.36,2.17-.83,3.66-1.42,1-.4,1.69-.66,2.05-.79-.27-.55-.72-.95-1.35-1.2-.64-.25-1.37-.38-2.2-.38-.47,0-1.04.17-1.73.5-.68.33-1.32.85-1.89,1.55-.58.7-.94,1.56-1.09,2.58.75-.2,1.59-.48,2.55-.84Z"/>
    <path class="cls-4" d="M434.26,40.35c0-.53-.14-1.06-.42-1.59-.28-.53-.68-.97-1.21-1.32-.53-.34-1.14-.52-1.85-.52-.37,0-.78.09-1.25.28-.47.18-.9.44-1.3.77-.4.33-.68.7-.85,1.1l-.15,5.76.06.42.06.44c0,.47-.09.88-.28,1.22s-.42.51-.7.51c-.44,0-.79-.11-1.06-.33-.27-.22-.41-.62-.41-1.22l.04-.3c.08-.65.12-1.03.12-1.15l.06-4.23c0-.56-.1-1.12-.33-1.68-.23-.56-.55-1.02-.98-1.39-.42-.36-.9-.55-1.44-.55-.74,0-1.31.09-1.73.27s-.71.46-.89.85-.26.91-.26,1.57v.55c0,.52.03,1.28.09,2.28,0,.17,0,.4.03.68l.27,3.26c0,.27-.07.52-.21.74-.14.22-.3.39-.48.51s-.33.18-.44.18c-.44,0-.76-.14-.97-.41-.21-.27-.31-.78-.31-1.52v-.48c.02-.07.03-.17.03-.33v-2.28c-.02-.34-.03-.78-.03-1.33v-2.27c0-1.13.02-2.02.07-2.66.04-.64.14-1.14.29-1.49.15-.35.37-.52.67-.52.59,0,.88.5.88,1.5v.25c.14-.36.37-.7.68-1.01.32-.32.68-.57,1.09-.77s.83-.3,1.24-.3c.53,0,1.12.13,1.77.38s1.22.65,1.7,1.2c.48.54.71,1.22.71,2.03.14-.64.45-1.21.93-1.69.48-.49,1.04-.86,1.66-1.12.63-.26,1.2-.39,1.71-.39,1.74,0,3.08.59,4.04,1.78.96,1.18,1.44,3.02,1.44,5.5,0,1.69-.11,3.12-.34,4.3s-.58,1.77-1.04,1.77c-.25,0-.48-.09-.69-.28-.21-.18-.38-.41-.51-.69s-.19-.53-.19-.76c0-.32.03-.6.08-.84.05-.24.13-.51.23-.8.11-.31.19-.59.25-.84.05-.25.08-.54.08-.89l.02-2.19Z"/>
    <path class="cls-4" d="M439.68,42.92c-.27-.8-.41-1.51-.41-2.15,0-1.64.3-3,.9-4.06.6-1.06,1.38-1.83,2.32-2.32s1.97-.72,3.06-.72c1.16,0,2.19.29,3.1.88.23-.28.52-.56.88-.83.36-.27.67-.4.94-.4.58,0,.86.37.86,1.12,0,.24-.04.43-.11.59-.08.16-.19.3-.34.45-.15.14-.41.35-.75.62.35.6.62,1.31.83,2.11s.31,1.66.31,2.56c0,1.31-.29,2.49-.86,3.54-.57,1.05-1.32,1.86-2.26,2.45-.93.59-1.92.88-2.96.88-.32,0-.75-.09-1.31-.28-.56-.19-1.05-.39-1.47-.59-.05.11-.16.29-.33.53-.17.24-.35.46-.56.66-.2.2-.39.3-.54.3-.42,0-.74-.12-.97-.38-.23-.25-.34-.57-.34-.97,0-.31.07-.58.2-.81s.33-.49.57-.78c0,0,.09-.1.24-.27-.39-.62-.72-1.33-.99-2.13ZM443.22,41.54c.32-.51,1.01-1.47,2.07-2.89l.51-.68,1.12-1.52c-.1-.06-.21-.09-.33-.1s-.34-.01-.66-.01c-.81,0-1.59.16-2.32.47s-1.32.78-1.77,1.41c-.45.63-.68,1.39-.68,2.29,0,.49.11.99.32,1.5.21.51.41.9.59,1.16l1.16-1.63ZM445.56,41.95c-1.1,1.58-1.74,2.48-1.91,2.72.52.23.99.34,1.41.34.72,0,1.41-.17,2.06-.51.64-.34,1.17-.83,1.57-1.48.4-.65.61-1.4.62-2.26,0-.56-.07-1.11-.22-1.67s-.36-.96-.63-1.2c-.58.74-1.54,2.09-2.9,4.06Z"/>
    <path class="cls-4" d="M462.07,34.01c.53.22.96.52,1.3.92s.54.85.6,1.36l.03-4.06.03-4.04c0-.99.38-1.49,1.13-1.49.29,0,.5.13.62.4s.19.58.19.95l-.02,2.1-.03,2.14-.18,8.99-.06,2.45c0,1.26-.1,2.2-.26,2.84-.16.64-.5.96-1,.96-.2,0-.37-.12-.51-.37-.14-.25-.3-.6-.48-1.08-.33.3-.76.56-1.29.77-.54.21-1.09.37-1.65.48-.57.11-1.06.16-1.47.16-1.78,0-3.12-.56-4.04-1.67s-1.37-2.63-1.37-4.55c0-1.32.27-2.56.81-3.72s1.32-2.1,2.35-2.8,2.22-1.06,3.6-1.06c.6,0,1.16.11,1.69.33ZM461.46,44.68c.6-.2,1.08-.45,1.43-.73.35-.28.57-.54.65-.78.08-.25.13-.51.16-.79.02-.28.04-.61.04-.99v-1.3c0-.64-.15-1.25-.46-1.83s-.72-1.04-1.23-1.39c-.51-.35-1.04-.52-1.6-.52-.96,0-1.8.21-2.52.62-.72.42-1.27.99-1.65,1.72-.38.73-.57,1.56-.57,2.5,0,.76.16,1.44.48,2.01.32.58.77,1.02,1.33,1.32.57.31,1.2.46,1.89.46.77,0,1.46-.1,2.06-.3Z"/>
    <path class="cls-4" d="M480.46,44.4c.18.22.28.56.28,1.02,0,.89-.67,1.47-2.02,1.76-1.35.28-2.67.42-3.98.42-.98,0-1.93-.27-2.84-.81-.91-.54-1.65-1.28-2.22-2.22-.57-.93-.85-1.96-.85-3.07,0-1.6.27-3.01.82-4.23s1.34-2.18,2.39-2.87c1.05-.68,2.29-1.03,3.73-1.03.76,0,1.52.18,2.27.54.75.36,1.37.88,1.85,1.57s.73,1.5.73,2.44c0,.48-.07.88-.22,1.21-.15.33-.35.53-.61.62l-9.01,3.06c.31.93.93,1.54,1.88,1.83s1.99.42,3.14.42c.38,0,.75-.05,1.13-.16.38-.1.82-.25,1.34-.44.33-.12.6-.22.81-.28.21-.07.4-.1.56-.1.37,0,.64.11.83.33ZM473.17,39.81c.95-.36,2.17-.83,3.66-1.42,1-.4,1.69-.66,2.05-.79-.27-.55-.72-.95-1.35-1.2-.64-.25-1.37-.38-2.2-.38-.47,0-1.04.17-1.73.5-.68.33-1.32.85-1.89,1.55-.58.7-.94,1.56-1.09,2.58.75-.2,1.59-.48,2.55-.84Z"/>
    <path class="cls-4" d="M487.04,37.42c-.65.79-.98,2.01-.98,3.65v.5l.15,4.36c0,.16-.04.36-.11.59-.07.23-.19.43-.36.61-.16.17-.38.26-.63.26-.48,0-.8-.14-.98-.41s-.27-.72-.27-1.35c0-.42,0-.85.03-1.3,0-.15.01-.35.01-.59v-1.33c0-.53.03-1.26.08-2.18s.18-2.54.37-4.86c.03-.47.14-.84.33-1.12.19-.27.47-.41.83-.41.2,0,.38.12.56.38.17.25.26.65.26,1.2,0,.84-.02,1.35-.04,1.54.2-.6.58-1.17,1.15-1.69.57-.52,1.19-.94,1.87-1.25s1.26-.47,1.76-.47c.81,0,1.53.15,2.16.45.62.3.94.9.94,1.8,0,.28-.06.54-.19.78s-.3.42-.5.55-.41.2-.63.2c-.19,0-.33-.03-.42-.1-.09-.07-.17-.17-.25-.31-.12-.22-.28-.38-.48-.5-.2-.12-.56-.18-1.06-.18h-.34c-1.51,0-2.59.4-3.24,1.19Z"/>
  </g>
</svg>