<?xml version="1.0" encoding="UTF-8"?>
<svg id="Layer_1" xmlns="http://www.w3.org/2000/svg" viewBox="0 0 442.05 75.6">
  <defs>
    <style>
      .cls-1 {
        fill: none;
        stroke: #231f20;
      }

      .cls-1, .cls-2 {
        stroke-miterlimit: 10;
        stroke-width: 2px;
      }

      .cls-2 {
        fill: #263779;
        stroke: #010101;
      }

      .cls-3 {
        fill: #eaa294;
      }

      .cls-4 {
        fill: #ededed;
      }

      .cls-5 {
        fill: #c18678;
      }
    </style>
  </defs>
  <path class="cls-2" d="M438.29,1.87l-.08,72.12-344.4-.37c-2.12,0-4.23-.39-6.22-1.14L3.7,40.78c-2.98-1.13-2.98-5.49,0-6.62L88.22,2.43c1.63-.61,3.35-.93,5.09-.92l344.98.37Z"/>
  <path class="cls-5" d="M55.59,23.25c-1.26.77-1.98,1.97-2.42,3.3-.21.16-.4.34-.59.52-1.26-.09-2.55.18-3.62.84-.41.25-.76.55-1.1.87-.81-.03-1.63.06-2.45.32-4.32,1.33-5.27,5.96-4.49,9.93.71,3.6,2.97,7.39,6.21,9.19.66.37,1.38.67,2.14.87,1.32,1.87,3.4,3.1,6.08,2.99,2.59-.1,5.11-1.48,6.94-3.49.46.11.93.19,1.44.21,5.03.15,7.01-5,6.36-9.37.11-2.1-.73-4.25-2.11-5.79-.15-.17-.31-.31-.48-.46.58-.98.69-2.25.04-3.26-.28-.43-.58-.83-.91-1.21,0,0,0,0,0,0-.3-.43-.61-.86-.92-1.28-.73-.99-1.47-1.99-2.38-2.82-2.11-1.92-5.12-2.95-7.75-1.35Z"/>
  <path class="cls-3" d="M88.84,3.01c-.9.12-1.59.55-2.24,1.16-.04.04-.31.3-.51.51-.24.04-.49.16-.72.21-.3.07-.6.12-.9.17-.1.01-.35.05-.44.06-1.35.16-2.73.28-4.02.73-1.47.52-2.48,1.4-3.7,2.31.34-.26-.5.32-.48.3-.26.16-.52.3-.78.44-.4.22-.81.42-1.22.62-.29,0-.58,0-.88.05-1.19.2-2.27.79-3.29,1.43-.47-.11-.97-.11-1.46.08-.67.25-1.32.53-1.98.81-.24.1-.49.21-.73.31-.11.05-.86.44-.21.09-.45.25-.99.4-1.48.56-.25.08-.5.14-.74.22-.02,0-.03,0-.04.02-1.6.03-2.83.77-3.91,1.91,0,.01-.02.02-.03.03-.69.22-1.37.46-2.04.76-.25.11-.48.25-.71.39-1.65.15-3.33.17-4.9.77-.85.33-1.7.74-2.49,1.22-.07-.02-.13-.05-.2-.06-1.27-.23-2.35-.05-3.47.61-.66.38-1.3.77-1.98,1.11-.18.09-.35.17-.53.26-.03.01-.21.09-.32.14-.11.04-.27.1-.3.11-.2.07-.39.14-.59.21-.82.29-1.65.55-2.49.81-1.81.55-3.53,1.3-5.27,2.06-.39.17-.78.34-1.17.51-.24.1-.48.21-.72.32-.03.01-.22.09-.33.14-.11.04-.32.13-.35.14-.18.07-.37.13-.55.2-.52.18-1.05.38-1.52.65-.07.04-.12.09-.18.13-.95-.48-2.11-.52-3.04.08-1.45.94-2.09,2.89-1.16,4.45.48.81.84,1.55,1.47,2.27.09.1.18.19.26.29.01.02.02.03.03.05.04.08.06.13.09.17.04.13.09.26.13.4.03.13.13.9.14.8.02.33.04.66.04.99,0,.39-.02.79-.04,1.18-.01.19-.03.38-.04.57,0,.06,0,.1-.01.14,0,.05-.02.13-.05.28-.04.21-.08.42-.13.62-.09.42-.2.83-.3,1.25-.2.84-.32,1.69-.49,2.53-.08.42-.21.83-.31,1.25-.01.03-.01.04-.02.06-.05.1-.1.2-.15.29-.02.04-.05.08-.08.12-1.64.31-2.69,2.45-2.2,3.98.58,1.82,2.17,2.57,3.96,2.27.41-.07.79-.21,1.16-.38.2.21.42.4.69.54,1.82.96,3.73,1.32,5.71,1.81.43.1.85.25,1.27.36,0,0,0,.01.02.02.12.11.32.22.47.3.02,0,.02,0,.03.02.14.11.27.22.41.33.46.37.92.76,1.42,1.08,1.59,1.02,3.56,1.06,5.3,1.73,1.08.42,2.21.78,3.35,1.09.58.78,1.47,1.3,2.53,1.31.92.01,1.29.07,2.19.23.72.12,1.44.22,2.16.32.22.26.49.5.81.65.54.25.98.63,1.47.96.66.45,1.42.76,2.17,1.04,1.24.47,2.55.69,3.82,1.1,2.69.86,5.26,2.08,7.95,2.94,0,0,0,0,0,0,.07.05.13.11.19.16,1.16.85,2.48,1.25,3.78,1.82,1.48.66,2.89,1.46,4.4,2.06,1.52.6,3.11.95,4.64,1.51,2.74,1,5.3,2.35,8.22,2.78,2.11.31,4.53.49,6.58-.3,2.96.48,5.71-.47,8.53-1.31.43-.13.85-.29,1.28-.44,2.45.48,4.46-.39,6.71-1.41,2.01-.92,4.45-1.13,5.74-3.19.96-1.53.89-3.41.75-5.14-.22-2.75-1.94-4.39-4.39-5.31-2.02-.76-4.04-1.47-6.04-2.27-1.81-.73-3.4-1.77-5.16-2.6-2.07-.97-4.31-1.36-6.55-1.76-.59-.1-1.19-.21-1.79-.3,1.05-.22,2.07-.52,3.11-.78.21.05.43.07.66.07,1.14,0,2.24-.02,3.36-.2.37-.06.73-.16,1.09-.28.08.03.15.07.23.09,1.34.37,2.93.24,4.23-.22,1.3-.46,2.33-1.31,3.55-1.92.02-.01.03-.02.05-.03.02,0,.03,0,.05-.02.15-.06.29-.12.44-.17.29-.12.58-.23.88-.35.79-.32,1.59-.65,2.35-1.04,1.31-.68,2.41-1.56,3.13-2.87.73-1.32,1.11-2.75.67-4.16-.03-1.06-.27-2.1-.76-2.89-.99-1.64-2.67-2.34-4.31-3.09-.23-.21-.46-.43-.69-.63-.67-.56-1.45-.88-2.23-.91-.12-.08-.25-.14-.37-.22-.79-.57-1.6-1.41-2.55-1.93-1.92-1.04-4.04-1.47-6.15-1.9-.98-.2-1.98-.39-2.97-.56.46-.52.69-1.09.76-1.66,3.32-.15,6.7-.63,9.93-1.38,3.19-.74,6.47-2.22,8.3-5.11,2.18-3.45.57-7.28-2.57-9.38-.15-.1-.32-.18-.48-.27-.42-1.07-1.36-1.92-2.84-1.95-2.48-.05-5.08-.76-7.48-1.09-2.52-.34-5.09-1.04-7.72-1.11-2.46-.06-5.13-.33-7.59.03-.61-.34-1.32-.5-2.11-.39Z"/>
  <path class="cls-1" d="M21.52,47.32c5.96-5.41,6.66-14.42,1.56-20.14"/>
  <g>
    <path class="cls-1" d="M90.41,2.43c23.82.03,31.4,4.83,31.02,11.74"/>
    <path class="cls-1" d="M92.71,24.53c15.87.02,28.71-4.61,28.72-10.35"/>
  </g>
  <g>
    <path class="cls-1" d="M92.73,24.51c15.86.02,28.69,6.25,28.68,13.92"/>
    <path class="cls-1" d="M92.69,49.81c15.86.02,28.71-5.06,28.72-11.38"/>
  </g>
  <g>
    <path class="cls-1" d="M92.69,49.81c15.87.02,28.7,5.89,28.69,13.1"/>
    <path class="cls-1" d="M91.13,72.92c16.44,1.84,30.25-4.06,30.26-10"/>
  </g>
  <line class="cls-1" x1="12.58" y1="44.03" x2="91.13" y2="72.92"/>
  <line class="cls-1" x1="13.33" y1="30.66" x2="91.2" y2="2.14"/>
  <g>
    <path class="cls-4" d="M232.42,27.26c.55-.1.97-.16,1.27-.16.22,0,.45.09.69.28s.44.42.6.71c.16.28.24.56.24.82,0,.48-.08.85-.25,1.1-.17.25-.45.38-.83.38-.15,0-.77-.14-1.88-.41-.07,0-.42.03-1.06.08s-2.18.08-4.62.08c-.58,0-.91-.03-1.01-.08-.1.9-.15,2.23-.16,4.01,0,.05.23.07.67.07.34,0,.73-.01,1.18-.04.45-.03.74-.06.89-.1l2.8-.4c.29-.09.59-.14.89-.14.59,0,.88.46.88,1.39,0,.44-.06.77-.19.98-.12.21-.3.35-.52.42-.22.07-.57.13-1.05.18l-.36.04-3.08.35c-.18.02-.51.05-.98.11-.48.05-.85.08-1.12.08l.06,5.24c0,1.32-.34,1.98-1.03,1.98-.49,0-.83-.18-1.03-.53-.2-.35-.3-.85-.3-1.48,0-.31.03-.71.1-1.19.04-.3.06-.51.06-.64l.15-10.01c0-.81.09-1.58.26-2.32.17-.73.5-1.1.99-1.1.24,0,.62.05,1.13.14.52.09.9.14,1.15.14h5.48Z"/>
    <path class="cls-4" d="M239.52,44.04c-.21.27-.44.41-.7.41-.37,0-.66-.11-.87-.33-.21-.22-.38-.59-.48-1.11-.08-.45-.12-1.42-.12-2.9,0-2.45.1-4.68.3-6.68.2-2,.67-2.99,1.39-2.99.3,0,.49.12.59.38.09.25.14.61.14,1.08l-.12,1.98c-.05.67-.09,1.37-.13,2.11-.04.74-.06,1.39-.06,1.97,0,.61.06,1.47.19,2.58.12,1.15.18,1.95.18,2.39,0,.47-.1.84-.31,1.12ZM239.28,27.5c-.41,0-.79-.11-1.14-.34s-.53-.62-.53-1.19c0-.28.08-.57.25-.86.16-.29.37-.53.61-.72s.47-.28.69-.28c.41,0,.76.12,1.06.37.3.25.45.67.45,1.26,0,1.18-.46,1.77-1.38,1.77Z"/>
    <path class="cls-4" d="M252.2,34.79c-.5-1.1-1.46-1.64-2.87-1.64-.42,0-.9.12-1.44.35s-1.06.56-1.57.97c-.51.41-.92.86-1.24,1.35,0,.32-.01.86-.03,1.61-.02.72-.03,1.21-.03,1.49,0,.29.02.58.06.86.04.28.1.62.18,1.03.06.3.11.62.16.94.04.33.07.63.07.91,0,.54-.06.94-.19,1.22s-.41.41-.83.41-.77-.11-1.03-.34-.38-.68-.36-1.37l.06-5.55c-.11-1.34-.16-2.26-.16-2.76v-.42c0-.83.08-1.59.25-2.28.17-.69.44-1.03.82-1.03.75,0,1.13.62,1.13,1.85,0,.2-.03.59-.09,1.18l-.04.37c.22-.74.62-1.37,1.19-1.9.58-.53,1.2-.93,1.86-1.2.67-.27,1.23-.4,1.7-.4,1.87,0,3.19.73,3.98,2.18s1.18,3.22,1.18,5.3c0,1.93-.09,3.51-.28,4.76s-.58,1.87-1.16,1.87c-.26,0-.47-.03-.62-.09-.16-.06-.29-.21-.39-.44-.1-.23-.15-.59-.15-1.07,0-.31.02-.62.07-.92s.12-.68.22-1.13c.11-.52.19-.93.24-1.23.05-.3.07-.62.07-.96,0-1.5-.25-2.8-.75-3.89Z"/>
    <path class="cls-4" d="M265.93,30.82c.53.22.97.52,1.3.92.34.4.54.85.6,1.36l.03-4.06.03-4.04c0-.99.38-1.49,1.13-1.49.29,0,.5.13.63.4.13.26.19.58.19.95v2.1s-.04,2.14-.04,2.14l-.18,8.99-.06,2.45c0,1.26-.1,2.2-.26,2.84-.16.64-.5.96-1,.96-.2,0-.37-.12-.51-.37-.14-.25-.3-.6-.48-1.08-.33.3-.76.56-1.3.77-.54.21-1.09.37-1.65.48-.57.11-1.06.16-1.47.16-1.78,0-3.12-.56-4.04-1.67-.91-1.11-1.37-2.63-1.37-4.55,0-1.32.27-2.56.81-3.72.54-1.16,1.32-2.1,2.34-2.8s2.22-1.06,3.6-1.06c.6,0,1.16.11,1.69.33ZM265.32,41.49c.6-.2,1.08-.45,1.43-.73s.57-.54.65-.78c.08-.25.13-.51.16-.79s.04-.61.04-.99v-1.3c0-.64-.15-1.25-.46-1.83-.31-.58-.72-1.04-1.23-1.39-.51-.35-1.04-.52-1.6-.52-.96,0-1.8.21-2.52.62s-1.27.99-1.65,1.72c-.38.73-.57,1.56-.57,2.5,0,.76.16,1.44.48,2.01.32.58.77,1.02,1.33,1.32.57.31,1.2.46,1.89.46.77,0,1.46-.1,2.06-.3Z"/>
    <path class="cls-4" d="M281.28,34.14c.43,1.39.82,2.6,1.19,3.62s.83,2.14,1.38,3.34c.17-.17.52-.78,1.06-1.82.54-1.04,1.45-2.98,2.74-5.8.63-1.2,1.12-2.05,1.44-2.54.33-.5.6-.74.82-.74.26,0,.46.15.61.45.15.3.22.66.22,1.1,0,.19-.04.4-.13.64-.09.24-.27.62-.54,1.15-.27.53-.62,1.17-1.04,1.93l-.55,1.01c-2.37,5.37-4.06,8.06-5.06,8.06-.57,0-1.22-.96-1.97-2.87-.74-1.92-1.58-4.49-2.52-7.72-.32-.69-.48-1.3-.48-1.84,0-.42.05-.77.15-1.05.1-.27.31-.41.62-.41.41,0,.7.11.88.33.18.22.35.61.52,1.17l.64,2Z"/>
    <path class="cls-4" d="M303.98,41.21c.18.22.28.56.28,1.02,0,.89-.67,1.47-2.02,1.76-1.35.28-2.67.42-3.98.42-.98,0-1.93-.27-2.84-.81-.91-.54-1.65-1.28-2.22-2.22-.57-.93-.85-1.96-.85-3.07,0-1.6.27-3.01.82-4.23s1.34-2.18,2.39-2.87c1.05-.68,2.29-1.03,3.73-1.03.76,0,1.52.18,2.27.54.75.36,1.37.88,1.85,1.57s.73,1.5.73,2.44c0,.48-.07.88-.22,1.21-.15.33-.35.53-.61.62l-9.01,3.06c.31.93.93,1.54,1.88,1.83s1.99.42,3.14.42c.38,0,.75-.05,1.13-.16.38-.1.82-.25,1.34-.44.33-.12.6-.22.81-.28.21-.07.4-.1.56-.1.37,0,.64.11.83.33ZM296.69,36.62c.95-.36,2.17-.83,3.66-1.42,1-.4,1.69-.66,2.05-.79-.27-.55-.72-.95-1.35-1.2-.64-.25-1.37-.38-2.2-.38-.47,0-1.04.17-1.73.5-.69.33-1.32.85-1.89,1.55-.58.7-.94,1.56-1.09,2.58.75-.2,1.59-.48,2.55-.84Z"/>
    <path class="cls-4" d="M311.47,38.6c.02.72.03,1.28.03,1.7v.51c0,2.46-.11,4.38-.32,5.73s-.77,2.46-1.66,3.31-2.3,1.27-4.23,1.27c-.54,0-1.01-.09-1.44-.26-.42-.17-.63-.57-.63-1.2,0-.49.1-.82.3-1,.2-.17.51-.26.92-.26h.45c1.38,0,2.4-.34,3.07-1.02.67-.68,1.09-1.52,1.27-2.53s.27-2.3.28-3.88l.04-8.13c.02-1.62.4-2.44,1.13-2.44.34,0,.6.14.77.42s.29.62.33,1.02c0,.63-.05,1.5-.16,2.59-.12,1.27-.18,2.22-.18,2.86v1.29ZM310.63,26.89c-.41,0-.79-.12-1.16-.35s-.55-.64-.55-1.2c0-.28.08-.57.25-.86s.38-.53.62-.72.49-.28.73-.28c.4,0,.75.13,1.04.38s.45.68.45,1.29c0,1.17-.46,1.76-1.38,1.76Z"/>
  </g>
</svg>