<?xml version="1.0" encoding="UTF-8"?>
<svg id="Layer_1" xmlns="http://www.w3.org/2000/svg" viewBox="0 0 474.05 74.17">
  <defs>
    <style>
      .cls-1 {
        fill: none;
      }

      .cls-1, .cls-2 {
        stroke: #231f20;
        stroke-miterlimit: 10;
        stroke-width: 2px;
      }

      .cls-2 {
        fill: #026955;
      }

      .cls-3 {
        fill: #eaa294;
      }

      .cls-4 {
        fill: #ededed;
      }

      .cls-5 {
        fill: #c18678;
      }
    </style>
  </defs>
  <g>
    <path class="cls-2" d="M469.32,1.26l-.11,71.92-369.23-.53c-2.27,0-4.53-.39-6.67-1.14L3.38,39.86c-3.2-1.13-3.19-5.48.01-6.6L94.01,1.66c1.75-.61,3.6-.92,5.46-.92l369.85.53Z"/>
    <path class="cls-5" d="M57.59,22.4c-1.32.77-2.07,1.96-2.53,3.29-.22.16-.42.34-.62.51-1.32-.09-2.67.18-3.78.83-.42.25-.8.55-1.15.86-.85-.03-1.71.06-2.56.31-4.52,1.33-5.51,5.94-4.7,9.91.74,3.59,3.1,7.37,6.49,9.17.69.37,1.45.66,2.24.87,1.38,1.87,3.55,3.09,6.36,2.99,2.71-.1,5.34-1.47,7.26-3.48.48.11.97.19,1.5.21,5.26.16,7.34-4.98,6.65-9.34.12-2.09-.76-4.24-2.2-5.78-.16-.17-.33-.31-.5-.46.6-.98.73-2.24.04-3.25-.29-.43-.61-.82-.95-1.2,0,0,0,0,0,0-.32-.43-.63-.86-.96-1.28-.76-.98-1.54-1.99-2.49-2.81-2.21-1.91-5.36-2.94-8.1-1.35Z"/>
    <path class="cls-3" d="M92.37,2.24c-.94.12-1.66.55-2.34,1.16-.05.04-.32.3-.53.51-.25.04-.51.15-.75.21-.31.07-.63.12-.94.17-.11.01-.37.05-.46.06-1.41.16-2.86.27-4.2.73-1.54.51-2.59,1.39-3.87,2.31.36-.26-.53.31-.5.3-.27.16-.54.3-.82.44-.42.21-.85.42-1.28.62-.3-.01-.61,0-.92.05-1.24.2-2.38.78-3.44,1.43-.49-.11-1.01-.11-1.53.08-.7.25-1.38.53-2.07.81-.25.1-.51.21-.76.31-.11.05-.9.44-.22.09-.47.24-1.04.4-1.55.56-.26.08-.52.14-.78.22-.02,0-.03,0-.05.02-1.67.03-2.96.77-4.09,1.91-.01.01-.02.02-.03.03-.72.22-1.43.46-2.13.76-.26.11-.5.25-.75.39-1.73.14-3.48.17-5.12.76-.89.33-1.77.73-2.61,1.21-.07-.02-.13-.05-.21-.06-1.33-.23-2.45-.05-3.63.6-.69.38-1.36.76-2.08,1.1-.18.09-.37.17-.56.26-.03.01-.22.09-.33.14-.12.04-.29.1-.31.11-.21.07-.41.14-.62.21-.86.29-1.73.55-2.6.81-1.89.55-3.7,1.29-5.51,2.05-.41.17-.81.34-1.22.5-.25.1-.5.21-.75.32-.03.01-.23.09-.34.14-.11.04-.33.13-.36.14-.19.07-.39.13-.58.2-.54.18-1.09.38-1.59.65-.07.04-.13.09-.19.13-.99-.48-2.2-.52-3.17.08-1.51.94-2.19,2.88-1.21,4.43.51.81.88,1.54,1.54,2.27.09.1.18.19.28.29.01.02.02.03.03.05.04.08.07.13.09.17.05.13.09.26.13.4.04.13.14.9.15.8.02.33.04.65.04.98,0,.39-.02.79-.04,1.18-.01.19-.03.38-.04.57,0,.06-.01.1-.01.14,0,.05-.02.13-.05.28-.04.21-.09.42-.14.62-.1.42-.21.83-.31,1.24-.21.84-.34,1.68-.51,2.52-.09.42-.22.83-.33,1.25-.01.03-.01.04-.02.06-.05.1-.1.2-.16.29-.02.04-.05.08-.08.12-1.71.31-2.81,2.44-2.3,3.97.61,1.82,2.27,2.56,4.14,2.27.43-.07.83-.2,1.21-.38.21.21.44.4.72.54,1.91.96,3.9,1.32,5.97,1.8.45.1.88.25,1.33.36,0,0,0,.01.02.02.13.11.34.22.49.3.02,0,.02,0,.03.02.14.11.29.22.43.33.48.37.96.76,1.48,1.08,1.66,1.02,3.72,1.06,5.54,1.73,1.13.42,2.31.77,3.5,1.09.6.78,1.53,1.29,2.64,1.31.96.01,1.35.08,2.3.23.75.12,1.51.22,2.26.32.23.26.51.49.85.65.56.25,1.02.63,1.53.96.69.45,1.49.76,2.26,1.03,1.3.46,2.67.69,3.99,1.09,2.82.86,5.5,2.08,8.31,2.94,0,0,0,0,0,0,.07.05.13.11.2.16,1.21.85,2.6,1.24,3.95,1.82,1.55.66,3.02,1.46,4.6,2.05,1.58.6,3.25.95,4.85,1.51,2.87,1,5.54,2.35,8.59,2.78,2.21.31,4.73.49,6.88-.3,3.09.48,5.97-.47,8.92-1.31.45-.13.89-.29,1.33-.44,2.56.48,4.67-.39,7.01-1.41,2.11-.91,4.66-1.13,6.01-3.17,1.01-1.52.93-3.4.79-5.12-.22-2.74-2.02-4.37-4.59-5.3-2.11-.76-4.22-1.46-6.31-2.27-1.89-.73-3.56-1.77-5.39-2.59-2.17-.97-4.51-1.36-6.84-1.75-.62-.1-1.25-.21-1.87-.3,1.09-.22,2.17-.52,3.26-.77.22.05.45.07.69.07,1.19,0,2.34-.01,3.52-.2.39-.06.76-.16,1.14-.28.08.03.15.07.24.09,1.4.37,3.06.24,4.42-.22,1.36-.46,2.44-1.31,3.71-1.92.02-.01.03-.02.05-.02.02,0,.03,0,.05-.02.15-.06.31-.12.46-.17.31-.12.61-.23.92-.34.83-.32,1.66-.64,2.46-1.04,1.37-.68,2.52-1.56,3.28-2.86.76-1.31,1.16-2.74.7-4.14-.03-1.05-.28-2.09-.79-2.89-1.04-1.63-2.79-2.33-4.51-3.08-.24-.21-.48-.43-.72-.63-.7-.55-1.51-.88-2.33-.91-.13-.08-.26-.14-.38-.22-.82-.57-1.67-1.4-2.66-1.92-2.01-1.04-4.22-1.47-6.43-1.9-1.03-.2-2.07-.39-3.11-.56.48-.52.73-1.09.79-1.65,3.47-.15,7.01-.63,10.38-1.37,3.33-.74,6.77-2.21,8.68-5.09,2.29-3.44.6-7.26-2.68-9.35-.16-.1-.33-.17-.5-.26-.44-1.07-1.42-1.91-2.97-1.95-2.59-.05-5.31-.76-7.82-1.09-2.64-.34-5.32-1.04-8.07-1.11-2.58-.06-5.36-.33-7.94.03-.63-.34-1.38-.5-2.21-.39Z"/>
    <path class="cls-1" d="M21.95,46.39c6.24-5.39,6.97-14.38,1.64-20.09"/>
    <path class="cls-1" d="M94.01,1.66c24.9.04,32.83,4.83,32.43,11.72"/>
    <path class="cls-1" d="M96.4,23.69c16.59.03,30.03-4.58,30.04-10.31"/>
    <path class="cls-1" d="M96.42,23.68c16.59.03,30,6.25,29.98,13.9"/>
    <path class="cls-1" d="M96.37,48.91c16.59.03,30.02-5.04,30.04-11.33"/>
    <path class="cls-1" d="M96.37,48.91c16.59.03,30.01,5.88,29.99,13.08"/>
    <path class="cls-1" d="M94.72,71.95c17.19,1.84,31.63-4.04,31.64-9.96"/>
    <line class="cls-1" x1="12.6" y1="43.1" x2="94.72" y2="71.95"/>
    <line class="cls-1" x1="13.39" y1="29.77" x2="94.83" y2="1.37"/>
  </g>
  <g>
    <path class="cls-4" d="M163.56,35.74c0-1.12.03-2.06.09-2.81.06-.75.19-1.37.4-1.85s.52-.73.92-.75c.11,0,.25.11.42.33.03.03.09.08.17.17.08.08.16.13.23.13.26-.25.6-.49,1.04-.74s.91-.44,1.42-.59c.51-.15,1-.22,1.47-.2,1.82,0,3.1.38,3.84,1.15.74.77,1.12,1.91,1.12,3.42s-.36,2.89-1.07,3.94c-.71,1.05-1.72,1.83-3.02,2.34s-2.82.76-4.58.76c-.15,0-.32-.03-.52-.08,0,.09,0,.27-.02.52-.03.43-.04.93-.04,1.47,0,.55.05,1.4.13,2.55,0,.42-.11.69-.32.83s-.43.21-.66.21c-.36,0-.63-.04-.83-.11-.19-.08-.35-.33-.47-.77-.12-.44-.13-1.15-.03-2.13l.3-2.97c-.06-.1-.12-.25-.17-.45s-.08-.35-.08-.47c0-.26.04-.62.12-1.08.09-.44.13-.84.13-1.2v-1.6ZM169.84,37.75c.9-.26,1.63-.65,2.18-1.17.55-.51.83-1.13.83-1.83,0-.83-.31-1.49-.92-1.99-.62-.5-1.54-.74-2.78-.74-.55,0-1.21.1-1.99.29-.78.19-1.26.39-1.44.6,0,.03-.02.27-.07.73-.04.46-.11,1.88-.19,4.25.3.08.55.15.77.19.21.04.46.06.74.06,1.01,0,1.97-.13,2.87-.4Z"/>
    <path class="cls-4" d="M188.52,43.48c.18.22.28.56.28,1.02,0,.89-.67,1.47-2.02,1.76-1.35.28-2.67.42-3.98.42-.98,0-1.93-.27-2.84-.81-.91-.54-1.65-1.28-2.22-2.22s-.85-1.96-.85-3.07c0-1.6.27-3.01.82-4.23s1.34-2.18,2.39-2.87c1.05-.68,2.29-1.03,3.73-1.03.76,0,1.52.18,2.27.54s1.37.88,1.85,1.57.73,1.5.73,2.44c0,.48-.07.88-.22,1.21-.15.33-.35.53-.61.62l-9.01,3.06c.31.93.93,1.54,1.88,1.83.94.28,1.99.42,3.14.42.38,0,.75-.05,1.13-.16s.82-.25,1.34-.44c.33-.12.6-.22.81-.28s.4-.1.56-.1c.37,0,.64.11.83.33ZM181.23,38.89c.95-.36,2.17-.83,3.66-1.42,1-.4,1.69-.66,2.06-.79-.27-.55-.72-.95-1.35-1.2-.64-.25-1.37-.38-2.2-.38-.47,0-1.04.17-1.73.5-.69.33-1.32.85-1.89,1.55s-.94,1.56-1.09,2.58c.74-.2,1.59-.48,2.55-.84Z"/>
    <path class="cls-4" d="M195.1,36.49c-.65.79-.98,2.01-.98,3.65v.5l.15,4.36c0,.16-.04.36-.11.59-.07.23-.19.43-.36.61-.16.17-.37.26-.63.26-.48,0-.8-.14-.98-.41s-.27-.72-.27-1.35c0-.42,0-.85.03-1.3,0-.15.01-.35.01-.59v-1.33c0-.53.03-1.26.08-2.18.05-.93.18-2.54.36-4.86.03-.47.14-.84.33-1.12.19-.27.47-.41.83-.41.2,0,.38.12.56.38.17.25.26.65.26,1.2,0,.84-.01,1.35-.04,1.54.2-.6.58-1.17,1.15-1.69.57-.52,1.19-.94,1.87-1.25.67-.31,1.26-.47,1.76-.47.81,0,1.53.15,2.16.45s.94.9.94,1.8c0,.28-.06.54-.19.78s-.3.42-.5.55-.41.2-.63.2c-.19,0-.33-.03-.42-.1s-.17-.17-.25-.31c-.12-.22-.28-.38-.48-.5-.2-.12-.56-.18-1.06-.18h-.34c-1.51,0-2.59.4-3.24,1.19Z"/>
    <path class="cls-4" d="M205.52,46.29c-.8-.36-1.21-1.05-1.21-2.06,0-.16.05-.36.15-.6.1-.24.22-.45.37-.62.15-.17.3-.26.45-.26.05,0,.17.08.37.25.26.31.51.54.75.7.24.16.52.26.83.31.31.05.72.08,1.24.08s1.07-.06,1.68-.19c.6-.13,1.11-.28,1.53-.45s.63-.31.63-.41c0-.25-.13-.46-.39-.63-.26-.17-.58-.29-.95-.39s-.93-.21-1.67-.35c-1.16-.21-2.12-.43-2.87-.66-.75-.23-1.4-.6-1.95-1.12-.55-.51-.83-1.21-.83-2.09,0-1.09.31-2.04.94-2.85.63-.82,1.42-1.44,2.39-1.88.97-.44,1.94-.66,2.93-.66.65,0,1.22.12,1.73.37.51.25.91.57,1.19.97.28.4.42.83.42,1.3,0,.75-.06,1.35-.18,1.83s-.4.71-.85.71c-.22,0-.36-.1-.43-.3s-.1-.5-.1-.92c0-.44-.18-.75-.54-.92s-.89-.25-1.61-.25c-.5,0-1.05.12-1.65.35-.61.24-1.12.54-1.55.92s-.64.77-.64,1.18.16.75.49,1.01c.33.26.73.46,1.22.59.49.14,1.16.29,2.01.45,1.05.2,1.9.4,2.55.59.65.2,1.19.51,1.65.93.45.42.68.98.68,1.69,0,.9-.36,1.64-1.09,2.23-.72.59-1.57,1.02-2.54,1.3-.97.27-1.8.41-2.51.41-.95,0-1.83-.18-2.64-.55Z"/>
    <path class="cls-4" d="M219.89,45.67c-.92-.7-1.66-1.58-2.21-2.65-.55-1.07-.83-2.13-.83-3.17,0-1.64.3-3,.9-4.06.6-1.07,1.38-1.84,2.34-2.33.96-.49,1.99-.73,3.1-.73,1.18,0,2.2.29,3.05.87.85.58,1.51,1.41,1.96,2.48.45,1.07.68,2.33.68,3.77,0,1.31-.29,2.49-.86,3.54-.57,1.05-1.32,1.86-2.25,2.45-.93.58-1.91.88-2.94.88s-2.03-.35-2.95-1.05ZM226.49,37.49c-.29-.65-.7-1.16-1.21-1.52-.52-.36-1.09-.55-1.73-.55-.78,0-1.54.16-2.28.47-.73.32-1.33.79-1.8,1.41s-.7,1.37-.7,2.25c0,.74.19,1.46.57,2.16.38.7.87,1.27,1.47,1.71.61.44,1.23.66,1.88.66.73,0,1.43-.17,2.08-.52.65-.35,1.17-.85,1.57-1.51.4-.66.6-1.43.6-2.33,0-.84-.15-1.59-.44-2.24Z"/>
    <path class="cls-4" d="M240.92,37.06c-.5-1.1-1.46-1.64-2.87-1.64-.42,0-.9.12-1.44.35s-1.06.56-1.57.97c-.51.41-.92.86-1.24,1.35,0,.32,0,.86-.03,1.61-.02.72-.03,1.21-.03,1.49,0,.29.02.58.06.86.04.28.1.62.18,1.03.06.3.11.62.16.94.04.33.07.63.07.91,0,.54-.06.94-.19,1.22-.13.27-.41.41-.83.41s-.77-.11-1.03-.34c-.26-.23-.38-.68-.36-1.37l.06-5.55c-.11-1.34-.16-2.26-.16-2.76v-.42c0-.83.08-1.59.25-2.28s.44-1.03.82-1.03c.75,0,1.13.62,1.13,1.85,0,.2-.03.59-.09,1.18l-.04.37c.22-.74.62-1.37,1.19-1.9.58-.53,1.2-.93,1.86-1.2.67-.27,1.23-.4,1.7-.4,1.87,0,3.19.73,3.98,2.18s1.18,3.22,1.18,5.3c0,1.93-.09,3.51-.28,4.76s-.58,1.87-1.16,1.87c-.26,0-.47-.03-.63-.09-.16-.06-.29-.21-.39-.44-.1-.23-.15-.59-.15-1.07,0-.31.02-.62.07-.92s.12-.68.22-1.13c.11-.52.19-.93.24-1.23s.07-.62.07-.96c0-1.5-.25-2.8-.75-3.89Z"/>
    <path class="cls-4" d="M260.51,43.59c.13.19.2.49.2.91,0,.32-.09.64-.28.96s-.45.59-.77.79c-.33.21-.69.31-1.09.31s-.78-.13-1.17-.4c-.39-.27-.71-.62-.96-1.06-.25-.44-.37-.89-.37-1.35-.74.9-1.52,1.62-2.32,2.16-.8.54-1.65.81-2.55.81-.82,0-1.66-.25-2.51-.76-.85-.51-1.55-1.2-2.09-2.06-.55-.86-.82-1.8-.82-2.8,0-1.35.32-2.67.97-3.96.64-1.29,1.51-2.35,2.6-3.16,1.09-.81,2.26-1.22,3.52-1.22.95,0,1.84.27,2.66.82.82.55,1.47,1.25,1.95,2.12.48.86.72,1.74.72,2.63,0,.38-.03.76-.09,1.13s-.09.61-.1.71c-.08.44-.14.84-.18,1.18-.04.34-.06.71-.06,1.1,0,.56.09.96.26,1.2.17.24.43.36.78.36.09,0,.18-.03.28-.1.09-.07.21-.16.33-.28.02-.02.08-.07.17-.15.09-.08.18-.13.26-.16.31,0,.53.09.66.28ZM254.36,43.08c.63-.61,1.07-1.31,1.3-2.1.23-.79.45-1.81.65-3.08,0-.29-.18-.63-.55-1.01s-.81-.7-1.32-.98c-.51-.27-.97-.41-1.38-.41-1.02,0-1.94.27-2.74.81-.8.54-1.43,1.24-1.87,2.09-.44.85-.66,1.71-.66,2.59,0,.58.19,1.09.57,1.55.38.46.87.81,1.47,1.07.6.25,1.21.38,1.84.38,1.16,0,2.06-.31,2.7-.92Z"/>
    <path class="cls-4" d="M267.37,43.56c.14.26.22.58.22.93s-.12.7-.35,1.01-.52.54-.86.71c-.34.17-.64.25-.91.25-.97,0-1.68-.3-2.13-.89-.45-.59-.67-1.47-.66-2.62l.19-15.53c0-.62.09-1.13.27-1.51.18-.38.46-.57.83-.57.25,0,.45.14.62.42.16.28.25.58.25.9l-.19,13.61v.48c0,.89.07,1.62.2,2.21.13.59.35.88.65.88.13,0,.24-.03.33-.08.09-.06.19-.14.31-.25s.22-.2.3-.25c.08-.05.19-.08.31-.08.27,0,.47.13.62.4Z"/>
    <path class="cls-4" d="M280.76,43.48c.18.22.28.56.28,1.02,0,.89-.67,1.47-2.02,1.76-1.35.28-2.67.42-3.98.42-.98,0-1.93-.27-2.84-.81s-1.65-1.28-2.22-2.22c-.57-.93-.85-1.96-.85-3.07,0-1.6.27-3.01.82-4.23s1.34-2.18,2.39-2.87c1.05-.68,2.29-1.03,3.73-1.03.76,0,1.52.18,2.27.54.75.36,1.37.88,1.85,1.57s.73,1.5.73,2.44c0,.48-.07.88-.22,1.21-.15.33-.35.53-.61.62l-9.01,3.06c.31.93.93,1.54,1.88,1.83.94.28,1.99.42,3.14.42.38,0,.75-.05,1.13-.16.38-.1.82-.25,1.34-.44.33-.12.6-.22.81-.28s.4-.1.56-.1c.37,0,.64.11.83.33ZM273.47,38.89c.95-.36,2.17-.83,3.66-1.42,1-.4,1.69-.66,2.05-.79-.27-.55-.72-.95-1.36-1.2s-1.37-.38-2.2-.38c-.47,0-1.04.17-1.73.5-.68.33-1.31.85-1.89,1.55-.58.7-.94,1.56-1.09,2.58.75-.2,1.59-.48,2.55-.84Z"/>
    <path class="cls-4" d="M285.72,46.29c-.8-.36-1.21-1.05-1.21-2.06,0-.16.05-.36.15-.6.1-.24.22-.45.37-.62.15-.17.3-.26.45-.26.05,0,.17.08.37.25.26.31.51.54.75.7.24.16.52.26.83.31.31.05.72.08,1.24.08s1.07-.06,1.67-.19c.6-.13,1.11-.28,1.53-.45s.62-.31.62-.41c0-.25-.13-.46-.39-.63-.26-.17-.58-.29-.95-.39s-.93-.21-1.67-.35c-1.16-.21-2.12-.43-2.87-.66-.75-.23-1.4-.6-1.95-1.12-.55-.51-.83-1.21-.83-2.09,0-1.09.31-2.04.94-2.85.62-.82,1.42-1.44,2.39-1.88.97-.44,1.94-.66,2.93-.66.65,0,1.22.12,1.74.37.51.25.91.57,1.19.97.28.4.42.83.42,1.3,0,.75-.06,1.35-.18,1.83s-.4.71-.85.71c-.22,0-.36-.1-.43-.3s-.1-.5-.1-.92c0-.44-.18-.75-.54-.92s-.89-.25-1.61-.25c-.5,0-1.05.12-1.65.35s-1.12.54-1.55.92-.64.77-.64,1.18.16.75.49,1.01c.33.26.73.46,1.22.59.49.14,1.16.29,2.01.45,1.05.2,1.9.4,2.55.59s1.19.51,1.65.93c.45.42.68.98.68,1.69,0,.9-.36,1.64-1.09,2.23-.73.59-1.57,1.02-2.54,1.3-.97.27-1.8.41-2.51.41-.95,0-1.83-.18-2.64-.55Z"/>
    <path class="cls-4" d="M311.33,43.59c.13.19.2.49.2.91,0,.32-.09.64-.28.96-.19.32-.45.59-.77.79-.33.21-.69.31-1.09.31s-.78-.13-1.17-.4c-.39-.27-.71-.62-.96-1.06-.25-.44-.37-.89-.37-1.35-.75.9-1.52,1.62-2.32,2.16-.8.54-1.65.81-2.55.81-.82,0-1.66-.25-2.51-.76s-1.55-1.2-2.09-2.06c-.55-.86-.82-1.8-.82-2.8,0-1.35.32-2.67.97-3.96s1.51-2.35,2.6-3.16,2.26-1.22,3.52-1.22c.95,0,1.84.27,2.66.82.82.55,1.47,1.25,1.95,2.12.48.86.72,1.74.72,2.63,0,.38-.03.76-.09,1.13s-.09.61-.1.71c-.08.44-.14.84-.18,1.18s-.06.71-.06,1.1c0,.56.09.96.26,1.2.17.24.43.36.78.36.09,0,.18-.03.28-.1.09-.07.21-.16.33-.28.02-.02.08-.07.17-.15.09-.08.18-.13.26-.16.31,0,.53.09.66.28ZM305.19,43.08c.63-.61,1.07-1.31,1.3-2.1.23-.79.45-1.81.65-3.08,0-.29-.18-.63-.55-1.01s-.81-.7-1.32-.98c-.51-.27-.97-.41-1.38-.41-1.02,0-1.94.27-2.74.81-.8.54-1.43,1.24-1.87,2.09-.44.85-.66,1.71-.66,2.59,0,.58.19,1.09.57,1.55.38.46.87.81,1.47,1.07s1.21.38,1.84.38c1.16,0,2.06-.31,2.7-.92Z"/>
    <path class="cls-4" d="M329.56,39.43c0-.53-.14-1.06-.42-1.59-.28-.53-.68-.97-1.21-1.32-.53-.34-1.14-.52-1.85-.52-.37,0-.78.09-1.25.28-.47.18-.9.44-1.3.77-.4.33-.68.7-.85,1.1l-.15,5.76.06.42.06.44c0,.47-.09.88-.28,1.22-.19.34-.42.51-.7.51-.44,0-.79-.11-1.06-.33-.27-.22-.41-.62-.41-1.22l.04-.3c.08-.65.12-1.03.12-1.15l.06-4.23c0-.56-.1-1.12-.33-1.68-.23-.56-.55-1.02-.98-1.39-.42-.36-.9-.55-1.44-.55-.74,0-1.31.09-1.73.27s-.71.46-.89.85-.26.91-.26,1.57v.55c0,.52.03,1.28.09,2.28,0,.17,0,.4.03.68l.27,3.26c0,.27-.07.52-.21.74-.14.22-.3.39-.48.51-.18.12-.33.18-.44.18-.44,0-.76-.14-.97-.41-.21-.27-.31-.78-.31-1.52v-.48c.02-.07.03-.17.03-.33v-2.28c-.02-.34-.03-.78-.03-1.33v-2.27c0-1.13.02-2.02.07-2.66.04-.64.14-1.14.29-1.49.15-.35.37-.52.67-.52.59,0,.88.5.88,1.5v.25c.14-.36.37-.7.68-1.01.32-.32.68-.57,1.09-.77s.83-.3,1.24-.3c.53,0,1.12.13,1.77.38s1.22.65,1.7,1.2c.48.54.71,1.22.71,2.03.14-.64.45-1.21.93-1.69.48-.49,1.04-.86,1.66-1.12.63-.26,1.2-.39,1.71-.39,1.74,0,3.08.59,4.04,1.78.96,1.18,1.44,3.02,1.44,5.5,0,1.69-.11,3.12-.34,4.3s-.58,1.77-1.04,1.77c-.25,0-.48-.09-.69-.28-.21-.18-.38-.41-.51-.69s-.19-.53-.19-.76c0-.32.03-.6.08-.84.05-.24.13-.51.23-.8.11-.31.19-.59.25-.84.05-.25.08-.54.08-.89l.02-2.19Z"/>
    <path class="cls-4" d="M348.81,43.59c.13.19.2.49.2.91,0,.32-.09.64-.28.96-.19.32-.45.59-.77.79-.33.21-.69.31-1.09.31s-.78-.13-1.17-.4c-.39-.27-.71-.62-.96-1.06-.25-.44-.37-.89-.37-1.35-.75.9-1.52,1.62-2.32,2.16-.8.54-1.65.81-2.55.81-.82,0-1.66-.25-2.51-.76s-1.55-1.2-2.09-2.06c-.55-.86-.82-1.8-.82-2.8,0-1.35.32-2.67.97-3.96s1.51-2.35,2.6-3.16,2.26-1.22,3.52-1.22c.95,0,1.84.27,2.66.82.82.55,1.47,1.25,1.95,2.12.48.86.72,1.74.72,2.63,0,.38-.03.76-.09,1.13s-.09.61-.1.71c-.08.44-.14.84-.18,1.18s-.06.71-.06,1.1c0,.56.09.96.26,1.2.17.24.43.36.78.36.09,0,.18-.03.28-.1.09-.07.21-.16.33-.28.02-.02.08-.07.17-.15.09-.08.18-.13.26-.16.31,0,.53.09.66.28ZM342.67,43.08c.63-.61,1.07-1.31,1.3-2.1.23-.79.45-1.81.65-3.08,0-.29-.18-.63-.55-1.01s-.81-.7-1.32-.98c-.51-.27-.97-.41-1.38-.41-1.02,0-1.94.27-2.74.81-.8.54-1.43,1.24-1.87,2.09-.44.85-.66,1.71-.66,2.59,0,.58.19,1.09.57,1.55.38.46.87.81,1.47,1.07s1.21.38,1.84.38c1.16,0,2.06-.31,2.7-.92Z"/>
    <path class="cls-4" d="M353.66,36.49c-.65.79-.98,2.01-.98,3.65v.5l.15,4.36c0,.16-.04.36-.11.59-.07.23-.19.43-.36.61-.16.17-.38.26-.63.26-.48,0-.8-.14-.98-.41s-.27-.72-.27-1.35c0-.42,0-.85.03-1.3,0-.15.01-.35.01-.59v-1.33c0-.53.03-1.26.08-2.18s.18-2.54.37-4.86c.03-.47.14-.84.33-1.12.19-.27.47-.41.83-.41.2,0,.38.12.56.38.17.25.26.65.26,1.2,0,.84-.02,1.35-.04,1.54.2-.6.58-1.17,1.15-1.69.57-.52,1.19-.94,1.87-1.25s1.26-.47,1.76-.47c.81,0,1.53.15,2.16.45.62.3.94.9.94,1.8,0,.28-.06.54-.19.78s-.3.42-.5.55-.41.2-.63.2c-.19,0-.33-.03-.42-.1-.09-.07-.17-.17-.25-.31-.12-.22-.28-.38-.48-.5-.2-.12-.56-.18-1.06-.18h-.34c-1.51,0-2.59.4-3.24,1.19Z"/>
    <path class="cls-4" d="M364.45,46.22c-.12,0-.23.02-.33.07-.1.05-.16.08-.19.08-.2.12-.4.18-.6.18-.47,0-.77-.24-.92-.71-.14-.48-.22-1.23-.22-2.26v-1.22l.25-15.41c0-.42.08-.76.23-.99.15-.24.43-.35.83-.35.13,0,.27.05.43.14s.29.22.4.39c.11.17.16.35.16.56,0,.84-.02,1.74-.04,2.69-.04,1.62-.06,3.13-.06,4.52.61-.35,1.19-.62,1.76-.82.57-.2,1.14-.3,1.71-.3,1.84,0,3.22.56,4.15,1.67s1.4,2.77,1.4,4.96c0,1.63-.38,2.98-1.14,4.05s-1.68,1.84-2.75,2.33c-1.07.49-2.08.73-3.04.73-.67,0-1.35-.1-2.05-.31ZM364.41,42.67c.04.48.1.8.19.96.3.15.93.23,1.91.23.46,0,.96-.09,1.53-.28.56-.18,1.08-.43,1.57-.75.49-.32.85-.66,1.1-1.03.18-.31.32-.79.43-1.42.11-.64.16-1.24.16-1.82s-.21-1.1-.63-1.56c-.42-.47-.93-.83-1.53-1.1-.6-.26-1.15-.4-1.65-.4-.53,0-1.1.14-1.73.43-.63.29-1.08.62-1.37,1-.03.78-.04,1.77-.04,2.97,0,1.36.02,2.28.05,2.76Z"/>
    <path class="cls-4" d="M387.41,43.48c.18.22.28.56.28,1.02,0,.89-.67,1.47-2.02,1.76-1.35.28-2.67.42-3.98.42-.98,0-1.93-.27-2.84-.81-.91-.54-1.65-1.28-2.22-2.22-.57-.93-.85-1.96-.85-3.07,0-1.6.27-3.01.82-4.23s1.34-2.18,2.39-2.87c1.05-.68,2.29-1.03,3.73-1.03.76,0,1.52.18,2.27.54.75.36,1.37.88,1.85,1.57s.73,1.5.73,2.44c0,.48-.07.88-.22,1.21-.15.33-.35.53-.61.62l-9.01,3.06c.31.93.93,1.54,1.88,1.83s1.99.42,3.14.42c.38,0,.75-.05,1.13-.16.38-.1.82-.25,1.34-.44.33-.12.6-.22.81-.28.21-.07.4-.1.56-.1.37,0,.64.11.83.33ZM380.12,38.89c.95-.36,2.17-.83,3.66-1.42,1-.4,1.69-.66,2.05-.79-.27-.55-.72-.95-1.35-1.2-.64-.25-1.37-.38-2.2-.38-.47,0-1.04.17-1.73.5-.68.33-1.32.85-1.89,1.55-.58.7-.94,1.56-1.09,2.58.75-.2,1.59-.48,2.55-.84Z"/>
    <path class="cls-4" d="M394.9,40.87c.02.72.03,1.28.03,1.7v.51c0,2.46-.11,4.38-.32,5.73-.21,1.36-.77,2.46-1.66,3.31s-2.3,1.27-4.23,1.27c-.54,0-1.02-.09-1.44-.26-.42-.17-.63-.57-.63-1.2,0-.49.1-.82.31-1,.2-.17.51-.26.92-.26h.45c1.38,0,2.4-.34,3.08-1.02.67-.68,1.09-1.52,1.27-2.54.18-1.01.27-2.3.28-3.88l.04-8.13c.02-1.62.4-2.44,1.13-2.44.34,0,.6.14.77.42s.29.62.33,1.02c0,.63-.05,1.5-.16,2.59-.12,1.27-.18,2.22-.18,2.86l.02,1.29ZM394.06,29.16c-.41,0-.79-.12-1.16-.35s-.55-.64-.55-1.2c0-.28.08-.57.25-.86s.38-.53.63-.72c.25-.19.49-.28.73-.28.4,0,.74.13,1.04.38s.45.68.45,1.29c0,1.17-.46,1.76-1.39,1.76Z"/>
    <path class="cls-4" d="M406.97,33.08c.53.22.96.52,1.3.92s.54.85.6,1.36l.03-4.06.03-4.04c0-.99.38-1.49,1.13-1.49.29,0,.5.13.62.4s.19.58.19.95l-.02,2.1-.03,2.14-.18,8.99-.06,2.45c0,1.26-.1,2.2-.26,2.84-.16.64-.5.96-1,.96-.2,0-.37-.12-.51-.37-.14-.25-.3-.6-.48-1.08-.33.3-.76.56-1.29.77-.54.21-1.09.37-1.65.48-.57.11-1.06.16-1.47.16-1.78,0-3.12-.56-4.04-1.67s-1.37-2.63-1.37-4.55c0-1.32.27-2.56.81-3.72s1.32-2.1,2.35-2.8,2.22-1.06,3.6-1.06c.6,0,1.16.11,1.69.33ZM406.36,43.75c.6-.2,1.08-.45,1.43-.73.35-.28.57-.54.65-.78.08-.25.13-.51.16-.79.02-.28.04-.61.04-.99v-1.3c0-.64-.15-1.25-.46-1.83s-.72-1.04-1.23-1.39c-.51-.35-1.04-.52-1.6-.52-.96,0-1.8.21-2.52.62-.72.42-1.27.99-1.65,1.72-.38.73-.57,1.56-.57,2.5,0,.76.16,1.44.48,2.01.32.58.77,1.02,1.33,1.32.57.31,1.2.46,1.89.46.77,0,1.46-.1,2.06-.3Z"/>
    <path class="cls-4" d="M425.36,43.48c.18.22.28.56.28,1.02,0,.89-.67,1.47-2.02,1.76-1.35.28-2.67.42-3.98.42-.98,0-1.93-.27-2.84-.81-.91-.54-1.65-1.28-2.22-2.22-.57-.93-.85-1.96-.85-3.07,0-1.6.27-3.01.82-4.23s1.34-2.18,2.39-2.87c1.05-.68,2.29-1.03,3.73-1.03.76,0,1.52.18,2.27.54.75.36,1.37.88,1.85,1.57s.73,1.5.73,2.44c0,.48-.07.88-.22,1.21-.15.33-.35.53-.61.62l-9.01,3.06c.31.93.93,1.54,1.88,1.83s1.99.42,3.14.42c.38,0,.75-.05,1.13-.16.38-.1.82-.25,1.34-.44.33-.12.6-.22.81-.28.21-.07.4-.1.56-.1.37,0,.64.11.83.33ZM418.08,38.89c.95-.36,2.17-.83,3.66-1.42,1-.4,1.69-.66,2.05-.79-.27-.55-.72-.95-1.35-1.2-.64-.25-1.37-.38-2.2-.38-.47,0-1.04.17-1.73.5-.68.33-1.32.85-1.89,1.55-.58.7-.94,1.56-1.09,2.58.75-.2,1.59-.48,2.55-.84Z"/>
  </g>
</svg>