<?xml version="1.0" encoding="UTF-8"?>
<svg id="Layer_1" xmlns="http://www.w3.org/2000/svg" viewBox="0 0 396.7 72.87">
  <defs>
    <style>
      .cls-1 {
        fill: none;
      }

      .cls-1, .cls-2 {
        stroke: #231f20;
        stroke-miterlimit: 10;
        stroke-width: 2px;
      }

      .cls-2 {
        fill: #ffc721;
      }

      .cls-3 {
        fill: #eaa294;
      }

      .cls-4 {
        fill: #ededed;
      }

      .cls-5 {
        fill: #c18678;
      }
    </style>
  </defs>
  <path class="cls-2" d="M394.59,1.2l-.09,71.67-309.94-.52c-1.91,0-3.8-.39-5.6-1.14L3.48,39.66c-2.68-1.12-2.68-5.46,0-6.58L79.55,1.59c1.47-.61,3.02-.92,4.58-.92l310.46.52Z"/>
  <path class="cls-5" d="M48.98,22.26c-1.11.77-1.73,1.96-2.12,3.28-.18.16-.35.34-.52.51-1.11-.09-2.24.18-3.18.83-.36.25-.67.54-.96.86-.71-.03-1.43.06-2.15.31-3.8,1.32-4.63,5.92-3.94,9.87.62,3.58,2.6,7.34,5.45,9.14.58.36,1.22.66,1.88.86,1.16,1.86,2.98,3.08,5.34,2.98,2.27-.1,4.48-1.47,6.1-3.46.4.11.82.19,1.26.21,4.41.15,6.16-4.97,5.58-9.31.1-2.09-.64-4.22-1.85-5.76-.13-.17-.28-.31-.42-.46.51-.98.61-2.23.04-3.24-.24-.42-.51-.82-.8-1.2,0,0,0,0,0,0-.27-.43-.53-.85-.81-1.27-.64-.98-1.29-1.98-2.09-2.8-1.85-1.9-4.5-2.93-6.8-1.34Z"/>
  <path class="cls-3" d="M78.17,2.17c-.79.12-1.4.54-1.97,1.15-.04.04-.27.3-.45.51-.21.04-.43.15-.63.21-.26.07-.52.12-.79.17-.09.01-.31.05-.39.06-1.18.16-2.4.27-3.53.72-1.29.51-2.17,1.39-3.25,2.3.3-.26-.44.31-.42.3-.22.16-.46.3-.69.44-.35.21-.71.41-1.07.62-.25,0-.51,0-.78.05-1.04.2-2,.78-2.89,1.42-.41-.11-.85-.11-1.28.08-.58.25-1.16.53-1.73.81-.21.1-.43.21-.64.31-.09.05-.76.44-.18.09-.4.24-.87.4-1.3.55-.22.08-.44.14-.65.22-.02,0-.02,0-.04.02-1.4.03-2.48.77-3.43,1.9,0,.01-.02.02-.03.03-.61.22-1.2.46-1.79.76-.22.11-.42.25-.63.38-1.45.14-2.92.16-4.3.76-.75.33-1.49.73-2.19,1.21-.06-.02-.11-.05-.17-.06-1.11-.23-2.06-.05-3.05.6-.58.38-1.14.76-1.74,1.1-.16.09-.31.17-.47.26-.03.01-.19.09-.28.14-.1.04-.24.1-.26.11-.17.07-.35.14-.52.21-.72.29-1.45.55-2.18.8-1.59.55-3.1,1.29-4.63,2.04-.34.17-.68.33-1.03.5-.21.1-.42.21-.63.31-.03.01-.19.09-.29.14-.1.04-.28.13-.31.14-.16.07-.32.13-.49.2-.46.18-.92.38-1.34.65-.06.04-.11.09-.16.13-.83-.47-1.85-.52-2.66.08-1.27.93-1.84,2.87-1.02,4.42.42.8.73,1.54,1.29,2.26.08.1.15.19.23.29.01.02.02.03.03.05.03.08.06.13.08.17.04.13.08.26.11.4.03.13.12.89.12.8.02.33.03.65.03.98,0,.39-.02.78-.04,1.17-.01.19-.02.38-.04.57,0,.06,0,.1-.01.14,0,.05-.02.13-.04.28-.03.21-.07.41-.11.62-.08.42-.18.83-.26,1.24-.18.83-.28,1.68-.43,2.52-.07.42-.18.83-.27,1.24,0,.03-.01.04-.02.06-.04.1-.09.2-.13.29-.02.04-.05.08-.07.12-1.44.31-2.36,2.43-1.93,3.95.51,1.81,1.91,2.55,3.47,2.26.36-.07.7-.2,1.01-.38.17.21.37.4.61.54,1.6.96,3.27,1.32,5.01,1.8.38.1.74.25,1.12.36,0,0,0,.01.02.02.11.11.28.22.41.3.01,0,.02,0,.03.02.12.11.24.22.36.33.4.37.81.76,1.25,1.07,1.4,1.01,3.13,1.05,4.65,1.73.95.42,1.94.77,2.94,1.09.51.77,1.29,1.29,2.22,1.3.81.01,1.13.07,1.93.23.63.12,1.26.22,1.9.32.2.26.43.49.71.65.47.25.86.63,1.29.96.58.45,1.25.75,1.9,1.03,1.09.46,2.24.69,3.35,1.09,2.36.86,4.61,2.07,6.98,2.93,0,0,0,0,0,0,.06.05.11.11.17.15,1.01.84,2.18,1.24,3.31,1.81,1.3.65,2.54,1.45,3.86,2.05,1.33.6,2.73.95,4.07,1.51,2.41,1,4.65,2.34,7.21,2.77,1.85.31,3.97.49,5.78-.3,2.6.48,5.01-.47,7.49-1.3.38-.13.75-.29,1.12-.44,2.15.47,3.92-.39,5.89-1.4,1.77-.91,3.91-1.13,5.04-3.16.84-1.52.78-3.38.66-5.11-.19-2.73-1.7-4.36-3.86-5.28-1.77-.75-3.54-1.46-5.3-2.26-1.59-.73-2.99-1.76-4.53-2.58-1.82-.96-3.78-1.36-5.75-1.75-.52-.1-1.05-.21-1.57-.3.92-.22,1.82-.52,2.73-.77.19.05.38.07.58.07,1,0,1.96-.01,2.95-.2.32-.06.64-.16.95-.28.07.03.13.07.2.09,1.18.37,2.57.24,3.71-.22,1.14-.46,2.05-1.3,3.11-1.91.02-.01.03-.02.04-.02.02,0,.02,0,.05-.02.13-.06.26-.12.38-.17.26-.11.51-.23.77-.34.7-.32,1.4-.64,2.07-1.03,1.15-.67,2.11-1.55,2.75-2.85.64-1.31.97-2.73.59-4.13-.03-1.05-.24-2.08-.66-2.88-.87-1.63-2.34-2.32-3.78-3.07-.2-.21-.4-.43-.61-.62-.59-.55-1.27-.88-1.96-.91-.11-.08-.22-.14-.32-.22-.69-.57-1.4-1.4-2.24-1.91-1.68-1.04-3.54-1.46-5.4-1.89-.86-.2-1.73-.39-2.61-.55.41-.52.61-1.08.67-1.64,2.92-.15,5.88-.62,8.71-1.37,2.8-.73,5.68-2.2,7.29-5.07,1.92-3.42.5-7.24-2.25-9.32-.14-.1-.28-.17-.42-.26-.37-1.06-1.2-1.91-2.49-1.94-2.18-.05-4.46-.76-6.56-1.08-2.21-.34-4.47-1.04-6.78-1.1-2.16-.06-4.5-.33-6.66.03-.53-.34-1.16-.49-1.86-.39Z"/>
  <path class="cls-1" d="M19.06,46.17c5.23-5.37,5.85-14.33,1.38-20.02"/>
  <g>
    <path class="cls-1" d="M79.55,1.59c20.9.04,27.56,4.81,27.22,11.68"/>
    <path class="cls-1" d="M81.56,23.55c13.93.03,25.21-4.57,25.22-10.28"/>
  </g>
  <g>
    <path class="cls-1" d="M81.58,23.54c13.92.03,25.18,6.23,25.17,13.85"/>
    <path class="cls-1" d="M81.53,48.68c13.92.03,25.2-5.02,25.21-11.29"/>
  </g>
  <g>
    <path class="cls-1" d="M81.54,48.68c13.93.03,25.19,5.86,25.18,13.04"/>
    <path class="cls-1" d="M80.15,71.65c14.43,1.83,26.55-4.03,26.56-9.93"/>
  </g>
  <line class="cls-1" x1="11.22" y1="42.9" x2="80.15" y2="71.65"/>
  <line class="cls-1" x1="11.88" y1="29.61" x2="80.25" y2="1.3"/>
  <g>
    <path class="cls-4" d="M184.2,36.58c0,.79,0,1.41,0,1.84s0,.77,0,1.02c0,.25-.01.59-.01,1.03,0,.9-.08,1.56-.25,1.99-.16.43-.43.64-.81.64-.41,0-.68-.11-.82-.33-.14-.22-.21-.55-.21-1,0-.17,0-.47.03-.91l.06-4.79c.07-1.36.11-2.39.13-3.09.02-.7.02-1.45.02-2.25,0-.24,0-.43-.02-.59-.03-.93-.04-1.78-.04-2.53,0-.21.04-.46.11-.74.07-.29.18-.54.32-.74s.3-.31.49-.31c.53,0,.93.24,1.21.73.28.49.51,1.16.69,2.03.29,1.34.88,2.85,1.78,4.54.9,1.68,1.82,3.19,2.75,4.5.94,1.32,1.49,1.98,1.65,1.98.05,0,.09-.17.13-.51.04-.34.09-1.31.16-2.9.06-1.6.15-4.16.26-7.7.02-.8.06-1.41.12-1.82.06-.41.17-.71.33-.91.16-.19.39-.29.7-.29.29,0,.51.03.66.1s.26.21.33.45c.07.23.11.59.11,1.08,0,1.92-.07,3.77-.2,5.57-.13,1.8-.34,4.1-.62,6.9l-.04.45v.37c-.02.61-.07,1.13-.15,1.56-.08.42-.24.78-.49,1.07-.25.29-.61.43-1.09.43-.18,0-.37-.08-.57-.25s-.33-.33-.4-.48c-1.16-1.38-2.3-2.97-3.42-4.78-1.12-1.81-2.06-3.57-2.82-5.29-.04.66-.06,1.97-.06,3.94Z"/>
    <path class="cls-4" d="M209.27,29.68c.12.23.19.48.19.74,0,.22-.05.43-.16.64s-.37.63-.77,1.26c-.04.05-.07.09-.1.13-.02.04-.05.08-.07.11-.18.26-.35.51-.52.75-.43.61-.8,1.18-1.12,1.7s-.66,1.13-1.02,1.84c-.08.16-.48.91-1.19,2.24-1.22,2.24-2.19,4.14-2.92,5.7-.73,1.56-1.09,2.79-1.09,3.67,0,.41-.1.79-.29,1.14-.19.35-.43.53-.72.53-.16,0-.36-.08-.6-.25-.24-.17-.45-.38-.63-.62-.18-.25-.27-.47-.27-.67,0-.5.22-1.28.63-2.35.41-1.07.84-1.96,1.27-2.69l1.21-2.24c-.53-1.11-1.51-3.37-2.95-6.75l-1.01-2.38c-.1-.23-.18-.46-.24-.71s-.09-.44-.09-.59c.02-.46.14-.84.36-1.12.22-.28.49-.42.81-.42.22,0,.38.09.49.26.11.17.25.48.42.91.46,1.24,1.06,2.75,1.8,4.54.74,1.79,1.31,3.08,1.7,3.89l4.44-8.18c.24-.44.53-.79.89-1.04.35-.25.71-.38,1.08-.38.2,0,.36.12.48.35Z"/>
    <path class="cls-4" d="M220.3,36.49c0-.76-.09-1.43-.26-2.02-.17-.59-.56-1.1-1.15-1.52-.6-.42-1.47-.63-2.62-.63-.58,0-1.14.12-1.7.38-.56.25-1.01.56-1.36.93-.35.37-.53.72-.53,1.05v6.66c0,.38-.03.68-.06.91-.03.23-.11.43-.25.6-.14.17-.36.25-.66.25s-.55-.1-.8-.29c-.24-.19-.36-.59-.36-1.18,0-2.1.04-5.07.13-8.94.08-4.25.12-7.2.12-8.85,0-.23.05-.48.16-.77.11-.29.26-.54.45-.74s.4-.31.63-.31c.25,0,.46.12.64.37s.27.53.27.85v.06c0,.74-.03,1.93-.09,3.57-.07,1.45-.1,2.69-.1,3.7l-.07,1.71c.09-.51.33-.97.72-1.38.39-.41.85-.73,1.39-.96.53-.23,1.03-.34,1.51-.34,2.29,0,3.88.66,4.77,1.98s1.33,2.89,1.33,4.72l-.15,4.62c0,.06,0,.32-.02.79-.01.47-.12.87-.31,1.2-.19.33-.46.49-.81.49s-.64-.15-.85-.45c-.21-.3-.31-.67-.31-1.11,0-.61.06-1.47.18-2.56.12-1.06.18-1.87.18-2.45v-.33Z"/>
    <path class="cls-4" d="M236.58,40.12c.18.22.28.56.28,1.02,0,.89-.67,1.47-2.02,1.76s-2.67.42-3.98.42c-.98,0-1.93-.27-2.84-.81-.91-.54-1.65-1.28-2.22-2.22s-.85-1.96-.85-3.07c0-1.6.27-3.01.82-4.23s1.34-2.18,2.39-2.87c1.05-.68,2.29-1.03,3.73-1.03.76,0,1.52.18,2.27.54s1.37.88,1.85,1.57.73,1.5.73,2.44c0,.48-.07.88-.22,1.21-.15.33-.35.53-.61.62l-9.01,3.06c.31.93.93,1.54,1.88,1.83.94.28,1.99.42,3.14.42.38,0,.75-.05,1.13-.16s.82-.25,1.34-.44c.33-.12.6-.22.81-.28s.4-.1.56-.1c.37,0,.64.11.83.33ZM229.29,35.53c.95-.36,2.17-.83,3.66-1.42,1-.4,1.69-.66,2.06-.79-.27-.55-.72-.95-1.35-1.2-.64-.25-1.37-.38-2.2-.38-.47,0-1.04.17-1.73.5-.69.33-1.32.85-1.89,1.55s-.94,1.56-1.09,2.58c.74-.2,1.59-.48,2.55-.84Z"/>
    <path class="cls-4" d="M247.66,29.73c.53.22.97.52,1.3.92s.54.85.6,1.36l.03-4.06.03-4.04c0-.99.38-1.49,1.13-1.49.29,0,.5.13.63.4.13.26.19.58.19.95v2.1s-.04,2.14-.04,2.14l-.18,8.99-.06,2.45c-.01,1.26-.1,2.2-.26,2.84-.16.64-.5.96-1,.96-.2,0-.37-.12-.51-.37-.14-.25-.3-.6-.48-1.08-.33.3-.76.56-1.3.77-.54.21-1.09.37-1.65.48-.57.11-1.06.16-1.47.16-1.78,0-3.12-.56-4.04-1.67-.91-1.11-1.37-2.63-1.37-4.55,0-1.32.27-2.56.81-3.72.54-1.16,1.32-2.1,2.35-2.8s2.22-1.06,3.6-1.06c.6,0,1.16.11,1.69.33ZM247.05,40.4c.6-.2,1.08-.45,1.43-.73s.57-.54.65-.78c.08-.25.13-.51.16-.79.02-.28.04-.61.04-.99v-1.3c0-.64-.15-1.25-.46-1.83-.31-.58-.72-1.04-1.23-1.39-.51-.35-1.04-.52-1.6-.52-.96,0-1.8.21-2.52.62s-1.27.99-1.65,1.72c-.38.73-.57,1.56-.57,2.5,0,.76.16,1.44.48,2.01.32.58.77,1.02,1.33,1.32.57.31,1.2.46,1.89.46.77,0,1.46-.1,2.06-.3Z"/>
    <path class="cls-4" d="M256.75,42.93c-.8-.36-1.21-1.05-1.21-2.06,0-.16.05-.36.15-.6.1-.24.22-.45.37-.62.15-.17.3-.26.45-.26.05,0,.17.08.37.25.26.31.51.54.75.7.24.16.52.26.83.31.31.05.72.08,1.24.08s1.07-.06,1.68-.19c.6-.13,1.11-.28,1.53-.45s.63-.31.63-.41c0-.25-.13-.46-.39-.63-.26-.17-.58-.29-.95-.39s-.93-.21-1.67-.35c-1.16-.21-2.12-.43-2.87-.66-.75-.23-1.4-.6-1.95-1.12-.55-.51-.83-1.21-.83-2.09,0-1.09.31-2.04.94-2.85.63-.82,1.42-1.44,2.39-1.88.97-.44,1.94-.66,2.93-.66.65,0,1.22.12,1.73.37.51.25.91.57,1.19.97.28.4.42.83.42,1.3,0,.75-.06,1.35-.18,1.83s-.4.71-.85.71c-.22,0-.36-.1-.43-.3s-.1-.5-.1-.92c0-.44-.18-.75-.54-.92s-.89-.25-1.61-.25c-.5,0-1.05.12-1.65.35-.61.24-1.12.54-1.55.92s-.64.77-.64,1.18.16.75.49,1.01c.33.26.73.46,1.22.59.49.14,1.16.29,2.01.45,1.05.2,1.9.4,2.55.59.65.2,1.19.51,1.65.93.45.42.68.98.68,1.69,0,.9-.36,1.64-1.09,2.23-.72.59-1.57,1.02-2.54,1.3-.97.27-1.8.41-2.51.41-.95,0-1.83-.18-2.64-.55Z"/>
    <path class="cls-4" d="M270.76,42.87c-.12,0-.23.02-.33.07s-.16.08-.19.08c-.2.12-.4.18-.6.18-.47,0-.77-.24-.92-.71-.14-.48-.22-1.23-.22-2.26v-1.22l.25-15.41c0-.42.08-.76.23-.99s.43-.35.83-.35c.13,0,.27.05.43.14s.29.22.4.39c.11.17.16.35.16.56,0,.84-.01,1.74-.04,2.69-.04,1.62-.06,3.13-.06,4.52.61-.35,1.19-.62,1.76-.82.57-.2,1.14-.3,1.71-.3,1.84,0,3.22.56,4.15,1.67.93,1.11,1.4,2.77,1.4,4.96,0,1.63-.38,2.98-1.14,4.05-.76,1.07-1.67,1.84-2.75,2.33-1.07.49-2.08.73-3.04.73-.67,0-1.35-.1-2.05-.31ZM270.73,39.31c.03.48.1.8.19.96.3.15.93.23,1.91.23.46,0,.97-.09,1.53-.28.56-.18,1.08-.43,1.57-.75.49-.32.85-.66,1.1-1.03.18-.31.32-.79.43-1.42.11-.64.16-1.24.16-1.82s-.21-1.1-.62-1.56c-.42-.47-.93-.83-1.53-1.1s-1.15-.4-1.65-.4c-.53,0-1.1.14-1.73.43-.62.29-1.08.62-1.37,1-.03.78-.04,1.77-.04,2.97,0,1.36.02,2.28.05,2.76Z"/>
    <path class="cls-4" d="M286.04,33.14c-.65.79-.98,2.01-.98,3.65v.5l.15,4.36c0,.16-.04.36-.11.59-.07.23-.19.43-.36.61-.16.17-.37.26-.63.26-.48,0-.8-.14-.98-.41s-.27-.72-.27-1.35c0-.42,0-.85.03-1.3,0-.15.01-.35.01-.59v-1.33c0-.53.03-1.26.08-2.18s.18-2.54.37-4.86c.03-.47.14-.84.33-1.12s.47-.41.83-.41c.2,0,.38.12.56.38.17.25.26.65.26,1.2,0,.84-.01,1.35-.04,1.54.2-.6.58-1.17,1.15-1.69.57-.52,1.19-.94,1.87-1.25.67-.31,1.26-.47,1.76-.47.81,0,1.53.15,2.16.45s.94.9.94,1.8c0,.28-.06.54-.19.78s-.3.42-.5.55c-.2.13-.41.2-.63.2-.19,0-.33-.03-.42-.1-.09-.07-.17-.17-.25-.31-.12-.22-.28-.38-.48-.5-.2-.12-.56-.18-1.07-.18h-.34c-1.51,0-2.59.4-3.24,1.19Z"/>
    <path class="cls-4" d="M305.75,40.12c.18.22.28.56.28,1.02,0,.89-.67,1.47-2.02,1.76-1.35.28-2.67.42-3.98.42-.98,0-1.93-.27-2.84-.81-.91-.54-1.65-1.28-2.22-2.22-.57-.93-.85-1.96-.85-3.07,0-1.6.27-3.01.82-4.23s1.34-2.18,2.39-2.87c1.05-.68,2.29-1.03,3.73-1.03.76,0,1.52.18,2.27.54.75.36,1.37.88,1.85,1.57s.73,1.5.73,2.44c0,.48-.07.88-.22,1.21-.15.33-.35.53-.61.62l-9.01,3.06c.31.93.93,1.54,1.88,1.83s1.99.42,3.14.42c.38,0,.75-.05,1.13-.16.38-.1.82-.25,1.34-.44.33-.12.6-.22.81-.28.21-.07.4-.1.56-.1.37,0,.64.11.83.33ZM298.46,35.53c.95-.36,2.17-.83,3.66-1.42,1-.4,1.69-.66,2.05-.79-.27-.55-.72-.95-1.35-1.2-.64-.25-1.37-.38-2.2-.38-.47,0-1.04.17-1.73.5-.68.33-1.32.85-1.89,1.55-.58.7-.94,1.56-1.09,2.58.75-.2,1.59-.48,2.55-.84Z"/>
    <path class="cls-4" d="M310.82,33.05c.43,1.39.82,2.6,1.19,3.62s.83,2.14,1.38,3.34c.17-.17.52-.78,1.06-1.82.54-1.04,1.45-2.98,2.74-5.8.64-1.2,1.12-2.05,1.45-2.54.33-.5.6-.74.82-.74.26,0,.46.15.61.45.15.3.22.66.22,1.1,0,.19-.04.4-.13.64-.09.24-.27.62-.54,1.15-.27.53-.62,1.17-1.03,1.93l-.55,1.01c-2.37,5.37-4.06,8.06-5.06,8.06-.57,0-1.22-.96-1.97-2.87-.74-1.92-1.58-4.49-2.52-7.72-.32-.69-.48-1.3-.48-1.84,0-.42.05-.77.15-1.05.1-.27.31-.41.62-.41.41,0,.7.11.88.33.18.22.35.61.52,1.17l.64,2Z"/>
  </g>
</svg>