<?xml version="1.0" encoding="UTF-8"?>
<svg id="Layer_1" xmlns="http://www.w3.org/2000/svg" viewBox="0 0 465 87">
  <defs>
    <style>
      .cls-1 {
        fill: none;
      }

      .cls-1, .cls-2 {
        stroke: #231f20;
        stroke-miterlimit: 10;
        stroke-width: 2px;
      }

      .cls-2 {
        fill: #026955;
      }

      .cls-3 {
        fill: #eaa294;
      }

      .cls-4 {
        fill: #ededed;
      }

      .cls-5 {
        fill: #c18678;
      }
    </style>
  </defs>
  <path class="cls-2" d="M456.37,10.05l-.11,71.92-355.45-.53c-2.19,0-4.36-.39-6.42-1.14L7.82,48.65c-3.08-1.13-3.07-5.48,0-6.6L95.07,10.44c1.68-.61,3.46-.92,5.25-.92l356.05.53Z"/>
  <path class="cls-5" d="M60,31.19c-1.27.77-1.99,1.96-2.44,3.29-.21.16-.4.34-.6.51-1.27-.09-2.57.18-3.64.83-.41.25-.77.55-1.1.86-.82-.03-1.64.06-2.46.31-4.35,1.33-5.3,5.94-4.52,9.91.71,3.59,2.99,7.37,6.24,9.17.66.37,1.39.66,2.15.87,1.33,1.87,3.42,3.09,6.12,2.99,2.61-.1,5.14-1.47,6.99-3.48.46.11.94.19,1.45.21,5.06.16,7.06-4.98,6.4-9.34.12-2.09-.73-4.24-2.12-5.78-.15-.17-.32-.31-.48-.46.58-.98.7-2.24.04-3.25-.28-.43-.59-.82-.91-1.2,0,0,0,0,0,0-.31-.43-.61-.86-.92-1.28-.73-.98-1.48-1.99-2.4-2.81-2.12-1.91-5.16-2.94-7.8-1.35Z"/>
  <path class="cls-3" d="M93.49,11.02c-.9.12-1.6.55-2.25,1.16-.04.04-.31.3-.51.51-.24.04-.49.15-.72.21-.3.07-.6.12-.91.17-.1.01-.36.05-.45.06-1.36.16-2.75.27-4.05.73-1.48.51-2.49,1.39-3.73,2.31.35-.26-.51.31-.48.3-.26.16-.52.3-.79.44-.41.21-.82.42-1.23.62-.29-.01-.59,0-.89.05-1.2.2-2.29.78-3.31,1.43-.48-.11-.97-.11-1.47.08-.67.25-1.33.53-1.99.81-.25.1-.49.21-.73.31-.11.05-.87.44-.21.09-.46.24-1,.4-1.49.56-.25.08-.5.14-.75.22-.02,0-.03,0-.05.02-1.61.03-2.85.77-3.94,1.91,0,.01-.02.02-.03.03-.7.22-1.38.46-2.05.76-.25.11-.48.25-.72.39-1.66.14-3.35.17-4.93.76-.86.33-1.71.73-2.51,1.21-.07-.02-.13-.05-.2-.06-1.28-.23-2.36-.05-3.49.6-.66.38-1.31.76-2,1.1-.18.09-.36.17-.54.26-.03.01-.22.09-.32.14-.11.04-.27.1-.3.11-.2.07-.4.14-.6.21-.83.29-1.67.55-2.51.81-1.82.55-3.56,1.29-5.3,2.05-.39.17-.78.34-1.18.5-.24.1-.48.21-.72.32-.03.01-.22.09-.33.14-.11.04-.32.13-.35.14-.18.07-.37.13-.56.2-.52.18-1.05.38-1.53.65-.07.04-.12.09-.18.13-.95-.48-2.12-.52-3.06.08-1.46.94-2.11,2.88-1.17,4.43.49.81.84,1.54,1.48,2.27.09.1.18.19.27.29.01.02.02.03.03.05.04.08.06.13.09.17.04.13.09.26.13.4.03.13.13.9.14.8.02.33.04.65.04.98,0,.39-.02.79-.04,1.18-.01.19-.03.38-.04.57,0,.06,0,.1-.01.14,0,.05-.02.13-.05.28-.04.21-.08.42-.13.62-.09.42-.2.83-.3,1.24-.2.84-.32,1.68-.49,2.52-.08.42-.21.83-.31,1.25-.01.03-.01.04-.02.06-.05.1-.1.2-.15.29-.02.04-.05.08-.08.12-1.65.31-2.71,2.44-2.22,3.97.59,1.82,2.18,2.56,3.98,2.27.42-.07.8-.2,1.16-.38.2.21.42.4.7.54,1.84.96,3.76,1.32,5.74,1.8.43.1.85.25,1.28.36,0,0,0,.01.02.02.13.11.32.22.47.3.02,0,.02,0,.03.02.14.11.28.22.41.33.46.37.93.76,1.43,1.08,1.6,1.02,3.58,1.06,5.33,1.73,1.09.42,2.22.77,3.37,1.09.58.78,1.48,1.29,2.54,1.31.93.01,1.3.08,2.21.23.72.12,1.45.22,2.18.32.23.26.49.49.82.65.54.25.98.63,1.47.96.66.45,1.43.76,2.18,1.03,1.25.46,2.57.69,3.84,1.09,2.71.86,5.29,2.08,8,2.94,0,0,0,0,0,0,.07.05.13.11.19.16,1.16.85,2.5,1.24,3.8,1.82,1.49.66,2.91,1.46,4.43,2.05,1.53.6,3.13.95,4.67,1.51,2.76,1,5.33,2.35,8.27,2.78,2.12.31,4.56.49,6.62-.3,2.98.48,5.75-.47,8.59-1.31.43-.13.86-.29,1.28-.44,2.47.48,4.49-.39,6.75-1.41,2.03-.91,4.48-1.13,5.78-3.17.97-1.52.89-3.4.76-5.12-.22-2.74-1.95-4.37-4.42-5.3-2.03-.76-4.06-1.46-6.08-2.27-1.82-.73-3.42-1.77-5.19-2.59-2.08-.97-4.34-1.36-6.59-1.75-.6-.1-1.2-.21-1.8-.3,1.05-.22,2.09-.52,3.14-.77.21.05.44.07.66.07,1.15,0,2.25-.01,3.39-.2.37-.06.73-.16,1.09-.28.08.03.15.07.23.09,1.35.37,2.95.24,4.26-.22,1.31-.46,2.35-1.31,3.57-1.92.02-.01.03-.02.05-.02.02,0,.03,0,.05-.02.15-.06.29-.12.44-.17.29-.12.59-.23.88-.34.8-.32,1.6-.64,2.37-1.04,1.31-.68,2.42-1.56,3.15-2.86.74-1.31,1.11-2.74.68-4.14-.03-1.05-.27-2.09-.76-2.89-1-1.63-2.68-2.33-4.34-3.08-.23-.21-.46-.43-.7-.63-.68-.55-1.46-.88-2.25-.91-.12-.08-.25-.14-.37-.22-.79-.57-1.61-1.4-2.56-1.92-1.93-1.04-4.06-1.47-6.19-1.9-.99-.2-1.99-.39-2.99-.56.46-.52.7-1.09.77-1.65,3.34-.15,6.75-.63,9.99-1.37,3.21-.74,6.51-2.21,8.36-5.09,2.2-3.44.58-7.26-2.58-9.35-.16-.1-.32-.17-.48-.26-.43-1.07-1.37-1.91-2.86-1.95-2.5-.05-5.12-.76-7.53-1.09-2.54-.34-5.12-1.04-7.77-1.11-2.48-.06-5.16-.33-7.64.03-.61-.34-1.33-.5-2.13-.39Z"/>
  <path class="cls-1" d="M25.69,55.18c6-5.39,6.71-14.38,1.58-20.09"/>
  <path class="cls-1" d="M95.07,10.44c23.97.04,31.6,4.83,31.22,11.72"/>
  <path class="cls-1" d="M97.37,32.48c15.97.03,28.91-4.58,28.92-10.31"/>
  <path class="cls-1" d="M97.39,32.47c15.97.03,28.88,6.25,28.87,13.9"/>
  <path class="cls-1" d="M97.34,57.7c15.97.03,28.9-5.04,28.91-11.33"/>
  <path class="cls-1" d="M97.34,57.7c15.97.03,28.89,5.88,28.87,13.08"/>
  <path class="cls-1" d="M95.76,80.74c16.55,1.84,30.45-4.04,30.46-9.96"/>
  <line class="cls-1" x1="16.7" y1="51.89" x2="95.76" y2="80.74"/>
  <line class="cls-1" x1="17.46" y1="38.56" x2="95.86" y2="10.16"/>
  <g>
    <path class="cls-4" d="M176.23,37.05c.22.04.39.15.49.33.1.18.16.47.16.86,0,.35-.1.69-.31,1.03s-.44.51-.71.51c-4.52-.02-7.51-.05-8.96-.1,0,.3-.01.88-.03,1.73-.02.89-.03,1.51-.03,1.85l5.58-.06c.34,0,.61.12.81.35.2.23.31.59.31,1.08,0,.13-.04.31-.11.54-.07.23-.18.42-.33.59-.14.17-.32.25-.53.25-1.87,0-3.34,0-4.41-.03-.23,0-.49-.01-.77-.01-.27,0-.44.01-.51.04l.1,4.56c.65,0,1.39.01,2.2.04s1.36.05,1.64.06c1.83.08,3.25.11,4.26.11.66,0,.98.55.98,1.64,0,.54-.15.93-.44,1.16s-.67.35-1.12.35c-.42,0-1.02-.04-1.82-.11-.57-.06-1.11-.1-1.63-.13-.52-.03-1.19-.05-2.02-.05-.38,0-.82.02-1.34.07-.81.05-1.33.07-1.55.07-.39,0-.7-.17-.94-.5-.24-.33-.35-.77-.34-1.31l.09-6.29c0-.13-.02-.28-.07-.45-.01-.04-.02-.12-.04-.23-.02-.12-.03-.23-.03-.35,0-.24.06-.5.18-.79-.05-1.44-.07-2.97-.07-4.57,0-.49.02-.9.06-1.24.04-.33.15-.63.32-.88.17-.25.44-.38.81-.38.17,0,.34.01.53.04.18.03.31.05.36.06.42.08.75.11,1,.11h3.56c1.75-.03,2.94-.04,3.57-.04.51,0,.87.02,1.09.06Z"/>
    <path class="cls-4" d="M188.04,44.31c-.5-1.1-1.46-1.64-2.87-1.64-.42,0-.9.12-1.44.35s-1.06.56-1.57.97c-.51.41-.92.86-1.24,1.35,0,.32-.01.86-.03,1.61-.02.72-.03,1.21-.03,1.49,0,.29.02.58.06.86.04.28.1.62.18,1.03.06.3.11.62.16.94.04.33.07.63.07.91,0,.54-.06.94-.19,1.22-.13.27-.41.41-.83.41s-.77-.11-1.03-.34c-.26-.23-.38-.68-.36-1.37l.06-5.55c-.11-1.34-.16-2.26-.16-2.76v-.42c0-.83.08-1.59.25-2.28.17-.69.44-1.03.82-1.03.75,0,1.13.62,1.13,1.85,0,.2-.03.59-.09,1.18l-.04.37c.22-.74.62-1.37,1.19-1.9s1.2-.93,1.86-1.2c.67-.27,1.23-.4,1.7-.4,1.87,0,3.19.73,3.98,2.18s1.18,3.22,1.18,5.3c0,1.93-.09,3.51-.28,4.76s-.58,1.87-1.16,1.87c-.26,0-.47-.03-.63-.09-.16-.06-.29-.21-.39-.44-.1-.23-.15-.59-.15-1.07,0-.31.02-.62.07-.92s.12-.68.22-1.13c.11-.52.19-.93.24-1.23.05-.3.07-.62.07-.96,0-1.5-.25-2.8-.75-3.89Z"/>
    <path class="cls-4" d="M207.92,40.33c.53.22.97.52,1.3.92s.54.85.6,1.36l.03-4.06.03-4.04c0-.99.38-1.49,1.13-1.49.29,0,.5.13.63.4.13.26.19.58.19.95v2.1s-.04,2.14-.04,2.14l-.18,8.99-.06,2.45c-.01,1.26-.1,2.2-.26,2.84-.16.64-.5.96-1,.96-.2,0-.37-.12-.51-.37-.14-.25-.3-.6-.48-1.08-.33.3-.76.56-1.3.77-.54.21-1.09.37-1.65.48-.57.11-1.06.16-1.47.16-1.78,0-3.12-.56-4.04-1.67-.91-1.11-1.37-2.63-1.37-4.55,0-1.32.27-2.56.81-3.72.54-1.16,1.32-2.1,2.35-2.8s2.22-1.06,3.6-1.06c.6,0,1.16.11,1.69.33ZM207.3,51c.6-.2,1.08-.45,1.43-.73s.57-.54.65-.78c.08-.25.13-.51.16-.79.02-.28.04-.61.04-.99v-1.3c0-.64-.15-1.25-.46-1.83-.31-.58-.72-1.04-1.23-1.39-.51-.35-1.04-.52-1.6-.52-.96,0-1.8.21-2.52.62s-1.27.99-1.65,1.72c-.38.73-.57,1.56-.57,2.5,0,.76.16,1.44.48,2.01.32.58.77,1.02,1.33,1.32.57.31,1.2.46,1.89.46.77,0,1.46-.1,2.06-.3Z"/>
    <path class="cls-4" d="M228.97,50.83c.13.19.2.49.2.91,0,.32-.09.64-.28.96s-.45.59-.77.79c-.33.21-.69.31-1.09.31s-.78-.13-1.17-.4c-.39-.27-.71-.62-.96-1.06-.25-.44-.37-.89-.37-1.35-.74.9-1.52,1.62-2.32,2.16-.8.54-1.65.81-2.55.81-.82,0-1.66-.25-2.51-.76-.85-.51-1.55-1.2-2.09-2.06-.55-.86-.82-1.8-.82-2.8,0-1.35.32-2.67.97-3.96.65-1.29,1.51-2.35,2.6-3.16,1.09-.81,2.26-1.22,3.52-1.22.95,0,1.84.27,2.66.82.82.55,1.47,1.25,1.95,2.12.48.86.72,1.74.72,2.63,0,.38-.03.76-.09,1.13s-.09.61-.1.71c-.08.44-.14.84-.18,1.18s-.06.71-.06,1.1c0,.56.09.96.26,1.2.17.24.43.36.78.36.09,0,.18-.03.28-.1s.21-.16.34-.28c.02-.02.08-.07.17-.15.09-.08.18-.13.26-.16.31,0,.53.09.66.28ZM222.83,50.32c.64-.61,1.07-1.31,1.3-2.1.23-.79.45-1.81.65-3.08,0-.29-.18-.63-.55-1.01-.37-.38-.81-.7-1.32-.98-.51-.27-.97-.41-1.38-.41-1.02,0-1.94.27-2.74.81-.8.54-1.43,1.24-1.87,2.09-.44.85-.66,1.71-.66,2.59,0,.58.19,1.09.57,1.55.38.46.87.81,1.47,1.07.6.25,1.21.38,1.84.38,1.16,0,2.06-.31,2.7-.92Z"/>
    <path class="cls-4" d="M238.29,57.04c.25-.41.42-.9.51-1.48.09-.58.17-1.34.24-2.29.04-.66.08-1.15.12-1.46-.11.42-.38.8-.8,1.13s-.91.58-1.47.76c-.56.17-1.07.26-1.55.26-1.79,0-3.14-.52-4.07-1.56-.93-1.04-1.39-2.59-1.39-4.65,0-1.34.21-2.6.63-3.77s1.05-2.11,1.9-2.83c.85-.72,1.89-1.08,3.13-1.08.97,0,1.92.31,2.84.93.92.62,1.67,1.38,2.24,2.29.57.91.86,1.78.86,2.6l-.28,6.7v.2c-.06.25-.14.84-.25,1.74-.16,1.27-.34,2.31-.54,3.09-.2.79-.56,1.46-1.09,2.02-.53.56-1.29.83-2.27.83-.39,0-.89-.06-1.5-.19-.62-.13-1.17-.34-1.66-.64-.49-.3-.74-.7-.74-1.2,0-.47.07-.83.2-1.08.13-.25.38-.37.74-.37.09,0,.17.01.25.04s.15.07.22.11c.25.15.56.27.92.37.37.09.95.14,1.76.14.47,0,.82-.21,1.07-.62ZM237.36,50.69c.52-.42.95-.95,1.3-1.56.35-.62.6-1.23.76-1.83-.11-.82-.28-1.55-.5-2.19-.22-.64-.58-1.18-1.07-1.63s-1.15-.67-1.99-.67c-1.36,0-2.35.44-2.96,1.33-.62.89-.93,2.03-.95,3.43,0,1.39.32,2.36.97,2.92.65.56,1.56.84,2.75.84.62,0,1.18-.21,1.7-.64Z"/>
    <path class="cls-4" d="M253.19,53.55c-.21.27-.44.41-.7.41-.37,0-.66-.11-.87-.33-.21-.22-.38-.59-.48-1.11-.08-.45-.12-1.42-.12-2.9,0-2.45.1-4.68.31-6.68.2-2,.67-2.99,1.39-2.99.3,0,.49.12.59.38.09.25.14.61.14,1.08l-.12,1.98c-.05.67-.09,1.37-.13,2.11-.04.74-.06,1.39-.06,1.97,0,.61.06,1.47.19,2.58.12,1.15.18,1.95.18,2.39,0,.47-.1.84-.31,1.12ZM252.95,37.01c-.41,0-.79-.11-1.14-.34s-.53-.62-.53-1.19c0-.28.08-.57.25-.86s.37-.53.61-.72.47-.28.69-.28c.41,0,.76.12,1.06.37s.45.67.45,1.26c0,1.18-.46,1.77-1.38,1.77Z"/>
    <path class="cls-4" d="M265.04,53.47c-.12,0-.23.02-.33.07-.1.05-.16.08-.19.08-.2.12-.4.18-.6.18-.47,0-.77-.24-.92-.71-.14-.48-.22-1.23-.22-2.26v-1.22l.25-15.41c0-.42.08-.76.23-.99.15-.24.43-.35.83-.35.13,0,.27.05.43.14.16.09.29.22.4.39.11.17.16.35.16.56,0,.84-.01,1.74-.04,2.69-.04,1.62-.06,3.13-.06,4.52.61-.35,1.19-.62,1.76-.82.57-.2,1.14-.3,1.71-.3,1.84,0,3.22.56,4.15,1.67.93,1.11,1.4,2.77,1.4,4.96,0,1.63-.38,2.98-1.14,4.05-.76,1.07-1.67,1.84-2.75,2.33-1.07.49-2.08.73-3.04.73-.67,0-1.35-.1-2.05-.31ZM265.01,49.91c.03.48.1.8.19.96.3.15.93.23,1.91.23.46,0,.97-.09,1.53-.28.56-.18,1.08-.43,1.57-.75.49-.32.85-.66,1.1-1.03.18-.31.32-.79.43-1.42.11-.64.16-1.24.16-1.82s-.21-1.1-.62-1.56c-.42-.47-.93-.83-1.53-1.1s-1.15-.4-1.65-.4c-.53,0-1.1.14-1.73.43-.62.29-1.08.62-1.37,1-.03.78-.04,1.77-.04,2.97,0,1.36.02,2.28.05,2.76Z"/>
    <path class="cls-4" d="M276.85,49.24c-.27-.8-.41-1.51-.41-2.15,0-1.64.3-3,.9-4.06.6-1.06,1.38-1.83,2.32-2.32.95-.48,1.97-.72,3.06-.72,1.16,0,2.19.29,3.1.88.23-.28.52-.56.88-.83.36-.27.67-.4.94-.4.58,0,.86.37.86,1.12,0,.24-.04.43-.11.59-.07.16-.19.3-.34.45-.15.14-.41.35-.75.62.35.6.62,1.31.83,2.11s.3,1.66.3,2.56c0,1.31-.29,2.49-.86,3.54-.57,1.05-1.32,1.86-2.26,2.45-.93.59-1.92.88-2.96.88-.32,0-.75-.09-1.31-.28-.55-.19-1.05-.39-1.47-.59-.05.11-.16.29-.33.53-.17.24-.36.46-.56.66s-.38.3-.54.3c-.42,0-.74-.12-.97-.38-.23-.25-.34-.57-.34-.97,0-.31.07-.58.2-.81.13-.23.32-.49.57-.78,0,0,.09-.1.24-.27-.39-.62-.72-1.33-.99-2.13ZM280.38,47.86c.32-.51,1.01-1.47,2.07-2.89l.51-.68,1.12-1.52c-.1-.06-.21-.09-.34-.1-.12,0-.34-.01-.66-.01-.81,0-1.59.16-2.32.47-.73.31-1.32.78-1.77,1.41-.45.63-.68,1.39-.68,2.29,0,.49.11.99.32,1.5s.41.9.59,1.16l1.16-1.63ZM282.72,48.27c-1.1,1.58-1.74,2.48-1.91,2.72.52.23.99.34,1.41.34.72,0,1.41-.17,2.06-.51.64-.34,1.17-.83,1.57-1.48.4-.65.61-1.4.62-2.26,0-.56-.07-1.11-.21-1.67-.14-.56-.36-.96-.63-1.2-.58.74-1.54,2.09-2.9,4.06Z"/>
    <path class="cls-4" d="M294.73,43.74c-.65.79-.98,2.01-.98,3.65v.5l.15,4.36c0,.16-.04.36-.11.59-.07.23-.19.43-.36.61-.16.17-.38.26-.63.26-.48,0-.8-.14-.98-.41s-.27-.72-.27-1.35c0-.42,0-.85.03-1.3,0-.15.01-.35.01-.59v-1.33c0-.53.03-1.26.08-2.18s.18-2.54.37-4.86c.03-.47.14-.84.33-1.12.19-.27.47-.41.83-.41.2,0,.38.12.56.38.17.25.26.65.26,1.2,0,.84-.02,1.35-.04,1.54.2-.6.58-1.17,1.15-1.69.57-.52,1.19-.94,1.87-1.25s1.26-.47,1.76-.47c.81,0,1.53.15,2.16.45.62.3.94.9.94,1.8,0,.28-.06.54-.19.78s-.3.42-.5.55-.41.2-.63.2c-.19,0-.33-.03-.42-.1-.09-.07-.17-.17-.25-.31-.12-.22-.28-.38-.48-.5-.2-.12-.56-.18-1.06-.18h-.34c-1.51,0-2.59.4-3.24,1.19Z"/>
    <path class="cls-4" d="M312.5,44.31c-.5-1.1-1.46-1.64-2.87-1.64-.42,0-.9.12-1.44.35s-1.07.56-1.57.97c-.51.41-.92.86-1.24,1.35,0,.32,0,.86-.03,1.61-.02.72-.03,1.21-.03,1.49,0,.29.02.58.06.86.04.28.1.62.18,1.03.06.3.11.62.16.94.04.33.07.63.07.91,0,.54-.06.94-.19,1.22s-.41.41-.83.41-.77-.11-1.03-.34c-.26-.23-.38-.68-.36-1.37l.06-5.55c-.11-1.34-.16-2.26-.16-2.76v-.42c0-.83.08-1.59.25-2.28s.44-1.03.82-1.03c.75,0,1.13.62,1.13,1.85,0,.2-.03.59-.09,1.18l-.04.37c.22-.74.62-1.37,1.19-1.9.58-.53,1.2-.93,1.86-1.2.67-.27,1.23-.4,1.7-.4,1.87,0,3.19.73,3.98,2.18s1.18,3.22,1.18,5.3c0,1.93-.09,3.51-.28,4.76s-.58,1.87-1.16,1.87c-.26,0-.47-.03-.63-.09-.16-.06-.29-.21-.39-.44-.1-.23-.15-.59-.15-1.07,0-.31.03-.62.08-.92.05-.3.12-.68.22-1.13.11-.52.19-.93.24-1.23s.08-.62.08-.96c0-1.5-.25-2.8-.75-3.89Z"/>
    <path class="cls-4" d="M329.41,50.72c.18.22.28.56.28,1.02,0,.89-.67,1.47-2.02,1.76-1.35.28-2.67.42-3.98.42-.98,0-1.93-.27-2.84-.81-.91-.54-1.65-1.28-2.22-2.22-.57-.93-.85-1.96-.85-3.07,0-1.6.27-3.01.82-4.23s1.34-2.18,2.39-2.87c1.05-.68,2.29-1.03,3.73-1.03.76,0,1.52.18,2.27.54.75.36,1.37.88,1.85,1.57s.73,1.5.73,2.44c0,.48-.07.88-.22,1.21-.15.33-.35.53-.61.62l-9.01,3.06c.31.93.93,1.54,1.88,1.83s1.99.42,3.14.42c.38,0,.75-.05,1.13-.16.38-.1.82-.25,1.34-.44.33-.12.6-.22.81-.28.21-.07.4-.1.56-.1.37,0,.64.11.83.33ZM322.12,46.13c.95-.36,2.17-.83,3.66-1.42,1-.4,1.69-.66,2.05-.79-.27-.55-.72-.95-1.35-1.2-.64-.25-1.37-.38-2.2-.38-.47,0-1.04.17-1.73.5-.68.33-1.32.85-1.89,1.55-.58.7-.94,1.56-1.09,2.58.75-.2,1.59-.48,2.55-.84Z"/>
    <path class="cls-4" d="M342.26,47.1c0-.76-.09-1.43-.26-2.02s-.56-1.1-1.15-1.52c-.6-.42-1.47-.63-2.62-.63-.58,0-1.14.12-1.7.38-.56.25-1.01.56-1.36.93-.35.37-.53.72-.53,1.05v6.66c-.01.38-.03.68-.06.91-.03.23-.11.43-.25.6-.14.17-.36.25-.66.25s-.55-.1-.8-.29c-.24-.19-.37-.59-.37-1.18,0-2.1.04-5.07.13-8.94.08-4.25.12-7.2.12-8.85,0-.23.05-.48.16-.77.11-.29.26-.54.45-.74.19-.21.4-.31.62-.31.25,0,.46.12.64.37s.27.53.27.85v.06c0,.74-.03,1.93-.09,3.57-.07,1.45-.1,2.69-.1,3.7l-.07,1.71c.09-.51.33-.97.72-1.38.39-.41.85-.73,1.38-.96s1.04-.34,1.51-.34c2.29,0,3.88.66,4.77,1.98s1.33,2.89,1.33,4.72l-.15,4.62c0,.06,0,.32-.02.79-.02.47-.12.87-.31,1.2-.19.33-.46.49-.81.49s-.64-.15-.85-.45c-.21-.3-.31-.67-.31-1.11,0-.61.06-1.47.18-2.56.12-1.06.18-1.87.18-2.45v-.33Z"/>
    <path class="cls-4" d="M361.21,50.83c.13.19.2.49.2.91,0,.32-.09.64-.28.96-.19.32-.45.59-.77.79-.33.21-.69.31-1.09.31s-.78-.13-1.17-.4c-.39-.27-.71-.62-.96-1.06-.25-.44-.37-.89-.37-1.35-.75.9-1.52,1.62-2.32,2.16-.8.54-1.65.81-2.55.81-.82,0-1.66-.25-2.51-.76s-1.55-1.2-2.09-2.06c-.55-.86-.82-1.8-.82-2.8,0-1.35.32-2.67.97-3.96s1.51-2.35,2.6-3.16,2.26-1.22,3.52-1.22c.95,0,1.84.27,2.66.82.82.55,1.47,1.25,1.95,2.12.48.86.72,1.74.72,2.63,0,.38-.03.76-.09,1.13s-.09.61-.1.71c-.08.44-.14.84-.18,1.18s-.06.71-.06,1.1c0,.56.09.96.26,1.2.17.24.43.36.78.36.09,0,.18-.03.28-.1.09-.07.21-.16.33-.28.02-.02.08-.07.17-.15.09-.08.18-.13.26-.16.31,0,.53.09.66.28ZM355.06,50.32c.63-.61,1.07-1.31,1.3-2.1.23-.79.45-1.81.65-3.08,0-.29-.18-.63-.55-1.01s-.81-.7-1.32-.98c-.51-.27-.97-.41-1.38-.41-1.02,0-1.94.27-2.74.81-.8.54-1.43,1.24-1.87,2.09-.44.85-.66,1.71-.66,2.59,0,.58.19,1.09.57,1.55.38.46.87.81,1.47,1.07s1.21.38,1.84.38c1.16,0,2.06-.31,2.7-.92Z"/>
    <path class="cls-4" d="M364.55,43.65c.43,1.39.82,2.6,1.19,3.62s.83,2.14,1.38,3.34c.17-.17.52-.78,1.06-1.82.54-1.04,1.45-2.98,2.74-5.8.64-1.2,1.12-2.05,1.45-2.54.33-.5.6-.74.82-.74.26,0,.46.15.61.45.15.3.22.66.22,1.1,0,.19-.04.4-.13.64-.09.24-.27.62-.54,1.15-.27.53-.62,1.17-1.03,1.93l-.55,1.01c-2.37,5.37-4.06,8.06-5.06,8.06-.57,0-1.22-.96-1.97-2.87-.74-1.92-1.58-4.49-2.52-7.72-.32-.69-.48-1.3-.48-1.84,0-.42.05-.77.15-1.05.1-.27.31-.41.62-.41.41,0,.7.11.88.33.18.22.35.61.52,1.17l.64,2Z"/>
    <path class="cls-4" d="M387.25,50.72c.18.22.28.56.28,1.02,0,.89-.67,1.47-2.02,1.76-1.35.28-2.67.42-3.98.42-.98,0-1.93-.27-2.84-.81-.91-.54-1.65-1.28-2.22-2.22-.57-.93-.85-1.96-.85-3.07,0-1.6.27-3.01.82-4.23s1.34-2.18,2.39-2.87c1.05-.68,2.29-1.03,3.73-1.03.76,0,1.52.18,2.27.54.75.36,1.37.88,1.85,1.57s.73,1.5.73,2.44c0,.48-.07.88-.22,1.21-.15.33-.35.53-.61.62l-9.01,3.06c.31.93.93,1.54,1.88,1.83s1.99.42,3.14.42c.38,0,.75-.05,1.13-.16.38-.1.82-.25,1.34-.44.33-.12.6-.22.81-.28.21-.07.4-.1.56-.1.37,0,.64.11.83.33ZM379.96,46.13c.95-.36,2.17-.83,3.66-1.42,1-.4,1.69-.66,2.05-.79-.27-.55-.72-.95-1.35-1.2-.64-.25-1.37-.38-2.2-.38-.47,0-1.04.17-1.73.5-.68.33-1.32.85-1.89,1.55-.58.7-.94,1.56-1.09,2.58.75-.2,1.59-.48,2.55-.84Z"/>
    <path class="cls-4" d="M399.56,44.31c-.5-1.1-1.46-1.64-2.87-1.64-.42,0-.9.12-1.44.35s-1.07.56-1.57.97c-.51.41-.92.86-1.24,1.35,0,.32,0,.86-.03,1.61-.02.72-.03,1.21-.03,1.49,0,.29.02.58.06.86.04.28.1.62.18,1.03.06.3.11.62.16.94.04.33.07.63.07.91,0,.54-.06.94-.19,1.22s-.41.41-.83.41-.77-.11-1.03-.34c-.26-.23-.38-.68-.36-1.37l.06-5.55c-.11-1.34-.16-2.26-.16-2.76v-.42c0-.83.08-1.59.25-2.28s.44-1.03.82-1.03c.75,0,1.13.62,1.13,1.85,0,.2-.03.59-.09,1.18l-.04.37c.22-.74.62-1.37,1.19-1.9.58-.53,1.2-.93,1.86-1.2.67-.27,1.23-.4,1.7-.4,1.87,0,3.19.73,3.98,2.18s1.18,3.22,1.18,5.3c0,1.93-.09,3.51-.28,4.76s-.58,1.87-1.16,1.87c-.26,0-.47-.03-.63-.09-.16-.06-.29-.21-.39-.44-.1-.23-.15-.59-.15-1.07,0-.31.03-.62.08-.92.05-.3.12-.68.22-1.13.11-.52.19-.93.24-1.23s.08-.62.08-.96c0-1.5-.25-2.8-.75-3.89Z"/>
  </g>
</svg>