<?xml version="1.0" encoding="UTF-8"?>
<svg id="Layer_1" xmlns="http://www.w3.org/2000/svg" viewBox="0 0 587.49 73.46">
  <defs>
    <style>
      .cls-1 {
        fill: none;
      }

      .cls-1, .cls-2 {
        stroke: #231f20;
        stroke-miterlimit: 10;
        stroke-width: 2px;
      }

      .cls-2 {
        fill: #026955;
      }

      .cls-3 {
        fill: #eaa294;
      }

      .cls-4 {
        fill: #ededed;
        font-family: Dekko, Dekko;
        font-size: 29px;
      }

      .cls-5 {
        fill: #c18678;
      }
    </style>
  </defs>
  <g>
    <path class="cls-2" d="M586.03,1.54l-.14,71.92-460.8-.53c-2.84,0-5.65-.39-8.32-1.14L4.54,40.14c-3.99-1.13-3.98-5.48.01-6.6L117.64,1.94c2.18-.61,4.49-.92,6.81-.92l461.58.53Z"/>
    <path class="cls-5" d="M72.18,22.68c-1.65.77-2.58,1.96-3.16,3.29-.27.16-.52.34-.77.51-1.64-.09-3.33.18-4.72.83-.53.25-.99.55-1.43.86-1.06-.03-2.13.06-3.19.31-5.64,1.33-6.88,5.94-5.86,9.91.92,3.59,3.87,7.37,8.1,9.17.86.37,1.81.66,2.79.87,1.73,1.87,4.44,3.09,7.93,2.99,3.38-.1,6.66-1.47,9.06-3.48.6.11,1.22.19,1.88.21,6.56.16,9.16-4.98,8.3-9.34.15-2.09-.95-4.24-2.75-5.78-.19-.17-.41-.31-.62-.46.75-.98.91-2.24.05-3.25-.36-.43-.76-.82-1.18-1.2,0,0,0,0,0,0-.4-.43-.79-.86-1.2-1.28-.95-.98-1.92-1.99-3.11-2.81-2.75-1.91-6.68-2.94-10.11-1.35Z"/>
    <path class="cls-3" d="M115.59,2.52c-1.17.12-2.08.55-2.92,1.16-.06.04-.4.3-.66.51-.31.04-.63.15-.94.21-.39.07-.78.12-1.17.17-.13.01-.46.05-.58.06-1.76.16-3.57.27-5.25.73-1.92.51-3.23,1.39-4.83,2.31.45-.26-.66.31-.62.3-.33.16-.68.3-1.02.44-.53.21-1.06.42-1.59.62-.38-.01-.76,0-1.15.05-1.55.2-2.97.78-4.3,1.43-.62-.11-1.26-.11-1.91.08-.87.25-1.72.53-2.58.81-.32.1-.64.21-.95.31-.14.05-1.13.44-.27.09-.59.24-1.29.4-1.93.56-.32.08-.65.14-.97.22-.03,0-.03,0-.06.02-2.09.03-3.69.77-5.1,1.91-.01.01-.03.02-.04.03-.9.22-1.79.46-2.66.76-.33.11-.63.25-.93.39-2.16.14-4.35.17-6.39.76-1.12.33-2.21.73-3.25,1.21-.09-.02-.17-.05-.26-.06-1.66-.23-3.06-.05-4.53.6-.86.38-1.7.76-2.59,1.1-.23.09-.46.17-.7.26-.04.01-.28.09-.41.14-.15.04-.36.1-.39.11-.26.07-.52.14-.77.21-1.07.29-2.16.55-3.25.81-2.36.55-4.61,1.29-6.88,2.05-.51.17-1.02.34-1.52.5-.31.1-.63.21-.94.32-.04.01-.29.09-.43.14-.14.04-.42.13-.45.14-.24.07-.48.13-.72.2-.68.18-1.36.38-1.99.65-.09.04-.16.09-.24.13-1.24-.48-2.75-.52-3.96.08-1.89.94-2.73,2.88-1.52,4.43.63.81,1.09,1.54,1.92,2.27.12.1.23.19.35.29.02.02.02.03.04.05.05.08.08.13.11.17.06.13.12.26.16.4.04.13.17.9.18.8.03.33.05.65.05.98,0,.39-.02.79-.06,1.18-.02.19-.03.38-.05.57,0,.06-.01.1-.02.14-.01.05-.03.13-.06.28-.05.21-.11.42-.17.62-.12.42-.26.83-.39,1.24-.26.84-.42,1.68-.64,2.52-.11.42-.27.83-.41,1.25-.01.03-.02.04-.03.06-.06.1-.13.2-.2.29-.03.04-.07.08-.1.12-2.14.31-3.51,2.44-2.87,3.97.76,1.82,2.83,2.56,5.16,2.27.54-.07,1.04-.2,1.51-.38.26.21.55.4.9.54,2.38.96,4.87,1.32,7.45,1.8.56.1,1.1.25,1.66.36.01,0,.01.01.03.02.16.11.42.22.61.3.02,0,.02,0,.04.02.18.11.36.22.54.33.6.37,1.2.76,1.85,1.08,2.08,1.02,4.65,1.06,6.91,1.73,1.41.42,2.88.77,4.37,1.09.75.78,1.91,1.29,3.3,1.31,1.2.01,1.68.08,2.86.23.94.12,1.88.22,2.82.32.29.26.64.49,1.06.65.7.25,1.27.63,1.91.96.86.45,1.86.76,2.83,1.03,1.62.46,3.33.69,4.98,1.09,3.51.86,6.86,2.08,10.38,2.94,0,0,0,0,.01,0,.08.05.16.11.25.16,1.51.85,3.24,1.24,4.93,1.82,1.93.66,3.77,1.46,5.74,2.05,1.98.6,4.06.95,6.05,1.51,3.58,1,6.91,2.35,10.72,2.78,2.75.31,5.91.49,8.59-.3,3.86.48,7.45-.47,11.13-1.31.56-.13,1.11-.29,1.67-.44,3.2.48,5.82-.39,8.75-1.41,2.63-.91,5.81-1.13,7.5-3.17,1.25-1.52,1.16-3.4.98-5.12-.28-2.74-2.52-4.37-5.73-5.3-2.63-.76-5.27-1.46-7.88-2.27-2.36-.73-4.44-1.77-6.73-2.59-2.7-.97-5.62-1.36-8.54-1.75-.78-.1-1.55-.21-2.33-.3,1.37-.22,2.71-.52,4.07-.77.28.05.56.07.86.07,1.49,0,2.92-.01,4.39-.2.48-.06.95-.16,1.42-.28.1.03.19.07.29.09,1.75.37,3.82.24,5.52-.22,1.69-.46,3.04-1.31,4.63-1.92.03-.01.04-.02.06-.02.02,0,.03,0,.07-.02.19-.06.38-.12.57-.17.38-.12.76-.23,1.14-.34,1.04-.32,2.08-.64,3.07-1.04,1.7-.68,3.14-1.56,4.09-2.86.95-1.31,1.45-2.74.88-4.14-.04-1.05-.35-2.09-.99-2.89-1.3-1.63-3.48-2.33-5.63-3.08-.3-.21-.6-.43-.9-.63-.88-.55-1.89-.88-2.91-.91-.16-.08-.33-.14-.48-.22-1.03-.57-2.08-1.4-3.32-1.92-2.5-1.04-5.27-1.47-8.02-1.9-1.28-.2-2.58-.39-3.88-.56.6-.52.9-1.09.99-1.65,4.34-.15,8.75-.63,12.95-1.37,4.16-.74,8.45-2.21,10.83-5.09,2.85-3.44.75-7.26-3.35-9.35-.2-.1-.41-.17-.62-.26-.55-1.07-1.78-1.91-3.7-1.95-3.24-.05-6.63-.76-9.76-1.09-3.29-.34-6.64-1.04-10.07-1.11-3.21-.06-6.7-.33-9.91.03-.79-.34-1.72-.5-2.76-.39Z"/>
    <path class="cls-1" d="M27.7,46.67c7.78-5.39,8.7-14.38,2.05-20.09"/>
    <path class="cls-1" d="M117.64,1.94c31.08.04,40.97,4.83,40.48,11.72"/>
    <path class="cls-1" d="M120.63,23.97c20.71.03,37.47-4.58,37.49-10.31"/>
    <path class="cls-1" d="M120.65,23.96c20.7.03,37.44,6.25,37.42,13.9"/>
    <path class="cls-1" d="M120.58,49.19c20.7.03,37.47-5.04,37.48-11.33"/>
    <path class="cls-1" d="M120.59,49.19c20.71.03,37.45,5.88,37.43,13.08"/>
    <path class="cls-1" d="M118.53,72.23c21.46,1.84,39.47-4.04,39.49-9.96"/>
    <line class="cls-1" x1="16.05" y1="43.38" x2="118.53" y2="72.23"/>
    <line class="cls-1" x1="17.03" y1="30.05" x2="118.67" y2="1.65"/>
  </g>
  <text class="cls-4" transform="translate(179.81 43.52) scale(1.05 1)"><tspan x="0" y="0">En dag i børnehaven/dagsrytme</tspan></text>
</svg>