<?xml version="1.0" encoding="UTF-8"?>
<svg id="Layer_1" xmlns="http://www.w3.org/2000/svg" viewBox="0 0 1920 50">
  <defs>
    <style>
      .cls-1, .cls-2 {
        fill: none;
        stroke: #ffc721;
        stroke-linecap: round;
        stroke-miterlimit: 10;
        stroke-width: 35px;
      }

      .cls-2 {
        stroke-dasharray: 95.79 95.79;
      }
    </style>
  </defs>
  <path class="cls-1" d="M.5,22.5c1.19,0,1.19,6,2.37,6s1.19-6,2.38-6,1.19,6,2.38,6,1.19-6,2.38-6,1.19,6,2.38,6,1.19-6,2.38-6,1.19,6,2.38,6,1.19-6,2.38-6,1.19,6,2.38,6,1.19-6,2.38-6,1.19,6,2.38,6,1.19-6,2.38-6,1.19,6,2.38,6,1.19-6,2.38-6,1.19,6,2.38,6,1.19-6,2.38-6,1.19,6,2.38,6,1.19-6,2.38-6,1.19,6,2.38,6,1.19-6,2.39-6,1.19,6,2.39,6"/>
  <path class="cls-2" d="M146.29,22.5c39.91,0,39.91,6,79.82,6s39.91-6,79.82-6,39.91,6,79.82,6,39.91-6,79.82-6,39.91,6,79.82,6,39.91-6,79.82-6,39.91,6,79.82,6,39.91-6,79.82-6,39.91,6,79.83,6,39.91-6,79.82-6,39.91,6,79.82,6,39.91-6,79.82-6,39.91,6,79.83,6,39.91-6,79.82-6,39.91,6,79.83,6,39.91-6,79.83-6,39.91,6,79.83,6,39.91-6,79.83-6,39.91,6,79.83,6,39.92-6,79.83-6,39.92,6,79.83,6"/>
  <path class="cls-1" d="M1870.5,22.5c1.19,0,1.19,6,2.37,6s1.19-6,2.38-6,1.19,6,2.38,6,1.19-6,2.38-6,1.19,6,2.38,6,1.19-6,2.38-6,1.19,6,2.38,6,1.19-6,2.38-6,1.19,6,2.38,6,1.19-6,2.38-6,1.19,6,2.38,6,1.19-6,2.38-6,1.19,6,2.38,6,1.19-6,2.38-6,1.19,6,2.38,6,1.19-6,2.38-6,1.19,6,2.38,6,1.19-6,2.38-6,1.19,6,2.38,6,1.19-6,2.39-6,1.19,6,2.39,6"/>
</svg>