<?xml version="1.0" encoding="UTF-8"?>
<svg id="Layer_1" xmlns="http://www.w3.org/2000/svg" viewBox="0 0 452.17 72.87">
  <defs>
    <style>
      .cls-1 {
        fill: none;
      }

      .cls-1, .cls-2 {
        stroke: #231f20;
        stroke-miterlimit: 10;
        stroke-width: 2px;
      }

      .cls-2 {
        fill: #ffc721;
      }

      .cls-3 {
        fill: #eaa294;
      }

      .cls-4 {
        fill: #ededed;
      }

      .cls-5 {
        fill: #c18678;
      }
    </style>
  </defs>
  <path class="cls-2" d="M450.79,1.2l-.11,71.67-354.24-.52c-2.18,0-4.35-.39-6.4-1.14L3.77,39.66c-3.07-1.12-3.06-5.46,0-6.58L90.72,1.59c1.68-.61,3.45-.92,5.24-.92l354.84.52Z"/>
  <path class="cls-5" d="M55.77,22.26c-1.27.77-1.98,1.96-2.43,3.28-.21.16-.4.34-.59.51-1.26-.09-2.56.18-3.63.83-.41.25-.76.54-1.1.86-.81-.03-1.64.06-2.45.31-4.34,1.32-5.29,5.92-4.51,9.87.71,3.58,2.98,7.34,6.22,9.14.66.36,1.39.66,2.15.86,1.33,1.86,3.41,3.08,6.1,2.98,2.6-.1,5.12-1.47,6.97-3.46.46.11.94.19,1.44.21,5.05.15,7.04-4.97,6.38-9.31.12-2.09-.73-4.22-2.11-5.76-.15-.17-.32-.31-.48-.46.58-.98.7-2.23.04-3.24-.28-.42-.59-.82-.91-1.2,0,0,0,0,0,0-.31-.43-.61-.85-.92-1.27-.73-.98-1.48-1.98-2.39-2.8-2.12-1.9-5.14-2.93-7.77-1.34Z"/>
  <path class="cls-3" d="M89.14,2.17c-.9.12-1.6.54-2.25,1.15-.04.04-.31.3-.51.51-.24.04-.49.15-.72.21-.3.07-.6.12-.9.17-.1.01-.35.05-.44.06-1.35.16-2.74.27-4.03.72-1.47.51-2.49,1.39-3.71,2.3.35-.26-.5.31-.48.3-.26.16-.52.3-.78.44-.4.21-.81.41-1.22.62-.29,0-.58,0-.89.05-1.19.2-2.28.78-3.3,1.42-.47-.11-.97-.11-1.47.08-.67.25-1.33.53-1.98.81-.24.1-.49.21-.73.31-.11.05-.87.44-.21.09-.45.24-.99.4-1.48.55-.25.08-.5.14-.75.22-.02,0-.03,0-.04.02-1.6.03-2.84.77-3.92,1.9,0,.01-.02.02-.03.03-.69.22-1.37.46-2.04.76-.25.11-.48.25-.72.38-1.66.14-3.34.16-4.91.76-.86.33-1.7.73-2.5,1.21-.07-.02-.13-.05-.2-.06-1.27-.23-2.35-.05-3.48.6-.66.38-1.31.76-1.99,1.1-.18.09-.36.17-.54.26-.03.01-.22.09-.32.14-.11.04-.27.1-.3.11-.2.07-.4.14-.6.21-.83.29-1.66.55-2.5.8-1.82.55-3.55,1.29-5.29,2.04-.39.17-.78.33-1.17.5-.24.1-.48.21-.72.31-.03.01-.22.09-.33.14-.11.04-.32.13-.35.14-.18.07-.37.13-.56.2-.52.18-1.05.38-1.53.65-.07.04-.12.09-.18.13-.95-.47-2.11-.52-3.05.08-1.45.93-2.1,2.87-1.17,4.42.48.8.84,1.54,1.48,2.26.09.1.18.19.27.29.01.02.02.03.03.05.04.08.06.13.09.17.04.13.09.26.13.4.03.13.13.89.14.8.02.33.04.65.04.98,0,.39-.02.78-.04,1.17-.01.19-.03.38-.04.57,0,.06,0,.1-.01.14,0,.05-.02.13-.05.28-.04.21-.08.41-.13.62-.09.42-.2.83-.3,1.24-.2.83-.32,1.68-.49,2.52-.08.42-.21.83-.31,1.24-.01.03-.01.04-.02.06-.05.1-.1.2-.15.29-.02.04-.05.08-.08.12-1.64.31-2.7,2.43-2.21,3.95.58,1.81,2.18,2.55,3.97,2.26.41-.07.8-.2,1.16-.38.2.21.42.4.69.54,1.83.96,3.74,1.32,5.72,1.8.43.1.85.25,1.28.36,0,0,0,.01.02.02.12.11.32.22.47.3.02,0,.02,0,.03.02.14.11.27.22.41.33.46.37.92.76,1.42,1.07,1.6,1.01,3.57,1.05,5.31,1.73,1.08.42,2.22.77,3.36,1.09.58.77,1.47,1.29,2.54,1.3.92.01,1.29.07,2.2.23.72.12,1.44.22,2.17.32.23.26.49.49.82.65.54.25.98.63,1.47.96.66.45,1.43.75,2.17,1.03,1.24.46,2.56.69,3.83,1.09,2.7.86,5.27,2.07,7.98,2.93,0,0,0,0,0,0,.07.05.13.11.19.15,1.16.84,2.49,1.24,3.79,1.81,1.49.65,2.9,1.45,4.41,2.05,1.52.6,3.12.95,4.65,1.51,2.75,1,5.31,2.34,8.24,2.77,2.12.31,4.54.49,6.6-.3,2.97.48,5.73-.47,8.56-1.3.43-.13.85-.29,1.28-.44,2.46.47,4.48-.39,6.73-1.4,2.02-.91,4.47-1.13,5.76-3.16.96-1.52.89-3.38.75-5.11-.21-2.73-1.94-4.36-4.41-5.28-2.02-.75-4.05-1.46-6.06-2.26-1.81-.73-3.41-1.76-5.17-2.58-2.08-.96-4.32-1.36-6.57-1.75-.6-.1-1.2-.21-1.79-.3,1.05-.22,2.08-.52,3.13-.77.21.05.43.07.66.07,1.14,0,2.24-.01,3.37-.2.37-.06.73-.16,1.09-.28.08.03.15.07.23.09,1.35.37,2.94.24,4.25-.22,1.3-.46,2.34-1.3,3.56-1.91.02-.01.03-.02.05-.02.02,0,.03,0,.05-.02.15-.06.29-.12.44-.17.29-.11.59-.23.88-.34.8-.32,1.6-.64,2.36-1.03,1.31-.67,2.41-1.55,3.14-2.85.73-1.31,1.11-2.73.68-4.13-.03-1.05-.27-2.08-.76-2.88-1-1.63-2.67-2.32-4.32-3.07-.23-.21-.46-.43-.7-.62-.67-.55-1.45-.88-2.24-.91-.12-.08-.25-.14-.37-.22-.79-.57-1.6-1.4-2.56-1.91-1.92-1.04-4.05-1.46-6.17-1.89-.98-.2-1.98-.39-2.98-.55.46-.52.7-1.08.76-1.64,3.33-.15,6.72-.62,9.96-1.37,3.2-.73,6.49-2.2,8.33-5.07,2.19-3.42.57-7.24-2.57-9.32-.16-.1-.32-.17-.48-.26-.42-1.06-1.37-1.91-2.85-1.94-2.49-.05-5.1-.76-7.5-1.08-2.53-.34-5.11-1.04-7.74-1.1-2.47-.06-5.15-.33-7.62.03-.61-.34-1.32-.49-2.12-.39Z"/>
  <path class="cls-1" d="M21.58,46.17c5.98-5.37,6.69-14.33,1.58-20.02"/>
  <g>
    <path class="cls-1" d="M90.72,1.59c23.89.04,31.5,4.81,31.12,11.68"/>
    <path class="cls-1" d="M93.01,23.55c15.92.03,28.81-4.57,28.82-10.28"/>
  </g>
  <g>
    <path class="cls-1" d="M93.03,23.54c15.92.03,28.78,6.23,28.77,13.85"/>
    <path class="cls-1" d="M92.98,48.68c15.92.03,28.8-5.02,28.82-11.29"/>
  </g>
  <g>
    <path class="cls-1" d="M92.99,48.68c15.92.03,28.79,5.86,28.78,13.04"/>
    <path class="cls-1" d="M91.4,71.65c16.5,1.83,30.35-4.03,30.36-9.93"/>
  </g>
  <line class="cls-1" x1="12.61" y1="42.9" x2="91.4" y2="71.65"/>
  <line class="cls-1" x1="13.37" y1="29.61" x2="91.51" y2="1.3"/>
  <g>
    <path class="cls-4" d="M180.71,27.14c.22.21.37.47.45.77.42,2.34,1.56,6.57,3.42,12.67.09-.2.56-1.12,1.4-2.76l2.53-4.97c.17-.3.49-.91.95-1.83.74-1.45,1.37-2.58,1.87-3.38.5-.8.95-1.2,1.35-1.2.09,0,.19.05.31.16.11.1.21.26.29.47s.12.46.12.75c0,.31-.11.71-.33,1.19-.92,1.54-2.3,4.01-4.12,7.41-1.83,3.4-2.96,5.61-3.41,6.62-.16.3-.29.52-.39.64-.1.13-.26.23-.47.31-.21.08-.52.12-.92.12-.14,0-.59-1.19-1.35-3.56-.76-2.37-1.48-4.83-2.16-7.38-.68-2.54-1.02-4.16-1.02-4.84,0-.42.05-.77.15-1.07.1-.3.32-.45.67-.45.21,0,.42.11.65.32Z"/>
    <path class="cls-4" d="M197.92,43.31c-.92-.7-1.66-1.58-2.21-2.65-.55-1.07-.83-2.13-.83-3.17,0-1.64.3-3,.9-4.06.6-1.07,1.38-1.84,2.34-2.33.96-.49,1.99-.73,3.1-.73,1.18,0,2.2.29,3.05.87.85.58,1.51,1.41,1.96,2.48.45,1.07.68,2.33.68,3.77,0,1.31-.29,2.49-.86,3.54-.57,1.05-1.32,1.86-2.25,2.45-.93.59-1.91.88-2.94.88s-2.03-.35-2.95-1.05ZM204.52,35.13c-.29-.65-.7-1.16-1.21-1.52-.52-.36-1.09-.55-1.73-.55-.78,0-1.54.16-2.28.47-.73.32-1.33.79-1.8,1.41s-.7,1.37-.7,2.25c0,.74.19,1.46.57,2.16.38.7.87,1.27,1.47,1.71.61.44,1.23.66,1.88.66.73,0,1.43-.17,2.08-.52.65-.35,1.17-.85,1.57-1.51.4-.66.6-1.43.6-2.33,0-.84-.15-1.59-.44-2.24Z"/>
    <path class="cls-4" d="M213.22,34.14c-.65.79-.98,2.01-.98,3.65v.5l.15,4.36c0,.16-.04.36-.11.59-.07.23-.19.43-.36.61-.16.17-.37.26-.63.26-.48,0-.8-.14-.98-.41s-.27-.72-.27-1.35c0-.42,0-.85.03-1.3,0-.15.01-.35.01-.59v-1.33c0-.53.03-1.26.08-2.18.05-.93.18-2.54.36-4.86.03-.47.14-.84.33-1.12.19-.27.47-.41.83-.41.2,0,.38.12.56.38.17.25.26.65.26,1.2,0,.84-.01,1.35-.04,1.54.2-.6.58-1.17,1.15-1.69.57-.52,1.19-.94,1.87-1.25.67-.31,1.26-.47,1.76-.47.81,0,1.53.15,2.16.45s.94.9.94,1.8c0,.28-.06.54-.19.78s-.3.42-.5.55-.41.2-.63.2c-.19,0-.33-.03-.42-.1s-.17-.17-.25-.31c-.12-.22-.28-.38-.48-.5-.2-.12-.56-.18-1.06-.18h-.34c-1.51,0-2.59.4-3.24,1.19Z"/>
    <path class="cls-4" d="M232.94,41.12c.18.22.28.56.28,1.02,0,.89-.67,1.47-2.02,1.76s-2.67.42-3.98.42c-.98,0-1.93-.27-2.84-.81-.91-.54-1.65-1.28-2.22-2.22s-.85-1.96-.85-3.07c0-1.6.27-3.01.82-4.23s1.34-2.18,2.39-2.87c1.05-.68,2.29-1.03,3.73-1.03.76,0,1.52.18,2.27.54s1.37.88,1.85,1.57.73,1.5.73,2.44c0,.48-.07.88-.22,1.21-.15.33-.35.53-.61.62l-9.01,3.06c.31.93.93,1.54,1.88,1.83.94.28,1.99.42,3.14.42.38,0,.75-.05,1.13-.16s.82-.25,1.34-.44c.33-.12.6-.22.81-.28s.4-.1.56-.1c.37,0,.64.11.83.33ZM225.65,36.53c.95-.36,2.17-.83,3.66-1.42,1-.4,1.69-.66,2.06-.79-.27-.55-.72-.95-1.35-1.2-.64-.25-1.37-.38-2.2-.38-.47,0-1.04.17-1.73.5-.69.33-1.32.85-1.89,1.55s-.94,1.56-1.09,2.58c.74-.2,1.59-.48,2.55-.84Z"/>
    <path class="cls-4" d="M237.9,43.93c-.8-.36-1.21-1.05-1.21-2.06,0-.16.05-.36.15-.6.1-.24.22-.45.37-.62.15-.17.3-.26.45-.26.05,0,.17.08.37.25.26.31.51.54.75.7.24.16.52.26.83.31.31.05.72.08,1.24.08s1.07-.06,1.68-.19c.6-.13,1.11-.28,1.53-.45s.63-.31.63-.41c0-.25-.13-.46-.39-.63-.26-.17-.58-.29-.95-.39s-.93-.21-1.67-.35c-1.16-.21-2.12-.43-2.87-.66-.75-.23-1.4-.6-1.95-1.12-.55-.51-.83-1.21-.83-2.09,0-1.09.31-2.04.94-2.85.63-.82,1.42-1.44,2.39-1.88.97-.44,1.94-.66,2.93-.66.65,0,1.22.12,1.73.37.51.25.91.57,1.19.97.28.4.42.83.42,1.3,0,.75-.06,1.35-.18,1.83s-.4.71-.85.71c-.22,0-.36-.1-.43-.3s-.1-.5-.1-.92c0-.44-.18-.75-.54-.92s-.89-.25-1.61-.25c-.5,0-1.05.12-1.65.35-.61.24-1.12.54-1.55.92s-.64.77-.64,1.18.16.75.49,1.01c.33.26.73.46,1.22.59.49.14,1.16.29,2.01.45,1.05.2,1.9.4,2.55.59.65.2,1.19.51,1.65.93.45.42.68.98.68,1.69,0,.9-.36,1.64-1.09,2.23-.72.59-1.57,1.02-2.54,1.3-.97.27-1.8.41-2.51.41-.95,0-1.83-.18-2.64-.55Z"/>
    <path class="cls-4" d="M264.34,23.08c.51.2.96.46,1.35.8.39.34.59.71.59,1.11,0,.32-.04.63-.12.93-.08.3-.23.45-.46.45-.2,0-.39-.04-.57-.11-.18-.07-.39-.17-.63-.3-.3-.16-.54-.28-.74-.35-.19-.08-.41-.11-.65-.11-1.03,0-1.78.56-2.24,1.69-.46,1.12-.74,2.46-.83,4.02h3.51c.09,0,.23-.03.41-.05.18-.02.33-.04.45-.04.26,0,.47.1.65.29.17.19.26.54.26,1.03,0,.62-.14,1.02-.41,1.2-.27.18-.6.27-.98.27-1.75-.09-2.95-.14-3.62-.14h-.34c-.01.55-.04,1.44-.07,2.66-.06,1.37-.09,2.47-.1,3.3,0,.1.03.36.1.78,0,.08.05.37.13.88.07.51.11,1.05.11,1.61,0,.79-.27,1.19-.82,1.19-.49,0-.85-.08-1.08-.23-.23-.16-.39-.46-.48-.9s-.13-1.14-.13-2.1c0-.55,0-1.17.03-1.88.02-.7.03-1.21.04-1.51.05-.98.08-1.99.09-3.03,0-.15,0-.39.03-.71-.79.05-1.49.07-2.1.07-.26,0-.48-.15-.68-.44-.19-.29-.29-.61-.29-.95s.1-.65.31-.95.44-.45.69-.45l2.14.08h.13c.29-2.41.84-4.41,1.65-6.01.81-1.6,1.95-2.4,3.41-2.4.3,0,.7.1,1.21.3Z"/>
    <path class="cls-4" d="M281.08,41.23c.13.19.2.49.2.91,0,.32-.09.64-.28.96s-.45.59-.77.79c-.33.21-.69.31-1.09.31s-.78-.13-1.17-.4c-.39-.27-.71-.62-.96-1.06-.25-.44-.37-.89-.37-1.35-.74.9-1.52,1.62-2.32,2.16-.8.54-1.65.81-2.55.81-.82,0-1.66-.25-2.51-.76-.85-.51-1.55-1.2-2.09-2.06-.55-.86-.82-1.8-.82-2.8,0-1.35.32-2.67.97-3.96.65-1.29,1.51-2.35,2.6-3.16,1.09-.81,2.26-1.22,3.52-1.22.95,0,1.84.27,2.66.82.82.55,1.47,1.25,1.95,2.12.48.86.72,1.74.72,2.63,0,.38-.03.76-.09,1.13s-.09.61-.1.71c-.08.44-.14.84-.18,1.18-.04.34-.06.71-.06,1.1,0,.56.09.96.26,1.2.17.24.43.36.78.36.09,0,.18-.03.28-.1.09-.07.21-.16.34-.28.02-.02.08-.07.17-.15.09-.08.18-.13.26-.16.31,0,.53.09.66.28ZM274.94,40.72c.64-.61,1.07-1.31,1.3-2.1.23-.79.45-1.81.65-3.08,0-.29-.18-.63-.55-1.01-.37-.38-.81-.7-1.32-.98-.51-.27-.97-.41-1.38-.41-1.02,0-1.94.27-2.74.81-.8.54-1.43,1.24-1.87,2.09-.44.85-.66,1.71-.66,2.59,0,.58.19,1.09.57,1.55.38.46.87.81,1.47,1.07.6.25,1.21.38,1.84.38,1.16,0,2.06-.31,2.7-.92Z"/>
    <path class="cls-4" d="M291.99,41.02c.18.11.34.3.48.55s.21.58.21.98c0,.21-.07.43-.21.67-.14.24-.3.44-.5.6-.19.16-.37.24-.51.24h-.88c-.34,0-.82.02-1.46.06-.64.04-1.13.06-1.47.06-1.73,0-3.1-.4-4.12-1.2s-1.53-2.17-1.53-4.09c0-1.55.26-2.96.8-4.24.53-1.28,1.31-2.29,2.33-3.04,1.02-.75,2.23-1.13,3.63-1.13.7,0,1.34.16,1.93.49.59.33,1.06.77,1.41,1.35.35.57.53,1.21.53,1.9,0,.33-.05.67-.16,1.01-.11.34-.28.52-.51.52-.17,0-.31-.06-.44-.18-.12-.12-.28-.32-.45-.58-.22-.32-.43-.59-.63-.81-.2-.22-.48-.41-.84-.57s-.8-.24-1.33-.24c-.81,0-1.55.22-2.2.67-.65.45-1.16,1.03-1.53,1.76-.36.72-.54,1.48-.54,2.27,0,.93.18,1.63.55,2.12s.93.83,1.68,1.02c.75.19,1.77.28,3.06.28.28,0,.52-.03.71-.08.2-.05.43-.13.69-.25.33-.15.62-.25.86-.3.13,0,.28.06.46.17Z"/>
    <path class="cls-4" d="M297.96,43.95c-.21.27-.44.41-.7.41-.37,0-.66-.11-.87-.33-.21-.22-.38-.59-.48-1.11-.08-.45-.12-1.42-.12-2.9,0-2.45.1-4.68.31-6.68.2-2,.67-2.99,1.39-2.99.3,0,.49.12.59.38.09.25.14.61.14,1.08l-.12,1.98c-.05.67-.09,1.37-.13,2.11-.04.74-.06,1.39-.06,1.97,0,.61.06,1.47.19,2.58.12,1.15.18,1.95.18,2.39,0,.47-.1.84-.31,1.12ZM297.72,27.41c-.41,0-.79-.11-1.14-.34s-.53-.62-.53-1.19c0-.28.08-.57.25-.86.16-.29.37-.53.61-.72.24-.19.47-.28.69-.28.41,0,.76.12,1.06.37s.45.67.45,1.26c0,1.18-.46,1.77-1.38,1.77Z"/>
    <path class="cls-4" d="M306.91,41.2c.14.26.22.58.22.93s-.12.7-.35,1.01-.52.54-.86.71c-.34.17-.64.25-.91.25-.97,0-1.68-.3-2.13-.89-.45-.59-.67-1.47-.66-2.62l.19-15.53c0-.62.09-1.13.27-1.51.18-.38.46-.57.83-.57.25,0,.45.14.62.42.16.28.25.58.25.9l-.19,13.61v.48c0,.89.07,1.62.2,2.21.13.59.35.88.65.88.13,0,.24-.03.33-.08.09-.06.19-.14.31-.25s.22-.2.31-.25c.08-.05.19-.08.31-.08.27,0,.47.13.62.4Z"/>
    <path class="cls-4" d="M311.61,43.95c-.21.27-.44.41-.7.41-.37,0-.66-.11-.87-.33-.21-.22-.38-.59-.48-1.11-.08-.45-.12-1.42-.12-2.9,0-2.45.1-4.68.31-6.68.2-2,.67-2.99,1.39-2.99.3,0,.49.12.59.38.09.25.14.61.14,1.08l-.12,1.98c-.05.67-.09,1.37-.13,2.11-.04.74-.06,1.39-.06,1.97,0,.61.06,1.47.19,2.58.12,1.15.18,1.95.18,2.39,0,.47-.1.84-.31,1.12ZM311.38,27.41c-.41,0-.79-.11-1.14-.34s-.53-.62-.53-1.19c0-.28.08-.57.25-.86.16-.29.37-.53.61-.72.24-.19.47-.28.69-.28.41,0,.76.12,1.06.37s.45.67.45,1.26c0,1.18-.46,1.77-1.38,1.77Z"/>
    <path class="cls-4" d="M316.35,33.34c-.36.02-.66.03-.91.03-.14,0-.31-.06-.51-.17s-.38-.27-.53-.48c-.15-.21-.22-.44-.22-.71s.06-.51.19-.74c.12-.23.28-.42.48-.55.19-.14.39-.21.6-.21.32,0,.9.03,1.76.08.03-1.17.14-2.28.33-3.34.19-1.06.57-1.59,1.12-1.59.13,0,.26.06.4.18.14.12.25.28.35.48.09.2.14.42.14.66,0,1-.06,1.91-.18,2.72l-.04.35-.13.58c.36,0,.78,0,1.27-.01s.86-.02,1.12-.03c.79-.03,1.59-.04,2.38-.04.29,0,.5.16.63.49.13.33.19.67.19,1.04,0,.4-.11.71-.32.94-.21.23-.44.35-.69.35l-4.59-.06-.02,1.3c-.03.79-.04,1.65-.04,2.58,0,1.31.12,2.35.35,3.1s.68,1.13,1.35,1.13c.57,0,1.27-.29,2.1-.86.18-.1.27-.16.28-.16.25,0,.42.07.51.2.09.13.13.36.13.69,0,.4-.17.82-.51,1.27-.34.45-.74.83-1.21,1.14s-.87.47-1.22.47c-1.12,0-1.95-.38-2.49-1.13-.54-.75-.88-1.65-1.01-2.7-.13-1.05-.21-2.41-.23-4.08,0-1.31-.04-2.3-.12-2.96-.15,0-.38,0-.7.03Z"/>
    <path class="cls-4" d="M338.22,41.12c.18.22.28.56.28,1.02,0,.89-.67,1.47-2.02,1.76-1.35.28-2.67.42-3.98.42-.98,0-1.93-.27-2.84-.81-.91-.54-1.65-1.28-2.22-2.22-.57-.93-.85-1.96-.85-3.07,0-1.6.27-3.01.82-4.23s1.34-2.18,2.39-2.87c1.05-.68,2.29-1.03,3.73-1.03.76,0,1.52.18,2.27.54.75.36,1.37.88,1.85,1.57s.73,1.5.73,2.44c0,.48-.07.88-.22,1.21-.15.33-.35.53-.61.62l-9.01,3.06c.31.93.93,1.54,1.88,1.83s1.99.42,3.14.42c.38,0,.75-.05,1.13-.16.38-.1.82-.25,1.34-.44.33-.12.6-.22.81-.28.21-.07.4-.1.56-.1.37,0,.64.11.83.33ZM330.93,36.53c.95-.36,2.17-.83,3.66-1.42,1-.4,1.69-.66,2.05-.79-.27-.55-.72-.95-1.35-1.2-.64-.25-1.37-.38-2.2-.38-.47,0-1.04.17-1.73.5-.68.33-1.32.85-1.89,1.55-.58.7-.94,1.56-1.09,2.58.75-.2,1.59-.48,2.55-.84Z"/>
    <path class="cls-4" d="M342.59,33.34c-.36.02-.66.03-.91.03-.14,0-.31-.06-.51-.17s-.38-.27-.53-.48c-.15-.21-.22-.44-.22-.71s.06-.51.19-.74c.12-.23.28-.42.48-.55.19-.14.39-.21.6-.21.32,0,.9.03,1.76.08.03-1.17.14-2.28.33-3.34.19-1.06.57-1.59,1.12-1.59.13,0,.26.06.4.18.14.12.25.28.35.48.09.2.14.42.14.66,0,1-.06,1.91-.18,2.72l-.04.35-.13.58c.36,0,.78,0,1.27-.01s.86-.02,1.12-.03c.79-.03,1.59-.04,2.38-.04.29,0,.5.16.63.49.13.33.19.67.19,1.04,0,.4-.11.71-.32.94-.21.23-.44.35-.69.35l-4.59-.06-.02,1.3c-.03.79-.04,1.65-.04,2.58,0,1.31.12,2.35.35,3.1s.68,1.13,1.35,1.13c.57,0,1.27-.29,2.1-.86.18-.1.27-.16.28-.16.25,0,.42.07.51.2.09.13.13.36.13.69,0,.4-.17.82-.51,1.27-.34.45-.74.83-1.21,1.14s-.87.47-1.22.47c-1.12,0-1.95-.38-2.49-1.13-.54-.75-.88-1.65-1.01-2.7-.13-1.05-.21-2.41-.23-4.08,0-1.31-.04-2.3-.12-2.96-.15,0-.38,0-.7.03Z"/>
    <path class="cls-4" d="M364.45,41.12c.18.22.28.56.28,1.02,0,.89-.67,1.47-2.02,1.76-1.35.28-2.67.42-3.98.42-.98,0-1.93-.27-2.84-.81-.91-.54-1.65-1.28-2.22-2.22-.57-.93-.85-1.96-.85-3.07,0-1.6.27-3.01.82-4.23s1.34-2.18,2.39-2.87c1.05-.68,2.29-1.03,3.73-1.03.76,0,1.52.18,2.27.54.75.36,1.37.88,1.85,1.57s.73,1.5.73,2.44c0,.48-.07.88-.22,1.21-.15.33-.35.53-.61.62l-9.01,3.06c.31.93.93,1.54,1.88,1.83s1.99.42,3.14.42c.38,0,.75-.05,1.13-.16.38-.1.82-.25,1.34-.44.33-.12.6-.22.81-.28.21-.07.4-.1.56-.1.37,0,.64.11.83.33ZM357.17,36.53c.95-.36,2.17-.83,3.66-1.42,1-.4,1.69-.66,2.05-.79-.27-.55-.72-.95-1.35-1.2-.64-.25-1.37-.38-2.2-.38-.47,0-1.04.17-1.73.5-.68.33-1.32.85-1.89,1.55-.58.7-.94,1.56-1.09,2.58.75-.2,1.59-.48,2.55-.84Z"/>
    <path class="cls-4" d="M371.04,34.14c-.65.79-.98,2.01-.98,3.65v.5l.15,4.36c0,.16-.04.36-.11.59-.07.23-.19.43-.36.61-.16.17-.38.26-.63.26-.48,0-.8-.14-.98-.41s-.27-.72-.27-1.35c0-.42,0-.85.03-1.3,0-.15.01-.35.01-.59v-1.33c0-.53.03-1.26.08-2.18s.18-2.54.37-4.86c.03-.47.14-.84.33-1.12.19-.27.47-.41.83-.41.2,0,.38.12.56.38.17.25.26.65.26,1.2,0,.84-.02,1.35-.04,1.54.2-.6.58-1.17,1.15-1.69.57-.52,1.19-.94,1.87-1.25s1.26-.47,1.76-.47c.81,0,1.53.15,2.16.45.62.3.94.9.94,1.8,0,.28-.06.54-.19.78s-.3.42-.5.55-.41.2-.63.2c-.19,0-.33-.03-.42-.1-.09-.07-.17-.17-.25-.31-.12-.22-.28-.38-.48-.5-.2-.12-.56-.18-1.06-.18h-.34c-1.51,0-2.59.4-3.24,1.19Z"/>
  </g>
</svg>