<?xml version="1.0" encoding="UTF-8"?>
<svg id="Layer_1" xmlns="http://www.w3.org/2000/svg" viewBox="0 0 456.49 74.38">
  <defs>
    <style>
      .cls-1 {
        fill: none;
      }

      .cls-1, .cls-2 {
        stroke: #231f20;
        stroke-miterlimit: 10;
        stroke-width: 2px;
      }

      .cls-2 {
        fill: #a42739;
      }

      .cls-3 {
        fill: #eaa294;
      }

      .cls-4 {
        fill: #ededed;
        font-family: Dekko, Dekko;
        font-size: 29px;
      }

      .cls-5 {
        fill: #c18678;
      }
    </style>
  </defs>
  <path class="cls-2" d="M454.15,2.46l-.11,71.92-355.45-.53c-2.19,0-4.36-.39-6.42-1.14L5.6,41.05c-3.08-1.13-3.07-5.48,0-6.6L92.84,2.85c1.68-.61,3.46-.92,5.25-.92l356.05.53Z"/>
  <path class="cls-5" d="M57.78,23.6c-1.27.77-1.99,1.96-2.44,3.29-.21.16-.4.34-.6.51-1.27-.09-2.57.18-3.64.83-.41.25-.77.55-1.1.86-.82-.03-1.64.06-2.46.31-4.35,1.33-5.3,5.94-4.52,9.91.71,3.59,2.99,7.37,6.24,9.17.66.37,1.39.66,2.15.87,1.33,1.87,3.42,3.09,6.12,2.99,2.61-.1,5.14-1.47,6.99-3.48.46.11.94.19,1.45.21,5.06.16,7.06-4.98,6.4-9.34.12-2.09-.73-4.24-2.12-5.78-.15-.17-.32-.31-.48-.46.58-.98.7-2.24.04-3.25-.28-.43-.59-.82-.91-1.2,0,0,0,0,0,0-.31-.43-.61-.86-.92-1.28-.73-.98-1.48-1.99-2.4-2.81-2.12-1.91-5.16-2.94-7.8-1.35Z"/>
  <path class="cls-3" d="M91.26,3.43c-.9.12-1.6.55-2.25,1.16-.04.04-.31.3-.51.51-.24.04-.49.15-.72.21-.3.07-.6.12-.91.17-.1.01-.36.05-.45.06-1.36.16-2.75.27-4.05.73-1.48.51-2.49,1.39-3.73,2.31.35-.26-.51.31-.48.3-.26.16-.52.3-.79.44-.41.21-.82.42-1.23.62-.29-.01-.59,0-.89.05-1.2.2-2.29.78-3.31,1.43-.48-.11-.97-.11-1.47.08-.67.25-1.33.53-1.99.81-.25.1-.49.21-.73.31-.11.05-.87.44-.21.09-.46.24-1,.4-1.49.56-.25.08-.5.14-.75.22-.02,0-.03,0-.05.02-1.61.03-2.85.77-3.94,1.91,0,.01-.02.02-.03.03-.7.22-1.38.46-2.05.76-.25.11-.48.25-.72.39-1.66.14-3.35.17-4.93.76-.86.33-1.71.73-2.51,1.21-.07-.02-.13-.05-.2-.06-1.28-.23-2.36-.05-3.49.6-.66.38-1.31.76-2,1.1-.18.09-.36.17-.54.26-.03.01-.22.09-.32.14-.11.04-.27.1-.3.11-.2.07-.4.14-.6.21-.83.29-1.67.55-2.51.81-1.82.55-3.56,1.29-5.3,2.05-.39.17-.78.34-1.18.5-.24.1-.48.21-.72.32-.03.01-.22.09-.33.14-.11.04-.32.13-.35.14-.18.07-.37.13-.56.2-.52.18-1.05.38-1.53.65-.07.04-.12.09-.18.13-.95-.48-2.12-.52-3.06.08-1.46.94-2.11,2.88-1.17,4.43.49.81.84,1.54,1.48,2.27.09.1.18.19.27.29.01.02.02.03.03.05.04.08.06.13.09.17.04.13.09.26.13.4.03.13.13.9.14.8.02.33.04.65.04.98,0,.39-.02.79-.04,1.18-.01.19-.03.38-.04.57,0,.06,0,.1-.01.14,0,.05-.02.13-.05.28-.04.21-.08.42-.13.62-.09.42-.2.83-.3,1.24-.2.84-.32,1.68-.49,2.52-.08.42-.21.83-.31,1.25-.01.03-.01.04-.02.06-.05.1-.1.2-.15.29-.02.04-.05.08-.08.12-1.65.31-2.71,2.44-2.22,3.97.59,1.82,2.18,2.56,3.98,2.27.42-.07.8-.2,1.16-.38.2.21.42.4.7.54,1.84.96,3.76,1.32,5.74,1.8.43.1.85.25,1.28.36,0,0,0,.01.02.02.13.11.32.22.47.3.02,0,.02,0,.03.02.14.11.28.22.41.33.46.37.93.76,1.43,1.08,1.6,1.02,3.58,1.06,5.33,1.73,1.09.42,2.22.77,3.37,1.09.58.78,1.48,1.29,2.54,1.31.93.01,1.3.08,2.21.23.72.12,1.45.22,2.18.32.23.26.49.49.82.65.54.25.98.63,1.47.96.66.45,1.43.76,2.18,1.03,1.25.46,2.57.69,3.84,1.09,2.71.86,5.29,2.08,8,2.94,0,0,0,0,0,0,.07.05.13.11.19.16,1.16.85,2.5,1.24,3.8,1.82,1.49.66,2.91,1.46,4.43,2.05,1.53.6,3.13.95,4.67,1.51,2.76,1,5.33,2.35,8.27,2.78,2.12.31,4.56.49,6.62-.3,2.98.48,5.75-.47,8.59-1.31.43-.13.86-.29,1.28-.44,2.47.48,4.49-.39,6.75-1.41,2.03-.91,4.48-1.13,5.78-3.17.97-1.52.89-3.4.76-5.12-.22-2.74-1.95-4.37-4.42-5.3-2.03-.76-4.06-1.46-6.08-2.27-1.82-.73-3.42-1.77-5.19-2.59-2.08-.97-4.34-1.36-6.59-1.75-.6-.1-1.2-.21-1.8-.3,1.05-.22,2.09-.52,3.14-.77.21.05.44.07.66.07,1.15,0,2.25-.01,3.39-.2.37-.06.73-.16,1.09-.28.08.03.15.07.23.09,1.35.37,2.95.24,4.26-.22,1.31-.46,2.35-1.31,3.57-1.92.02-.01.03-.02.05-.02.02,0,.03,0,.05-.02.15-.06.29-.12.44-.17.29-.12.59-.23.88-.34.8-.32,1.6-.64,2.37-1.04,1.31-.68,2.42-1.56,3.15-2.86.74-1.31,1.11-2.74.68-4.14-.03-1.05-.27-2.09-.76-2.89-1-1.63-2.68-2.33-4.34-3.08-.23-.21-.46-.43-.7-.63-.68-.55-1.46-.88-2.25-.91-.12-.08-.25-.14-.37-.22-.79-.57-1.61-1.4-2.56-1.92-1.93-1.04-4.06-1.47-6.19-1.9-.99-.2-1.99-.39-2.99-.56.46-.52.7-1.09.77-1.65,3.34-.15,6.75-.63,9.99-1.37,3.21-.74,6.51-2.21,8.36-5.09,2.2-3.44.58-7.26-2.58-9.35-.16-.1-.32-.17-.48-.26-.43-1.07-1.37-1.91-2.86-1.95-2.5-.05-5.12-.76-7.53-1.09-2.54-.34-5.12-1.04-7.77-1.11-2.48-.06-5.16-.33-7.64.03-.61-.34-1.33-.5-2.13-.39Z"/>
  <path class="cls-1" d="M23.47,47.59c6-5.39,6.71-14.38,1.58-20.09"/>
  <g>
    <path class="cls-1" d="M92.84,2.85c23.97.04,31.6,4.83,31.22,11.72"/>
    <path class="cls-1" d="M95.15,24.89c15.97.03,28.91-4.58,28.92-10.31"/>
  </g>
  <g>
    <path class="cls-1" d="M95.16,24.88c15.97.03,28.88,6.25,28.87,13.9"/>
    <path class="cls-1" d="M95.11,50.11c15.97.03,28.9-5.04,28.91-11.33"/>
  </g>
  <g>
    <path class="cls-1" d="M95.12,50.11c15.97.03,28.89,5.88,28.87,13.08"/>
    <path class="cls-1" d="M93.53,73.15c16.55,1.84,30.45-4.04,30.46-9.96"/>
  </g>
  <line class="cls-1" x1="14.47" y1="44.3" x2="93.53" y2="73.15"/>
  <line class="cls-1" x1="15.23" y1="30.97" x2="93.64" y2="2.56"/>
  <text class="cls-4" transform="translate(138.79 47.59) scale(1.05 1)"><tspan x="0" y="0">Velkommen i børnehaven</tspan></text>
</svg>