<?xml version="1.0" encoding="UTF-8"?>
<svg id="Layer_1" xmlns="http://www.w3.org/2000/svg" viewBox="0 0 487.96 74.38">
  <defs>
    <style>
      .cls-1 {
        fill: none;
      }

      .cls-1, .cls-2 {
        stroke: #231f20;
        stroke-miterlimit: 10;
        stroke-width: 2px;
      }

      .cls-2 {
        fill: #a42739;
      }

      .cls-3 {
        fill: #eaa294;
      }

      .cls-4 {
        fill: #ededed;
      }

      .cls-5 {
        fill: #c18678;
      }
    </style>
  </defs>
  <g>
    <path class="cls-2" d="M481.91,2.46l-.11,71.92-377.33-.53c-2.32,0-4.63-.39-6.81-1.14L5.74,41.05c-3.27-1.13-3.26-5.48.01-6.6L98.36,2.85c1.79-.61,3.68-.92,5.58-.92l377.97.53Z"/>
    <path class="cls-5" d="M61.13,23.6c-1.35.77-2.11,1.96-2.59,3.29-.22.16-.43.34-.63.51-1.35-.09-2.73.18-3.87.83-.43.25-.81.55-1.17.86-.87-.03-1.74.06-2.61.31-4.62,1.33-5.63,5.94-4.8,9.91.75,3.59,3.17,7.37,6.63,9.17.7.37,1.48.66,2.29.87,1.41,1.87,3.63,3.09,6.5,2.99,2.77-.1,5.46-1.47,7.42-3.48.49.11,1,.19,1.54.21,5.37.16,7.5-4.98,6.8-9.34.12-2.09-.78-4.24-2.25-5.78-.16-.17-.34-.31-.51-.46.62-.98.74-2.24.04-3.25-.3-.43-.62-.82-.97-1.2,0,0,0,0,0,0-.33-.43-.65-.86-.98-1.28-.78-.98-1.57-1.99-2.55-2.81-2.25-1.91-5.47-2.94-8.28-1.35Z"/>
    <path class="cls-3" d="M96.68,3.43c-.96.12-1.7.55-2.39,1.16-.05.04-.33.3-.54.51-.25.04-.52.15-.77.21-.32.07-.64.12-.96.17-.11.01-.38.05-.47.06-1.44.16-2.92.27-4.3.73-1.57.51-2.65,1.39-3.95,2.31.37-.26-.54.31-.51.3-.27.16-.55.3-.84.44-.43.21-.87.42-1.3.62-.31-.01-.62,0-.94.05-1.27.2-2.43.78-3.52,1.43-.51-.11-1.03-.11-1.56.08-.71.25-1.41.53-2.11.81-.26.1-.52.21-.78.31-.11.05-.92.44-.22.09-.48.24-1.06.4-1.58.56-.26.08-.53.14-.79.22-.02,0-.03,0-.05.02-1.71.03-3.03.77-4.18,1.91-.01.01-.02.02-.03.03-.74.22-1.46.46-2.18.76-.27.11-.51.25-.76.39-1.77.14-3.56.17-5.23.76-.91.33-1.81.73-2.66,1.21-.07-.02-.14-.05-.21-.06-1.36-.23-2.51-.05-3.71.6-.7.38-1.39.76-2.12,1.1-.19.09-.38.17-.57.26-.03.01-.23.09-.34.14-.12.04-.29.1-.32.11-.21.07-.42.14-.63.21-.88.29-1.77.55-2.66.81-1.94.55-3.78,1.29-5.63,2.05-.42.17-.83.34-1.25.5-.26.1-.51.21-.77.32-.03.01-.23.09-.35.14-.12.04-.34.13-.37.14-.2.07-.39.13-.59.2-.55.18-1.12.38-1.63.65-.07.04-.13.09-.2.13-1.01-.48-2.25-.52-3.24.08-1.55.94-2.24,2.88-1.24,4.43.52.81.89,1.54,1.57,2.27.09.1.19.19.28.29.01.02.02.03.03.05.04.08.07.13.09.17.05.13.1.26.13.4.04.13.14.9.15.8.02.33.04.65.04.98,0,.39-.02.79-.05,1.18-.01.19-.03.38-.04.57,0,.06-.01.1-.02.14,0,.05-.03.13-.05.28-.04.21-.09.42-.14.62-.1.42-.21.83-.32,1.24-.21.84-.34,1.68-.52,2.52-.09.42-.22.83-.33,1.25-.01.03-.01.04-.02.06-.05.1-.11.2-.16.29-.03.04-.06.08-.08.12-1.75.31-2.88,2.44-2.35,3.97.62,1.82,2.32,2.56,4.23,2.27.44-.07.85-.2,1.24-.38.21.21.45.4.74.54,1.95.96,3.99,1.32,6.1,1.8.46.1.9.25,1.36.36,0,0,0,.01.02.02.13.11.34.22.5.3.02,0,.02,0,.03.02.14.11.29.22.44.33.49.37.98.76,1.52,1.08,1.7,1.02,3.81,1.06,5.66,1.73,1.15.42,2.36.77,3.58,1.09.62.78,1.57,1.29,2.7,1.31.98.01,1.38.08,2.35.23.77.12,1.54.22,2.31.32.24.26.52.49.87.65.57.25,1.04.63,1.57.96.7.45,1.52.76,2.31,1.03,1.33.46,2.73.69,4.08,1.09,2.88.86,5.62,2.08,8.5,2.94,0,0,0,0,0,0,.07.05.13.11.21.16,1.23.85,2.65,1.24,4.04,1.82,1.58.66,3.09,1.46,4.7,2.05,1.62.6,3.32.95,4.96,1.51,2.93,1,5.66,2.35,8.78,2.78,2.25.31,4.84.49,7.03-.3,3.16.48,6.1-.47,9.12-1.31.46-.13.91-.29,1.36-.44,2.62.48,4.77-.39,7.17-1.41,2.15-.91,4.76-1.13,6.14-3.17,1.03-1.52.95-3.4.8-5.12-.23-2.74-2.07-4.37-4.69-5.3-2.15-.76-4.32-1.46-6.45-2.27-1.93-.73-3.63-1.77-5.51-2.59-2.21-.97-4.61-1.36-7-1.75-.64-.1-1.27-.21-1.91-.3,1.12-.22,2.22-.52,3.33-.77.23.05.46.07.71.07,1.22,0,2.39-.01,3.59-.2.39-.06.78-.16,1.16-.28.08.03.16.07.24.09,1.43.37,3.13.24,4.52-.22,1.39-.46,2.49-1.31,3.79-1.92.03-.01.03-.02.05-.02.02,0,.03,0,.06-.02.16-.06.31-.12.47-.17.31-.12.62-.23.94-.34.85-.32,1.7-.64,2.51-1.04,1.4-.68,2.57-1.56,3.35-2.86.78-1.31,1.18-2.74.72-4.14-.03-1.05-.29-2.09-.81-2.89-1.06-1.63-2.85-2.33-4.61-3.08-.25-.21-.49-.43-.74-.63-.72-.55-1.55-.88-2.38-.91-.13-.08-.27-.14-.39-.22-.84-.57-1.71-1.4-2.72-1.92-2.05-1.04-4.31-1.47-6.57-1.9-1.05-.2-2.11-.39-3.18-.56.49-.52.74-1.09.81-1.65,3.55-.15,7.16-.63,10.61-1.37,3.4-.74,6.92-2.21,8.87-5.09,2.34-3.44.61-7.26-2.74-9.35-.17-.1-.34-.17-.51-.26-.45-1.07-1.46-1.91-3.03-1.95-2.65-.05-5.43-.76-7.99-1.09-2.69-.34-5.44-1.04-8.25-1.11-2.63-.06-5.48-.33-8.11.03-.65-.34-1.41-.5-2.26-.39Z"/>
    <path class="cls-1" d="M24.71,47.59c6.37-5.39,7.12-14.38,1.68-20.09"/>
    <g>
      <path class="cls-1" d="M98.36,2.85c25.45.04,33.55,4.83,33.14,11.72"/>
      <path class="cls-1" d="M100.8,24.89c16.96.03,30.69-4.58,30.7-10.31"/>
    </g>
    <g>
      <path class="cls-1" d="M100.82,24.88c16.95.03,30.66,6.25,30.64,13.9"/>
      <path class="cls-1" d="M100.77,50.11c16.95.03,30.68-5.04,30.69-11.33"/>
    </g>
    <g>
      <path class="cls-1" d="M100.77,50.11c16.96.03,30.67,5.88,30.65,13.08"/>
      <path class="cls-1" d="M99.09,73.15c17.57,1.84,32.32-4.04,32.34-9.96"/>
    </g>
    <line class="cls-1" x1="15.16" y1="44.3" x2="99.09" y2="73.15"/>
    <line class="cls-1" x1="15.97" y1="30.97" x2="99.2" y2="2.56"/>
  </g>
  <g>
    <path class="cls-4" d="M157.99,44.11c-.05.17-.15.3-.29.38-.14.08-.38.12-.69.12-.39,0-.68-.08-.87-.24s-.32-.38-.39-.67c-.06-.29-.1-.67-.1-1.15v-.42c.02-.09.03-.23.03-.41l-.4-11.4c-.23.02-.52.06-.88.11-1.06.14-1.85.21-2.35.21-.47,0-.81-.09-1.04-.27-.23-.18-.34-.46-.34-.85,0-.73.17-1.23.51-1.52.34-.29.76-.43,1.28-.43l6.27-.06,2.37-.14c.37,0,.66.14.89.42.22.28.33.63.33,1.05,0,.2-.06.44-.19.72-.12.28-.28.53-.48.74-.19.21-.39.31-.59.31-.15,0-.38-.1-.69-.3-.15-.1-.28-.18-.39-.23-.11-.05-.23-.08-.33-.08-1.02,0-1.78.03-2.26.1l.43,11.54c.14.77.23,1.33.27,1.66-.01.37-.04.64-.09.81Z"/>
    <path class="cls-4" d="M167.84,34.54c-.65.79-.98,2.01-.98,3.65v.5l.15,4.36c0,.16-.04.36-.11.59-.07.23-.19.43-.36.61-.16.17-.37.26-.63.26-.48,0-.8-.14-.98-.41s-.27-.72-.27-1.35c0-.42,0-.85.03-1.3,0-.15.01-.35.01-.59v-1.33c0-.53.03-1.26.08-2.18.05-.93.18-2.54.36-4.86.03-.47.14-.84.33-1.12.19-.27.47-.41.83-.41.2,0,.38.12.56.38.17.25.26.65.26,1.2,0,.84-.01,1.35-.04,1.54.2-.6.58-1.17,1.15-1.69.57-.52,1.19-.94,1.87-1.25.67-.31,1.26-.47,1.76-.47.81,0,1.53.15,2.16.45s.94.9.94,1.8c0,.28-.06.54-.19.78s-.3.42-.5.55-.41.2-.63.2c-.19,0-.33-.03-.42-.1s-.17-.17-.25-.31c-.12-.22-.28-.38-.48-.5-.2-.12-.56-.18-1.06-.18h-.34c-1.51,0-2.59.4-3.24,1.19Z"/>
    <path class="cls-4" d="M190.23,41.64c.13.19.2.49.2.91,0,.32-.09.64-.28.96s-.45.59-.77.79c-.33.21-.69.31-1.09.31s-.78-.13-1.17-.4c-.39-.27-.71-.62-.96-1.06-.25-.44-.37-.89-.37-1.35-.74.9-1.52,1.62-2.32,2.16-.8.54-1.65.81-2.55.81-.82,0-1.66-.25-2.51-.76-.85-.51-1.55-1.2-2.09-2.06-.55-.86-.82-1.8-.82-2.8,0-1.35.32-2.67.97-3.96.65-1.29,1.51-2.35,2.6-3.16,1.09-.81,2.26-1.22,3.52-1.22.95,0,1.84.27,2.66.82.82.55,1.47,1.25,1.95,2.12.48.86.72,1.74.72,2.63,0,.38-.03.76-.09,1.13s-.09.61-.1.71c-.08.44-.14.84-.18,1.18s-.06.71-.06,1.1c0,.56.09.96.26,1.2.17.24.43.36.78.36.09,0,.18-.03.28-.1s.21-.16.34-.28c.02-.02.08-.07.17-.15.09-.08.18-.13.26-.16.31,0,.53.09.66.28ZM184.08,41.13c.64-.61,1.07-1.31,1.3-2.1.23-.79.45-1.81.65-3.08,0-.29-.18-.63-.55-1.01-.37-.38-.81-.7-1.32-.98-.51-.27-.97-.41-1.38-.41-1.02,0-1.94.27-2.74.81-.8.54-1.43,1.24-1.87,2.09-.44.85-.66,1.71-.66,2.59,0,.58.19,1.09.57,1.55.38.46.87.81,1.47,1.07.6.25,1.21.38,1.84.38,1.16,0,2.06-.31,2.7-.92Z"/>
    <path class="cls-4" d="M199.58,31.13c.53.22.97.52,1.3.92s.54.85.6,1.36l.03-4.06.03-4.04c0-.99.38-1.49,1.13-1.49.29,0,.5.13.63.4.13.26.19.58.19.95v2.1s-.04,2.14-.04,2.14l-.18,8.99-.06,2.45c-.01,1.26-.1,2.2-.26,2.84-.16.64-.5.96-1,.96-.2,0-.37-.12-.51-.37-.14-.25-.3-.6-.48-1.08-.33.3-.76.56-1.3.77-.54.21-1.09.37-1.65.48-.57.11-1.06.16-1.47.16-1.78,0-3.12-.56-4.04-1.67-.91-1.11-1.37-2.63-1.37-4.55,0-1.32.27-2.56.81-3.72.54-1.16,1.32-2.1,2.35-2.8s2.22-1.06,3.6-1.06c.6,0,1.16.11,1.69.33ZM198.97,41.8c.6-.2,1.08-.45,1.43-.73s.57-.54.65-.78c.08-.25.13-.51.16-.79.02-.28.04-.61.04-.99v-1.3c0-.64-.15-1.25-.46-1.83-.31-.58-.72-1.04-1.23-1.39-.51-.35-1.04-.52-1.6-.52-.96,0-1.8.21-2.52.62s-1.27.99-1.65,1.72c-.38.73-.57,1.56-.57,2.5,0,.76.16,1.44.48,2.01.32.58.77,1.02,1.33,1.32.57.31,1.2.46,1.89.46.77,0,1.46-.1,2.06-.3Z"/>
    <path class="cls-4" d="M209.28,44.35c-.21.27-.44.41-.7.41-.37,0-.66-.11-.87-.33-.21-.22-.38-.59-.48-1.11-.08-.45-.12-1.42-.12-2.9,0-2.45.1-4.68.31-6.68.2-2,.67-2.99,1.39-2.99.3,0,.49.12.59.38.09.25.14.61.14,1.08l-.12,1.98c-.05.67-.09,1.37-.13,2.11s-.06,1.39-.06,1.97c0,.61.06,1.47.19,2.58.12,1.15.18,1.95.18,2.39,0,.47-.1.84-.31,1.12ZM209.04,27.81c-.41,0-.79-.11-1.14-.34s-.53-.62-.53-1.19c0-.28.08-.57.25-.86.16-.29.37-.53.61-.72s.47-.28.69-.28c.41,0,.76.12,1.06.37.3.25.45.67.45,1.26,0,1.18-.46,1.77-1.38,1.77Z"/>
    <path class="cls-4" d="M214.01,33.75c-.36.02-.66.03-.91.03-.14,0-.31-.06-.51-.17-.2-.11-.38-.27-.53-.48s-.22-.44-.22-.71.06-.51.19-.74c.12-.23.28-.42.48-.55.19-.14.4-.21.6-.21.32,0,.9.03,1.76.08.03-1.17.14-2.28.33-3.34.19-1.06.57-1.59,1.12-1.59.13,0,.26.06.4.18.14.12.26.28.35.48.09.2.14.42.14.66,0,1-.06,1.91-.18,2.72l-.04.35-.13.58c.36,0,.78,0,1.27-.01s.86-.02,1.12-.03c.79-.03,1.59-.04,2.38-.04.29,0,.5.16.63.49.13.33.19.67.19,1.04,0,.4-.11.71-.32.94-.21.23-.44.35-.69.35l-4.59-.06v1.3c-.04.79-.06,1.65-.06,2.58,0,1.31.12,2.35.35,3.1s.68,1.13,1.35,1.13c.57,0,1.27-.29,2.1-.86.18-.1.27-.16.28-.16.25,0,.42.07.51.2s.13.36.13.69c0,.4-.17.82-.51,1.27-.34.45-.74.83-1.21,1.14-.47.31-.87.47-1.22.47-1.12,0-1.95-.38-2.49-1.13-.54-.75-.88-1.65-1.01-2.7-.13-1.05-.21-2.41-.23-4.08,0-1.31-.04-2.3-.12-2.96-.15,0-.38,0-.7.03Z"/>
    <path class="cls-4" d="M227.19,44.35c-.21.27-.44.41-.7.41-.37,0-.66-.11-.87-.33-.21-.22-.38-.59-.48-1.11-.08-.45-.12-1.42-.12-2.9,0-2.45.1-4.68.31-6.68.2-2,.67-2.99,1.39-2.99.3,0,.49.12.59.38.09.25.14.61.14,1.08l-.12,1.98c-.05.67-.09,1.37-.13,2.11s-.06,1.39-.06,1.97c0,.61.06,1.47.19,2.58.12,1.15.18,1.95.18,2.39,0,.47-.1.84-.31,1.12ZM226.95,27.81c-.41,0-.79-.11-1.14-.34s-.53-.62-.53-1.19c0-.28.08-.57.25-.86.16-.29.37-.53.61-.72s.47-.28.69-.28c.41,0,.76.12,1.06.37.3.25.45.67.45,1.26,0,1.18-.46,1.77-1.38,1.77Z"/>
    <path class="cls-4" d="M233.25,43.72c-.92-.7-1.66-1.58-2.21-2.65-.55-1.07-.83-2.13-.83-3.17,0-1.64.3-3,.9-4.06s1.38-1.84,2.34-2.33c.96-.49,1.99-.73,3.1-.73,1.18,0,2.2.29,3.05.87.85.58,1.51,1.41,1.96,2.48.45,1.07.68,2.33.68,3.77,0,1.31-.29,2.49-.86,3.54-.57,1.05-1.32,1.86-2.25,2.45s-1.91.88-2.94.88-2.03-.35-2.95-1.05ZM239.86,35.53c-.29-.65-.7-1.16-1.21-1.52-.52-.36-1.09-.55-1.73-.55-.78,0-1.54.16-2.28.47-.73.32-1.33.79-1.8,1.41s-.7,1.37-.7,2.25c0,.74.19,1.46.57,2.16.38.7.87,1.27,1.47,1.71.61.44,1.23.66,1.88.66.73,0,1.43-.17,2.08-.52s1.17-.85,1.57-1.51c.4-.66.6-1.43.6-2.33,0-.84-.15-1.59-.44-2.24Z"/>
    <path class="cls-4" d="M254.29,35.11c-.5-1.1-1.46-1.64-2.87-1.64-.42,0-.9.12-1.44.35s-1.06.56-1.57.97c-.51.41-.92.86-1.24,1.35,0,.32-.01.86-.03,1.61-.02.72-.03,1.21-.03,1.49,0,.29.02.58.06.86.04.28.1.62.18,1.03.06.3.11.62.16.94.04.33.07.63.07.91,0,.54-.06.94-.19,1.22s-.41.41-.83.41-.77-.11-1.03-.34-.38-.68-.36-1.37l.06-5.55c-.11-1.34-.16-2.26-.16-2.76v-.42c0-.83.08-1.59.25-2.28.17-.69.44-1.03.82-1.03.75,0,1.13.62,1.13,1.85,0,.2-.03.59-.09,1.18l-.04.37c.22-.74.62-1.37,1.19-1.9.58-.53,1.2-.93,1.86-1.2.67-.27,1.23-.4,1.7-.4,1.87,0,3.19.73,3.98,2.18s1.18,3.22,1.18,5.3c0,1.93-.09,3.51-.28,4.76s-.58,1.87-1.16,1.87c-.26,0-.47-.03-.62-.09-.16-.06-.29-.21-.39-.44-.1-.23-.15-.59-.15-1.07,0-.31.02-.62.07-.92s.12-.68.22-1.13c.11-.52.19-.93.24-1.23.05-.3.07-.62.07-.96,0-1.5-.25-2.8-.75-3.89Z"/>
    <path class="cls-4" d="M271.2,41.52c.18.22.28.56.28,1.02,0,.89-.67,1.47-2.02,1.76-1.35.28-2.67.42-3.98.42-.98,0-1.93-.27-2.84-.81-.91-.54-1.65-1.28-2.22-2.22-.57-.93-.85-1.96-.85-3.07,0-1.6.27-3.01.82-4.23s1.34-2.18,2.39-2.87c1.05-.68,2.29-1.03,3.73-1.03.76,0,1.52.18,2.27.54.75.36,1.37.88,1.85,1.57s.73,1.5.73,2.44c0,.48-.07.88-.22,1.21-.15.33-.35.53-.61.62l-9.01,3.06c.31.93.93,1.54,1.88,1.83.94.28,1.99.42,3.14.42.38,0,.75-.05,1.13-.16.38-.1.82-.25,1.34-.44.33-.12.6-.22.81-.28.21-.07.4-.1.56-.1.37,0,.64.11.83.33ZM263.91,36.93c.95-.36,2.17-.83,3.66-1.42,1-.4,1.69-.66,2.05-.79-.27-.55-.72-.95-1.35-1.2-.64-.25-1.37-.38-2.2-.38-.47,0-1.04.17-1.73.5-.68.33-1.32.85-1.89,1.55-.58.7-.94,1.56-1.09,2.58.74-.2,1.59-.48,2.55-.84Z"/>
    <path class="cls-4" d="M277.79,34.54c-.65.79-.98,2.01-.98,3.65v.5l.15,4.36c0,.16-.04.36-.11.59-.07.23-.19.43-.36.61-.16.17-.38.26-.63.26-.48,0-.8-.14-.98-.41s-.27-.72-.27-1.35c0-.42,0-.85.03-1.3,0-.15.01-.35.01-.59v-1.33c0-.53.03-1.26.08-2.18s.18-2.54.37-4.86c.03-.47.14-.84.33-1.12.19-.27.47-.41.83-.41.2,0,.38.12.56.38.17.25.26.65.26,1.2,0,.84-.02,1.35-.04,1.54.2-.6.58-1.17,1.15-1.69.57-.52,1.19-.94,1.87-1.25s1.26-.47,1.76-.47c.81,0,1.53.15,2.16.45.62.3.94.9.94,1.8,0,.28-.06.54-.19.78s-.3.42-.5.55-.41.2-.63.2c-.19,0-.33-.03-.42-.1-.09-.07-.17-.17-.25-.31-.12-.22-.28-.38-.48-.5-.2-.12-.56-.18-1.06-.18h-.34c-1.51,0-2.59.4-3.24,1.19Z"/>
    <path class="cls-4" d="M294.96,44.35c-.21.27-.44.41-.7.41-.37,0-.66-.11-.87-.33-.21-.22-.38-.59-.48-1.11-.08-.45-.12-1.42-.12-2.9,0-2.45.1-4.68.31-6.68.2-2,.67-2.99,1.39-2.99.3,0,.49.12.59.38.09.25.14.61.14,1.08l-.12,1.98c-.05.67-.09,1.37-.13,2.11-.04.74-.06,1.39-.06,1.97,0,.61.06,1.47.19,2.58.12,1.15.18,1.95.18,2.39,0,.47-.1.84-.31,1.12ZM294.72,27.81c-.41,0-.79-.11-1.14-.34s-.53-.62-.53-1.19c0-.28.08-.57.25-.86.16-.29.37-.53.61-.72.24-.19.47-.28.69-.28.41,0,.76.12,1.06.37s.45.67.45,1.26c0,1.18-.46,1.77-1.38,1.77Z"/>
    <path class="cls-4" d="M306.82,44.27c-.12,0-.23.02-.33.07s-.16.08-.19.08c-.2.12-.4.18-.6.18-.47,0-.77-.24-.92-.71-.14-.48-.22-1.23-.22-2.26v-1.22l.25-15.41c0-.42.08-.76.23-.99.15-.24.43-.35.83-.35.13,0,.27.05.43.14s.29.22.4.39c.11.17.16.35.16.56,0,.84-.02,1.74-.04,2.69-.04,1.62-.06,3.13-.06,4.52.61-.35,1.19-.62,1.76-.82.57-.2,1.14-.3,1.71-.3,1.84,0,3.22.56,4.15,1.67s1.4,2.77,1.4,4.96c0,1.63-.38,2.98-1.14,4.05s-1.68,1.84-2.75,2.33c-1.07.49-2.08.73-3.04.73-.67,0-1.35-.1-2.05-.31ZM306.78,40.71c.04.48.1.8.19.96.3.15.93.23,1.91.23.46,0,.96-.09,1.53-.28.56-.18,1.08-.43,1.57-.75.49-.32.85-.66,1.1-1.03.18-.31.32-.79.43-1.42.11-.64.16-1.24.16-1.82s-.21-1.1-.63-1.56c-.42-.47-.93-.83-1.53-1.1-.6-.26-1.15-.4-1.65-.4-.53,0-1.1.14-1.73.43-.63.29-1.08.62-1.37,1-.03.78-.04,1.77-.04,2.97,0,1.36.02,2.28.05,2.76Z"/>
    <path class="cls-4" d="M318.62,40.04c-.27-.8-.41-1.51-.41-2.15,0-1.64.3-3,.9-4.06.6-1.06,1.38-1.83,2.32-2.32s1.97-.72,3.06-.72c1.16,0,2.19.29,3.1.88.23-.28.52-.56.88-.83.36-.27.67-.4.94-.4.58,0,.86.37.86,1.12,0,.24-.04.43-.11.59-.08.16-.19.3-.34.45-.15.14-.41.35-.75.62.35.6.62,1.31.83,2.11s.31,1.66.31,2.56c0,1.31-.29,2.49-.86,3.54-.57,1.05-1.32,1.86-2.26,2.45-.93.59-1.92.88-2.96.88-.32,0-.75-.09-1.31-.28-.56-.19-1.05-.39-1.47-.59-.05.11-.16.29-.33.53-.17.24-.35.46-.56.66-.2.2-.39.3-.54.3-.42,0-.74-.12-.97-.38-.23-.25-.34-.57-.34-.97,0-.31.07-.58.2-.81s.33-.49.57-.78c0,0,.09-.1.24-.27-.39-.62-.72-1.33-.99-2.13ZM322.15,38.66c.32-.51,1.01-1.47,2.07-2.89l.51-.68,1.12-1.52c-.1-.06-.21-.09-.33-.1s-.34-.01-.66-.01c-.81,0-1.59.16-2.32.47s-1.32.78-1.77,1.41c-.45.63-.68,1.39-.68,2.29,0,.49.11.99.32,1.5.21.51.41.9.59,1.16l1.16-1.63ZM324.49,39.07c-1.1,1.58-1.74,2.48-1.91,2.72.52.23.99.34,1.41.34.72,0,1.41-.17,2.06-.51.64-.34,1.17-.83,1.57-1.48.4-.65.61-1.4.62-2.26,0-.56-.07-1.11-.22-1.67s-.36-.96-.63-1.2c-.58.74-1.54,2.09-2.9,4.06Z"/>
    <path class="cls-4" d="M336.5,34.54c-.65.79-.98,2.01-.98,3.65v.5l.15,4.36c0,.16-.04.36-.11.59-.07.23-.19.43-.36.61-.16.17-.38.26-.63.26-.48,0-.8-.14-.98-.41s-.27-.72-.27-1.35c0-.42,0-.85.03-1.3,0-.15.01-.35.01-.59v-1.33c0-.53.03-1.26.08-2.18s.18-2.54.37-4.86c.03-.47.14-.84.33-1.12.19-.27.47-.41.83-.41.2,0,.38.12.56.38.17.25.26.65.26,1.2,0,.84-.02,1.35-.04,1.54.2-.6.58-1.17,1.15-1.69.57-.52,1.19-.94,1.87-1.25s1.26-.47,1.76-.47c.81,0,1.53.15,2.16.45.62.3.94.9.94,1.8,0,.28-.06.54-.19.78s-.3.42-.5.55-.41.2-.63.2c-.19,0-.33-.03-.42-.1-.09-.07-.17-.17-.25-.31-.12-.22-.28-.38-.48-.5-.2-.12-.56-.18-1.06-.18h-.34c-1.51,0-2.59.4-3.24,1.19Z"/>
    <path class="cls-4" d="M354.27,35.11c-.5-1.1-1.46-1.64-2.87-1.64-.42,0-.9.12-1.44.35s-1.07.56-1.57.97c-.51.41-.92.86-1.24,1.35,0,.32,0,.86-.03,1.61-.02.72-.03,1.21-.03,1.49,0,.29.02.58.06.86.04.28.1.62.18,1.03.06.3.11.62.16.94.04.33.07.63.07.91,0,.54-.06.94-.19,1.22s-.41.41-.83.41-.77-.11-1.03-.34c-.26-.23-.38-.68-.36-1.37l.06-5.55c-.11-1.34-.16-2.26-.16-2.76v-.42c0-.83.08-1.59.25-2.28s.44-1.03.82-1.03c.75,0,1.13.62,1.13,1.85,0,.2-.03.59-.09,1.18l-.04.37c.22-.74.62-1.37,1.19-1.9.58-.53,1.2-.93,1.86-1.2.67-.27,1.23-.4,1.7-.4,1.87,0,3.19.73,3.98,2.18s1.18,3.22,1.18,5.3c0,1.93-.09,3.51-.28,4.76s-.58,1.87-1.16,1.87c-.26,0-.47-.03-.63-.09-.16-.06-.29-.21-.39-.44-.1-.23-.15-.59-.15-1.07,0-.31.03-.62.08-.92.05-.3.12-.68.22-1.13.11-.52.19-.93.24-1.23s.08-.62.08-.96c0-1.5-.25-2.8-.75-3.89Z"/>
    <path class="cls-4" d="M371.18,41.52c.18.22.28.56.28,1.02,0,.89-.67,1.47-2.02,1.76-1.35.28-2.67.42-3.98.42-.98,0-1.93-.27-2.84-.81-.91-.54-1.65-1.28-2.22-2.22-.57-.93-.85-1.96-.85-3.07,0-1.6.27-3.01.82-4.23s1.34-2.18,2.39-2.87c1.05-.68,2.29-1.03,3.73-1.03.76,0,1.52.18,2.27.54.75.36,1.37.88,1.85,1.57s.73,1.5.73,2.44c0,.48-.07.88-.22,1.21-.15.33-.35.53-.61.62l-9.01,3.06c.31.93.93,1.54,1.88,1.83s1.99.42,3.14.42c.38,0,.75-.05,1.13-.16.38-.1.82-.25,1.34-.44.33-.12.6-.22.81-.28.21-.07.4-.1.56-.1.37,0,.64.11.83.33ZM363.89,36.93c.95-.36,2.17-.83,3.66-1.42,1-.4,1.69-.66,2.05-.79-.27-.55-.72-.95-1.35-1.2-.64-.25-1.37-.38-2.2-.38-.47,0-1.04.17-1.73.5-.68.33-1.32.85-1.89,1.55-.58.7-.94,1.56-1.09,2.58.75-.2,1.59-.48,2.55-.84Z"/>
    <path class="cls-4" d="M384.03,37.9c0-.76-.09-1.43-.26-2.02s-.56-1.1-1.15-1.52c-.6-.42-1.47-.63-2.62-.63-.58,0-1.14.12-1.7.38-.56.25-1.01.56-1.36.93-.35.37-.53.72-.53,1.05v6.66c-.01.38-.03.68-.06.91-.03.23-.11.43-.25.6-.14.17-.36.25-.66.25s-.55-.1-.8-.29c-.24-.19-.37-.59-.37-1.18,0-2.1.04-5.07.13-8.94.08-4.25.12-7.2.12-8.85,0-.23.05-.48.16-.77.11-.29.26-.54.45-.74.19-.21.4-.31.62-.31.25,0,.46.12.64.37s.27.53.27.85v.06c0,.74-.03,1.93-.09,3.57-.07,1.45-.1,2.69-.1,3.7l-.07,1.71c.09-.51.33-.97.72-1.38.39-.41.85-.73,1.38-.96s1.04-.34,1.51-.34c2.29,0,3.88.66,4.77,1.98s1.33,2.89,1.33,4.72l-.15,4.62c0,.06,0,.32-.02.79-.02.47-.12.87-.31,1.2-.19.33-.46.49-.81.49s-.64-.15-.85-.45c-.21-.3-.31-.67-.31-1.11,0-.61.06-1.47.18-2.56.12-1.06.18-1.87.18-2.45v-.33Z"/>
    <path class="cls-4" d="M402.97,41.64c.13.19.2.49.2.91,0,.32-.09.64-.28.96-.19.32-.45.59-.77.79-.33.21-.69.31-1.09.31s-.78-.13-1.17-.4c-.39-.27-.71-.62-.96-1.06-.25-.44-.37-.89-.37-1.35-.75.9-1.52,1.62-2.32,2.16-.8.54-1.65.81-2.55.81-.82,0-1.66-.25-2.51-.76s-1.55-1.2-2.09-2.06c-.55-.86-.82-1.8-.82-2.8,0-1.35.32-2.67.97-3.96s1.51-2.35,2.6-3.16,2.26-1.22,3.52-1.22c.95,0,1.84.27,2.66.82.82.55,1.47,1.25,1.95,2.12.48.86.72,1.74.72,2.63,0,.38-.03.76-.09,1.13s-.09.61-.1.71c-.08.44-.14.84-.18,1.18s-.06.71-.06,1.1c0,.56.09.96.26,1.2.17.24.43.36.78.36.09,0,.18-.03.28-.1.09-.07.21-.16.33-.28.02-.02.08-.07.17-.15.09-.08.18-.13.26-.16.31,0,.53.09.66.28ZM396.83,41.13c.63-.61,1.07-1.31,1.3-2.1.23-.79.45-1.81.65-3.08,0-.29-.18-.63-.55-1.01s-.81-.7-1.32-.98c-.51-.27-.97-.41-1.38-.41-1.02,0-1.94.27-2.74.81-.8.54-1.43,1.24-1.87,2.09-.44.85-.66,1.71-.66,2.59,0,.58.19,1.09.57,1.55.38.46.87.81,1.47,1.07s1.21.38,1.84.38c1.16,0,2.06-.31,2.7-.92Z"/>
    <path class="cls-4" d="M406.32,34.46c.43,1.39.82,2.6,1.19,3.62s.83,2.14,1.38,3.34c.17-.17.52-.78,1.06-1.82.54-1.04,1.45-2.98,2.74-5.8.64-1.2,1.12-2.05,1.45-2.54.33-.5.6-.74.82-.74.26,0,.46.15.61.45.15.3.22.66.22,1.1,0,.19-.04.4-.13.64-.09.24-.27.62-.54,1.15-.27.53-.62,1.17-1.03,1.93l-.55,1.01c-2.37,5.37-4.06,8.06-5.06,8.06-.57,0-1.22-.96-1.97-2.87-.74-1.92-1.58-4.49-2.52-7.72-.32-.69-.48-1.3-.48-1.84,0-.42.05-.77.15-1.05.1-.27.31-.41.62-.41.41,0,.7.11.88.33.18.22.35.61.52,1.17l.64,2Z"/>
    <path class="cls-4" d="M429.02,41.52c.18.22.28.56.28,1.02,0,.89-.67,1.47-2.02,1.76-1.35.28-2.67.42-3.98.42-.98,0-1.93-.27-2.84-.81-.91-.54-1.65-1.28-2.22-2.22-.57-.93-.85-1.96-.85-3.07,0-1.6.27-3.01.82-4.23s1.34-2.18,2.39-2.87c1.05-.68,2.29-1.03,3.73-1.03.76,0,1.52.18,2.27.54.75.36,1.37.88,1.85,1.57s.73,1.5.73,2.44c0,.48-.07.88-.22,1.21-.15.33-.35.53-.61.62l-9.01,3.06c.31.93.93,1.54,1.88,1.83s1.99.42,3.14.42c.38,0,.75-.05,1.13-.16.38-.1.82-.25,1.34-.44.33-.12.6-.22.81-.28.21-.07.4-.1.56-.1.37,0,.64.11.83.33ZM421.73,36.93c.95-.36,2.17-.83,3.66-1.42,1-.4,1.69-.66,2.05-.79-.27-.55-.72-.95-1.35-1.2-.64-.25-1.37-.38-2.2-.38-.47,0-1.04.17-1.73.5-.68.33-1.32.85-1.89,1.55-.58.7-.94,1.56-1.09,2.58.75-.2,1.59-.48,2.55-.84Z"/>
    <path class="cls-4" d="M441.33,35.11c-.5-1.1-1.46-1.64-2.87-1.64-.42,0-.9.12-1.44.35s-1.07.56-1.57.97c-.51.41-.92.86-1.24,1.35,0,.32,0,.86-.03,1.61-.02.72-.03,1.21-.03,1.49,0,.29.02.58.06.86.04.28.1.62.18,1.03.06.3.11.62.16.94.04.33.07.63.07.91,0,.54-.06.94-.19,1.22s-.41.41-.83.41-.77-.11-1.03-.34c-.26-.23-.38-.68-.36-1.37l.06-5.55c-.11-1.34-.16-2.26-.16-2.76v-.42c0-.83.08-1.59.25-2.28s.44-1.03.82-1.03c.75,0,1.13.62,1.13,1.85,0,.2-.03.59-.09,1.18l-.04.37c.22-.74.62-1.37,1.19-1.9.58-.53,1.2-.93,1.86-1.2.67-.27,1.23-.4,1.7-.4,1.87,0,3.19.73,3.98,2.18s1.18,3.22,1.18,5.3c0,1.93-.09,3.51-.28,4.76s-.58,1.87-1.16,1.87c-.26,0-.47-.03-.63-.09-.16-.06-.29-.21-.39-.44-.1-.23-.15-.59-.15-1.07,0-.31.03-.62.08-.92.05-.3.12-.68.22-1.13.11-.52.19-.93.24-1.23s.08-.62.08-.96c0-1.5-.25-2.8-.75-3.89Z"/>
  </g>
</svg>