<?xml version="1.0" encoding="UTF-8"?>
<svg id="Layer_1" xmlns="http://www.w3.org/2000/svg" viewBox="0 0 603 87">
  <defs>
    <style>
      .cls-1 {
        fill: none;
      }

      .cls-1, .cls-2 {
        stroke: #231f20;
        stroke-miterlimit: 10;
        stroke-width: 2px;
      }

      .cls-2 {
        fill: #026955;
      }

      .cls-3 {
        fill: #eaa294;
      }

      .cls-4 {
        fill: #ededed;
      }

      .cls-5 {
        fill: #c18678;
      }
    </style>
  </defs>
  <g>
    <path class="cls-2" d="M590,10.05l-.14,71.92-460.8-.53c-2.84,0-5.65-.39-8.32-1.14L8.51,48.65c-3.99-1.13-3.98-5.48.01-6.6L121.61,10.44c2.18-.61,4.49-.92,6.81-.92l461.58.53Z"/>
    <path class="cls-5" d="M76.15,31.19c-1.65.77-2.58,1.96-3.16,3.29-.27.16-.52.34-.77.51-1.64-.09-3.33.18-4.72.83-.53.25-.99.55-1.43.86-1.06-.03-2.13.06-3.19.31-5.64,1.33-6.88,5.94-5.86,9.91.92,3.59,3.87,7.37,8.1,9.17.86.37,1.81.66,2.79.87,1.73,1.87,4.44,3.09,7.93,2.99,3.38-.1,6.66-1.47,9.06-3.48.6.11,1.22.19,1.88.21,6.56.16,9.16-4.98,8.3-9.34.15-2.09-.95-4.24-2.75-5.78-.19-.17-.41-.31-.62-.46.75-.98.91-2.24.05-3.25-.36-.43-.76-.82-1.18-1.2,0,0,0,0,0,0-.4-.43-.79-.86-1.2-1.28-.95-.98-1.92-1.99-3.11-2.81-2.75-1.91-6.68-2.94-10.11-1.35Z"/>
    <path class="cls-3" d="M119.56,11.02c-1.17.12-2.08.55-2.92,1.16-.06.04-.4.3-.66.51-.31.04-.63.15-.94.21-.39.07-.78.12-1.17.17-.13.01-.46.05-.58.06-1.76.16-3.57.27-5.25.73-1.92.51-3.23,1.39-4.83,2.31.45-.26-.66.31-.62.3-.33.16-.68.3-1.02.44-.53.21-1.06.42-1.59.62-.38-.01-.76,0-1.15.05-1.55.2-2.97.78-4.3,1.43-.62-.11-1.26-.11-1.91.08-.87.25-1.72.53-2.58.81-.32.1-.64.21-.95.31-.14.05-1.13.44-.27.09-.59.24-1.29.4-1.93.56-.32.08-.65.14-.97.22-.03,0-.03,0-.06.02-2.09.03-3.69.77-5.1,1.91-.01.01-.03.02-.04.03-.9.22-1.79.46-2.66.76-.33.11-.63.25-.93.39-2.16.14-4.35.17-6.39.76-1.12.33-2.21.73-3.25,1.21-.09-.02-.17-.05-.26-.06-1.66-.23-3.06-.05-4.53.6-.86.38-1.7.76-2.59,1.1-.23.09-.46.17-.7.26-.04.01-.28.09-.41.14-.15.04-.36.1-.39.11-.26.07-.52.14-.77.21-1.07.29-2.16.55-3.25.81-2.36.55-4.61,1.29-6.88,2.05-.51.17-1.02.34-1.52.5-.31.1-.63.21-.94.32-.04.01-.29.09-.43.14-.14.04-.42.13-.45.14-.24.07-.48.13-.72.2-.68.18-1.36.38-1.99.65-.09.04-.16.09-.24.13-1.24-.48-2.75-.52-3.96.08-1.89.94-2.73,2.88-1.52,4.43.63.81,1.09,1.54,1.92,2.27.12.1.23.19.35.29.02.02.02.03.04.05.05.08.08.13.11.17.06.13.12.26.16.4.04.13.17.9.18.8.03.33.05.65.05.98,0,.39-.02.79-.06,1.18-.02.19-.03.38-.05.57,0,.06-.01.1-.02.14-.01.05-.03.13-.06.28-.05.21-.11.42-.17.62-.12.42-.26.83-.39,1.24-.26.84-.42,1.68-.64,2.52-.11.42-.27.83-.41,1.25-.01.03-.02.04-.03.06-.06.1-.13.2-.2.29-.03.04-.07.08-.1.12-2.14.31-3.51,2.44-2.87,3.97.76,1.82,2.83,2.56,5.16,2.27.54-.07,1.04-.2,1.51-.38.26.21.55.4.9.54,2.38.96,4.87,1.32,7.45,1.8.56.1,1.1.25,1.66.36.01,0,.01.01.03.02.16.11.42.22.61.3.02,0,.02,0,.04.02.18.11.36.22.54.33.6.37,1.2.76,1.85,1.08,2.08,1.02,4.65,1.06,6.91,1.73,1.41.42,2.88.77,4.37,1.09.75.78,1.91,1.29,3.3,1.31,1.2.01,1.68.08,2.86.23.94.12,1.88.22,2.82.32.29.26.64.49,1.06.65.7.25,1.27.63,1.91.96.86.45,1.86.76,2.83,1.03,1.62.46,3.33.69,4.98,1.09,3.51.86,6.86,2.08,10.38,2.94,0,0,0,0,.01,0,.08.05.16.11.25.16,1.51.85,3.24,1.24,4.93,1.82,1.93.66,3.77,1.46,5.74,2.05,1.98.6,4.06.95,6.05,1.51,3.58,1,6.91,2.35,10.72,2.78,2.75.31,5.91.49,8.59-.3,3.86.48,7.45-.47,11.13-1.31.56-.13,1.11-.29,1.67-.44,3.2.48,5.82-.39,8.75-1.41,2.63-.91,5.81-1.13,7.5-3.17,1.25-1.52,1.16-3.4.98-5.12-.28-2.74-2.52-4.37-5.73-5.3-2.63-.76-5.27-1.46-7.88-2.27-2.36-.73-4.44-1.77-6.73-2.59-2.7-.97-5.62-1.36-8.54-1.75-.78-.1-1.55-.21-2.33-.3,1.37-.22,2.71-.52,4.07-.77.28.05.56.07.86.07,1.49,0,2.92-.01,4.39-.2.48-.06.95-.16,1.42-.28.1.03.19.07.29.09,1.75.37,3.82.24,5.52-.22,1.69-.46,3.04-1.31,4.63-1.92.03-.01.04-.02.06-.02.02,0,.03,0,.07-.02.19-.06.38-.12.57-.17.38-.12.76-.23,1.14-.34,1.04-.32,2.08-.64,3.07-1.04,1.7-.68,3.14-1.56,4.09-2.86.95-1.31,1.45-2.74.88-4.14-.04-1.05-.35-2.09-.99-2.89-1.3-1.63-3.48-2.33-5.63-3.08-.3-.21-.6-.43-.9-.63-.88-.55-1.89-.88-2.91-.91-.16-.08-.33-.14-.48-.22-1.03-.57-2.08-1.4-3.32-1.92-2.5-1.04-5.27-1.47-8.02-1.9-1.28-.2-2.58-.39-3.88-.56.6-.52.9-1.09.99-1.65,4.34-.15,8.75-.63,12.95-1.37,4.16-.74,8.45-2.21,10.83-5.09,2.85-3.44.75-7.26-3.35-9.35-.2-.1-.41-.17-.62-.26-.55-1.07-1.78-1.91-3.7-1.95-3.24-.05-6.63-.76-9.76-1.09-3.29-.34-6.64-1.04-10.07-1.11-3.21-.06-6.7-.33-9.91.03-.79-.34-1.72-.5-2.76-.39Z"/>
    <path class="cls-1" d="M31.67,55.18c7.78-5.39,8.7-14.38,2.05-20.09"/>
    <path class="cls-1" d="M121.61,10.44c31.08.04,40.97,4.83,40.48,11.72"/>
    <path class="cls-1" d="M124.59,32.48c20.71.03,37.47-4.58,37.49-10.31"/>
    <path class="cls-1" d="M124.62,32.47c20.7.03,37.44,6.25,37.42,13.9"/>
    <path class="cls-1" d="M124.55,57.7c20.7.03,37.47-5.04,37.48-11.33"/>
    <path class="cls-1" d="M124.56,57.7c20.71.03,37.45,5.88,37.43,13.08"/>
    <path class="cls-1" d="M122.5,80.74c21.46,1.84,39.47-4.04,39.49-9.96"/>
    <line class="cls-1" x1="20.01" y1="51.89" x2="122.5" y2="80.74"/>
    <line class="cls-1" x1="21" y1="38.56" x2="122.64" y2="10.16"/>
  </g>
  <g>
    <path class="cls-4" d="M197.47,35.44c.22.04.39.15.49.33.1.18.16.47.16.86,0,.35-.1.69-.31,1.03s-.44.51-.71.51c-4.52-.02-7.51-.05-8.96-.1,0,.3-.01.88-.03,1.73-.02.89-.03,1.51-.03,1.85l5.58-.06c.34,0,.61.12.81.35.2.23.31.59.31,1.08,0,.13-.04.31-.11.54-.07.23-.18.42-.33.59-.14.17-.32.25-.53.25-1.87,0-3.34,0-4.41-.03-.23,0-.49-.01-.77-.01-.27,0-.44.01-.51.04l.1,4.56c.65,0,1.39.01,2.2.04s1.36.05,1.64.06c1.83.08,3.25.11,4.26.11.66,0,.98.55.98,1.64,0,.54-.15.93-.44,1.16s-.67.35-1.12.35c-.42,0-1.02-.04-1.82-.11-.57-.06-1.11-.1-1.63-.13-.52-.03-1.19-.05-2.02-.05-.38,0-.82.02-1.34.07-.81.05-1.33.07-1.55.07-.39,0-.7-.17-.94-.5-.24-.33-.35-.77-.34-1.31l.09-6.29c0-.13-.02-.28-.07-.45-.01-.04-.02-.12-.04-.23-.02-.12-.03-.23-.03-.35,0-.24.06-.5.18-.79-.05-1.44-.07-2.97-.07-4.57,0-.49.02-.9.06-1.24.04-.33.15-.63.32-.88.17-.25.44-.38.81-.38.17,0,.34.01.53.04.18.03.31.05.36.06.42.08.75.11,1,.11h3.56c1.75-.03,2.94-.04,3.57-.04.51,0,.87.02,1.09.06Z"/>
    <path class="cls-4" d="M209.28,42.7c-.5-1.1-1.46-1.64-2.87-1.64-.42,0-.9.12-1.44.35s-1.06.56-1.57.97c-.51.41-.92.86-1.24,1.35,0,.32-.01.86-.03,1.61-.02.72-.03,1.21-.03,1.49,0,.29.02.58.06.86.04.28.1.62.18,1.03.06.3.11.62.16.94.04.33.07.63.07.91,0,.54-.06.94-.19,1.22-.13.27-.41.41-.83.41s-.77-.11-1.03-.34c-.26-.23-.38-.68-.36-1.37l.06-5.55c-.11-1.34-.16-2.26-.16-2.76v-.42c0-.83.08-1.59.25-2.28.17-.69.44-1.03.82-1.03.75,0,1.13.62,1.13,1.85,0,.2-.03.59-.09,1.18l-.04.37c.22-.74.62-1.37,1.19-1.9s1.2-.93,1.86-1.2c.67-.27,1.23-.4,1.7-.4,1.87,0,3.19.73,3.98,2.18s1.18,3.22,1.18,5.3c0,1.93-.09,3.51-.28,4.76s-.58,1.87-1.16,1.87c-.26,0-.47-.03-.63-.09-.16-.06-.29-.21-.39-.44-.1-.23-.15-.59-.15-1.07,0-.31.02-.62.07-.92s.12-.68.22-1.13c.11-.52.19-.93.24-1.23.05-.3.07-.62.07-.96,0-1.5-.25-2.8-.75-3.89Z"/>
    <path class="cls-4" d="M229.16,38.72c.53.22.97.52,1.3.92s.54.85.6,1.36l.03-4.06.03-4.04c0-.99.38-1.49,1.13-1.49.29,0,.5.13.63.4.13.26.19.58.19.95v2.1s-.04,2.14-.04,2.14l-.18,8.99-.06,2.45c0,1.26-.1,2.2-.26,2.84-.16.64-.5.96-1,.96-.2,0-.37-.12-.51-.37-.14-.25-.3-.6-.48-1.08-.33.3-.76.56-1.3.77-.54.21-1.09.37-1.65.48-.57.11-1.06.16-1.47.16-1.78,0-3.12-.56-4.04-1.67-.91-1.11-1.37-2.63-1.37-4.55,0-1.32.27-2.56.81-3.72.54-1.16,1.32-2.1,2.35-2.8s2.22-1.06,3.6-1.06c.6,0,1.16.11,1.69.33ZM228.55,49.39c.6-.2,1.08-.45,1.43-.73s.57-.54.65-.78c.08-.25.13-.51.16-.79.02-.28.04-.61.04-.99v-1.3c0-.64-.15-1.25-.46-1.83-.31-.58-.72-1.04-1.23-1.39-.51-.35-1.04-.52-1.6-.52-.96,0-1.8.21-2.52.62s-1.27.99-1.65,1.72c-.38.73-.57,1.56-.57,2.5,0,.76.16,1.44.48,2.01.32.58.77,1.02,1.33,1.32.57.31,1.2.46,1.89.46.77,0,1.46-.1,2.06-.3Z"/>
    <path class="cls-4" d="M250.22,49.23c.13.19.2.49.2.91,0,.32-.09.64-.28.96s-.45.59-.77.79c-.33.21-.69.31-1.09.31s-.78-.13-1.17-.4c-.39-.27-.71-.62-.96-1.06-.25-.44-.37-.89-.37-1.35-.75.9-1.52,1.62-2.32,2.16-.8.54-1.65.81-2.55.81-.82,0-1.66-.25-2.51-.76s-1.55-1.2-2.09-2.06c-.55-.86-.82-1.8-.82-2.8,0-1.35.32-2.67.97-3.96s1.51-2.35,2.6-3.16,2.26-1.22,3.52-1.22c.95,0,1.84.27,2.66.82s1.47,1.25,1.95,2.12c.48.86.72,1.74.72,2.63,0,.38-.03.76-.09,1.13s-.09.61-.1.71c-.08.44-.14.84-.18,1.18-.04.34-.06.71-.06,1.1,0,.56.09.96.26,1.2.17.24.43.36.78.36.09,0,.18-.03.28-.1.09-.07.21-.16.34-.28.02-.02.08-.07.17-.15.09-.08.18-.13.26-.16.31,0,.53.09.66.28ZM244.07,48.72c.64-.61,1.07-1.31,1.3-2.1.23-.79.45-1.81.65-3.08,0-.29-.18-.63-.55-1.01-.37-.38-.81-.7-1.32-.98s-.97-.41-1.38-.41c-1.02,0-1.94.27-2.74.81-.8.54-1.43,1.24-1.87,2.09s-.66,1.71-.66,2.59c0,.58.19,1.09.57,1.55.38.46.87.81,1.47,1.07s1.21.38,1.84.38c1.16,0,2.06-.31,2.7-.92Z"/>
    <path class="cls-4" d="M259.53,55.44c.25-.41.42-.9.51-1.48.09-.58.17-1.34.24-2.29.04-.66.08-1.15.12-1.46-.11.42-.37.8-.8,1.13-.42.33-.91.58-1.47.76-.56.17-1.07.26-1.55.26-1.79,0-3.14-.52-4.07-1.56-.93-1.04-1.39-2.59-1.39-4.65,0-1.34.21-2.6.62-3.77s1.05-2.11,1.9-2.83,1.89-1.08,3.13-1.08c.97,0,1.92.31,2.84.93.92.62,1.67,1.38,2.24,2.29.57.91.86,1.78.86,2.6l-.28,6.7v.2c-.06.25-.14.84-.25,1.74-.16,1.27-.34,2.31-.54,3.09-.2.79-.56,1.46-1.09,2.02-.53.56-1.29.83-2.27.83-.39,0-.89-.06-1.5-.19-.62-.13-1.17-.34-1.66-.64-.49-.3-.74-.7-.74-1.2,0-.47.07-.83.2-1.08.13-.25.38-.37.74-.37.09,0,.17.01.25.04.08.03.15.07.22.11.25.15.56.27.92.37.37.09.95.14,1.76.14.47,0,.82-.21,1.07-.62ZM258.61,49.09c.52-.42.95-.95,1.29-1.56.35-.62.6-1.23.76-1.83-.11-.82-.28-1.55-.5-2.19s-.58-1.18-1.07-1.63-1.15-.67-1.99-.67c-1.36,0-2.35.44-2.96,1.33s-.93,2.03-.95,3.43c0,1.39.32,2.36.97,2.92.65.56,1.56.84,2.75.84.62,0,1.18-.21,1.7-.64Z"/>
    <path class="cls-4" d="M274.44,51.95c-.21.27-.44.41-.7.41-.37,0-.66-.11-.87-.33-.21-.22-.38-.59-.48-1.11-.08-.45-.12-1.42-.12-2.9,0-2.45.1-4.68.3-6.68.2-2,.67-2.99,1.39-2.99.3,0,.49.12.59.38.09.25.14.61.14,1.08l-.12,1.98c-.05.67-.09,1.37-.13,2.11-.04.74-.06,1.39-.06,1.97,0,.61.06,1.47.19,2.58.12,1.15.18,1.95.18,2.39,0,.47-.1.84-.31,1.12ZM274.2,35.41c-.41,0-.79-.11-1.14-.34s-.53-.62-.53-1.19c0-.28.08-.57.25-.86.16-.29.37-.53.61-.72s.47-.28.69-.28c.41,0,.76.12,1.06.37.3.25.45.67.45,1.26,0,1.18-.46,1.77-1.38,1.77Z"/>
    <path class="cls-4" d="M286.29,51.86c-.12,0-.23.02-.33.07-.1.05-.16.08-.19.08-.2.12-.4.18-.6.18-.47,0-.77-.24-.92-.71-.14-.48-.22-1.23-.22-2.26v-1.22l.25-15.41c0-.42.08-.76.23-.99.15-.24.43-.35.83-.35.13,0,.27.05.43.14.16.09.29.22.4.39.11.17.16.35.16.56,0,.84-.01,1.74-.04,2.69-.04,1.62-.06,3.13-.06,4.52.61-.35,1.19-.62,1.76-.82.57-.2,1.14-.3,1.71-.3,1.84,0,3.22.56,4.15,1.67.93,1.11,1.4,2.77,1.4,4.96,0,1.63-.38,2.98-1.14,4.05-.76,1.07-1.67,1.84-2.75,2.33-1.07.49-2.08.73-3.04.73-.67,0-1.35-.1-2.05-.31ZM286.25,48.31c.03.48.1.8.19.96.3.15.93.23,1.91.23.46,0,.97-.09,1.53-.28.56-.18,1.08-.43,1.57-.75.49-.32.85-.66,1.1-1.03.18-.31.32-.79.43-1.42.11-.64.16-1.24.16-1.82s-.21-1.1-.62-1.56c-.42-.47-.93-.83-1.53-1.1s-1.15-.4-1.65-.4c-.53,0-1.1.14-1.73.43-.62.29-1.08.62-1.37,1-.03.78-.04,1.77-.04,2.97,0,1.36.02,2.28.05,2.76Z"/>
    <path class="cls-4" d="M298.09,47.64c-.27-.8-.41-1.51-.41-2.15,0-1.64.3-3,.9-4.06.6-1.06,1.38-1.83,2.32-2.32s1.97-.72,3.06-.72c1.16,0,2.19.29,3.1.88.23-.28.52-.56.88-.83.36-.27.67-.4.94-.4.58,0,.86.37.86,1.12,0,.24-.04.43-.11.59-.08.16-.19.3-.34.45-.15.14-.41.35-.75.62.35.6.62,1.31.83,2.11s.31,1.66.31,2.56c0,1.31-.29,2.49-.86,3.54-.57,1.05-1.32,1.86-2.26,2.45-.93.59-1.92.88-2.96.88-.32,0-.75-.09-1.31-.28-.56-.19-1.05-.39-1.47-.59-.05.11-.16.29-.33.53-.17.24-.35.46-.56.66-.2.2-.39.3-.54.3-.42,0-.74-.12-.97-.38-.23-.25-.34-.57-.34-.97,0-.31.07-.58.2-.81s.33-.49.57-.78c0,0,.09-.1.24-.27-.39-.62-.72-1.33-.99-2.13ZM301.63,46.26c.32-.51,1.01-1.47,2.07-2.89l.51-.68,1.12-1.52c-.1-.06-.21-.09-.33-.1s-.34-.01-.66-.01c-.81,0-1.59.16-2.32.47s-1.32.78-1.77,1.41c-.45.63-.68,1.39-.68,2.29,0,.49.11.99.32,1.5.21.51.41.9.59,1.16l1.16-1.63ZM303.97,46.67c-1.1,1.58-1.74,2.48-1.91,2.72.52.23.99.34,1.41.34.72,0,1.41-.17,2.06-.51.64-.34,1.17-.83,1.57-1.48.4-.65.61-1.4.62-2.26,0-.56-.07-1.11-.22-1.67s-.36-.96-.63-1.2c-.58.74-1.54,2.09-2.9,4.06Z"/>
    <path class="cls-4" d="M315.98,42.14c-.65.79-.98,2.01-.98,3.65v.5l.15,4.36c0,.16-.04.36-.11.59-.07.23-.19.43-.36.61-.16.17-.38.26-.63.26-.48,0-.8-.14-.98-.41s-.27-.72-.27-1.35c0-.42,0-.85.03-1.3,0-.15.01-.35.01-.59v-1.33c0-.53.03-1.26.08-2.18s.18-2.54.37-4.86c.03-.47.14-.84.33-1.12.19-.27.47-.41.83-.41.2,0,.38.12.56.38.17.25.26.65.26,1.2,0,.84-.02,1.35-.04,1.54.2-.6.58-1.17,1.15-1.69.57-.52,1.19-.94,1.87-1.25s1.26-.47,1.76-.47c.81,0,1.53.15,2.16.45.62.3.94.9.94,1.8,0,.28-.06.54-.19.78s-.3.42-.5.55-.41.2-.63.2c-.19,0-.33-.03-.42-.1-.09-.07-.17-.17-.25-.31-.12-.22-.28-.38-.48-.5-.2-.12-.56-.18-1.06-.18h-.34c-1.51,0-2.59.4-3.24,1.19Z"/>
    <path class="cls-4" d="M333.74,42.7c-.5-1.1-1.46-1.64-2.87-1.64-.42,0-.9.12-1.44.35s-1.07.56-1.57.97c-.51.41-.92.86-1.24,1.35,0,.32,0,.86-.03,1.61-.02.72-.03,1.21-.03,1.49,0,.29.02.58.06.86.04.28.1.62.18,1.03.06.3.11.62.16.94.04.33.07.63.07.91,0,.54-.06.94-.19,1.22s-.41.41-.83.41-.77-.11-1.03-.34c-.26-.23-.38-.68-.36-1.37l.06-5.55c-.11-1.34-.16-2.26-.16-2.76v-.42c0-.83.08-1.59.25-2.28s.44-1.03.82-1.03c.75,0,1.13.62,1.13,1.85,0,.2-.03.59-.09,1.18l-.04.37c.22-.74.62-1.37,1.19-1.9.58-.53,1.2-.93,1.86-1.2.67-.27,1.23-.4,1.7-.4,1.87,0,3.19.73,3.98,2.18s1.18,3.22,1.18,5.3c0,1.93-.09,3.51-.28,4.76s-.58,1.87-1.16,1.87c-.26,0-.47-.03-.63-.09-.16-.06-.29-.21-.39-.44-.1-.23-.15-.59-.15-1.07,0-.31.03-.62.08-.92.05-.3.12-.68.22-1.13.11-.52.19-.93.24-1.23s.08-.62.08-.96c0-1.5-.25-2.8-.75-3.89Z"/>
    <path class="cls-4" d="M350.66,49.12c.18.22.28.56.28,1.02,0,.89-.67,1.47-2.02,1.76-1.35.28-2.67.42-3.98.42-.98,0-1.93-.27-2.84-.81-.91-.54-1.65-1.28-2.22-2.22-.57-.93-.85-1.96-.85-3.07,0-1.6.27-3.01.82-4.23s1.34-2.18,2.39-2.87c1.05-.68,2.29-1.03,3.73-1.03.76,0,1.52.18,2.27.54.75.36,1.37.88,1.85,1.57s.73,1.5.73,2.44c0,.48-.07.88-.22,1.21-.15.33-.35.53-.61.62l-9.01,3.06c.31.93.93,1.54,1.88,1.83s1.99.42,3.14.42c.38,0,.75-.05,1.13-.16.38-.1.82-.25,1.34-.44.33-.12.6-.22.81-.28.21-.07.4-.1.56-.1.37,0,.64.11.83.33ZM343.37,44.53c.95-.36,2.17-.83,3.66-1.42,1-.4,1.69-.66,2.05-.79-.27-.55-.72-.95-1.35-1.2-.64-.25-1.37-.38-2.2-.38-.47,0-1.04.17-1.73.5-.68.33-1.32.85-1.89,1.55-.58.7-.94,1.56-1.09,2.58.75-.2,1.59-.48,2.55-.84Z"/>
    <path class="cls-4" d="M363.5,45.49c0-.76-.09-1.43-.26-2.02s-.56-1.1-1.15-1.52c-.6-.42-1.47-.63-2.62-.63-.58,0-1.14.12-1.7.38-.56.25-1.01.56-1.36.93-.35.37-.53.72-.53,1.05v6.66c-.01.38-.03.68-.06.91-.03.23-.11.43-.25.6-.14.17-.36.25-.66.25s-.55-.1-.8-.29c-.24-.19-.37-.59-.37-1.18,0-2.1.04-5.07.13-8.94.08-4.25.12-7.2.12-8.85,0-.23.05-.48.16-.77.11-.29.26-.54.45-.74.19-.21.4-.31.62-.31.25,0,.46.12.64.37s.27.53.27.85v.06c0,.74-.03,1.93-.09,3.57-.07,1.45-.1,2.69-.1,3.7l-.07,1.71c.09-.51.33-.97.72-1.38.39-.41.85-.73,1.38-.96s1.04-.34,1.51-.34c2.29,0,3.88.66,4.77,1.98s1.33,2.89,1.33,4.72l-.15,4.62c0,.06,0,.32-.02.79-.02.47-.12.87-.31,1.2-.19.33-.46.49-.81.49s-.64-.15-.85-.45c-.21-.3-.31-.67-.31-1.11,0-.61.06-1.47.18-2.56.12-1.06.18-1.87.18-2.45v-.33Z"/>
    <path class="cls-4" d="M382.45,49.23c.13.19.2.49.2.91,0,.32-.09.64-.28.96-.19.32-.45.59-.77.79-.33.21-.69.31-1.09.31s-.78-.13-1.17-.4c-.39-.27-.71-.62-.96-1.06-.25-.44-.37-.89-.37-1.35-.75.9-1.52,1.62-2.32,2.16-.8.54-1.65.81-2.55.81-.82,0-1.66-.25-2.51-.76s-1.55-1.2-2.09-2.06c-.55-.86-.82-1.8-.82-2.8,0-1.35.32-2.67.97-3.96s1.51-2.35,2.6-3.16,2.26-1.22,3.52-1.22c.95,0,1.84.27,2.66.82.82.55,1.47,1.25,1.95,2.12.48.86.72,1.74.72,2.63,0,.38-.03.76-.09,1.13s-.09.61-.1.71c-.08.44-.14.84-.18,1.18s-.06.71-.06,1.1c0,.56.09.96.26,1.2.17.24.43.36.78.36.09,0,.18-.03.28-.1.09-.07.21-.16.33-.28.02-.02.08-.07.17-.15.09-.08.18-.13.26-.16.31,0,.53.09.66.28ZM376.31,48.72c.63-.61,1.07-1.31,1.3-2.1.23-.79.45-1.81.65-3.08,0-.29-.18-.63-.55-1.01s-.81-.7-1.32-.98c-.51-.27-.97-.41-1.38-.41-1.02,0-1.94.27-2.74.81-.8.54-1.43,1.24-1.87,2.09-.44.85-.66,1.71-.66,2.59,0,.58.19,1.09.57,1.55.38.46.87.81,1.47,1.07s1.21.38,1.84.38c1.16,0,2.06-.31,2.7-.92Z"/>
    <path class="cls-4" d="M385.79,42.05c.43,1.39.82,2.6,1.19,3.62s.83,2.14,1.38,3.34c.17-.17.52-.78,1.06-1.82.54-1.04,1.45-2.98,2.74-5.8.64-1.2,1.12-2.05,1.45-2.54.33-.5.6-.74.82-.74.26,0,.46.15.61.45.15.3.22.66.22,1.1,0,.19-.04.4-.13.64-.09.24-.27.62-.54,1.15-.27.53-.62,1.17-1.03,1.93l-.55,1.01c-2.37,5.37-4.06,8.06-5.06,8.06-.57,0-1.22-.96-1.97-2.87-.74-1.92-1.58-4.49-2.52-7.72-.32-.69-.48-1.3-.48-1.84,0-.42.05-.77.15-1.05.1-.27.31-.41.62-.41.41,0,.7.11.88.33.18.22.35.61.52,1.17l.64,2Z"/>
    <path class="cls-4" d="M408.49,49.12c.18.22.28.56.28,1.02,0,.89-.67,1.47-2.02,1.76-1.35.28-2.67.42-3.98.42-.98,0-1.93-.27-2.84-.81-.91-.54-1.65-1.28-2.22-2.22-.57-.93-.85-1.96-.85-3.07,0-1.6.27-3.01.82-4.23s1.34-2.18,2.39-2.87c1.05-.68,2.29-1.03,3.73-1.03.76,0,1.52.18,2.27.54.75.36,1.37.88,1.85,1.57s.73,1.5.73,2.44c0,.48-.07.88-.22,1.21-.15.33-.35.53-.61.62l-9.01,3.06c.31.93.93,1.54,1.88,1.83s1.99.42,3.14.42c.38,0,.75-.05,1.13-.16.38-.1.82-.25,1.34-.44.33-.12.6-.22.81-.28.21-.07.4-.1.56-.1.37,0,.64.11.83.33ZM401.21,44.53c.95-.36,2.17-.83,3.66-1.42,1-.4,1.69-.66,2.05-.79-.27-.55-.72-.95-1.35-1.2-.64-.25-1.37-.38-2.2-.38-.47,0-1.04.17-1.73.5-.68.33-1.32.85-1.89,1.55-.58.7-.94,1.56-1.09,2.58.75-.2,1.59-.48,2.55-.84Z"/>
    <path class="cls-4" d="M420.81,42.7c-.5-1.1-1.46-1.64-2.87-1.64-.42,0-.9.12-1.44.35s-1.07.56-1.57.97c-.51.41-.92.86-1.24,1.35,0,.32,0,.86-.03,1.61-.02.72-.03,1.21-.03,1.49,0,.29.02.58.06.86.04.28.1.62.18,1.03.06.3.11.62.16.94.04.33.07.63.07.91,0,.54-.06.94-.19,1.22s-.41.41-.83.41-.77-.11-1.03-.34c-.26-.23-.38-.68-.36-1.37l.06-5.55c-.11-1.34-.16-2.26-.16-2.76v-.42c0-.83.08-1.59.25-2.28s.44-1.03.82-1.03c.75,0,1.13.62,1.13,1.85,0,.2-.03.59-.09,1.18l-.04.37c.22-.74.62-1.37,1.19-1.9.58-.53,1.2-.93,1.86-1.2.67-.27,1.23-.4,1.7-.4,1.87,0,3.19.73,3.98,2.18s1.18,3.22,1.18,5.3c0,1.93-.09,3.51-.28,4.76s-.58,1.87-1.16,1.87c-.26,0-.47-.03-.63-.09-.16-.06-.29-.21-.39-.44-.1-.23-.15-.59-.15-1.07,0-.31.03-.62.08-.92.05-.3.12-.68.22-1.13.11-.52.19-.93.24-1.23s.08-.62.08-.96c0-1.5-.25-2.8-.75-3.89Z"/>
    <path class="cls-4" d="M431.89,32.02c.23-.34.45-.51.65-.51.3,0,.53.12.7.36.17.24.25.59.25,1.04,0,.14-.04.31-.12.5-.72,1.92-1.46,4.21-2.22,6.87-.75,2.66-1.88,6.92-3.38,12.76,0,.25-.04.49-.13.74-.09.25-.2.45-.33.61s-.27.24-.39.24c-.2,0-.41-.05-.63-.14s-.42-.25-.58-.47c-.16-.22-.25-.5-.25-.84.99-3.72,2.02-7.4,3.08-11.05,1.06-3.65,2.01-6.69,2.85-9.11.11-.32.28-.65.51-.99Z"/>
    <path class="cls-4" d="M443.79,38.72c.53.22.96.52,1.3.92s.54.85.6,1.36l.03-4.06.03-4.04c0-.99.38-1.49,1.13-1.49.29,0,.5.13.62.4s.19.58.19.95l-.02,2.1-.03,2.14-.18,8.99-.06,2.45c0,1.26-.1,2.2-.26,2.84-.16.64-.5.96-1,.96-.2,0-.37-.12-.51-.37-.14-.25-.3-.6-.48-1.08-.33.3-.76.56-1.29.77-.54.21-1.09.37-1.65.48-.57.11-1.06.16-1.47.16-1.78,0-3.12-.56-4.04-1.67s-1.37-2.63-1.37-4.55c0-1.32.27-2.56.81-3.72s1.32-2.1,2.35-2.8,2.22-1.06,3.6-1.06c.6,0,1.16.11,1.69.33ZM443.18,49.39c.6-.2,1.08-.45,1.43-.73.35-.28.57-.54.65-.78.08-.25.13-.51.16-.79.02-.28.04-.61.04-.99v-1.3c0-.64-.15-1.25-.46-1.83s-.72-1.04-1.23-1.39c-.51-.35-1.04-.52-1.6-.52-.96,0-1.8.21-2.52.62-.72.42-1.27.99-1.65,1.72-.38.73-.57,1.56-.57,2.5,0,.76.16,1.44.48,2.01.32.58.77,1.02,1.33,1.32.57.31,1.2.46,1.89.46.77,0,1.46-.1,2.06-.3Z"/>
    <path class="cls-4" d="M464.84,49.23c.13.19.2.49.2.91,0,.32-.09.64-.28.96-.19.32-.45.59-.77.79-.33.21-.69.31-1.09.31s-.78-.13-1.17-.4c-.39-.27-.71-.62-.96-1.06-.25-.44-.37-.89-.37-1.35-.75.9-1.52,1.62-2.32,2.16-.8.54-1.65.81-2.55.81-.82,0-1.66-.25-2.51-.76s-1.55-1.2-2.09-2.06c-.55-.86-.82-1.8-.82-2.8,0-1.35.32-2.67.97-3.96s1.51-2.35,2.6-3.16,2.26-1.22,3.52-1.22c.95,0,1.84.27,2.66.82.82.55,1.47,1.25,1.95,2.12.48.86.72,1.74.72,2.63,0,.38-.03.76-.09,1.13s-.09.61-.1.71c-.08.44-.14.84-.18,1.18s-.06.71-.06,1.1c0,.56.09.96.26,1.2.17.24.43.36.78.36.09,0,.18-.03.28-.1.09-.07.21-.16.33-.28.02-.02.08-.07.17-.15.09-.08.18-.13.26-.16.31,0,.53.09.66.28ZM458.7,48.72c.63-.61,1.07-1.31,1.3-2.1.23-.79.45-1.81.65-3.08,0-.29-.18-.63-.55-1.01s-.81-.7-1.32-.98c-.51-.27-.97-.41-1.38-.41-1.02,0-1.94.27-2.74.81-.8.54-1.43,1.24-1.87,2.09-.44.85-.66,1.71-.66,2.59,0,.58.19,1.09.57,1.55.38.46.87.81,1.47,1.07s1.21.38,1.84.38c1.16,0,2.06-.31,2.7-.92Z"/>
    <path class="cls-4" d="M474.16,55.44c.25-.41.42-.9.51-1.48.09-.58.17-1.34.24-2.29.04-.66.08-1.15.12-1.46-.11.42-.38.8-.8,1.13s-.91.58-1.47.76c-.56.17-1.07.26-1.55.26-1.79,0-3.14-.52-4.07-1.56-.93-1.04-1.39-2.59-1.39-4.65,0-1.34.21-2.6.63-3.77s1.05-2.11,1.9-2.83,1.89-1.08,3.13-1.08c.97,0,1.92.31,2.84.93.92.62,1.67,1.38,2.24,2.29.57.91.86,1.78.86,2.6l-.28,6.7v.2c-.06.25-.14.84-.25,1.74-.16,1.27-.34,2.31-.54,3.09-.2.79-.56,1.46-1.09,2.02-.53.56-1.29.83-2.27.83-.39,0-.89-.06-1.5-.19-.62-.13-1.17-.34-1.66-.64-.49-.3-.74-.7-.74-1.2,0-.47.07-.83.2-1.08.13-.25.38-.37.74-.37.09,0,.17.01.25.04s.15.07.22.11c.25.15.56.27.92.37.37.09.95.14,1.76.14.47,0,.82-.21,1.07-.62ZM473.23,49.09c.52-.42.95-.95,1.3-1.56.35-.62.6-1.23.76-1.83-.11-.82-.28-1.55-.5-2.19s-.58-1.18-1.07-1.63-1.15-.67-1.99-.67c-1.36,0-2.35.44-2.96,1.33-.62.89-.93,2.03-.95,3.43,0,1.39.32,2.36.97,2.92.65.56,1.56.84,2.75.84.62,0,1.18-.21,1.7-.64Z"/>
    <path class="cls-4" d="M482.3,51.93c-.8-.36-1.21-1.05-1.21-2.06,0-.16.05-.36.15-.6.1-.24.22-.45.37-.62.15-.17.3-.26.45-.26.05,0,.17.08.37.25.26.31.51.54.75.7.24.16.52.26.83.31.31.05.72.08,1.24.08s1.07-.06,1.67-.19c.6-.13,1.11-.28,1.53-.45s.62-.31.62-.41c0-.25-.13-.46-.39-.63-.26-.17-.58-.29-.95-.39s-.93-.21-1.67-.35c-1.16-.21-2.12-.43-2.87-.66-.75-.23-1.4-.6-1.95-1.12-.55-.51-.83-1.21-.83-2.09,0-1.09.31-2.04.94-2.85.62-.82,1.42-1.44,2.39-1.88.97-.44,1.94-.66,2.93-.66.65,0,1.22.12,1.74.37.51.25.91.57,1.19.97.28.4.42.83.42,1.3,0,.75-.06,1.35-.18,1.83s-.4.71-.85.71c-.22,0-.36-.1-.43-.3s-.1-.5-.1-.92c0-.44-.18-.75-.54-.92s-.89-.25-1.61-.25c-.5,0-1.05.12-1.65.35s-1.12.54-1.55.92-.64.77-.64,1.18.16.75.49,1.01c.33.26.73.46,1.22.59.49.14,1.16.29,2.01.45,1.05.2,1.9.4,2.55.59s1.19.51,1.65.93c.45.42.68.98.68,1.69,0,.9-.36,1.64-1.09,2.23-.73.59-1.57,1.02-2.54,1.3s-1.8.41-2.51.41c-.95,0-1.83-.18-2.64-.55Z"/>
    <path class="cls-4" d="M497.56,42.14c-.65.79-.98,2.01-.98,3.65v.5l.15,4.36c0,.16-.04.36-.11.59-.07.23-.19.43-.36.61-.16.17-.38.26-.63.26-.48,0-.8-.14-.98-.41s-.27-.72-.27-1.35c0-.42,0-.85.03-1.3,0-.15.01-.35.01-.59v-1.33c0-.53.03-1.26.08-2.18s.18-2.54.37-4.86c.03-.47.14-.84.33-1.12.19-.27.47-.41.83-.41.2,0,.38.12.56.38.17.25.26.65.26,1.2,0,.84-.02,1.35-.04,1.54.2-.6.58-1.17,1.15-1.69.57-.52,1.19-.94,1.87-1.25s1.26-.47,1.76-.47c.81,0,1.53.15,2.16.45.62.3.94.9.94,1.8,0,.28-.06.54-.19.78s-.3.42-.5.55-.41.2-.63.2c-.19,0-.33-.03-.42-.1-.09-.07-.17-.17-.25-.31-.12-.22-.28-.38-.48-.5-.2-.12-.56-.18-1.06-.18h-.34c-1.51,0-2.59.4-3.24,1.19Z"/>
    <path class="cls-4" d="M517.94,38.67c.12.23.19.48.19.74,0,.22-.05.43-.16.64s-.37.63-.77,1.26c-.04.05-.07.09-.1.13-.02.04-.05.08-.07.11-.18.26-.35.51-.52.75-.43.61-.8,1.18-1.12,1.7-.32.52-.66,1.13-1.02,1.84-.08.16-.48.91-1.19,2.24-1.22,2.24-2.19,4.14-2.92,5.7-.72,1.56-1.09,2.79-1.09,3.67,0,.41-.1.79-.29,1.14-.19.35-.43.53-.72.53-.16,0-.36-.08-.6-.25s-.45-.38-.63-.62c-.18-.25-.27-.47-.27-.67,0-.5.22-1.28.63-2.35.41-1.07.84-1.96,1.27-2.69l1.21-2.24c-.53-1.11-1.51-3.37-2.95-6.75l-1.01-2.38c-.1-.23-.18-.46-.24-.71s-.09-.44-.09-.59c.02-.46.14-.84.36-1.12.22-.28.49-.42.81-.42.22,0,.38.09.49.26.11.17.25.48.42.91.46,1.24,1.06,2.75,1.8,4.54.74,1.79,1.31,3.08,1.7,3.89l4.44-8.18c.24-.44.53-.79.89-1.04.35-.25.71-.38,1.08-.38.2,0,.36.12.48.35Z"/>
    <path class="cls-4" d="M520.5,41.34c-.36.02-.66.03-.91.03-.14,0-.31-.06-.51-.17s-.38-.27-.53-.48c-.15-.21-.22-.44-.22-.71s.06-.51.19-.74c.12-.23.28-.42.48-.55.19-.14.39-.21.6-.21.32,0,.9.03,1.76.08.03-1.17.14-2.28.33-3.34.19-1.06.57-1.59,1.12-1.59.13,0,.26.06.4.18.14.12.25.28.35.48.09.2.14.42.14.66,0,1-.06,1.91-.18,2.72l-.04.35-.13.58c.36,0,.78,0,1.27-.01s.86-.02,1.12-.03c.79-.03,1.59-.04,2.38-.04.29,0,.5.16.63.49.13.33.19.67.19,1.04,0,.4-.11.71-.32.94-.21.23-.44.35-.69.35l-4.59-.06-.02,1.3c-.03.79-.04,1.65-.04,2.58,0,1.31.12,2.35.35,3.1s.68,1.13,1.35,1.13c.57,0,1.27-.29,2.1-.86.18-.1.27-.16.28-.16.25,0,.42.07.51.2.09.13.13.36.13.69,0,.4-.17.82-.51,1.27-.34.45-.74.83-1.21,1.14s-.87.47-1.22.47c-1.12,0-1.95-.38-2.49-1.13-.54-.75-.88-1.65-1.01-2.7-.13-1.05-.21-2.41-.23-4.08,0-1.31-.04-2.3-.12-2.96-.15,0-.38,0-.7.03Z"/>
    <path class="cls-4" d="M548.06,45.07c0-.53-.14-1.06-.42-1.59-.28-.53-.68-.97-1.21-1.32-.53-.34-1.14-.52-1.85-.52-.37,0-.78.09-1.25.28-.47.18-.9.44-1.3.77-.4.33-.68.7-.85,1.1l-.15,5.76.06.42.06.44c0,.47-.09.88-.28,1.22s-.42.51-.7.51c-.44,0-.79-.11-1.06-.33-.27-.22-.41-.62-.41-1.22l.04-.3c.08-.65.12-1.03.12-1.15l.06-4.23c0-.56-.1-1.12-.33-1.68-.23-.56-.55-1.02-.98-1.39-.42-.36-.9-.55-1.44-.55-.74,0-1.31.09-1.73.27s-.71.46-.89.85-.26.91-.26,1.57v.55c0,.52.03,1.28.09,2.28,0,.17,0,.4.03.68l.27,3.26c0,.27-.07.52-.21.74-.14.22-.3.39-.48.51s-.33.18-.44.18c-.44,0-.76-.14-.97-.41-.21-.27-.31-.78-.31-1.52v-.48c.02-.07.03-.17.03-.33v-2.28c-.02-.34-.03-.78-.03-1.33v-2.27c0-1.13.02-2.02.07-2.66.04-.64.14-1.14.29-1.49.15-.35.37-.52.67-.52.59,0,.88.5.88,1.5v.25c.14-.36.37-.7.68-1.01.32-.32.68-.57,1.09-.77s.83-.3,1.24-.3c.53,0,1.12.13,1.77.38s1.22.65,1.7,1.2c.48.54.71,1.22.71,2.03.14-.64.45-1.21.93-1.69.48-.49,1.04-.86,1.66-1.12.63-.26,1.2-.39,1.71-.39,1.74,0,3.08.59,4.04,1.78.96,1.18,1.44,3.02,1.44,5.5,0,1.69-.11,3.12-.34,4.3s-.58,1.77-1.04,1.77c-.25,0-.48-.09-.69-.28-.21-.18-.38-.41-.51-.69s-.19-.53-.19-.76c0-.32.03-.6.08-.84.05-.24.13-.51.23-.8.11-.31.19-.59.25-.84.05-.25.08-.54.08-.89l.02-2.19Z"/>
    <path class="cls-4" d="M564.64,49.12c.18.22.28.56.28,1.02,0,.89-.67,1.47-2.02,1.76-1.35.28-2.67.42-3.98.42-.98,0-1.93-.27-2.84-.81-.91-.54-1.65-1.28-2.22-2.22-.57-.93-.85-1.96-.85-3.07,0-1.6.27-3.01.82-4.23s1.34-2.18,2.39-2.87c1.05-.68,2.29-1.03,3.73-1.03.76,0,1.52.18,2.27.54.75.36,1.37.88,1.85,1.57s.73,1.5.73,2.44c0,.48-.07.88-.22,1.21-.15.33-.35.53-.61.62l-9.01,3.06c.31.93.93,1.54,1.88,1.83s1.99.42,3.14.42c.38,0,.75-.05,1.13-.16.38-.1.82-.25,1.34-.44.33-.12.6-.22.81-.28.21-.07.4-.1.56-.1.37,0,.64.11.83.33ZM557.35,44.53c.95-.36,2.17-.83,3.66-1.42,1-.4,1.69-.66,2.05-.79-.27-.55-.72-.95-1.35-1.2-.64-.25-1.37-.38-2.2-.38-.47,0-1.04.17-1.73.5-.68.33-1.32.85-1.89,1.55-.58.7-.94,1.56-1.09,2.58.75-.2,1.59-.48,2.55-.84Z"/>
  </g>
</svg>