<?xml version="1.0" encoding="UTF-8"?>
<svg id="Layer_1" xmlns="http://www.w3.org/2000/svg" viewBox="0 0 463 82.79">
  <defs>
    <style>
      .cls-1 {
        fill: none;
        stroke: #231f20;
      }

      .cls-1, .cls-2 {
        stroke-miterlimit: 10;
        stroke-width: 2px;
      }

      .cls-2 {
        fill: #263779;
        stroke: #010101;
      }

      .cls-3 {
        fill: #eaa294;
      }

      .cls-4 {
        fill: #ededed;
      }

      .cls-5 {
        fill: #c18678;
      }
    </style>
  </defs>
  <path class="cls-2" d="M457.65,4.58l-.08,72.12-356.43-.38c-2.2,0-4.37-.39-6.44-1.14L7.87,43.48c-3.09-1.13-3.08-5.49,0-6.62L95.34,5.13c1.69-.61,3.47-.93,5.27-.92l357.04.38Z"/>
  <path class="cls-5" d="M60.19,25.95c-1.28.77-1.99,1.97-2.44,3.3-.21.16-.4.34-.6.52-1.27-.09-2.57.18-3.65.84-.41.25-.77.55-1.11.87-.82-.03-1.65.06-2.47.32-4.37,1.33-5.32,5.96-4.53,9.93.71,3.6,3,7.39,6.27,9.19.66.37,1.4.67,2.16.87,1.34,1.87,3.43,3.1,6.14,2.99,2.61-.1,5.15-1.48,7.01-3.49.46.11.94.19,1.45.21,5.08.15,7.08-5,6.42-9.37.12-2.1-.74-4.25-2.13-5.79-.15-.17-.32-.31-.48-.46.58-.98.7-2.25.04-3.26-.28-.43-.59-.83-.92-1.21,0,0,0,0,0,0-.31-.43-.61-.86-.93-1.28-.74-.99-1.49-1.99-2.41-2.82-2.13-1.92-5.17-2.95-7.82-1.35Z"/>
  <path class="cls-3" d="M93.76,5.71c-.9.12-1.61.55-2.26,1.16-.04.04-.31.3-.51.51-.24.04-.49.16-.72.21-.3.07-.6.12-.91.17-.1.01-.36.05-.45.06-1.36.16-2.76.28-4.06.73-1.48.52-2.5,1.4-3.73,2.31.35-.26-.51.32-.48.3-.26.16-.52.3-.79.44-.41.22-.82.42-1.23.62-.29,0-.59,0-.89.05-1.2.2-2.3.79-3.32,1.43-.48-.11-.98-.11-1.47.08-.67.25-1.33.53-1.99.81-.25.1-.49.21-.74.31-.11.05-.87.44-.21.09-.46.25-1,.4-1.49.56-.25.08-.5.14-.75.22-.02,0-.03,0-.05.02-1.61.03-2.86.77-3.95,1.91,0,.01-.02.02-.03.03-.7.22-1.38.46-2.06.76-.25.11-.49.25-.72.39-1.67.15-3.36.17-4.94.77-.86.33-1.71.74-2.52,1.22-.07-.02-.13-.05-.2-.06-1.28-.23-2.37-.05-3.5.61-.66.38-1.32.77-2,1.11-.18.09-.36.17-.54.26-.03.01-.22.09-.32.14-.11.04-.28.1-.3.11-.2.07-.4.14-.6.21-.83.29-1.67.55-2.51.81-1.83.55-3.57,1.3-5.32,2.06-.39.17-.79.34-1.18.51-.24.1-.48.21-.73.32-.03.01-.22.09-.33.14-.11.04-.32.13-.35.14-.19.07-.37.13-.56.2-.52.18-1.06.38-1.54.65-.07.04-.12.09-.18.13-.96-.48-2.12-.52-3.06.08-1.46.94-2.11,2.89-1.17,4.45.49.81.85,1.55,1.49,2.27.09.1.18.19.27.29.01.02.02.03.03.05.04.08.06.13.09.17.04.13.09.26.13.4.03.13.13.9.14.8.02.33.04.66.04.99,0,.39-.02.79-.04,1.18-.01.19-.03.38-.04.57,0,.06,0,.1-.01.14,0,.05-.02.13-.05.28-.04.21-.08.42-.13.62-.09.42-.2.83-.3,1.25-.2.84-.32,1.69-.49,2.53-.08.42-.21.83-.32,1.25-.01.03-.01.04-.02.06-.05.1-.1.2-.15.29-.02.04-.05.08-.08.12-1.65.31-2.72,2.45-2.22,3.98.59,1.82,2.19,2.57,4,2.27.42-.07.8-.21,1.17-.38.2.21.43.4.7.54,1.84.96,3.77,1.32,5.76,1.81.43.1.85.25,1.28.36,0,0,0,.01.02.02.13.11.33.22.47.3.02,0,.02,0,.03.02.14.11.28.22.41.33.46.37.93.76,1.43,1.08,1.61,1.02,3.6,1.06,5.35,1.73,1.09.42,2.23.78,3.38,1.09.58.78,1.48,1.3,2.55,1.31.93.01,1.3.07,2.22.23.73.12,1.45.22,2.18.32.23.26.49.5.82.65.54.25.99.63,1.48.96.67.45,1.44.76,2.19,1.04,1.25.47,2.58.69,3.85,1.1,2.72.86,5.31,2.08,8.03,2.94,0,0,0,0,0,0,.07.05.13.11.19.16,1.17.85,2.51,1.25,3.81,1.82,1.5.66,2.92,1.46,4.44,2.06,1.53.6,3.14.95,4.68,1.51,2.77,1,5.35,2.35,8.3,2.78,2.13.31,4.57.49,6.64-.3,2.99.48,5.77-.47,8.61-1.31.43-.13.86-.29,1.29-.44,2.47.48,4.5-.39,6.77-1.41,2.03-.92,4.5-1.13,5.8-3.19.97-1.53.89-3.41.76-5.14-.22-2.75-1.95-4.39-4.44-5.31-2.03-.76-4.08-1.47-6.09-2.27-1.82-.73-3.43-1.77-5.21-2.6-2.09-.97-4.35-1.36-6.61-1.76-.6-.1-1.2-.21-1.8-.3,1.06-.22,2.09-.52,3.14-.78.21.05.44.07.67.07,1.15,0,2.26-.02,3.4-.2.37-.06.74-.16,1.1-.28.08.03.15.07.23.09,1.35.37,2.95.24,4.27-.22,1.31-.46,2.35-1.31,3.58-1.92.02-.01.03-.02.05-.03.02,0,.03,0,.05-.02.15-.06.29-.12.44-.17.29-.12.59-.23.88-.35.8-.32,1.61-.65,2.37-1.04,1.32-.68,2.43-1.56,3.16-2.87.74-1.32,1.12-2.75.68-4.16-.03-1.06-.27-2.1-.76-2.89-1-1.64-2.69-2.34-4.35-3.09-.23-.21-.46-.43-.7-.63-.68-.56-1.46-.88-2.25-.91-.12-.08-.25-.14-.37-.22-.8-.57-1.61-1.41-2.57-1.93-1.94-1.04-4.07-1.47-6.21-1.9-.99-.2-1.99-.39-3-.56.47-.52.7-1.09.77-1.66,3.35-.15,6.76-.63,10.02-1.38,3.22-.74,6.53-2.22,8.38-5.11,2.2-3.45.58-7.28-2.59-9.38-.16-.1-.32-.18-.48-.27-.43-1.07-1.38-1.92-2.87-1.95-2.5-.05-5.13-.76-7.55-1.09-2.55-.34-5.14-1.04-7.79-1.11-2.49-.06-5.18-.33-7.66.03-.61-.34-1.33-.5-2.13-.39Z"/>
  <path class="cls-1" d="M25.79,50.02c6.02-5.41,6.72-14.42,1.58-20.14"/>
  <g>
    <path class="cls-1" d="M95.34,5.13c24.04.03,31.69,4.83,31.31,11.74"/>
    <path class="cls-1" d="M97.66,27.23c16.02.02,28.98-4.61,28.99-10.35"/>
  </g>
  <g>
    <path class="cls-1" d="M97.68,27.22c16.01.02,28.96,6.25,28.95,13.92"/>
    <path class="cls-1" d="M97.64,52.52c16.01.02,28.98-5.06,28.99-11.38"/>
  </g>
  <g>
    <path class="cls-1" d="M97.64,52.52c16.02.02,28.97,5.89,28.96,13.1"/>
    <path class="cls-1" d="M96.06,75.62c16.6,1.84,30.53-4.06,30.54-10"/>
  </g>
  <line class="cls-1" x1="16.77" y1="46.73" x2="96.06" y2="75.62"/>
  <line class="cls-1" x1="17.53" y1="33.36" x2="96.14" y2="4.84"/>
  <g>
    <path class="cls-4" d="M193.8,38.18c-.14.17-.3.53-.49,1.08-.03.07-.1.23-.19.5s-.21.48-.33.65l-.54.95-.82,1.43c-.59,1.04-1.07,1.85-1.44,2.45-.38.59-.77,1.1-1.17,1.51-.4.41-.79.61-1.15.6-.34,0-.78-.48-1.33-1.44-.55-.96-1.12-2.06-1.71-3.29l-1.77-3.65c-.02.22-.03.6-.03,1.16,0,.59.03,1.64.09,3.17.06,1.64.09,2.84.09,3.58.08.48.13.78.16.89s.04.17.04.18c0,1.43-.32,2.14-.97,2.14-.35,0-.61-.08-.78-.23s-.29-.35-.33-.59-.07-.56-.07-.93c0-.22.02-.53.06-.95,0-.1.02-.22.03-.36,0-.14.01-.29.01-.45.03-1.36.04-2.61.04-3.74.04-2.81.09-4.86.16-6.13s.21-2.25.43-2.92c.22-.67.58-1.01,1.07-1.01.28,0,.51.16.7.47.19.32.28.65.28,1.01v.14c.12.88.66,2.39,1.64,4.55.35.76.83,1.75,1.46,2.97s1.04,1.95,1.24,2.18c.15,0,.31-.08.48-.25.17-.17.41-.49.71-.96.26-.42,1.14-2.16,2.65-5.24.91-1.87,1.47-3,1.67-3.38.07-.34.22-.65.45-.94.23-.29.45-.43.66-.43.39,0,.69.15.9.44.21.29.32.69.32,1.19,0,.87-.04,1.96-.13,3.27-.06,1-.1,1.79-.12,2.36l-.25,9.01c0,.25-.06.45-.17.62-.12.17-.24.3-.37.38-.13.08-.24.13-.32.13s-.24-.05-.48-.15c-.24-.1-.46-.27-.68-.51-.21-.24-.32-.56-.32-.96,0-.22.02-.43.07-.64.04-.21.11-.45.2-.74,0-.06.05-.2.12-.42.07-.23.1-.44.1-.64l.15-8.07Z"/>
    <path class="cls-4" d="M213.34,47.22c.13.19.2.49.2.91,0,.32-.09.64-.28.96s-.45.59-.77.79c-.33.21-.69.31-1.09.31s-.78-.13-1.17-.4c-.39-.27-.71-.62-.96-1.06-.25-.44-.37-.89-.37-1.35-.74.9-1.52,1.62-2.32,2.16-.8.54-1.65.81-2.55.81-.82,0-1.66-.25-2.51-.76s-1.55-1.2-2.09-2.06c-.55-.86-.82-1.8-.82-2.8,0-1.35.32-2.67.97-3.96s1.51-2.35,2.6-3.16c1.09-.81,2.26-1.22,3.52-1.22.95,0,1.84.27,2.66.82.82.55,1.47,1.25,1.95,2.12.48.86.72,1.74.72,2.63,0,.38-.03.76-.09,1.13-.06.38-.1.61-.11.71-.08.44-.14.84-.18,1.18-.04.34-.06.71-.06,1.1,0,.56.09.96.26,1.2.17.24.43.36.78.36.09,0,.18-.03.28-.1s.21-.16.34-.28c.02-.02.08-.07.17-.15.09-.08.18-.13.26-.16.31,0,.53.09.66.28ZM207.2,46.71c.63-.61,1.07-1.31,1.3-2.1.23-.79.45-1.81.65-3.08,0-.29-.18-.63-.55-1.01-.37-.38-.81-.7-1.32-.98s-.97-.41-1.38-.41c-1.02,0-1.94.27-2.74.81-.8.54-1.43,1.24-1.87,2.09s-.66,1.71-.66,2.59c0,.58.19,1.09.57,1.55.38.46.87.81,1.47,1.07s1.21.38,1.84.38c1.16,0,2.06-.31,2.7-.92Z"/>
    <path class="cls-4" d="M222.7,36.71c.53.22.97.52,1.3.92.34.4.54.85.6,1.36l.03-4.06.03-4.04c0-.99.38-1.49,1.13-1.49.29,0,.5.13.63.4.13.26.19.58.19.95v2.1s-.04,2.14-.04,2.14l-.18,8.99-.06,2.45c-.01,1.26-.1,2.2-.26,2.84-.16.64-.5.96-1,.96-.2,0-.37-.12-.51-.37-.14-.25-.3-.6-.48-1.08-.33.3-.76.56-1.3.77-.54.21-1.09.37-1.65.48-.57.11-1.06.16-1.47.16-1.78,0-3.12-.56-4.04-1.67-.91-1.11-1.37-2.63-1.37-4.55,0-1.32.27-2.56.81-3.72s1.32-2.1,2.35-2.8c1.02-.71,2.22-1.06,3.6-1.06.6,0,1.16.11,1.69.33ZM222.08,47.38c.6-.2,1.08-.45,1.43-.73s.57-.54.65-.78c.08-.25.13-.51.16-.79.03-.28.04-.61.04-.99v-1.3c0-.64-.15-1.25-.46-1.83-.31-.58-.72-1.04-1.23-1.39s-1.04-.52-1.6-.52c-.96,0-1.8.21-2.52.62s-1.27.99-1.65,1.72c-.38.73-.57,1.56-.57,2.5,0,.76.16,1.44.48,2.01s.77,1.02,1.33,1.32c.57.31,1.2.46,1.89.46.77,0,1.46-.1,2.06-.3Z"/>
    <path class="cls-4" d="M238.67,49.3c-.92-.7-1.66-1.58-2.21-2.65-.55-1.07-.83-2.13-.83-3.17,0-1.64.3-3,.9-4.06.6-1.07,1.38-1.84,2.34-2.33.96-.49,1.99-.73,3.11-.73,1.18,0,2.2.29,3.05.87.85.58,1.51,1.41,1.96,2.48.45,1.07.68,2.33.68,3.77,0,1.31-.29,2.49-.86,3.54-.57,1.05-1.32,1.86-2.25,2.45-.93.59-1.91.88-2.94.88s-2.03-.35-2.95-1.05ZM245.27,41.11c-.29-.65-.7-1.16-1.21-1.52-.52-.36-1.09-.55-1.73-.55-.79,0-1.54.16-2.28.47-.73.32-1.33.79-1.8,1.41s-.7,1.37-.7,2.25c0,.74.19,1.46.57,2.16.38.7.87,1.27,1.47,1.71.61.44,1.23.66,1.88.66.73,0,1.43-.17,2.08-.52s1.17-.85,1.57-1.51c.4-.66.6-1.43.6-2.33,0-.84-.15-1.59-.44-2.24Z"/>
    <path class="cls-4" d="M258.43,53.43c.25-.41.42-.9.51-1.48.09-.58.17-1.34.24-2.29.04-.66.08-1.15.12-1.46-.11.42-.38.8-.8,1.13s-.91.58-1.47.76c-.56.17-1.07.26-1.55.26-1.79,0-3.14-.52-4.07-1.56-.93-1.04-1.39-2.59-1.39-4.65,0-1.34.21-2.6.62-3.77.42-1.17,1.05-2.11,1.9-2.83.85-.72,1.89-1.08,3.13-1.08.97,0,1.92.31,2.84.93.92.62,1.67,1.38,2.24,2.29.57.91.86,1.78.86,2.6l-.28,6.7v.2c-.06.25-.14.84-.25,1.74-.16,1.27-.34,2.31-.54,3.09-.2.79-.56,1.46-1.09,2.02s-1.29.84-2.27.84c-.39,0-.89-.06-1.5-.19-.62-.13-1.17-.34-1.66-.64-.49-.3-.74-.7-.74-1.2,0-.47.07-.83.2-1.08s.38-.37.74-.37c.09,0,.17.01.25.04s.15.07.21.11c.25.15.56.27.92.37s.95.14,1.76.14c.47,0,.82-.21,1.07-.62ZM257.5,47.08c.52-.42.95-.95,1.29-1.56.35-.62.6-1.23.76-1.83-.11-.82-.28-1.55-.5-2.19-.22-.64-.58-1.18-1.07-1.63-.49-.44-1.15-.67-1.99-.67-1.36,0-2.35.44-2.96,1.33-.62.89-.93,2.03-.95,3.43,0,1.39.32,2.36.97,2.92.65.56,1.56.84,2.76.84.62,0,1.18-.21,1.7-.64Z"/>
    <path class="cls-4" d="M271.89,30.55c0-.26.07-.5.19-.72.12-.22.26-.39.43-.51.17-.12.34-.18.5-.18.13,0,.27.06.43.18.16.12.29.29.4.51.11.22.16.48.16.77,0,1.51-.08,3.55-.25,6.12-.09,1.39-.16,2.57-.2,3.55s-.07,1.99-.07,3.02v.2l5.79-7.19c.15-.22.32-.4.5-.54s.36-.21.53-.21c.42,0,.7.1.86.3.16.2.24.53.24.98v.14c0,.37-.23.8-.7,1.29s-1.14,1.11-2.01,1.87l-.77.68c.14.3.28.64.43,1.03.15.38.25.64.3.77.32.87.61,1.58.88,2.14.24.53.49,1.01.75,1.43.22.34.44.76.67,1.25.02.05.07.16.14.34s.15.37.22.58.1.37.1.48c0,.45-.13.84-.4,1.15s-.58.47-.94.47c-.23,0-.42-.09-.57-.27s-.28-.46-.38-.84c0,.04-.2-.41-.59-1.35s-1.12-2.77-2.2-5.49l-2.84,3.27c0,.59,0,1.04.01,1.36v1.52c.01.38-.1.74-.32,1.08s-.5.51-.84.51c-.26,0-.47-.08-.64-.25-.17-.17-.29-.37-.37-.6-.08-.23-.12-.44-.12-.63l.02-1.19c0-.49.06-1.06.15-1.7.05-.3.08-.6.09-.91l.43-14.39Z"/>
    <path class="cls-4" d="M286.76,49.3c-.92-.7-1.66-1.58-2.21-2.65-.55-1.07-.83-2.13-.83-3.17,0-1.64.3-3,.9-4.06s1.38-1.84,2.34-2.33c.96-.49,1.99-.73,3.1-.73,1.18,0,2.2.29,3.05.87.85.58,1.51,1.41,1.96,2.48.45,1.07.68,2.33.68,3.77,0,1.31-.29,2.49-.86,3.54s-1.32,1.86-2.25,2.45-1.91.88-2.94.88-2.03-.35-2.95-1.05ZM293.37,41.11c-.29-.65-.7-1.16-1.21-1.52-.52-.36-1.09-.55-1.73-.55-.78,0-1.54.16-2.28.47-.73.32-1.33.79-1.8,1.41s-.7,1.37-.7,2.25c0,.74.19,1.46.57,2.16.38.7.87,1.27,1.47,1.71.61.44,1.23.66,1.88.66.73,0,1.43-.17,2.08-.52.65-.35,1.17-.85,1.57-1.51.4-.66.6-1.43.6-2.33,0-.84-.15-1.59-.44-2.24Z"/>
    <path class="cls-4" d="M300.45,49.92c-.8-.36-1.21-1.05-1.21-2.06,0-.16.05-.36.15-.6.1-.24.22-.45.37-.62.15-.17.3-.26.45-.26.05,0,.17.08.37.25.26.31.51.54.75.7.24.16.52.26.83.31.31.05.72.08,1.24.08s1.07-.06,1.68-.19c.6-.13,1.11-.28,1.53-.45.42-.17.62-.31.62-.41,0-.25-.13-.46-.39-.63-.26-.17-.58-.29-.95-.39s-.93-.21-1.67-.35c-1.16-.21-2.12-.43-2.87-.66-.75-.23-1.4-.6-1.95-1.12-.55-.51-.83-1.21-.83-2.09,0-1.09.31-2.04.94-2.85.62-.82,1.42-1.44,2.39-1.88.97-.44,1.94-.66,2.93-.66.64,0,1.22.12,1.73.37s.91.57,1.19.97c.28.4.42.83.42,1.3,0,.75-.06,1.35-.18,1.83s-.4.71-.85.71c-.22,0-.36-.1-.43-.3-.07-.2-.1-.5-.1-.92,0-.44-.18-.75-.54-.92s-.89-.25-1.61-.25c-.5,0-1.05.12-1.65.35s-1.12.54-1.55.92c-.43.38-.64.77-.64,1.18s.16.75.49,1.01c.33.26.73.46,1.22.59.49.14,1.16.29,2.01.45,1.05.2,1.9.4,2.55.59.64.2,1.19.51,1.64.93.45.42.68.98.68,1.69,0,.9-.36,1.64-1.09,2.23-.73.59-1.57,1.02-2.54,1.3-.97.27-1.8.41-2.51.41-.95,0-1.83-.18-2.64-.55Z"/>
    <path class="cls-4" d="M313.49,39.33c-.36.02-.66.03-.91.03-.14,0-.31-.06-.51-.17s-.38-.27-.53-.48-.22-.44-.22-.71.06-.51.19-.74c.12-.23.28-.42.48-.55.19-.14.39-.21.6-.21.32,0,.9.03,1.76.08.03-1.17.14-2.28.33-3.34s.57-1.59,1.12-1.59c.13,0,.26.06.4.18.14.12.25.28.35.48.09.2.14.42.14.66,0,1-.06,1.91-.18,2.72l-.04.35-.13.58c.36,0,.78,0,1.27-.01s.86-.02,1.12-.03c.79-.03,1.59-.04,2.38-.04.29,0,.5.16.62.49.13.33.19.67.19,1.04,0,.4-.11.71-.32.94-.21.23-.44.35-.69.35l-4.59-.06-.02,1.3c-.03.79-.04,1.65-.04,2.58,0,1.31.12,2.35.35,3.1.23.76.68,1.13,1.35,1.13.57,0,1.27-.29,2.1-.86.18-.1.27-.16.28-.16.25,0,.42.07.51.2.09.13.13.36.13.69,0,.4-.17.82-.51,1.27-.34.45-.74.83-1.21,1.14s-.87.47-1.22.47c-1.12,0-1.95-.38-2.49-1.13-.54-.75-.88-1.65-1.01-2.7-.13-1.05-.21-2.41-.23-4.08,0-1.31-.04-2.3-.12-2.96-.15,0-.38,0-.7.03Z"/>
    <path class="cls-4" d="M324.47,39.02c.3-.64.72-1.16,1.26-1.56.54-.4,1.12-.69,1.73-.86.61-.17,1.19-.26,1.73-.26,1.46,0,2.71.25,3.75.75,1.04.5,1.83,1.18,2.38,2.05s.81,1.85.81,2.93c0,1.62-.28,3.05-.85,4.27-.56,1.22-1.37,2.17-2.42,2.83-1.05.67-2.27,1-3.67,1-.49,0-.92-.03-1.31-.08-.39-.05-.9-.14-1.53-.26v1.16c0,.69.05,1.55.15,2.59.1,1.02.15,1.85.15,2.51,0,.36-.13.64-.39.86-.26.21-.53.32-.82.32-.41,0-.7-.1-.87-.31s-.28-.5-.32-.87c-.04-.37-.06-.96-.06-1.76,0-1.4.1-6.49.28-15.29ZM326.32,45.54c.04.86.06,1.45.08,1.75,0,.08.21.13.65.16s.86.04,1.24.04c1.04,0,2-.18,2.87-.55.87-.36,1.57-.92,2.09-1.67.53-.75.79-1.68.79-2.78s-.43-2.01-1.3-2.61-2.06-.89-3.59-.89c-.34,0-.72.05-1.16.16s-.81.25-1.13.45c-.32.19-.48.42-.48.67l-.09,3.58c-.02.26-.01.83.02,1.69Z"/>
    <path class="cls-4" d="M341.73,49.3c-.92-.7-1.66-1.58-2.21-2.65-.55-1.07-.83-2.13-.83-3.17,0-1.64.3-3,.9-4.06.6-1.07,1.38-1.84,2.34-2.33.96-.49,1.99-.73,3.11-.73,1.18,0,2.2.29,3.05.87.85.58,1.51,1.41,1.96,2.48.45,1.07.68,2.33.68,3.77,0,1.31-.29,2.49-.86,3.54s-1.32,1.86-2.25,2.45-1.91.88-2.94.88-2.03-.35-2.95-1.05ZM348.33,41.11c-.29-.65-.7-1.16-1.21-1.52-.52-.36-1.09-.55-1.73-.55-.78,0-1.54.16-2.28.47-.74.32-1.34.79-1.8,1.41s-.7,1.37-.7,2.25c0,.74.19,1.46.56,2.16.38.7.87,1.27,1.47,1.71.61.44,1.23.66,1.88.66.73,0,1.43-.17,2.08-.52.65-.35,1.17-.85,1.57-1.51.4-.66.6-1.43.6-2.33,0-.84-.15-1.59-.44-2.24Z"/>
    <path class="cls-4" d="M359.04,47.19c.14.26.22.58.22.93s-.12.7-.35,1.01c-.23.3-.52.54-.86.71s-.64.25-.91.25c-.97,0-1.68-.3-2.13-.89-.45-.59-.67-1.47-.66-2.62l.19-15.53c0-.62.09-1.13.27-1.51.18-.38.46-.57.83-.57.25,0,.46.14.62.42.16.28.25.58.25.9l-.19,13.61v.48c0,.89.07,1.62.2,2.21.13.59.35.88.65.88.13,0,.24-.03.33-.08s.19-.14.31-.25.22-.2.3-.25c.08-.05.19-.08.31-.08.27,0,.47.13.62.4Z"/>
    <path class="cls-4" d="M363.74,49.94c-.21.27-.44.41-.7.41-.37,0-.66-.11-.87-.33-.21-.22-.38-.59-.48-1.11-.08-.45-.12-1.42-.12-2.9,0-2.45.1-4.68.31-6.68.2-2,.67-2.99,1.39-2.99.3,0,.49.12.59.38.09.25.14.61.14,1.08l-.12,1.98c-.05.67-.09,1.37-.13,2.11-.04.74-.06,1.39-.06,1.97,0,.61.06,1.47.19,2.58.12,1.15.18,1.95.18,2.39,0,.47-.11.84-.31,1.12ZM363.5,33.4c-.41,0-.79-.11-1.14-.34-.35-.23-.53-.62-.53-1.19,0-.28.08-.57.24-.86.16-.29.37-.53.61-.72s.47-.28.69-.28c.41,0,.76.12,1.06.37.3.25.45.67.45,1.26,0,1.18-.46,1.77-1.38,1.77Z"/>
    <path class="cls-4" d="M368.47,39.33c-.36.02-.66.03-.91.03-.14,0-.31-.06-.51-.17s-.38-.27-.53-.48-.22-.44-.22-.71.06-.51.19-.74c.12-.23.28-.42.48-.55.19-.14.39-.21.6-.21.32,0,.9.03,1.76.08.03-1.17.14-2.28.33-3.34s.57-1.59,1.12-1.59c.13,0,.26.06.4.18.14.12.25.28.35.48.09.2.14.42.14.66,0,1-.06,1.91-.18,2.72l-.04.35-.13.58c.36,0,.78,0,1.27-.01s.86-.02,1.12-.03c.79-.03,1.59-.04,2.38-.04.29,0,.5.16.62.49.13.33.19.67.19,1.04,0,.4-.11.71-.32.94-.21.23-.44.35-.69.35l-4.59-.06-.02,1.3c-.03.79-.04,1.65-.04,2.58,0,1.31.12,2.35.35,3.1.23.76.68,1.13,1.35,1.13.57,0,1.27-.29,2.1-.86.18-.1.27-.16.28-.16.25,0,.42.07.51.2.09.13.13.36.13.69,0,.4-.17.82-.51,1.27-.34.45-.74.83-1.21,1.14s-.87.47-1.22.47c-1.12,0-1.95-.38-2.49-1.13-.54-.75-.88-1.65-1.01-2.7-.13-1.05-.21-2.41-.23-4.08,0-1.31-.04-2.3-.12-2.96-.15,0-.38,0-.7.03Z"/>
    <path class="cls-4" d="M381.65,49.94c-.21.27-.44.41-.7.41-.37,0-.66-.11-.87-.33-.21-.22-.38-.59-.48-1.11-.08-.45-.12-1.42-.12-2.9,0-2.45.1-4.68.31-6.68.2-2,.67-2.99,1.39-2.99.3,0,.49.12.59.38.09.25.14.61.14,1.08l-.12,1.98c-.05.67-.09,1.37-.13,2.11-.04.74-.06,1.39-.06,1.97,0,.61.06,1.47.19,2.58.12,1.15.18,1.95.18,2.39,0,.47-.11.84-.31,1.12ZM381.41,33.4c-.41,0-.79-.11-1.14-.34-.35-.23-.53-.62-.53-1.19,0-.28.08-.57.24-.86.16-.29.37-.53.61-.72s.47-.28.69-.28c.41,0,.76.12,1.06.37.3.25.45.67.45,1.26,0,1.18-.46,1.77-1.38,1.77Z"/>
    <path class="cls-4" d="M386.15,30.55c0-.26.07-.5.19-.72.12-.22.26-.39.43-.51s.34-.18.5-.18c.13,0,.27.06.43.18.16.12.29.29.4.51.11.22.16.48.16.77,0,1.51-.09,3.55-.25,6.12-.09,1.39-.16,2.57-.2,3.55s-.07,1.99-.07,3.02v.2l5.79-7.19c.15-.22.31-.4.5-.54s.36-.21.53-.21c.42,0,.71.1.86.3.16.2.24.53.24.98v.14c0,.37-.23.8-.7,1.29-.47.49-1.14,1.11-2.01,1.87l-.77.68c.14.3.28.64.43,1.03.15.38.25.64.3.77.32.87.61,1.58.88,2.14.24.53.49,1.01.74,1.43.22.34.44.76.67,1.25.02.05.07.16.14.34s.15.37.22.58c.07.21.1.37.1.48,0,.45-.13.84-.4,1.15s-.58.47-.94.47c-.23,0-.42-.09-.57-.27s-.28-.46-.38-.84c0,.04-.2-.41-.59-1.35-.39-.93-1.12-2.77-2.2-5.49l-2.84,3.27c0,.59,0,1.04.01,1.36l.02,1.52c0,.38-.11.74-.34,1.08-.22.34-.5.51-.84.51-.26,0-.47-.08-.64-.25-.17-.17-.29-.37-.37-.6-.08-.23-.12-.44-.12-.63l.02-1.19c0-.49.06-1.06.15-1.7.05-.3.08-.6.09-.91l.43-14.39Z"/>
  </g>
</svg>