<?xml version="1.0" encoding="UTF-8"?>
<svg id="Layer_1" xmlns="http://www.w3.org/2000/svg" version="1.1" viewBox="0 0 2831.81 481.89">
  <!-- Generator: Adobe Illustrator 29.1.0, SVG Export Plug-In . SVG Version: 2.1.0 Build 142)  -->
  <defs>
    <style>
      .st0 {
        fill: #002b7f;
        stroke: #000;
      }

      .st0, .st1, .st2, .st3 {
        stroke-miterlimit: 10;
        stroke-width: 2px;
      }

      .st1 {
        fill: #a32638;
      }

      .st1, .st2, .st3 {
        stroke: #231f20;
      }

      .st2 {
        fill: #ffc61e;
      }

      .st3 {
        fill: #006854;
      }
    </style>
  </defs>
  <path class="st0" d="M2718.9,119.13c13.82,0,20.24-1.28,25.06-2.24,4.5-1.28,7.07-2.24,13.17-2.24,12.53,0,38.56,24.6,38.56,59.11,0,15.98-8.35,26.52-24.74,26.52-27.95,0-27.63-37.7-44.02-37.7-12.53,0-11.25,17.25-11.25,19.81v98.09c0,38.02,29.56,19.81,29.56,42.18,0,9.91-6.1,23.96-66.19,23.96-16.39,0-76.47.64-76.47-23.96,0-16.93,19.92-10.23,26.35-22.37,3.21-6.71,4.5-25.88,4.82-33.87l2.57-70.62c1.29-33.55-5.46-33.23-9.96-33.23-14.46,0-21.53,37.7-47.55,37.7-12.53,0-19.92-11.5-19.92-23.01,0-27.16,23.13-62.63,41.45-62.63,2.25,0,5.78.96,11.89,2.24,6.1.96,14.78,2.24,27.63,2.24h79.04Z"/>
  <g>
    <path d="M169.79,206.72c-1.86,2.01-3.72,3.52-3.72,6.79s2.27,4.27,4.33,5.53c8.46,4.02,23.12,17.34,23.12,38.46,0,25.14-13.83,56.06-55.33,56.06-7.02,0-13.42-.25-19.61-.76-6.19-.25-12.39-.5-18.79-.5-7.02,0-14.24.25-21.26.5-7.02.5-14.04.76-21.26.76-6.4,0-13.63-4.52-13.63-13.32,0-15.59,13.42.25,14.66-41.48l2.27-72.4c1.24-37.96-16.52-20.61-16.52-37.96,0-9.55,8.46-14.08,14.86-14.08,7.64,0,15.28.5,22.92.76,7.64.5,15.28,1,22.92,1,4.96,0,9.7-.5,14.45-1,4.75-.25,9.7-.76,14.45-.76,37.78,0,47.48,21.87,47.48,41.23,0,11.56-3.92,23.88-11.36,31.17ZM109.72,195.66c0,9.8-.41,14.58,5.99,14.58,12.39,0,15.28-10.56,15.28-24.38,0-11.31-3.1-25.39-14.45-25.39-7.64,0-6.81,7.54-6.81,14.83v20.36ZM109.72,256.99c0,29.16,3.92,29.91,10.32,29.91,11.77,0,15.9-9.8,15.9-22.87,0-15.33-3.72-28.91-18.17-28.91-6.4,0-7.84,4.02-8.05,9.3v12.57Z"/>
    <path d="M309.34,196.91c1.45-1.26,6.19-6.54,8.67-6.54,3.3,0,6.61,5.28,6.61,9.05,0,4.02-4.96,7.04-6.81,9.05l-4.34,3.77c6.19,10.81,9.91,23.13,9.91,37.2,0,41.23-36.33,66.36-66.68,66.36-14.66,0-29.73-5.03-40.88-16.59l-4.33,3.77c-1.86,1.76-5.99,6.29-8.46,6.29-3.3,0-6.61-5.28-6.61-8.8,0-4.02,4.13-6.54,6.19-8.29l5.16-4.78c-5.37-9.55-7.64-22.62-7.64-33.18,0-45,32.41-70.38,66.47-70.38,13.01,0,28.28,4.78,38.19,17.09l4.54-4.02ZM270.33,231.85c-2.27-8.04-4.75-18.35-12.59-18.35-6.81,0-10.12,7.79-10.12,15.08,0,4.02.83,13.07,2.48,21.37l20.23-18.1ZM253.4,266.04c2.48,9.55,5.78,18.1,13.01,18.1,7.85,0,9.5-7.54,9.5-15.58,0-6.54-1.03-13.83-2.27-20.86l-20.23,18.35Z"/>
    <path d="M343.2,236.13c0-24.63-12.8-10.81-12.8-26.14,0-19.86,48.31-25.39,50.17-25.39,7.85,0,8.05,2.51,8.88,11.06.21,3.02,0,8.8,3.51,8.8,4.95,0,8.05-19.86,25.81-19.86,13.83,0,22.92,12.57,22.92,29.16s-11.77,30.16-25.39,30.16-17.13-14.33-22.5-14.33c-5.78,0-4.75,16.84-4.75,21.37,0,7.54.62,18.1,1.65,27.65,1.24,11.06,16.93,4.27,16.93,19.35,0,15.84-18.17,17.09-40.88,17.09-9.5,0-37.57.5-37.57-16.84,0-10.56,9.5-10.56,11.77-19.36,1.65-6.28,2.27-20.61,2.27-27.65v-15.08Z"/>
    <path d="M507.52,270.31c0,24.38,7.02,20.11,7.02,29.66,0,15.58-27.46,15.08-35.92,15.08s-29.32,0-29.32-15.08c0-12.07,9.5-1.26,10.12-25.89l.83-37.71c.41-18.6-12.18-12.57-12.18-25.89s47.48-25.89,51.61-25.89c4.54,0,7.43,4.78,7.43,9.8,0,1.51-.21,3.02-.21,4.53,0,3.02,1.03,6.54,4.13,6.54,3.3,0,5.16-5.28,9.29-10.56,4.13-5.03,10.32-10.31,22.09-10.31,42.73,0,35.51,51.03,37.57,89.24,1.03,19.86,9.5,15.33,9.5,26.14,0,4.52.83,15.08-37.98,15.08-7.43,0-27.25.5-27.25-13.57,0-9.05,6.81-4.78,7.84-21.12,1.03-17.85,6.81-58.07-12.59-58.07-13.21,0-11.97,17.34-11.97,28.66v19.36Z"/>
    <path d="M646.04,254.48c-2.27,0-5.57-.75-5.57,3.52,0,12.57,13.42,23.13,23.12,23.13,15.48,0,23.12-11.31,27.46-11.31s8.05,7.79,8.05,12.57c0,19.35-29.11,33.43-47.69,33.43-37.16,0-56.36-32.68-56.36-65.11,0-38.71,27.04-66.87,58.01-66.87,35.09,0,50.58,32.93,50.58,51.78,0,16.59-6.19,18.85-12.8,18.85h-44.8ZM664,222.8c0-9.05-4.54-16.09-12.18-16.09-6.81,0-12.39,8.55-12.39,16.59,0,9.05,7.02,7.04,12.39,7.04s12.18,1.51,12.18-7.54Z"/>
    <path d="M762.06,363.32c-38.19,0-52.64-17.6-52.64-33.68,0-14.58,11.35-14.83,11.35-18.6,0-3.27-11.15-10.31-11.15-21.37,0-17.85,16.72-23.13,16.72-26.65,0-3.02-14.04-14.58-14.04-33.18,0-30.42,31.17-44.49,52.02-44.49,10.53,0,24.77,4.78,32,4.78,15.69,0,23.53-13.32,26.63-13.32,4.75,0,6.81,7.54,6.81,12.32,0,14.08-11.56,24.13-11.56,26.9,0,2.51.62,5.28.62,7.79,0,33.94-32.41,45.5-55.12,45.5-3.51,0-7.02-.75-10.73-.75-3.51,0-5.57,2.76-5.57,6.79,0,7.79,9.08,9.3,13.83,9.3,6.4,0,30.35-4.27,38.6-4.27,21.47,0,30.55,14.83,30.55,29.91,0,22.62-17.75,53.04-68.33,53.04ZM764.12,341.7c6.81,0,22.3-1.26,22.3-12.82,0-5.28-4.13-7.54-8.05-7.54-3.1,0-11.15,1.51-17.75,1.51-4.75,0-15.9-2.01-18.17-2.01-1.86,0-2.48,2.26-2.48,4.02,0,13.32,16.1,16.84,24.15,16.84ZM765.36,203.7c-8.05,0-11.56,9.3-11.56,18.1,0,9.55,2.06,30.42,12.59,30.42,9.29,0,12.39-9.8,12.39-19.61,0-10.31-1.86-28.91-13.42-28.91Z"/>
    <path d="M939.59,252.21c0,44.24,12.39,20.11,12.39,33.68,0,14.33-16.1,29.92-31.17,29.92-16.31,0-16.72-12.82-21.88-12.82-2.48,0-5.16,3.27-9.7,6.29-4.54,3.27-10.73,6.54-20.23,6.54-17.13,0-34.27-11.06-34.27-35.95,0-17.85,14.04-39.97,50.37-39.97,6.4,0,9.29.5,9.29-8.55,0-8.29-.21-25.64-9.7-25.64-12.39,0-13.63,27.15-32,27.15-6.61,0-11.56-5.78-11.56-13.83,0-21.37,34.89-35.19,54.5-35.19,11.77,0,43.97,5.53,43.97,43.24v25.14ZM890.87,171.77c-15.07,0-31.59-5.28-31.59-26.39s16.52-26.39,31.59-26.39c13.42,0,31.59,5.28,31.59,26.39s-18.17,26.39-31.59,26.39ZM877.66,274.33c0,6.54,2.89,13.58,8.88,13.58,7.84,0,8.46-10.31,8.46-17.85,0-5.53.21-11.82-5.57-11.82-7.02,0-11.77,8.04-11.77,16.09ZM890.87,130.8c-7.02,0-10.32,7.04-10.32,14.58s3.3,14.58,10.32,14.58,10.32-7.04,10.32-14.58-3.3-14.58-10.32-14.58Z"/>
    <path d="M970.97,236.13c0-24.63-12.8-10.81-12.8-26.14,0-19.86,48.31-25.39,50.17-25.39,7.85,0,8.05,2.51,8.88,11.06.21,3.02,0,8.8,3.51,8.8,4.95,0,8.05-19.86,25.81-19.86,13.83,0,22.92,12.57,22.92,29.16s-11.77,30.16-25.39,30.16-17.13-14.33-22.5-14.33c-5.78,0-4.75,16.84-4.75,21.37,0,7.54.62,18.1,1.65,27.65,1.24,11.06,16.93,4.27,16.93,19.35,0,15.84-18.17,17.09-40.88,17.09-9.5,0-37.57.5-37.57-16.84,0-10.56,9.5-10.56,11.77-19.36,1.65-6.28,2.27-20.61,2.27-27.65v-15.08Z"/>
    <path d="M1198.88,269.81c0,17.59,10.94,11.81,10.94,24.89,0,19.1-45.21,20.36-47.48,20.36-10.53,0-3.1-13.82-9.91-13.82-1.86,0-4.96,3.52-9.7,7.29-4.75,3.52-11.15,7.29-20.23,7.29-27.05,0-48.1-34.94-48.1-65.86,0-33.43,22.3-66.11,50.78-66.11,14.25,0,22.3,7.54,24.57,7.54,3.1,0,3.3-8.3,3.3-11.06,0-15.58-15.07-7.29-15.07-20.86,0-18.6,52.64-23.38,53.26-23.38,6.19,0,7.64,5.28,7.64,13.57v120.16ZM1141.28,211.24c-13.83,0-16.31,28.91-16.31,40.72s2.48,32.43,15.28,32.43c13.83,0,13.01-30.92,13.01-41.98,0-9.8,0-31.17-11.97-31.17Z"/>
    <path d="M1266.38,254.48c-2.27,0-5.57-.75-5.57,3.52,0,12.57,13.42,23.13,23.12,23.13,15.48,0,23.12-11.31,27.46-11.31s8.05,7.79,8.05,12.57c0,19.35-29.11,33.43-47.69,33.43-37.16,0-56.36-32.68-56.36-65.11,0-38.71,27.04-66.87,58.01-66.87,35.09,0,50.58,32.93,50.58,51.78,0,16.59-6.19,18.85-12.8,18.85h-44.8ZM1284.34,222.8c0-9.05-4.54-16.09-12.18-16.09-6.81,0-12.39,8.55-12.39,16.59,0,9.05,7.02,7.04,12.39,7.04s12.18,1.51,12.18-7.54Z"/>
    <path d="M1388.38,270.31c0,24.38,7.02,20.11,7.02,29.66,0,15.58-27.46,15.08-35.92,15.08s-29.32,0-29.32-15.08c0-12.07,9.5-1.26,10.12-25.89l.83-37.71c.41-18.6-12.18-12.57-12.18-25.89s47.48-25.89,51.61-25.89c4.54,0,7.43,4.78,7.43,9.8,0,1.51-.21,3.02-.21,4.53,0,3.02,1.03,6.54,4.13,6.54,3.3,0,5.16-5.28,9.29-10.56,4.13-5.03,10.32-10.31,22.09-10.31,42.73,0,35.51,51.03,37.57,89.24,1.03,19.86,9.5,15.33,9.5,26.14,0,4.52.83,15.08-37.99,15.08-7.43,0-27.25.5-27.25-13.57,0-9.05,6.81-4.78,7.85-21.12,1.03-17.85,6.81-58.07-12.59-58.07-13.21,0-11.97,17.34-11.97,28.66v19.36Z"/>
  </g>
  <path class="st0" d="M1790.23,266.13c9.43-20.76,21.89-47.24,21.89-71.01,0-20.76,9.73-36.41,36.79-36.41s43.18,26.78,55.03,46.64c5.17,8.73,51.08,100.8,62.03,125.47,10.03,22.87,26.45,9.03,26.45,26.18,0,21.97-43.18,21.06-58.38,21.06-43.48,0-69.63-.3-69.63-18.96,0-14.45,18.55-9.03,18.55-19.56,0-13.54-7.6-14.74-56.56-14.74-15.81,0-25.24.6-25.24,15.35,0,11.73,19.46,3.91,19.46,19.56,0,18.05-32.84,18.35-45,18.35-43.48,0-47.43-8.12-47.43-17.75,0-14.14,16.42-9.93,25.24-20.76,6.69-8.12,13.07-22.57,17.63-32.19l19.16-41.22ZM1854.08,287.79c3.04,0,12.16.6,12.16-3.91s-8.82-20.16-11.25-24.37c-2.74-4.81-7.91-15.95-14.6-15.95-7.3,0-12.47,18.05-13.68,21.36-1.22,3.31-6.38,15.05-6.38,18.65,0,5.12,7.6,4.21,10.95,4.21h22.8Z"/>
  <path class="st3" d="M2002.17,169.1c7.16,0,10.49-.67,12.98-1.18,2.33-.68,3.66-1.18,6.82-1.18,6.49,0,19.97,12.99,19.97,31.21,0,8.44-4.33,14-12.82,14-14.48,0-14.31-19.91-22.8-19.91-6.49,0-5.83,9.11-5.83,10.46v51.8c0,20.08,15.31,10.46,15.31,22.27,0,5.23-3.16,12.65-34.29,12.65-8.49,0-39.61.34-39.61-12.65,0-8.94,10.32-5.4,13.65-11.81,1.66-3.54,2.33-13.67,2.5-17.88l1.33-37.29c.67-17.72-2.83-17.55-5.16-17.55-7.49,0-11.15,19.91-24.63,19.91-6.49,0-10.32-6.07-10.32-12.15,0-14.34,11.99-33.07,21.47-33.07,1.17,0,2.99.51,6.16,1.18,3.16.51,7.66,1.18,14.31,1.18h40.95Z"/>
  <path class="st1" d="M2244.61,274.53c0,8.99,1.23,13.49,9.52,17.98,6.14,3.3,10.44,5.1,10.44,12.59s-.62,22.18-61.14,22.18c-13.52,0-52.84-.3-52.84-20.38-1.23-23.08,21.5,2.4,21.5-58.44,0-16.18-3.69-15.58-19.05-15.58-43.01,0-39.02,1.2-39.02,28.17,0,41.05,19.05,24.57,19.05,44.05,0,20.98-44.85,22.18-59.6,22.18s-56.84-1.2-56.84-21.58c0-6.29,4.61-10.19,9.83-12.59,11.06-5.09,15.05-4.19,15.05-66.83,0-79.71-1.23-73.12-12.6-79.12-4.61-2.4-10.14-5.09-10.14-11.09,0-23.07,51.3-25.47,68.51-25.47,12.9,0,48.54,1.5,48.54,19.48,0,9.29-5.22,12.59-12.29,16.78-7.68,4.2-9.52,7.79-9.52,34.46,0,16.78,7.99,14.68,22.73,14.68h15.67c20.28,0,19.66-3,19.66-12.29,0-32.66-5.22-34.76-9.22-36.86-5.84-3.3-11.37-5.99-11.37-13.78,0-5.69-1.23-22.48,59.91-22.48,14.44,0,55.3.3,55.3,21.28,0,6.59-3.38,11.09-9.52,14.09-9.22,3.9-12.6,3-12.6,50.64v77.92Z"/>
  <path class="st3" d="M2448,242.96c-7.74,0-20.07.48-20.07-10.56,0-14.88,18.87-2.4,19.59-30.23.48-17.51.48-32.87.48-47.02s-1.21-27.83-1.69-41.27c-.48-20.15-21.77-9.6-21.77-23.27,0-17.51,37.97-18.47,49.82-18.47,48.37,0,50.79,8.16,50.79,16.31,0,13.92-19.11,3.36-19.11,25.91v76.29c0,17.27,2.9,25.67,20.07,25.67,41.11,0,27.09-33.35,42.56-33.35,10.88,0,15,11.52,15,20.63,0,18.71-13.54,42.7-24.67,42.7-4.35,0-7.74-.96-12.09-1.68-4.59-.96-9.92-1.68-18.14-1.68h-80.78Z"/>
  <path class="st1" d="M1698.49,273.69c-4.94-5.72-22.06-26.59-28.74-26.59-7.55,0-8.71,7.43-8.71,15.73v6c0,13.72,18.29,14.87,18.29,28.88,0,9.15-6.68,17.73-57.77,17.73-45.87,0-51.68-7.72-51.68-17.44,0-14.87,14.52-7.15,18-30.88,2.61-16.01,2.9-34.31,2.9-50.61,0-17.73.29-38.32-2.9-55.76-3.77-24.59-19.16-14.01-19.16-31.45,0-4.57-2.61-20.59,60.97-20.59,13.64,0,43.84-.29,43.84,19.44,0,15.15-15.97,6-15.97,39.75,0,3.72.29,12.01,5.52,12.01,7.84,0,30.77-29.45,30.77-36.03,0-6-4.65-8.86-4.65-15.15,0-21.16,38.32-20.02,52.26-20.02s47.61-1.43,47.61,18.87c0,23.45-30.19,9.44-40.35,19.44-5.81,5.72-30.48,23.16-30.48,35.17,0,7.72,6.97,14.58,11.61,20.02l60.67,68.34c8.71,9.72,26.42,8.58,26.42,26.02,0,14.3-14.81,15.73-26.13,15.73h-49.35c-11.32,0-11.61-.86-23.23-14.87l-19.74-23.73Z"/>
  <path class="st2" d="M2225.4,280.06c0-77.69,60.77-132.67,139.17-132.67,99.25,0,137.37,89.06,137.37,136.33,0,78.79-68.33,130.83-141.69,130.83s-134.86-56.44-134.86-134.5ZM2348.03,202c-20.14,0-30.21,21.26-30.21,39.21,0,31.15,21.58,118.74,60.41,118.74,21.94,0,31.29-19.42,31.29-39.21,0-33.35-19.42-118.74-61.49-118.74Z"/>
</svg>