<?xml version="1.0" encoding="UTF-8"?>
<svg id="Layer_1" xmlns="http://www.w3.org/2000/svg" viewBox="0 0 535.66 73.41">
  <defs>
    <style>
      .cls-1 {
        fill: none;
      }

      .cls-1, .cls-2 {
        stroke: #231f20;
        stroke-miterlimit: 10;
        stroke-width: 2px;
      }

      .cls-2 {
        fill: #a42739;
      }

      .cls-3 {
        fill: #eaa294;
      }

      .cls-4 {
        fill: #ededed;
      }

      .cls-5 {
        fill: #c18678;
      }
    </style>
  </defs>
  <g>
    <path class="cls-2" d="M533.92,1.49l-.13,71.92-419.64-.53c-2.58,0-5.15-.39-7.58-1.14L4.36,40.09c-3.63-1.13-3.63-5.48.01-6.6L107.36,1.88c1.99-.61,4.09-.92,6.2-.92l420.35.53Z"/>
    <path class="cls-5" d="M65.97,22.63c-1.5.77-2.35,1.96-2.88,3.29-.25.16-.47.34-.7.51-1.5-.09-3.03.18-4.3.83-.48.25-.9.55-1.3.86-.96-.03-1.94.06-2.91.31-5.14,1.33-6.26,5.94-5.34,9.91.84,3.59,3.53,7.37,7.37,9.17.78.37,1.65.66,2.54.87,1.57,1.87,4.04,3.09,7.22,2.99,3.08-.1,6.07-1.47,8.25-3.48.54.11,1.11.19,1.71.21,5.98.16,8.34-4.98,7.56-9.34.14-2.09-.86-4.24-2.5-5.78-.18-.17-.37-.31-.57-.46.69-.98.83-2.24.05-3.25-.33-.43-.69-.82-1.08-1.2,0,0,0,0,0,0-.36-.43-.72-.86-1.09-1.28-.87-.98-1.75-1.99-2.83-2.81-2.51-1.91-6.09-2.94-9.21-1.35Z"/>
    <path class="cls-3" d="M105.5,2.46c-1.06.12-1.89.55-2.66,1.16-.05.04-.37.3-.6.51-.28.04-.58.15-.85.21-.35.07-.71.12-1.07.17-.12.01-.42.05-.53.06-1.6.16-3.25.27-4.78.73-1.74.51-2.94,1.39-4.4,2.31.41-.26-.6.31-.57.3-.3.16-.62.3-.93.44-.48.21-.97.42-1.45.62-.34-.01-.69,0-1.05.05-1.41.2-2.7.78-3.91,1.43-.56-.11-1.15-.11-1.74.08-.79.25-1.57.53-2.35.81-.29.1-.58.21-.87.31-.13.05-1.03.44-.25.09-.54.24-1.18.4-1.76.56-.29.08-.59.14-.88.22-.03,0-.03,0-.05.02-1.9.03-3.36.77-4.65,1.91-.01.01-.02.02-.04.03-.82.22-1.63.46-2.42.76-.3.11-.57.25-.85.39-1.96.14-3.96.17-5.82.76-1.02.33-2.02.73-2.96,1.21-.08-.02-.15-.05-.23-.06-1.51-.23-2.79-.05-4.12.6-.78.38-1.55.76-2.36,1.1-.21.09-.42.17-.63.26-.04.01-.26.09-.38.14-.13.04-.32.1-.35.11-.23.07-.47.14-.7.21-.98.29-1.97.55-2.96.81-2.15.55-4.2,1.29-6.26,2.05-.46.17-.93.34-1.39.5-.29.1-.57.21-.85.32-.03.01-.26.09-.39.14-.13.04-.38.13-.41.14-.22.07-.44.13-.66.2-.62.18-1.24.38-1.81.65-.08.04-.14.09-.22.13-1.13-.48-2.5-.52-3.61.08-1.72.94-2.49,2.88-1.38,4.43.57.81,1,1.54,1.75,2.27.11.1.21.19.31.29.01.02.02.03.04.05.04.08.08.13.1.17.05.13.11.26.15.4.04.13.16.9.17.8.02.33.05.65.05.98,0,.39-.02.79-.05,1.18-.01.19-.03.38-.05.57,0,.06-.01.1-.02.14-.01.05-.03.13-.06.28-.05.21-.1.42-.15.62-.11.42-.24.83-.35,1.24-.24.84-.38,1.68-.58,2.52-.1.42-.25.83-.37,1.25-.01.03-.02.04-.03.06-.06.1-.12.2-.18.29-.03.04-.06.08-.09.12-1.95.31-3.2,2.44-2.62,3.97.69,1.82,2.58,2.56,4.7,2.27.49-.07.94-.2,1.37-.38.24.21.5.4.82.54,2.17.96,4.43,1.32,6.78,1.8.51.1,1,.25,1.51.36,0,0,.01.01.02.02.15.11.38.22.55.3.02,0,.02,0,.04.02.16.11.32.22.49.33.55.37,1.1.76,1.69,1.08,1.89,1.02,4.23,1.06,6.3,1.73,1.28.42,2.63.77,3.98,1.09.68.78,1.74,1.29,3,1.31,1.09.01,1.53.08,2.61.23.85.12,1.71.22,2.57.32.27.26.58.49.97.65.64.25,1.16.63,1.74.96.78.45,1.69.76,2.57,1.03,1.47.46,3.04.69,4.53,1.09,3.2.86,6.25,2.08,9.45,2.94,0,0,0,0,0,0,.08.05.15.11.23.16,1.37.85,2.95,1.24,4.49,1.82,1.76.66,3.43,1.46,5.23,2.05,1.8.6,3.7.95,5.51,1.51,3.26,1,6.29,2.35,9.77,2.78,2.51.31,5.38.49,7.82-.3,3.51.48,6.79-.47,10.14-1.31.51-.13,1.01-.29,1.52-.44,2.91.48,5.3-.39,7.97-1.41,2.39-.91,5.29-1.13,6.83-3.17,1.14-1.52,1.05-3.4.89-5.12-.25-2.74-2.3-4.37-5.22-5.3-2.4-.76-4.8-1.46-7.17-2.27-2.15-.73-4.04-1.77-6.13-2.59-2.46-.97-5.12-1.36-7.78-1.75-.71-.1-1.42-.21-2.12-.3,1.24-.22,2.46-.52,3.7-.77.25.05.51.07.78.07,1.35,0,2.66-.01,4-.2.44-.06.87-.16,1.29-.28.09.03.17.07.27.09,1.59.37,3.48.24,5.03-.22,1.54-.46,2.77-1.31,4.22-1.92.03-.01.04-.02.06-.02.02,0,.03,0,.06-.02.17-.06.35-.12.52-.17.35-.12.69-.23,1.04-.34.94-.32,1.89-.64,2.8-1.04,1.55-.68,2.86-1.56,3.72-2.86.87-1.31,1.32-2.74.8-4.14-.04-1.05-.32-2.09-.9-2.89-1.18-1.63-3.17-2.33-5.12-3.08-.28-.21-.54-.43-.82-.63-.8-.55-1.72-.88-2.65-.91-.14-.08-.3-.14-.44-.22-.94-.57-1.9-1.4-3.03-1.92-2.28-1.04-4.8-1.47-7.31-1.9-1.17-.2-2.35-.39-3.54-.56.55-.52.82-1.09.9-1.65,3.95-.15,7.96-.63,11.8-1.37,3.79-.74,7.69-2.21,9.87-5.09,2.6-3.44.68-7.26-3.05-9.35-.18-.1-.38-.17-.57-.26-.5-1.07-1.62-1.91-3.37-1.95-2.95-.05-6.04-.76-8.89-1.09-3-.34-6.05-1.04-9.17-1.11-2.93-.06-6.1-.33-9.02.03-.72-.34-1.56-.5-2.51-.39Z"/>
    <path class="cls-1" d="M25.46,46.62c7.09-5.39,7.92-14.38,1.87-20.09"/>
    <g>
      <path class="cls-1" d="M107.36,1.88c28.3.04,37.31,4.83,36.86,11.72"/>
      <path class="cls-1" d="M110.08,23.92c18.86.03,34.13-4.58,34.14-10.31"/>
    </g>
    <g>
      <path class="cls-1" d="M110.1,23.91c18.85.03,34.1,6.25,34.08,13.9"/>
      <path class="cls-1" d="M110.05,49.14c18.85.03,34.12-5.04,34.14-11.33"/>
    </g>
    <g>
      <path class="cls-1" d="M110.05,49.14c18.86.03,34.1,5.88,34.09,13.08"/>
      <path class="cls-1" d="M108.18,72.18c19.54,1.84,35.95-4.04,35.96-9.96"/>
    </g>
    <line class="cls-1" x1="14.84" y1="43.33" x2="108.18" y2="72.18"/>
    <line class="cls-1" x1="15.74" y1="30" x2="108.3" y2="1.6"/>
  </g>
  <g>
    <path class="cls-4" d="M176.04,46.29c-.05.17-.15.3-.29.38-.14.08-.38.12-.69.12-.39,0-.68-.08-.87-.24s-.32-.38-.39-.67c-.06-.29-.1-.67-.1-1.15v-.42c.02-.09.03-.23.03-.41l-.4-11.4c-.23.02-.52.06-.88.11-1.06.14-1.85.21-2.35.21-.47,0-.81-.09-1.04-.27-.23-.18-.34-.46-.34-.85,0-.73.17-1.23.51-1.52.34-.29.76-.43,1.28-.43l6.27-.06,2.37-.14c.37,0,.66.14.89.42.22.28.33.63.33,1.05,0,.2-.06.44-.19.72-.12.28-.28.53-.48.74-.19.21-.39.31-.59.31-.15,0-.38-.1-.69-.3-.15-.1-.28-.18-.39-.23-.11-.05-.23-.08-.33-.08-1.02,0-1.78.03-2.26.1l.43,11.54c.14.77.23,1.33.27,1.66-.01.37-.04.64-.09.81Z"/>
    <path class="cls-4" d="M185.89,36.72c-.65.79-.98,2.01-.98,3.65v.5l.15,4.36c0,.16-.04.36-.11.59-.07.23-.19.43-.36.61-.16.17-.37.26-.63.26-.48,0-.8-.14-.98-.41s-.27-.72-.27-1.35c0-.42,0-.85.03-1.3,0-.15.01-.35.01-.59v-1.33c0-.53.03-1.26.08-2.18.05-.93.18-2.54.36-4.86.03-.47.14-.84.33-1.12.19-.27.47-.41.83-.41.2,0,.38.12.56.38.17.25.26.65.26,1.2,0,.84-.01,1.35-.04,1.54.2-.6.58-1.17,1.15-1.69.57-.52,1.19-.94,1.87-1.25.67-.31,1.26-.47,1.76-.47.81,0,1.53.15,2.16.45s.94.9.94,1.8c0,.28-.06.54-.19.78s-.3.42-.5.55-.41.2-.63.2c-.19,0-.33-.03-.42-.1s-.17-.17-.25-.31c-.12-.22-.28-.38-.48-.5-.2-.12-.56-.18-1.06-.18h-.34c-1.51,0-2.59.4-3.24,1.19Z"/>
    <path class="cls-4" d="M208.27,43.82c.13.19.2.49.2.91,0,.32-.09.64-.28.96s-.45.59-.77.79c-.33.21-.69.31-1.09.31s-.78-.13-1.17-.4c-.39-.27-.71-.62-.96-1.06-.25-.44-.37-.89-.37-1.35-.74.9-1.52,1.62-2.32,2.16-.8.54-1.65.81-2.55.81-.82,0-1.66-.25-2.51-.76-.85-.51-1.55-1.2-2.09-2.06-.55-.86-.82-1.8-.82-2.8,0-1.35.32-2.67.97-3.96.65-1.29,1.51-2.35,2.6-3.16,1.09-.81,2.26-1.22,3.52-1.22.95,0,1.84.27,2.66.82.82.55,1.47,1.25,1.95,2.12.48.86.72,1.74.72,2.63,0,.38-.03.76-.09,1.13s-.09.61-.1.71c-.08.44-.14.84-.18,1.18s-.06.71-.06,1.1c0,.56.09.96.26,1.2.17.24.43.36.78.36.09,0,.18-.03.28-.1s.21-.16.34-.28c.02-.02.08-.07.17-.15.09-.08.18-.13.26-.16.31,0,.53.09.66.28ZM202.13,43.31c.64-.61,1.07-1.31,1.3-2.1.23-.79.45-1.81.65-3.08,0-.29-.18-.63-.55-1.01-.37-.38-.81-.7-1.32-.98-.51-.27-.97-.41-1.38-.41-1.02,0-1.94.27-2.74.81-.8.54-1.43,1.24-1.87,2.09-.44.85-.66,1.71-.66,2.59,0,.58.19,1.09.57,1.55.38.46.87.81,1.47,1.07.6.25,1.21.38,1.84.38,1.16,0,2.06-.31,2.7-.92Z"/>
    <path class="cls-4" d="M217.62,33.31c.53.22.97.52,1.3.92s.54.85.6,1.36l.03-4.06.03-4.04c0-.99.38-1.49,1.13-1.49.29,0,.5.13.63.4.13.26.19.58.19.95v2.1s-.04,2.14-.04,2.14l-.18,8.99-.06,2.45c-.01,1.26-.1,2.2-.26,2.84-.16.64-.5.96-1,.96-.2,0-.37-.12-.51-.37-.14-.25-.3-.6-.48-1.08-.33.3-.76.56-1.3.77-.54.21-1.09.37-1.65.48-.57.11-1.06.16-1.47.16-1.78,0-3.12-.56-4.04-1.67-.91-1.11-1.37-2.63-1.37-4.55,0-1.32.27-2.56.81-3.72.54-1.16,1.32-2.1,2.35-2.8s2.22-1.06,3.6-1.06c.6,0,1.16.11,1.69.33ZM217.01,43.98c.6-.2,1.08-.45,1.43-.73s.57-.54.65-.78c.08-.25.13-.51.16-.79.02-.28.04-.61.04-.99v-1.3c0-.64-.15-1.25-.46-1.83-.31-.58-.72-1.04-1.23-1.39-.51-.35-1.04-.52-1.6-.52-.96,0-1.8.21-2.52.62s-1.27.99-1.65,1.72c-.38.73-.57,1.56-.57,2.5,0,.76.16,1.44.48,2.01.32.58.77,1.02,1.33,1.32.57.31,1.2.46,1.89.46.77,0,1.46-.1,2.06-.3Z"/>
    <path class="cls-4" d="M227.32,46.54c-.21.27-.44.41-.7.41-.37,0-.66-.11-.87-.33-.21-.22-.38-.59-.48-1.11-.08-.45-.12-1.42-.12-2.9,0-2.45.1-4.68.31-6.68.2-2,.67-2.99,1.39-2.99.3,0,.49.12.59.38.09.25.14.61.14,1.08l-.12,1.98c-.05.67-.09,1.37-.13,2.11s-.06,1.39-.06,1.97c0,.61.06,1.47.19,2.58.12,1.15.18,1.95.18,2.39,0,.47-.1.84-.31,1.12ZM227.08,30c-.41,0-.79-.11-1.14-.34s-.53-.62-.53-1.19c0-.28.08-.57.25-.86.16-.29.37-.53.61-.72s.47-.28.69-.28c.41,0,.76.12,1.06.37.3.25.45.67.45,1.26,0,1.18-.46,1.77-1.38,1.77Z"/>
    <path class="cls-4" d="M232.06,35.93c-.36.02-.66.03-.91.03-.14,0-.31-.06-.51-.17-.2-.11-.38-.27-.53-.48-.15-.21-.22-.44-.22-.71s.06-.51.19-.74c.12-.23.28-.42.48-.55.19-.14.39-.21.6-.21.32,0,.9.03,1.76.08.03-1.17.14-2.28.33-3.34s.57-1.59,1.12-1.59c.13,0,.26.06.4.18.14.12.26.28.35.48.09.2.14.42.14.66,0,1-.06,1.91-.18,2.72l-.04.35-.13.58c.36,0,.78,0,1.27-.01s.86-.02,1.12-.03c.79-.03,1.59-.04,2.38-.04.29,0,.5.16.62.49.13.33.19.67.19,1.04,0,.4-.11.71-.32.94-.21.23-.45.35-.69.35l-4.59-.06v1.3c-.04.79-.06,1.65-.06,2.58,0,1.31.12,2.35.35,3.1s.68,1.13,1.35,1.13c.57,0,1.27-.29,2.1-.86.18-.1.27-.16.28-.16.25,0,.42.07.51.2.09.13.13.36.13.69,0,.4-.17.82-.51,1.27-.34.45-.74.83-1.21,1.14s-.87.47-1.22.47c-1.12,0-1.95-.38-2.49-1.13-.54-.75-.88-1.65-1.01-2.7-.13-1.05-.21-2.41-.23-4.08,0-1.31-.04-2.3-.12-2.96-.15,0-.38,0-.7.03Z"/>
    <path class="cls-4" d="M245.24,46.54c-.21.27-.44.41-.7.41-.37,0-.66-.11-.87-.33-.21-.22-.38-.59-.48-1.11-.08-.45-.12-1.42-.12-2.9,0-2.45.1-4.68.3-6.68.2-2,.67-2.99,1.39-2.99.3,0,.49.12.59.38.09.25.14.61.14,1.08l-.12,1.98c-.05.67-.09,1.37-.13,2.11-.04.74-.06,1.39-.06,1.97,0,.61.06,1.47.19,2.58.12,1.15.18,1.95.18,2.39,0,.47-.1.84-.31,1.12ZM245,30c-.41,0-.79-.11-1.14-.34s-.53-.62-.53-1.19c0-.28.08-.57.25-.86.16-.29.37-.53.61-.72s.47-.28.69-.28c.41,0,.76.12,1.06.37.3.25.45.67.45,1.26,0,1.18-.46,1.77-1.38,1.77Z"/>
    <path class="cls-4" d="M251.3,45.9c-.92-.7-1.66-1.58-2.21-2.65-.55-1.07-.83-2.13-.83-3.17,0-1.64.3-3,.9-4.06.6-1.07,1.38-1.84,2.34-2.33.96-.49,1.99-.73,3.1-.73,1.18,0,2.2.29,3.05.87.85.58,1.51,1.41,1.96,2.48.45,1.07.68,2.33.68,3.77,0,1.31-.29,2.49-.86,3.54s-1.32,1.86-2.25,2.45c-.93.59-1.91.88-2.94.88s-2.03-.35-2.95-1.05ZM257.9,37.71c-.29-.65-.7-1.16-1.21-1.52-.52-.36-1.09-.55-1.73-.55-.78,0-1.54.16-2.28.47-.73.32-1.33.79-1.8,1.41s-.7,1.37-.7,2.25c0,.74.19,1.46.57,2.16.38.7.87,1.27,1.47,1.71.61.44,1.23.66,1.88.66.73,0,1.43-.17,2.08-.52.65-.35,1.17-.85,1.57-1.51.4-.66.6-1.43.6-2.33,0-.84-.15-1.59-.44-2.24Z"/>
    <path class="cls-4" d="M272.33,37.29c-.5-1.1-1.46-1.64-2.87-1.64-.42,0-.9.12-1.44.35s-1.06.56-1.57.97c-.51.41-.92.86-1.24,1.35,0,.32,0,.86-.03,1.61-.02.72-.03,1.21-.03,1.49,0,.29.02.58.06.86.04.28.1.62.18,1.03.06.3.11.62.16.94.04.33.07.63.07.91,0,.54-.06.94-.19,1.22-.13.27-.41.41-.83.41s-.77-.11-1.03-.34c-.26-.23-.38-.68-.36-1.37l.06-5.55c-.11-1.34-.16-2.26-.16-2.76v-.42c0-.83.08-1.59.25-2.28s.44-1.03.82-1.03c.75,0,1.13.62,1.13,1.85,0,.2-.03.59-.09,1.18l-.04.37c.22-.74.62-1.37,1.19-1.9.58-.53,1.2-.93,1.86-1.2.67-.27,1.23-.4,1.7-.4,1.87,0,3.19.73,3.98,2.18s1.18,3.22,1.18,5.3c0,1.93-.09,3.51-.28,4.76s-.58,1.87-1.16,1.87c-.26,0-.47-.03-.63-.09-.16-.06-.29-.21-.39-.44-.1-.23-.15-.59-.15-1.07,0-.31.02-.62.07-.92s.12-.68.22-1.13c.11-.52.19-.93.24-1.23s.07-.62.07-.96c0-1.5-.25-2.8-.75-3.89Z"/>
    <path class="cls-4" d="M289.25,43.7c.18.22.28.56.28,1.02,0,.89-.67,1.47-2.02,1.76-1.35.28-2.67.42-3.98.42-.98,0-1.93-.27-2.84-.81-.91-.54-1.65-1.28-2.22-2.22-.57-.93-.85-1.96-.85-3.07,0-1.6.27-3.01.82-4.23s1.34-2.18,2.39-2.87c1.05-.68,2.29-1.03,3.73-1.03.76,0,1.52.18,2.27.54.75.36,1.37.88,1.85,1.57s.73,1.5.73,2.44c0,.48-.07.88-.22,1.21-.15.33-.35.53-.61.62l-9.01,3.06c.31.93.93,1.54,1.88,1.83.94.28,1.99.42,3.14.42.38,0,.75-.05,1.13-.16.38-.1.82-.25,1.34-.44.33-.12.6-.22.81-.28.21-.07.4-.1.56-.1.37,0,.64.11.83.33ZM281.96,39.12c.95-.36,2.17-.83,3.66-1.42,1-.4,1.69-.66,2.05-.79-.27-.55-.72-.95-1.35-1.2-.64-.25-1.37-.38-2.2-.38-.47,0-1.04.17-1.73.5-.68.33-1.32.85-1.89,1.55-.58.7-.94,1.56-1.09,2.58.75-.2,1.59-.48,2.55-.84Z"/>
    <path class="cls-4" d="M295.83,36.72c-.65.79-.98,2.01-.98,3.65v.5l.15,4.36c0,.16-.04.36-.11.59-.07.23-.19.43-.36.61-.16.17-.38.26-.63.26-.48,0-.8-.14-.98-.41s-.27-.72-.27-1.35c0-.42,0-.85.03-1.3,0-.15.01-.35.01-.59v-1.33c0-.53.03-1.26.08-2.18s.18-2.54.37-4.86c.03-.47.14-.84.33-1.12.19-.27.47-.41.83-.41.2,0,.38.12.56.38.17.25.26.65.26,1.2,0,.84-.02,1.35-.04,1.54.2-.6.58-1.17,1.15-1.69.57-.52,1.19-.94,1.87-1.25s1.26-.47,1.76-.47c.81,0,1.53.15,2.16.45.62.3.94.9.94,1.8,0,.28-.06.54-.19.78s-.3.42-.5.55-.41.2-.63.2c-.19,0-.33-.03-.42-.1-.09-.07-.17-.17-.25-.31-.12-.22-.28-.38-.48-.5-.2-.12-.56-.18-1.06-.18h-.34c-1.51,0-2.59.4-3.24,1.19Z"/>
    <path class="cls-4" d="M313,46.54c-.21.27-.44.41-.7.41-.37,0-.66-.11-.87-.33-.21-.22-.38-.59-.48-1.11-.08-.45-.12-1.42-.12-2.9,0-2.45.1-4.68.31-6.68.2-2,.67-2.99,1.39-2.99.3,0,.49.12.59.38.09.25.14.61.14,1.08l-.12,1.98c-.05.67-.09,1.37-.13,2.11-.04.74-.06,1.39-.06,1.97,0,.61.06,1.47.19,2.58.12,1.15.18,1.95.18,2.39,0,.47-.1.84-.31,1.12ZM312.77,30c-.41,0-.79-.11-1.14-.34s-.53-.62-.53-1.19c0-.28.08-.57.25-.86.16-.29.37-.53.61-.72.24-.19.47-.28.69-.28.41,0,.76.12,1.06.37s.45.67.45,1.26c0,1.18-.46,1.77-1.38,1.77Z"/>
    <path class="cls-4" d="M331.13,25.66c.51.2.96.46,1.35.8.39.34.59.71.59,1.11,0,.32-.04.63-.12.93-.08.3-.23.45-.46.45-.2,0-.39-.04-.57-.11-.18-.07-.39-.17-.63-.3-.3-.16-.54-.28-.74-.35-.19-.08-.41-.11-.65-.11-1.03,0-1.78.56-2.24,1.69s-.74,2.46-.83,4.02h3.51c.09,0,.23-.03.41-.05.18-.02.33-.04.45-.04.26,0,.47.1.65.29.17.19.26.54.26,1.03,0,.62-.14,1.02-.41,1.2-.27.18-.6.27-.98.27-1.75-.09-2.95-.14-3.62-.14h-.34c0,.55-.04,1.44-.07,2.66-.06,1.37-.09,2.47-.1,3.3,0,.1.03.36.1.78,0,.08.05.37.13.88.08.51.11,1.05.11,1.61,0,.79-.27,1.19-.82,1.19-.49,0-.85-.08-1.08-.23-.23-.16-.39-.46-.48-.9-.08-.44-.13-1.14-.13-2.1,0-.55,0-1.17.03-1.88.02-.7.04-1.21.04-1.51.05-.98.08-1.99.09-3.03,0-.15,0-.39.03-.71-.79.05-1.49.07-2.1.07-.26,0-.48-.15-.68-.44-.19-.29-.29-.61-.29-.95s.1-.65.31-.95c.21-.3.44-.45.69-.45l2.14.08h.13c.29-2.41.84-4.41,1.65-6.01.81-1.6,1.95-2.4,3.41-2.4.3,0,.7.1,1.21.3Z"/>
    <path class="cls-4" d="M337.52,36.72c-.65.79-.98,2.01-.98,3.65v.5l.15,4.36c0,.16-.04.36-.11.59-.07.23-.19.43-.36.61-.16.17-.38.26-.63.26-.48,0-.8-.14-.98-.41s-.27-.72-.27-1.35c0-.42,0-.85.03-1.3,0-.15.01-.35.01-.59v-1.33c0-.53.03-1.26.08-2.18s.18-2.54.37-4.86c.03-.47.14-.84.33-1.12.19-.27.47-.41.83-.41.2,0,.38.12.56.38.17.25.26.65.26,1.2,0,.84-.02,1.35-.04,1.54.2-.6.58-1.17,1.15-1.69.57-.52,1.19-.94,1.87-1.25s1.26-.47,1.76-.47c.81,0,1.53.15,2.16.45.62.3.94.9.94,1.8,0,.28-.06.54-.19.78s-.3.42-.5.55-.41.2-.63.2c-.19,0-.33-.03-.42-.1-.09-.07-.17-.17-.25-.31-.12-.22-.28-.38-.48-.5-.2-.12-.56-.18-1.06-.18h-.34c-1.51,0-2.59.4-3.24,1.19Z"/>
    <path class="cls-4" d="M348.55,46.54c-.21.27-.44.41-.7.41-.37,0-.66-.11-.87-.33-.21-.22-.38-.59-.48-1.11-.08-.45-.12-1.42-.12-2.9,0-2.45.1-4.68.31-6.68.2-2,.67-2.99,1.39-2.99.3,0,.49.12.59.38.09.25.14.61.14,1.08l-.12,1.98c-.05.67-.09,1.37-.13,2.11-.04.74-.06,1.39-.06,1.97,0,.61.06,1.47.19,2.58.12,1.15.18,1.95.18,2.39,0,.47-.1.84-.31,1.12ZM348.31,30c-.41,0-.79-.11-1.14-.34s-.53-.62-.53-1.19c0-.28.08-.57.25-.86.16-.29.37-.53.61-.72.24-.19.47-.28.69-.28.41,0,.76.12,1.06.37s.45.67.45,1.26c0,1.18-.46,1.77-1.38,1.77Z"/>
    <path class="cls-4" d="M353.29,35.93c-.36.02-.66.03-.91.03-.14,0-.31-.06-.51-.17s-.38-.27-.53-.48c-.15-.21-.22-.44-.22-.71s.06-.51.19-.74c.12-.23.28-.42.48-.55.19-.14.39-.21.6-.21.32,0,.9.03,1.76.08.03-1.17.14-2.28.33-3.34.19-1.06.57-1.59,1.12-1.59.13,0,.26.06.4.18.14.12.25.28.35.48.09.2.14.42.14.66,0,1-.06,1.91-.18,2.72l-.04.35-.13.58c.36,0,.78,0,1.27-.01s.86-.02,1.12-.03c.79-.03,1.59-.04,2.38-.04.29,0,.5.16.63.49.13.33.19.67.19,1.04,0,.4-.11.71-.32.94-.21.23-.44.35-.69.35l-4.59-.06-.02,1.3c-.03.79-.04,1.65-.04,2.58,0,1.31.12,2.35.35,3.1s.68,1.13,1.35,1.13c.57,0,1.27-.29,2.1-.86.18-.1.27-.16.28-.16.25,0,.42.07.51.2.09.13.13.36.13.69,0,.4-.17.82-.51,1.27-.34.45-.74.83-1.21,1.14s-.87.47-1.22.47c-1.12,0-1.95-.38-2.49-1.13-.54-.75-.88-1.65-1.01-2.7-.13-1.05-.21-2.41-.23-4.08,0-1.31-.04-2.3-.12-2.96-.15,0-.38,0-.7.03Z"/>
    <path class="cls-4" d="M366.46,46.54c-.21.27-.44.41-.7.41-.37,0-.66-.11-.87-.33-.21-.22-.38-.59-.48-1.11-.08-.45-.12-1.42-.12-2.9,0-2.45.1-4.68.31-6.68.2-2,.67-2.99,1.39-2.99.3,0,.49.12.59.38.09.25.14.61.14,1.08l-.12,1.98c-.05.67-.09,1.37-.13,2.11-.04.74-.06,1.39-.06,1.97,0,.61.06,1.47.19,2.58.12,1.15.18,1.95.18,2.39,0,.47-.1.84-.31,1.12ZM366.23,30c-.41,0-.79-.11-1.14-.34s-.53-.62-.53-1.19c0-.28.08-.57.25-.86.16-.29.37-.53.61-.72.24-.19.47-.28.69-.28.41,0,.76.12,1.06.37s.45.67.45,1.26c0,1.18-.46,1.77-1.38,1.77Z"/>
    <path class="cls-4" d="M377.91,33.31c.53.22.96.52,1.3.92s.54.85.6,1.36l.03-4.06.03-4.04c0-.99.38-1.49,1.13-1.49.29,0,.5.13.62.4s.19.58.19.95l-.02,2.1-.03,2.14-.18,8.99-.06,2.45c0,1.26-.1,2.2-.26,2.84-.16.64-.5.96-1,.96-.2,0-.37-.12-.51-.37-.14-.25-.3-.6-.48-1.08-.33.3-.76.56-1.29.77-.54.21-1.09.37-1.65.48-.57.11-1.06.16-1.47.16-1.78,0-3.12-.56-4.04-1.67s-1.37-2.63-1.37-4.55c0-1.32.27-2.56.81-3.72s1.32-2.1,2.35-2.8,2.22-1.06,3.6-1.06c.6,0,1.16.11,1.69.33ZM377.3,43.98c.6-.2,1.08-.45,1.43-.73.35-.28.57-.54.65-.78.08-.25.13-.51.16-.79.02-.28.04-.61.04-.99v-1.3c0-.64-.15-1.25-.46-1.83s-.72-1.04-1.23-1.39c-.51-.35-1.04-.52-1.6-.52-.96,0-1.8.21-2.52.62-.72.42-1.27.99-1.65,1.72-.38.73-.57,1.56-.57,2.5,0,.76.16,1.44.48,2.01.32.58.77,1.02,1.33,1.32.57.31,1.2.46,1.89.46.77,0,1.46-.1,2.06-.3Z"/>
    <path class="cls-4" d="M387,46.51c-.8-.36-1.21-1.05-1.21-2.06,0-.16.05-.36.15-.6.1-.24.22-.45.37-.62.15-.17.3-.26.45-.26.05,0,.17.08.37.25.26.31.51.54.75.7.24.16.52.26.83.31.31.05.72.08,1.24.08s1.07-.06,1.67-.19c.6-.13,1.11-.28,1.53-.45s.62-.31.62-.41c0-.25-.13-.46-.39-.63-.26-.17-.58-.29-.95-.39s-.93-.21-1.67-.35c-1.16-.21-2.12-.43-2.87-.66-.75-.23-1.4-.6-1.95-1.12-.55-.51-.83-1.21-.83-2.09,0-1.09.31-2.04.94-2.85.62-.82,1.42-1.44,2.39-1.88.97-.44,1.94-.66,2.93-.66.65,0,1.22.12,1.74.37.51.25.91.57,1.19.97.28.4.42.83.42,1.3,0,.75-.06,1.35-.18,1.83s-.4.71-.85.71c-.22,0-.36-.1-.43-.3s-.1-.5-.1-.92c0-.44-.18-.75-.54-.92s-.89-.25-1.61-.25c-.5,0-1.05.12-1.65.35s-1.12.54-1.55.92-.64.77-.64,1.18.16.75.49,1.01c.33.26.73.46,1.22.59.49.14,1.16.29,2.01.45,1.05.2,1.9.4,2.55.59s1.19.51,1.65.93c.45.42.68.98.68,1.69,0,.9-.36,1.64-1.09,2.23-.73.59-1.57,1.02-2.54,1.3s-1.8.41-2.51.41c-.95,0-1.83-.18-2.64-.55Z"/>
    <path class="cls-4" d="M408.52,40.08c0-.76-.09-1.43-.26-2.02s-.56-1.1-1.15-1.52c-.6-.42-1.47-.63-2.62-.63-.58,0-1.14.12-1.7.38-.56.25-1.01.56-1.36.93-.35.37-.53.72-.53,1.05v6.66c-.01.38-.03.68-.06.91-.03.23-.11.43-.25.6-.14.17-.36.25-.66.25s-.55-.1-.8-.29c-.24-.19-.37-.59-.37-1.18,0-2.1.04-5.07.13-8.94.08-4.25.12-7.2.12-8.85,0-.23.05-.48.16-.77.11-.29.26-.54.45-.74.19-.21.4-.31.62-.31.25,0,.46.12.64.37s.27.53.27.85v.06c0,.74-.03,1.93-.09,3.57-.07,1.45-.1,2.69-.1,3.7l-.07,1.71c.09-.51.33-.97.72-1.38.39-.41.85-.73,1.38-.96s1.04-.34,1.51-.34c2.29,0,3.88.66,4.77,1.98s1.33,2.89,1.33,4.72l-.15,4.62c0,.06,0,.32-.02.79-.02.47-.12.87-.31,1.2-.19.33-.46.49-.81.49s-.64-.15-.85-.45c-.21-.3-.31-.67-.31-1.11,0-.61.06-1.47.18-2.56.12-1.06.18-1.87.18-2.45v-.33Z"/>
    <path class="cls-4" d="M418.03,41.1c.02.72.03,1.28.03,1.7v.51c0,2.46-.11,4.38-.32,5.73-.21,1.36-.77,2.46-1.66,3.31s-2.3,1.27-4.23,1.27c-.54,0-1.02-.09-1.44-.26-.42-.17-.63-.57-.63-1.2,0-.49.1-.82.31-1,.2-.17.51-.26.92-.26h.45c1.38,0,2.4-.34,3.08-1.02.67-.68,1.09-1.52,1.27-2.53s.27-2.3.28-3.88l.04-8.13c.02-1.62.4-2.44,1.13-2.44.34,0,.6.14.77.42s.29.62.33,1.02c0,.63-.05,1.5-.16,2.59-.12,1.27-.18,2.22-.18,2.86l.02,1.29ZM417.18,29.39c-.41,0-.79-.12-1.16-.35s-.55-.64-.55-1.2c0-.28.08-.57.25-.86s.38-.53.63-.72c.25-.19.49-.28.73-.28.4,0,.74.13,1.04.38s.45.68.45,1.29c0,1.17-.46,1.76-1.39,1.76Z"/>
    <path class="cls-4" d="M433.29,43.7c.18.22.28.56.28,1.02,0,.89-.67,1.47-2.02,1.76-1.35.28-2.67.42-3.98.42-.98,0-1.93-.27-2.84-.81-.91-.54-1.65-1.28-2.22-2.22-.57-.93-.85-1.96-.85-3.07,0-1.6.27-3.01.82-4.23s1.34-2.18,2.39-2.87c1.05-.68,2.29-1.03,3.73-1.03.76,0,1.52.18,2.27.54.75.36,1.37.88,1.85,1.57s.73,1.5.73,2.44c0,.48-.07.88-.22,1.21-.15.33-.35.53-.61.62l-9.01,3.06c.31.93.93,1.54,1.88,1.83s1.99.42,3.14.42c.38,0,.75-.05,1.13-.16.38-.1.82-.25,1.34-.44.33-.12.6-.22.81-.28.21-.07.4-.1.56-.1.37,0,.64.11.83.33ZM426,39.12c.95-.36,2.17-.83,3.66-1.42,1-.4,1.69-.66,2.05-.79-.27-.55-.72-.95-1.35-1.2-.64-.25-1.37-.38-2.2-.38-.47,0-1.04.17-1.73.5-.68.33-1.32.85-1.89,1.55-.58.7-.94,1.56-1.09,2.58.75-.2,1.59-.48,2.55-.84Z"/>
    <path class="cls-4" d="M453.25,39.65c0-.53-.14-1.06-.42-1.59-.28-.53-.68-.97-1.21-1.32-.53-.34-1.14-.52-1.85-.52-.37,0-.78.09-1.25.28-.47.18-.9.44-1.3.77-.4.33-.68.7-.85,1.1l-.15,5.76.06.42.06.44c0,.47-.09.88-.28,1.22s-.42.51-.7.51c-.44,0-.79-.11-1.06-.33-.27-.22-.41-.62-.41-1.22l.04-.3c.08-.65.12-1.03.12-1.15l.06-4.23c0-.56-.1-1.12-.33-1.68-.23-.56-.55-1.02-.98-1.39-.42-.36-.9-.55-1.44-.55-.74,0-1.31.09-1.73.27s-.71.46-.89.85-.26.91-.26,1.57v.55c0,.52.03,1.28.09,2.28,0,.17,0,.4.03.68l.27,3.26c0,.27-.07.52-.21.74-.14.22-.3.39-.48.51s-.33.18-.44.18c-.44,0-.76-.14-.97-.41-.21-.27-.31-.78-.31-1.52v-.48c.02-.07.03-.17.03-.33v-2.28c-.02-.34-.03-.78-.03-1.33v-2.27c0-1.13.02-2.02.07-2.66.04-.64.14-1.14.29-1.49.15-.35.37-.52.67-.52.59,0,.88.5.88,1.5v.25c.14-.36.37-.7.68-1.01.32-.32.68-.57,1.09-.77s.83-.3,1.24-.3c.53,0,1.12.13,1.77.38s1.22.65,1.7,1.2c.48.54.71,1.22.71,2.03.14-.64.45-1.21.93-1.69.48-.49,1.04-.86,1.66-1.12.63-.26,1.2-.39,1.71-.39,1.74,0,3.08.59,4.04,1.78.96,1.18,1.44,3.02,1.44,5.5,0,1.69-.11,3.12-.34,4.3s-.58,1.77-1.04,1.77c-.25,0-.48-.09-.69-.28-.21-.18-.38-.41-.51-.69s-.19-.53-.19-.76c0-.32.03-.6.08-.84.05-.24.13-.51.23-.8.11-.31.19-.59.25-.84.05-.25.08-.54.08-.89l.02-2.19Z"/>
    <path class="cls-4" d="M475.53,39.65c0-.53-.14-1.06-.42-1.59-.28-.53-.68-.97-1.21-1.32-.53-.34-1.14-.52-1.85-.52-.37,0-.78.09-1.25.28-.47.18-.9.44-1.3.77-.4.33-.68.7-.85,1.1l-.15,5.76.06.42.06.44c0,.47-.09.88-.28,1.22s-.42.51-.7.51c-.44,0-.79-.11-1.06-.33-.27-.22-.41-.62-.41-1.22l.04-.3c.08-.65.12-1.03.12-1.15l.06-4.23c0-.56-.1-1.12-.33-1.68-.23-.56-.55-1.02-.98-1.39-.42-.36-.9-.55-1.44-.55-.74,0-1.31.09-1.73.27s-.71.46-.89.85-.26.91-.26,1.57v.55c0,.52.03,1.28.09,2.28,0,.17,0,.4.03.68l.27,3.26c0,.27-.07.52-.21.74-.14.22-.3.39-.48.51s-.33.18-.44.18c-.44,0-.76-.14-.97-.41-.21-.27-.31-.78-.31-1.52v-.48c.02-.07.03-.17.03-.33v-2.28c-.02-.34-.03-.78-.03-1.33v-2.27c0-1.13.02-2.02.07-2.66.04-.64.14-1.14.29-1.49.15-.35.37-.52.67-.52.59,0,.88.5.88,1.5v.25c.14-.36.37-.7.68-1.01.32-.32.68-.57,1.09-.77s.83-.3,1.24-.3c.53,0,1.12.13,1.77.38s1.22.65,1.7,1.2c.48.54.71,1.22.71,2.03.14-.64.45-1.21.93-1.69.48-.49,1.04-.86,1.66-1.12.63-.26,1.2-.39,1.71-.39,1.74,0,3.08.59,4.04,1.78.96,1.18,1.44,3.02,1.44,5.5,0,1.69-.11,3.12-.34,4.3s-.58,1.77-1.04,1.77c-.25,0-.48-.09-.69-.28-.21-.18-.38-.41-.51-.69s-.19-.53-.19-.76c0-.32.03-.6.08-.84.05-.24.13-.51.23-.8.11-.31.19-.59.25-.84.05-.25.08-.54.08-.89l.02-2.19Z"/>
    <path class="cls-4" d="M492.11,43.7c.18.22.28.56.28,1.02,0,.89-.67,1.47-2.02,1.76-1.35.28-2.67.42-3.98.42-.98,0-1.93-.27-2.84-.81-.91-.54-1.65-1.28-2.22-2.22-.57-.93-.85-1.96-.85-3.07,0-1.6.27-3.01.82-4.23s1.34-2.18,2.39-2.87c1.05-.68,2.29-1.03,3.73-1.03.76,0,1.52.18,2.27.54.75.36,1.37.88,1.85,1.57s.73,1.5.73,2.44c0,.48-.07.88-.22,1.21-.15.33-.35.53-.61.62l-9.01,3.06c.31.93.93,1.54,1.88,1.83s1.99.42,3.14.42c.38,0,.75-.05,1.13-.16.38-.1.82-.25,1.34-.44.33-.12.6-.22.81-.28.21-.07.4-.1.56-.1.37,0,.64.11.83.33ZM484.82,39.12c.95-.36,2.17-.83,3.66-1.42,1-.4,1.69-.66,2.05-.79-.27-.55-.72-.95-1.35-1.2-.64-.25-1.37-.38-2.2-.38-.47,0-1.04.17-1.73.5-.68.33-1.32.85-1.89,1.55-.58.7-.94,1.56-1.09,2.58.75-.2,1.59-.48,2.55-.84Z"/>
    <path class="cls-4" d="M496.48,35.93c-.36.02-.66.03-.91.03-.14,0-.31-.06-.51-.17s-.38-.27-.53-.48c-.15-.21-.22-.44-.22-.71s.06-.51.19-.74c.12-.23.28-.42.48-.55.19-.14.39-.21.6-.21.32,0,.9.03,1.76.08.03-1.17.14-2.28.33-3.34.19-1.06.57-1.59,1.12-1.59.13,0,.26.06.4.18.14.12.25.28.35.48.09.2.14.42.14.66,0,1-.06,1.91-.18,2.72l-.04.35-.13.58c.36,0,.78,0,1.27-.01s.86-.02,1.12-.03c.79-.03,1.59-.04,2.38-.04.29,0,.5.16.63.49.13.33.19.67.19,1.04,0,.4-.11.71-.32.94-.21.23-.44.35-.69.35l-4.59-.06-.02,1.3c-.03.79-.04,1.65-.04,2.58,0,1.31.12,2.35.35,3.1s.68,1.13,1.35,1.13c.57,0,1.27-.29,2.1-.86.18-.1.27-.16.28-.16.25,0,.42.07.51.2.09.13.13.36.13.69,0,.4-.17.82-.51,1.27-.34.45-.74.83-1.21,1.14s-.87.47-1.22.47c-1.12,0-1.95-.38-2.49-1.13-.54-.75-.88-1.65-1.01-2.7-.13-1.05-.21-2.41-.23-4.08,0-1.31-.04-2.3-.12-2.96-.15,0-.38,0-.7.03Z"/>
  </g>
</svg>