<?xml version="1.0" encoding="UTF-8"?>
<svg id="Layer_1" xmlns="http://www.w3.org/2000/svg" viewBox="0 0 535.66 73.41">
  <defs>
    <style>
      .cls-1 {
        fill: none;
      }

      .cls-1, .cls-2 {
        stroke: #231f20;
        stroke-miterlimit: 10;
        stroke-width: 2px;
      }

      .cls-2 {
        fill: #a42739;
      }

      .cls-3 {
        fill: #eaa294;
      }

      .cls-4 {
        fill: #ededed;
        font-family: Dekko, Dekko;
        font-size: 29px;
      }

      .cls-5 {
        fill: #c18678;
      }
    </style>
  </defs>
  <g>
    <path class="cls-2" d="M533.92,1.49l-.13,71.92-419.64-.53c-2.58,0-5.15-.39-7.58-1.14L4.36,40.09c-3.63-1.13-3.63-5.48.01-6.6L107.36,1.88c1.99-.61,4.09-.92,6.2-.92l420.35.53Z"/>
    <path class="cls-5" d="M65.97,22.63c-1.5.77-2.35,1.96-2.88,3.29-.25.16-.47.34-.7.51-1.5-.09-3.03.18-4.3.83-.48.25-.9.55-1.3.86-.96-.03-1.94.06-2.91.31-5.14,1.33-6.26,5.94-5.34,9.91.84,3.59,3.53,7.37,7.37,9.17.78.37,1.65.66,2.54.87,1.57,1.87,4.04,3.09,7.22,2.99,3.08-.1,6.07-1.47,8.25-3.48.54.11,1.11.19,1.71.21,5.98.16,8.34-4.98,7.56-9.34.14-2.09-.86-4.24-2.5-5.78-.18-.17-.37-.31-.57-.46.69-.98.83-2.24.05-3.25-.33-.43-.69-.82-1.08-1.2,0,0,0,0,0,0-.36-.43-.72-.86-1.09-1.28-.87-.98-1.75-1.99-2.83-2.81-2.51-1.91-6.09-2.94-9.21-1.35Z"/>
    <path class="cls-3" d="M105.5,2.46c-1.06.12-1.89.55-2.66,1.16-.05.04-.37.3-.6.51-.28.04-.58.15-.85.21-.35.07-.71.12-1.07.17-.12.01-.42.05-.53.06-1.6.16-3.25.27-4.78.73-1.74.51-2.94,1.39-4.4,2.31.41-.26-.6.31-.57.3-.3.16-.62.3-.93.44-.48.21-.97.42-1.45.62-.34-.01-.69,0-1.05.05-1.41.2-2.7.78-3.91,1.43-.56-.11-1.15-.11-1.74.08-.79.25-1.57.53-2.35.81-.29.1-.58.21-.87.31-.13.05-1.03.44-.25.09-.54.24-1.18.4-1.76.56-.29.08-.59.14-.88.22-.03,0-.03,0-.05.02-1.9.03-3.36.77-4.65,1.91-.01.01-.02.02-.04.03-.82.22-1.63.46-2.42.76-.3.11-.57.25-.85.39-1.96.14-3.96.17-5.82.76-1.02.33-2.02.73-2.96,1.21-.08-.02-.15-.05-.23-.06-1.51-.23-2.79-.05-4.12.6-.78.38-1.55.76-2.36,1.1-.21.09-.42.17-.63.26-.04.01-.26.09-.38.14-.13.04-.32.1-.35.11-.23.07-.47.14-.7.21-.98.29-1.97.55-2.96.81-2.15.55-4.2,1.29-6.26,2.05-.46.17-.93.34-1.39.5-.29.1-.57.21-.85.32-.03.01-.26.09-.39.14-.13.04-.38.13-.41.14-.22.07-.44.13-.66.2-.62.18-1.24.38-1.81.65-.08.04-.14.09-.22.13-1.13-.48-2.5-.52-3.61.08-1.72.94-2.49,2.88-1.38,4.43.57.81,1,1.54,1.75,2.27.11.1.21.19.31.29.01.02.02.03.04.05.04.08.08.13.1.17.05.13.11.26.15.4.04.13.16.9.17.8.02.33.05.65.05.98,0,.39-.02.79-.05,1.18-.01.19-.03.38-.05.57,0,.06-.01.1-.02.14-.01.05-.03.13-.06.28-.05.21-.1.42-.15.62-.11.42-.24.83-.35,1.24-.24.84-.38,1.68-.58,2.52-.1.42-.25.83-.37,1.25-.01.03-.02.04-.03.06-.06.1-.12.2-.18.29-.03.04-.06.08-.09.12-1.95.31-3.2,2.44-2.62,3.97.69,1.82,2.58,2.56,4.7,2.27.49-.07.94-.2,1.37-.38.24.21.5.4.82.54,2.17.96,4.43,1.32,6.78,1.8.51.1,1,.25,1.51.36,0,0,.01.01.02.02.15.11.38.22.55.3.02,0,.02,0,.04.02.16.11.32.22.49.33.55.37,1.1.76,1.69,1.08,1.89,1.02,4.23,1.06,6.3,1.73,1.28.42,2.63.77,3.98,1.09.68.78,1.74,1.29,3,1.31,1.09.01,1.53.08,2.61.23.85.12,1.71.22,2.57.32.27.26.58.49.97.65.64.25,1.16.63,1.74.96.78.45,1.69.76,2.57,1.03,1.47.46,3.04.69,4.53,1.09,3.2.86,6.25,2.08,9.45,2.94,0,0,0,0,0,0,.08.05.15.11.23.16,1.37.85,2.95,1.24,4.49,1.82,1.76.66,3.43,1.46,5.23,2.05,1.8.6,3.7.95,5.51,1.51,3.26,1,6.29,2.35,9.77,2.78,2.51.31,5.38.49,7.82-.3,3.51.48,6.79-.47,10.14-1.31.51-.13,1.01-.29,1.52-.44,2.91.48,5.3-.39,7.97-1.41,2.39-.91,5.29-1.13,6.83-3.17,1.14-1.52,1.05-3.4.89-5.12-.25-2.74-2.3-4.37-5.22-5.3-2.4-.76-4.8-1.46-7.17-2.27-2.15-.73-4.04-1.77-6.13-2.59-2.46-.97-5.12-1.36-7.78-1.75-.71-.1-1.42-.21-2.12-.3,1.24-.22,2.46-.52,3.7-.77.25.05.51.07.78.07,1.35,0,2.66-.01,4-.2.44-.06.87-.16,1.29-.28.09.03.17.07.27.09,1.59.37,3.48.24,5.03-.22,1.54-.46,2.77-1.31,4.22-1.92.03-.01.04-.02.06-.02.02,0,.03,0,.06-.02.17-.06.35-.12.52-.17.35-.12.69-.23,1.04-.34.94-.32,1.89-.64,2.8-1.04,1.55-.68,2.86-1.56,3.72-2.86.87-1.31,1.32-2.74.8-4.14-.04-1.05-.32-2.09-.9-2.89-1.18-1.63-3.17-2.33-5.12-3.08-.28-.21-.54-.43-.82-.63-.8-.55-1.72-.88-2.65-.91-.14-.08-.3-.14-.44-.22-.94-.57-1.9-1.4-3.03-1.92-2.28-1.04-4.8-1.47-7.31-1.9-1.17-.2-2.35-.39-3.54-.56.55-.52.82-1.09.9-1.65,3.95-.15,7.96-.63,11.8-1.37,3.79-.74,7.69-2.21,9.87-5.09,2.6-3.44.68-7.26-3.05-9.35-.18-.1-.38-.17-.57-.26-.5-1.07-1.62-1.91-3.37-1.95-2.95-.05-6.04-.76-8.89-1.09-3-.34-6.05-1.04-9.17-1.11-2.93-.06-6.1-.33-9.02.03-.72-.34-1.56-.5-2.51-.39Z"/>
    <path class="cls-1" d="M25.46,46.62c7.09-5.39,7.92-14.38,1.87-20.09"/>
    <g>
      <path class="cls-1" d="M107.36,1.88c28.3.04,37.31,4.83,36.86,11.72"/>
      <path class="cls-1" d="M110.08,23.92c18.86.03,34.13-4.58,34.14-10.31"/>
    </g>
    <g>
      <path class="cls-1" d="M110.1,23.91c18.85.03,34.1,6.25,34.08,13.9"/>
      <path class="cls-1" d="M110.05,49.14c18.85.03,34.12-5.04,34.14-11.33"/>
    </g>
    <g>
      <path class="cls-1" d="M110.05,49.14c18.86.03,34.1,5.88,34.09,13.08"/>
      <path class="cls-1" d="M108.18,72.18c19.54,1.84,35.95-4.04,35.96-9.96"/>
    </g>
    <line class="cls-1" x1="14.84" y1="43.33" x2="108.18" y2="72.18"/>
    <line class="cls-1" x1="15.74" y1="30" x2="108.3" y2="1.6"/>
  </g>
  <text class="cls-4" transform="translate(167.86 46.62) scale(1.05 1)"><tspan x="0" y="0">Traditioner i fritidshjemmet</tspan></text>
</svg>