<?xml version="1.0" encoding="UTF-8"?>
<svg id="Layer_1" xmlns="http://www.w3.org/2000/svg" viewBox="0 0 599.63 73.18">
  <defs>
    <style>
      .cls-1 {
        fill: none;
        stroke: #231f20;
      }

      .cls-1, .cls-2 {
        stroke-miterlimit: 10;
        stroke-width: 2px;
      }

      .cls-2 {
        fill: #263779;
        stroke: #010101;
      }

      .cls-3 {
        fill: #eaa294;
      }

      .cls-4 {
        fill: #ededed;
      }

      .cls-5 {
        fill: #c18678;
      }
    </style>
  </defs>
  <g>
    <path class="cls-2" d="M598.72,1.06l-.1,72.12-471.03-.38c-2.9,0-5.78-.39-8.51-1.14L4.34,39.96c-4.08-1.13-4.07-5.49,0-6.62L119.93,1.61c2.23-.61,4.59-.93,6.96-.92l471.83.38Z"/>
    <path class="cls-5" d="M73.48,22.43c-1.69.77-2.64,1.97-3.23,3.3-.28.16-.53.34-.79.52-1.68-.09-3.4.18-4.83.84-.54.25-1.01.55-1.46.87-1.08-.03-2.18.06-3.26.32-5.77,1.33-7.03,5.96-5.99,9.93.94,3.6,3.96,7.39,8.28,9.19.88.37,1.85.67,2.85.87,1.77,1.87,4.54,3.1,8.11,2.99,3.46-.1,6.81-1.48,9.26-3.49.61.11,1.24.19,1.92.21,6.71.15,9.36-5,8.48-9.37.15-2.1-.97-4.25-2.81-5.79-.2-.17-.42-.31-.64-.46.77-.98.93-2.25.05-3.26-.37-.43-.78-.83-1.21-1.21,0,0,0,0,0,0-.41-.43-.81-.86-1.23-1.28-.97-.99-1.96-1.99-3.18-2.82-2.82-1.92-6.83-2.95-10.33-1.35Z"/>
    <path class="cls-3" d="M117.84,2.19c-1.19.12-2.12.55-2.99,1.16-.06.04-.41.3-.68.51-.32.04-.65.16-.96.21-.4.07-.8.12-1.2.17-.13.01-.47.05-.59.06-1.8.16-3.65.28-5.36.73-1.96.52-3.3,1.4-4.94,2.31.46-.26-.67.32-.63.3-.34.16-.69.3-1.04.44-.54.22-1.08.42-1.63.62-.38,0-.78,0-1.18.05-1.59.2-3.03.79-4.39,1.43-.63-.11-1.29-.11-1.95.08-.89.25-1.76.53-2.64.81-.32.1-.65.21-.97.31-.14.05-1.15.44-.28.09-.6.25-1.32.4-1.97.56-.33.08-.66.14-.99.22-.03,0-.03,0-.06.02-2.13.03-3.78.77-5.22,1.91-.01.01-.03.02-.04.03-.92.22-1.83.46-2.72.76-.33.11-.64.25-.95.39-2.2.15-4.44.17-6.53.77-1.14.33-2.26.74-3.32,1.22-.09-.02-.17-.05-.26-.06-1.69-.23-3.13-.05-4.63.61-.88.38-1.74.77-2.65,1.11-.24.09-.47.17-.71.26-.04.01-.29.09-.42.14-.15.04-.36.1-.4.11-.26.07-.53.14-.79.21-1.1.29-2.21.55-3.32.81-2.42.55-4.71,1.3-7.03,2.06-.52.17-1.04.34-1.56.51-.32.1-.64.21-.96.32-.04.01-.29.09-.44.14-.14.04-.42.13-.46.14-.24.07-.49.13-.74.2-.69.18-1.39.38-2.03.65-.09.04-.16.09-.24.13-1.26-.48-2.81-.52-4.05.08-1.93.94-2.79,2.89-1.55,4.45.65.81,1.12,1.55,1.97,2.27.12.1.24.19.35.29.02.02.02.03.04.05.05.08.09.13.11.17.06.13.12.26.17.4.05.13.18.9.19.8.03.33.05.66.05.99,0,.39-.02.79-.06,1.18-.02.19-.03.38-.05.57,0,.06-.01.1-.02.14-.01.05-.03.13-.06.28-.05.21-.11.42-.17.62-.12.42-.27.83-.4,1.25-.27.84-.43,1.69-.65,2.53-.11.42-.28.83-.42,1.25-.01.03-.02.04-.03.06-.07.1-.13.2-.2.29-.03.04-.07.08-.1.12-2.18.31-3.59,2.45-2.94,3.98.78,1.82,2.9,2.57,5.28,2.27.55-.07,1.06-.21,1.54-.38.27.21.56.4.92.54,2.43.96,4.98,1.32,7.61,1.81.57.1,1.13.25,1.7.36.01,0,.01.01.03.02.17.11.43.22.62.3.02,0,.02,0,.04.02.18.11.36.22.55.33.61.37,1.23.76,1.89,1.08,2.12,1.02,4.75,1.06,7.07,1.73,1.44.42,2.95.78,4.47,1.09.77.78,1.96,1.3,3.37,1.31,1.23.01,1.72.07,2.93.23.96.12,1.92.22,2.88.32.3.26.65.5,1.08.65.72.25,1.3.63,1.95.96.88.45,1.9.76,2.89,1.04,1.65.47,3.41.69,5.09,1.1,3.59.86,7.01,2.08,10.61,2.94,0,0,0,0,.01,0,.09.05.17.11.26.16,1.54.85,3.31,1.25,5.04,1.82,1.98.66,3.85,1.46,5.87,2.06,2.02.6,4.15.95,6.19,1.51,3.66,1,7.07,2.35,10.96,2.78,2.81.31,6.04.49,8.78-.3,3.95.48,7.62-.47,11.38-1.31.57-.13,1.14-.29,1.7-.44,3.27.48,5.95-.39,8.95-1.41,2.69-.92,5.94-1.13,7.66-3.19,1.28-1.53,1.18-3.41,1-5.14-.29-2.75-2.58-4.39-5.86-5.31-2.69-.76-5.39-1.47-8.05-2.27-2.41-.73-4.54-1.77-6.88-2.6-2.76-.97-5.75-1.36-8.73-1.76-.79-.1-1.59-.21-2.38-.3,1.4-.22,2.77-.52,4.16-.78.28.05.58.07.88.07,1.52,0,2.98-.02,4.49-.2.49-.06.97-.16,1.45-.28.1.03.19.07.3.09,1.79.37,3.9.24,5.64-.22,1.73-.46,3.11-1.31,4.73-1.92.03-.01.04-.02.06-.03.02,0,.04,0,.07-.02.2-.06.39-.12.58-.17.39-.12.78-.23,1.17-.35,1.06-.32,2.12-.65,3.14-1.04,1.74-.68,3.21-1.56,4.18-2.87.97-1.32,1.48-2.75.9-4.16-.04-1.06-.36-2.1-1.01-2.89-1.33-1.64-3.56-2.34-5.75-3.09-.31-.21-.61-.43-.93-.63-.9-.56-1.93-.88-2.98-.91-.16-.08-.34-.14-.49-.22-1.05-.57-2.13-1.41-3.4-1.93-2.56-1.04-5.38-1.47-8.2-1.9-1.31-.2-2.64-.39-3.97-.56.62-.52.92-1.09,1.01-1.66,4.43-.15,8.94-.63,13.24-1.38,4.25-.74,8.63-2.22,11.07-5.11,2.91-3.45.76-7.28-3.42-9.38-.21-.1-.42-.18-.64-.27-.57-1.07-1.82-1.92-3.79-1.95-3.31-.05-6.78-.76-9.97-1.09-3.36-.34-6.79-1.04-10.3-1.11-3.29-.06-6.84-.33-10.13.03-.81-.34-1.76-.5-2.82-.39Z"/>
    <path class="cls-1" d="M28.03,46.5c7.95-5.41,8.88-14.42,2.08-20.14"/>
    <g>
      <path class="cls-1" d="M119.93,1.61c31.77.03,41.88,4.83,41.38,11.74"/>
      <path class="cls-1" d="M123,23.71c21.17.02,38.3-4.61,38.32-10.35"/>
    </g>
    <g>
      <path class="cls-1" d="M123.02,23.69c21.16.02,38.27,6.25,38.26,13.92"/>
      <path class="cls-1" d="M122.97,48.99c21.16.02,38.3-5.06,38.31-11.38"/>
    </g>
    <g>
      <path class="cls-1" d="M122.98,48.99c21.17.02,38.28,5.89,38.27,13.1"/>
      <path class="cls-1" d="M120.88,72.1c21.93,1.84,40.35-4.06,40.36-10"/>
    </g>
    <line class="cls-1" x1="16.1" y1="43.21" x2="120.88" y2="72.1"/>
    <line class="cls-1" x1="17.1" y1="29.84" x2="120.98" y2="1.32"/>
  </g>
  <g>
    <path class="cls-4" d="M175.69,29.6c.24.21.4.47.48.77.44,2.34,1.66,6.57,3.65,12.67.09-.2.59-1.12,1.49-2.76l2.7-4.97c.18-.3.52-.91,1.02-1.83.79-1.45,1.46-2.58,1.99-3.38s1.01-1.2,1.44-1.2c.1,0,.2.05.33.16.12.1.22.26.31.47s.13.46.13.75c0,.31-.12.71-.35,1.19-.98,1.54-2.45,4.01-4.4,7.41-1.95,3.4-3.16,5.61-3.63,6.62-.17.3-.31.52-.41.64-.11.13-.27.23-.5.31-.23.08-.55.12-.98.12-.15,0-.63-1.19-1.44-3.56-.81-2.37-1.58-4.83-2.3-7.38-.72-2.54-1.09-4.16-1.09-4.84,0-.42.05-.77.16-1.07.11-.3.34-.45.71-.45.22,0,.45.11.69.32Z"/>
    <path class="cls-4" d="M194.02,45.78c-.98-.7-1.77-1.58-2.36-2.65-.59-1.07-.88-2.13-.88-3.17,0-1.64.32-3,.96-4.06.64-1.07,1.47-1.84,2.49-2.33,1.02-.49,2.12-.73,3.31-.73,1.26,0,2.34.29,3.25.87.91.58,1.61,1.41,2.09,2.48.48,1.07.72,2.33.72,3.77,0,1.31-.3,2.49-.91,3.54-.61,1.05-1.41,1.86-2.4,2.45-.99.59-2.03.88-3.13.88s-2.16-.35-3.14-1.05ZM201.06,37.59c-.31-.65-.74-1.16-1.29-1.52-.55-.36-1.16-.55-1.84-.55-.84,0-1.64.16-2.43.47-.78.32-1.42.79-1.92,1.41s-.75,1.37-.75,2.25c0,.74.2,1.46.6,2.16.4.7.92,1.27,1.57,1.71.64.44,1.31.66,2,.66.78,0,1.52-.17,2.21-.52.69-.35,1.25-.85,1.67-1.51.42-.66.63-1.43.63-2.33,0-.84-.16-1.59-.47-2.24Z"/>
    <path class="cls-4" d="M210.32,36.6c-.69.79-1.04,2.01-1.04,3.65v.5l.16,4.36c0,.16-.04.36-.12.59-.08.23-.21.43-.38.61-.17.17-.4.26-.67.26-.51,0-.86-.14-1.05-.41s-.29-.72-.29-1.35c0-.42.01-.85.03-1.3,0-.15.02-.35.02-.59v-1.33c0-.53.03-1.26.09-2.18.06-.93.19-2.54.39-4.86.03-.47.15-.84.36-1.12s.5-.41.88-.41c.21,0,.41.12.59.38.18.25.28.65.28,1.2,0,.84-.02,1.35-.05,1.54.21-.6.62-1.17,1.23-1.69.61-.52,1.27-.94,1.99-1.25.72-.31,1.34-.47,1.87-.47.87,0,1.63.15,2.3.45.67.3,1,.9,1,1.8,0,.28-.07.54-.21.78s-.31.42-.53.55-.44.2-.67.2c-.2,0-.35-.03-.44-.1-.09-.07-.18-.17-.27-.31-.13-.22-.3-.38-.52-.5-.22-.12-.59-.18-1.13-.18h-.36c-1.61,0-2.76.4-3.45,1.19Z"/>
    <path class="cls-4" d="M231.33,43.58c.2.22.29.56.29,1.02,0,.89-.72,1.47-2.15,1.76-1.43.28-2.85.42-4.24.42-1.05,0-2.06-.27-3.03-.81-.97-.54-1.76-1.28-2.36-2.22-.6-.93-.9-1.96-.9-3.07,0-1.6.29-3.01.87-4.23.58-1.23,1.43-2.18,2.55-2.87,1.12-.68,2.44-1.03,3.97-1.03.81,0,1.62.18,2.42.54s1.46.88,1.98,1.57c.52.69.78,1.5.78,2.44,0,.48-.08.88-.24,1.21-.16.33-.38.53-.65.62l-9.6,3.06c.33.93.99,1.54,2,1.83s2.12.42,3.35.42c.4,0,.8-.05,1.21-.16.4-.1.88-.25,1.43-.44.35-.12.64-.22.86-.28s.43-.1.6-.1c.39,0,.68.11.88.33ZM223.56,38.99c1.02-.36,2.32-.83,3.9-1.42,1.07-.4,1.8-.66,2.19-.79-.29-.55-.77-.95-1.44-1.2s-1.46-.38-2.35-.38c-.5,0-1.11.17-1.84.5-.73.33-1.4.85-2.02,1.55s-1,1.56-1.16,2.58c.79-.2,1.7-.48,2.71-.84Z"/>
    <path class="cls-4" d="M236.62,46.39c-.86-.36-1.29-1.05-1.29-2.06,0-.16.05-.36.16-.6.11-.24.24-.45.4-.62.16-.17.32-.26.48-.26.05,0,.19.08.4.25.28.31.54.54.8.7.26.16.55.26.88.31.33.05.77.08,1.32.08s1.14-.06,1.79-.19c.64-.13,1.18-.28,1.63-.45s.67-.31.67-.41c0-.25-.14-.46-.41-.63-.28-.17-.61-.29-1.02-.39-.4-.09-.99-.21-1.78-.35-1.24-.21-2.26-.43-3.05-.66-.8-.23-1.49-.6-2.08-1.12-.59-.51-.88-1.21-.88-2.09,0-1.09.33-2.04,1-2.85.67-.82,1.51-1.44,2.55-1.88,1.03-.44,2.07-.66,3.12-.66.69,0,1.3.12,1.85.37.54.25.97.57,1.27.97.3.4.45.83.45,1.3,0,.75-.06,1.35-.19,1.83s-.43.71-.9.71c-.23,0-.39-.1-.46-.3s-.11-.5-.11-.92c0-.44-.19-.75-.57-.92-.38-.17-.95-.25-1.71-.25-.53,0-1.12.12-1.76.35-.64.24-1.2.54-1.65.92-.46.38-.68.77-.68,1.18s.17.75.52,1.01c.35.26.78.46,1.3.59.52.14,1.23.29,2.14.45,1.12.2,2.03.4,2.71.59s1.27.51,1.75.93c.48.42.72.98.72,1.69,0,.9-.39,1.64-1.16,2.23-.77.59-1.67,1.02-2.71,1.3-1.03.27-1.92.41-2.67.41-1.02,0-1.95-.18-2.81-.55Z"/>
    <path class="cls-4" d="M257.82,36.52c.45,1.39.88,2.6,1.27,3.62.39,1.03.88,2.14,1.48,3.34.18-.17.55-.78,1.13-1.82.57-1.04,1.54-2.98,2.92-5.8.68-1.2,1.19-2.05,1.54-2.54.35-.5.64-.74.87-.74.28,0,.49.15.65.45.16.3.24.66.24,1.1,0,.19-.05.4-.14.64-.1.24-.29.62-.58,1.15s-.66,1.17-1.1,1.93l-.59,1.01c-2.53,5.37-4.33,8.06-5.39,8.06-.6,0-1.3-.96-2.09-2.87-.79-1.92-1.69-4.49-2.68-7.72-.34-.69-.51-1.3-.51-1.84,0-.42.05-.77.16-1.05.11-.27.33-.41.67-.41.43,0,.75.11.94.33.19.22.38.61.55,1.17l.68,2Z"/>
    <path class="cls-4" d="M292.57,43.15c.18.2.27.54.27,1.01,0,.88-.72,1.46-2.15,1.76-1.43.29-2.83.44-4.2.44-1.02,0-1.97-.25-2.87-.75-.9-.5-1.63-1.18-2.19-2.02-.61.91-1.46,1.67-2.54,2.28s-2.45.92-4.11.92c-1.04,0-1.94-.19-2.71-.58-.77-.39-1.36-.91-1.77-1.58-.41-.67-.61-1.4-.61-2.22,0-1.57.46-2.75,1.38-3.55s2.42-1.2,4.51-1.2,3.51.41,4.54,1.22c-.04-1-.31-1.75-.79-2.25-.49-.5-1.05-.82-1.7-.96s-1.38-.21-2.19-.21c-.51,0-.98.04-1.4.11-.43.07-.77.17-1.04.29l-.46.18c-.07.03-.22.09-.45.19-.23.1-.41.15-.55.15-.48,0-.8-.1-.98-.3-.18-.2-.27-.58-.27-1.14s.33-.96.99-1.27c.66-.31,1.43-.52,2.31-.64.88-.12,1.71-.18,2.49-.18,1.22,0,2.28.25,3.18.76.9.51,1.59,1.24,2.07,2.2.56-1.09,1.36-1.92,2.4-2.5,1.04-.58,2.3-.87,3.78-.87.81,0,1.63.18,2.44.54.81.36,1.48.89,2.01,1.57.52.68.79,1.48.79,2.39,0,.49-.07.84-.21,1.06s-.39.36-.75.44c-.07.03-.3.09-.67.2-2.21.64-5.09,1.53-8.65,2.66.35.97,1.02,1.63,2.01,1.98.99.34,2.04.52,3.15.52.39,0,.78-.05,1.17-.14.39-.09.86-.24,1.42-.42.37-.12.67-.21.89-.28.22-.06.42-.09.59-.09.41,0,.71.1.89.3ZM277.3,43.89c.65-.23,1.2-.51,1.67-.85s.83-.68,1.08-1.03c-.1-.61-.59-1.06-1.48-1.34-.89-.28-1.89-.42-2.99-.42-1.24,0-2.2.17-2.9.5s-1.05.84-1.07,1.54c0,.33.14.64.42.94.28.3.69.54,1.23.72.54.18,1.19.28,1.95.28s1.45-.11,2.09-.34ZM282.32,39.26c.91-.41,1.87-.79,2.88-1.16s2.36-.84,4.04-1.42c.33-.1.77-.25,1.32-.44-.2-.36-.52-.67-.96-.93-.44-.26-.96-.4-1.55-.4-.23,0-.54.03-.92.08-2.58.56-4.18,1.98-4.81,4.26Z"/>
    <path class="cls-4" d="M299.94,36.6c-.69.79-1.04,2.01-1.04,3.65v.5l.16,4.36c0,.16-.04.36-.12.59-.08.23-.21.43-.38.61-.17.17-.4.26-.67.26-.51,0-.86-.14-1.05-.41s-.29-.72-.29-1.35c0-.42.01-.85.03-1.3,0-.15.02-.35.02-.59v-1.33c0-.53.03-1.26.09-2.18.06-.93.19-2.54.39-4.86.03-.47.15-.84.36-1.12s.5-.41.88-.41c.21,0,.41.12.59.38.18.25.28.65.28,1.2,0,.84-.02,1.35-.05,1.54.21-.6.62-1.17,1.23-1.69.61-.52,1.27-.94,1.99-1.25.72-.31,1.34-.47,1.87-.47.87,0,1.63.15,2.3.45.67.3,1,.9,1,1.8,0,.28-.07.54-.21.78s-.31.42-.53.55-.44.2-.67.2c-.2,0-.35-.03-.44-.1-.09-.07-.18-.17-.27-.31-.13-.22-.3-.38-.52-.5-.22-.12-.59-.18-1.13-.18h-.36c-1.61,0-2.76.4-3.45,1.19Z"/>
    <path class="cls-4" d="M317.55,33.19c.57.22,1.03.52,1.39.92s.57.85.63,1.36l.03-4.06.03-4.04c0-.99.4-1.49,1.21-1.49.31,0,.53.13.67.4s.21.58.21.95l-.02,2.1-.03,2.14-.19,8.99-.06,2.45c-.01,1.26-.1,2.2-.28,2.84-.17.64-.53.96-1.07.96-.21,0-.39-.12-.54-.37s-.32-.6-.51-1.08c-.35.3-.81.56-1.38.77-.57.21-1.16.37-1.76.48-.6.11-1.13.16-1.57.16-1.89,0-3.33-.56-4.3-1.67-.97-1.11-1.46-2.63-1.46-4.55,0-1.32.29-2.56.87-3.72.58-1.16,1.41-2.1,2.5-2.8,1.09-.71,2.37-1.06,3.84-1.06.63,0,1.24.11,1.8.33ZM316.9,43.86c.64-.2,1.15-.45,1.52-.73s.61-.54.69-.78c.08-.25.14-.51.17-.79s.04-.61.04-.99v-1.3c0-.64-.16-1.25-.49-1.83-.33-.58-.76-1.04-1.31-1.39s-1.11-.52-1.71-.52c-1.03,0-1.92.21-2.69.62-.77.42-1.35.99-1.76,1.72-.41.73-.61,1.56-.61,2.5,0,.76.17,1.44.52,2.01s.82,1.02,1.42,1.32c.6.31,1.27.46,2.01.46.83,0,1.56-.1,2.2-.3Z"/>
    <path class="cls-4" d="M327.88,46.41c-.22.27-.47.41-.75.41-.39,0-.7-.11-.93-.33-.23-.22-.4-.59-.52-1.11-.08-.45-.13-1.42-.13-2.9,0-2.45.11-4.68.33-6.68.22-2,.71-2.99,1.48-2.99.32,0,.53.12.63.38.1.25.15.61.15,1.08l-.13,1.98c-.05.67-.1,1.37-.14,2.11s-.06,1.39-.06,1.97c0,.61.07,1.47.21,2.58.13,1.15.19,1.95.19,2.39,0,.47-.11.84-.33,1.12ZM327.63,29.88c-.43,0-.84-.11-1.21-.34-.38-.23-.56-.62-.56-1.19,0-.28.09-.57.26-.86.17-.29.39-.53.65-.72.26-.19.5-.28.74-.28.43,0,.81.12,1.13.37s.48.67.48,1.26c0,1.18-.49,1.77-1.48,1.77Z"/>
    <path class="cls-4" d="M343.47,43.58c.2.22.29.56.29,1.02,0,.89-.72,1.47-2.15,1.76-1.43.28-2.85.42-4.24.42-1.05,0-2.06-.27-3.03-.81-.97-.54-1.76-1.28-2.36-2.22-.6-.93-.9-1.96-.9-3.07,0-1.6.29-3.01.87-4.23.58-1.23,1.43-2.18,2.55-2.87,1.12-.68,2.44-1.03,3.97-1.03.81,0,1.62.18,2.42.54s1.46.88,1.98,1.57c.52.69.78,1.5.78,2.44,0,.48-.08.88-.24,1.21-.16.33-.38.53-.65.62l-9.6,3.06c.33.93.99,1.54,2,1.83s2.12.42,3.35.42c.4,0,.8-.05,1.21-.16.4-.1.88-.25,1.43-.44.35-.12.64-.22.86-.28s.43-.1.6-.1c.39,0,.68.11.88.33ZM335.71,38.99c1.02-.36,2.32-.83,3.9-1.42,1.07-.4,1.8-.66,2.19-.79-.29-.55-.77-.95-1.44-1.2s-1.46-.38-2.35-.38c-.5,0-1.11.17-1.84.5-.73.33-1.4.85-2.02,1.55s-1,1.56-1.16,2.58c.79-.2,1.7-.48,2.71-.84Z"/>
    <path class="cls-4" d="M350.49,36.6c-.69.79-1.04,2.01-1.04,3.65v.5l.16,4.36c0,.16-.04.36-.12.59-.08.23-.21.43-.38.61-.17.17-.4.26-.67.26-.51,0-.86-.14-1.05-.41s-.29-.72-.29-1.35c0-.42.01-.85.03-1.3,0-.15.02-.35.02-.59v-1.33c0-.53.03-1.26.09-2.18.06-.93.19-2.54.39-4.86.03-.47.15-.84.36-1.12s.5-.41.88-.41c.21,0,.41.12.59.38.18.25.28.65.28,1.2,0,.84-.02,1.35-.05,1.54.21-.6.62-1.17,1.23-1.69.61-.52,1.27-.94,1.99-1.25.72-.31,1.34-.47,1.87-.47.87,0,1.63.15,2.3.45.67.3,1,.9,1,1.8,0,.28-.07.54-.21.78s-.31.42-.53.55-.44.2-.67.2c-.2,0-.35-.03-.44-.1-.09-.07-.18-.17-.27-.31-.13-.22-.3-.38-.52-.5-.22-.12-.59-.18-1.13-.18h-.36c-1.61,0-2.76.4-3.45,1.19Z"/>
    <path class="cls-4" d="M368.91,45.78c-.98-.7-1.77-1.58-2.36-2.65-.59-1.07-.88-2.13-.88-3.17,0-1.64.32-3,.96-4.06.64-1.07,1.47-1.84,2.49-2.33,1.02-.49,2.12-.73,3.31-.73,1.26,0,2.34.29,3.25.87.91.58,1.6,1.41,2.09,2.48.48,1.07.72,2.33.72,3.77,0,1.31-.3,2.49-.91,3.54s-1.41,1.86-2.4,2.45-2.03.88-3.13.88-2.16-.35-3.14-1.05ZM375.95,37.59c-.31-.65-.74-1.16-1.29-1.52-.55-.36-1.16-.55-1.84-.55-.84,0-1.64.16-2.43.47-.78.32-1.42.79-1.92,1.41s-.75,1.37-.75,2.25c0,.74.2,1.46.6,2.16.4.7.93,1.27,1.57,1.71.64.44,1.31.66,2,.66.78,0,1.52-.17,2.21-.52s1.25-.85,1.67-1.51c.42-.66.63-1.43.63-2.33,0-.84-.16-1.59-.47-2.24Z"/>
    <path class="cls-4" d="M389.97,49.9c.26-.41.44-.9.54-1.48.1-.58.18-1.34.25-2.29.04-.66.08-1.15.13-1.46-.12.42-.4.8-.85,1.13s-.97.58-1.56.76c-.59.17-1.14.26-1.65.26-1.9,0-3.35-.52-4.34-1.56-.99-1.04-1.48-2.59-1.48-4.65,0-1.34.22-2.6.67-3.77s1.12-2.11,2.02-2.83,2.02-1.08,3.34-1.08c1.04,0,2.05.31,3.03.93.98.62,1.78,1.38,2.39,2.29.61.91.91,1.78.91,2.6l-.3,6.7-.02.2c-.05.25-.14.84-.25,1.74-.17,1.27-.36,2.31-.57,3.09-.21.79-.6,1.46-1.17,2.02-.57.56-1.37.84-2.42.84-.41,0-.95-.06-1.6-.19-.66-.13-1.25-.34-1.77-.64-.52-.3-.79-.7-.79-1.2,0-.47.07-.83.21-1.08s.4-.37.79-.37c.09,0,.18.01.26.04s.16.07.23.11c.26.15.59.27.98.37s1.02.14,1.87.14c.5,0,.88-.21,1.14-.62ZM388.99,43.55c.55-.42,1.01-.95,1.38-1.56.37-.62.64-1.23.81-1.83-.12-.82-.29-1.55-.53-2.19-.24-.64-.62-1.18-1.14-1.63-.52-.44-1.23-.67-2.12-.67-1.45,0-2.5.44-3.16,1.33-.66.89-.99,2.03-1.01,3.43,0,1.39.34,2.36,1.03,2.92.69.56,1.67.84,2.93.84.66,0,1.26-.21,1.81-.64Z"/>
    <path class="cls-4" d="M412.28,25.54c.54.2,1.03.46,1.44.8.42.34.63.71.63,1.11,0,.32-.04.63-.13.93-.08.3-.25.45-.49.45-.21,0-.41-.04-.6-.11-.19-.07-.41-.17-.67-.3-.32-.16-.58-.28-.79-.35s-.44-.11-.69-.11c-1.1,0-1.9.56-2.39,1.69s-.79,2.46-.88,4.02h3.75c.09,0,.24-.03.44-.05.2-.02.36-.04.48-.04.28,0,.5.1.69.29.18.19.28.54.28,1.03,0,.62-.15,1.02-.44,1.2s-.64.27-1.04.27c-1.86-.09-3.15-.14-3.86-.14h-.37c-.01.55-.04,1.44-.08,2.66-.06,1.37-.1,2.47-.11,3.3,0,.1.04.36.11.78.01.08.06.37.13.88.08.51.12,1.05.12,1.61,0,.79-.29,1.19-.87,1.19-.52,0-.9-.08-1.15-.23-.25-.16-.42-.46-.51-.9s-.13-1.14-.13-2.1c0-.55,0-1.17.03-1.88.02-.7.04-1.21.05-1.51.05-.98.08-1.99.09-3.03,0-.15.01-.39.03-.71-.85.05-1.59.07-2.24.07-.28,0-.52-.15-.72-.44s-.31-.61-.31-.95.11-.65.33-.95c.22-.3.47-.45.73-.45l2.29.08h.14c.31-2.41.89-4.41,1.76-6.01.87-1.6,2.08-2.4,3.63-2.4.32,0,.75.1,1.29.3Z"/>
    <path class="cls-4" d="M418.15,45.78c-.98-.7-1.77-1.58-2.36-2.65-.59-1.07-.88-2.13-.88-3.17,0-1.64.32-3,.96-4.06.64-1.07,1.47-1.84,2.49-2.33,1.02-.49,2.12-.73,3.31-.73,1.26,0,2.34.29,3.25.87.91.58,1.6,1.41,2.09,2.48.48,1.07.72,2.33.72,3.77,0,1.31-.3,2.49-.91,3.54s-1.41,1.86-2.4,2.45-2.03.88-3.13.88-2.16-.35-3.14-1.05ZM425.19,37.59c-.31-.65-.74-1.16-1.29-1.52-.55-.36-1.16-.55-1.84-.55-.84,0-1.64.16-2.43.47-.78.32-1.42.79-1.92,1.41s-.75,1.37-.75,2.25c0,.74.2,1.46.6,2.16.4.7.93,1.27,1.57,1.71.64.44,1.31.66,2,.66.78,0,1.52-.17,2.21-.52s1.25-.85,1.67-1.51c.42-.66.63-1.43.63-2.33,0-.84-.16-1.59-.47-2.24Z"/>
    <path class="cls-4" d="M431.84,27.03c.01-.26.08-.5.2-.72.12-.22.28-.39.46-.51.19-.12.36-.18.53-.18.14,0,.29.06.46.18.17.12.31.29.43.51.12.22.17.48.17.77,0,1.51-.09,3.55-.27,6.12-.09,1.39-.17,2.57-.21,3.55s-.07,1.99-.07,3.02v.2l6.17-7.19c.16-.22.34-.4.53-.54s.38-.21.56-.21c.44,0,.75.1.92.3.17.2.25.53.25.98v.14c0,.37-.25.8-.75,1.29-.5.49-1.21,1.11-2.14,1.87l-.83.68c.15.3.3.64.46,1.03.16.38.26.64.32.77.34.87.65,1.58.94,2.14.25.53.52,1.01.79,1.43.23.34.47.76.71,1.25.02.05.07.16.15.34s.16.37.23.58c.07.21.11.37.11.48,0,.45-.14.84-.43,1.15-.29.31-.62.47-1,.47-.24,0-.45-.09-.61-.27s-.3-.46-.4-.84c0,.04-.21-.41-.63-1.35s-1.2-2.77-2.34-5.49l-3.03,3.27c0,.59,0,1.04.02,1.36l.02,1.52c0,.38-.12.74-.36,1.08-.24.34-.54.51-.9.51-.28,0-.5-.08-.68-.25s-.31-.37-.4-.6c-.08-.23-.13-.44-.13-.63l.02-1.19c.01-.49.06-1.06.16-1.7.05-.3.08-.6.09-.91l.46-14.39Z"/>
    <path class="cls-4" d="M447.22,35.94c-.15.71-.26,1.3-.33,1.78-.07.48-.11.96-.11,1.44,0,.69.08,1.41.24,2.17.16.76.46,1.43.9,2,.44.57,1.06.86,1.86.86.98,0,1.8-.24,2.45-.71s1.26-1.13,1.83-1.97c.02-.25.08-1.16.17-2.75l.03-.71.05-3.95c0-.41.13-.71.38-.91s.52-.3.79-.3c.24,0,.46.1.66.3.2.2.29.47.29.82l-.25,11.27c-.01.53-.09.89-.24,1.07-.15.18-.41.28-.78.28-.32,0-.56-.05-.72-.15-.16-.1-.28-.31-.36-.62-.07-.32-.11-.81-.11-1.48,0-.48.01-.87.03-1.18-.18.69-.49,1.32-.93,1.88-.44.57-.94,1.01-1.5,1.33-.56.32-1.11.48-1.65.48-2.08,0-3.49-.75-4.2-2.26-.72-1.51-1.08-3.23-1.08-5.16,0-.98.06-1.98.19-2.98.13-1,.34-1.86.64-2.56.3-.7.7-1.05,1.18-1.05.58,0,.87.33.87,1.01,0,.39-.11,1.06-.32,2.02Z"/>
    <path class="cls-4" d="M461.8,46.39c-.86-.36-1.29-1.05-1.29-2.06,0-.16.05-.36.16-.6.11-.24.24-.45.4-.62.16-.17.32-.26.48-.26.05,0,.19.08.4.25.28.31.54.54.8.7.26.16.55.26.88.31.33.05.77.08,1.32.08s1.14-.06,1.79-.19c.64-.13,1.18-.28,1.63-.45s.67-.31.67-.41c0-.25-.14-.46-.41-.63-.28-.17-.61-.29-1.02-.39-.4-.09-.99-.21-1.78-.35-1.24-.21-2.26-.43-3.05-.66-.8-.23-1.49-.6-2.08-1.12-.59-.51-.88-1.21-.88-2.09,0-1.09.33-2.04,1-2.85.67-.82,1.51-1.44,2.55-1.88,1.03-.44,2.07-.66,3.12-.66.69,0,1.3.12,1.85.37.54.25.97.57,1.27.97.3.4.45.83.45,1.3,0,.75-.06,1.35-.19,1.83s-.43.71-.9.71c-.23,0-.39-.1-.46-.3s-.11-.5-.11-.92c0-.44-.19-.75-.57-.92-.38-.17-.95-.25-1.71-.25-.53,0-1.12.12-1.76.35-.64.24-1.2.54-1.65.92-.46.38-.68.77-.68,1.18s.17.75.52,1.01c.35.26.78.46,1.3.59.52.14,1.23.29,2.14.45,1.12.2,2.03.4,2.71.59s1.27.51,1.75.93c.48.42.72.98.72,1.69,0,.9-.39,1.64-1.16,2.23-.77.59-1.67,1.02-2.71,1.3-1.03.27-1.92.41-2.67.41-1.02,0-1.95-.18-2.81-.55Z"/>
    <path class="cls-4" d="M477.11,45.78c-.98-.7-1.77-1.58-2.36-2.65-.59-1.07-.88-2.13-.88-3.17,0-1.64.32-3,.96-4.06.64-1.07,1.47-1.84,2.49-2.33,1.02-.49,2.12-.73,3.31-.73,1.26,0,2.34.29,3.25.87.91.58,1.6,1.41,2.09,2.48.48,1.07.72,2.33.72,3.77,0,1.31-.3,2.49-.91,3.54s-1.41,1.86-2.4,2.45-2.03.88-3.13.88-2.16-.35-3.14-1.05ZM484.14,37.59c-.31-.65-.74-1.16-1.29-1.52-.55-.36-1.16-.55-1.84-.55-.84,0-1.64.16-2.43.47-.78.32-1.42.79-1.92,1.41s-.75,1.37-.75,2.25c0,.74.2,1.46.6,2.16.4.7.93,1.27,1.57,1.71.64.44,1.31.66,2,.66.78,0,1.52-.17,2.21-.52s1.25-.85,1.67-1.51c.42-.66.63-1.43.63-2.33,0-.84-.16-1.59-.47-2.24Z"/>
    <path class="cls-4" d="M507.67,39.53c0-.53-.15-1.06-.44-1.59-.3-.53-.72-.97-1.29-1.32-.56-.34-1.22-.52-1.97-.52-.39,0-.83.09-1.33.28-.5.18-.96.44-1.38.77s-.72.7-.9,1.1l-.16,5.76.06.42.06.44c0,.47-.1.88-.3,1.22-.2.34-.45.51-.75.51-.47,0-.84-.11-1.13-.33-.29-.22-.44-.62-.44-1.22l.05-.3c.08-.65.13-1.03.13-1.15l.06-4.23c.01-.56-.11-1.12-.35-1.68-.24-.56-.59-1.02-1.04-1.39-.45-.36-.96-.55-1.53-.55-.78,0-1.4.09-1.84.27s-.76.46-.94.85c-.19.39-.28.91-.28,1.57v.55c0,.52.03,1.28.1,2.28,0,.17,0,.4.03.68l.29,3.26c0,.27-.07.52-.22.74s-.32.39-.52.51c-.2.12-.35.18-.47.18-.47,0-.81-.14-1.03-.41-.22-.27-.33-.78-.33-1.52v-.14l.02-.34c.01-.07.02-.17.02-.33l-.02-2.28c-.01-.34-.02-.78-.02-1.33v-2.27c0-1.13.02-2.02.07-2.66s.15-1.14.31-1.49c.16-.35.4-.52.71-.52.62,0,.94.5.94,1.5v.25c.15-.36.39-.7.73-1.01.34-.32.73-.57,1.17-.77.44-.2.88-.3,1.32-.3.56,0,1.19.13,1.89.38s1.3.65,1.81,1.2c.51.54.76,1.22.76,2.03.15-.64.48-1.21.99-1.69.51-.49,1.1-.86,1.77-1.12.67-.26,1.27-.39,1.82-.39,1.85,0,3.29.59,4.31,1.78,1.02,1.18,1.53,3.02,1.53,5.5,0,1.69-.12,3.12-.36,4.3-.24,1.18-.61,1.77-1.11,1.77-.26,0-.51-.09-.74-.28-.23-.18-.41-.41-.55-.69s-.21-.53-.21-.76c0-.32.03-.6.09-.84.06-.24.14-.51.25-.8.12-.31.2-.59.26-.84.06-.25.09-.54.09-.89l.02-2.19Z"/>
    <path class="cls-4" d="M517.15,36.6c-.69.79-1.04,2.01-1.04,3.65v.5l.16,4.36c0,.16-.04.36-.12.59-.08.23-.21.43-.38.61-.17.17-.4.26-.67.26-.51,0-.86-.14-1.05-.41s-.29-.72-.29-1.35c0-.42.01-.85.03-1.3,0-.15.02-.35.02-.59v-1.33c0-.53.03-1.26.09-2.18.06-.93.19-2.54.39-4.86.03-.47.15-.84.36-1.12s.5-.41.88-.41c.21,0,.41.12.59.38.18.25.28.65.28,1.2,0,.84-.02,1.35-.05,1.54.21-.6.62-1.17,1.23-1.69.61-.52,1.27-.94,1.99-1.25.72-.31,1.34-.47,1.87-.47.87,0,1.63.15,2.3.45.67.3,1,.9,1,1.8,0,.28-.07.54-.21.78s-.31.42-.53.55-.44.2-.67.2c-.2,0-.35-.03-.44-.1-.09-.07-.18-.17-.27-.31-.13-.22-.3-.38-.52-.5-.22-.12-.59-.18-1.13-.18h-.36c-1.61,0-2.76.4-3.45,1.19Z"/>
    <path class="cls-4" d="M540.99,43.7c.14.19.21.49.21.91,0,.32-.1.64-.3.96s-.48.59-.83.79c-.35.21-.74.31-1.16.31s-.83-.13-1.25-.4c-.42-.27-.76-.62-1.02-1.06-.26-.44-.4-.89-.4-1.35-.79.9-1.62,1.62-2.47,2.16-.85.54-1.76.81-2.72.81-.88,0-1.77-.25-2.67-.76-.9-.51-1.65-1.2-2.23-2.06-.58-.86-.87-1.8-.87-2.8,0-1.35.34-2.67,1.03-3.96s1.61-2.35,2.77-3.16,2.41-1.22,3.75-1.22c1.02,0,1.96.27,2.83.82.87.55,1.57,1.25,2.08,2.12.51.86.77,1.74.77,2.63,0,.38-.03.76-.09,1.13s-.1.61-.11.71c-.08.44-.15.84-.19,1.18s-.06.71-.06,1.1c0,.56.09.96.28,1.2.19.24.46.36.83.36.1,0,.19-.03.29-.1s.22-.16.36-.28c.02-.02.08-.07.18-.15.1-.08.19-.13.28-.16.33,0,.56.09.71.28ZM534.45,43.19c.68-.61,1.14-1.31,1.39-2.1.25-.79.48-1.81.69-3.08,0-.29-.2-.63-.59-1.01s-.86-.7-1.4-.98-1.03-.41-1.47-.41c-1.09,0-2.06.27-2.92.81-.86.54-1.52,1.24-1.99,2.09s-.71,1.71-.71,2.59c0,.58.2,1.09.6,1.55.4.46.92.81,1.56,1.07.64.25,1.29.38,1.96.38,1.24,0,2.19-.31,2.87-.92ZM536.03,27.72c-.38.6-.85,1.1-1.41,1.5-.57.4-1.12.59-1.66.59-.6,0-1.18-.16-1.73-.47-.55-.32-.99-.73-1.33-1.25s-.5-1.08-.5-1.67c0-.36.2-.88.61-1.58.41-.69.9-1.31,1.48-1.84.58-.53,1.12-.8,1.63-.8.23,0,.41.02.53.06.12.04.22.14.3.28.08.15.15.38.21.69.08.07.24.13.46.18.52.09.98.36,1.37.81s.59,1.03.59,1.76c0,.56-.19,1.14-.56,1.74ZM534.2,27.38c.21-.16.38-.35.53-.59.15-.24.22-.48.22-.72,0-.2-.21-.41-.62-.64-.41-.23-.88-.44-1.39-.62-.51-.18-.85-.27-1.02-.27-.11,0-.22.1-.33.3-.12.2-.22.43-.31.69-.09.26-.13.45-.13.56,0,.18.14.39.43.63.29.24.63.45,1.02.62.4.17.75.26,1.05.26.16,0,.34-.08.55-.23Z"/>
    <path class="cls-4" d="M550.96,33.19c.57.22,1.03.52,1.39.92s.57.85.63,1.36l.03-4.06.03-4.04c0-.99.4-1.49,1.21-1.49.31,0,.53.13.67.4s.21.58.21.95l-.02,2.1-.03,2.14-.19,8.99-.06,2.45c-.01,1.26-.1,2.2-.28,2.84-.17.64-.53.96-1.07.96-.21,0-.39-.12-.54-.37s-.32-.6-.51-1.08c-.35.3-.81.56-1.38.77-.57.21-1.16.37-1.76.48-.6.11-1.13.16-1.57.16-1.89,0-3.33-.56-4.3-1.67-.97-1.11-1.46-2.63-1.46-4.55,0-1.32.29-2.56.87-3.72.58-1.16,1.41-2.1,2.5-2.8,1.09-.71,2.37-1.06,3.84-1.06.63,0,1.24.11,1.8.33ZM550.31,43.86c.64-.2,1.15-.45,1.52-.73s.61-.54.69-.78c.08-.25.14-.51.17-.79s.04-.61.04-.99v-1.3c0-.64-.16-1.25-.49-1.83-.33-.58-.76-1.04-1.31-1.39s-1.11-.52-1.71-.52c-1.03,0-1.92.21-2.69.62-.77.42-1.35.99-1.76,1.72-.41.73-.61,1.56-.61,2.5,0,.76.17,1.44.52,2.01s.82,1.02,1.42,1.32c.6.31,1.27.46,2.01.46.83,0,1.56-.1,2.2-.3Z"/>
    <path class="cls-4" d="M570.55,43.58c.2.22.29.56.29,1.02,0,.89-.72,1.47-2.15,1.76-1.43.28-2.85.42-4.24.42-1.05,0-2.06-.27-3.03-.81-.97-.54-1.76-1.28-2.36-2.22-.6-.93-.9-1.96-.9-3.07,0-1.6.29-3.01.87-4.23.58-1.23,1.43-2.18,2.55-2.87,1.12-.68,2.44-1.03,3.97-1.03.81,0,1.62.18,2.42.54s1.46.88,1.98,1.57c.52.69.78,1.5.78,2.44,0,.48-.08.88-.24,1.21-.16.33-.38.53-.65.62l-9.6,3.06c.33.93.99,1.54,2,1.83s2.12.42,3.35.42c.4,0,.8-.05,1.21-.16.4-.1.88-.25,1.43-.44.35-.12.64-.22.86-.28s.43-.1.6-.1c.39,0,.68.11.88.33ZM562.78,38.99c1.02-.36,2.32-.83,3.9-1.42,1.07-.4,1.8-.66,2.19-.79-.29-.55-.77-.95-1.44-1.2s-1.46-.38-2.35-.38c-.5,0-1.11.17-1.84.5-.73.33-1.4.85-2.02,1.55s-1,1.56-1.16,2.58c.79-.2,1.7-.48,2.71-.84Z"/>
    <path class="cls-4" d="M577.57,36.6c-.69.79-1.04,2.01-1.04,3.65v.5l.16,4.36c0,.16-.04.36-.12.59-.08.23-.21.43-.38.61-.17.17-.4.26-.67.26-.51,0-.86-.14-1.05-.41s-.29-.72-.29-1.35c0-.42.01-.85.03-1.3,0-.15.02-.35.02-.59v-1.33c0-.53.03-1.26.09-2.18.06-.93.19-2.54.39-4.86.03-.47.15-.84.36-1.12s.5-.41.88-.41c.21,0,.41.12.59.38.18.25.28.65.28,1.2,0,.84-.02,1.35-.05,1.54.21-.6.62-1.17,1.23-1.69.61-.52,1.27-.94,1.99-1.25.72-.31,1.34-.47,1.87-.47.87,0,1.63.15,2.3.45.67.3,1,.9,1,1.8,0,.28-.07.54-.21.78s-.31.42-.53.55-.44.2-.67.2c-.2,0-.35-.03-.44-.1-.09-.07-.18-.17-.27-.31-.13-.22-.3-.38-.52-.5-.22-.12-.59-.18-1.13-.18h-.36c-1.61,0-2.76.4-3.45,1.19Z"/>
  </g>
</svg>